<svg fill="currentColor" viewBox="0 0 32 33" xmlns="http://www.w3.org/2000/svg" xml:space="preserve" style="fill-rule:evenodd;clip-rule:evenodd;stroke-linejoin:round;stroke-miterlimit:2"><clipPath id="a"><path d="M31.08 11.722c-2.908 1.614-3.69 1.549-5.912-.635-2.373-2.332-4.632-4.779-6.95-7.167-.378-.39-.853-.695-1.186-1.116-.584-.738-1.092-1.536-1.633-2.309 1.09-.172 2.257-.666 3.253-.434 1.196.278 2.463.964 3.324 1.843 3.067 3.129 5.974 6.415 9.104 9.818Z"/></clipPath><g clip-path="url(#a)"><path d="M11.649-3.75H34.83v20.341H11.649z"/></g><clipPath id="b"><path d="M8.81 32.439c-2.464-.634-5.034-1.218-7.544-2.001C.729 30.27.416 29.38 0 28.824c.55-.385 1.053-.894 1.662-1.12.61-.228 1.34-.297 1.992-.221 2.969.345 5.932.758 8.894 1.17.535.075 1.088.192 1.569.422.329.157.793.58.759.822-.055.386-.406.93-.75 1.042-1.666.544-3.373.966-5.316 1.5Z"/></clipPath><g clip-path="url(#b)"><path d="M-3.75 23.703h22.377v12.485H-3.75z"/></g><clipPath id="c"><path d="M18.784 17.18c-1.02.131-2.152.61-3.04.326-2.435-.78-4.791-1.829-7.122-2.893-.497-.227-.759-.966-1.129-1.47.608-.32 1.306-1.012 1.809-.892a40.86 40.86 0 0 1 5.94 1.893c1.321.538 2.5 1.423 3.742 2.154l-.2.882Z"/></clipPath><g clip-path="url(#c)"><path d="M3.743 8.487h18.992v12.857H3.743z"/></g></svg>