<svg
        fill="currentColor"
        viewBox="0 0 32 33"
        version="1.1"
        xmlns="http://www.w3.org/2000/svg"
        xml:space="preserve"
        style="fill-rule:evenodd;clip-rule:evenodd;stroke-linejoin:round;stroke-miterlimit:2;"
>
    <clipPath id="_clipleft1"><path d="M31.08,11.722c-2.908,1.614 -3.69,1.549 -5.912,-0.635c-2.373,-2.332 -4.632,-4.779 -6.95,-7.167c-0.378,-0.39 -0.853,-0.695 -1.186,-1.116c-0.584,-0.738 -1.092,-1.536 -1.633,-2.309c1.09,-0.172 2.257,-0.666 3.253,-0.434c1.196,0.278 2.463,0.964 3.324,1.843c3.067,3.129 5.974,6.415 9.104,9.818Z"/></clipPath>
    <g clip-path="url(#_clipleft1)"><rect x="11.649" y="-3.75" width="23.181" height="20.341"/></g>
    <clipPath id="_clipleft2"><path d="M8.81,32.439c-2.464,-0.634 -5.034,-1.218 -7.544,-2.001c-0.537,-0.168 -0.85,-1.058 -1.266,-1.614c0.55,-0.385 1.053,-0.894 1.662,-1.12c0.61,-0.228 1.34,-0.297 1.992,-0.221c2.969,0.345 5.932,0.758 8.894,1.17c0.535,0.075 1.088,0.192 1.569,0.422c0.329,0.157 0.793,0.58 0.759,0.822c-0.055,0.386 -0.406,0.93 -0.75,1.042c-1.666,0.544 -3.373,0.966 -5.316,1.5Z"/></clipPath>
    <g clip-path="url(#_clipleft2)"><rect x="-3.75" y="23.703" width="22.377" height="12.485"/></g>
    <clipPath id="_clipleft3"><path d="M18.784,17.18c-1.02,0.131 -2.152,0.61 -3.04,0.326c-2.435,-0.78 -4.791,-1.829 -7.122,-2.893c-0.497,-0.227 -0.759,-0.966 -1.129,-1.47c0.608,-0.32 1.306,-1.012 1.809,-0.892c2.017,0.481 4.018,1.109 5.94,1.893c1.321,0.538 2.5,1.423 3.742,2.154c-0.066,0.294 -0.133,0.588 -0.2,0.882Z"/></clipPath>
    <g clip-path="url(#_clipleft3)"><rect x="3.743" y="8.487" width="18.992" height="12.857"/></g>
</svg>