<svg fill="currentColor" viewBox="0 0 167 248" xmlns="http://www.w3.org/2000/svg" xml:space="preserve" style="fill-rule:evenodd;clip-rule:evenodd;stroke-linejoin:round;stroke-miterlimit:2"><g transform="translate(-32.958 54.003)"><clipPath id="a"><path d="M113.516 39.415c.104-.338.55-.243.583.078.336 3.187-.086 6.518-.492 9.684-.194 1.528-.306 3.118-.602 4.624-.038.161-.074.324-.108.485.097.173.385.367.522.5l.596.58 1.196 1.158 7.016 6.799 3.433 3.329c1.177 1.141 2.514 2.234 3.547 3.506.56.691.687 1.538.135 2.278-.272.366-.762.632-1.259.687.194.271.344.577.439.918.195.693-.506 1.544-1.252 1.255-.847-.326-1.547-.909-2.409-1.188a5.757 5.757 0 0 0-2.719-.186 8.21 8.21 0 0 0-1.215.304c4.228 1.947 8.802 3.065 13.467 3.225.95.032 1.899.02 2.843-.044a26.399 26.399 0 0 0 4.718-.733 28.835 28.835 0 0 0 3.596-1.156c.574-.229 1.143-.48 1.692-.765l.048-.029c.124-.077 2.42-1.38 2.46-1.575.04-.196.04-.264-.035-.435a.632.632 0 0 0-.282-.287c-.709-.304-1.444-.586-2.218-.591-1.784-.011-3.729 1.308-5.204 2.207-1.62.987-3.11 2.14-4.669 3.21a.2.2 0 0 1-.114.036c-.165 0-.317-.203-.212-.362 1.118-1.646 2.626-3.016 4.204-4.213l.636-.476c1.445-1.078 3.135-2.272 4.892-2.532 2.152-.318 4.4 1.025 6.321 1.811l3.401 1.393c.606.247 1.266.458 1.876.739l-1.425-4.461c-.712-2.231-1.423-4.463-2.126-6.696l-.137-.437c-.7-2.267-1.344-4.625-2.511-6.696-.278-.496-.597-.964-.912-1.435-.328-.488-.45-1.027-.862-1.463-.815-.864-1.984-1.371-3.1-1.703-.272-.08-.191-.439.064-.467 1.145-.121 2.236.146 3.271.629l.43.206c.978.463 1.932.893 2.658 1.724 1.656 1.898 2.516 4.288 3.306 6.646l.212.633c.295-.097 2.305.516 2.556.662 7.532 3.185 13.333 9.115 17.576 16.064 4.647 7.615 7.178 16.317 9.268 24.927a424.89 424.89 0 0 1 1.854 7.995c-2.64 1.016-5.445 1.547-7.916 2.978-.941.546-.091 2.007.853 1.46 2.314-1.34 4.95-1.835 7.427-2.776a345.923 345.923 0 0 1 3.539 18.647c3.074 19.166 5.015 38.644 4.893 58.071a2.773 2.773 0 0 1-.364 1.321.736.736 0 0 0 .307-.245c.779-1.224 2.733-.089 1.95 1.141l-.115.178c-.588.908-1.137 1.601-2.171 2.113-1.042.516-2.17.602-3.319.632-3.906.103-7.816.17-11.726.218-.536-4.184-.754-8.408-1.493-12.568-.19-1.07-1.819-.616-1.63.449.714 4.017.942 8.095 1.44 12.139-8.36.09-16.724.092-25.078.115-11.321.033-22.64.01-33.96.003l-4.852-.001c-13.077 0-26.155-.042-39.232-.129l-3.11-.022c-1.237-7.296-2.079-14.654-2.095-22.069-.002-1.087-1.693-1.089-1.69 0 .015 7.406.848 14.766 2.074 22.06-3.096-.014-6.191-.003-9.288.107l-1.576.056c-3.153.108-6.313.175-9.46-.077-3.495-.281-7.029-.923-10.162-2.57A14.288 14.288 0 0 1 38 188.199c1.079-.628 2.174-1.231 3.219-1.915.907-.593.061-2.058-.853-1.46-1.127.738-2.311 1.38-3.471 2.062a15.685 15.685 0 0 1-2.053-3.708c-.826-2.12-1.145-4.401-1.422-6.645-.327-2.644-.462-5.31-.462-7.972 0-5.601.589-11.185 1.411-16.718.786-5.301 1.825-10.559 2.924-15.801l.15-.714c1.084-5.153 2.117-10.321 3.359-15.437 1.149-4.732 2.476-9.441 4.058-14.059 1.408.871 2.882 1.633 4.268 2.54.913.598 1.761-.866.853-1.46-1.479-.968-3.056-1.773-4.549-2.719 1.769-4.945 3.846-9.775 6.335-14.401 4.986-9.263 11.704-17.55 20.309-23.667a59.873 59.873 0 0 1 13.997-7.386c5.059-1.86 10.303-2.879 15.665-3.297.153-.012.239.129.233.26l-.003.025.212.034c.078-.531.238-1.044.545-1.516.697-1.073 2.019-1.762 3.076-2.422l.25-.156c1.257-.779 2.583-1.547 4.045-1.82.051-.008.082.044.048.085-.964 1.105-2.196 1.95-3.326 2.885l-.26.217c-.936.771-2.242 1.645-2.276 2.934-.04 1.517.27 3.096.382 4.609a95.05 95.05 0 0 1 .23 4.53 140.681 140.681 0 0 1-.509 16.244l2.121-1.42c3.301-2.211 6.613-4.415 9.993-6.485 2.046-1.253 4.344-2.324 6.795-2.276a8.807 8.807 0 0 1 2.205.324c-.8-.759-1.567-1.566-2.351-2.329a6797.266 6797.266 0 0 0-3.873-3.771l-3.721-3.627-3.724-3.627c-1.153-1.126-2.505-2.164-2.383-3.939.1-1.416.82-2.826 1.312-4.191.07-.197.133-.391.192-.583.994-3.302 1.557-6.724 2.565-10.012Zm48.104 141.646c-.77-.771-1.965.424-1.195 1.195l.407.406c.68.679 1.355 1.379 1.826 2.218l.069.127c.507.963 1.966.109 1.459-.854-.627-1.19-1.625-2.15-2.566-3.092Zm-32.986-.218a18.967 18.967 0 0 0-7.264 0c-1.067.204-.615 1.834.45 1.631 2.143-.41 4.221-.41 6.365 0 1.063.203 1.518-1.426.449-1.631Zm-33.1-17.043c-1.054-.267-1.504 1.363-.449 1.63l.52.131c1.766.436 3.449.762 5.284.356 1.048-.231.624-1.822-.408-1.638l-.041.008c-1.698.375-3.263-.071-4.906-.487Zm58.785-10.982c-.781-.759-1.977.435-1.196 1.195.976.949 2.125 1.67 3.518 1.709 1.072.03 1.088-1.611.048-1.689l-.048-.002c-.933-.026-1.677-.586-2.322-1.213Zm-99.47-4.516c.973-.487.118-1.946-.853-1.46l-5.841 2.922c-.974.486-.119 1.945.852 1.46l5.842-2.922Zm115.422.372c-1.088-.03-1.087 1.661 0 1.691 1.022.029 2.07.416 2.981.859.974.473 1.832-.984.853-1.46-1.191-.579-2.498-1.052-3.834-1.09Zm-54.577-8.163c.894-.608.05-2.074-.853-1.46-1.233.837-2.349 1.827-3.561 2.69l-.334.232c-.894.608-.049 2.073.854 1.46 1.343-.914 2.55-2.009 3.894-2.922Zm62.852-12.289c-1.088 0-1.09 1.691 0 1.691l.206-.001c.898-.005 1.844-.029 2.679.329l.096.044c.978.461 1.837-.996.853-1.46-1.224-.577-2.504-.602-3.834-.603Zm-93.862-1.208.142-.053c1.016-.365.578-1.999-.45-1.63-1.548.556-2.752 1.608-4.095 2.52-.895.608-.051 2.073.853 1.46 1.157-.786 2.233-1.782 3.55-2.297Zm63.395-4.398.227-.122c.968-.499.114-1.958-.852-1.46-.768.394-1.454.92-2.207 1.338l-.228.122c-.967.498-.113 1.958.854 1.46.767-.395 1.453-.92 2.206-1.338Zm-25.712-16.377-.175-.169c-.777-.761-1.973.433-1.195 1.196 1.945 1.904 4.245 3.35 6.564 4.748l.422.254c.935.561 1.786-.9.853-1.46l-.619-.373c-2.062-1.244-4.101-2.528-5.85-4.196Zm-46.771-1.579c.655-.851-.77-1.684-1.436-.883l-.024.03c-.682.886-1.491 1.688-2.337 2.42l-.16.136c-.503.429-1.42 1.347-2.127 1.408-1.076.091-1.086 1.783 0 1.69 1.094-.093 2.036-.864 2.864-1.524a19.13 19.13 0 0 0 3.22-3.277Zm89.918-6.159c.785-.738-.375-1.913-1.167-1.221l-.028.025c-1.468 1.38-3.579 1.75-5.468 2.217-1.056.262-.609 1.893.449 1.631l.861-.213c1.931-.482 3.868-1.043 5.353-2.439Zm-33.473-10.665c-1.054-.268-1.504 1.362-.449 1.63 1.793.456 3.491 1.045 5.152 1.863.973.478 1.83-.979.854-1.46a28.238 28.238 0 0 0-5.557-2.033Zm17.266-35.643c-.025-.076.055-.163.133-.135 1.897.707.889 3.192.299 4.68l-.107.272c-.923 2.384-2.214 4.705-3.621 6.839a57.445 57.445 0 0 1-4.878 6.381 53.998 53.998 0 0 1-2.388 2.54l-.31.306c-.832.819-1.905 2.256-3.196 2.097-1.39-.167-2.166-1.652-1.152-2.781.717-.799 1.71-1.435 2.51-2.162a53.975 53.975 0 0 0 2.313-2.224 53.315 53.315 0 0 0 4.317-4.964c1.285-1.686 2.515-3.419 3.633-5.221l.223-.361c.851-1.401 2.816-3.462 2.224-5.267Zm-67.2 17.711c-.9-.616-1.747.849-.853 1.46 1.643 1.123 3.089 2.484 4.868 3.408.952.495 1.799-.923.887-1.441l-.034-.018c-1.778-.924-3.225-2.286-4.868-3.409Z"/></clipPath><g clip-path="url(#a)"><path d="M27.958 34.202H204.34v164.549H27.958z"/></g></g><g transform="translate(-45.958 -177.967)"><clipPath id="b"><path d="M134.31 185.049c12.957-5.88 27.653-8.11 41.787-6.647 6.976.721 13.86 2.267 20.412 4.779l.574.222c1.617.622 3.361 1.241 4.59 2.508 1.43 1.473 1.831 3.701.809 5.521-.794 1.413-2.223 2.428-3.746 2.969.537.44 1.046.93 1.523 1.477.805.918.866 2.226 0 3.13a13.151 13.151 0 0 1-6.166 3.61 6.519 6.519 0 0 1-.442 3.929c-1.613 3.622-6.155 4.054-9.651 3.839l-.105-.007-.195 2.226c-.103 1.185-.813 2.105-2.017 2.286-.043.007-.085.011-.127.015 1.906 6.894 3.057 14.002 4.119 21.068a516.79 516.79 0 0 1 1.529 11.084l.158 1.233c.507 3.988 1.14 8.017 1.36 12.034.197 3.646-.499 7.127-2.744 10.069-2.016 2.638-4.764 4.614-7.72 6.081-6.678 3.315-13.707 5.784-21.093 6.93l-.493.076c-2.851.435-5.788.802-8.608.013-2.478-.694-5.077-2.482-4.517-5.354.188-.97 1.544-1.012 2.009-.262l.107.172c.557.885 1.168 1.707 2.141 2.163 1.139.537 2.459.687 3.703.702 3.476.04 7.095-.826 10.441-1.695 6.249-1.623 12.668-4.269 17.787-8.279 2.178-1.703 3.927-3.833 4.544-6.575.763-3.379.061-7.074-.285-10.47-.713-7.008-1.562-14.003-2.457-20.991l-.18-1.397c-.754-5.842-1.546-11.686-1.922-17.561a1.662 1.662 0 0 1-.305-.723l-.059-.383a3.228 3.228 0 0 1-.023-.904c.002-1.061.032-2.116.093-3.177.01-.19.019-.38.025-.568a49.515 49.515 0 0 1-3.329.606 106.367 106.367 0 0 1-23.713.89c-3.944-.294-7.859-.799-11.761-1.431a155.51 155.51 0 0 1-5.939-1.074c-1.426-.285-2.822-.672-4.225-1.035-1.447 2.107-2.229 4.7-2.077 7.247.171 2.906 2.106 5.542 1.563 8.511-.509 2.779-2.889 3.641-5.239 4.329l-.999.289c-.769.224-1.327.441-1.466 1.365-.239 1.588.054 3.374.116 4.969.074 1.888.171 3.775.215 5.662.023.977.061 1.957.059 2.934-.002.693-.105 1.166-.374 1.614.207.261.393.542.558.84.053.097-.078.2-.156.12a5.43 5.43 0 0 0-.666-.59 5.503 5.503 0 0 1-.416.453l-.013-.017c-.502.501-1.301.549-1.924.017l-.164-.142c-.456-.4-.77-.734-.897-1.395-.006-.034-.013-.067-.017-.101a6.55 6.55 0 0 0-3.382.811c-1.654.915-2.818 2.219-3.507 3.83.275.321.596.609.97.85.052.036.006.114-.051.086a4.598 4.598 0 0 1-1.031-.661 9.33 9.33 0 0 0-.526 2.035c-.372 2.545.291 5.654 2.59 7.104a6.231 6.231 0 0 0 3.31.972c.575.002 1.072-.095 1.629-.233.379-.093.755-.228 1.15-.228.338 0 .65.085.94.254l-.08.007c-.195.018-.158.026.114.026.845.036 1.328.894.94 1.641l-.051.115-.027.058-.031.198-.009.058-.012.04-.007.019 1.267 1.933c1.554 2.366 3.142 4.722 4.95 6.882 1.268 1.516 2.611 3.001 4.031 4.377 1.276 1.237 2.806 1.833 4.251 2.805.771.516.997 1.596.296 2.291-2.058 2.044-4.972.42-6.66-1.241-1.597-1.574-2.976-3.468-4.166-5.364-2.11-3.371-3.79-6.955-4.525-10.846-.306.281-.697.456-1.092.594-.793.274-1.665.388-2.502.418-1.603.053-3.209-.336-4.652-1.025-5.871-2.8-6.733-11.187-3.144-16.132-.484-1.405-.754-2.928-1.048-4.227l-.133-.581c-1.484-6.487-2.481-13.317.15-19.673.339-.82.719-1.619 1.169-2.384.361-.615.982-1.27 1.153-1.97.381-1.536-1.967-3.151-2.651-4.371-.805-1.43-.919-3.119.177-4.428.14-.164.292-.317.457-.449-1.04-1.886-1.088-4.257.281-6.117a5.997 5.997 0 0 1 3.773-2.344c.917-.158 2.02-.099 3.027.184 5.518-5.125 11.814-9.407 18.67-12.518Zm-21.19 64.13c1.473-1.3 3.099-1.981 5.106-1.809 2.018.173 4.447 1.008 5.632 2.739.937 1.367-.971 3.373-2.344 2.346-1.251-.937-2.086-1.993-3.638-2.496-1.395-.451-3.121-.74-4.581-.482-.16.027-.321-.171-.175-.298Z"/></clipPath><g clip-path="url(#b)"><path d="M101.62 172.967h106.433v115.99H101.62z"/></g></g><g transform="translate(-51.958 -141.815)"><clipPath id="c"><path d="M163.152 232.046a8.612 8.612 0 0 1-3.614-2.782c-.322-.429-.405-.882-.338-1.297.076-.466.352-.889.728-1.172.377-.285.849-.425 1.305-.353.397.062.791.279 1.104.729l.065.09a5.686 5.686 0 0 0 2.086 1.751c.788.38 1.67.558 2.582.455 1.738-.197 2.935-1.137 4.208-2.413.158-.161.316-.328.474-.496a.743.743 0 0 1 .394-.304.864.864 0 0 1 .97.332.797.797 0 0 1 .135.524c-.117 1.323-.808 2.504-1.79 3.431-1.091 1.029-2.537 1.742-3.898 1.992-1.499.275-3.027.078-4.411-.487Zm5.119-20.408c1.595.97 4.026 3.232 2.31 5.637-2.021 2.121-4.929-.311-6.363-1.41-1.328-.852-2.822 1.339-1.589 2.335 10.357 7.671 14.561-6.308 6.448-7.703-.893-.153-1.224.841-.806 1.141Zm-18.56-8.923c.176-2.189 3.508-2.686 3.84-.52.296 1.94-.053 3.722-.927 5.469-.834 1.669-2.932.89-3.091-.629-.213-2.037.068-2.959.178-4.32Zm25.365-.969c.465-.609 1.135-1.025 1.939-.79 2.511.734 1.771 4.3.889 6.036-.479.943-2.028 1.182-2.728.352-1.141-1.354-1.687-4.057-.237-5.39.04-.069.084-.138.137-.208Zm-22.487-8.609.397-.069c1.227-.213 2.752-.417 3.62.57.461.524.619 1.496 0 1.997-1.088.881-2.292.54-3.596.614-1.075.062-2.108.24-3.143.536-2.272.65-4.123 1.835-6.063 3.137-.255.171-.514-.155-.393-.393 1.12-2.194 3.29-3.997 5.464-5.096 1.161-.586 2.43-1.073 3.714-1.296Zm20.198-.983.304.062c3.303.691 7.596 2.071 9.16 5.317.06.459-.003.558-.055.622l-.017.021c-.042.055-.075.131-.274.193a5.888 5.888 0 0 1-.168-.042c-.717-.188-1.284-.447-1.833-.715l-.596-.294c-.691-.339-1.388-.665-2.127-.906a25.032 25.032 0 0 0-4.844-1.071 1.984 1.984 0 0 1-.972-.369 1.458 1.458 0 0 1-.544-.828c-.116-.467-.083-.82.168-1.241.188-.317.457-.536.767-.662a1.805 1.805 0 0 1 1.031-.087Z"/></clipPath><g clip-path="url(#c)"><path d="M138.38 187.116h48.895v50.539H138.38z"/></g></g><g transform="matrix(.91517 0 0 1 -19.087 -102.773)"><clipPath id="d"><path d="M129.449 195.329c1.71-4.009 5.444-6.955 9.742-8.032 3.156-.789 6.469-.764 9.686-.451 1.686.163 3.494.296 5.083.922 1.357.536 2.462 1.547 3.293 2.734.99 1.407 1.663 3.017 2.136 4.667.067.235.13.471.189.709-.206 1.245-.642 2.305-1.795 3.088-1.125.764-2.467 1.077-3.805 1.188a6.217 6.217 0 0 1-.375-.194c-2.085-1.195-3.552-4.017-6.184-3.635-2.349.341-3.895 3.298-5.292 5.031-4.483.523-8.964-.825-12.612-3.389a7.432 7.432 0 0 1-.066-2.638Zm33.176-3.041a17.37 17.37 0 0 0-1.346-2.901 16.49 16.49 0 0 0-7.714-6.842c-7.631-3.269-17.505-.965-23.668 4.396-2.105 1.833-4.234 4.526-4.878 7.423a1.08 1.08 0 0 0-.523.279c-4.452-2.805-9.038-5.503-12.626-9.39-2.606-2.825-4.418-6.168-5.528-9.841-.09-.302-.578-.258-.563.077l.013.234c-.047-.144-.266-.07-.283.07-.597 4.462-1.344 9.193-.656 13.679.411 2.676 1.626 4.635 3.251 6.751 1.741 2.268 3.711 4.377 5.726 6.4 1.279 1.284 2.614 2.765 4.18 3.707 1.821 1.094 3.886 1.925 5.829 2.769a75.6 75.6 0 0 0 6.028 2.347c4.087 1.384 8.311 2.34 12.609 2.759 3.441.334 7.374.698 10.672-.597 2.527-.992 4.567-2.786 6.186-4.944 1.761-2.351 3.154-5.028 3.924-7.852.8-2.933-.465-8.052-.633-8.524Z"/></clipPath><g clip-path="url(#d)"><path d="M99.577 170.21h68.944v49.311H99.577z"/></g></g><path d="M133.042 90.957c6.405-7.131 6.07-16.724 8-15 2.559 2.286 4.698 17.036-14 31-.271.202-5.6 3.258-5.873 3.364-10.067 3.901 8.041-15.098 11.873-19.364Z"/></svg>