<svg fill="currentColor" viewBox="0 0 167 248" version="1.1" xmlns="http://www.w3.org/2000/svg"
     xml:space="preserve" style="fill-rule:evenodd;clip-rule:evenodd;stroke-linejoin:round;stroke-miterlimit:2;">
    <g transform="matrix(1,0,0,1,-32.9576,54.0028)">
        <clipPath id="_clip1">
            <path d="M113.516,39.415C113.62,39.077 114.066,39.172 114.099,39.493C114.435,42.68 114.013,46.011 113.607,49.177C113.413,50.705 113.301,52.295 113.005,53.801C112.967,53.962 112.931,54.125 112.897,54.286C112.994,54.459 113.282,54.653 113.419,54.786L114.015,55.366L115.211,56.524C117.549,58.789 119.888,61.057 122.227,63.323L125.66,66.652C126.837,67.793 128.174,68.886 129.207,70.158C129.767,70.849 129.894,71.696 129.342,72.436C129.07,72.802 128.58,73.068 128.083,73.123C128.277,73.394 128.427,73.7 128.522,74.041C128.717,74.734 128.016,75.585 127.27,75.296C126.423,74.97 125.723,74.387 124.861,74.108C123.991,73.825 123.045,73.77 122.142,73.922C121.728,73.992 121.322,74.095 120.927,74.226C125.155,76.173 129.729,77.291 134.394,77.451C135.344,77.483 136.293,77.471 137.237,77.407C138.826,77.304 140.404,77.063 141.955,76.674C143.174,76.367 144.38,75.983 145.551,75.518C146.125,75.289 146.694,75.038 147.243,74.753L147.291,74.724C147.415,74.647 149.711,73.344 149.751,73.149C149.791,72.953 149.791,72.885 149.716,72.714C149.666,72.601 149.572,72.505 149.434,72.427C148.725,72.123 147.99,71.841 147.216,71.836C145.432,71.825 143.487,73.144 142.012,74.043C140.392,75.03 138.902,76.183 137.343,77.253C137.307,77.278 137.267,77.289 137.229,77.289C137.064,77.289 136.912,77.086 137.017,76.927C138.135,75.281 139.643,73.911 141.221,72.714L141.857,72.238C143.302,71.16 144.992,69.966 146.749,69.706C148.901,69.388 151.149,70.731 153.07,71.517L156.471,72.91C157.077,73.157 157.737,73.368 158.347,73.649L156.922,69.188C156.21,66.957 155.499,64.725 154.796,62.492L154.659,62.055C153.959,59.788 153.315,57.43 152.148,55.359C151.87,54.863 151.551,54.395 151.236,53.924C150.908,53.436 150.786,52.897 150.374,52.461C149.559,51.597 148.39,51.09 147.274,50.758C147.002,50.678 147.083,50.319 147.338,50.291C148.483,50.17 149.574,50.437 150.609,50.92L151.039,51.126C152.017,51.589 152.971,52.019 153.697,52.85C155.353,54.748 156.213,57.138 157.003,59.496L157.215,60.129C157.51,60.032 159.52,60.645 159.771,60.791C167.303,63.976 173.104,69.906 177.347,76.855C181.994,84.47 184.525,93.172 186.615,101.782C187.259,104.44 187.876,107.105 188.469,109.777C185.829,110.793 183.024,111.324 180.553,112.755C179.612,113.301 180.462,114.762 181.406,114.215C183.72,112.875 186.356,112.38 188.833,111.439C190.176,117.623 191.371,123.842 192.372,130.086C195.446,149.252 197.387,168.73 197.265,188.157C197.263,188.586 197.136,189.066 196.901,189.478C197.039,189.41 197.147,189.33 197.208,189.233C197.987,188.009 199.941,189.144 199.158,190.374L199.043,190.552C198.455,191.46 197.906,192.153 196.872,192.665C195.83,193.181 194.702,193.267 193.553,193.297C189.647,193.4 185.737,193.467 181.827,193.515C181.291,189.331 181.073,185.107 180.334,180.947C180.144,179.877 178.515,180.331 178.704,181.396C179.418,185.413 179.646,189.491 180.144,193.535C171.784,193.625 163.42,193.627 155.066,193.65C143.745,193.683 132.426,193.66 121.106,193.653L116.254,193.652C103.177,193.652 90.099,193.61 77.022,193.523L73.912,193.501C72.675,186.205 71.833,178.847 71.817,171.432C71.815,170.345 70.124,170.343 70.127,171.432C70.142,178.838 70.975,186.198 72.201,193.492C69.105,193.478 66.01,193.489 62.913,193.599L61.337,193.655C58.184,193.763 55.024,193.83 51.877,193.578C48.382,193.297 44.848,192.655 41.715,191.008C40.304,190.265 39.061,189.316 38,188.199C39.079,187.571 40.174,186.968 41.219,186.284C42.126,185.691 41.28,184.226 40.366,184.824C39.239,185.562 38.055,186.204 36.895,186.886C36.055,185.765 35.366,184.52 34.842,183.178C34.016,181.058 33.697,178.777 33.42,176.533C33.093,173.889 32.958,171.223 32.958,168.561C32.958,162.96 33.547,157.376 34.369,151.843C35.155,146.542 36.194,141.284 37.293,136.042L37.443,135.328C38.527,130.175 39.56,125.007 40.802,119.891C41.951,115.159 43.278,110.45 44.86,105.832C46.268,106.703 47.742,107.465 49.128,108.372C50.041,108.97 50.889,107.506 49.981,106.912C48.502,105.944 46.925,105.139 45.432,104.193C47.201,99.248 49.278,94.418 51.767,89.792C56.753,80.529 63.471,72.242 72.076,66.125C76.384,63.065 81.11,60.561 86.073,58.739C91.132,56.879 96.376,55.86 101.738,55.442C101.891,55.43 101.977,55.571 101.971,55.702L101.968,55.727L102.18,55.761C102.258,55.23 102.418,54.717 102.725,54.245C103.422,53.172 104.744,52.483 105.801,51.823L106.051,51.667C107.308,50.888 108.634,50.12 110.096,49.847C110.147,49.839 110.178,49.891 110.144,49.932C109.18,51.037 107.948,51.882 106.818,52.817L106.558,53.034C105.622,53.805 104.316,54.679 104.282,55.968C104.242,57.485 104.552,59.064 104.664,60.577C104.776,62.086 104.854,63.593 104.894,65.107C105.04,70.528 104.865,75.951 104.385,81.351L106.506,79.931C109.807,77.72 113.119,75.516 116.499,73.446C118.545,72.193 120.843,71.122 123.294,71.17C123.98,71.183 124.756,71.282 125.499,71.494C124.699,70.735 123.932,69.928 123.148,69.165C121.857,67.907 120.566,66.65 119.275,65.394L115.554,61.767L111.83,58.14C110.677,57.014 109.325,55.976 109.447,54.201C109.547,52.785 110.267,51.375 110.759,50.01C110.829,49.813 110.892,49.619 110.951,49.427C111.945,46.125 112.508,42.703 113.516,39.415ZM161.62,181.061C160.85,180.29 159.655,181.485 160.425,182.256L160.832,182.662C161.512,183.341 162.187,184.041 162.658,184.88L162.727,185.007C163.234,185.97 164.693,185.116 164.186,184.153C163.559,182.963 162.561,182.003 161.62,181.061ZM128.634,180.843C126.183,180.375 123.821,180.375 121.37,180.843C120.303,181.047 120.755,182.677 121.82,182.474C123.963,182.064 126.041,182.064 128.185,182.474C129.248,182.677 129.703,181.048 128.634,180.843ZM95.534,163.8C94.48,163.533 94.03,165.163 95.085,165.43L95.605,165.561C97.371,165.997 99.054,166.323 100.889,165.917C101.937,165.686 101.513,164.095 100.481,164.279L100.44,164.287C98.742,164.662 97.177,164.216 95.534,163.8ZM154.319,152.818C153.538,152.059 152.342,153.253 153.123,154.013C154.099,154.962 155.248,155.683 156.641,155.722C157.713,155.752 157.729,154.111 156.689,154.033L156.641,154.031C155.708,154.005 154.964,153.445 154.319,152.818ZM54.849,148.302C55.822,147.815 54.967,146.356 53.996,146.842L48.155,149.764C47.181,150.25 48.036,151.709 49.007,151.224L54.849,148.302ZM170.271,148.674C169.183,148.644 169.184,150.335 170.271,150.365C171.293,150.394 172.341,150.781 173.252,151.224C174.226,151.697 175.084,150.24 174.105,149.764C172.914,149.185 171.607,148.712 170.271,148.674ZM115.694,140.511C116.588,139.903 115.744,138.437 114.841,139.051C113.608,139.888 112.492,140.878 111.28,141.741L110.946,141.973C110.052,142.581 110.897,144.046 111.8,143.433C113.143,142.519 114.35,141.424 115.694,140.511ZM178.546,128.222C177.458,128.222 177.456,129.913 178.546,129.913L178.752,129.912C179.65,129.907 180.596,129.883 181.431,130.241L181.527,130.285C182.505,130.746 183.364,129.289 182.38,128.825C181.156,128.248 179.876,128.223 178.546,128.222ZM84.684,127.014L84.826,126.961C85.842,126.596 85.404,124.962 84.376,125.331C82.828,125.887 81.624,126.939 80.281,127.851C79.386,128.459 80.23,129.924 81.134,129.311C82.291,128.525 83.367,127.529 84.684,127.014ZM148.079,122.616L148.306,122.494C149.274,121.995 148.42,120.536 147.454,121.034C146.686,121.428 146,121.954 145.247,122.372L145.019,122.494C144.052,122.992 144.906,124.452 145.873,123.954C146.64,123.559 147.326,123.034 148.079,122.616ZM122.367,106.239L122.192,106.07C121.415,105.309 120.219,106.503 120.997,107.266C122.942,109.17 125.242,110.616 127.561,112.014L127.983,112.268C128.918,112.829 129.769,111.368 128.836,110.808L128.217,110.435C126.155,109.191 124.116,107.907 122.367,106.239ZM75.596,104.66C76.251,103.809 74.826,102.976 74.16,103.777L74.136,103.807C73.454,104.693 72.645,105.495 71.799,106.227L71.639,106.363C71.136,106.792 70.219,107.71 69.512,107.771C68.436,107.862 68.426,109.554 69.512,109.461C70.606,109.368 71.548,108.597 72.376,107.937C73.579,106.976 74.656,105.88 75.596,104.66ZM165.514,98.501C166.299,97.763 165.139,96.588 164.347,97.28L164.319,97.305C162.851,98.685 160.74,99.055 158.851,99.522C157.795,99.784 158.242,101.415 159.3,101.153L160.161,100.94C162.092,100.458 164.029,99.897 165.514,98.501ZM132.041,87.836C130.987,87.568 130.537,89.198 131.592,89.466C133.385,89.922 135.083,90.511 136.744,91.329C137.717,91.807 138.574,90.35 137.598,89.869C135.81,88.989 133.972,88.327 132.041,87.836ZM149.307,52.193C149.282,52.117 149.362,52.03 149.44,52.058C151.337,52.765 150.329,55.25 149.739,56.738L149.632,57.01C148.709,59.394 147.418,61.715 146.011,63.849C144.539,66.083 142.904,68.222 141.133,70.23C140.365,71.102 139.569,71.948 138.745,72.77L138.435,73.076C137.603,73.895 136.53,75.332 135.239,75.173C133.849,75.006 133.073,73.521 134.087,72.392C134.804,71.593 135.797,70.957 136.597,70.23C137.392,69.511 138.161,68.769 138.91,68.006C140.444,66.44 141.898,64.785 143.227,63.042C144.512,61.356 145.742,59.623 146.86,57.821L147.083,57.46C147.934,56.059 149.899,53.998 149.307,52.193ZM82.107,69.904C81.207,69.288 80.36,70.753 81.254,71.364C82.897,72.487 84.343,73.848 86.122,74.772C87.074,75.267 87.921,73.849 87.009,73.331L86.975,73.313C85.197,72.389 83.75,71.027 82.107,69.904Z"/>
        </clipPath>
        <g clip-path="url(#_clip1)">
            <rect x="27.958" y="34.202" width="176.382" height="164.549"/>
        </g>
    </g>
    <g transform="matrix(1,0,0,1,-45.9576,-177.967)">
        <clipPath id="_clip2">
            <path d="M134.31,185.049C147.267,179.169 161.963,176.939 176.097,178.402C183.073,179.123 189.957,180.669 196.509,183.181L197.083,183.403C198.7,184.025 200.444,184.644 201.673,185.911C203.103,187.384 203.504,189.612 202.482,191.432C201.688,192.845 200.259,193.86 198.736,194.401C199.273,194.841 199.782,195.331 200.259,195.878C201.064,196.796 201.125,198.104 200.259,199.008C198.59,200.752 196.425,202.014 194.093,202.618C194.354,203.884 194.213,205.286 193.651,206.547C192.038,210.169 187.496,210.601 184,210.386L183.895,210.379L183.7,212.605C183.597,213.79 182.887,214.71 181.683,214.891C181.64,214.898 181.598,214.902 181.556,214.906C183.462,221.8 184.613,228.908 185.675,235.974C186.231,239.662 186.728,243.359 187.204,247.058L187.362,248.291C187.869,252.279 188.502,256.308 188.722,260.325C188.919,263.971 188.223,267.452 185.978,270.394C183.962,273.032 181.214,275.008 178.258,276.475C171.58,279.79 164.551,282.259 157.165,283.405L156.672,283.481C153.821,283.916 150.884,284.283 148.064,283.494C145.586,282.8 142.987,281.012 143.547,278.14C143.735,277.17 145.091,277.128 145.556,277.878L145.663,278.05C146.22,278.935 146.831,279.757 147.804,280.213C148.943,280.75 150.263,280.9 151.507,280.915C154.983,280.955 158.602,280.089 161.948,279.22C168.197,277.597 174.616,274.951 179.735,270.941C181.913,269.238 183.662,267.108 184.279,264.366C185.042,260.987 184.34,257.292 183.994,253.896C183.281,246.888 182.432,239.893 181.537,232.905L181.357,231.508C180.603,225.666 179.811,219.822 179.435,213.947C179.278,213.733 179.173,213.49 179.13,213.224L179.071,212.841C179.021,212.514 179.012,212.214 179.048,211.937C179.05,210.876 179.08,209.821 179.141,208.76C179.151,208.57 179.16,208.38 179.166,208.192C178.064,208.435 176.952,208.631 175.837,208.798C167.995,209.98 160.03,210.275 152.124,209.688C148.18,209.394 144.265,208.889 140.363,208.257C138.377,207.936 136.397,207.581 134.424,207.183C132.998,206.898 131.602,206.511 130.199,206.148C128.752,208.255 127.97,210.848 128.122,213.395C128.293,216.301 130.228,218.937 129.685,221.906C129.176,224.685 126.796,225.547 124.446,226.235L123.447,226.524C122.678,226.748 122.12,226.965 121.981,227.889C121.742,229.477 122.035,231.263 122.097,232.858C122.171,234.746 122.268,236.633 122.312,238.52C122.335,239.497 122.373,240.477 122.371,241.454C122.369,242.147 122.266,242.62 121.997,243.068C122.204,243.329 122.39,243.61 122.555,243.908C122.608,244.005 122.477,244.108 122.399,244.028C122.19,243.81 121.968,243.614 121.733,243.438C121.615,243.584 121.478,243.732 121.317,243.891L121.304,243.874C120.802,244.375 120.003,244.423 119.38,243.891L119.216,243.749C118.76,243.349 118.446,243.015 118.319,242.354C118.313,242.32 118.306,242.287 118.302,242.253C117.143,242.213 115.964,242.487 114.92,243.064C113.266,243.979 112.102,245.283 111.413,246.894C111.688,247.215 112.009,247.503 112.383,247.744C112.435,247.78 112.389,247.858 112.332,247.83C111.95,247.651 111.607,247.429 111.301,247.169C111.054,247.803 110.881,248.483 110.775,249.204C110.403,251.749 111.066,254.858 113.365,256.308C114.36,256.935 115.497,257.276 116.675,257.28C117.25,257.282 117.747,257.185 118.304,257.047C118.683,256.954 119.059,256.819 119.454,256.819C119.792,256.819 120.104,256.904 120.394,257.073L120.314,257.08C120.119,257.098 120.156,257.106 120.428,257.106C121.273,257.142 121.756,258 121.368,258.747L121.317,258.862C121.306,258.885 121.297,258.904 121.29,258.92L121.259,259.118C121.256,259.136 121.253,259.156 121.25,259.176L121.238,259.216C121.236,259.222 121.233,259.228 121.231,259.235L122.498,261.168C124.052,263.534 125.64,265.89 127.448,268.05C128.716,269.566 130.059,271.051 131.479,272.427C132.755,273.664 134.285,274.26 135.73,275.232C136.501,275.748 136.727,276.828 136.026,277.523C133.968,279.567 131.054,277.943 129.366,276.282C127.769,274.708 126.39,272.814 125.2,270.918C123.09,267.547 121.41,263.963 120.675,260.072C120.369,260.353 119.978,260.528 119.583,260.666C118.79,260.94 117.918,261.054 117.081,261.084C115.478,261.137 113.872,260.748 112.429,260.059C106.558,257.259 105.696,248.872 109.285,243.927C108.801,242.522 108.531,240.999 108.237,239.7L108.104,239.119C106.62,232.632 105.623,225.802 108.254,219.446C108.593,218.626 108.973,217.827 109.423,217.062C109.784,216.447 110.405,215.792 110.576,215.092C110.957,213.556 108.609,211.941 107.925,210.721C107.12,209.291 107.006,207.602 108.102,206.293C108.242,206.129 108.394,205.976 108.559,205.844C107.519,203.958 107.471,201.587 108.84,199.727C109.74,198.501 111.113,197.643 112.613,197.383C113.53,197.225 114.633,197.284 115.64,197.567C121.158,192.442 127.454,188.16 134.31,185.049ZM113.12,249.179C114.593,247.879 116.219,247.198 118.226,247.37C120.244,247.543 122.673,248.378 123.858,250.109C124.795,251.476 122.887,253.482 121.514,252.455C120.263,251.518 119.428,250.462 117.876,249.959C116.481,249.508 114.755,249.219 113.295,249.477C113.135,249.504 112.974,249.306 113.12,249.179Z"/>
        </clipPath>
        <g clip-path="url(#_clip2)">
            <rect x="101.62" y="172.967" width="106.433" height="115.99"/>
        </g>
    </g>
    <g transform="matrix(1,0,0,1,-51.9576,-141.815)">
        <clipPath id="_clip3">
            <path d="M163.152,232.046C161.732,231.466 160.465,230.499 159.538,229.264C159.216,228.835 159.133,228.382 159.2,227.967C159.276,227.501 159.552,227.078 159.928,226.795C160.305,226.51 160.777,226.37 161.233,226.442C161.63,226.504 162.024,226.721 162.337,227.171L162.402,227.261C162.953,228.007 163.67,228.618 164.488,229.012C165.276,229.392 166.158,229.57 167.07,229.467C168.808,229.27 170.005,228.33 171.278,227.054C171.436,226.893 171.594,226.726 171.752,226.558C171.852,226.404 171.991,226.306 172.146,226.254C172.317,226.197 172.511,226.2 172.689,226.262C172.86,226.322 173.013,226.435 173.116,226.586C173.213,226.73 173.269,226.907 173.251,227.11C173.134,228.433 172.443,229.614 171.461,230.541C170.37,231.57 168.924,232.283 167.563,232.533C166.064,232.808 164.536,232.611 163.152,232.046ZM168.271,211.638C169.866,212.608 172.297,214.87 170.581,217.275C168.56,219.396 165.652,216.964 164.218,215.865C162.89,215.013 161.396,217.204 162.629,218.2C172.986,225.871 177.19,211.892 169.077,210.497C168.184,210.344 167.853,211.338 168.271,211.638ZM149.711,202.715C149.887,200.526 153.219,200.029 153.551,202.195C153.847,204.135 153.498,205.917 152.624,207.664C151.79,209.333 149.692,208.554 149.533,207.035C149.32,204.998 149.601,204.076 149.711,202.715ZM175.076,201.746C175.541,201.137 176.211,200.721 177.015,200.956C179.526,201.69 178.786,205.256 177.904,206.992C177.425,207.935 175.876,208.174 175.176,207.344C174.035,205.99 173.489,203.287 174.939,201.954C174.979,201.885 175.023,201.816 175.076,201.746ZM152.589,193.137L152.986,193.068C154.213,192.855 155.738,192.651 156.606,193.638C157.067,194.162 157.225,195.134 156.606,195.635C155.518,196.516 154.314,196.175 153.01,196.249C151.935,196.311 150.902,196.489 149.867,196.785C147.595,197.435 145.744,198.62 143.804,199.922C143.549,200.093 143.29,199.767 143.411,199.529C144.531,197.335 146.701,195.532 148.875,194.433C150.036,193.847 151.305,193.36 152.589,193.137ZM172.787,192.154L173.091,192.216C176.394,192.907 180.687,194.287 182.251,197.533C182.311,197.992 182.248,198.091 182.196,198.155L182.179,198.176C182.137,198.231 182.104,198.307 181.905,198.369C181.849,198.356 181.794,198.342 181.737,198.327C181.02,198.139 180.453,197.88 179.904,197.612L179.308,197.318C178.617,196.979 177.92,196.653 177.181,196.412C175.605,195.897 173.983,195.535 172.337,195.341C171.98,195.299 171.636,195.179 171.365,194.972C171.107,194.776 170.911,194.505 170.821,194.144C170.705,193.677 170.738,193.324 170.989,192.903C171.177,192.586 171.446,192.367 171.756,192.241C172.071,192.113 172.43,192.083 172.787,192.154Z"/>
        </clipPath>
        <g clip-path="url(#_clip3)">
            <rect x="138.38" y="187.116" width="48.895" height="50.539"/>
        </g>
    </g>
    <g transform="matrix(1,0,0,1,-306.958,-140.043)">
        <g transform="matrix(0.915173,0,0,1,287.871,37.2699)">
            <clipPath id="_clip4">
                <path d="M129.449,195.329C131.159,191.32 134.893,188.374 139.191,187.297C142.347,186.508 145.66,186.533 148.877,186.846C150.563,187.009 152.371,187.142 153.96,187.768C155.317,188.304 156.422,189.315 157.253,190.502C158.243,191.909 158.916,193.519 159.389,195.169C159.456,195.404 159.519,195.64 159.578,195.878C159.372,197.123 158.936,198.183 157.783,198.966C156.658,199.73 155.316,200.043 153.978,200.154C153.846,200.091 153.72,200.026 153.603,199.96C151.518,198.765 150.051,195.943 147.419,196.325C145.07,196.666 143.524,199.623 142.127,201.356C137.644,201.879 133.163,200.531 129.515,197.967C129.33,197.089 129.319,196.203 129.449,195.329ZM162.625,192.288C162.266,191.281 161.814,190.306 161.279,189.387C159.509,186.349 156.791,183.928 153.565,182.545C145.934,179.276 136.06,181.58 129.897,186.941C127.792,188.774 125.663,191.467 125.019,194.364C124.827,194.402 124.646,194.502 124.496,194.643C120.044,191.838 115.458,189.14 111.87,185.253C109.264,182.428 107.452,179.085 106.342,175.412C106.252,175.11 105.764,175.154 105.779,175.489C105.783,175.567 105.787,175.645 105.792,175.723C105.745,175.579 105.526,175.653 105.509,175.793C104.912,180.255 104.165,184.986 104.853,189.472C105.264,192.148 106.479,194.107 108.104,196.223C109.845,198.491 111.815,200.6 113.83,202.623C115.109,203.907 116.444,205.388 118.01,206.33C119.831,207.424 121.896,208.255 123.839,209.099C125.816,209.961 127.823,210.756 129.867,211.446C133.954,212.83 138.178,213.786 142.476,214.205C145.917,214.539 149.85,214.903 153.148,213.608C155.675,212.616 157.715,210.822 159.334,208.664C161.095,206.313 162.488,203.636 163.258,200.812C164.058,197.879 162.793,192.76 162.625,192.288Z"/>
            </clipPath>
            <g clip-path="url(#_clip4)">
                <rect x="99.577" y="170.21" width="68.944" height="49.311"/>
            </g>
        </g>
        <path d="M440,231C446.405,223.869 446.07,214.276 448,216C450.559,218.286 452.698,233.036 434,247C433.729,247.202 428.4,250.258 428.127,250.364C418.06,254.265 436.168,235.266 440,231Z"/>
    </g>
</svg>
