<svg fill="currentColor" width="100%" height="100%" viewBox="0 0 108 32" version="1.1" xmlns="http://www.w3.org/2000/svg"
     xml:space="preserve"
     style="fill-rule:evenodd;clip-rule:evenodd;stroke-linejoin:round;stroke-miterlimit:2;"><g><g><path d="M30.084,23.478l-10.648,0l0,-2.684l4.818,-4.224c0.821,-0.719 1.423,-1.368 1.804,-1.947c0.381,-0.579 0.572,-1.206 0.572,-1.881l0,-0.286c0,-0.675 -0.22,-1.192 -0.66,-1.551c-0.44,-0.359 -0.975,-0.539 -1.606,-0.539c-0.792,0 -1.393,0.224 -1.804,0.671c-0.411,0.447 -0.704,0.986 -0.88,1.617l-2.508,-0.968c0.161,-0.513 0.389,-1.001 0.682,-1.463c0.293,-0.462 0.664,-0.869 1.111,-1.221c0.447,-0.352 0.972,-0.631 1.573,-0.836c0.601,-0.205 1.291,-0.308 2.068,-0.308c0.807,0 1.525,0.114 2.156,0.341c0.631,0.227 1.162,0.546 1.595,0.957c0.433,0.411 0.763,0.895 0.99,1.452c0.227,0.557 0.341,1.166 0.341,1.826c0,0.645 -0.103,1.232 -0.308,1.76c-0.205,0.528 -0.484,1.03 -0.836,1.507c-0.352,0.477 -0.763,0.931 -1.232,1.364c-0.469,0.433 -0.968,0.869 -1.496,1.309l-3.234,2.662l7.502,0l0,2.442Z" style="fill-rule:nonzero;"/><path
        d="M32.9,23.478l0,-11.484l2.816,0l0,1.914l0.11,0c0.235,-0.616 0.605,-1.133 1.111,-1.551c0.506,-0.418 1.206,-0.627 2.101,-0.627c1.188,0 2.097,0.389 2.728,1.166c0.631,0.777 0.946,1.885 0.946,3.322l0,7.26l-2.816,0l0,-6.974c0,-0.821 -0.147,-1.437 -0.44,-1.848c-0.293,-0.411 -0.777,-0.616 -1.452,-0.616c-0.293,0 -0.576,0.04 -0.847,0.121c-0.271,0.081 -0.513,0.198 -0.726,0.352c-0.213,0.154 -0.385,0.345 -0.517,0.572c-0.132,0.227 -0.198,0.495 -0.198,0.803l0,7.59l-2.816,0Z"
        style="fill-rule:nonzero;"/><path
        d="M49.972,14.326c0.88,-0 1.529,-0.18 1.947,-0.539c0.418,-0.359 0.627,-0.818 0.627,-1.375l0,-0.154c0,-0.631 -0.202,-1.126 -0.605,-1.485c-0.403,-0.359 -0.957,-0.539 -1.661,-0.539c-0.675,0 -1.272,0.161 -1.793,0.484c-0.521,0.323 -0.972,0.777 -1.353,1.364l-1.848,-1.672c0.264,-0.352 0.554,-0.686 0.869,-1.001c0.315,-0.315 0.678,-0.587 1.089,-0.814c0.411,-0.227 0.873,-0.407 1.386,-0.539c0.513,-0.132 1.093,-0.198 1.738,-0.198c0.777,0 1.485,0.092 2.123,0.275c0.638,0.183 1.188,0.451 1.65,0.803c0.462,0.352 0.818,0.774 1.067,1.265c0.249,0.491 0.374,1.045 0.374,1.661c0,0.499 -0.077,0.946 -0.231,1.342c-0.154,0.396 -0.367,0.741 -0.638,1.034c-0.271,0.293 -0.587,0.532 -0.946,0.715c-0.359,0.183 -0.737,0.319 -1.133,0.407l0,0.132c0.44,0.088 0.858,0.227 1.254,0.418c0.396,0.191 0.737,0.444 1.023,0.759c0.286,0.315 0.513,0.686 0.682,1.111c0.169,0.425 0.253,0.909 0.253,1.452c-0,0.675 -0.136,1.291 -0.407,1.848c-0.271,0.557 -0.656,1.034 -1.155,1.43c-0.499,0.396 -1.093,0.7 -1.782,0.913c-0.689,0.213 -1.459,0.319 -2.31,0.319c-0.748,-0 -1.408,-0.077 -1.98,-0.231c-0.572,-0.154 -1.074,-0.363 -1.507,-0.627c-0.433,-0.264 -0.81,-0.568 -1.133,-0.913c-0.323,-0.345 -0.601,-0.708 -0.836,-1.089l2.134,-1.628c0.176,0.308 0.367,0.59 0.572,0.847c0.205,0.257 0.44,0.48 0.704,0.671c0.264,0.191 0.565,0.337 0.902,0.44c0.337,0.103 0.719,0.154 1.144,0.154c0.851,-0 1.503,-0.205 1.958,-0.616c0.455,-0.411 0.682,-0.975 0.682,-1.694l-0,-0.154c-0,-0.704 -0.246,-1.239 -0.737,-1.606c-0.491,-0.367 -1.199,-0.55 -2.123,-0.55l-1.518,-0l-0,-2.42l1.518,-0Z"
        style="fill-rule:nonzero;"/><path
        d="M69.398,24.446c0,0.601 -0.106,1.133 -0.319,1.595c-0.213,0.462 -0.561,0.847 -1.045,1.155c-0.484,0.308 -1.107,0.543 -1.87,0.704c-0.763,0.161 -1.694,0.242 -2.794,0.242c-0.968,0 -1.789,-0.062 -2.464,-0.187c-0.675,-0.125 -1.228,-0.301 -1.661,-0.528c-0.433,-0.227 -0.744,-0.51 -0.935,-0.847c-0.191,-0.337 -0.286,-0.719 -0.286,-1.144c0,-0.645 0.18,-1.148 0.539,-1.507c0.359,-0.359 0.862,-0.59 1.507,-0.693l0,-0.242c-0.469,-0.117 -0.832,-0.348 -1.089,-0.693c-0.257,-0.345 -0.385,-0.752 -0.385,-1.221c0,-0.293 0.059,-0.554 0.176,-0.781c0.117,-0.227 0.275,-0.422 0.473,-0.583c0.198,-0.161 0.422,-0.297 0.671,-0.407c0.249,-0.11 0.513,-0.194 0.792,-0.253l0,-0.088c-0.704,-0.323 -1.228,-0.77 -1.573,-1.342c-0.345,-0.572 -0.517,-1.239 -0.517,-2.002c0,-1.173 0.403,-2.116 1.21,-2.827c0.807,-0.711 1.987,-1.067 3.542,-1.067c0.352,0 0.7,0.022 1.045,0.066c0.345,0.044 0.664,0.117 0.957,0.22l0,-0.374c0,-1.115 0.543,-1.672 1.628,-1.672l1.782,0l0,2.156l-2.442,0l0,0.308c0.601,0.337 1.049,0.777 1.342,1.32c0.293,0.543 0.44,1.166 0.44,1.87c0,1.159 -0.4,2.09 -1.199,2.794c-0.799,0.704 -1.984,1.056 -3.553,1.056c-0.675,0 -1.261,-0.066 -1.76,-0.198c-0.22,0.103 -0.411,0.238 -0.572,0.407c-0.161,0.169 -0.242,0.378 -0.242,0.627c0,0.572 0.499,0.858 1.496,0.858l3.08,0c1.408,0 2.431,0.29 3.069,0.869c0.638,0.579 0.957,1.382 0.957,2.409Zm-2.64,0.33c0,-0.367 -0.147,-0.653 -0.44,-0.858c-0.293,-0.205 -0.799,-0.308 -1.518,-0.308l-3.916,0c-0.396,0.293 -0.594,0.689 -0.594,1.188c0,0.44 0.183,0.785 0.55,1.034c0.367,0.249 0.99,0.374 1.87,0.374l1.408,0c0.924,0 1.595,-0.117 2.013,-0.352c0.418,-0.235 0.627,-0.594 0.627,-1.078Zm-3.388,-7.216c1.379,0 2.068,-0.587 2.068,-1.76l0,-0.374c0,-1.173 -0.689,-1.76 -2.068,-1.76c-1.379,0 -2.068,0.587 -2.068,1.76l0,0.374c0,1.173 0.689,1.76 2.068,1.76Z"
        style="fill-rule:nonzero;"/><path
        d="M80.728,10.63l-6.908,0l-0.352,5.148l0.154,0c0.161,-0.323 0.337,-0.623 0.528,-0.902c0.191,-0.279 0.411,-0.513 0.66,-0.704c0.249,-0.191 0.539,-0.341 0.869,-0.451c0.33,-0.11 0.73,-0.165 1.199,-0.165c0.66,0 1.276,0.11 1.848,0.33c0.572,0.22 1.067,0.539 1.485,0.957c0.418,0.418 0.748,0.928 0.99,1.529c0.242,0.601 0.363,1.283 0.363,2.046c0,0.777 -0.125,1.489 -0.374,2.134c-0.249,0.645 -0.616,1.206 -1.1,1.683c-0.484,0.477 -1.078,0.847 -1.782,1.111c-0.704,0.264 -1.511,0.396 -2.42,0.396c-0.704,-0 -1.335,-0.077 -1.892,-0.231c-0.557,-0.154 -1.049,-0.363 -1.474,-0.627c-0.425,-0.264 -0.792,-0.568 -1.1,-0.913c-0.308,-0.345 -0.579,-0.708 -0.814,-1.089l2.112,-1.628c0.176,0.293 0.359,0.568 0.55,0.825c0.191,0.257 0.414,0.48 0.671,0.671c0.257,0.191 0.543,0.341 0.858,0.451c0.315,0.11 0.686,0.165 1.111,0.165c0.865,-0 1.522,-0.242 1.969,-0.726c0.447,-0.484 0.671,-1.144 0.671,-1.98l-0,-0.176c-0,-0.792 -0.227,-1.415 -0.682,-1.87c-0.455,-0.455 -1.085,-0.682 -1.892,-0.682c-0.631,-0 -1.144,0.121 -1.54,0.363c-0.396,0.242 -0.711,0.502 -0.946,0.781l-2.376,-0.33l0.572,-8.624l9.042,-0l-0,2.508Z"
        style="fill-rule:nonzero;"/><path
        d="M88.758,23.742c-0.851,0 -1.606,-0.139 -2.266,-0.418c-0.66,-0.279 -1.214,-0.682 -1.661,-1.21c-0.447,-0.528 -0.788,-1.162 -1.023,-1.903c-0.235,-0.741 -0.352,-1.573 -0.352,-2.497c0,-0.924 0.117,-1.753 0.352,-2.486c0.235,-0.733 0.576,-1.36 1.023,-1.881c0.447,-0.521 1.001,-0.92 1.661,-1.199c0.66,-0.279 1.415,-0.418 2.266,-0.418c1.159,-0 2.116,0.257 2.871,0.77c0.755,0.513 1.302,1.225 1.639,2.134l-2.31,1.034c-0.132,-0.484 -0.378,-0.884 -0.737,-1.199c-0.359,-0.315 -0.847,-0.473 -1.463,-0.473c-0.792,0 -1.382,0.249 -1.771,0.748c-0.389,0.499 -0.583,1.151 -0.583,1.958l0,2.09c0,0.807 0.194,1.456 0.583,1.947c0.389,0.491 0.979,0.737 1.771,0.737c0.675,0 1.195,-0.172 1.562,-0.517c0.367,-0.345 0.653,-0.774 0.858,-1.287l2.156,1.034c-0.381,1.012 -0.961,1.771 -1.738,2.277c-0.777,0.506 -1.723,0.759 -2.838,0.759Z"
        style="fill-rule:nonzero;"/><path
        d="M106.006,13.886c0,1.1 -0.165,2.138 -0.495,3.113c-0.33,0.975 -0.759,1.87 -1.287,2.684c-0.528,0.814 -1.118,1.54 -1.771,2.178c-0.653,0.638 -1.302,1.177 -1.947,1.617l-3.916,-0c0.895,-0.645 1.701,-1.269 2.42,-1.87c0.719,-0.601 1.346,-1.21 1.881,-1.826c0.535,-0.616 0.975,-1.258 1.32,-1.925c0.345,-0.667 0.605,-1.39 0.781,-2.167l-0.176,-0.044c-0.147,0.293 -0.319,0.579 -0.517,0.858c-0.198,0.279 -0.436,0.521 -0.715,0.726c-0.279,0.205 -0.601,0.37 -0.968,0.495c-0.367,0.125 -0.792,0.187 -1.276,0.187c-0.645,0 -1.239,-0.11 -1.782,-0.33c-0.543,-0.22 -1.016,-0.539 -1.419,-0.957c-0.403,-0.418 -0.719,-0.917 -0.946,-1.496c-0.227,-0.579 -0.341,-1.236 -0.341,-1.969c0,-0.777 0.132,-1.489 0.396,-2.134c0.264,-0.645 0.638,-1.203 1.122,-1.672c0.484,-0.469 1.067,-0.836 1.749,-1.1c0.682,-0.264 1.448,-0.396 2.299,-0.396c0.88,-0 1.665,0.143 2.354,0.429c0.689,0.286 1.276,0.689 1.76,1.21c0.484,0.521 0.851,1.151 1.1,1.892c0.249,0.741 0.374,1.573 0.374,2.497Zm-5.588,1.782c0.821,0 1.459,-0.224 1.914,-0.671c0.455,-0.447 0.682,-1.089 0.682,-1.925l-0,-0.33c-0,-0.836 -0.227,-1.478 -0.682,-1.925c-0.455,-0.447 -1.093,-0.671 -1.914,-0.671c-0.807,0 -1.441,0.224 -1.903,0.671c-0.462,0.447 -0.693,1.089 -0.693,1.925l0,0.33c0,0.836 0.231,1.478 0.693,1.925c0.462,0.447 1.096,0.671 1.903,0.671Z"
        style="fill-rule:nonzero;"/></g><circle cx="6.18" cy="16" r="4.5"/></g>
</svg>