<?xml version="1.0" encoding="UTF-8" standalone="no"?>
<svg width="100%" height="100%" viewBox="0 0 108 32" version="1.1" xmlns="http://www.w3.org/2000/svg"
     xml:space="preserve"
     style="fill-rule:evenodd;clip-rule:evenodd;stroke-linejoin:round;stroke-miterlimit:2;">
    <g transform="matrix(1,0,0,1,-8.32012,1)">
        <g transform="matrix(4.04167,0,0,2.55556,-51.4299,-35.8333)">
            <g transform="matrix(5.93814,0,0,9.3913,18.6463,23.0217)">
                <path d="M0.058,-0L0.542,-0L0.542,-0.122L0.223,-0.122L0.392,-0.285C0.461,-0.352 0.524,-0.426 0.524,-0.522C0.524,-0.642 0.426,-0.72 0.304,-0.72C0.182,-0.72 0.095,-0.66 0.036,-0.564L0.146,-0.497C0.183,-0.559 0.224,-0.6 0.291,-0.6C0.346,-0.6 0.386,-0.566 0.386,-0.508C0.386,-0.451 0.352,-0.413 0.298,-0.358L0.058,-0.122L0.058,-0Z"
                      style="fill:rgb(246,208,1);fill-rule:nonzero;"/>
            </g>
            <g transform="matrix(5.93814,0,0,9.3913,21.9122,23.0217)">
                <path d="M0.076,-0L0.203,-0L0.203,-0.329C0.222,-0.361 0.256,-0.404 0.32,-0.404C0.382,-0.404 0.42,-0.362 0.42,-0.295L0.42,-0L0.548,-0L0.548,-0.3C0.548,-0.449 0.461,-0.524 0.352,-0.524C0.285,-0.524 0.238,-0.498 0.203,-0.464L0.203,-0.504L0.076,-0.504L0.076,-0Z"
                      style="fill:rgb(246,208,1);fill-rule:nonzero;"/>
            </g>
            <g transform="matrix(5.93814,0,0,9.3913,25.2732,23.0217)">
                <path d="M0.551,-0.2C0.551,-0.277 0.512,-0.34 0.441,-0.376C0.493,-0.412 0.521,-0.467 0.521,-0.532C0.521,-0.647 0.426,-0.72 0.298,-0.72C0.185,-0.72 0.106,-0.671 0.055,-0.588L0.165,-0.52C0.194,-0.57 0.232,-0.6 0.288,-0.6C0.343,-0.6 0.383,-0.57 0.383,-0.517C0.383,-0.463 0.34,-0.43 0.281,-0.43L0.175,-0.43L0.175,-0.31L0.29,-0.31C0.364,-0.31 0.414,-0.27 0.414,-0.206C0.414,-0.141 0.363,-0.1 0.295,-0.1C0.226,-0.1 0.179,-0.134 0.14,-0.211L0.022,-0.138C0.079,-0.038 0.164,0.02 0.296,0.02C0.442,0.02 0.551,-0.067 0.551,-0.2Z"
                      style="fill:rgb(246,208,1);fill-rule:nonzero;"/>
            </g>
            <g transform="matrix(5.93814,0,0,9.3913,28.5392,23.0217)">
                <path d="M0.026,0.088C0.026,0.194 0.121,0.25 0.282,0.25C0.439,0.25 0.546,0.164 0.546,0.052C0.546,-0.042 0.477,-0.11 0.35,-0.11L0.223,-0.11C0.2,-0.11 0.189,-0.12 0.189,-0.14C0.189,-0.151 0.195,-0.162 0.206,-0.172C0.221,-0.169 0.237,-0.168 0.254,-0.168C0.384,-0.168 0.458,-0.248 0.458,-0.347C0.458,-0.364 0.456,-0.38 0.451,-0.396L0.54,-0.396L0.54,-0.504L0.356,-0.504C0.327,-0.517 0.293,-0.524 0.254,-0.524C0.128,-0.524 0.052,-0.445 0.052,-0.347C0.052,-0.291 0.076,-0.241 0.12,-0.208C0.082,-0.18 0.065,-0.148 0.065,-0.108C0.065,-0.082 0.076,-0.055 0.096,-0.035C0.051,-0.002 0.026,0.038 0.026,0.088ZM0.256,-0.264C0.201,-0.264 0.168,-0.297 0.168,-0.347C0.168,-0.396 0.201,-0.429 0.256,-0.429C0.309,-0.429 0.343,-0.397 0.343,-0.347C0.343,-0.297 0.309,-0.264 0.256,-0.264ZM0.146,0.07C0.146,0.039 0.161,0.017 0.18,-0.001L0.336,-0.001C0.397,-0.001 0.42,0.026 0.42,0.064C0.42,0.114 0.373,0.148 0.281,0.148C0.192,0.148 0.146,0.118 0.146,0.07Z"
                      style="fill:rgb(246,208,1);fill-rule:nonzero;"/>
            </g>
            <g transform="matrix(5.93814,0,0,9.3913,31.5558,23.0217)">
                <path d="M0.09,-0.31L0.28,-0.31C0.367,-0.31 0.416,-0.272 0.416,-0.206C0.416,-0.141 0.367,-0.1 0.298,-0.1C0.23,-0.1 0.182,-0.134 0.142,-0.211L0.024,-0.138C0.082,-0.037 0.168,0.02 0.298,0.02C0.442,0.02 0.554,-0.068 0.554,-0.211C0.554,-0.347 0.472,-0.432 0.286,-0.432L0.232,-0.432L0.24,-0.578L0.528,-0.578L0.528,-0.7L0.111,-0.7L0.09,-0.31Z"
                      style="fill:rgb(246,208,1);fill-rule:nonzero;"/>
            </g>
            <g transform="matrix(5.93814,0,0,9.3913,34.8218,23.0217)">
                <path d="M0.318,-0.1C0.233,-0.1 0.172,-0.163 0.172,-0.252C0.172,-0.34 0.233,-0.404 0.316,-0.404C0.368,-0.404 0.408,-0.381 0.432,-0.346L0.531,-0.422C0.484,-0.484 0.41,-0.524 0.318,-0.524C0.144,-0.524 0.04,-0.399 0.04,-0.252C0.04,-0.105 0.144,0.02 0.318,0.02C0.41,0.02 0.484,-0.02 0.531,-0.082L0.432,-0.158C0.408,-0.123 0.368,-0.1 0.318,-0.1Z"
                      style="fill:rgb(246,208,1);fill-rule:nonzero;"/>
            </g>
            <g transform="matrix(5.93814,0,0,9.3913,37.7908,23.0217)">
                <path d="M0.26,0.02C0.475,0.02 0.565,-0.135 0.565,-0.353C0.565,-0.587 0.464,-0.72 0.282,-0.72C0.122,-0.72 0.027,-0.61 0.027,-0.478C0.027,-0.35 0.115,-0.251 0.254,-0.251C0.323,-0.251 0.38,-0.273 0.425,-0.313C0.416,-0.175 0.363,-0.102 0.262,-0.102C0.206,-0.102 0.165,-0.132 0.129,-0.18L0.025,-0.094C0.07,-0.033 0.144,0.02 0.26,0.02ZM0.166,-0.483C0.166,-0.549 0.212,-0.598 0.284,-0.598C0.356,-0.598 0.405,-0.554 0.421,-0.44C0.387,-0.394 0.336,-0.371 0.279,-0.371C0.212,-0.371 0.166,-0.418 0.166,-0.483Z"
                      style="fill:rgb(246,208,1);fill-rule:nonzero;"/>
            </g>
        </g>
        <g transform="matrix(1.125,0,0,1.125,-0.125,-1.875)">
            <circle cx="13" cy="15" r="4" style="fill:rgb(220,48,48);"/>
        </g>
    </g>
</svg>
