<svg fill="currentColor" viewBox="0 0 108 32" xmlns="http://www.w3.org/2000/svg" xml:space="preserve" style="fill-rule:evenodd;clip-rule:evenodd;stroke-linejoin:round;stroke-miterlimit:2"><path d="M30.084 23.478H19.436v-2.684l4.818-4.224c.821-.719 1.423-1.368 1.804-1.947a3.357 3.357 0 0 0 .572-1.881v-.286c0-.675-.22-1.192-.66-1.551-.44-.359-.975-.539-1.606-.539-.792 0-1.393.224-1.804.671a3.891 3.891 0 0 0-.88 1.617l-2.508-.968a6.178 6.178 0 0 1 .682-1.463 4.868 4.868 0 0 1 1.111-1.221 5.268 5.268 0 0 1 1.573-.836c.601-.205 1.291-.308 2.068-.308.807 0 1.525.114 2.156.341a4.486 4.486 0 0 1 1.595.957c.433.411.763.895.99 1.452.227.557.341 1.166.341 1.826 0 .645-.103 1.232-.308 1.76a6.486 6.486 0 0 1-.836 1.507 9.7 9.7 0 0 1-1.232 1.364c-.469.433-.968.869-1.496 1.309l-3.234 2.662h7.502v2.442ZM32.9 23.478V11.994h2.816v1.914h.11a3.678 3.678 0 0 1 1.111-1.551c.506-.418 1.206-.627 2.101-.627 1.188 0 2.097.389 2.728 1.166.631.777.946 1.885.946 3.322v7.26h-2.816v-6.974c0-.821-.147-1.437-.44-1.848-.293-.411-.777-.616-1.452-.616-.293 0-.576.04-.847.121a2.401 2.401 0 0 0-.726.352 1.838 1.838 0 0 0-.517.572 1.57 1.57 0 0 0-.198.803v7.59H32.9ZM49.972 14.326c.88 0 1.529-.18 1.947-.539.418-.359.627-.818.627-1.375v-.154c0-.631-.202-1.126-.605-1.485-.403-.359-.957-.539-1.661-.539-.675 0-1.272.161-1.793.484-.521.323-.972.777-1.353 1.364l-1.848-1.672c.264-.352.554-.686.869-1.001a4.838 4.838 0 0 1 1.089-.814 5.892 5.892 0 0 1 1.386-.539 6.992 6.992 0 0 1 1.738-.198c.777 0 1.485.092 2.123.275a4.94 4.94 0 0 1 1.65.803c.462.352.818.774 1.067 1.265.249.491.374 1.045.374 1.661 0 .499-.077.946-.231 1.342a3.23 3.23 0 0 1-.638 1.034 3.355 3.355 0 0 1-.946.715 4.76 4.76 0 0 1-1.133.407v.132c.44.088.858.227 1.254.418.396.191.737.444 1.023.759.286.315.513.686.682 1.111.169.425.253.909.253 1.452 0 .675-.136 1.291-.407 1.848a4.096 4.096 0 0 1-1.155 1.43c-.499.396-1.093.7-1.782.913-.689.213-1.459.319-2.31.319-.748 0-1.408-.077-1.98-.231a5.751 5.751 0 0 1-1.507-.627 5.366 5.366 0 0 1-1.133-.913 6.865 6.865 0 0 1-.836-1.089l2.134-1.628c.176.308.367.59.572.847.205.257.44.48.704.671.264.191.565.337.902.44.337.103.719.154 1.144.154.851 0 1.503-.205 1.958-.616.455-.411.682-.975.682-1.694v-.154c0-.704-.246-1.239-.737-1.606s-1.199-.55-2.123-.55h-1.518v-2.42h1.518ZM69.398 24.446c0 .601-.106 1.133-.319 1.595-.213.462-.561.847-1.045 1.155-.484.308-1.107.543-1.87.704-.763.161-1.694.242-2.794.242-.968 0-1.789-.062-2.464-.187s-1.228-.301-1.661-.528c-.433-.227-.744-.51-.935-.847a2.28 2.28 0 0 1-.286-1.144c0-.645.18-1.148.539-1.507.359-.359.862-.59 1.507-.693v-.242c-.469-.117-.832-.348-1.089-.693a1.987 1.987 0 0 1-.385-1.221c0-.293.059-.554.176-.781.117-.227.275-.422.473-.583.198-.161.422-.297.671-.407.249-.11.513-.194.792-.253v-.088c-.704-.323-1.228-.77-1.573-1.342-.345-.572-.517-1.239-.517-2.002 0-1.173.403-2.116 1.21-2.827.807-.711 1.987-1.067 3.542-1.067.352 0 .7.022 1.045.066.345.044.664.117.957.22v-.374c0-1.115.543-1.672 1.628-1.672h1.782v2.156H66.34v.308c.601.337 1.049.777 1.342 1.32.293.543.44 1.166.44 1.87 0 1.159-.4 2.09-1.199 2.794-.799.704-1.984 1.056-3.553 1.056-.675 0-1.261-.066-1.76-.198-.22.103-.411.238-.572.407a.874.874 0 0 0-.242.627c0 .572.499.858 1.496.858h3.08c1.408 0 2.431.29 3.069.869.638.579.957 1.382.957 2.409Zm-2.64.33a.989.989 0 0 0-.44-.858c-.293-.205-.799-.308-1.518-.308h-3.916a1.401 1.401 0 0 0-.594 1.188c0 .44.183.785.55 1.034.367.249.99.374 1.87.374h1.408c.924 0 1.595-.117 2.013-.352.418-.235.627-.594.627-1.078ZM63.37 17.56c1.379 0 2.068-.587 2.068-1.76v-.374c0-1.173-.689-1.76-2.068-1.76s-2.068.587-2.068 1.76v.374c0 1.173.689 1.76 2.068 1.76ZM80.728 10.63H73.82l-.352 5.148h.154c.161-.323.337-.623.528-.902s.411-.513.66-.704c.249-.191.539-.341.869-.451.33-.11.73-.165 1.199-.165.66 0 1.276.11 1.848.33a4.21 4.21 0 0 1 1.485.957c.418.418.748.928.99 1.529.242.601.363 1.283.363 2.046 0 .777-.125 1.489-.374 2.134a4.723 4.723 0 0 1-1.1 1.683 5 5 0 0 1-1.782 1.111c-.704.264-1.511.396-2.42.396a7.11 7.11 0 0 1-1.892-.231 5.615 5.615 0 0 1-1.474-.627 4.994 4.994 0 0 1-1.1-.913 7.714 7.714 0 0 1-.814-1.089l2.112-1.628c.176.293.359.568.55.825a3.192 3.192 0 0 0 1.529 1.122c.315.11.686.165 1.111.165.865 0 1.522-.242 1.969-.726.447-.484.671-1.144.671-1.98v-.176c0-.792-.227-1.415-.682-1.87-.455-.455-1.085-.682-1.892-.682-.631 0-1.144.121-1.54.363a3.839 3.839 0 0 0-.946.781l-2.376-.33.572-8.624h9.042v2.508ZM88.758 23.742c-.851 0-1.606-.139-2.266-.418a4.37 4.37 0 0 1-1.661-1.21c-.447-.528-.788-1.162-1.023-1.903-.235-.741-.352-1.573-.352-2.497 0-.924.117-1.753.352-2.486.235-.733.576-1.36 1.023-1.881a4.419 4.419 0 0 1 1.661-1.199c.66-.279 1.415-.418 2.266-.418 1.159 0 2.116.257 2.871.77.755.513 1.302 1.225 1.639 2.134l-2.31 1.034a2.395 2.395 0 0 0-.737-1.199c-.359-.315-.847-.473-1.463-.473-.792 0-1.382.249-1.771.748s-.583 1.151-.583 1.958v2.09c0 .807.194 1.456.583 1.947.389.491.979.737 1.771.737.675 0 1.195-.172 1.562-.517.367-.345.653-.774.858-1.287l2.156 1.034c-.381 1.012-.961 1.771-1.738 2.277-.777.506-1.723.759-2.838.759ZM106.006 13.886c0 1.1-.165 2.138-.495 3.113-.33.975-.759 1.87-1.287 2.684a12.663 12.663 0 0 1-1.771 2.178 14.51 14.51 0 0 1-1.947 1.617H96.59a42.77 42.77 0 0 0 2.42-1.87 16.496 16.496 0 0 0 1.881-1.826 9.818 9.818 0 0 0 1.32-1.925c.345-.667.605-1.39.781-2.167l-.176-.044a6.58 6.58 0 0 1-.517.858 3.177 3.177 0 0 1-.715.726c-.279.205-.601.37-.968.495a3.956 3.956 0 0 1-1.276.187c-.645 0-1.239-.11-1.782-.33a4.073 4.073 0 0 1-1.419-.957 4.49 4.49 0 0 1-.946-1.496c-.227-.579-.341-1.236-.341-1.969 0-.777.132-1.489.396-2.134a4.866 4.866 0 0 1 1.122-1.672 5.151 5.151 0 0 1 1.749-1.1c.682-.264 1.448-.396 2.299-.396.88 0 1.665.143 2.354.429a4.966 4.966 0 0 1 1.76 1.21 5.145 5.145 0 0 1 1.1 1.892c.249.741.374 1.573.374 2.497Zm-5.588 1.782c.821 0 1.459-.224 1.914-.671.455-.447.682-1.089.682-1.925v-.33c0-.836-.227-1.478-.682-1.925-.455-.447-1.093-.671-1.914-.671-.807 0-1.441.224-1.903.671-.462.447-.693 1.089-.693 1.925v.33c0 .836.231 1.478.693 1.925.462.447 1.096.671 1.903.671Z" style="fill-rule:nonzero"/><circle cx="6.18" cy="16" r="4.5"/></svg>