<svg fill="currentColor" viewBox="0 0 645 489" version="1.1" xmlns="http://www.w3.org/2000/svg"
     xml:space="preserve"
     style="fill-rule:evenodd;clip-rule:evenodd;stroke-linejoin:round;stroke-miterlimit:2;"><g><path d="M180.608,315.614l0,-33.666l-77.13,-0l0,-32.159l68.337,-109.539l44.72,0l0,112.554l22.109,0l-0,29.144l-22.109,-0l0,33.666l-35.927,-0Zm-46.981,-62.81l46.981,0l0,-73.612l-2.512,-0l-44.469,73.612Z" style="fill-rule:nonzero;"/><path
        d="M322.055,318.628c-22.947,0 -39.947,-7.955 -51.001,-23.867c-11.055,-15.912 -16.582,-38.188 -16.582,-66.829c-0,-28.641 5.527,-50.918 16.582,-66.829c11.054,-15.912 28.054,-23.868 51.001,-23.868c22.946,0 39.946,7.956 51.001,23.868c11.054,15.911 16.581,38.188 16.581,66.829c0,28.641 -5.527,50.917 -16.581,66.829c-11.055,15.912 -28.055,23.867 -51.001,23.867Zm-0,-31.907c10.049,0 17,-3.685 20.852,-11.054c3.853,-7.37 5.779,-17.754 5.779,-31.154l-0,-33.163c-0,-13.399 -1.926,-23.784 -5.779,-31.153c-3.852,-7.37 -10.803,-11.055 -20.852,-11.055c-10.05,0 -17.001,3.685 -20.853,11.055c-3.852,7.369 -5.778,17.754 -5.778,31.153l-0,33.163c-0,13.4 1.926,23.784 5.778,31.154c3.852,7.369 10.803,11.054 20.853,11.054Z"
        style="fill-rule:nonzero;"/><path
        d="M482.093,315.614l-0,-33.666l-77.13,-0l-0,-32.159l68.336,-109.539l44.721,0l-0,112.554l22.109,0l-0,29.144l-22.109,-0l-0,33.666l-35.927,-0Zm-46.982,-62.81l46.982,0l-0,-73.612l-2.513,-0l-44.469,73.612Z"
        style="fill-rule:nonzero;"/><path
        d="M26.893,399.359l-0,-58.454l25.124,-0c5.415,-0 9.602,1.591 12.561,4.773c2.959,3.183 4.439,7.454 4.439,12.813c-0,5.36 -1.48,9.631 -4.439,12.813c-2.959,3.183 -7.146,4.774 -12.561,4.774l-15.661,-0l0,23.281l-9.463,0Zm9.463,-31.572l15.074,0c2.401,0 4.271,-0.628 5.611,-1.884c1.34,-1.256 2.01,-3.057 2.01,-5.402l0,-4.02c0,-2.344 -0.67,-4.145 -2.01,-5.401c-1.34,-1.256 -3.21,-1.884 -5.611,-1.884l-15.074,-0l0,18.591Z"
        style="fill-rule:nonzero;"/><path
        d="M109.634,399.359c-2.401,0 -4.243,-0.684 -5.528,-2.051c-1.284,-1.368 -2.065,-3.113 -2.344,-5.235l-0.419,0c-0.838,2.736 -2.373,4.802 -4.606,6.198c-2.233,1.395 -4.941,2.093 -8.124,2.093c-4.522,0 -7.997,-1.172 -10.426,-3.517c-2.428,-2.345 -3.643,-5.499 -3.643,-9.463c0,-4.355 1.577,-7.621 4.732,-9.799c3.154,-2.177 7.774,-3.266 13.86,-3.266l7.872,0l-0,-3.684c-0,-2.68 -0.726,-4.746 -2.178,-6.198c-1.451,-1.451 -3.712,-2.177 -6.783,-2.177c-2.568,-0 -4.662,0.558 -6.281,1.675c-1.619,1.116 -2.987,2.54 -4.103,4.271l-5.444,-4.941c1.452,-2.457 3.49,-4.48 6.114,-6.072c2.624,-1.591 6.057,-2.386 10.3,-2.386c5.639,-0 9.966,1.312 12.981,3.936c3.015,2.624 4.522,6.392 4.522,11.305l0,21.858l4.606,-0l0,7.453l-5.108,0Zm-18.424,-5.946c2.847,0 5.192,-0.628 7.034,-1.884c1.843,-1.256 2.764,-2.945 2.764,-5.067l-0,-6.28l-7.705,-0c-6.309,-0 -9.463,1.954 -9.463,5.862l-0,1.507c-0,1.954 0.656,3.42 1.968,4.397c1.312,0.977 3.113,1.465 5.402,1.465Z"
        style="fill-rule:nonzero;"/><path
        d="M161.891,403.463c-0,4.522 -1.731,7.928 -5.192,10.217c-3.462,2.289 -9.101,3.433 -16.917,3.433c-3.573,0 -6.602,-0.237 -9.086,-0.711c-2.485,-0.475 -4.523,-1.159 -6.114,-2.052c-1.591,-0.894 -2.749,-1.982 -3.475,-3.266c-0.726,-1.284 -1.089,-2.764 -1.089,-4.439c0,-2.401 0.656,-4.271 1.968,-5.611c1.312,-1.34 3.141,-2.261 5.485,-2.763l0,-0.922c-3.294,-1.06 -4.941,-3.294 -4.941,-6.699c0,-2.233 0.754,-3.95 2.262,-5.151c1.507,-1.2 3.322,-2.051 5.443,-2.554l0,-0.335c-2.568,-1.228 -4.536,-2.945 -5.904,-5.15c-1.368,-2.206 -2.052,-4.788 -2.052,-7.747c0,-4.466 1.494,-8.067 4.481,-10.803c2.987,-2.736 7.272,-4.103 12.855,-4.103c3.07,-0 5.694,0.446 7.872,1.34l-0,-1.173c-0,-1.954 0.46,-3.475 1.382,-4.564c0.921,-1.089 2.358,-1.633 4.312,-1.633l6.7,-0l0,7.37l-8.877,-0l0,1.758c1.954,1.284 3.462,2.945 4.522,4.983c1.061,2.038 1.591,4.313 1.591,6.825c0,4.411 -1.507,7.97 -4.522,10.678c-3.015,2.708 -7.314,4.062 -12.897,4.062c-2.121,-0 -4.019,-0.224 -5.694,-0.67c-1.117,0.39 -2.094,0.935 -2.931,1.633c-0.838,0.698 -1.257,1.605 -1.257,2.721c0,1.173 0.531,2.01 1.592,2.513c1.06,0.502 2.568,0.753 4.522,0.753l10.719,0c5.36,0 9.24,1.075 11.641,3.225c2.401,2.149 3.601,5.094 3.601,8.835Zm-8.542,1.005c-0,-1.508 -0.572,-2.708 -1.717,-3.601c-1.144,-0.894 -3.224,-1.34 -6.239,-1.34l-14.739,-0c-2.01,1.172 -3.015,2.847 -3.015,5.025c-0,1.786 0.712,3.224 2.135,4.312c1.424,1.089 3.839,1.633 7.245,1.633l5.694,0c7.091,0 10.636,-2.009 10.636,-6.029Zm-13.651,-26.631c2.68,-0 4.76,-0.601 6.239,-1.801c1.48,-1.2 2.22,-3.057 2.22,-5.569l-0,-1.675c-0,-2.512 -0.74,-4.369 -2.22,-5.569c-1.479,-1.2 -3.559,-1.801 -6.239,-1.801c-2.679,0 -4.759,0.601 -6.239,1.801c-1.479,1.2 -2.219,3.057 -2.219,5.569l0,1.675c0,2.512 0.74,4.369 2.219,5.569c1.48,1.2 3.56,1.801 6.239,1.801Z"
        style="fill-rule:nonzero;"/><path
        d="M185.256,400.364c-3.126,0 -5.918,-0.53 -8.375,-1.591c-2.456,-1.061 -4.55,-2.582 -6.28,-4.564c-1.731,-1.982 -3.057,-4.383 -3.978,-7.202c-0.922,-2.82 -1.382,-5.96 -1.382,-9.422c-0,-3.461 0.46,-6.602 1.382,-9.421c0.921,-2.819 2.247,-5.22 3.978,-7.202c1.73,-1.982 3.824,-3.503 6.28,-4.564c2.457,-1.061 5.249,-1.591 8.375,-1.591c3.182,-0 5.988,0.558 8.416,1.674c2.429,1.117 4.453,2.666 6.072,4.648c1.619,1.982 2.833,4.285 3.643,6.909c0.81,2.624 1.214,5.444 1.214,8.459l0,3.433l-29.897,0l0,1.424c0,3.35 0.991,6.099 2.973,8.249c1.982,2.149 4.815,3.224 8.5,3.224c2.68,0 4.941,-0.586 6.784,-1.759c1.842,-1.172 3.405,-2.763 4.689,-4.773l5.36,5.276c-1.619,2.68 -3.964,4.815 -7.035,6.406c-3.07,1.592 -6.643,2.387 -10.719,2.387Zm0,-38.439c-1.563,-0 -3.001,0.279 -4.313,0.837c-1.312,0.559 -2.428,1.34 -3.35,2.345c-0.921,1.005 -1.633,2.206 -2.135,3.601c-0.503,1.396 -0.754,2.931 -0.754,4.606l0,0.587l20.267,-0l-0,-0.838c-0,-3.35 -0.866,-6.044 -2.597,-8.081c-1.73,-2.038 -4.103,-3.057 -7.118,-3.057Z"
        style="fill-rule:nonzero;"/><path
        d="M250.913,367.033l-6.449,-12.394l-0.251,0l0,44.72l-9.045,0l0,-58.454l10.552,-0l19.094,32.326l6.449,12.394l0.251,0l0,-44.72l9.045,-0l-0,58.454l-10.552,0l-19.094,-32.326Z"
        style="fill-rule:nonzero;"/><path
        d="M311.377,400.364c-3.015,0 -5.764,-0.53 -8.249,-1.591c-2.484,-1.061 -4.592,-2.582 -6.323,-4.564c-1.73,-1.982 -3.07,-4.383 -4.019,-7.202c-0.95,-2.82 -1.424,-5.96 -1.424,-9.422c-0,-3.461 0.474,-6.602 1.424,-9.421c0.949,-2.819 2.289,-5.22 4.019,-7.202c1.731,-1.982 3.839,-3.503 6.323,-4.564c2.485,-1.061 5.234,-1.591 8.249,-1.591c3.015,-0 5.765,0.53 8.249,1.591c2.485,1.061 4.592,2.582 6.323,4.564c1.731,1.982 3.071,4.383 4.02,7.202c0.949,2.819 1.423,5.96 1.423,9.421c0,3.462 -0.474,6.602 -1.423,9.422c-0.949,2.819 -2.289,5.22 -4.02,7.202c-1.731,1.982 -3.838,3.503 -6.323,4.564c-2.484,1.061 -5.234,1.591 -8.249,1.591Zm0,-7.537c3.127,0 5.639,-0.963 7.537,-2.889c1.898,-1.926 2.848,-4.815 2.848,-8.668l-0,-7.369c-0,-3.853 -0.95,-6.742 -2.848,-8.668c-1.898,-1.926 -4.41,-2.889 -7.537,-2.889c-3.126,-0 -5.639,0.963 -7.537,2.889c-1.898,1.926 -2.847,4.815 -2.847,8.668l-0,7.369c-0,3.853 0.949,6.742 2.847,8.668c1.898,1.926 4.411,2.889 7.537,2.889Z"
        style="fill-rule:nonzero;"/><path
        d="M353.334,399.359c-3.183,0 -5.583,-0.823 -7.202,-2.47c-1.62,-1.647 -2.429,-3.978 -2.429,-6.993l-0,-26.631l-6.783,-0l-0,-7.453l3.684,-0c1.508,-0 2.555,-0.335 3.141,-1.005c0.586,-0.67 0.879,-1.759 0.879,-3.267l0,-7.62l8.207,-0l0,11.892l9.129,-0l-0,7.453l-9.129,-0l0,28.641l8.459,-0l-0,7.453l-7.956,0Z"
        style="fill-rule:nonzero;"/><path
        d="M392.275,399.359l0,-58.454l36.514,-0l-0,8.374l-27.05,0l-0,16.247l24.035,0l-0,8.375l-24.035,-0l-0,25.458l-9.464,0Z"
        style="fill-rule:nonzero;"/><path
        d="M454.08,400.364c-3.015,0 -5.765,-0.53 -8.249,-1.591c-2.485,-1.061 -4.592,-2.582 -6.323,-4.564c-1.731,-1.982 -3.071,-4.383 -4.02,-7.202c-0.949,-2.82 -1.423,-5.96 -1.423,-9.422c-0,-3.461 0.474,-6.602 1.423,-9.421c0.949,-2.819 2.289,-5.22 4.02,-7.202c1.731,-1.982 3.838,-3.503 6.323,-4.564c2.484,-1.061 5.234,-1.591 8.249,-1.591c3.015,-0 5.764,0.53 8.249,1.591c2.484,1.061 4.592,2.582 6.323,4.564c1.73,1.982 3.07,4.383 4.019,7.202c0.949,2.819 1.424,5.96 1.424,9.421c0,3.462 -0.475,6.602 -1.424,9.422c-0.949,2.819 -2.289,5.22 -4.019,7.202c-1.731,1.982 -3.839,3.503 -6.323,4.564c-2.485,1.061 -5.234,1.591 -8.249,1.591Zm-0,-7.537c3.126,0 5.639,-0.963 7.537,-2.889c1.898,-1.926 2.847,-4.815 2.847,-8.668l0,-7.369c0,-3.853 -0.949,-6.742 -2.847,-8.668c-1.898,-1.926 -4.411,-2.889 -7.537,-2.889c-3.127,-0 -5.639,0.963 -7.537,2.889c-1.899,1.926 -2.848,4.815 -2.848,8.668l0,7.369c0,3.853 0.949,6.742 2.848,8.668c1.898,1.926 4.41,2.889 7.537,2.889Z"
        style="fill-rule:nonzero;"/><path
        d="M510.608,392.157l-0.335,0c-0.391,1.061 -0.907,2.094 -1.549,3.099c-0.642,1.005 -1.452,1.884 -2.429,2.638c-0.977,0.753 -2.149,1.354 -3.517,1.8c-1.368,0.447 -2.945,0.67 -4.732,0.67c-4.522,0 -8.025,-1.451 -10.51,-4.355c-2.484,-2.903 -3.726,-7.062 -3.726,-12.478l-0,-27.719l9.128,-0l-0,26.547c-0,6.755 2.791,10.133 8.374,10.133c1.173,0 2.317,-0.153 3.434,-0.46c1.117,-0.308 2.108,-0.768 2.973,-1.382c0.865,-0.614 1.563,-1.396 2.094,-2.345c0.53,-0.949 0.795,-2.066 0.795,-3.35l0,-29.143l9.128,-0l0,43.547l-9.128,0l0,-7.202Z"
        style="fill-rule:nonzero;"/><path
        d="M532.801,399.359l-0,-43.547l9.128,-0l0,7.202l0.419,-0c0.949,-2.345 2.387,-4.299 4.313,-5.863c1.926,-1.563 4.564,-2.344 7.914,-2.344c4.466,-0 7.942,1.465 10.426,4.396c2.484,2.931 3.727,7.105 3.727,12.52l-0,27.636l-9.129,0l0,-26.463c0,-6.812 -2.735,-10.217 -8.207,-10.217c-1.172,-0 -2.331,0.153 -3.475,0.46c-1.145,0.307 -2.164,0.768 -3.057,1.382c-0.893,0.614 -1.605,1.396 -2.135,2.345c-0.531,0.949 -0.796,2.066 -0.796,3.35l0,29.143l-9.128,0Z"
        style="fill-rule:nonzero;"/><path
        d="M608.758,392.157l-0.419,0c-0.949,2.568 -2.498,4.578 -4.647,6.03c-2.15,1.451 -4.676,2.177 -7.579,2.177c-5.528,0 -9.799,-1.996 -12.814,-5.988c-3.014,-3.991 -4.522,-9.588 -4.522,-16.791c0,-7.202 1.508,-12.799 4.522,-16.791c3.015,-3.991 7.286,-5.987 12.814,-5.987c2.903,-0 5.429,0.711 7.579,2.135c2.149,1.424 3.698,3.448 4.647,6.072l0.419,-0l0,-25.627l9.128,0l0,61.972l-9.128,0l0,-7.202Zm-9.882,0.335c2.792,0 5.137,-0.684 7.035,-2.052c1.898,-1.367 2.847,-3.168 2.847,-5.401l0,-14.907c0,-2.233 -0.949,-4.034 -2.847,-5.402c-1.898,-1.367 -4.243,-2.051 -7.035,-2.051c-3.182,-0 -5.722,1.019 -7.621,3.056c-1.898,2.038 -2.847,4.732 -2.847,8.082l-0,7.537c-0,3.35 0.949,6.044 2.847,8.081c1.899,2.038 4.439,3.057 7.621,3.057Z"
        style="fill-rule:nonzero;"/></g>
    <g><clipPath id="_clip1"><path d="M399.042,106.438c-0.113,-0.246 -0.478,-0.204 -0.471,-0.511c0.008,-0.375 -0.314,-0.546 -0.461,-0.824c-0.16,-0.304 -0.362,-0.584 -0.541,-0.878c-0.575,-0.946 -0.73,-2.1 -1.467,-2.969c-0.059,-0.068 -0.053,-0.19 -0.08,-0.286c-0.244,-0.87 -0.843,-1.603 -0.969,-2.518c-0.634,-0.869 -0.709,-1.977 -1.241,-2.897c-0.202,-0.349 -0.223,-0.786 -0.457,-1.164c-0.228,-0.37 -0.193,-0.856 -0.484,-1.261c-0.292,-0.407 -0.18,-0.986 -0.516,-1.465c-0.295,-0.42 -0.326,-1.029 -0.558,-1.544c-0.277,-0.615 -0.311,-1.32 -0.642,-1.95c-0.265,-0.506 -0.245,-1.127 -0.569,-1.658c-0.232,-0.382 -0.283,-0.904 -0.315,-1.371c-0.035,-0.489 -0.474,-0.78 -0.507,-1.257c-0.018,-0.266 -0.109,-0.528 -0.167,-0.791c-0.065,-0.297 -0.16,-0.591 -0.187,-0.891c-0.024,-0.261 -0.327,-0.539 -0.262,-0.635c0.283,-0.42 -0.253,-0.466 -0.281,-0.754c-0.055,-0.567 -0.336,-1.126 -0.32,-1.683c0.017,-0.599 -0.698,-0.917 -0.466,-1.536c-0.261,-0.48 -0.327,-1.016 -0.447,-1.537c-0.084,-0.362 -0.157,-0.726 -0.242,-1.088c-0.084,-0.364 -0.184,-0.725 -0.107,-1.105c-0.376,-0.213 -0.127,-0.708 -0.425,-0.958c-0.148,0.094 -0.173,0.395 -0.459,0.228c-0.318,-0.184 -0.558,-0.074 -0.727,0.241c-0.061,0.113 -0.115,0.248 -0.274,0.251c-0.245,0.087 -0.249,-0.682 -0.617,-0.169c0.248,0.116 0.323,0.373 0.496,0.544c-0.056,0.035 -0.112,0.065 -0.161,0.103c-0.621,0.477 -1.169,0.714 -1.959,0.845c-0.361,0.558 -0.361,0.558 -0.358,1.065c-0.189,0.157 -0.518,0.071 -0.628,0.364c-0.028,-0.019 -0.056,-0.038 -0.085,-0.058l-0.098,-0.445c-0.097,0.549 -0.459,0.378 -0.668,0.577c0.015,0.156 0.031,0.316 0.047,0.476c-0.14,0.129 -0.3,0.226 -0.437,0.365c-0.237,0.241 -0.541,0.418 -0.827,0.607c-0.114,0.075 -0.238,-0.267 -0.386,-0.002c-0.092,0.165 -0.296,0.215 -0.423,0.378c-0.29,0.37 -0.73,0.594 -1.072,0.901c-0.314,0.282 -0.737,0.223 -1.013,0.519c-0.689,0.741 -1.618,1.127 -2.432,1.687c-0.106,-0.171 -0.172,-0.277 -0.236,-0.38c-0.311,0.22 -0.178,0.629 -0.416,0.867c-0.542,0.177 -0.805,0.338 -1.225,0.726c-0.029,0.027 -0.12,-0.01 -0.182,-0.018c-0.205,-0.172 0.054,-0.334 0.008,-0.52c-0.131,-0.027 -0.252,-0.024 -0.329,0.118c0.038,0.226 0.076,0.45 0.118,0.708l-1.036,0.228c-0.203,0.208 -0.21,0.508 -0.538,0.54c-0.087,0.027 -0.142,-0.216 -0.287,-0.086c-0.003,0.104 0.03,0.226 -0.017,0.286c-0.104,0.132 -2.311,1.394 -2.428,1.42c-0.023,0.005 -0.051,-0.009 -0.077,-0.014c-0.065,-0.106 -0.131,-0.212 -0.199,-0.323c-0.229,0.201 0.113,0.458 -0.096,0.644c-0.194,-0.141 -0.233,-0.462 -0.545,-0.469c-0.051,0.151 -0.247,0.242 -0.174,0.479c0.063,0.061 0.148,0.145 0.236,0.231c-0.283,0.271 -0.662,0.068 -0.948,0.18c-0.337,0.133 -0.676,0.329 -0.891,0.578c-0.065,0.207 0.121,0.355 -0.002,0.525c-0.156,0.011 -0.268,-0.201 -0.554,-0.002c-0.002,0.005 -0.075,0.121 -0.111,0.248c-0.039,0.134 0.268,0.183 0.164,0.236c-0.305,0.154 -0.193,0.391 -0.259,0.614c-0.083,0.283 -0.099,0.533 0.009,0.757c0.116,0.243 -0.156,0.485 0.121,0.758c0.201,0.198 0.208,0.631 0.236,0.964c0.082,0.974 0.568,1.824 0.859,2.728c0.156,0.484 0.379,0.964 0.482,1.472c0.115,0.572 0.148,0.547 0.407,1.009c0.103,0.183 0.43,0.241 0.333,0.548c-0.134,0.425 0.314,0.718 0.272,1.126c0.787,0.879 0.946,2.072 1.528,3.043c0.263,0.44 0.239,0.969 0.53,1.337c0.486,0.616 0.608,1.399 1.03,2.021c0.293,0.43 0.251,0.975 0.522,1.346c0.609,0.83 0.732,1.892 1.384,2.686c0.017,0.577 0.441,1.001 0.575,1.549c0.132,0.539 0.532,1.008 0.702,1.543c0.085,0.269 0.382,0.351 0.39,0.658c0.008,0.257 0.049,0.602 0.215,0.746c0.249,0.213 0.251,0.468 0.29,0.713c0.044,0.278 0.366,0.36 0.373,0.663c0.013,0.639 0.599,1.098 0.585,1.754c0.4,0.328 0.275,0.88 0.507,1.245c0.279,0.437 0.331,0.913 0.494,1.368c0.189,0.529 0.402,1.071 1.024,1.274c0.075,-0.269 0.304,-0.28 0.492,-0.291c0.88,-0.049 1.62,-0.538 2.435,-0.786c0.348,-0.107 0.688,-0.382 1.072,-0.393c0.464,-0.014 0.732,-0.402 1.158,-0.489c0.595,-0.12 1.126,-0.426 1.656,-0.722c0.419,-0.234 0.973,-0.141 1.339,-0.539c0.068,-0.074 0.172,0.189 0.313,0.08c0.015,-0.133 0.03,-0.256 0.044,-0.385c0.105,0.056 0.25,0.156 0.264,0.139c0.358,-0.399 0.863,-0.517 1.316,-0.741c0.165,-0.081 0.235,-0.28 0.48,-0.141c0.21,0.12 0.316,-0.156 0.433,-0.236c0.812,-0.553 1.656,-1.042 2.584,-1.357c0.312,-0.105 0.366,-0.359 0.536,-0.547c0.027,0.017 0.054,0.041 0.084,0.052c0.073,0.028 0.127,0.151 0.224,0.004c0.177,-0.269 0.588,-0.233 0.732,-0.597c0.126,-0.319 0.676,-0.065 0.798,-0.477c1.062,-0.432 1.904,-1.199 2.793,-1.881c1.046,-0.803 2.129,-1.573 2.795,-2.376c0.351,-0.686 -0.397,-0.893 -0.129,-1.387Zm1.907,-2.821c0.34,0.446 0.87,0.73 0.573,1.37c-0.057,0.125 0.112,0.116 0.16,0.183c0.443,0.603 0.512,1.333 0.699,2.025c0.093,0.349 -0.085,0.623 -0.153,0.927c-0.05,0.227 -0.201,0.196 -0.346,0.065c-0.078,0.216 -0.401,0.189 -0.438,0.421c0.003,0.186 0.137,0.235 0.247,0.306c0.005,0.22 -0.255,0.128 -0.325,0.288c-0.114,0.264 -0.426,0.14 -0.613,0.259c-0.43,0.273 -1.062,0.342 -1.08,1.055c-0.002,0.098 -0.09,0.257 -0.273,0.276c-0.26,0.081 -0.157,-0.236 -0.298,-0.302c-0.055,-0.041 -0.124,-0.017 -0.124,0.073c0.004,0.696 0.008,0.696 -0.782,0.953c-0.016,0.123 -0.032,0.247 -0.045,0.348c-0.232,0.22 -0.373,-0.115 -0.566,-0.051c-0.935,0.96 -1.135,1.366 -2.735,1.722c0.083,0.062 0.157,0.117 0.231,0.172c-0.125,0.115 -0.106,0.523 -0.445,0.221c-0.179,0.173 -0.343,0.366 -0.54,0.515c-0.449,0.339 -0.926,0.603 -1.49,0.297c-0.206,0.25 -0.07,0.637 -0.422,0.751c-0.159,0.07 -0.236,-0.09 -0.423,-0.13c-0.184,0.158 -0.487,0.252 -0.529,0.623c-0.025,0.224 -0.249,0.176 -0.397,0.215c-0.161,0.043 -0.27,-0.206 -0.464,-0.093c-0.378,0.448 -0.719,0.992 -1.399,0.842c-0.141,0.221 -0.291,0.455 -0.441,0.69c-0.442,0.093 -0.836,-0.022 -1.118,0.322c-0.202,0.247 -0.741,0.024 -0.933,0.447c-0.587,-0.01 -0.991,0.486 -1.555,0.555c-0.751,0.091 -1.435,0.372 -2.047,0.822c-0.05,0.037 -0.114,0.068 -0.175,0.074c-0.966,0.095 -1.777,0.689 -2.739,0.831c-0.671,0.099 -1.362,0.186 -1.966,0.602c-0.257,0.177 -0.747,0.326 -0.954,0.199c-0.369,-0.225 -0.619,0.482 -0.908,0.024c-0.328,0.064 -0.674,0.22 -0.978,0.16c-0.192,-0.038 -0.5,0.033 -0.624,-0.199c-0.186,-0.35 -0.584,-0.325 -0.848,-0.536c0.042,-0.173 0.13,-0.326 0.071,-0.536c-0.145,-0.519 -0.095,-1.169 -0.398,-1.547c-0.322,-0.402 -0.148,-0.994 -0.638,-1.276c-0.08,-0.045 -0.084,-0.251 -0.092,-0.383c-0.05,-0.843 -0.657,-1.512 -0.727,-2.347c-0.668,-1.161 -0.896,-2.52 -1.633,-3.651c-0.133,-1.016 -0.798,-1.83 -1.073,-2.803c-0.107,-0.379 -0.219,-0.842 -0.452,-1.15c-0.277,-0.367 -0.196,-0.889 -0.491,-1.131c-0.378,-0.31 -0.076,-0.905 -0.58,-1.089c-0.048,-0.566 -0.307,-1.065 -0.568,-1.544c-0.426,-0.783 -0.449,-1.738 -1.095,-2.431c-0.16,-0.171 -0.19,-0.499 -0.207,-0.759c-0.018,-0.296 -0.311,-0.381 -0.382,-0.66c-0.239,-0.936 -0.809,-1.758 -0.995,-2.72c-0.505,-0.377 -0.268,-1.065 -0.627,-1.502c-0.364,-0.441 -0.318,-1.005 -0.433,-1.514c-0.077,-0.335 -0.395,-0.51 -0.424,-0.858c-0.025,-0.3 -0.096,-0.603 -0.196,-0.888c-0.08,-0.227 0.116,-0.508 0.009,-0.605c-0.173,-0.16 -0.194,-0.334 -0.248,-0.519c-0.878,-0.189 -1.355,-0.766 -1.603,-1.601c-0.223,-0.749 -0.253,-1.529 0.177,-2.144c0.6,-0.859 1.12,-1.801 1.979,-2.464c1.187,-0.916 2.416,-1.764 3.699,-2.547c1.037,-0.633 2.051,-1.312 3.088,-1.947c1.919,-1.173 3.847,-2.334 5.767,-3.505c1.333,-0.813 2.658,-1.64 3.992,-2.451c0.429,-0.26 0.884,-0.476 1.313,-0.735c0.75,-0.45 1.478,-0.936 2.235,-1.372c1.033,-0.594 2.076,-1.17 3.132,-1.722c0.293,-0.153 0.531,-0.326 0.737,-0.584c0.31,-0.387 0.329,-0.372 0.9,-0.101c-0.048,0.083 -0.095,0.166 -0.15,0.261c0.335,0.113 0.435,-0.014 0.354,-0.308c0.112,-0.206 0.315,-0.129 0.453,-0.199c0.165,0.036 0.146,0.201 0.212,0.294c0.251,0.104 0.458,-0.089 0.698,-0.051c0.098,0.238 0.29,0.365 0.58,0.35l0.525,2.383c-0.092,0.153 -0.193,0.322 -0.294,0.49c0.583,0.35 0.993,0.786 0.806,1.535c0.277,0.086 -0.03,0.415 0.252,0.565c0.135,0.072 0.164,0.436 0.155,0.664c-0.011,0.301 0.407,0.352 0.34,0.657c-0.144,0.164 -0.203,-0.097 -0.319,-0.044c-0.215,0.493 0.296,0.25 0.419,0.398c-0.048,0.084 -0.096,0.167 -0.141,0.245c0.078,0.059 0.151,0.114 0.221,0.168c-0.099,0.156 -0.19,0.298 -0.281,0.442c0.295,0.406 0.657,0.797 0.672,1.325c0.014,0.494 0.431,0.789 0.515,1.255c0.077,0.434 0.014,0.947 0.458,1.273c0.081,0.06 0.057,0.256 0.096,0.385c0.09,0.303 -0.024,0.622 0.181,0.937c0.172,0.265 0.21,0.644 0.227,0.976c0.021,0.423 0.41,0.645 0.474,1.057c0.056,0.365 -0.03,0.836 0.418,1.068c0.019,0.01 0.02,0.062 0.023,0.095c0.067,0.975 0.658,1.791 0.823,2.74c0.064,0.372 0.086,0.756 0.407,1.085c0.216,0.222 0.005,0.673 0.224,1.016c0.114,0.18 0.272,0.355 0.345,0.556c0.064,0.176 0.199,0.4 0.071,0.572c-0.23,0.307 0.334,0.297 0.187,0.545c0.352,0.282 0.165,0.771 0.439,1.102c0.268,0.324 0.318,0.778 0.497,1.14c0.456,0.92 0.609,1.96 1.169,2.831c-0.144,0.529 0.317,0.892 0.383,1.384c0.065,0.491 0.263,1.036 0.584,1.395c0.233,0.261 -0.034,0.521 0.138,0.625c0.24,0.148 0.095,0.449 0.329,0.581c0.272,0.153 0.175,0.48 0.272,0.719c0.059,0.148 0.031,0.319 0.201,0.433c0.333,0.222 0.109,0.518 0.063,0.819Z"/></clipPath>
        <g clip-path="url(#_clip1)"><path d="M397.219,62.896l-44.597,9.82l12.36,56.137l44.597,-9.819l-12.36,-56.138Z"/></g>
        <clipPath id="_clip2"><path d="M431.907,49.634c-0.145,0.352 -0.942,0.335 -0.561,0.993c0.026,0.046 -0.029,0.203 -0.08,0.222c-0.62,0.239 -0.584,0.875 -0.799,1.343c-0.421,0.918 -0.75,1.878 -1.161,2.801c-0.416,0.932 -0.688,1.915 -1.345,2.763c-0.473,0.609 -0.706,1.437 -0.92,2.203c-0.228,0.82 -0.928,1.36 -1.156,2.147c-0.314,1.087 -1.215,1.866 -1.491,2.965c-0.01,0.04 -0.021,0.088 -0.049,0.115c-0.882,0.886 -1.313,2.075 -2.055,3.056c-0.278,0.369 -0.757,0.635 -0.673,1.209c0.268,0.274 0.609,0.088 0.904,0.15c0.895,0.185 1.827,0.187 2.691,0.527c0.441,-0.377 0.816,0.179 1.295,0.094c0.403,-0.072 0.953,0.039 1.384,0.207c0.432,0.168 0.913,-0.096 1.295,0.227c0.617,-0.293 1.127,0.235 1.753,0.221c1.119,-0.024 2.25,0.202 3.385,0.268c0.657,0.038 1.17,-0.117 1.601,-0.296c0.425,-0.621 0.368,-1.213 0.287,-1.741c-0.222,-1.448 -0.451,-2.906 -0.849,-4.312c-0.623,-2.198 -1.108,-4.427 -1.609,-6.652c-0.41,-1.82 -0.774,-3.651 -1.149,-5.479c-0.209,-1.016 -0.251,-2.07 -0.698,-3.031Zm1.546,25.759c-0.368,0.156 -0.679,0.287 -0.99,0.418c-0.017,-0.036 -0.034,-0.073 -0.052,-0.109c-0.035,-0.071 -0.093,-0.207 -0.104,-0.203c-1.086,0.351 -2.073,-0.655 -3.171,-0.239c-0.096,-0.155 -0.155,-0.457 -0.378,-0.391c-0.413,0.123 -0.721,0.115 -0.911,-0.319c-0.035,-0.08 -0.121,-0.104 -0.183,-0.013c-0.339,0.497 -0.671,0.237 -1.086,0.086c-0.385,-0.139 -0.85,-0.04 -1.276,-0.086c-1.141,-0.123 -2.232,-0.58 -3.393,-0.544c-0.374,0.012 -0.357,-0.594 -0.877,-0.406c-0.241,0.088 -0.69,0.152 -1.048,-0.095c-0.286,-0.197 -0.685,-0.042 -1.051,-0.137c-0.669,-0.173 -1.343,0.006 -1.836,0.579c-0.032,-0.078 -0.065,-0.155 -0.097,-0.232c-0.522,-0.033 -0.739,0.16 -0.505,0.685c-0.156,0.065 -0.312,0.131 -0.468,0.197c-0.053,-0.107 -0.105,-0.215 -0.156,-0.318c-0.481,0.025 -0.658,0.743 -1.139,0.592c-0.398,-0.125 -0.779,-0.16 -1.138,-0.134c-0.309,-0.318 0.187,-0.569 -0.015,-0.842c-0.189,0.034 -0.372,0.243 -0.618,-0.076c0.085,-0.305 0.095,-0.723 0.576,-0.892c-0.281,-0.457 -0.694,-0.718 -1.189,-0.926c-0.521,-0.217 -0.963,-0.554 -0.925,-1.245c0.029,-0.522 -0.674,-0.792 -0.431,-1.433c0.043,-0.028 0.177,-0.113 0.305,-0.205c0.492,-0.356 0.983,-0.577 1.689,-0.46c1.107,0.183 2.285,-0.025 3.374,0.206c0.919,0.195 1.236,-0.377 1.623,-0.856c0.267,-0.329 0.515,-0.725 0.711,-1.094c0.608,-1.143 1.508,-2.114 1.947,-3.349c0.804,-0.597 0.774,-1.674 1.394,-2.398c0.603,-0.704 0.638,-1.743 1.164,-2.473c0.972,-1.346 1.367,-2.927 2.02,-4.4c0.65,-1.464 1.218,-2.965 1.822,-4.449c0.619,-1.523 1.413,-3.003 1.811,-4.582c0.399,-1.588 1.101,-3.03 1.611,-4.53c0.501,-0.211 0.967,-0.408 1.37,-0.578c0.138,0.326 0.277,0.656 0.425,1.008c0.515,-0.329 0.922,-0.126 1.142,0.107c0.91,0.959 1.616,2.006 1.776,3.416c0.243,2.154 0.644,4.291 1.003,6.431c0.275,1.642 0.622,3.276 0.994,4.885c0.479,2.072 0.869,4.178 1.568,6.202c0.274,0.794 0.246,1.705 0.687,2.429c0.22,0.361 -0.47,0.698 0.121,0.982c0.379,0.182 0.113,0.684 0.29,0.999c0.205,0.363 0.184,0.797 0.327,1.156c0.142,0.357 0.005,0.734 0.213,1.066c0.194,0.311 0.187,0.695 0.275,1.041c0.206,0.812 0.332,1.633 0.423,2.458c0.107,0.988 -0.277,1.802 -1.046,2.429c-0.091,0.075 -0.201,0.184 -0.274,0.212c-0.381,0.149 -0.382,0.718 -0.712,0.766c-0.819,0.122 -1.619,0.499 -2.444,0.372c-0.413,-0.065 -0.789,-0.031 -1.172,0.024c-0.377,0.054 -0.635,-0.311 -1.064,-0.182c-0.299,0.089 -0.746,-0.038 -0.912,-0.55Z"/></clipPath>
        <g clip-path="url(#_clip2)"><path d="M458.6,44.983l-37.548,-15.273l-18.88,46.415l37.548,15.273l18.88,-46.415Z"/></g>
        <clipPath id="_clip3"><path d="M450.382,95.348c-0.222,-0 -0.323,0.03 -0.388,-0.005c-0.951,-0.511 -1.767,-0.297 -2.538,0.403c-0.482,0.437 -0.985,0.913 -1.52,1.218c-1.129,0.643 -1.691,1.756 -2.466,2.666c-0.906,1.066 -1.462,2.396 -2.088,3.668c-0.913,1.858 -1.305,3.812 -1.481,5.831c-0.114,1.306 0.154,2.572 0.461,3.842c0.102,0.419 0.424,0.796 0.321,1.264c0.53,0.208 -0.096,0.862 0.472,1.137c0.354,0.171 0.573,0.622 0.852,0.947c0.054,0.062 0.128,0.114 0.161,0.186c0.473,1.013 1.397,1.55 2.274,2.123c0.904,0.59 1.968,0.908 2.992,0.973c1.555,0.098 3.153,0.264 4.693,-0.213c0.822,-0.254 1.699,-0.339 2.465,-0.757c1.492,-0.814 3.005,-1.537 4.359,-2.645c1.735,-1.42 3.14,-3.041 4.211,-4.965c0.488,-0.879 0.871,-1.836 1.163,-2.8c0.297,-0.982 0.5,-2.009 0.607,-3.031c0.15,-1.426 -0.103,-2.838 -0.502,-4.207c-0.205,-0.706 -0.447,-1.444 -0.861,-2.035c-0.478,-0.679 -1.089,-1.328 -1.78,-1.775c-0.773,-0.499 -1.535,-1.159 -2.57,-1.102c-0.221,-0.571 -0.573,0.097 -0.888,-0.104c-0.594,-0.379 -1.284,-0.55 -1.958,-0.764c-0.418,-0.134 -0.809,-0.023 -1.204,-0.136c-0.957,-0.274 -0.959,-0.255 -1.964,-0.01c-0.071,0.018 -0.181,-0.126 -0.278,-0.198c-0.166,0.154 -0.34,0.317 -0.516,0.482c-0.343,-0.461 -0.697,-0.207 -1.046,-0.037c-0.153,-0.153 -0.302,-0.302 -0.455,-0.455c-0.178,0.168 -0.356,0.336 -0.528,0.499Zm2.31,27.842c-0.639,-0 -1.105,0.027 -1.566,-0.005c-1.44,-0.101 -2.86,-0.266 -4.26,-0.697c-0.744,-0.229 -1.57,-0.285 -2.287,-0.594c-0.748,-0.323 -1.547,-0.545 -2.203,-1.119c-0.599,-0.523 -1.279,-0.975 -1.938,-1.424c-1.036,-0.708 -1.828,-1.572 -2.381,-2.68c-0.666,-0.317 -0.655,-1.086 -1.052,-1.596c-0.375,-0.482 -0.513,-1.137 -0.779,-1.69c-0.199,-0.414 0.136,-0.963 -0.383,-1.236c0.1,-0.543 -0.188,-1.031 -0.232,-1.542c-0.076,-0.878 -0.139,-1.788 0.004,-2.65c0.284,-1.704 0.667,-3.382 1.318,-5.013c0.636,-1.594 1.663,-2.936 2.468,-4.415c0.194,-0.355 0.532,-0.692 0.886,-0.882c0.374,-0.201 0.191,-0.874 0.777,-0.813c0.609,-0.919 1.518,-1.498 2.382,-2.135c1.087,-0.801 2.295,-1.351 3.563,-1.783c0.527,-0.179 1.115,-0.273 1.629,-0.3c0.908,-0.047 1.752,-0.251 2.564,-0.573c1.138,-0.451 2.299,-0.128 3.443,-0.238c0.368,0.394 0.863,0.298 1.283,0.229c0.46,-0.074 0.745,0.267 1.162,0.296c1.428,0.102 2.739,0.679 4.077,1.136c1.461,0.498 2.774,1.285 4.047,2.138c1.883,1.26 3.383,2.862 4.31,4.954c0.352,0.793 0.562,1.624 0.781,2.466c0.355,1.369 0.218,2.728 0.18,4.079c-0.033,1.174 -0.418,2.323 -0.851,3.43c-0.326,0.834 -0.653,1.668 -0.986,2.5c-0.029,0.073 -0.149,0.128 -0.147,0.19c0.02,1.228 -0.826,1.967 -1.549,2.777c-0.163,0.184 -0.386,0.346 -0.473,0.562c-0.586,1.454 -1.893,2.188 -3.036,3.08c-1.186,0.925 -2.542,1.577 -3.891,2.212c-1.172,0.551 -2.446,0.823 -3.717,1.117c-1.115,0.257 -2.213,0.159 -3.143,0.219Z"/></clipPath>
        <g clip-path="url(#_clip3)"><rect x="429.928" y="86.193" width="46.217" height="42.609"/></g>
        <clipPath id="_clip4"><path d="M408.63,124.644c1.037,-0.792 1.879,-0.511 2.965,0.961c1.134,1.534 1.369,3.42 1.957,5.164c0.334,0.99 0.569,2.019 0.773,3.046c0.151,0.756 0.429,0.842 1.111,0.523c2.475,-1.161 4.975,-2.267 7.471,-3.381c0.499,-0.223 1.01,-0.436 1.535,-0.579c0.689,-0.187 1.436,-0.343 0.804,0.872c1.796,-0.501 3.364,0.797 3.304,2.468c-0.024,0.653 -0.429,0.75 -0.791,0.957c-3.5,2.002 -7.007,3.993 -10.519,5.975c-1.515,0.855 -1.408,1.064 -0.745,2.658c0.655,1.578 0.962,3.327 1.243,5.031c0.537,3.24 1.276,6.408 2.672,9.398c0.266,0.571 0.586,1.297 0.01,1.731c-0.459,0.345 -1.189,0.783 -1.793,0.015c-0.071,-0.09 -0.214,-0.167 -0.328,-0.174c-2.702,-0.171 -3.536,-2.245 -4.344,-4.303c-1.209,-3.08 -2.058,-6.278 -2.944,-9.458c-0.278,-0.997 -0.514,-1.192 -1.485,-0.671c-2.929,1.57 -5.827,3.196 -8.766,4.75c-2.106,1.113 -4.062,0.337 -6.04,-0.017c-0.551,-0.099 -1.096,-1.099 -1.342,-1.793c-0.245,-0.691 0.504,-1.093 1.017,-1.435c4.481,-2.993 8.955,-5.998 13.755,-8.469c0.725,-0.372 0.896,-0.683 0.674,-1.543c-0.858,-3.328 -1.583,-6.69 -2.326,-10.047c-0.161,-0.73 -0.362,-1.503 0.11,-2.21c0.359,-0.538 0.765,-1.029 1.526,-0.888c0.929,0.173 0.163,0.927 0.496,1.419Z"/></clipPath>
        <g clip-path="url(#_clip4)"><rect x="387.729" y="117.599" width="46.424" height="47.912"/></g></g>
</svg>