<svg
        fill="currentColor"
        width="100%"
        height="100%"
        viewBox="0 0 145 78"
        version="1.1"
        xmlns="http://www.w3.org/2000/svg"
        xml:space="preserve"
        style="fill-rule:evenodd;clip-rule:evenodd;stroke-linejoin:round;stroke-miterlimit:2;"
>
    <clipPath id="_clip1"><path d="M55.423,67.332c0.027,0.104 0.054,0.207 0.082,0.31c0.57,-0.171 1.141,-0.343 1.711,-0.514c-0.02,-0.075 -0.04,-0.15 -0.06,-0.225c-0.578,0.143 -1.156,0.286 -1.733,0.429Zm64.354,-65.468c0.005,-0.082 0.009,-0.164 0.013,-0.246c-3.082,-0.154 -6.164,-0.308 -9.245,-0.462c-0.005,0.098 -0.01,0.197 -0.014,0.296c3.082,0.137 6.164,0.275 9.246,0.412Zm-50.38,51.252c13.24,-2.118 26.264,-5.067 38.723,-10.181c-12.655,4.362 -25.577,7.704 -38.723,10.181Zm-4.303,-4.45c0.021,0.087 0.041,0.175 0.062,0.262c3.034,-0.564 6.075,-1.093 9.101,-1.7c7.989,-1.6 15.958,-3.304 23.785,-5.593c3.168,-0.927 6.306,-1.957 9.445,-2.981c1.593,-0.52 3.156,-1.133 4.733,-1.701c0.606,-0.219 1.215,-0.431 1.822,-0.646c-0.036,-0.107 -0.072,-0.214 -0.108,-0.322c-15.894,5.715 -32.247,9.657 -48.84,12.681Zm42.625,-0.207c-0.059,-0.093 -0.118,-0.186 -0.176,-0.279c-1.213,0.654 -2.399,1.364 -3.643,1.951c-2.875,1.357 -5.752,2.719 -8.678,3.959c-3.477,1.473 -6.999,2.845 -10.525,4.199c-0.546,0.21 -1.175,0.833 -1.848,0.146c-0.016,-0.017 -0.231,0.162 -0.352,0.25c-0.388,0.279 -0.737,0.683 -1.17,0.819c-6.626,2.088 -13.264,4.143 -19.9,6.199c-0.969,0.3 -1.948,0.568 -2.923,0.85c0.568,0.078 1.093,-0.009 1.598,-0.162c7.062,-2.135 14.124,-4.272 21.179,-6.432c0.698,-0.214 1.01,-0.163 0.909,0.669c-0.034,0.275 0.156,0.577 0.243,0.866c0.154,-0.26 0.333,-0.509 0.457,-0.783c0.28,-0.622 0.146,-1.376 1.09,-1.72c3.575,-1.3 7.127,-2.673 10.647,-4.118c2.328,-0.956 4.59,-2.074 6.876,-3.134c1.488,-0.689 2.978,-1.377 4.44,-2.118c0.627,-0.318 1.186,-0.77 1.776,-1.162Zm-93.304,-6.295c0.042,0.073 0.083,0.145 0.124,0.218c1.348,-0.868 2.675,-1.77 4.048,-2.598c4.855,-2.928 9.891,-5.515 15.194,-7.517c4.665,-1.761 9.339,-3.561 14.134,-4.894c6.023,-1.673 12.156,-2.964 18.274,-4.265c2.569,-0.546 5.221,-0.702 7.836,-1.019c1.529,-0.186 3.062,-0.343 4.594,-0.505c1.543,-0.162 3.088,-0.314 4.632,-0.471c-1.197,-0.135 -2.388,-0.251 -3.55,-0.114c-3.544,0.419 -7.083,0.899 -10.615,1.419c-9.24,1.359 -18.359,3.293 -27.17,6.425c-5.22,1.857 -10.355,3.973 -15.456,6.143c-4.325,1.841 -8.377,4.207 -12.045,7.178Zm77.999,-41.242c-13.965,-0.201 -36.083,3.006 -61.483,15.94c-6.447,3.283 -12.568,7.153 -18.187,11.753c24.007,-17.051 50.596,-26.582 79.67,-27.693Zm37.016,4.99c-0.161,0.156 -0.341,0.465 -0.48,0.447c-1.358,-0.174 -2.708,-0.408 -4.063,-0.61c-0.255,-0.038 -0.52,-0.007 -0.78,-0.008c0.172,0.191 0.313,0.43 0.52,0.566c1.199,0.789 2.447,1.506 3.615,2.335c3.945,2.8 6.369,6.589 7.053,11.397c0.186,1.305 0.028,2.658 0.028,4.253c2.864,-2.126 5.197,-4.336 6.539,-7.355c0.654,-1.471 0.774,-3.126 -0.294,-4.536c-2.16,-2.851 -5.425,-3.872 -8.577,-5.065c-1.209,-0.457 -2.689,-0.244 -3.561,-1.424Zm-56.761,19.057c0.183,-0.221 0.366,-0.442 0.591,-0.714c-0.262,-0.035 -0.472,-0.12 -0.644,-0.073c-0.385,0.106 -0.752,0.279 -1.127,0.425c0.406,0.11 0.812,0.22 1.219,0.33c-0.253,0.19 -0.491,0.508 -0.763,0.54c-0.516,0.062 -1.076,-0.153 -1.575,-0.048c-0.719,0.151 -1.381,0.577 -2.1,0.728c-5.543,1.155 -11.11,2.199 -16.634,3.437c-2.177,0.488 -4.287,1.32 -6.385,2.109c-3.566,1.339 -7.341,2.083 -10.771,3.809c-0.288,0.145 -0.664,0.108 -0.961,0.241c-1.119,0.501 -2.234,1.011 -3.325,1.568c-1.007,0.514 -1.958,1.142 -2.978,1.625c-0.986,0.466 -2.042,0.779 -3.045,1.212c-2.692,1.164 -4.869,3.112 -7.144,4.885c-1.257,0.98 -2.317,2.229 -3.388,3.427c-0.563,0.628 -0.988,1.389 -1.419,2.124c-0.465,0.794 -0.067,1.212 0.728,1.303c2.338,0.267 4.68,0.714 7.021,0.716c10.99,0.004 21.845,-1.55 32.679,-3.178c6.06,-0.911 12.09,-2.031 18.114,-3.165c9.964,-1.876 19.852,-4.099 29.593,-6.944c6.855,-2.002 13.634,-4.223 20.242,-6.951c0.84,-0.347 0.753,-0.663 0.257,-1.211c-1.649,-1.825 -3.806,-2.982 -6.011,-3.768c-2.832,-1.009 -5.859,-1.468 -8.796,-2.192c-0.21,-0.052 -0.346,-0.361 -0.544,-0.514c-0.235,-0.184 -0.501,-0.329 -0.754,-0.49c-0.099,0.122 -0.2,0.243 -0.3,0.365c0.271,0.05 0.543,0.1 0.814,0.15c-0.064,0.085 -0.128,0.169 -0.193,0.254c-0.522,-0.092 -1.065,-0.321 -1.564,-0.25c-1.569,0.222 -3.074,-0.282 -4.628,-0.286c-2.646,-0.006 -5.29,-0.24 -7.934,-0.385c-0.694,-0.039 -1.387,-0.144 -2.08,-0.148c-0.622,-0.005 -1.244,0.086 -1.866,0.137c-0.462,0.039 -0.925,0.077 -1.387,0.125c-0.432,0.045 -0.982,0.299 -1.271,0.121c-0.855,-0.527 -1.635,-0.198 -2.422,0.015c-0.683,0.185 -1.312,0.482 -1.726,-0.423c-0.067,-0.146 -0.378,-0.189 -0.585,-0.25c-0.026,-0.008 -0.173,0.198 -0.148,0.245c0.416,0.803 -0.29,0.434 -0.533,0.5c-0.327,0.089 -0.669,0.127 -1.006,0.177c-0.576,0.087 -1.153,0.171 -1.73,0.246c-0.7,0.091 -1.508,-0.016 -2.074,0.306c-0.63,0.359 -0.985,0.119 -1.447,-0.13Zm-44.386,0.409c-1.176,0.529 -2.396,0.982 -3.524,1.601c-5.16,2.836 -9.886,6.292 -14.082,10.419c-1.455,1.432 -2.565,3.213 -3.856,4.816c-1.57,1.947 -2.445,4.176 -2.566,6.654c-0.036,0.723 0.13,1.653 0.575,2.164c1.017,1.167 2.418,1.839 4.062,2.253c-1.121,-2.049 -1.594,-4.089 -0.421,-6.07c0.814,-1.377 1.829,-2.691 2.978,-3.803c3.499,-3.386 7.703,-5.766 11.982,-7.997c6.713,-3.501 13.759,-6.191 20.969,-8.462c9.344,-2.942 18.872,-5.041 28.618,-6.078c3.374,-0.359 6.759,-0.634 10.145,-0.86c6.889,-0.458 13.755,-0.153 20.579,0.88c3.71,0.561 7.362,1.325 10.891,2.725c3.59,1.424 6.848,3.12 8.603,6.8c0.214,0.447 0.46,0.6 0.948,0.345c1.166,-0.609 2.372,-1.139 3.524,-1.771c0.938,-0.516 2.018,-0.961 2.687,-1.739c1.494,-1.735 2.433,-3.799 2.572,-6.147c0.108,-1.834 -0.191,-3.673 -1.252,-5.117c-1.27,-1.731 -2.593,-3.577 -4.617,-4.502c-0.978,-0.447 -1.363,-1.778 -2.665,-1.649c-0.106,0.01 -0.238,-0.331 -0.372,-0.498c-0.412,-0.517 -1.293,-0.327 -1.576,-1.043c-0.059,0.028 -0.117,0.073 -0.18,0.083c-0.276,0.043 -0.59,0.18 -0.825,0.098c-2.833,-0.984 -5.637,-2.043 -8.593,-2.641c-2.71,-0.548 -5.403,-0.867 -8.192,-0.69c-1.733,0.11 -3.493,0.69 -5.272,0.046c-0.342,-0.123 -0.87,0.397 -1.333,0.454c-3.045,0.378 -6.09,0.786 -9.147,1.037c-2.977,0.244 -5.839,1.381 -8.908,1.024c-0.703,-0.082 -1.644,-0.087 -2.316,0.747c-0.3,0.373 -1.152,-0.12 -1.854,0.24c-0.749,0.384 -1.764,0.247 -2.663,0.34c-0.031,0.003 -0.057,0.039 -0.089,0.047c-1.977,0.469 -3.885,1.198 -5.82,1.75c-7.331,2.092 -14.631,4.248 -21.75,6.988c-1.604,0.617 -3.174,1.343 -4.813,1.842c-2.19,0.667 -4.438,1.098 -6.364,2.489c-0.72,0.52 -1.683,0.694 -2.519,1.063c-0.324,0.144 -0.602,0.389 -0.902,0.588c-0.887,0.525 -1.774,1.05 -2.662,1.574Zm65.462,26.422c-0.27,0.169 -0.52,0.424 -0.813,0.494c-5.042,1.215 -10.056,2.579 -15.143,3.561c-6.48,1.251 -13.017,2.214 -19.538,3.246c-1.652,0.261 -3.341,0.281 -5.006,0.474c-1.052,0.122 -2.083,0.422 -3.135,0.531c-2.742,0.284 -5.49,0.523 -8.238,0.74c-0.479,0.038 -0.975,-0.183 -1.46,-0.169c-0.296,0.008 -0.584,0.338 -0.881,0.347c-2.579,0.08 -5.161,0.182 -7.74,0.154c-3.508,-0.038 -7.029,-0.014 -10.517,-0.323c-5.321,-0.472 -10.599,-1.312 -15.135,-4.474c-2.971,-2.071 -5.551,-4.444 -6.05,-8.373c-0.36,-2.84 0.388,-5.379 1.883,-7.697c1.128,-1.751 2.503,-3.341 3.726,-5.033c0.339,-0.468 0.486,-1.072 0.803,-1.561c0.49,-0.757 0.957,-1.567 1.598,-2.182c3.613,-3.472 7.634,-6.434 11.861,-9.097c3.129,-1.972 6.303,-3.893 9.573,-5.616c10.455,-5.51 21.314,-10.014 32.818,-12.854c7.687,-1.897 15.464,-3.339 23.365,-3.816c4.769,-0.289 9.57,-0.08 14.357,-0.059c3.877,0.018 7.753,0.092 11.629,0.136c7.106,0.081 14.125,0.844 20.945,2.929c3.41,1.042 6.603,2.536 9.149,5.166c2.927,3.024 3.862,8.401 1.972,12.174c-1.538,3.069 -3.746,5.593 -6.576,7.558c-1.484,1.03 -3.023,1.997 -4.403,3.154c-1.177,0.986 -2.087,2.288 -3.247,3.297c-1.813,1.577 -3.768,2.991 -5.599,4.548c-0.587,0.499 -0.936,1.268 -1.461,1.853c-1.426,1.588 -2.73,3.34 -4.372,4.667c-2.52,2.033 -5.255,3.805 -7.951,5.609c-1.441,0.964 -2.991,1.763 -4.492,2.636c-1.089,0.063 -2.017,0.442 -2.663,1.369c-1.749,0.793 -3.496,1.59 -5.248,2.374c-0.377,0.169 -0.776,0.29 -1.16,0.43c-1.407,0.56 -2.817,1.123 -4.228,1.687c-0.466,0.313 -0.893,0.729 -1.404,0.925c-10.278,3.924 -20.763,7.189 -31.466,9.736c-6.743,1.605 -13.461,3.342 -20.255,4.69c-5.96,1.182 -12.009,1.919 -18.024,2.816c-0.961,0.143 -1.952,0.076 -2.927,0.143c-1.123,0.075 -2.085,-0.26 -2.91,-1.021c-0.095,-0.088 -0.212,-0.157 -0.329,-0.217c-0.307,-0.159 -0.621,-0.309 -0.932,-0.461c0.272,-0.2 0.544,-0.4 0.849,-0.624c-0.075,-0.062 -0.135,-0.134 -0.211,-0.173c-0.3,-0.152 -0.605,-0.294 -0.909,-0.44c0.346,-0.209 0.68,-0.579 1.037,-0.603c12.046,-0.823 23.639,-3.981 35.268,-6.905c13.601,-3.421 27.023,-7.458 40.104,-12.558c3.012,-1.174 5.99,-2.446 8.937,-3.776c2.152,-0.971 4.228,-2.111 6.254,-3.387c-1.059,0.358 -2.112,0.734 -3.178,1.071c-2.245,0.711 -4.5,1.391 -6.742,2.111c-0.302,0.097 -0.552,0.354 -0.825,0.537c-0.32,0.085 -0.64,0.171 -0.96,0.256Z"/></clipPath>
    <g clip-path="url(#_clip1)"><rect x="-3.75" y="-3.75" width="152.25" height="85.5"/></g>
</svg>