<svg fill="currentColor" viewBox="0 0 145 78" xmlns="http://www.w3.org/2000/svg" xml:space="preserve" style="fill-rule:evenodd;clip-rule:evenodd;stroke-linejoin:round;stroke-miterlimit:2"><clipPath id="_clip1"><path d="m55.423 67.332.082.31 1.711-.514-.06-.225-1.733.429Zm64.354-65.468.013-.246-9.245-.462-.014.296 9.246.412Zm-50.38 51.252c13.24-2.118 26.264-5.067 38.723-10.181-12.655 4.362-25.577 7.704-38.723 10.181Zm-4.303-4.45.062.262c3.034-.564 6.075-1.093 9.101-1.7 7.989-1.6 15.958-3.304 23.785-5.593 3.168-.927 6.306-1.957 9.445-2.981 1.593-.52 3.156-1.133 4.733-1.701.606-.219 1.215-.431 1.822-.646l-.108-.322C98.04 41.7 81.687 45.642 65.094 48.666Zm42.625-.207-.176-.279c-1.213.654-2.399 1.364-3.643 1.951-2.875 1.357-5.752 2.719-8.678 3.959-3.477 1.473-6.999 2.845-10.525 4.199-.546.21-1.175.833-1.848.146-.016-.017-.231.162-.352.25-.388.279-.737.683-1.17.819-6.626 2.088-13.264 4.143-19.9 6.199-.969.3-1.948.568-2.923.85.568.078 1.093-.009 1.598-.162a6291.851 6291.851 0 0 0 21.179-6.432c.698-.214 1.01-.163.909.669-.034.275.156.577.243.866.154-.26.333-.509.457-.783.28-.622.146-1.376 1.09-1.72a280.14 280.14 0 0 0 10.647-4.118c2.328-.956 4.59-2.074 6.876-3.134 1.488-.689 2.978-1.377 4.44-2.118.627-.318 1.186-.77 1.776-1.162Zm-93.304-6.295.124.218c1.348-.868 2.675-1.77 4.048-2.598 4.855-2.928 9.891-5.515 15.194-7.517 4.665-1.761 9.339-3.561 14.134-4.894 6.023-1.673 12.156-2.964 18.274-4.265 2.569-.546 5.221-.702 7.836-1.019 1.529-.186 3.062-.343 4.594-.505 1.543-.162 3.088-.314 4.632-.471-1.197-.135-2.388-.251-3.55-.114-3.544.419-7.083.899-10.615 1.419-9.24 1.359-18.359 3.293-27.17 6.425-5.22 1.857-10.355 3.973-15.456 6.143-4.325 1.841-8.377 4.207-12.045 7.178ZM92.414.922C78.449.721 56.331 3.928 30.931 16.862c-6.447 3.283-12.568 7.153-18.187 11.753C36.751 11.564 63.34 2.033 92.414.922Zm37.016 4.99c-.161.156-.341.465-.48.447-1.358-.174-2.708-.408-4.063-.61-.255-.038-.52-.007-.78-.008.172.191.313.43.52.566 1.199.789 2.447 1.506 3.615 2.335 3.945 2.8 6.369 6.589 7.053 11.397.186 1.305.028 2.658.028 4.253 2.864-2.126 5.197-4.336 6.539-7.355.654-1.471.774-3.126-.294-4.536-2.16-2.851-5.425-3.872-8.577-5.065-1.209-.457-2.689-.244-3.561-1.424ZM72.669 24.969l.591-.714c-.262-.035-.472-.12-.644-.073-.385.106-.752.279-1.127.425l1.219.33c-.253.19-.491.508-.763.54-.516.062-1.076-.153-1.575-.048-.719.151-1.381.577-2.1.728-5.543 1.155-11.11 2.199-16.634 3.437-2.177.488-4.287 1.32-6.385 2.109-3.566 1.339-7.341 2.083-10.771 3.809-.288.145-.664.108-.961.241a71.98 71.98 0 0 0-3.325 1.568c-1.007.514-1.958 1.142-2.978 1.625-.986.466-2.042.779-3.045 1.212-2.692 1.164-4.869 3.112-7.144 4.885-1.257.98-2.317 2.229-3.388 3.427-.563.628-.988 1.389-1.419 2.124-.465.794-.067 1.212.728 1.303 2.338.267 4.68.714 7.021.716 10.99.004 21.845-1.55 32.679-3.178 6.06-.911 12.09-2.031 18.114-3.165 9.964-1.876 19.852-4.099 29.593-6.944 6.855-2.002 13.634-4.223 20.242-6.951.84-.347.753-.663.257-1.211-1.649-1.825-3.806-2.982-6.011-3.768-2.832-1.009-5.859-1.468-8.796-2.192-.21-.052-.346-.361-.544-.514-.235-.184-.501-.329-.754-.49l-.3.365.814.15-.193.254c-.522-.092-1.065-.321-1.564-.25-1.569.222-3.074-.282-4.628-.286-2.646-.006-5.29-.24-7.934-.385-.694-.039-1.387-.144-2.08-.148-.622-.005-1.244.086-1.866.137-.462.039-.925.077-1.387.125-.432.045-.982.299-1.271.121-.855-.527-1.635-.198-2.422.015-.683.185-1.312.482-1.726-.423-.067-.146-.378-.189-.585-.25-.026-.008-.173.198-.148.245.416.803-.29.434-.533.5-.327.089-.669.127-1.006.177a84.67 84.67 0 0 1-1.73.246c-.7.091-1.508-.016-2.074.306-.63.359-.985.119-1.447-.13Zm-44.386.409c-1.176.529-2.396.982-3.524 1.601-5.16 2.836-9.886 6.292-14.082 10.419-1.455 1.432-2.565 3.213-3.856 4.816-1.57 1.947-2.445 4.176-2.566 6.654-.036.723.13 1.653.575 2.164 1.017 1.167 2.418 1.839 4.062 2.253-1.121-2.049-1.594-4.089-.421-6.07a18.288 18.288 0 0 1 2.978-3.803c3.499-3.386 7.703-5.766 11.982-7.997 6.713-3.501 13.759-6.191 20.969-8.462 9.344-2.942 18.872-5.041 28.618-6.078 3.374-.359 6.759-.634 10.145-.86a95.041 95.041 0 0 1 20.579.88c3.71.561 7.362 1.325 10.891 2.725 3.59 1.424 6.848 3.12 8.603 6.8.214.447.46.6.948.345 1.166-.609 2.372-1.139 3.524-1.771.938-.516 2.018-.961 2.687-1.739 1.494-1.735 2.433-3.799 2.572-6.147.108-1.834-.191-3.673-1.252-5.117-1.27-1.731-2.593-3.577-4.617-4.502-.978-.447-1.363-1.778-2.665-1.649-.106.01-.238-.331-.372-.498-.412-.517-1.293-.327-1.576-1.043-.059.028-.117.073-.18.083-.276.043-.59.18-.825.098-2.833-.984-5.637-2.043-8.593-2.641-2.71-.548-5.403-.867-8.192-.69-1.733.11-3.493.69-5.272.046-.342-.123-.87.397-1.333.454-3.045.378-6.09.786-9.147 1.037-2.977.244-5.839 1.381-8.908 1.024-.703-.082-1.644-.087-2.316.747-.3.373-1.152-.12-1.854.24-.749.384-1.764.247-2.663.34-.031.003-.057.039-.089.047-1.977.469-3.885 1.198-5.82 1.75-7.331 2.092-14.631 4.248-21.75 6.988-1.604.617-3.174 1.343-4.813 1.842-2.19.667-4.438 1.098-6.364 2.489-.72.52-1.683.694-2.519 1.063-.324.144-.602.389-.902.588l-2.662 1.574ZM93.745 51.8c-.27.169-.52.424-.813.494-5.042 1.215-10.056 2.579-15.143 3.561-6.48 1.251-13.017 2.214-19.538 3.246-1.652.261-3.341.281-5.006.474-1.052.122-2.083.422-3.135.531-2.742.284-5.49.523-8.238.74-.479.038-.975-.183-1.46-.169-.296.008-.584.338-.881.347-2.579.08-5.161.182-7.74.154-3.508-.038-7.029-.014-10.517-.323-5.321-.472-10.599-1.312-15.135-4.474C3.168 54.31.588 51.937.089 48.008c-.36-2.84.388-5.379 1.883-7.697C3.1 38.56 4.475 36.97 5.698 35.278c.339-.468.486-1.072.803-1.561.49-.757.957-1.567 1.598-2.182 3.613-3.472 7.634-6.434 11.861-9.097 3.129-1.972 6.303-3.893 9.573-5.616 10.455-5.51 21.314-10.014 32.818-12.854C70.038 2.071 77.815.629 85.716.152c4.769-.289 9.57-.08 14.357-.059 3.877.018 7.753.092 11.629.136 7.106.081 14.125.844 20.945 2.929 3.41 1.042 6.603 2.536 9.149 5.166 2.927 3.024 3.862 8.401 1.972 12.174-1.538 3.069-3.746 5.593-6.576 7.558-1.484 1.03-3.023 1.997-4.403 3.154-1.177.986-2.087 2.288-3.247 3.297-1.813 1.577-3.768 2.991-5.599 4.548-.587.499-.936 1.268-1.461 1.853-1.426 1.588-2.73 3.34-4.372 4.667-2.52 2.033-5.255 3.805-7.951 5.609-1.441.964-2.991 1.763-4.492 2.636-1.089.063-2.017.442-2.663 1.369-1.749.793-3.496 1.59-5.248 2.374-.377.169-.776.29-1.16.43-1.407.56-2.817 1.123-4.228 1.687-.466.313-.893.729-1.404.925-10.278 3.924-20.763 7.189-31.466 9.736-6.743 1.605-13.461 3.342-20.255 4.69-5.96 1.182-12.009 1.919-18.024 2.816-.961.143-1.952.076-2.927.143-1.123.075-2.085-.26-2.91-1.021a1.466 1.466 0 0 0-.329-.217c-.307-.159-.621-.309-.932-.461l.849-.624c-.075-.062-.135-.134-.211-.173-.3-.152-.605-.294-.909-.44.346-.209.68-.579 1.037-.603 12.046-.823 23.639-3.981 35.268-6.905 13.601-3.421 27.023-7.458 40.104-12.558a185.691 185.691 0 0 0 8.937-3.776 51.437 51.437 0 0 0 6.254-3.387c-1.059.358-2.112.734-3.178 1.071-2.245.711-4.5 1.391-6.742 2.111-.302.097-.552.354-.825.537l-.96.256Z"/></clipPath><g clip-path="url(#_clip1)"><path d="M-3.75-3.75H148.5v85.5H-3.75z"/></g></svg>