<svg xmlns="http://www.w3.org/2000/svg" fill="currentColor" viewBox="0 0 1303 346.69">
    <g class="cls-2">
        <path class="cls-3"
              d="M388.64,317.2q13.55,0,23.09-6.06A37.65,37.65,0,0,0,426,295a52.52,52.52,0,0,0,0-43.52,37.79,37.79,0,0,0-14.27-16.12q-9.54-6-23.09-6H373a2.21,2.21,0,0,0-2.2,2.2V315a2.2,2.2,0,0,0,2.2,2.2ZM337.52,203.62a2.2,2.2,0,0,1,2.21-2.2h52q22.36,0,39,9.75a66.48,66.48,0,0,1,25.46,26.07,78.13,78.13,0,0,1,0,72.16,65.66,65.66,0,0,1-25.46,26.08q-16.62,9.64-39,9.64h-52a2.2,2.2,0,0,1-2.21-2.2Z"
              transform="translate(0 -76.15)"/>
        <path class="cls-3"
              d="M605.88,335.78q-14.26-12.79-15-35.38a2.21,2.21,0,0,1,2.21-2.29H622a2.2,2.2,0,0,1,2.2,2.08q.51,10.21,6.21,16.19,6.26,6.57,17.14,6.57,9.23,0,14.27-4.11t5-11.7q0-6.57-3.79-10.57t-13.65-7.9l-25.87-10.06q-14.37-5.34-21.76-15.29t-7.39-23.92a39.27,39.27,0,0,1,6.26-22.07,40.79,40.79,0,0,1,17.86-14.78q11.6-5.24,27-5.24,15.62,0,27.52,5.65a43.52,43.52,0,0,1,18.47,15.91,42.85,42.85,0,0,1,6.52,21.7,2.21,2.21,0,0,1-2.2,2.32H666.94a2.21,2.21,0,0,1-2.2-2.08q-.48-8.55-5.07-13.32-5.13-5.34-14.78-5.33c-5.34,0-9.54,1.26-12.63,3.79a12.71,12.71,0,0,0-4.61,10.37,13.37,13.37,0,0,0,4.51,10.16q4.51,4.22,15.19,8.52l23.82,9.44q14.77,5.76,21.86,15.81t7.08,24.64a41.84,41.84,0,0,1-6.57,23.4,42.6,42.6,0,0,1-18.47,15.5q-11.91,5.43-27.72,5.44-26.48,0-41.47-13.45"
              transform="translate(0 -76.15)"/>
        <path class="cls-3"
              d="M848.17,199.22H877a2.19,2.19,0,0,1,2.2,2.2V313.36a2.21,2.21,0,0,0,2.21,2.2h49a2.21,2.21,0,0,1,2.21,2.2v25.16a2.2,2.2,0,0,1-2.21,2.2H848.17a2.19,2.19,0,0,1-2.2-2.2V201.42a2.19,2.19,0,0,1,2.2-2.2"
              transform="translate(0 -76.15)"/>
        <path class="cls-3"
              d="M1087.13,201.42h30.56a2.22,2.22,0,0,1,1.94,1.16l45.11,84.11a2.21,2.21,0,0,0,4.15-1.05v-82a2.21,2.21,0,0,1,2.2-2.2h27.41a2.2,2.2,0,0,1,2.21,2.2v139.3a2.2,2.2,0,0,1-2.21,2.2H1168A2.21,2.21,0,0,1,1166,344l-45.12-84.11a2.2,2.2,0,0,0-4.14,1v82a2.21,2.21,0,0,1-2.21,2.2h-27.41a2.2,2.2,0,0,1-2.2-2.2V203.62a2.2,2.2,0,0,1,2.2-2.2"
              transform="translate(0 -76.15)"/>
        <path class="cls-3"
              d="M1217.34,201.42h83.45a2.21,2.21,0,0,1,2.21,2.2V225.9a2.21,2.21,0,0,1-2.21,2.21H1250.6a2.21,2.21,0,0,0-2.21,2.2v28.23a2.21,2.21,0,0,0,2.21,2.21h50.19A2.2,2.2,0,0,1,1303,263v21.67a2.2,2.2,0,0,1-2.21,2.2H1250.6a2.21,2.21,0,0,0-2.21,2.2v27.21a2.2,2.2,0,0,0,2.21,2.2h50.19a2.21,2.21,0,0,1,2.21,2.21v22.28a2.21,2.21,0,0,1-2.21,2.2h-83.45a2.2,2.2,0,0,1-2.2-2.2V203.62a2.2,2.2,0,0,1,2.2-2.2"
              transform="translate(0 -76.15)"/>
        <path class="cls-3"
              d="M508.42,293.45l14.2-50.18a1.62,1.62,0,0,1,3.12,0l14.2,50.18a2.12,2.12,0,0,1-2.05,2.71H510.47a2.13,2.13,0,0,1-2.05-2.71M588.94,343,541.18,202.52a1.61,1.61,0,0,0-1.53-1.1H508.51a1.6,1.6,0,0,0-1.53,1.1L459.42,343a1.62,1.62,0,0,0,1.53,2.14h31.18a2.2,2.2,0,0,0,2.12-1.6l6-21.28h47.82l6,21.28a2.21,2.21,0,0,0,2.12,1.6h31.18a1.62,1.62,0,0,0,1.53-2.14"
              transform="translate(0 -76.15)"/>
        <path class="cls-3"
              d="M991.6,293.45l14.2-50.18a1.62,1.62,0,0,1,3.12,0l14.21,50.18a2.14,2.14,0,0,1-2.06,2.71H993.65a2.13,2.13,0,0,1-2-2.71M1072.12,343l-47.76-140.46a1.6,1.6,0,0,0-1.53-1.1H991.69a1.6,1.6,0,0,0-1.53,1.1L942.6,343a1.62,1.62,0,0,0,1.54,2.14h31.17a2.21,2.21,0,0,0,2.13-1.6l6-21.28h47.81l6,21.28a2.21,2.21,0,0,0,2.12,1.6h31.18a1.62,1.62,0,0,0,1.53-2.14"
              transform="translate(0 -76.15)"/>
        <path class="cls-3"
              d="M828.6,201.42H799.75a2.2,2.2,0,0,0-2.2,2.2v53.69a2.21,2.21,0,0,1-2.21,2.21H750.07a2.2,2.2,0,0,1-2.2-2.21V202.52a2.21,2.21,0,0,0-2.21-2.2H716.81a2.21,2.21,0,0,0-2.2,2.2v140.4a2.21,2.21,0,0,0,2.2,2.2h28.85a2.21,2.21,0,0,0,2.21-2.2V290.25a2.2,2.2,0,0,1,2.2-2.2h45.27a2.21,2.21,0,0,1,2.21,2.2v52.67a2.2,2.2,0,0,0,2.2,2.2H828.6a2.2,2.2,0,0,0,2.2-2.2V203.62a2.2,2.2,0,0,0-2.2-2.2"
              transform="translate(0 -76.15)"/>
        <path class="cls-3"
              d="M139.63,218.31l36.45,13.38c5.89,2.08,13.06-.7,13.06-5.06V134.29c0-2.11-1.77-4-4.62-5l-36.45-13.38c-5.89-2.08-13.06.69-13.06,5v92.34c0,2.11,1.78,4.05,4.62,5.06"
              transform="translate(0 -76.15)"/>
        <path class="cls-3"
              d="M139.63,384.07l36.45,13.38c5.89,2.08,13.06-.69,13.06-5.05V300.06c0-2.11-1.77-4.05-4.62-5.06l-36.45-13.38c-5.89-2.08-13.06.7-13.06,5.06V379c0,2.11,1.78,4.05,4.62,5.05"
              transform="translate(0 -76.15)"/>
        <path class="cls-3"
              d="M72.13,187.43l36.45,13.38c5.89,2.08,13-.7,13-5.06V95.29c0-2.11-1.77-4.05-4.62-5.06L80.57,76.86c-5.9-2.08-13.06.69-13.06,5V182.37c0,2.11,1.77,4.06,4.62,5.06"
              transform="translate(0 -76.15)"/>
        <path class="cls-3"
              d="M72.13,408.76l36.45,13.38c5.89,2.08,13-.69,13-5.06V316.88c0-2.11-1.77-4.05-4.62-5.06L80.57,298.45c-5.9-2.08-13.06.69-13.06,5.05V403.7c0,2.11,1.77,4.05,4.62,5.06"
              transform="translate(0 -76.15)"/>
        <path class="cls-3"
              d="M54.13,99.06c0-2.11-1.78-4-4.63-5.06L13.06,80.62C7.17,78.54,0,81.32,0,85.68V399.94C0,402.05,1.77,404,4.62,405l36.45,13.39c5.89,2.07,13.06-.7,13.06-5.06Z"
              transform="translate(0 -76.15)"/>
        <path class="cls-3"
              d="M252,182.49l-36.45-13.38c-5.89-2.08-13,.7-13,5.06V325.83c0,2.11,1.77,4.05,4.62,5.05l36.45,13.38c5.89,2.08,13.06-.69,13.06-5.05V187.55c0-2.11-1.78-4.05-4.63-5.06"
              transform="translate(0 -76.15)"/>
    </g>
</svg>