<svg fill="currentColor" viewBox="0 0 185 94" version="1.1"
     xmlns="http://www.w3.org/2000/svg"
     xml:space="preserve"
     style="fill-rule:evenodd;clip-rule:evenodd;stroke-linejoin:round;stroke-miterlimit:2;">
    <g id="Layer" transform="matrix(1,0,0,1,-31.09,-28.4)">
        <g transform="matrix(4.65116,0,0,6.11111,-139.442,-621.556)">
            <g transform="matrix(6.45,0,0,4.90909,36,116.682)">
                <path d="M0.103,-0L0.245,-0L0.245,-0.502L0.401,-0.24L0.501,-0.24L0.657,-0.502L0.657,-0L0.799,-0L0.799,-0.7L0.622,-0.7L0.451,-0.406L0.28,-0.7L0.103,-0.7L0.103,-0Z"
                      style="fill-rule:nonzero;"/>
            </g>
            <g transform="matrix(6.45,0,0,4.90909,41.8115,116.682)">
                <rect x="0.103" y="-0.7" width="0.142" height="0.7" style="fill-rule:nonzero;"/>
            </g>
            <g transform="matrix(6.45,0,0,4.90909,44.0561,116.682)">
                <path d="M0.103,-0L0.245,-0L0.245,-0.506L0.558,-0L0.74,-0L0.74,-0.7L0.598,-0.7L0.598,-0.194L0.285,-0.7L0.103,-0.7L0.103,-0Z"
                      style="fill-rule:nonzero;"/>
            </g>
            <g transform="matrix(6.45,0,0,4.90909,49.4934,116.682)">
                <rect x="0.103" y="-0.7" width="0.142" height="0.7" style="fill-rule:nonzero;"/>
            </g>
            <g transform="matrix(6.45,0,0,4.90909,51.738,116.682)">
                <path d="M0.04,-0.097C0.102,-0.023 0.181,0.02 0.299,0.02C0.428,0.02 0.53,-0.059 0.532,-0.191C0.532,-0.431 0.214,-0.395 0.214,-0.522C0.214,-0.564 0.247,-0.596 0.297,-0.596C0.35,-0.596 0.396,-0.561 0.437,-0.508L0.541,-0.602C0.481,-0.673 0.401,-0.72 0.296,-0.72C0.162,-0.72 0.07,-0.628 0.07,-0.517C0.07,-0.28 0.388,-0.315 0.388,-0.186C0.388,-0.136 0.354,-0.106 0.298,-0.106C0.241,-0.106 0.185,-0.138 0.143,-0.192L0.04,-0.097Z"
                      style="fill-rule:nonzero;"/>
            </g>
            <g transform="matrix(6.45,0,0,4.90909,55.4984,116.682)">
                <path d="M0.031,-0.571L0.247,-0.571L0.247,-0L0.389,-0L0.389,-0.571L0.605,-0.571L0.605,-0.7L0.031,-0.7L0.031,-0.571Z"
                      style="fill-rule:nonzero;"/>
            </g>
            <g transform="matrix(6.45,0,0,4.90909,59.607,116.682)">
                <path d="M0.244,-0.76L0.374,-0.76L0.261,-0.895L0.115,-0.895L0.244,-0.76ZM0.103,-0L0.511,-0L0.511,-0.118L0.245,-0.118L0.245,-0.298L0.471,-0.298L0.471,-0.416L0.245,-0.416L0.245,-0.582L0.511,-0.582L0.511,-0.7L0.103,-0.7L0.103,-0Z"
                      style="fill-rule:nonzero;"/>
            </g>
            <g transform="matrix(6.45,0,0,4.90909,63.3674,116.682)">
                <path d="M0.103,-0L0.245,-0L0.245,-0.283L0.318,-0.283L0.505,-0L0.672,-0L0.453,-0.31C0.525,-0.343 0.566,-0.406 0.566,-0.491C0.566,-0.621 0.471,-0.7 0.317,-0.7L0.103,-0.7L0.103,-0ZM0.325,-0.582C0.385,-0.582 0.42,-0.546 0.42,-0.493C0.42,-0.436 0.385,-0.401 0.325,-0.401L0.245,-0.401L0.245,-0.582L0.325,-0.582Z"
                      style="fill-rule:nonzero;"/>
            </g>
            <g transform="matrix(6.45,0,0,4.90909,67.6824,116.682)">
                <path d="M0.103,-0L0.511,-0L0.511,-0.118L0.245,-0.118L0.245,-0.298L0.471,-0.298L0.471,-0.416L0.245,-0.416L0.245,-0.582L0.511,-0.582L0.511,-0.7L0.103,-0.7L0.103,-0Z"
                      style="fill-rule:nonzero;"/>
            </g>
            <g transform="matrix(6.45,0,0,4.90909,36,121.591)">
                <path d="M0.103,-0L0.378,-0C0.6,-0 0.75,-0.161 0.75,-0.35C0.75,-0.539 0.6,-0.7 0.378,-0.7L0.103,-0.7L0.103,-0ZM0.38,-0.571C0.51,-0.571 0.604,-0.475 0.604,-0.35C0.604,-0.226 0.51,-0.129 0.38,-0.129L0.245,-0.129L0.245,-0.571L0.38,-0.571Z"
                      style="fill-rule:nonzero;"/>
            </g>
            <g transform="matrix(6.45,0,0,4.90909,41.1213,121.591)">
                <path d="M0.103,-0L0.511,-0L0.511,-0.118L0.245,-0.118L0.245,-0.298L0.471,-0.298L0.471,-0.416L0.245,-0.416L0.245,-0.582L0.511,-0.582L0.511,-0.7L0.103,-0.7L0.103,-0Z"
                      style="fill-rule:nonzero;"/>
            </g>
            <g transform="matrix(6.45,0,0,4.90909,44.8817,121.591)">
                <path d="M0.04,-0.097C0.102,-0.023 0.181,0.02 0.299,0.02C0.428,0.02 0.53,-0.059 0.532,-0.191C0.532,-0.431 0.214,-0.395 0.214,-0.522C0.214,-0.564 0.247,-0.596 0.297,-0.596C0.35,-0.596 0.396,-0.561 0.437,-0.508L0.541,-0.602C0.481,-0.673 0.401,-0.72 0.296,-0.72C0.162,-0.72 0.07,-0.628 0.07,-0.517C0.07,-0.28 0.388,-0.315 0.388,-0.186C0.388,-0.136 0.354,-0.106 0.298,-0.106C0.241,-0.106 0.185,-0.138 0.143,-0.192L0.04,-0.097Z"
                      style="fill-rule:nonzero;"/>
            </g>
            <g transform="matrix(6.45,0,0,4.90909,50.4158,121.591)">
                <path d="M0.015,-0L0.166,-0L0.233,-0.182L0.513,-0.182L0.58,-0L0.731,-0L0.466,-0.7L0.28,-0.7L0.015,-0ZM0.277,-0.303L0.373,-0.566L0.469,-0.303L0.277,-0.303Z"
                      style="fill-rule:nonzero;"/>
            </g>
            <g transform="matrix(6.45,0,0,4.90909,55.2275,121.591)">
                <path d="M0.103,-0L0.245,-0L0.245,-0.283L0.318,-0.283L0.505,-0L0.672,-0L0.453,-0.31C0.525,-0.343 0.566,-0.406 0.566,-0.491C0.566,-0.621 0.471,-0.7 0.317,-0.7L0.103,-0.7L0.103,-0ZM0.325,-0.582C0.385,-0.582 0.42,-0.546 0.42,-0.493C0.42,-0.436 0.385,-0.401 0.325,-0.401L0.245,-0.401L0.245,-0.582L0.325,-0.582Z"
                      style="fill-rule:nonzero;"/>
            </g>
            <g transform="matrix(6.45,0,0,4.90909,59.5425,121.591)">
                <path d="M0.103,-0L0.245,-0L0.245,-0.502L0.401,-0.24L0.501,-0.24L0.657,-0.502L0.657,-0L0.799,-0L0.799,-0.7L0.622,-0.7L0.451,-0.406L0.28,-0.7L0.103,-0.7L0.103,-0Z"
                      style="fill-rule:nonzero;"/>
            </g>
            <g transform="matrix(6.45,0,0,4.90909,65.3539,121.591)">
                <path d="M0.37,-0.76L0.5,-0.895L0.354,-0.895L0.241,-0.76L0.37,-0.76ZM0.103,-0L0.511,-0L0.511,-0.118L0.245,-0.118L0.245,-0.298L0.471,-0.298L0.471,-0.416L0.245,-0.416L0.245,-0.582L0.511,-0.582L0.511,-0.7L0.103,-0.7L0.103,-0Z"
                      style="fill-rule:nonzero;"/>
            </g>
            <g transform="matrix(6.45,0,0,4.90909,69.1143,121.591)">
                <path d="M0.103,-0L0.511,-0L0.511,-0.118L0.245,-0.118L0.245,-0.298L0.471,-0.298L0.471,-0.416L0.245,-0.416L0.245,-0.582L0.511,-0.582L0.511,-0.7L0.103,-0.7L0.103,-0Z"
                      style="fill-rule:nonzero;"/>
            </g>
            <g transform="matrix(6.45,0,0,4.90909,72.8747,121.591)">
                <path d="M0.04,-0.097C0.102,-0.023 0.181,0.02 0.299,0.02C0.428,0.02 0.53,-0.059 0.532,-0.191C0.532,-0.431 0.214,-0.395 0.214,-0.522C0.214,-0.564 0.247,-0.596 0.297,-0.596C0.35,-0.596 0.396,-0.561 0.437,-0.508L0.541,-0.602C0.481,-0.673 0.401,-0.72 0.296,-0.72C0.162,-0.72 0.07,-0.628 0.07,-0.517C0.07,-0.28 0.388,-0.315 0.388,-0.186C0.388,-0.136 0.354,-0.106 0.298,-0.106C0.241,-0.106 0.185,-0.138 0.143,-0.192L0.04,-0.097Z"
                      style="fill-rule:nonzero;"/>
            </g>
        </g>
        <g id="Marianne" transform="matrix(1,0,0,1,-0.31,0)">
            <path id="White"
                  d="M63.6,53.4C63.9,53.1 64.2,52.8 64.5,52.4C65.1,51.8 65.6,51.1 66.3,50.6C66.5,50.4 66.7,50.3 66.9,50.1C67,50 67,49.9 67,49.9C66.7,50 66.6,50.2 66.3,50.3C66.2,50.3 66.2,50.2 66.2,50.2C66.4,50.1 66.6,49.9 66.8,49.8C66.7,49.8 66.7,49.7 66.7,49.7C66,49.6 65.5,50.1 65,50.5C64.9,50.6 64.8,50.4 64.7,50.4C63.9,50.7 63.3,51.4 62.5,51.7L62.5,51.6C62.2,51.7 61.9,51.9 61.5,52C61,52.1 60.6,52.1 60.2,52.1C59.6,52.2 58.9,52.3 58.3,52.4L58.2,52.4C57.9,52.5 57.5,52.6 57.2,52.8L57.1,52.9C57,53 56.9,53.1 56.7,53.2C56.4,53.4 56.1,53.7 55.8,53.9L55.7,53.9C55.4,54.2 55.1,54.5 54.8,54.7L54.6,54.7L54.6,54.6C54.6,54.5 54.7,54.4 54.7,54.4C54.8,54.3 54.8,54.2 54.9,54.2C55,54.1 55,54 55.1,53.9L55.1,53.8L55,53.8C55.3,53.5 55.6,53.3 55.9,53.1C55.9,53.1 55.8,53.1 55.8,53L55.9,52.9C55.8,53 55.7,53 55.6,53.1C55.5,53.2 55.4,53.5 55.2,53.4L55,53.4L55,53.3C55,53.3 55,53.2 55.1,53.2L55.1,53.1C55.1,53.1 55.1,53 55.2,53L55.2,52.9C55.3,52.8 55.4,52.7 55.6,52.6C55.8,52.5 56,52.4 56.2,52.3L56.3,52.2C56,52.3 55.7,52.4 55.4,52.6L55.2,52.6C55.3,52.5 55.4,52.4 55.5,52.3C55.6,52.3 55.6,52.3 55.6,52.4C57.3,51.1 59.7,51.4 61.7,50.7C61.9,50.6 62,50.5 62.2,50.4C62.5,50.3 62.7,50 63,49.9C63.4,49.6 63.7,49.2 63.9,48.7C63.9,48.6 63.8,48.6 63.8,48.6C63.1,49.4 62.3,49.9 61.4,50.4C60.3,51 59,50.9 57.9,51C58,50.9 58.1,50.9 58.2,50.9C58.2,50.7 58.3,50.7 58.4,50.6L59,50.6C59.1,50.6 59.1,50.5 59.1,50.5C59.2,50.5 59.4,50.4 59.3,50.4C59.1,50.2 58.8,50.6 58.5,50.4C58.6,50.3 58.6,50.1 58.7,50.1L58.9,50.1C58.9,50 59,49.9 59,49.9C59.8,49.4 60.6,49 61.3,48.6C61.1,48.6 61,48.8 60.9,48.7C61,48.7 60.9,48.5 61,48.5C61.6,48.3 62.1,48 62.7,47.8C62.5,47.8 62.3,48 62.1,47.8C62.2,47.7 62.3,47.6 62.4,47.6L62.4,47.4C62.4,47.3 62.5,47.3 62.5,47.3C62.4,47.3 62.4,47.2 62.4,47.2C62.5,47.1 62.6,47.1 62.7,47C62.6,47 62.5,47 62.5,46.9C62.7,46.7 62.9,46.6 63.2,46.6C63.1,46.5 63,46.6 63,46.5C63,46.4 63.1,46.4 63.1,46.4L63,46.4C62.9,46.3 62.9,46.2 62.9,46.2C63.2,45.8 63.2,45.3 63.4,44.9C63.3,44.9 63.3,44.9 63.3,44.8C62.8,45.4 61.9,45.6 61.1,45.8L60.8,45.8C60.5,45.9 60.2,45.9 59.9,45.7C59.7,45.6 59.6,45.4 59.4,45.3C59,45 58.5,44.8 58.1,44.7C56.8,44.3 55.4,44.1 54,44.1C54.6,43.8 55.2,43.8 55.9,43.6C56.8,43.3 57.7,43 58.6,43.1C58.4,43 58.2,43.1 58.1,43.1C57.3,43 56.6,43.3 55.8,43.4C55.3,43.5 54.8,43.7 54.2,43.8C53.9,43.9 53.7,44.2 53.3,44.2L53.3,44C53.8,43.4 54.5,42.7 55.3,42.7C56.3,42.5 57.2,42.7 58.1,42.8C58.8,42.9 59.4,43 60.1,43.2C60.4,43.2 60.4,43.6 60.6,43.7C60.9,43.8 61.2,43.7 61.6,43.9C61.6,43.8 61.5,43.7 61.6,43.6C61.8,43.4 62.1,43.7 62.3,43.5C62.7,43.2 61.9,42.8 61.7,42.4C61.7,42.3 61.8,42.3 61.8,42.3C62.2,42.7 62.5,43.1 63.1,43.4C63.4,43.5 64,43.7 63.9,43.3C63.6,42.7 63.1,42.2 62.7,41.7L62.7,41.5C62.6,41.5 62.6,41.4 62.5,41.4L62.5,41.2C62.3,41.1 62.3,40.9 62.2,40.7C62,40.4 62.1,40.1 62,39.7C62.1,39.3 62,39 62,38.7C61.8,37.8 61.6,37 61.5,36.1C61.4,35.1 62.1,34.3 62.6,33.4C63,32.8 63.4,32.1 64.1,31.7C64.3,31.1 64.7,30.5 65.1,30C65.5,29.5 66.2,29.2 66.8,28.9C67.5,28.6 68.2,28.4 68.2,28.4L78.9,28.4C78.9,28.4 79,28.4 79.2,28.5C79.4,28.6 79.8,28.8 80,28.9C80.4,29.1 80.8,29.4 81,29.8C81.1,30 81.3,30.3 81.2,30.5C81.1,30.8 81,31.2 80.8,31.3C80.5,31.5 80.1,31.5 79.7,31.4C79.5,31.4 79.3,31.3 79.1,31.3C79.9,31.6 80.7,32 81.2,32.7C81.3,32.8 81.5,32.9 81.7,32.9C81.8,32.9 81.8,33 81.8,33.1C81.7,33.2 81.6,33.3 81.6,33.4L81.8,33.4C82.1,33.3 82,32.8 82.4,32.9C82.7,33.1 82.8,33.4 82.6,33.7C82.4,33.9 82.2,34.1 82,34.2C81.9,34.3 81.9,34.5 82,34.6C82.2,34.8 82.2,35 82.3,35.2C82.5,35.6 82.5,36 82.7,36.4C82.9,37.2 83.1,38 83.1,38.8C83.1,39.2 82.9,39.6 83,40C83.1,40.4 83.4,40.8 83.6,41.1C83.8,41.4 84,41.6 84.2,42C84.5,42.5 85.1,43.1 84.8,43.7C84.6,44.1 84,44 83.7,44.2C83.4,44.5 83.6,44.9 83.8,45.2C84.1,45.7 83.5,46 83.1,46.2C83.2,46.4 83.4,46.3 83.5,46.4C83.6,46.7 83.8,46.8 83.7,47.1C83.5,47.4 82.8,47.6 83.2,48.1C83.4,48.5 83.3,48.9 83.1,49.3C82.9,49.8 82.5,50 82.1,50.1C81.8,50.2 81.4,50.2 81.1,50.2C81,50.1 80.9,50.1 80.8,50.1C79.9,50 79,49.7 78.1,49.7C77.8,49.8 77.6,49.8 77.4,49.9C77.2,50.1 76.9,50.3 76.8,50.5L76.7,50.6C76.7,50.6 76.7,50.7 76.6,50.7L76.6,50.8C76.4,51 76.3,51.2 76.2,51.4L76.2,51.5C76,51.8 75.9,52.2 75.8,52.5C75.4,53.7 75.6,54.8 75.9,55C76,55.1 77.7,55.6 78.8,56.1C79.4,56.3 79.7,56.5 80.1,56.7L58.1,56.7C59.1,56 60.1,55.6 61.6,54.9C61.6,54.6 63.1,53.9 63.6,53.4M55.4,49.5C55.3,49.5 55.1,49.6 55.1,49.4C55.2,49.1 55.5,49.1 55.7,49C55.8,48.9 56,48.8 56.1,48.9C56.2,49.1 56.4,49 56.5,49.1C56.2,49.5 55.8,49.4 55.4,49.5M47.2,48.3L47.1,48.2C47.8,47.3 48.3,46.4 48.8,45.5C49.5,45.1 50.1,44.6 50.6,44C51.5,43 52.5,42.2 53.6,41.6C54,41.4 54.6,41.5 55,41.7C54.8,41.9 54.6,41.9 54.4,42C54.3,42 54.3,42 54.2,41.9C54.3,41.8 54.3,41.8 54.3,41.7C53.8,42.3 53,42.6 52.6,43.3C52.3,43.8 52.1,44.5 51.4,44.7C51.2,44.8 51.5,44.5 51.3,44.6C49.6,45.7 48.5,46.9 47.2,48.3M51.6,44.8C51.5,44.9 51.5,44.9 51.4,45C51.3,45.1 51.3,45.2 51.2,45.2C51.1,45.2 51.1,45.2 51.1,45.1C51.2,44.9 51.3,44.7 51.5,44.6C51.6,44.7 51.6,44.8 51.6,44.8M54.1,52.8C54.1,52.9 54,52.9 54,53C54.1,53 54.1,53 54.1,53.1C54,53.2 53.9,53.3 53.7,53.4L53.6,53.4C53.5,53.5 53.5,53.5 53.4,53.6C53.3,53.7 53,53.6 53.1,53.5C53.2,53.4 53.4,53.2 53.5,53.1C53.6,53 53.7,53 53.7,52.9L53.8,52.8C53.9,52.8 54.2,52.7 54.1,52.8M53.2,52.4C53.2,52.4 53.1,52.4 53.2,52.4C53,52.6 52.8,52.7 52.6,52.8C52.4,52.9 52.1,53 51.9,53.1L51.8,53.1C51.6,53.2 51.4,53.4 51.3,53.5L50.9,53.9L50.6,53.9L50.1,54.4L50.1,54.5L50.1,54.4L50.5,54C50.6,53.9 50.6,53.8 50.7,53.8L50.8,53.7C50.8,53.7 50.8,53.6 50.9,53.6C50.9,53.6 50.9,53.5 51,53.5L51,53.3C51.1,53.2 51.1,53.1 51.2,53C51.1,53 51.1,53.1 51,53.2C50.9,53.2 50.8,53.2 50.9,53.1L51.3,52.7C51.4,52.7 51.4,52.6 51.5,52.6L51.6,52.5C52.1,52 53,52 53.7,51.7C54,51.6 54.3,51.8 54.6,51.7C54.8,51.7 54.9,51.7 55.1,51.8C54,51.8 53.6,52.1 53.2,52.4M54.3,48.7C54.2,48.6 54.5,48.7 54.5,48.6L54,48.6C53.9,48.6 53.9,48.5 53.9,48.5C53.6,48.6 53.3,48.7 53,48.7C52.6,48.8 52.3,49.1 51.9,49.2C51.3,49.4 50.8,49.9 50.2,50.1C50.1,50.1 50.1,50 50.1,50C50.2,49.8 50.4,49.8 50.5,49.6C50.5,49.5 50.5,49.5 50.4,49.5C50.8,48.9 51.4,48.6 52,48.1L52,47.9C52.2,47.7 52.4,47.6 52.5,47.3C52.6,47.1 52.8,46.9 53,46.8C52.9,46.7 52.8,46.7 52.8,46.6C52.6,46.6 52.4,46.7 52.2,46.5C52.3,46.4 52.4,46.3 52.5,46.3C52.5,46.3 52.4,46.3 52.4,46.2C52.3,46.1 52.5,46 52.7,45.9C52.9,45.8 53.2,45.8 53.3,45.7C52.9,45.6 52.5,45.8 52.1,45.6C52.4,44.9 52.8,44.3 53.4,44C53.5,44 53.6,44 53.6,44.1C53.6,44.4 53.4,44.6 53.2,44.6C53.6,44.7 54.1,44.7 54.5,44.9C54.4,45 54.3,45 54.3,45C54.6,45.2 54.9,45.1 55.2,45.3C55,45.5 54.9,45.3 54.7,45.3C56.4,45.8 58.1,46.2 59.5,47.2C58.3,47.8 57.1,48.1 55.8,48.3C55.6,48.3 55.5,48.3 55.4,48.2C55.4,48.3 55.4,48.4 55.3,48.4C55.1,48.4 54.9,48.4 54.8,48.5C54.7,48.8 54.4,48.8 54.3,48.7"
                  style="fill:rgba(0, 0, 0, 0);fill-rule:nonzero;"/>
            <path id="Blue"
                  d="M63.6,53.4C63.9,53.1 64.2,52.8 64.5,52.4C65.1,51.8 65.6,51.1 66.3,50.6C66.5,50.4 66.7,50.3 66.9,50.1C67,50 67,49.9 67,49.9C66.7,50 66.6,50.2 66.3,50.3C66.2,50.3 66.2,50.2 66.2,50.2C66.4,50.1 66.6,49.9 66.8,49.8C66.7,49.8 66.7,49.7 66.7,49.7C66,49.6 65.5,50.1 65,50.5C64.9,50.6 64.8,50.4 64.7,50.4C63.9,50.7 63.3,51.4 62.5,51.7L62.5,51.6C62.2,51.7 61.9,51.9 61.5,52C61,52.1 60.6,52.1 60.2,52.1C59.6,52.2 58.9,52.3 58.3,52.4L58.2,52.4C57.9,52.5 57.5,52.6 57.2,52.8L57.1,52.9C57,53 56.9,53.1 56.7,53.2C56.4,53.4 56.1,53.7 55.8,53.9L55.7,53.9C55.4,54.2 55.1,54.5 54.8,54.7L54.6,54.7L54.6,54.6C54.6,54.5 54.7,54.4 54.7,54.4C54.8,54.3 54.8,54.2 54.9,54.2C55,54.1 55,54 55.1,53.9L55.1,53.8L55,53.8C55.3,53.5 55.6,53.3 55.9,53.1C55.9,53.1 55.8,53.1 55.8,53L55.9,52.9C55.8,53 55.7,53 55.6,53.1C55.5,53.2 55.4,53.5 55.2,53.4L55,53.4L55,53.3C55,53.3 55,53.2 55.1,53.2L55.1,53.1C55.1,53.1 55.1,53 55.2,53L55.2,52.9C55.3,52.8 55.4,52.7 55.6,52.6C55.8,52.5 56,52.4 56.2,52.3L56.3,52.2C56,52.3 55.7,52.4 55.4,52.6L55.2,52.6C55.3,52.5 55.4,52.4 55.5,52.3C55.6,52.3 55.6,52.3 55.6,52.4C57.3,51.1 59.7,51.4 61.7,50.7C61.9,50.6 62,50.5 62.2,50.4C62.5,50.3 62.7,50 63,49.9C63.4,49.6 63.7,49.2 63.9,48.7C63.9,48.6 63.8,48.6 63.8,48.6C63.1,49.4 62.3,49.9 61.4,50.4C60.3,51 59,50.9 57.9,51C58,50.9 58.1,50.9 58.2,50.9C58.2,50.7 58.3,50.7 58.4,50.6L59,50.6C59.1,50.6 59.1,50.5 59.1,50.5C59.2,50.5 59.4,50.4 59.3,50.4C59.1,50.2 58.8,50.6 58.5,50.4C58.6,50.3 58.6,50.1 58.7,50.1L58.9,50.1C58.9,50 59,49.9 59,49.9C59.8,49.4 60.6,49 61.3,48.6C61.1,48.6 61,48.8 60.9,48.7C61,48.7 60.9,48.5 61,48.5C61.6,48.3 62.1,48 62.7,47.8C62.5,47.8 62.3,48 62.1,47.8C62.2,47.7 62.3,47.6 62.4,47.6L62.4,47.4C62.4,47.3 62.5,47.3 62.5,47.3C62.4,47.3 62.4,47.2 62.4,47.2C62.5,47.1 62.6,47.1 62.7,47C62.6,47 62.5,47 62.5,46.9C62.7,46.7 62.9,46.6 63.2,46.6C63.1,46.5 63,46.6 63,46.5C63,46.4 63.1,46.4 63.1,46.4L63,46.4C62.9,46.3 62.9,46.2 62.9,46.2C63.2,45.8 63.2,45.3 63.4,44.9C63.3,44.9 63.3,44.9 63.3,44.8C62.8,45.4 61.9,45.6 61.1,45.8L60.8,45.8C60.5,45.9 60.2,45.9 59.9,45.7C59.7,45.6 59.6,45.4 59.4,45.3C59,45 58.5,44.8 58.1,44.7C56.8,44.3 55.4,44.1 54,44.1C54.6,43.8 55.2,43.8 55.9,43.6C56.8,43.3 57.7,43 58.6,43.1C58.4,43 58.2,43.1 58.1,43.1C57.3,43 56.6,43.3 55.8,43.4C55.3,43.5 54.8,43.7 54.2,43.8C53.9,43.9 53.7,44.2 53.3,44.2L53.3,44C53.8,43.4 54.5,42.7 55.3,42.7C56.3,42.5 57.2,42.7 58.1,42.8C58.8,42.9 59.4,43 60.1,43.2C60.4,43.2 60.4,43.6 60.6,43.7C60.9,43.8 61.2,43.7 61.6,43.9C61.6,43.8 61.5,43.7 61.6,43.6C61.8,43.4 62.1,43.7 62.3,43.5C62.7,43.2 61.9,42.8 61.7,42.4C61.7,42.3 61.8,42.3 61.8,42.3C62.2,42.7 62.5,43.1 63.1,43.4C63.4,43.5 64,43.7 63.9,43.3C63.6,42.7 63.1,42.2 62.7,41.7L62.7,41.5C62.6,41.5 62.6,41.4 62.5,41.4L62.5,41.2C62.3,41.1 62.3,40.9 62.2,40.7C62,40.4 62.1,40.1 62,39.7C62.1,39.3 62,39 62,38.7C61.8,37.8 61.6,37 61.5,36.1C61.4,35.1 62.1,34.3 62.6,33.4C63,32.8 63.4,32.1 64.1,31.7C64.3,31.1 64.7,30.5 65.1,30C65.5,29.5 66.2,29.2 66.8,28.9C67.5,28.6 68.2,28.4 68.2,28.4L31.4,28.4L31.4,56.7L57.4,56.7C58.4,56 59.4,55.6 60.9,54.9C61.6,54.6 63.1,53.9 63.6,53.4M55.4,49.5C55.3,49.5 55.1,49.6 55.1,49.4C55.2,49.1 55.5,49.1 55.7,49C55.8,48.9 56,48.8 56.1,48.9C56.2,49.1 56.4,49 56.5,49.1C56.2,49.5 55.8,49.4 55.4,49.5M47.2,48.3L47.1,48.2C47.8,47.3 48.3,46.4 48.8,45.5C49.5,45.1 50.1,44.6 50.6,44C51.5,43 52.5,42.2 53.6,41.6C54,41.4 54.6,41.5 55,41.7C54.8,41.9 54.6,41.9 54.4,42C54.3,42 54.3,42 54.2,41.9C54.3,41.8 54.3,41.8 54.3,41.7C53.8,42.3 53,42.6 52.6,43.3C52.3,43.8 52.1,44.5 51.4,44.7C51.2,44.8 51.5,44.5 51.3,44.6C49.7,45.7 48.5,46.9 47.2,48.3M51.6,44.8C51.5,44.9 51.5,44.9 51.4,45C51.3,45.1 51.3,45.2 51.2,45.2C51.1,45.2 51.1,45.2 51.1,45.1C51.2,44.9 51.3,44.7 51.5,44.6C51.6,44.7 51.6,44.8 51.6,44.8M54.1,52.8C54.1,52.9 54,52.9 54,53C54.1,53 54.1,53 54.1,53.1C54,53.2 53.9,53.3 53.7,53.4L53.6,53.4C53.5,53.5 53.5,53.5 53.4,53.6C53.3,53.7 53,53.6 53.1,53.5C53.2,53.4 53.4,53.2 53.5,53.1C53.6,53 53.7,53 53.7,52.9L53.8,52.8C53.9,52.8 54.2,52.7 54.1,52.8M53.2,52.4C53,52.6 52.8,52.7 52.6,52.8C52.4,52.9 52.1,53 51.9,53.1L51.8,53.1C51.6,53.2 51.4,53.4 51.3,53.5L50.9,53.9L50.6,53.9L50.1,54.4L50.1,54.5L50.1,54.4L50.5,54C50.6,53.9 50.6,53.8 50.7,53.8L50.8,53.7C50.8,53.7 50.8,53.6 50.9,53.6C50.9,53.6 50.9,53.5 51,53.5L51,53.3C51.1,53.2 51.1,53.1 51.2,53C51.1,53 51.1,53.1 51,53.2C50.9,53.2 50.8,53.2 50.9,53.1L51.3,52.7C51.4,52.7 51.4,52.6 51.5,52.6L51.6,52.5C52.1,52 53,52 53.7,51.7C54,51.6 54.3,51.8 54.6,51.7C54.8,51.7 54.9,51.7 55.1,51.8C54,51.8 53.6,52.1 53.2,52.4M54.3,48.7C54.2,48.6 54.5,48.7 54.5,48.6L54,48.6C53.9,48.6 53.9,48.5 53.9,48.5C53.6,48.6 53.3,48.7 53,48.7C52.6,48.8 52.3,49.1 51.9,49.2C51.3,49.4 50.8,49.9 50.2,50.1C50.1,50.1 50.1,50 50.1,50C50.2,49.8 50.4,49.8 50.5,49.6C50.5,49.5 50.5,49.5 50.4,49.5C50.8,48.9 51.4,48.6 52,48.1L52,47.9C52.2,47.7 52.4,47.6 52.5,47.3C52.6,47.1 52.8,46.9 53,46.8C52.9,46.7 52.8,46.7 52.8,46.6C52.6,46.6 52.4,46.7 52.2,46.5C52.3,46.4 52.4,46.3 52.5,46.3C52.5,46.3 52.4,46.3 52.4,46.2C52.3,46.1 52.5,46 52.7,45.9C52.9,45.8 53.2,45.8 53.3,45.7C52.9,45.6 52.5,45.8 52.1,45.6C52.4,44.9 52.8,44.3 53.4,44C53.5,44 53.6,44 53.6,44.1C53.6,44.4 53.4,44.6 53.2,44.6C53.6,44.7 54.1,44.7 54.5,44.9C54.4,45 54.3,45 54.3,45C54.6,45.2 54.9,45.1 55.2,45.3C55,45.5 54.9,45.3 54.7,45.3C56.4,45.8 58.1,46.2 59.5,47.2C58.3,47.8 57.1,48.1 55.8,48.3C55.6,48.3 55.5,48.3 55.4,48.2C55.4,48.3 55.4,48.4 55.3,48.4C55.1,48.4 54.9,48.4 54.8,48.5C54.7,48.8 54.4,48.8 54.3,48.7"
                  style="fill-rule:nonzero;"/>
            <path id="Red"
                  d="M110,28.4L78.9,28.4C78.9,28.4 79,28.4 79.2,28.5C79.4,28.6 79.8,28.8 80,28.9C80.4,29.1 80.8,29.4 81,29.8C81.1,30 81.3,30.3 81.2,30.5C81.1,30.8 81,31.2 80.8,31.3C80.5,31.5 80.1,31.5 79.7,31.4C79.5,31.4 79.3,31.3 79.1,31.3C79.9,31.6 80.7,32 81.2,32.7C81.3,32.8 81.5,32.9 81.7,32.9C81.8,32.9 81.8,33 81.8,33.1C81.7,33.2 81.6,33.3 81.6,33.4L81.8,33.4C82.1,33.3 82,32.8 82.4,32.9C82.7,33.1 82.8,33.4 82.6,33.7C82.4,33.9 82.2,34.1 82,34.2C81.9,34.3 81.9,34.5 82,34.6C82.2,34.8 82.2,35 82.3,35.2C82.5,35.6 82.5,36 82.7,36.4C82.9,37.2 83.1,38 83.1,38.8C83.1,39.2 82.9,39.6 83,40C83.1,40.4 83.4,40.8 83.6,41.1C83.8,41.4 84,41.6 84.2,42C84.5,42.5 85.1,43.1 84.8,43.7C84.6,44.1 84,44 83.7,44.2C83.4,44.5 83.6,44.9 83.8,45.2C84.1,45.7 83.5,46 83.1,46.2C83.2,46.4 83.4,46.3 83.5,46.4C83.6,46.7 83.8,46.8 83.7,47.1C83.5,47.4 82.8,47.6 83.2,48.1C83.4,48.5 83.3,48.9 83.1,49.3C82.9,49.8 82.5,50 82.1,50.1C81.8,50.2 81.4,50.2 81.1,50.2C81,50.1 80.9,50.1 80.8,50.1C79.9,50 79,49.7 78.1,49.7C77.8,49.8 77.6,49.8 77.4,49.9C77.2,50.1 76.9,50.3 76.8,50.5L76.7,50.6C76.7,50.6 76.7,50.7 76.6,50.7L76.6,50.8C76.4,51 76.3,51.2 76.2,51.4L76.2,51.5C76,51.8 75.9,52.2 75.8,52.5C75.4,53.7 75.6,54.8 75.9,55C76,55.1 77.7,55.6 78.8,56.1C79.4,56.3 79.7,56.5 80.1,56.7L110,56.7L110,28.4Z"
                  style="fill-rule:nonzero;"/>
            <path id="Eyes"
                  d="M80.7,38.7C80.9,38.8 81.2,38.8 81.2,38.9C81.1,39.3 80.5,39.4 80.1,39.9L80,39.9C79.8,40 79.9,40.3 79.7,40.3C79.5,40.2 79.4,40.3 79.2,40.4C79.4,40.6 79.7,40.8 80,40.7C80.1,40.7 80.2,40.8 80.2,40.9C80.2,40.9 80.3,40.9 80.3,40.8C80.4,40.8 80.4,40.8 80.4,40.9L80.4,41C80.2,41.2 80,41.1 79.8,41.2C80.2,41.3 80.7,41.3 81,41.2C81.3,41.1 81,40.6 81.2,40.3C81.1,40.3 81.2,40.1 81.1,40.1C81.2,40 81.3,39.8 81.4,39.8C81.5,39.8 81.7,39.7 81.7,39.6C81.7,39.5 81.5,39.4 81.5,39.3C81.8,39.1 82.1,38.8 82,38.4C81.9,38.2 81.5,38.2 81.2,38.1C80.9,38 80.6,38.1 80.3,38.2C80,38.2 79.8,38.4 79.5,38.4C79.1,38.5 78.8,38.7 78.5,38.9C78.9,38.7 79.3,38.7 79.7,38.6C80.1,38.7 80.3,38.6 80.7,38.7"
                  style="fill-rule:nonzero;"/>
        </g>
    </g>
</svg>
