<?xml version="1.0" encoding="UTF-8" standalone="no"?>
<!DOCTYPE svg PUBLIC "-//W3C//DTD SVG 1.1//EN" "http://www.w3.org/Graphics/SVG/1.1/DTD/svg11.dtd">
<svg width="100%" height="100%" viewBox="0 0 520 512" version="1.1" xmlns="http://www.w3.org/2000/svg"
     xml:space="preserve"
     style="fill-rule:evenodd;clip-rule:evenodd;stroke-linejoin:round;stroke-miterlimit:2;">
    <rect id="Page-1" x="0" y="0" width="520" height="512" style="fill:none;"/>
    <path id="github_black"
          d="M510.633,262.861C510.633,124.162 398.196,11.728 259.5,11.728C120.803,11.728 8.366,124.163 8.366,262.861C8.366,372.948 79.206,466.479 177.782,500.386C183.791,496.05 190.712,490.701 190.712,481.687C190.712,467.875 190.413,432.343 190.413,432.343C190.413,432.343 179.512,434.199 163.956,434.199C124.757,434.199 112.362,409.324 106.463,395.401C98.785,377.269 88.829,368.754 78.251,361.947C71.755,357.763 70.263,352.838 77.779,351.428C112.473,344.931 121.346,390.562 144.518,397.839C161.057,403.023 182.324,400.783 192.902,393.977C194.296,380.041 204.4,367.986 212.813,361.639C153.877,356.007 118.932,335.648 100.813,302.926L98.872,299.262L94.318,288.867L92.973,285.141C87.299,268.532 84.785,249.51 84.785,228.26C84.785,190.537 96.607,176.305 112.473,156.194C100.34,113.186 116.83,83.793 116.83,83.793C116.83,83.793 142.34,78.533 190.563,112.877C216.695,101.738 286.385,100.81 319.362,110.401C339.584,97.097 376.606,78.223 391.54,83.508C395.584,89.981 404.296,108.855 396.829,150.315C401.894,159.411 428.251,178.781 428.351,233.545C427.928,253.742 425.812,270.798 421.891,285.216L419.714,292.591C419.714,292.591 418.47,296.069 417.113,299.386L415.521,303.049C398.036,341.241 362.171,355.5 304.217,361.428C322.996,373.185 328.385,387.937 328.385,427.851C328.385,467.764 327.849,473.123 327.974,482.306C328.082,490.42 334.572,496.253 340.409,500.671C439.409,466.999 510.633,373.249 510.633,262.861"
          style="fill:rgb(25,29,71);fill-rule:nonzero;"/>
</svg>
