<svg width="100%" height="100%" viewBox="0 0 108 32" version="1.1" xmlns="http://www.w3.org/2000/svg"
     xml:space="preserve"
     style="fill-rule:evenodd;clip-rule:evenodd;stroke-linejoin:round;stroke-miterlimit:2;">
    <g transform="matrix(1,0,0,1,-7.32012,1)">
        <g transform="matrix(1,0,0,1,9.95898,-2.16797)">
            <g transform="matrix(24,0,0,24,14.3109,24.4551)">
                <path d="M0.045,-0.494L0.164,-0.494C0.164,-0.566 0.221,-0.618 0.297,-0.618C0.367,-0.618 0.414,-0.571 0.414,-0.509C0.414,-0.457 0.393,-0.421 0.301,-0.331L0.052,-0.086L0.052,-0L0.547,-0L0.547,-0.103L0.219,-0.103L0.219,-0.105L0.374,-0.258C0.497,-0.379 0.537,-0.434 0.537,-0.517C0.537,-0.63 0.441,-0.719 0.297,-0.719C0.151,-0.719 0.045,-0.625 0.045,-0.494Z"
                      style="fill:rgb(246,208,1);fill-rule:nonzero;"/>
            </g>
            <g transform="matrix(24,0,0,24,27.2555,24.4551)">
                <path d="M0.05,-0L0.171,-0L0.171,-0.3C0.171,-0.374 0.216,-0.424 0.286,-0.424C0.355,-0.424 0.389,-0.383 0.389,-0.31L0.389,-0L0.511,-0L0.511,-0.334C0.511,-0.454 0.446,-0.527 0.332,-0.527C0.252,-0.527 0.197,-0.49 0.169,-0.429L0.167,-0.429L0.167,-0.518L0.05,-0.518L0.05,-0Z"
                      style="fill:rgb(246,208,1);fill-rule:nonzero;"/>
            </g>
            <g transform="matrix(24,0,0,24,39.45,24.4551)">
                <path d="M0.213,-0.316L0.296,-0.316C0.387,-0.316 0.441,-0.274 0.441,-0.199C0.441,-0.134 0.386,-0.089 0.305,-0.089C0.222,-0.089 0.166,-0.131 0.161,-0.195L0.04,-0.195C0.046,-0.07 0.151,0.014 0.305,0.014C0.459,0.014 0.569,-0.071 0.569,-0.196C0.569,-0.294 0.5,-0.356 0.396,-0.366L0.396,-0.369C0.481,-0.386 0.544,-0.445 0.544,-0.534C0.544,-0.643 0.45,-0.719 0.304,-0.719C0.163,-0.719 0.063,-0.639 0.055,-0.513L0.172,-0.513C0.177,-0.579 0.23,-0.619 0.304,-0.619C0.382,-0.619 0.423,-0.579 0.423,-0.517C0.423,-0.454 0.371,-0.41 0.293,-0.41L0.213,-0.41L0.213,-0.316Z"
                      style="fill:rgb(246,208,1);fill-rule:nonzero;"/>
            </g>
            <g transform="matrix(24,0,0,24,53.0273,24.4551)">
                <path d="M0.278,0.195C0.429,0.195 0.528,0.115 0.528,-0.008L0.528,-0.518L0.409,-0.518L0.409,-0.429L0.407,-0.429C0.377,-0.488 0.317,-0.526 0.244,-0.526C0.111,-0.526 0.028,-0.424 0.028,-0.261C0.028,-0.1 0.113,0 0.241,0C0.315,0 0.376,-0.037 0.403,-0.092L0.406,-0.092L0.406,-0.005C0.406,0.061 0.361,0.105 0.282,0.105C0.224,0.105 0.18,0.079 0.167,0.039L0.046,0.039C0.058,0.13 0.15,0.195 0.278,0.195ZM0.278,-0.096C0.202,-0.096 0.153,-0.158 0.153,-0.26C0.153,-0.362 0.202,-0.426 0.278,-0.426C0.356,-0.426 0.406,-0.361 0.406,-0.26C0.406,-0.159 0.356,-0.096 0.278,-0.096Z"
                      style="fill:rgb(246,208,1);fill-rule:nonzero;"/>
            </g>
            <g transform="matrix(24,0,0,24,65.6789,24.4551)">
                <path d="M0.313,0.014C0.469,0.014 0.577,-0.086 0.577,-0.232C0.577,-0.367 0.48,-0.464 0.346,-0.464C0.275,-0.464 0.217,-0.437 0.187,-0.389L0.184,-0.389L0.204,-0.602L0.536,-0.602L0.536,-0.705L0.103,-0.705L0.069,-0.295L0.179,-0.295C0.206,-0.343 0.253,-0.37 0.314,-0.37C0.397,-0.37 0.456,-0.312 0.456,-0.229C0.456,-0.146 0.397,-0.088 0.313,-0.088C0.239,-0.088 0.183,-0.132 0.175,-0.198L0.057,-0.198C0.062,-0.073 0.167,0.014 0.313,0.014Z"
                      style="fill:rgb(246,208,1);fill-rule:nonzero;"/>
            </g>
            <g transform="matrix(24,0,0,24,79.1273,24.4551)">
                <path d="M0.506,-0.333C0.498,-0.442 0.413,-0.528 0.276,-0.528C0.126,-0.528 0.028,-0.424 0.028,-0.259C0.028,-0.091 0.126,0.01 0.277,0.01C0.407,0.01 0.497,-0.066 0.506,-0.182L0.392,-0.182C0.38,-0.123 0.34,-0.088 0.279,-0.088C0.202,-0.088 0.152,-0.15 0.152,-0.259C0.152,-0.365 0.201,-0.43 0.278,-0.43C0.343,-0.43 0.381,-0.388 0.391,-0.333L0.506,-0.333Z"
                      style="fill:rgb(246,208,1);fill-rule:nonzero;"/>
            </g>
            <g transform="matrix(24,0,0,24,90.6187,24.4551)">
                <path d="M0.299,0.014C0.479,0.014 0.586,-0.125 0.586,-0.36C0.586,-0.622 0.446,-0.719 0.301,-0.719C0.149,-0.719 0.038,-0.616 0.038,-0.473C0.038,-0.336 0.14,-0.242 0.272,-0.242C0.363,-0.242 0.436,-0.288 0.463,-0.356L0.465,-0.356C0.465,-0.192 0.411,-0.088 0.3,-0.088C0.236,-0.088 0.188,-0.117 0.171,-0.173L0.046,-0.173C0.065,-0.062 0.167,0.014 0.299,0.014ZM0.301,-0.339C0.221,-0.339 0.162,-0.397 0.162,-0.478C0.162,-0.555 0.224,-0.616 0.303,-0.616C0.382,-0.616 0.444,-0.554 0.444,-0.475C0.444,-0.396 0.383,-0.339 0.301,-0.339Z"
                      style="fill:rgb(246,208,1);fill-rule:nonzero;"/>
            </g>
        </g>
        <g transform="matrix(1.125,0,0,1.125,-2.125,-1.875)">
            <circle cx="13" cy="15" r="4" style="fill:rgb(220,48,48);"/>
        </g>
    </g>
</svg>
