<svg fill="currentColor" viewBox="0 0 2048 400" xmlns="http://www.w3.org/2000/svg" xml:space="preserve" style="fill-rule:evenodd;clip-rule:evenodd;stroke-linejoin:round;stroke-miterlimit:2"><path d="M293.656 291.871c.219-.75.477-1.094.774-1.031.297.062.664.421 1.101 1.078.438.656.93 1.531 1.477 2.625a731.224 731.224 0 0 1 1.758 3.539 85.028 85.028 0 0 0 2.039 3.867 35.737 35.737 0 0 0 2.297 3.609c.796 1.094 1.64 2 2.531 2.719.89.719 1.805 1.141 2.742 1.266l3.75-19.407c.063-.531.305-.835.727-.914a6.816 6.816 0 0 1 1.242-.117c1.406 0 2.109.656 2.109 1.969 0 .687-.062 1.781-.187 3.281a69.163 69.163 0 0 1-.61 4.946c-.281 1.796-.625 3.64-1.031 5.531-.406 1.89-.891 3.617-1.453 5.179-.563 1.563-1.211 2.844-1.945 3.844-.735 1-1.539 1.5-2.414 1.5-1.282 0-2.547-.429-3.797-1.289-1.25-.859-2.43-1.984-3.539-3.375a30.716 30.716 0 0 1-3.047-4.664 46.465 46.465 0 0 1-2.391-5.18 37.834 37.834 0 0 1-1.57-4.992c-.375-1.594-.563-2.922-.563-3.984ZM319.016 303.261c0-1.687.203-3.375.609-5.062.406-1.688 1.055-3.203 1.945-4.547a10.573 10.573 0 0 1 3.469-3.281c1.422-.844 3.149-1.266 5.18-1.266 1.156 0 2.172.211 3.047.633a6.741 6.741 0 0 1 2.203 1.664 6.868 6.868 0 0 1 1.336 2.414c.297.922.445 1.883.445 2.883 0 1.594-.367 3.141-1.102 4.641a13.32 13.32 0 0 1-2.953 3.961c-1.234 1.14-2.648 2-4.242 2.578a9.097 9.097 0 0 1-4.875.398c.031.906.336 1.633.914 2.18a5.704 5.704 0 0 0 2.086 1.242c.813.281 1.656.461 2.531.539.875.078 1.657.117 2.344.117.719 0 1.391-.062 2.016-.187s1.25-.266 1.875-.422a37.604 37.604 0 0 1 1.898-.422c.641-.125 1.32-.188 2.039-.188.281 0 .563.016.844.047.281.032.547.102.797.211.25.11.453.282.609.516.156.234.235.523.235.867 0 .594-.219 1.086-.657 1.477-.437.39-.992.726-1.664 1.007-.672.282-1.414.493-2.226.633-.813.141-1.602.25-2.367.328-.766.079-1.469.125-2.11.141a61.62 61.62 0 0 1-1.43.023c-2 0-3.796-.32-5.39-.96-1.594-.641-2.938-1.532-4.031-2.672-1.094-1.141-1.93-2.516-2.508-4.125-.578-1.61-.867-3.399-.867-5.368Zm4.968-3.046c0 1.093.149 1.89.446 2.39.297.5 1.023.75 2.179.75.813 0 1.61-.148 2.391-.445a7.499 7.499 0 0 0 2.133-1.242 6.083 6.083 0 0 0 1.523-1.875c.375-.719.563-1.5.563-2.344 0-.469-.039-.953-.117-1.453a3.872 3.872 0 0 0-.493-1.383 3.19 3.19 0 0 0-.961-1.031c-.39-.266-.898-.399-1.523-.399-.938 0-1.789.211-2.555.633a6.376 6.376 0 0 0-1.945 1.641 7.476 7.476 0 0 0-1.219 2.25 7.759 7.759 0 0 0-.422 2.508ZM345.172 296.605c0-.281.015-.57.047-.867.031-.297.093-.562.187-.797.094-.234.242-.43.446-.586.203-.156.492-.234.867-.234.312 0 .664.242 1.054.726.391.485.789 1.094 1.196 1.829.406.734.804 1.539 1.195 2.414.391.875.734 1.679 1.031 2.414.297.734.539 1.367.727 1.898.187.531.297.813.328.844.406-1.094.859-2.281 1.359-3.563a19.013 19.013 0 0 1 1.852-3.586 10.915 10.915 0 0 1 2.625-2.789c1.016-.75 2.258-1.125 3.726-1.125.75 0 1.461.118 2.133.352a5.328 5.328 0 0 1 1.782 1.031 5.28 5.28 0 0 1 1.242 1.617c.312.625.469 1.344.469 2.157 0 .687-.274 1.171-.821 1.453-.547.281-1.164.422-1.851.422h-.469l-2.016-2.016c-.062 0-.109-.016-.14-.047a.532.532 0 0 1-.164-.023.51.51 0 0 0-.164-.024c-1.094 0-1.946.305-2.555.914-.61.61-1.07 1.36-1.383 2.25a11.088 11.088 0 0 0-.586 2.813 34.353 34.353 0 0 0-.117 2.695c0 .625.062 1.258.187 1.899.125.64.266 1.265.422 1.875.156.609.297 1.234.422 1.875.125.64.188 1.304.188 1.992 0 1.312-.704 1.968-2.11 1.968-.781 0-1.594-.414-2.437-1.242-.844-.828-1.68-1.883-2.508-3.164a39.782 39.782 0 0 1-2.367-4.242 57.968 57.968 0 0 1-1.969-4.523 43.973 43.973 0 0 1-1.336-3.985c-.328-1.187-.492-2.062-.492-2.625ZM368.188 302.183c0-1.312.289-2.687.867-4.125a14.724 14.724 0 0 1 2.32-3.914 13.575 13.575 0 0 1 3.352-2.929c1.265-.782 2.601-1.172 4.007-1.172.719 0 1.438.125 2.157.375.718.25 1.367.609 1.945 1.078a5.637 5.637 0 0 1 1.406 1.687c.36.657.539 1.391.539 2.203-.562 0-1.07-.062-1.523-.187a13.323 13.323 0 0 1-1.336-.445 15.83 15.83 0 0 0-1.289-.446 4.853 4.853 0 0 0-1.383-.187c-1.281 0-2.32.32-3.117.961a6.903 6.903 0 0 0-1.899 2.414 11.002 11.002 0 0 0-.961 3.117 20.52 20.52 0 0 0-.257 3.117c0 .156.007.453.023.891l.094 2.765c.015.438.039.735.07.891.344.75.68 1.328 1.008 1.734.328.407.68.711 1.055.915.375.203.781.328 1.218.375.438.046.954.07 1.547.07.813 0 1.524-.125 2.133-.375a10.41 10.41 0 0 0 1.711-.891 11.957 11.957 0 0 0 1.5-1.148c.469-.422.961-.813 1.477-1.172a7.93 7.93 0 0 1 1.687-.891c.609-.234 1.305-.351 2.086-.351 0 1.531-.273 2.89-.82 4.078a8.842 8.842 0 0 1-2.297 3.047c-.985.843-2.141 1.492-3.469 1.945-1.328.453-2.773.68-4.336.68-1.469 0-2.789-.5-3.961-1.5-1.172-1-2.172-2.227-3-3.68a19.531 19.531 0 0 1-1.898-4.617c-.438-1.625-.656-3.063-.656-4.313ZM391.25 303.261c0-1.687.203-3.375.609-5.062.407-1.688 1.055-3.203 1.946-4.547a10.57 10.57 0 0 1 3.468-3.281c1.422-.844 3.149-1.266 5.18-1.266 1.156 0 2.172.211 3.047.633a6.741 6.741 0 0 1 2.203 1.664 6.868 6.868 0 0 1 1.336 2.414c.297.922.445 1.883.445 2.883 0 1.594-.367 3.141-1.101 4.641a13.353 13.353 0 0 1-2.953 3.961c-1.235 1.14-2.649 2-4.243 2.578a9.095 9.095 0 0 1-4.875.398c.032.906.336 1.633.915 2.18a5.7 5.7 0 0 0 2.085 1.242c.813.281 1.657.461 2.532.539.875.078 1.656.117 2.343.117.719 0 1.391-.062 2.016-.187s1.25-.266 1.875-.422a37.4 37.4 0 0 1 1.899-.422c.64-.125 1.32-.188 2.039-.188.281 0 .562.016.843.047.282.032.547.102.797.211.25.11.453.282.61.516.156.234.234.523.234.867 0 .594-.219 1.086-.656 1.477-.438.39-.992.726-1.664 1.007-.672.282-1.414.493-2.227.633-.812.141-1.601.25-2.367.328a27.3 27.3 0 0 1-2.109.141c-.641.016-1.118.023-1.43.023-2 0-3.797-.32-5.391-.96-1.594-.641-2.937-1.532-4.031-2.672-1.094-1.141-1.93-2.516-2.508-4.125-.578-1.61-.867-3.399-.867-5.368Zm4.969-3.046c0 1.093.148 1.89.445 2.39.297.5 1.023.75 2.18.75.812 0 1.609-.148 2.39-.445a7.472 7.472 0 0 0 2.133-1.242 6.072 6.072 0 0 0 1.524-1.875c.375-.719.562-1.5.562-2.344 0-.469-.039-.953-.117-1.453a3.852 3.852 0 0 0-.492-1.383 3.2 3.2 0 0 0-.961-1.031c-.391-.266-.899-.399-1.524-.399-.937 0-1.789.211-2.554.633a6.38 6.38 0 0 0-1.946 1.641 7.474 7.474 0 0 0-1.218 2.25 7.732 7.732 0 0 0-.422 2.508ZM418.531 289.761c0-.906-.062-1.789-.187-2.648-.125-.859-.156-1.625-.094-2.297.063-.672.305-1.211.727-1.617.421-.406 1.195-.609 2.32-.609.344.718.68 1.812 1.008 3.281.328 1.469.648 3.156.961 5.062.312 1.907.609 3.977.89 6.211.282 2.235.539 4.477.774 6.727.234 2.25.437 4.461.609 6.633.172 2.172.305 4.148.399 5.929-1.032.688-1.86.735-2.485.141-.625-.594-1.14-1.602-1.547-3.023-.406-1.422-.718-3.157-.937-5.204-.219-2.046-.43-4.171-.633-6.375a167.55 167.55 0 0 0-.727-6.515c-.281-2.141-.64-4.039-1.078-5.696ZM433.953 312.496c1.406 0 2.109.734 2.109 2.203-.343.906-.781 1.508-1.312 1.805-.531.297-1.023.406-1.477.328-.453-.078-.859-.305-1.218-.68-.36-.375-.555-.797-.586-1.266-.031-.468.14-.929.515-1.382.375-.453 1.032-.789 1.969-1.008ZM438.078 302.183c0-1.312.289-2.687.867-4.125a14.727 14.727 0 0 1 2.321-3.914 13.57 13.57 0 0 1 3.351-2.929c1.266-.782 2.602-1.172 4.008-1.172.719 0 1.437.125 2.156.375.719.25 1.367.609 1.946 1.078a5.652 5.652 0 0 1 1.406 1.687c.359.657.539 1.391.539 2.203-.563 0-1.07-.062-1.524-.187a13.408 13.408 0 0 1-1.336-.445 15.699 15.699 0 0 0-1.289-.446 4.841 4.841 0 0 0-1.382-.187c-1.282 0-2.321.32-3.118.961a6.912 6.912 0 0 0-1.898 2.414 10.97 10.97 0 0 0-.961 3.117 20.4 20.4 0 0 0-.258 3.117c0 .156.008.453.024.891l.093 2.765c.016.438.039.735.071.891.343.75.679 1.328 1.008 1.734.328.407.679.711 1.054.915.375.203.781.328 1.219.375.437.046.953.07 1.547.07.812 0 1.523-.125 2.133-.375a10.45 10.45 0 0 0 1.711-.891 11.957 11.957 0 0 0 1.5-1.148c.468-.422.961-.813 1.476-1.172a7.937 7.937 0 0 1 1.688-.891c.609-.234 1.304-.351 2.086-.351 0 1.531-.274 2.89-.821 4.078a8.83 8.83 0 0 1-2.297 3.047c-.984.843-2.14 1.492-3.468 1.945-1.328.453-2.774.68-4.336.68-1.469 0-2.789-.5-3.961-1.5-1.172-1-2.172-2.227-3-3.68a19.576 19.576 0 0 1-1.899-4.617c-.437-1.625-.656-3.063-.656-4.313ZM461.141 306.777c0-1.937.453-3.742 1.359-5.414a14.226 14.226 0 0 1 3.586-4.312 17.544 17.544 0 0 1 5.016-2.836 16.163 16.163 0 0 1 5.648-1.032c1.062 0 2.008.344 2.836 1.032a9.078 9.078 0 0 1 2.086 2.507c.562.985.992 2.024 1.289 3.118.297 1.093.445 2.046.445 2.859 0 1.75-.422 3.445-1.265 5.086a15.98 15.98 0 0 1-3.282 4.359 17 17 0 0 1-4.547 3.071c-1.687.781-3.375 1.171-5.062 1.171-1.5 0-2.766-.257-3.797-.773-1.031-.516-1.859-1.203-2.484-2.062-.625-.86-1.086-1.875-1.383-3.047a15.122 15.122 0 0 1-.445-3.727Zm3.984.469c0 .812.07 1.523.211 2.133a3.78 3.78 0 0 0 .75 1.57c.359.437.836.773 1.43 1.008.593.234 1.328.351 2.203.351 1.156 0 2.312-.32 3.468-.961a12.634 12.634 0 0 0 3.118-2.437 12.664 12.664 0 0 0 2.226-3.258c.563-1.187.844-2.344.844-3.469 0-.5-.047-1.047-.141-1.64a6.672 6.672 0 0 0-.468-1.641 3.45 3.45 0 0 0-.938-1.266c-.406-.343-.922-.515-1.547-.515-.562 0-1.226.187-1.992.562-.766.375-1.562.86-2.391 1.453a23.842 23.842 0 0 0-2.437 2.016 32.54 32.54 0 0 0-2.18 2.25c-.656.75-1.179 1.469-1.57 2.156-.391.688-.586 1.25-.586 1.688ZM484.203 296.605c0-.781.133-1.39.399-1.828.265-.437.835-.656 1.71-.656l1.032.047c.219.968.445 2.023.679 3.164.235 1.14.508 2.289.821 3.445a51.094 51.094 0 0 0 1.054 3.422 15.272 15.272 0 0 0 1.43 3.047 5.272 5.272 0 0 0 1.219-2.11c.25-.812.437-1.632.562-2.46a292.5 292.5 0 0 0 .352-2.391c.109-.766.336-1.422.68-1.969.343-.547.851-.945 1.523-1.195.672-.25 1.602-.25 2.789 0 1.313 0 2.36.242 3.141.726a7.835 7.835 0 0 1 2.039 1.829c.578.734 1.14 1.515 1.687 2.343a9.362 9.362 0 0 0 2.086 2.227l.703-1.524c.282-.609.633-1.25 1.055-1.921.422-.672.875-1.344 1.359-2.016.485-.672.993-1.281 1.524-1.828a9.23 9.23 0 0 1 1.641-1.36c.562-.359 1.109-.539 1.64-.539 1.281 0 2.391.399 3.328 1.196.938.797 1.742 1.797 2.414 3 .672 1.203 1.227 2.547 1.664 4.031a41.246 41.246 0 0 1 1.032 4.289c.25 1.375.429 2.633.539 3.773.109 1.141.164 1.961.164 2.461 0 .407-.094.719-.281.938a1.734 1.734 0 0 1-.704.492c-.281.109-.586.18-.914.211a9.754 9.754 0 0 1-.914.047c-.062 0-.156-.008-.281-.024a5.677 5.677 0 0 1-.422-.07 14.786 14.786 0 0 1-.515-.141l-3.047-14.015c0-.094-.125-.274-.375-.539-.25-.266-.438-.43-.563-.492a.521.521 0 0 1-.234-.047.32.32 0 0 1-.141-.024.214.214 0 0 0-.094-.023c-.656 0-1.273.265-1.851.797-.578.531-1.117 1.203-1.617 2.015-.5.813-.969 1.719-1.407 2.719-.437 1-.828 1.992-1.171 2.977-.344.984-.649 1.89-.915 2.718a65.072 65.072 0 0 1-.632 1.899c-.125.062-.375.117-.75.164a7.52 7.52 0 0 1-.75.07c-.875 0-1.547-.304-2.016-.914-.469-.609-.852-1.367-1.148-2.273a23.63 23.63 0 0 1-.75-2.977 23.918 23.918 0 0 0-.75-2.976c-.297-.907-.704-1.664-1.219-2.274-.516-.609-1.242-.914-2.18-.914-.344 0-.672.344-.984 1.031-.313.688-.594 1.555-.844 2.602a63.68 63.68 0 0 0-.703 3.375 72.816 72.816 0 0 0-.539 3.375 58.92 58.92 0 0 0-.305 2.648 422.24 422.24 0 0 1-.094 1.078c-.062.094-.187.196-.375.305-.187.11-.382.227-.586.352a2.672 2.672 0 0 1-.609.281 1.746 1.746 0 0 1-.445.094c-.875 0-1.719-.399-2.531-1.196-.813-.796-1.555-1.828-2.227-3.093a31.629 31.629 0 0 1-1.828-4.196 50.544 50.544 0 0 1-1.383-4.5 51.013 51.013 0 0 1-.867-3.984c-.203-1.188-.305-2.094-.305-2.719ZM377.686 148.501c-18.291 0-31.501 11.96-31.501 29.86s14.851 29.86 33.142 29.86c11.1 0 20.793-4.378 26.89-11.725l-12.663-7.348c-3.361 3.674-8.442 5.784-14.148 5.784-7.973 0-14.696-4.142-17.197-10.787h46.509c.391-1.875.547-3.752.547-5.784-.078-17.978-13.21-29.86-31.579-29.86Zm-15.712 23.998c2.111-6.644 7.739-10.787 15.712-10.787s13.601 4.143 15.711 10.787h-31.423Zm194.323-23.998c-18.291 0-31.501 11.96-31.501 29.86s14.851 29.86 33.142 29.86c11.1 0 20.793-4.378 26.89-11.725l-12.663-7.348c-3.362 3.674-8.442 5.784-14.149 5.784-7.973 0-14.695-4.142-17.196-10.787h46.509c.391-1.875.547-3.752.547-5.784 0-17.978-13.21-29.86-31.579-29.86Zm-15.634 23.998c2.111-6.644 7.739-10.787 15.712-10.787s13.601 4.143 15.711 10.787h-31.423Zm-64.722 5.862c0 9.927 6.488 16.572 16.572 16.572 6.8 0 11.959-3.127 14.617-8.13l12.741 7.348c-5.237 8.754-15.164 14.07-27.358 14.07-18.369 0-31.501-11.96-31.501-29.86s13.21-29.859 31.501-29.859c12.194 0 22.043 5.315 27.358 14.07l-12.741 7.347c-2.658-5.081-7.739-8.129-14.617-8.129-10.084-.078-16.572 6.566-16.572 16.571Zm136.792-48.151v76.291h-14.93v-76.29h14.93Zm-407.717-8.286 61.282 106.15H143.733l61.283-106.15Zm153.285 8.286-45.962 79.651-45.962-79.652h17.274l28.766 49.793 28.765-49.793h17.119Zm97.708 19.933v16.102c-1.642-.469-3.439-.781-5.315-.781-9.615 0-16.572 6.644-16.572 16.571v24.544h-14.93v-56.436h14.93v15.243c0-8.442 9.771-15.243 21.887-15.243Z" style="fill-rule:nonzero"/><g><path d="M911.037 344.984c1.75 0 3.314-.321 4.689-.962a10.25 10.25 0 0 0 3.494-2.626 12.123 12.123 0 0 0 2.204-3.798 12.9 12.9 0 0 0 .774-4.432c0-.781-.04-1.813-.118-3.095a98.177 98.177 0 0 0-.351-4.173 55.611 55.611 0 0 0-.68-4.596 39.266 39.266 0 0 0-1.102-4.432c-.438-1.391-.977-2.61-1.618-3.657-.641-1.048-1.384-1.79-2.228-2.228a41.175 41.175 0 0 1-2.391 1.712c-.782.516-1.595.946-2.439 1.289a16.48 16.48 0 0 1-2.626.821c-.907.203-1.876.305-2.907.305-1.345 0-2.494-.125-3.447-.375-.954-.25-1.751-.672-2.392-1.266s-1.117-1.376-1.43-2.345c-.313-.969-.469-2.189-.469-3.658 0-1.032.25-2.04.75-3.025a11.509 11.509 0 0 1 1.993-2.766 18.265 18.265 0 0 1 2.814-2.369 24.037 24.037 0 0 1 3.236-1.875 18.341 18.341 0 0 1 3.282-1.22c1.079-.281 2.04-.422 2.884-.422.813 0 1.485.024 2.017.071.531.047.985.172 1.36.375.375.203.695.516.961.938.266.422.524.992.774 1.711a236.507 236.507 0 0 0 2.485 7.879 201.873 201.873 0 0 1 2.673 8.675c.844 2.97 1.556 5.964 2.134 8.98.578 3.017.867 5.933.867 8.746 0 2.501-.351 4.619-1.055 6.354-.703 1.736-1.625 3.158-2.766 4.268a12.11 12.11 0 0 1-3.893 2.556 16.68 16.68 0 0 1-4.384 1.149c-1.47.171-2.892.211-4.268.117-1.375-.094-2.563-.274-3.564-.54-1-.265-1.758-.57-2.274-.914-.516-.344-.641-.633-.375-.867.266-.235.977-.399 2.133-.493 1.157-.094 2.908-.031 5.253.188Zm.656-45.253c-2.313.5-4.181 1.195-5.604 2.086-1.422.891-2.485 1.845-3.189 2.861-.703 1.016-1.086 2.032-1.148 3.048-.063 1.016.125 1.884.562 2.603.438.719 1.071 1.258 1.9 1.618.828.359 1.774.375 2.837.046 1.063-.328 2.196-1.039 3.399-2.133 1.204-1.094 2.416-2.72 3.635-4.877 0-.532.008-1.11.023-1.735a6.553 6.553 0 0 0-.164-1.712 2.67 2.67 0 0 0-.703-1.29c-.344-.344-.86-.515-1.548-.515ZM946.254 313.986a94.682 94.682 0 0 0-3.071 2.181 20.47 20.47 0 0 1-2.509 1.618c-.813.438-1.68.766-2.603.985-.922.219-2.055.328-3.4.328-2.907 0-5.064-.774-6.471-2.321-1.407-1.548-2.11-3.854-2.11-6.917 0-1.188.156-2.423.469-3.705a19.326 19.326 0 0 1 1.383-3.822 22.44 22.44 0 0 1 2.181-3.611 16.954 16.954 0 0 1 2.86-3.024 14.028 14.028 0 0 1 3.4-2.087 9.6 9.6 0 0 1 3.822-.774c2.251.219 4.017.774 5.299 1.665a8.555 8.555 0 0 1 2.908 3.423c.656 1.391 1.109 2.939 1.36 4.643.25 1.703.445 3.462.586 5.275.14 1.814.32 3.627.539 5.44.219 1.813.672 3.486 1.36 5.018-.407 1.031-.789 1.758-1.149 2.18-.36.422-.758.493-1.196.211-.437-.281-.946-.969-1.524-2.063-.578-1.094-1.289-2.642-2.134-4.643Zm-16.178-4.032c0 1.782.336 3.087 1.008 3.915.672.829 1.868 1.243 3.587 1.243 1.282 0 2.509-.227 3.682-.68a9.71 9.71 0 0 0 3.071-1.876 9.11 9.11 0 0 0 2.111-2.884c.531-1.125.797-2.376.797-3.751 0-.563.015-1.353.047-2.369a16.343 16.343 0 0 0-.188-3.024c-.156-1.001-.453-1.868-.891-2.603-.438-.735-1.094-1.102-1.969-1.102a8.56 8.56 0 0 0-4.502 1.243 12.965 12.965 0 0 0-3.564 3.165 15.416 15.416 0 0 0-2.345 4.244c-.563 1.548-.844 3.04-.844 4.479ZM954.18 296.401c0-.094.015-.172.046-.234 0-.063.016-.141.047-.235.125-.156.313-.359.563-.61.25-.25.407-.375.469-.375h9.426c0-.344-.047-.891-.141-1.641-.094-.75-.18-1.579-.258-2.485a24.237 24.237 0 0 1-.07-2.838c.031-.984.164-1.875.399-2.673.234-.797.609-1.453 1.125-1.969s1.243-.774 2.181-.774c0 3.158.218 5.69.656 7.597.438 1.907 1.024 3.376 1.759 4.408.734 1.032 1.571 1.704 2.508 2.017.938.312 1.9.445 2.885.398a13.709 13.709 0 0 0 2.884-.445c.937-.25 1.774-.422 2.508-.516.735-.094 1.321-.024 1.759.211.438.234.656.789.656 1.665 0 .656-.148 1.125-.445 1.406-.297.282-.868.501-1.712.657-.25.031-.664.086-1.242.164a41 41 0 0 1-1.947.211l-4.595.422c-.719.063-1.376.102-1.97.117-.594.016-1.031.024-1.313.024l-.094 1.547c0 1.376.219 2.712.657 4.01a72.387 72.387 0 0 0 1.43 3.869 75.417 75.417 0 0 1 1.43 3.845c.438 1.282.657 2.61.657 3.986 0 .25-.023.508-.07.774-.047.266-.141.5-.282.703-.14.203-.344.36-.609.469-.266.11-.633.086-1.102-.07-1.188-.313-2.072-.985-2.65-2.017-.578-1.031-1.008-2.258-1.289-3.681a33.373 33.373 0 0 1-.563-4.525 52.495 52.495 0 0 0-.446-4.479c-.203-1.391-.523-2.579-.961-3.564-.438-.984-1.141-1.586-2.11-1.805l-9.051-2.063c-.125 0-.313-.133-.563-.399-.25-.266-.406-.461-.469-.586a.529.529 0 0 1-.047-.235.656.656 0 0 1-.046-.281ZM994.368 317.926c.5-.344 1.102-.79 1.806-1.337a50.915 50.915 0 0 0 2.133-1.758 24.1 24.1 0 0 0 2.017-1.97c.625-.688 1.117-1.352 1.477-1.993.359-.641.539-1.243.539-1.805 0-.563-.281-1.032-.844-1.407-1 0-2.094.039-3.282.117a45.592 45.592 0 0 1-3.564.094 22.554 22.554 0 0 1-3.447-.305c-1.11-.188-2.103-.532-2.978-1.032s-1.571-1.211-2.087-2.133c-.516-.923-.774-2.103-.774-3.541 0-1.688.321-3.212.962-4.572a12.519 12.519 0 0 1 2.556-3.611 19.014 19.014 0 0 1 3.587-2.767 31.351 31.351 0 0 1 4.009-2.04c.813.219 1.564.61 2.251 1.173a10.07 10.07 0 0 1 1.782 1.875 2.765 2.765 0 0 1-1.289 1.595 12.06 12.06 0 0 1-2.204.985c-.829.281-1.696.578-2.603.891a9.81 9.81 0 0 0-2.462 1.242 6.565 6.565 0 0 0-1.852 2.017c-.5.828-.751 1.915-.751 3.259 0 1 .251 1.735.751 2.204.5.469 1.156.789 1.969.961.813.172 1.735.235 2.767.188a76.508 76.508 0 0 0 3.165-.211 43.822 43.822 0 0 1 3.166-.164c1.032-.016 1.954.109 2.767.375.812.266 1.461.695 1.946 1.289.484.594.727 1.47.727 2.627 0 .5-.165 1.141-.493 1.922a18.603 18.603 0 0 1-1.313 2.509 22.32 22.32 0 0 1-1.922 2.65 22.21 22.21 0 0 1-2.298 2.368 14.442 14.442 0 0 1-2.392 1.735c-.797.453-1.54.68-2.227.68-.657 0-1.087-.235-1.29-.704a3.513 3.513 0 0 1-.305-1.406ZM1015.56 318.019c-.969-2.813-1.883-5.447-2.743-7.901-.86-2.454-1.61-4.862-2.251-7.222a65.339 65.339 0 0 1-1.524-7.198c-.375-2.439-.563-5.049-.563-7.832 0-.219.008-.617.024-1.196.015-.578.023-1.18.023-1.805s.008-1.227.024-1.805c.015-.579.023-.977.023-1.196.282-.626.774-1.204 1.477-1.735.704-.532 1.415-.798 2.134-.798 0 2.314.031 4.776.094 7.386.062 2.611.258 5.213.586 7.808.328 2.595.86 5.135 1.594 7.621.735 2.485 1.775 4.759 3.119 6.823.031-.751.062-1.579.094-2.486.031-.906.117-1.813.258-2.72.14-.906.367-1.782.68-2.626a6.68 6.68 0 0 1 1.383-2.251c.61-.656 1.407-1.172 2.392-1.547.984-.375 2.227-.547 3.728-.516 1.344 0 2.555.25 3.634.75a7.91 7.91 0 0 1 2.72 2.04 9.105 9.105 0 0 1 1.688 3.002c.391 1.141.586 2.352.586 3.634 0 1.719-.422 3.408-1.266 5.064a16.214 16.214 0 0 1-3.353 4.455 17.44 17.44 0 0 1-4.666 3.166c-1.719.797-3.47 1.196-5.252 1.196a7.187 7.187 0 0 1-2.626-.493 4.195 4.195 0 0 1-2.017-1.618Zm11.114-17.116c-.625.344-1.281.75-1.969 1.219-.688.469-1.321 1.196-1.899 2.181-.579.985-1.071 2.321-1.478 4.009-.406 1.688-.656 3.924-.75 6.706l1.032.094c.844 0 1.805-.266 2.884-.797a18.772 18.772 0 0 0 3.142-1.97 14.894 14.894 0 0 0 2.649-2.603c.751-.953 1.204-1.867 1.36-2.743.094-.531-.015-1.141-.328-1.829a9.362 9.362 0 0 0-1.243-1.993 8.648 8.648 0 0 0-1.688-1.618c-.61-.437-1.18-.656-1.712-.656ZM1036.81 295.791c0-.281.007-.57.023-.867.016-.297.078-.579.188-.844.109-.266.265-.469.469-.61.203-.141.508-.211.914-.211h.281a.782.782 0 0 0 .235.047c.594.813 1.11 1.852 1.547 3.118.438 1.267.86 2.611 1.267 4.033.406 1.423.844 2.861 1.313 4.315.469 1.453 1.078 2.759 1.829 3.915.75 1.157 1.672 2.079 2.766 2.767 1.095.688 2.454.985 4.08.891.719 0 1.188-.391 1.407-1.172.219-.782.336-1.782.352-3.001a62.11 62.11 0 0 0-.094-4.033 37.644 37.644 0 0 1 0-4.197c.078-1.329.313-2.494.703-3.494.391-1.001 1.071-1.673 2.04-2.017.407.813.743 2.087 1.008 3.822.266 1.735.462 3.736.587 6.003.125 2.266.187 4.721.187 7.362 0 2.642-.062 5.268-.187 7.879-.125 2.61-.313 5.119-.563 7.526-.25 2.407-.532 4.518-.844 6.331-.313 1.813-.68 3.243-1.102 4.291-.422 1.047-.868 1.493-1.337 1.336-.656-.625-1.164-1.438-1.524-2.438-.359-1.001-.609-2.111-.75-3.33a27.97 27.97 0 0 1-.164-3.869c.031-1.36.086-2.727.164-4.103.078-1.375.172-2.72.281-4.033.11-1.313.164-2.516.164-3.611-1.125.094-2.274-.078-3.446-.516-1.173-.437-2.322-1.117-3.447-2.039-1.126-.923-2.196-2.04-3.212-3.353-1.016-1.313-1.907-2.798-2.673-4.455a27.105 27.105 0 0 1-1.806-5.37c-.437-1.922-.656-3.947-.656-6.073Z" style="fill-rule:nonzero"/><path d="M1049.61 334.808c.906 0 1.735.234 2.485.703.751.469 1.54.977 2.368 1.524a23.402 23.402 0 0 0 2.697 1.524c.969.469 2.094.704 3.376.704a14.38 14.38 0 0 0 3.752-.493 10.49 10.49 0 0 0 3.282-1.5 7.606 7.606 0 0 0 2.345-2.627c.594-1.078.891-2.352.891-3.821a51.59 51.59 0 0 0-.586-7.597 97.78 97.78 0 0 0-1.501-7.855 163.544 163.544 0 0 0-1.969-7.621c-.704-2.469-1.352-4.752-1.946-6.846 0-.031-.016-.11-.047-.235a1.448 1.448 0 0 1-.047-.234c0-.625.219-1.055.656-1.29a2.941 2.941 0 0 1 1.407-.351l1.032.093a150.289 150.289 0 0 1 2.743 7.48c.86 2.548 1.618 5.135 2.275 7.761a77.557 77.557 0 0 1 1.547 7.902c.375 2.642.563 5.26.563 7.855 0 2.032-.352 3.876-1.055 5.533-.704 1.657-1.681 3.064-2.931 4.221-1.251 1.156-2.743 2.047-4.479 2.673-1.735.625-3.618.938-5.65.938a18.33 18.33 0 0 1-4.01-.446 11.883 11.883 0 0 1-3.611-1.43 7.678 7.678 0 0 1-2.602-2.603c-.657-1.078-.985-2.399-.985-3.962Zm11.02-47.458v-.562c0-.282.031-.571.094-.868.062-.297.172-.555.328-.774.156-.219.391-.328.704-.328.531 0 .937.07 1.219.211.281.141.484.313.609.516s.204.453.235.75.047.633.047 1.008c0 .251-.016.532-.047.845a4.087 4.087 0 0 1-.188.891c-.093.281-.25.508-.469.68-.218.171-.515.257-.891.257-.375 0-.672-.086-.891-.257a1.62 1.62 0 0 1-.492-.634 2.787 2.787 0 0 1-.211-.844 9.032 9.032 0 0 1-.047-.891ZM1083.84 317.926c.5-.344 1.102-.79 1.805-1.337a50.29 50.29 0 0 0 2.134-1.758 24.087 24.087 0 0 0 2.016-1.97c.626-.688 1.118-1.352 1.478-1.993.359-.641.539-1.243.539-1.805 0-.563-.281-1.032-.844-1.407-1.001 0-2.095.039-3.283.117a45.592 45.592 0 0 1-3.564.094 22.554 22.554 0 0 1-3.447-.305c-1.109-.188-2.102-.532-2.977-1.032-.876-.5-1.571-1.211-2.087-2.133-.516-.923-.774-2.103-.774-3.541 0-1.688.321-3.212.961-4.572a12.519 12.519 0 0 1 2.556-3.611 19.053 19.053 0 0 1 3.588-2.767 31.286 31.286 0 0 1 4.009-2.04c.813.219 1.563.61 2.251 1.173a10.07 10.07 0 0 1 1.782 1.875 2.77 2.77 0 0 1-1.29 1.595 12 12 0 0 1-2.204.985c-.828.281-1.696.578-2.602.891a9.793 9.793 0 0 0-2.462 1.242 6.58 6.58 0 0 0-1.853 2.017c-.5.828-.75 1.915-.75 3.259 0 1 .25 1.735.75 2.204.501.469 1.157.789 1.97.961.813.172 1.735.235 2.767.188a76.624 76.624 0 0 0 3.165-.211 43.822 43.822 0 0 1 3.166-.164c1.031-.016 1.953.109 2.766.375s1.462.695 1.946 1.289c.485.594.727 1.47.727 2.627 0 .5-.164 1.141-.492 1.922a18.603 18.603 0 0 1-1.313 2.509 22.219 22.219 0 0 1-1.923 2.65c-.734.875-1.5 1.664-2.298 2.368a14.395 14.395 0 0 1-2.391 1.735c-.797.453-1.54.68-2.228.68-.656 0-1.086-.235-1.289-.704a3.496 3.496 0 0 1-.305-1.406ZM1103.54 316.237c1.406 0 2.11.735 2.11 2.204-.344.907-.782 1.509-1.313 1.806-.532.297-1.024.406-1.477.328-.454-.078-.86-.305-1.22-.68-.359-.375-.555-.797-.586-1.266-.031-.469.141-.93.516-1.383.375-.454 1.032-.79 1.97-1.009ZM1107.66 305.921c0-1.313.289-2.689.868-4.127a14.739 14.739 0 0 1 2.321-3.916 13.608 13.608 0 0 1 3.353-2.931c1.266-.781 2.603-1.172 4.009-1.172.72 0 1.439.125 2.158.375a6.41 6.41 0 0 1 1.946 1.079 5.646 5.646 0 0 1 1.407 1.688c.359.656.539 1.391.539 2.204a5.729 5.729 0 0 1-1.524-.188 13.34 13.34 0 0 1-1.337-.445 15.699 15.699 0 0 0-1.289-.446 4.855 4.855 0 0 0-1.384-.187c-1.281 0-2.321.32-3.118.961a6.916 6.916 0 0 0-1.899 2.415c-.469.969-.79 2.009-.962 3.119a20.412 20.412 0 0 0-.258 3.118c0 .156.008.453.024.891l.094 2.767c.015.438.039.735.07.891.344.75.68 1.329 1.008 1.735.328.406.68.711 1.055.914.375.204.782.329 1.22.376.437.046.953.07 1.547.07.813 0 1.524-.125 2.134-.375a10.41 10.41 0 0 0 1.711-.891 11.902 11.902 0 0 0 1.501-1.149 15.26 15.26 0 0 1 1.477-1.173 7.961 7.961 0 0 1 1.688-.891c.61-.234 1.306-.351 2.087-.351 0 1.532-.273 2.892-.82 4.08a8.84 8.84 0 0 1-2.298 3.048c-.985.844-2.142 1.493-3.47 1.946-1.329.453-2.775.68-4.338.68-1.47 0-2.79-.5-3.963-1.501-1.172-1-2.173-2.227-3.001-3.681a19.549 19.549 0 0 1-1.899-4.619c-.438-1.626-.657-3.064-.657-4.314ZM1130.74 310.516c0-1.938.454-3.743 1.36-5.416a14.228 14.228 0 0 1 3.588-4.314 17.566 17.566 0 0 1 5.017-2.837 16.183 16.183 0 0 1 5.651-1.032c1.063 0 2.009.344 2.837 1.032a9.069 9.069 0 0 1 2.087 2.508c.563.985.993 2.025 1.29 3.119.297 1.094.445 2.048.445 2.86 0 1.751-.422 3.447-1.266 5.088a15.978 15.978 0 0 1-3.283 4.362 16.998 16.998 0 0 1-4.548 3.071c-1.689.782-3.377 1.173-5.065 1.173-1.501 0-2.767-.258-3.798-.774-1.032-.516-1.861-1.204-2.486-2.063-.625-.86-1.086-1.876-1.383-3.049a15.13 15.13 0 0 1-.446-3.728Zm3.986.469c0 .813.071 1.524.211 2.134.141.61.391 1.133.751 1.571.359.438.836.774 1.43 1.008.594.235 1.329.352 2.204.352 1.157 0 2.313-.321 3.47-.962a12.638 12.638 0 0 0 3.119-2.438 12.715 12.715 0 0 0 2.227-3.259c.563-1.188.844-2.345.844-3.47 0-.501-.047-1.048-.14-1.642a6.717 6.717 0 0 0-.469-1.641 3.45 3.45 0 0 0-.938-1.266c-.407-.344-.923-.516-1.548-.516-.562 0-1.227.188-1.993.563-.766.375-1.563.859-2.391 1.453a23.765 23.765 0 0 0-2.439 2.017 32.57 32.57 0 0 0-2.181 2.251c-.656.75-1.18 1.469-1.57 2.157-.391.688-.587 1.251-.587 1.688ZM1153.81 300.34c0-.781.133-1.391.399-1.829.266-.437.836-.656 1.712-.656l1.031.047c.219.969.446 2.024.68 3.165.235 1.141.508 2.29.821 3.447a51.129 51.129 0 0 0 1.055 3.423 15.255 15.255 0 0 0 1.43 3.048 5.274 5.274 0 0 0 1.22-2.11c.25-.813.437-1.634.562-2.462.125-.828.243-1.626.352-2.392.109-.766.336-1.422.68-1.969.344-.547.852-.946 1.524-1.196s1.602-.25 2.79 0c1.313 0 2.361.242 3.142.727a7.806 7.806 0 0 1 2.04 1.829 34.387 34.387 0 0 1 1.688 2.344 9.35 9.35 0 0 0 2.087 2.228l.704-1.524c.281-.61.633-1.251 1.055-1.923a37.75 37.75 0 0 1 1.36-2.016c.484-.672.992-1.282 1.524-1.829a9.188 9.188 0 0 1 1.641-1.36c.563-.36 1.11-.539 1.641-.539 1.282 0 2.392.398 3.33 1.195.938.798 1.743 1.798 2.415 3.002.672 1.203 1.227 2.548 1.665 4.033a41.567 41.567 0 0 1 1.031 4.29c.25 1.376.43 2.634.54 3.775.109 1.142.164 1.962.164 2.462 0 .407-.094.719-.282.938a1.743 1.743 0 0 1-.703.493 3.44 3.44 0 0 1-.914.211 9.808 9.808 0 0 1-.915.047c-.062 0-.156-.008-.281-.024a5.677 5.677 0 0 1-.422-.07 15.359 15.359 0 0 1-.516-.141l-3.048-14.021c0-.094-.125-.274-.375-.54-.251-.265-.438-.429-.563-.492a.529.529 0 0 1-.235-.047.335.335 0 0 1-.14-.023.208.208 0 0 0-.094-.024c-.657 0-1.274.266-1.852.797-.579.532-1.118 1.204-1.618 2.017a21.964 21.964 0 0 0-1.407 2.72c-.438 1-.829 1.993-1.173 2.978-.343.984-.648 1.891-.914 2.719a67.935 67.935 0 0 1-.633 1.9c-.125.062-.375.117-.75.164-.376.047-.626.07-.751.07-.875 0-1.547-.305-2.016-.914-.469-.61-.852-1.368-1.149-2.275a23.587 23.587 0 0 1-.75-2.977 23.728 23.728 0 0 0-.751-2.978c-.297-.907-.703-1.665-1.219-2.275-.516-.609-1.243-.914-2.181-.914-.343 0-.672.344-.984 1.032-.313.687-.594 1.555-.844 2.602a62.747 62.747 0 0 0-.704 3.377 74.22 74.22 0 0 0-.539 3.376 58.8 58.8 0 0 0-.305 2.65 422.24 422.24 0 0 1-.094 1.078c-.062.094-.187.196-.375.305-.187.109-.383.227-.586.352a2.617 2.617 0 0 1-.61.281 1.702 1.702 0 0 1-.445.094c-.876 0-1.72-.399-2.532-1.196-.813-.797-1.556-1.829-2.228-3.095a31.644 31.644 0 0 1-1.829-4.197 50.681 50.681 0 0 1-1.383-4.502 51.087 51.087 0 0 1-.868-3.986c-.203-1.188-.305-2.095-.305-2.72Z" style="fill-rule:nonzero"/></g><g><path d="M1067.05 164.679h14.965v51.604h-14.449v-6.709c-5.16 7.741-11.868 8.257-15.997 8.257-15.997 0-26.317-12.385-26.317-27.35 0-15.481 10.32-27.35 25.285-27.35 4.128 0 11.869.516 16.513 8.257v-6.709Zm-26.317 25.802c0 8.256 5.676 14.449 14.448 14.449 8.257 0 14.449-6.193 14.449-14.449 0-8.257-5.676-14.449-14.449-14.449-8.256 0-14.448 6.192-14.448 14.449Zm69.664-13.417v39.219h-14.449v-39.219h-5.676v-12.385h5.676v-17.545h14.449v17.545h9.805v12.385h-9.805Zm43.863 0c-3.613-3.096-6.709-3.612-8.257-3.612-3.612 0-5.676 1.548-5.676 4.128 0 1.548.516 3.096 4.644 4.644l3.612 1.033c4.129 1.548 10.321 3.096 12.901 7.224 1.548 2.064 2.58 5.16 2.58 8.772 0 4.645-1.548 9.289-5.676 12.901-4.128 3.613-9.289 5.677-15.481 5.677-10.837 0-16.513-5.161-20.125-8.773l7.74-8.772c3.096 3.096 7.225 6.192 11.353 6.192s7.224-2.064 7.224-5.676c0-3.097-2.58-4.645-4.644-5.161l-3.096-1.032c-3.612-1.548-7.741-3.096-10.837-6.192-2.58-2.58-4.128-5.677-4.128-9.805 0-5.16 2.58-9.288 5.16-11.869 4.128-3.096 9.289-3.612 13.417-3.612 3.612 0 9.805.516 16.513 5.677l-7.224 8.256Zm31.478-5.676c5.16-7.225 12.384-8.257 16.513-8.257 14.965 0 25.285 11.869 25.285 27.35 0 15.481-10.32 27.35-25.801 27.35-3.097 0-10.837-.516-16.513-8.257v6.709h-13.933v-86.694h14.449v41.799Zm-1.549 19.093c0 8.256 5.677 14.449 14.449 14.449 8.257 0 14.449-6.193 14.449-14.449 0-8.257-5.676-14.449-14.449-14.449-8.772 0-14.449 6.192-14.449 14.449Zm67.085 18.061-24.77-43.863h17.029l15.997 29.414 14.449-29.414h16.513l-41.283 78.953h-16.513l18.578-35.09Zm-229.635-35.09h-36.122v14.449h19.093c-3.096 9.804-10.32 16.513-23.737 16.513-14.965 0-25.802-12.385-25.802-27.35 0-14.965 10.321-27.866 25.286-27.866 8.256 0 16.513 4.129 21.673 10.837l11.869-7.74c-7.741-10.837-20.125-17.029-33.542-17.029-22.706 0-41.283 18.577-41.283 41.798 0 23.222 17.545 41.799 41.283 41.799 23.737 0 41.282-18.577 41.282-41.799.516-1.548 0-2.58 0-3.612Z" style="fill-rule:nonzero"/><path d="M871.986 175h-36.122v10.321h24.769c-3.612 15.481-14.964 28.381-29.929 33.542l-59.344-59.344c6.192-18.061 23.737-30.962 43.863-30.962 15.481 0 29.413 7.741 38.186 19.609l7.741-6.708c-10.321-13.933-26.834-23.222-45.927-23.222-26.834 0-49.539 19.094-55.216 44.379l68.116 68.116c24.77-6.192 43.863-28.897 43.863-55.731Zm-113.527.516c0 14.449 5.677 28.382 16.513 39.218 10.837 10.837 25.286 16.513 39.219 16.513l-55.732-55.731Z" style="fill:#fff;fill-rule:nonzero"/><path d="M815.223 102.756c-39.735 0-72.245 32.51-72.245 72.244s32.51 72.244 72.245 72.244c39.734 0 72.244-32.51 72.244-72.244s-32.51-72.244-72.244-72.244ZM774.972 215.25c-10.836-10.836-16.513-25.285-16.513-39.218l56.248 55.732c-14.449-.517-28.898-5.677-39.735-16.514Zm52.635 14.965-67.6-67.6c5.677-25.285 28.382-44.379 55.216-44.379 19.093 0 35.606 9.289 45.927 23.222l-7.741 6.708c-8.773-11.868-22.705-19.609-38.186-19.609-20.126 0-37.155 12.901-43.863 30.962l59.344 59.344c14.965-5.161 26.317-18.061 29.929-33.542h-24.769V175h36.122c0 26.834-19.093 49.539-44.379 55.215Z" style="fill:#639;fill-rule:nonzero"/></g><g><path d="M1587.84 309.636c0-.812.203-1.398.61-1.757.406-.36 1.062-.539 1.968-.539h.469l.328 1.734c.125.656.313 1.328.563 2.016.25.687.547 1.32.89 1.898a4.34 4.34 0 0 0 1.266 1.383 7.383 7.383 0 0 1 .82-3.164 11.269 11.269 0 0 1 1.922-2.719 11.982 11.982 0 0 1 2.532-2.016c.921-.546 1.835-.914 2.742-1.101h1.031c1.5 0 2.781.336 3.844 1.008a8.666 8.666 0 0 1 2.648 2.625c.703 1.078 1.242 2.304 1.617 3.679s.664 2.774.868 4.196c.203 1.422.328 2.797.375 4.125.046 1.328.07 2.461.07 3.398h-3.422a87.648 87.648 0 0 0-.703-5.391 34.018 34.018 0 0 0-.375-2.179 30.759 30.759 0 0 0-.516-2.156 21.774 21.774 0 0 0-.609-1.875 6.849 6.849 0 0 0-.75-1.477l-1.125-1.172a9.027 9.027 0 0 0-.61-.562c-.187-.157-.296-.235-.328-.235-.937-.25-1.75-.07-2.437.539-.688.61-1.297 1.43-1.828 2.461-.532 1.031-.961 2.203-1.289 3.516a59.617 59.617 0 0 0-.821 3.773 43.046 43.046 0 0 0-.468 3.141c-.094.891-.157 1.43-.188 1.617-.781.563-1.516.727-2.203.492-.688-.234-1.336-.726-1.945-1.476-.61-.75-1.157-1.688-1.641-2.813a39.914 39.914 0 0 1-1.336-3.586 66.381 66.381 0 0 1-1.101-3.82 137.733 137.733 0 0 1-.868-3.563ZM1614.98 312.402c0-1.687.203-3.375.609-5.062.407-1.688 1.055-3.204 1.946-4.547a10.573 10.573 0 0 1 3.468-3.282c1.422-.843 3.149-1.265 5.18-1.265 1.156 0 2.172.211 3.047.633a6.727 6.727 0 0 1 2.203 1.664 6.86 6.86 0 0 1 1.336 2.414c.297.922.445 1.883.445 2.883 0 1.593-.367 3.14-1.101 4.64a13.34 13.34 0 0 1-2.953 3.961 12.433 12.433 0 0 1-4.243 2.578 9.105 9.105 0 0 1-4.875.399c.032.906.336 1.633.915 2.179a5.716 5.716 0 0 0 2.085 1.243c.813.281 1.657.461 2.532.539.875.078 1.656.117 2.343.117.719 0 1.391-.063 2.016-.188s1.25-.265 1.875-.422a37.397 37.397 0 0 1 1.899-.421c.64-.125 1.32-.188 2.039-.188.281 0 .562.016.843.047.282.031.547.102.797.211s.453.281.61.516c.156.234.234.523.234.867 0 .593-.219 1.086-.656 1.476-.438.391-.992.727-1.664 1.008-.672.281-1.414.492-2.227.633-.812.141-1.601.25-2.367.328a27.81 27.81 0 0 1-2.109.141c-.641.015-1.118.023-1.43.023-2 0-3.797-.32-5.391-.961-1.594-.64-2.937-1.531-4.031-2.672-1.094-1.14-1.93-2.515-2.508-4.125-.578-1.609-.867-3.398-.867-5.367Zm4.969-3.047c0 1.094.148 1.891.445 2.391.297.5 1.023.75 2.18.75.812 0 1.609-.149 2.39-.445a7.452 7.452 0 0 0 2.133-1.243 6.049 6.049 0 0 0 1.524-1.875c.375-.718.562-1.5.562-2.343 0-.469-.039-.954-.117-1.454-.078-.5-.242-.96-.492-1.382a3.214 3.214 0 0 0-.961-1.032c-.391-.265-.899-.398-1.524-.398-.937 0-1.789.211-2.554.633a6.391 6.391 0 0 0-1.946 1.64 7.474 7.474 0 0 0-1.218 2.25 7.736 7.736 0 0 0-.422 2.508ZM1640.11 301.808c0-.093.016-.172.047-.234 0-.063.015-.141.047-.234.125-.157.312-.36.562-.61.25-.25.406-.375.469-.375h9.422c0-.344-.047-.89-.141-1.64a66.915 66.915 0 0 1-.258-2.485 24.197 24.197 0 0 1-.07-2.836c.031-.984.164-1.875.399-2.672.234-.796.609-1.453 1.125-1.968.515-.516 1.242-.774 2.179-.774 0 3.156.219 5.688.656 7.594.438 1.906 1.024 3.375 1.758 4.406.735 1.031 1.571 1.703 2.508 2.016a7.869 7.869 0 0 0 2.883.398 13.7 13.7 0 0 0 2.883-.445 19.43 19.43 0 0 1 2.508-.516c.734-.093 1.32-.023 1.757.211.438.235.657.789.657 1.664 0 .657-.149 1.125-.446 1.407-.297.281-.867.5-1.711.656-.25.031-.664.086-1.242.164-.578.078-1.226.148-1.945.211l-4.594.422a33.61 33.61 0 0 1-1.969.117c-.593.016-1.031.023-1.312.023l-.094 1.547c0 1.375.219 2.711.656 4.008a72.005 72.005 0 0 0 1.43 3.867 76.71 76.71 0 0 1 1.43 3.844c.437 1.281.656 2.609.656 3.984 0 .25-.023.508-.07.774-.047.265-.141.5-.282.703-.14.203-.343.359-.609.469-.266.109-.633.086-1.102-.071-1.187-.312-2.07-.984-2.648-2.015-.578-1.032-1.008-2.258-1.289-3.68a33.523 33.523 0 0 1-.563-4.523 52.057 52.057 0 0 0-.445-4.477c-.203-1.391-.523-2.578-.961-3.562-.437-.985-1.14-1.586-2.109-1.805l-9.047-2.063c-.125 0-.313-.132-.563-.398-.25-.266-.406-.461-.468-.586a.514.514 0 0 1-.047-.234.662.662 0 0 1-.047-.282ZM1672.4 298.902c0-.906-.063-1.789-.188-2.648-.125-.86-.156-1.625-.093-2.297.062-.672.304-1.211.726-1.617.422-.407 1.195-.61 2.32-.61.344.719.68 1.813 1.008 3.281.328 1.469.649 3.157.961 5.063.313 1.906.61 3.977.891 6.211.281 2.234.539 4.476.773 6.726.235 2.25.438 4.461.61 6.633.172 2.172.304 4.149.398 5.93-1.031.687-1.859.734-2.484.141-.625-.594-1.141-1.602-1.547-3.024-.406-1.422-.719-3.156-.938-5.203a451.095 451.095 0 0 1-.632-6.375 171.82 171.82 0 0 0-.727-6.516c-.281-2.14-.641-4.039-1.078-5.695ZM1684.22 307.855c0-.187.008-.492.024-.914l.094-2.695c.015-.438.023-.75.023-.938.344-.5.789-.906 1.336-1.218a9.164 9.164 0 0 1 1.664-.75c.094 1.687.359 3.484.797 5.39.437 1.906.906 3.821 1.406 5.742.5 1.922.945 3.821 1.336 5.696.391 1.875.586 3.625.586 5.25 0 1.406-.719 2.109-2.156 2.109-.875 0-1.61-.359-2.203-1.078-.594-.719-1.071-1.633-1.43-2.742a24.84 24.84 0 0 1-.867-3.703 40.525 40.525 0 0 1-.446-4.008 79.718 79.718 0 0 1-.14-3.61 185.38 185.38 0 0 1-.024-2.531Zm.657-17.578c.593.25 1.093.656 1.5 1.219.406.562.586 1.07.539 1.523-.047.453-.399.766-1.055.938-.656.172-1.75-.008-3.281-.539 0-.844.164-1.578.492-2.203.328-.625.93-.938 1.805-.938ZM1712.39 329.793c-.656-1.219-1.383-2.742-2.179-4.571a664.93 664.93 0 0 1-2.461-5.718 132.08 132.08 0 0 0-2.649-5.836c-.922-1.907-1.851-3.563-2.789-4.969-.375-.281-.891-.453-1.547-.516a17.73 17.73 0 0 0-2.062-.07c-.719.016-1.43 0-2.133-.047-.703-.047-1.313-.211-1.828-.492-.516-.281-.899-.719-1.149-1.313-.25-.593-.297-1.453-.14-2.578h7.875c.156-1.75.422-3.484.797-5.203a29.526 29.526 0 0 1 1.523-4.922 24.225 24.225 0 0 1 2.32-4.359c.907-1.344 2-2.5 3.282-3.469 1.281-.969 2.757-1.734 4.429-2.297 1.672-.562 3.571-.843 5.696-.843.75 0 1.5.179 2.25.539.75.359 1.421.836 2.015 1.429a7.276 7.276 0 0 1 1.43 2.016c.359.75.539 1.5.539 2.25-.594 0-1.125-.117-1.594-.352a11.88 11.88 0 0 1-1.359-.796 15.111 15.111 0 0 0-1.406-.844 3.538 3.538 0 0 0-1.688-.399c-1.875 0-3.617.375-5.226 1.125-1.61.75-3.016 1.75-4.219 3a13.9 13.9 0 0 0-2.836 4.36 13.547 13.547 0 0 0-1.031 5.25c0 .125.007.351.023.679l.047 2.133c.016.344.023.578.023.703 1.157.375 2.453.657 3.891.844 1.437.188 2.883.305 4.336.352a53.69 53.69 0 0 0 4.219-.024c1.359-.062 2.57-.14 3.632-.234l.516.515c.25.25.391.438.422.563 0 .094.016.156.047.187l.094.282c0 .656-.344 1.172-1.032 1.547-.687.375-1.562.648-2.625.82a31.735 31.735 0 0 1-3.539.351c-1.297.063-2.547.118-3.75.165a75.182 75.182 0 0 0-3.234.187c-.953.078-1.617.227-1.992.445.406 1.875 1.133 3.688 2.179 5.438 1.047 1.75 2.118 3.5 3.211 5.25a51.92 51.92 0 0 1 2.907 5.297c.843 1.781 1.265 3.609 1.265 5.484-.125 0-.414.008-.867.024a9.05 9.05 0 0 1-1.43-.071 4.969 4.969 0 0 1-1.429-.398c-.453-.203-.711-.508-.774-.914ZM1725.61 301.199c0-.281.008-.57.023-.867.016-.297.079-.578.188-.844s.266-.469.469-.609c.203-.141.507-.211.914-.211h.281a.782.782 0 0 0 .234.047c.594.812 1.11 1.851 1.547 3.117.438 1.265.86 2.609 1.266 4.031a135.48 135.48 0 0 0 1.312 4.313c.469 1.453 1.078 2.757 1.828 3.914.75 1.156 1.672 2.078 2.766 2.765 1.094.688 2.453.985 4.078.891.719 0 1.188-.391 1.406-1.172.219-.781.336-1.781.352-3a61.347 61.347 0 0 0-.094-4.031 37.626 37.626 0 0 1 0-4.196c.078-1.328.313-2.492.703-3.492.391-1 1.071-1.672 2.039-2.015.407.812.743 2.086 1.008 3.82.266 1.734.461 3.734.586 6 .125 2.266.188 4.719.188 7.359 0 2.641-.063 5.266-.188 7.875-.125 2.61-.312 5.117-.562 7.524-.25 2.406-.532 4.515-.844 6.328-.313 1.812-.68 3.242-1.102 4.289-.421 1.047-.867 1.492-1.336 1.336-.656-.625-1.164-1.438-1.523-2.438-.359-1-.609-2.109-.75-3.328a28.103 28.103 0 0 1-.164-3.867c.031-1.359.086-2.727.164-4.102.078-1.375.172-2.718.281-4.031.11-1.312.164-2.515.164-3.609-1.125.094-2.273-.078-3.445-.516-1.172-.437-2.32-1.117-3.445-2.039-1.125-.922-2.196-2.039-3.211-3.351-1.016-1.313-1.906-2.797-2.672-4.454a27.074 27.074 0 0 1-1.805-5.367 27.307 27.307 0 0 1-.656-6.07ZM1755.09 321.636c1.407 0 2.11.735 2.11 2.204-.344.906-.782 1.507-1.313 1.804-.531.297-1.023.407-1.476.328-.453-.078-.86-.304-1.219-.679-.359-.375-.555-.797-.586-1.266-.031-.469.141-.93.516-1.383.375-.453 1.031-.789 1.968-1.008ZM1759.22 311.324c0-1.313.289-2.688.868-4.125a14.709 14.709 0 0 1 2.32-3.914 13.593 13.593 0 0 1 3.351-2.93c1.266-.781 2.602-1.172 4.008-1.172.719 0 1.438.125 2.156.375.719.25 1.368.61 1.946 1.078a5.64 5.64 0 0 1 1.406 1.688c.359.656.539 1.391.539 2.203-.562 0-1.07-.062-1.523-.187a13.329 13.329 0 0 1-1.336-.446c-.438-.172-.867-.32-1.289-.445a4.853 4.853 0 0 0-1.383-.188c-1.281 0-2.32.321-3.117.961a6.921 6.921 0 0 0-1.899 2.414 10.966 10.966 0 0 0-.961 3.118 20.4 20.4 0 0 0-.258 3.117c0 .156.008.453.024.89l.094 2.766c.015.438.039.734.07.891.344.75.68 1.328 1.008 1.734.328.406.679.711 1.054.914.375.203.782.328 1.219.375.438.047.953.07 1.547.07.813 0 1.524-.125 2.133-.375s1.18-.546 1.711-.89a11.964 11.964 0 0 0 1.5-1.149 15.35 15.35 0 0 1 1.476-1.171 7.871 7.871 0 0 1 1.688-.891c.609-.234 1.305-.352 2.086-.352 0 1.532-.274 2.891-.82 4.078a8.824 8.824 0 0 1-2.297 3.047c-.985.844-2.141 1.493-3.469 1.946-1.328.453-2.774.679-4.336.679-1.469 0-2.789-.5-3.961-1.5-1.172-1-2.172-2.226-3-3.679a19.539 19.539 0 0 1-1.898-4.618c-.438-1.625-.657-3.062-.657-4.312ZM1782.28 315.918c0-1.938.453-3.742 1.359-5.414a14.23 14.23 0 0 1 3.586-4.313 17.605 17.605 0 0 1 5.016-2.836 16.184 16.184 0 0 1 5.648-1.031c1.063 0 2.008.344 2.836 1.031a9.08 9.08 0 0 1 2.086 2.508c.563.984.992 2.023 1.289 3.117.297 1.094.445 2.047.445 2.86 0 1.75-.421 3.445-1.265 5.086a16.028 16.028 0 0 1-3.281 4.359 17.006 17.006 0 0 1-4.547 3.07c-1.688.781-3.375 1.172-5.063 1.172-1.5 0-2.765-.258-3.797-.773-1.031-.516-1.859-1.203-2.484-2.063-.625-.859-1.086-1.875-1.383-3.047a15.12 15.12 0 0 1-.445-3.726Zm3.984.468c0 .813.071 1.524.211 2.133.141.61.391 1.133.75 1.571.36.437.836.773 1.43 1.007.594.235 1.328.352 2.203.352 1.156 0 2.312-.32 3.469-.961a12.671 12.671 0 0 0 3.117-2.437 12.698 12.698 0 0 0 2.226-3.258c.563-1.188.844-2.344.844-3.469 0-.5-.047-1.047-.14-1.641a6.678 6.678 0 0 0-.469-1.64 3.438 3.438 0 0 0-.938-1.266c-.406-.344-.922-.516-1.547-.516-.562 0-1.226.188-1.992.563-.765.375-1.562.859-2.39 1.453a23.851 23.851 0 0 0-2.438 2.016 32.54 32.54 0 0 0-2.18 2.25c-.656.75-1.179 1.468-1.57 2.156-.39.687-.586 1.25-.586 1.687ZM1805.34 305.746c0-.781.133-1.391.399-1.828.265-.438.836-.657 1.711-.657l1.031.047c.219.969.445 2.024.68 3.164.234 1.141.507 2.289.82 3.446a50.524 50.524 0 0 0 1.055 3.422c.39 1.125.867 2.14 1.429 3.046a5.261 5.261 0 0 0 1.219-2.109c.25-.812.438-1.633.563-2.461.125-.828.242-1.625.351-2.39.11-.766.336-1.422.68-1.969.344-.547.851-.946 1.523-1.196.672-.25 1.602-.25 2.789 0 1.313 0 2.36.243 3.141.727a7.832 7.832 0 0 1 2.039 1.828 34.99 34.99 0 0 1 1.688 2.344 9.334 9.334 0 0 0 2.085 2.226l.704-1.523c.281-.609.632-1.25 1.054-1.922a37.33 37.33 0 0 1 1.36-2.015c.484-.672.992-1.282 1.523-1.829.531-.546 1.078-1 1.641-1.359.562-.359 1.109-.539 1.64-.539 1.282 0 2.391.398 3.328 1.195.938.797 1.743 1.797 2.415 3 .671 1.203 1.226 2.547 1.664 4.032a41.489 41.489 0 0 1 1.031 4.289c.25 1.375.43 2.632.539 3.773.109 1.141.164 1.961.164 2.461 0 .406-.094.719-.281.937a1.75 1.75 0 0 1-.703.493 3.45 3.45 0 0 1-.914.211 9.772 9.772 0 0 1-.915.046c-.062 0-.156-.007-.281-.023a6.358 6.358 0 0 1-.422-.07 17.457 17.457 0 0 1-.515-.141l-3.047-14.016c0-.093-.125-.273-.375-.539-.25-.265-.438-.429-.563-.492a.51.51 0 0 1-.234-.047.324.324 0 0 1-.141-.023.201.201 0 0 0-.093-.024c-.657 0-1.274.266-1.852.797-.578.532-1.117 1.203-1.617 2.016-.5.812-.969 1.719-1.406 2.719-.438 1-.829 1.992-1.172 2.976-.344.985-.649 1.891-.914 2.719a67.354 67.354 0 0 1-.633 1.898c-.125.063-.375.118-.75.165-.375.046-.625.07-.75.07-.875 0-1.547-.305-2.016-.914-.469-.61-.851-1.367-1.148-2.274a23.57 23.57 0 0 1-.75-2.976 23.587 23.587 0 0 0-.75-2.977c-.297-.906-.703-1.664-1.219-2.273-.516-.61-1.242-.914-2.18-.914-.343 0-.672.343-.984 1.031-.313.687-.594 1.555-.844 2.602a74.187 74.187 0 0 0-1.242 6.75 58.59 58.59 0 0 0-.305 2.648l-.093 1.078c-.063.094-.188.195-.375.305a25.83 25.83 0 0 0-.586.351 2.683 2.683 0 0 1-.61.282 1.733 1.733 0 0 1-.445.093c-.875 0-1.719-.398-2.531-1.195-.813-.797-1.555-1.828-2.227-3.094a31.614 31.614 0 0 1-1.828-4.195 50.544 50.544 0 0 1-1.383-4.5 51.112 51.112 0 0 1-.867-3.984c-.203-1.188-.305-2.094-.305-2.719Z" style="fill-rule:nonzero"/></g><g><path d="m1600.89 151.351.4 7.143c4.559-5.525 10.546-8.287 17.955-8.287 12.84 0 19.376 7.371 19.603 22.112v40.844h-13.844v-40.045c0-3.922-.845-6.824-2.535-8.712-1.69-1.885-4.455-2.828-8.293-2.828-5.587 0-9.75 2.535-12.48 7.598v43.987h-13.851v-61.812h13.052-.007Zm79.225 62.956c-8.775 0-15.892-2.769-21.342-8.31-5.453-5.541-8.18-12.921-8.18-22.138v-1.712c0-6.169 1.187-11.684 3.562-16.539 2.373-4.855 5.71-8.635 10.003-11.342 4.293-2.701 9.08-4.052 14.365-4.052 8.394 0 14.884 2.684 19.46 8.053 4.582 5.372 6.87 12.967 6.87 22.794v5.6h-40.298c.422 5.102 2.119 9.138 5.102 12.108 2.983 2.971 6.737 4.456 11.257 4.456 6.344 0 11.511-2.567 15.502-7.712l7.465 7.143c-2.47 3.692-5.765 6.558-9.886 8.596-4.124 2.038-8.749 3.055-13.877 3.055h-.003Zm-1.651-52.953c-3.802 0-6.867 1.332-9.204 3.997-2.339 2.665-3.828 6.38-4.475 11.141h26.389v-1.03c-.305-4.648-1.54-8.158-3.705-10.54-2.167-2.379-5.167-3.568-9.005-3.568Zm54.484-25.024v15.024h10.887v10.283h-10.887v34.503c0 2.36.468 4.063 1.397 5.112.93 1.047 2.594 1.57 4.989 1.57a21.287 21.287 0 0 0 4.842-.572v10.741c-3.152.877-6.191 1.313-9.119 1.313-10.637 0-15.957-5.882-15.957-17.65v-35.021h-10.152v-10.282h10.146v-15.024h13.847l.007.003Zm36.193 76.836h-13.851V125.42h13.851v87.746Zm29.808 0h-13.851v-61.812h13.851v61.812Zm-14.706-77.866c0-2.129.673-3.9 2.022-5.31 1.352-1.407 3.279-2.113 5.784-2.113 2.509 0 4.446.706 5.818 2.113 1.365 1.41 2.047 3.181 2.047 5.313 0 2.093-.682 3.835-2.047 5.226-1.372 1.391-3.309 2.086-5.818 2.086-2.505 0-4.432-.695-5.784-2.086-1.349-1.388-2.022-3.133-2.022-5.226v-.003Zm34.653 77.866v-51.533h-9.405v-10.282h9.405v-5.655c0-6.857 1.898-12.148 5.697-15.882 3.803-3.731 9.119-5.596 15.957-5.596 2.434 0 5.018.341 7.754 1.027l-.341 10.854a27.309 27.309 0 0 0-5.3-.455c-6.614 0-9.919 3.406-9.919 10.224v5.483h12.538v10.282h-12.538v51.53h-13.848v.003Zm58.075-19.879 12.538-41.933h14.761l-24.504 71.182c-3.763 10.396-10.146 15.596-19.151 15.596-2.015 0-4.238-.345-6.669-1.031v-10.74l2.623.172c3.493 0 6.126-.637 7.894-1.914 1.764-1.274 3.162-3.416 4.189-6.425l1.992-5.314-21.657-61.526h14.933l13.051 41.933Z"/><path d="m1518.07 155.111-.045-.019c-.026-.01-.052-.02-.075-.043a.36.36 0 0 1-.091-.302l2.512-15.359 11.781 11.784-12.252 5.213a.263.263 0 0 1-.107.019h-.049a.31.31 0 0 1-.065-.055 5.586 5.586 0 0 0-1.609-1.238Zm17.088-.936 12.596 12.596c2.617 2.62 3.926 3.926 4.404 5.441.071.224.13.448.175.679l-30.103-12.749-.049-.02c-.12-.048-.26-.104-.26-.227 0-.124.143-.182.264-.231l.039-.016 12.934-5.473Zm16.662 22.759c-.65 1.222-1.917 2.489-4.062 4.637l-14.202 14.199-18.368-3.825-.098-.02c-.162-.026-.334-.055-.334-.201a5.546 5.546 0 0 0-2.129-3.877c-.075-.075-.055-.192-.033-.299 0-.017 0-.033.007-.046l3.454-21.208.013-.072c.02-.162.049-.351.195-.351a5.625 5.625 0 0 0 3.77-2.161c.03-.032.049-.068.088-.088.104-.048.228 0 .335.046l31.361 13.266h.003Zm-21.53 22.102-23.354 23.353 3.998-24.568.006-.033a.413.413 0 0 1 .02-.094c.032-.078.117-.111.198-.143l.039-.016a6.028 6.028 0 0 0 2.259-1.681c.078-.091.172-.178.292-.195a.296.296 0 0 1 .094 0l16.445 3.38.003-.003Zm-28.297 28.296-2.632 2.633-29.102-42.06-.033-.045c-.045-.062-.094-.124-.084-.195 0-.052.035-.098.071-.137l.033-.042c.087-.13.162-.26.243-.4l.065-.113.01-.01c.046-.078.088-.153.166-.195.068-.033.162-.02.237-.003l32.242 6.649c.09.014.175.051.247.107.042.042.052.088.062.14a5.712 5.712 0 0 0 3.34 3.818c.091.046.052.147.01.254a.835.835 0 0 0-.049.146c-.406 2.47-3.89 23.717-4.826 29.453Zm-5.498 5.496c-1.941 1.921-3.084 2.938-4.378 3.347a6.503 6.503 0 0 1-3.919 0c-1.515-.481-2.824-1.787-5.44-4.407l-29.226-29.225 7.634-11.84a.47.47 0 0 1 .13-.152c.081-.059.198-.033.295 0a7.916 7.916 0 0 0 5.324-.27c.087-.033.175-.055.243.006a.64.64 0 0 1 .091.104l29.246 42.44v-.003Zm-45.781-33.103-6.704-6.705 13.239-5.648a.268.268 0 0 1 .108-.022c.11 0 .175.11.234.211.133.204.274.404.422.598l.042.052c.039.055.013.11-.026.162l-7.312 11.352h-.003Zm-9.672-9.672-8.482-8.482c-1.443-1.443-2.489-2.489-3.217-3.389l25.791 5.349.097.016c.16.026.335.055.335.205 0 .162-.192.237-.354.299l-.075.032-14.095 5.97Zm-13.181-16.233c.03-.546.128-1.087.293-1.608.481-1.515 1.787-2.821 4.406-5.441l10.855-10.854a7174.172 7174.172 0 0 0 15.034 21.732c.087.117.185.247.084.344-.474.523-.949 1.095-1.284 1.716a.523.523 0 0 1-.162.202c-.042.026-.088.016-.137.006h-.006l-29.083-6.1v.003Zm18.459-20.808 14.589-14.595c1.374.601 6.37 2.71 10.832 4.595 3.379 1.43 6.46 2.73 7.429 3.152.097.039.185.078.227.176.026.058.013.133 0 .195a6.512 6.512 0 0 0 1.7 5.94c.097.098 0 .238-.085.358l-.045.068-14.819 22.954a.447.447 0 0 1-.14.162c-.078.049-.189.026-.28.004a7.402 7.402 0 0 0-1.764-.241c-.533 0-1.112.098-1.697.205h-.003c-.065.01-.124.023-.175-.016a.685.685 0 0 1-.147-.166l-15.625-22.791h.003Zm17.543-17.543 18.895-18.895c2.616-2.616 3.925-3.925 5.44-4.403a6.503 6.503 0 0 1 3.919 0c1.515.478 2.824 1.787 5.44 4.403l4.095 4.095-13.438 20.812a.5.5 0 0 1-.133.156c-.081.055-.195.033-.293 0a6.82 6.82 0 0 0-6.239 1.203c-.088.091-.218.039-.329-.01-1.755-.764-15.404-6.532-17.357-7.361Zm40.642-11.946 12.408 12.407-2.989 18.518v.049a.465.465 0 0 1-.026.123c-.033.065-.098.078-.163.098a5.932 5.932 0 0 0-1.781.887.572.572 0 0 0-.065.055c-.036.039-.071.075-.13.081a.373.373 0 0 1-.14-.022l-18.907-8.034-.036-.016c-.12-.049-.263-.107-.263-.231a7.13 7.13 0 0 0-1.008-2.973c-.091-.15-.191-.306-.113-.459l13.213-20.483Zm-12.778 27.968 17.725 7.507c.097.045.205.088.247.188a.346.346 0 0 1 0 .186c-.052.26-.098.555-.098.854v.498c0 .123-.126.175-.243.224l-.036.013c-2.808 1.199-39.421 16.811-39.476 16.811-.055 0-.114 0-.169-.055-.098-.098 0-.234.088-.358l.045-.065 14.566-22.553.026-.039c.084-.137.182-.29.338-.29l.146.023c.332.046.624.088.92.088a6.581 6.581 0 0 0 5.492-2.915.532.532 0 0 1 .111-.13c.087-.065.217-.033.318.013Zm-20.298 29.85 39.908-17.02s.058 0 .113.055c.218.218.403.364.582.501l.088.055c.081.046.162.098.169.182 0 .033 0 .052-.007.081l-3.418 21.001-.013.084c-.023.163-.046.348-.199.348a5.624 5.624 0 0 0-4.462 2.753l-.016.026c-.045.074-.088.146-.162.185-.069.032-.156.019-.228.003l-31.826-6.565c-.032-.006-.494-1.686-.529-1.689Z" style="fill:url(#_Radial1);fill-rule:nonzero"/></g><defs><radialGradient id="_Radial1" cx="0" cy="0" r="1" gradientUnits="userSpaceOnUse" gradientTransform="matrix(0 124.746 -143.55 0 1490.1 111.8)"><stop offset="0" style="stop-color:#20c6b7;stop-opacity:1"/><stop offset="1" style="stop-color:#4d9abf;stop-opacity:1"/></radialGradient></defs></svg>