<svg fill="currentColor" viewBox="0 0 2048 400" version="1.1" xmlns="http://www.w3.org/2000/svg"
     xml:space="preserve"
     style="fill-rule:evenodd;clip-rule:evenodd;stroke-linejoin:round;stroke-miterlimit:2;"><g><g><path d="M293.656,291.871c0.219,-0.75 0.477,-1.094 0.774,-1.031c0.297,0.062 0.664,0.421 1.101,1.078c0.438,0.656 0.93,1.531 1.477,2.625c0.547,1.093 1.133,2.273 1.758,3.539c0.625,1.265 1.304,2.554 2.039,3.867c0.734,1.312 1.5,2.516 2.297,3.609c0.796,1.094 1.64,2 2.531,2.719c0.89,0.719 1.805,1.141 2.742,1.266l3.75,-19.407c0.063,-0.531 0.305,-0.835 0.727,-0.914c0.421,-0.078 0.836,-0.117 1.242,-0.117c1.406,0 2.109,0.656 2.109,1.969c0,0.687 -0.062,1.781 -0.187,3.281c-0.125,1.5 -0.328,3.149 -0.61,4.946c-0.281,1.796 -0.625,3.64 -1.031,5.531c-0.406,1.89 -0.891,3.617 -1.453,5.179c-0.563,1.563 -1.211,2.844 -1.945,3.844c-0.735,1 -1.539,1.5 -2.414,1.5c-1.282,0 -2.547,-0.429 -3.797,-1.289c-1.25,-0.859 -2.43,-1.984 -3.539,-3.375c-1.11,-1.39 -2.125,-2.945 -3.047,-4.664c-0.922,-1.719 -1.719,-3.445 -2.391,-5.18c-0.672,-1.734 -1.195,-3.398 -1.57,-4.992c-0.375,-1.594 -0.563,-2.922 -0.563,-3.984Z" style="fill-rule:nonzero;"/><path
        d="M319.016,303.261c-0,-1.687 0.203,-3.375 0.609,-5.062c0.406,-1.688 1.055,-3.203 1.945,-4.547c0.891,-1.344 2.047,-2.437 3.469,-3.281c1.422,-0.844 3.149,-1.266 5.18,-1.266c1.156,0 2.172,0.211 3.047,0.633c0.875,0.422 1.609,0.977 2.203,1.664c0.594,0.688 1.039,1.492 1.336,2.414c0.297,0.922 0.445,1.883 0.445,2.883c0,1.594 -0.367,3.141 -1.102,4.641c-0.734,1.5 -1.718,2.82 -2.953,3.961c-1.234,1.14 -2.648,2 -4.242,2.578c-1.594,0.578 -3.219,0.711 -4.875,0.398c0.031,0.906 0.336,1.633 0.914,2.18c0.578,0.547 1.274,0.961 2.086,1.242c0.813,0.281 1.656,0.461 2.531,0.539c0.875,0.078 1.657,0.117 2.344,0.117c0.719,0 1.391,-0.062 2.016,-0.187c0.625,-0.125 1.25,-0.266 1.875,-0.422c0.625,-0.156 1.258,-0.297 1.898,-0.422c0.641,-0.125 1.32,-0.188 2.039,-0.188c0.281,0 0.563,0.016 0.844,0.047c0.281,0.032 0.547,0.102 0.797,0.211c0.25,0.11 0.453,0.282 0.609,0.516c0.156,0.234 0.235,0.523 0.235,0.867c-0,0.594 -0.219,1.086 -0.657,1.477c-0.437,0.39 -0.992,0.726 -1.664,1.007c-0.672,0.282 -1.414,0.493 -2.226,0.633c-0.813,0.141 -1.602,0.25 -2.367,0.328c-0.766,0.079 -1.469,0.125 -2.11,0.141c-0.64,0.016 -1.117,0.023 -1.43,0.023c-2,0 -3.796,-0.32 -5.39,-0.96c-1.594,-0.641 -2.938,-1.532 -4.031,-2.672c-1.094,-1.141 -1.93,-2.516 -2.508,-4.125c-0.578,-1.61 -0.867,-3.399 -0.867,-5.368Zm4.968,-3.046c0,1.093 0.149,1.89 0.446,2.39c0.297,0.5 1.023,0.75 2.179,0.75c0.813,0 1.61,-0.148 2.391,-0.445c0.781,-0.297 1.492,-0.711 2.133,-1.242c0.64,-0.532 1.148,-1.157 1.523,-1.875c0.375,-0.719 0.563,-1.5 0.563,-2.344c-0,-0.469 -0.039,-0.953 -0.117,-1.453c-0.079,-0.5 -0.243,-0.961 -0.493,-1.383c-0.25,-0.422 -0.57,-0.766 -0.961,-1.031c-0.39,-0.266 -0.898,-0.399 -1.523,-0.399c-0.938,0 -1.789,0.211 -2.555,0.633c-0.765,0.422 -1.414,0.969 -1.945,1.641c-0.531,0.672 -0.938,1.422 -1.219,2.25c-0.281,0.828 -0.422,1.664 -0.422,2.508Z"
        style="fill-rule:nonzero;"/><path
        d="M345.172,296.605c-0,-0.281 0.015,-0.57 0.047,-0.867c0.031,-0.297 0.093,-0.562 0.187,-0.797c0.094,-0.234 0.242,-0.43 0.446,-0.586c0.203,-0.156 0.492,-0.234 0.867,-0.234c0.312,-0 0.664,0.242 1.054,0.726c0.391,0.485 0.789,1.094 1.196,1.829c0.406,0.734 0.804,1.539 1.195,2.414c0.391,0.875 0.734,1.679 1.031,2.414c0.297,0.734 0.539,1.367 0.727,1.898c0.187,0.531 0.297,0.813 0.328,0.844c0.406,-1.094 0.859,-2.281 1.359,-3.563c0.5,-1.281 1.118,-2.476 1.852,-3.586c0.734,-1.109 1.609,-2.039 2.625,-2.789c1.016,-0.75 2.258,-1.125 3.726,-1.125c0.75,0 1.461,0.118 2.133,0.352c0.672,0.234 1.266,0.578 1.782,1.031c0.515,0.453 0.929,0.992 1.242,1.617c0.312,0.625 0.469,1.344 0.469,2.157c-0,0.687 -0.274,1.171 -0.821,1.453c-0.547,0.281 -1.164,0.422 -1.851,0.422l-0.469,-0l-2.016,-2.016c-0.062,-0 -0.109,-0.016 -0.14,-0.047c-0.063,0 -0.118,-0.008 -0.164,-0.023c-0.047,-0.016 -0.102,-0.024 -0.164,-0.024c-1.094,0 -1.946,0.305 -2.555,0.914c-0.61,0.61 -1.07,1.36 -1.383,2.25c-0.313,0.891 -0.508,1.828 -0.586,2.813c-0.078,0.984 -0.117,1.883 -0.117,2.695c-0,0.625 0.062,1.258 0.187,1.899c0.125,0.64 0.266,1.265 0.422,1.875c0.156,0.609 0.297,1.234 0.422,1.875c0.125,0.64 0.188,1.304 0.188,1.992c-0,1.312 -0.704,1.968 -2.11,1.968c-0.781,0 -1.594,-0.414 -2.437,-1.242c-0.844,-0.828 -1.68,-1.883 -2.508,-3.164c-0.828,-1.281 -1.617,-2.695 -2.367,-4.242c-0.75,-1.547 -1.406,-3.055 -1.969,-4.523c-0.563,-1.469 -1.008,-2.797 -1.336,-3.985c-0.328,-1.187 -0.492,-2.062 -0.492,-2.625Z"
        style="fill-rule:nonzero;"/><path
        d="M368.188,302.183c-0,-1.312 0.289,-2.687 0.867,-4.125c0.578,-1.437 1.351,-2.742 2.32,-3.914c0.969,-1.172 2.086,-2.148 3.352,-2.929c1.265,-0.782 2.601,-1.172 4.007,-1.172c0.719,-0 1.438,0.125 2.157,0.375c0.718,0.25 1.367,0.609 1.945,1.078c0.578,0.469 1.047,1.031 1.406,1.687c0.36,0.657 0.539,1.391 0.539,2.203c-0.562,0 -1.07,-0.062 -1.523,-0.187c-0.453,-0.125 -0.899,-0.273 -1.336,-0.445c-0.438,-0.172 -0.867,-0.321 -1.289,-0.446c-0.422,-0.125 -0.883,-0.187 -1.383,-0.187c-1.281,-0 -2.32,0.32 -3.117,0.961c-0.797,0.64 -1.43,1.445 -1.899,2.414c-0.468,0.969 -0.789,2.008 -0.961,3.117c-0.171,1.109 -0.257,2.148 -0.257,3.117c-0,0.156 0.007,0.453 0.023,0.891l0.094,2.765c0.015,0.438 0.039,0.735 0.07,0.891c0.344,0.75 0.68,1.328 1.008,1.734c0.328,0.407 0.68,0.711 1.055,0.915c0.375,0.203 0.781,0.328 1.218,0.375c0.438,0.046 0.954,0.07 1.547,0.07c0.813,-0 1.524,-0.125 2.133,-0.375c0.609,-0.25 1.18,-0.547 1.711,-0.891c0.531,-0.344 1.031,-0.726 1.5,-1.148c0.469,-0.422 0.961,-0.813 1.477,-1.172c0.515,-0.359 1.078,-0.656 1.687,-0.891c0.609,-0.234 1.305,-0.351 2.086,-0.351c0,1.531 -0.273,2.89 -0.82,4.078c-0.547,1.187 -1.313,2.203 -2.297,3.047c-0.985,0.843 -2.141,1.492 -3.469,1.945c-1.328,0.453 -2.773,0.68 -4.336,0.68c-1.469,-0 -2.789,-0.5 -3.961,-1.5c-1.172,-1 -2.172,-2.227 -3,-3.68c-0.828,-1.453 -1.461,-2.992 -1.898,-4.617c-0.438,-1.625 -0.656,-3.063 -0.656,-4.313Z"
        style="fill-rule:nonzero;"/><path
        d="M391.25,303.261c0,-1.687 0.203,-3.375 0.609,-5.062c0.407,-1.688 1.055,-3.203 1.946,-4.547c0.89,-1.344 2.047,-2.437 3.468,-3.281c1.422,-0.844 3.149,-1.266 5.18,-1.266c1.156,0 2.172,0.211 3.047,0.633c0.875,0.422 1.609,0.977 2.203,1.664c0.594,0.688 1.039,1.492 1.336,2.414c0.297,0.922 0.445,1.883 0.445,2.883c0,1.594 -0.367,3.141 -1.101,4.641c-0.735,1.5 -1.719,2.82 -2.953,3.961c-1.235,1.14 -2.649,2 -4.243,2.578c-1.593,0.578 -3.218,0.711 -4.875,0.398c0.032,0.906 0.336,1.633 0.915,2.18c0.578,0.547 1.273,0.961 2.085,1.242c0.813,0.281 1.657,0.461 2.532,0.539c0.875,0.078 1.656,0.117 2.343,0.117c0.719,0 1.391,-0.062 2.016,-0.187c0.625,-0.125 1.25,-0.266 1.875,-0.422c0.625,-0.156 1.258,-0.297 1.899,-0.422c0.64,-0.125 1.32,-0.188 2.039,-0.188c0.281,0 0.562,0.016 0.843,0.047c0.282,0.032 0.547,0.102 0.797,0.211c0.25,0.11 0.453,0.282 0.61,0.516c0.156,0.234 0.234,0.523 0.234,0.867c-0,0.594 -0.219,1.086 -0.656,1.477c-0.438,0.39 -0.992,0.726 -1.664,1.007c-0.672,0.282 -1.414,0.493 -2.227,0.633c-0.812,0.141 -1.601,0.25 -2.367,0.328c-0.766,0.079 -1.469,0.125 -2.109,0.141c-0.641,0.016 -1.118,0.023 -1.43,0.023c-2,0 -3.797,-0.32 -5.391,-0.96c-1.594,-0.641 -2.937,-1.532 -4.031,-2.672c-1.094,-1.141 -1.93,-2.516 -2.508,-4.125c-0.578,-1.61 -0.867,-3.399 -0.867,-5.368Zm4.969,-3.046c-0,1.093 0.148,1.89 0.445,2.39c0.297,0.5 1.023,0.75 2.18,0.75c0.812,0 1.609,-0.148 2.39,-0.445c0.782,-0.297 1.493,-0.711 2.133,-1.242c0.641,-0.532 1.149,-1.157 1.524,-1.875c0.375,-0.719 0.562,-1.5 0.562,-2.344c0,-0.469 -0.039,-0.953 -0.117,-1.453c-0.078,-0.5 -0.242,-0.961 -0.492,-1.383c-0.25,-0.422 -0.571,-0.766 -0.961,-1.031c-0.391,-0.266 -0.899,-0.399 -1.524,-0.399c-0.937,0 -1.789,0.211 -2.554,0.633c-0.766,0.422 -1.414,0.969 -1.946,1.641c-0.531,0.672 -0.937,1.422 -1.218,2.25c-0.282,0.828 -0.422,1.664 -0.422,2.508Z"
        style="fill-rule:nonzero;"/><path
        d="M418.531,289.761c0,-0.906 -0.062,-1.789 -0.187,-2.648c-0.125,-0.859 -0.156,-1.625 -0.094,-2.297c0.063,-0.672 0.305,-1.211 0.727,-1.617c0.421,-0.406 1.195,-0.609 2.32,-0.609c0.344,0.718 0.68,1.812 1.008,3.281c0.328,1.469 0.648,3.156 0.961,5.062c0.312,1.907 0.609,3.977 0.89,6.211c0.282,2.235 0.539,4.477 0.774,6.727c0.234,2.25 0.437,4.461 0.609,6.633c0.172,2.172 0.305,4.148 0.399,5.929c-1.032,0.688 -1.86,0.735 -2.485,0.141c-0.625,-0.594 -1.14,-1.602 -1.547,-3.023c-0.406,-1.422 -0.718,-3.157 -0.937,-5.204c-0.219,-2.046 -0.43,-4.171 -0.633,-6.375c-0.203,-2.203 -0.445,-4.375 -0.727,-6.515c-0.281,-2.141 -0.64,-4.039 -1.078,-5.696Z"
        style="fill-rule:nonzero;"/><path
        d="M433.953,312.496c1.406,-0 2.109,0.734 2.109,2.203c-0.343,0.906 -0.781,1.508 -1.312,1.805c-0.531,0.297 -1.023,0.406 -1.477,0.328c-0.453,-0.078 -0.859,-0.305 -1.218,-0.68c-0.36,-0.375 -0.555,-0.797 -0.586,-1.266c-0.031,-0.468 0.14,-0.929 0.515,-1.382c0.375,-0.453 1.032,-0.789 1.969,-1.008Z"
        style="fill-rule:nonzero;"/><path
        d="M438.078,302.183c0,-1.312 0.289,-2.687 0.867,-4.125c0.578,-1.437 1.352,-2.742 2.321,-3.914c0.968,-1.172 2.086,-2.148 3.351,-2.929c1.266,-0.782 2.602,-1.172 4.008,-1.172c0.719,-0 1.437,0.125 2.156,0.375c0.719,0.25 1.367,0.609 1.946,1.078c0.578,0.469 1.046,1.031 1.406,1.687c0.359,0.657 0.539,1.391 0.539,2.203c-0.563,0 -1.07,-0.062 -1.524,-0.187c-0.453,-0.125 -0.898,-0.273 -1.336,-0.445c-0.437,-0.172 -0.867,-0.321 -1.289,-0.446c-0.421,-0.125 -0.882,-0.187 -1.382,-0.187c-1.282,-0 -2.321,0.32 -3.118,0.961c-0.796,0.64 -1.429,1.445 -1.898,2.414c-0.469,0.969 -0.789,2.008 -0.961,3.117c-0.172,1.109 -0.258,2.148 -0.258,3.117c0,0.156 0.008,0.453 0.024,0.891l0.093,2.765c0.016,0.438 0.039,0.735 0.071,0.891c0.343,0.75 0.679,1.328 1.008,1.734c0.328,0.407 0.679,0.711 1.054,0.915c0.375,0.203 0.781,0.328 1.219,0.375c0.437,0.046 0.953,0.07 1.547,0.07c0.812,-0 1.523,-0.125 2.133,-0.375c0.609,-0.25 1.179,-0.547 1.711,-0.891c0.531,-0.344 1.031,-0.726 1.5,-1.148c0.468,-0.422 0.961,-0.813 1.476,-1.172c0.516,-0.359 1.078,-0.656 1.688,-0.891c0.609,-0.234 1.304,-0.351 2.086,-0.351c-0,1.531 -0.274,2.89 -0.821,4.078c-0.547,1.187 -1.312,2.203 -2.297,3.047c-0.984,0.843 -2.14,1.492 -3.468,1.945c-1.328,0.453 -2.774,0.68 -4.336,0.68c-1.469,-0 -2.789,-0.5 -3.961,-1.5c-1.172,-1 -2.172,-2.227 -3,-3.68c-0.828,-1.453 -1.461,-2.992 -1.899,-4.617c-0.437,-1.625 -0.656,-3.063 -0.656,-4.313Z"
        style="fill-rule:nonzero;"/><path
        d="M461.141,306.777c-0,-1.937 0.453,-3.742 1.359,-5.414c0.906,-1.672 2.102,-3.109 3.586,-4.312c1.484,-1.204 3.156,-2.149 5.016,-2.836c1.859,-0.688 3.742,-1.032 5.648,-1.032c1.062,0 2.008,0.344 2.836,1.032c0.828,0.687 1.523,1.523 2.086,2.507c0.562,0.985 0.992,2.024 1.289,3.118c0.297,1.093 0.445,2.046 0.445,2.859c0,1.75 -0.422,3.445 -1.265,5.086c-0.844,1.641 -1.938,3.094 -3.282,4.359c-1.343,1.266 -2.859,2.289 -4.547,3.071c-1.687,0.781 -3.375,1.171 -5.062,1.171c-1.5,0 -2.766,-0.257 -3.797,-0.773c-1.031,-0.516 -1.859,-1.203 -2.484,-2.062c-0.625,-0.86 -1.086,-1.875 -1.383,-3.047c-0.297,-1.172 -0.445,-2.414 -0.445,-3.727Zm3.984,0.469c-0,0.812 0.07,1.523 0.211,2.133c0.141,0.609 0.391,1.132 0.75,1.57c0.359,0.437 0.836,0.773 1.43,1.008c0.593,0.234 1.328,0.351 2.203,0.351c1.156,0 2.312,-0.32 3.468,-0.961c1.157,-0.64 2.196,-1.453 3.118,-2.437c0.922,-0.984 1.664,-2.07 2.226,-3.258c0.563,-1.187 0.844,-2.344 0.844,-3.469c-0,-0.5 -0.047,-1.047 -0.141,-1.64c-0.093,-0.594 -0.25,-1.141 -0.468,-1.641c-0.219,-0.5 -0.532,-0.922 -0.938,-1.266c-0.406,-0.343 -0.922,-0.515 -1.547,-0.515c-0.562,-0 -1.226,0.187 -1.992,0.562c-0.766,0.375 -1.562,0.86 -2.391,1.453c-0.828,0.594 -1.64,1.266 -2.437,2.016c-0.797,0.75 -1.523,1.5 -2.18,2.25c-0.656,0.75 -1.179,1.469 -1.57,2.156c-0.391,0.688 -0.586,1.25 -0.586,1.688Z"
        style="fill-rule:nonzero;"/><path
        d="M484.203,296.605c0,-0.781 0.133,-1.39 0.399,-1.828c0.265,-0.437 0.835,-0.656 1.71,-0.656l1.032,0.047c0.219,0.968 0.445,2.023 0.679,3.164c0.235,1.14 0.508,2.289 0.821,3.445c0.312,1.156 0.664,2.297 1.054,3.422c0.391,1.125 0.868,2.141 1.43,3.047c0.563,-0.594 0.969,-1.297 1.219,-2.11c0.25,-0.812 0.437,-1.632 0.562,-2.46c0.125,-0.829 0.243,-1.625 0.352,-2.391c0.109,-0.766 0.336,-1.422 0.68,-1.969c0.343,-0.547 0.851,-0.945 1.523,-1.195c0.672,-0.25 1.602,-0.25 2.789,-0c1.313,-0 2.36,0.242 3.141,0.726c0.781,0.485 1.461,1.094 2.039,1.829c0.578,0.734 1.14,1.515 1.687,2.343c0.547,0.828 1.243,1.571 2.086,2.227c0.188,-0.406 0.422,-0.914 0.703,-1.524c0.282,-0.609 0.633,-1.25 1.055,-1.921c0.422,-0.672 0.875,-1.344 1.359,-2.016c0.485,-0.672 0.993,-1.281 1.524,-1.828c0.531,-0.547 1.078,-1 1.641,-1.36c0.562,-0.359 1.109,-0.539 1.64,-0.539c1.281,0 2.391,0.399 3.328,1.196c0.938,0.797 1.742,1.797 2.414,3c0.672,1.203 1.227,2.547 1.664,4.031c0.438,1.484 0.782,2.914 1.032,4.289c0.25,1.375 0.429,2.633 0.539,3.773c0.109,1.141 0.164,1.961 0.164,2.461c-0,0.407 -0.094,0.719 -0.281,0.938c-0.188,0.219 -0.422,0.383 -0.704,0.492c-0.281,0.109 -0.586,0.18 -0.914,0.211c-0.328,0.031 -0.632,0.047 -0.914,0.047c-0.062,-0 -0.156,-0.008 -0.281,-0.024c-0.125,-0.015 -0.266,-0.039 -0.422,-0.07c-0.125,-0.031 -0.297,-0.078 -0.515,-0.141l-3.047,-14.015c-0,-0.094 -0.125,-0.274 -0.375,-0.539c-0.25,-0.266 -0.438,-0.43 -0.563,-0.492c-0.094,-0 -0.172,-0.016 -0.234,-0.047c-0.063,-0 -0.11,-0.008 -0.141,-0.024c-0.031,-0.015 -0.062,-0.023 -0.094,-0.023c-0.656,-0 -1.273,0.265 -1.851,0.797c-0.578,0.531 -1.117,1.203 -1.617,2.015c-0.5,0.813 -0.969,1.719 -1.407,2.719c-0.437,1 -0.828,1.992 -1.171,2.977c-0.344,0.984 -0.649,1.89 -0.915,2.718c-0.265,0.829 -0.476,1.461 -0.632,1.899c-0.125,0.062 -0.375,0.117 -0.75,0.164c-0.375,0.047 -0.625,0.07 -0.75,0.07c-0.875,0 -1.547,-0.304 -2.016,-0.914c-0.469,-0.609 -0.852,-1.367 -1.148,-2.273c-0.297,-0.907 -0.547,-1.899 -0.75,-2.977c-0.204,-1.078 -0.454,-2.07 -0.75,-2.976c-0.297,-0.907 -0.704,-1.664 -1.219,-2.274c-0.516,-0.609 -1.242,-0.914 -2.18,-0.914c-0.344,0 -0.672,0.344 -0.984,1.031c-0.313,0.688 -0.594,1.555 -0.844,2.602c-0.25,1.047 -0.484,2.172 -0.703,3.375c-0.219,1.203 -0.399,2.328 -0.539,3.375c-0.141,1.047 -0.242,1.93 -0.305,2.648c-0.062,0.719 -0.094,1.078 -0.094,1.078c-0.062,0.094 -0.187,0.196 -0.375,0.305c-0.187,0.11 -0.382,0.227 -0.586,0.352c-0.203,0.125 -0.406,0.218 -0.609,0.281c-0.203,0.062 -0.351,0.094 -0.445,0.094c-0.875,-0 -1.719,-0.399 -2.531,-1.196c-0.813,-0.796 -1.555,-1.828 -2.227,-3.093c-0.672,-1.266 -1.281,-2.664 -1.828,-4.196c-0.547,-1.531 -1.008,-3.031 -1.383,-4.5c-0.375,-1.468 -0.664,-2.797 -0.867,-3.984c-0.203,-1.188 -0.305,-2.094 -0.305,-2.719Z"
        style="fill-rule:nonzero;"/></g><path
        d="M377.686,148.501c-18.291,0 -31.501,11.96 -31.501,29.86c-0,17.9 14.851,29.86 33.142,29.86c11.1,-0 20.793,-4.378 26.89,-11.725l-12.663,-7.348c-3.361,3.674 -8.442,5.784 -14.148,5.784c-7.973,0 -14.696,-4.142 -17.197,-10.787l46.509,0c0.391,-1.875 0.547,-3.752 0.547,-5.784c-0.078,-17.978 -13.21,-29.86 -31.579,-29.86Zm-15.712,23.998c2.111,-6.644 7.739,-10.787 15.712,-10.787c7.973,-0 13.601,4.143 15.711,10.787l-31.423,-0Zm194.323,-23.998c-18.291,0 -31.501,11.96 -31.501,29.86c-0,17.9 14.851,29.86 33.142,29.86c11.1,-0 20.793,-4.378 26.89,-11.725l-12.663,-7.348c-3.362,3.674 -8.442,5.784 -14.149,5.784c-7.973,0 -14.695,-4.142 -17.196,-10.787l46.509,0c0.391,-1.875 0.547,-3.752 0.547,-5.784c0,-17.978 -13.21,-29.86 -31.579,-29.86Zm-15.634,23.998c2.111,-6.644 7.739,-10.787 15.712,-10.787c7.973,-0 13.601,4.143 15.711,10.787l-31.423,-0Zm-64.722,5.862c0,9.927 6.488,16.572 16.572,16.572c6.8,-0 11.959,-3.127 14.617,-8.13l12.741,7.348c-5.237,8.754 -15.164,14.07 -27.358,14.07c-18.369,-0 -31.501,-11.96 -31.501,-29.86c-0,-17.9 13.21,-29.859 31.501,-29.859c12.194,-0 22.043,5.315 27.358,14.07l-12.741,7.347c-2.658,-5.081 -7.739,-8.129 -14.617,-8.129c-10.084,-0.078 -16.572,6.566 -16.572,16.571Zm136.792,-48.151l0,76.291l-14.93,0l0,-76.29l14.93,-0Zm-407.717,-8.286l61.282,106.15l-122.565,0l61.283,-106.15Zm153.285,8.286l-45.962,79.651l-45.962,-79.652l17.274,0l28.766,49.793l28.765,-49.793l17.119,0Zm97.708,19.933l-0,16.102c-1.642,-0.469 -3.439,-0.781 -5.315,-0.781c-9.615,-0 -16.572,6.644 -16.572,16.571l0,24.544l-14.93,0l0,-56.436l14.93,0l0,15.243c0,-8.442 9.771,-15.243 21.887,-15.243Z"
        style="fill-rule:nonzero;"/><g><path d="M911.037,344.984c1.75,-0 3.314,-0.321 4.689,-0.962c1.376,-0.641 2.54,-1.516 3.494,-2.626c0.953,-1.11 1.688,-2.376 2.204,-3.798c0.516,-1.423 0.774,-2.9 0.774,-4.432c-0,-0.781 -0.04,-1.813 -0.118,-3.095c-0.078,-1.282 -0.195,-2.673 -0.351,-4.173c-0.157,-1.501 -0.383,-3.033 -0.68,-4.596c-0.297,-1.563 -0.665,-3.04 -1.102,-4.432c-0.438,-1.391 -0.977,-2.61 -1.618,-3.657c-0.641,-1.048 -1.384,-1.79 -2.228,-2.228c-0.813,0.625 -1.61,1.196 -2.391,1.712c-0.782,0.516 -1.595,0.946 -2.439,1.289c-0.844,0.344 -1.719,0.618 -2.626,0.821c-0.907,0.203 -1.876,0.305 -2.907,0.305c-1.345,-0 -2.494,-0.125 -3.447,-0.375c-0.954,-0.25 -1.751,-0.672 -2.392,-1.266c-0.641,-0.594 -1.117,-1.376 -1.43,-2.345c-0.313,-0.969 -0.469,-2.189 -0.469,-3.658c0,-1.032 0.25,-2.04 0.75,-3.025c0.501,-0.984 1.165,-1.907 1.993,-2.766c0.829,-0.86 1.767,-1.649 2.814,-2.369c1.047,-0.719 2.126,-1.344 3.236,-1.875c1.11,-0.532 2.204,-0.938 3.282,-1.22c1.079,-0.281 2.04,-0.422 2.884,-0.422c0.813,0 1.485,0.024 2.017,0.071c0.531,0.047 0.985,0.172 1.36,0.375c0.375,0.203 0.695,0.516 0.961,0.938c0.266,0.422 0.524,0.992 0.774,1.711c0.719,2.439 1.547,5.065 2.485,7.879c0.938,2.813 1.829,5.705 2.673,8.675c0.844,2.97 1.556,5.964 2.134,8.98c0.578,3.017 0.867,5.933 0.867,8.746c0,2.501 -0.351,4.619 -1.055,6.354c-0.703,1.736 -1.625,3.158 -2.766,4.268c-1.142,1.11 -2.439,1.962 -3.893,2.556c-1.453,0.594 -2.915,0.977 -4.384,1.149c-1.47,0.171 -2.892,0.211 -4.268,0.117c-1.375,-0.094 -2.563,-0.274 -3.564,-0.54c-1,-0.265 -1.758,-0.57 -2.274,-0.914c-0.516,-0.344 -0.641,-0.633 -0.375,-0.867c0.266,-0.235 0.977,-0.399 2.133,-0.493c1.157,-0.094 2.908,-0.031 5.253,0.188Zm0.656,-45.253c-2.313,0.5 -4.181,1.195 -5.604,2.086c-1.422,0.891 -2.485,1.845 -3.189,2.861c-0.703,1.016 -1.086,2.032 -1.148,3.048c-0.063,1.016 0.125,1.884 0.562,2.603c0.438,0.719 1.071,1.258 1.9,1.618c0.828,0.359 1.774,0.375 2.837,0.046c1.063,-0.328 2.196,-1.039 3.399,-2.133c1.204,-1.094 2.416,-2.72 3.635,-4.877c-0,-0.532 0.008,-1.11 0.023,-1.735c0.016,-0.626 -0.039,-1.196 -0.164,-1.712c-0.125,-0.516 -0.359,-0.946 -0.703,-1.29c-0.344,-0.344 -0.86,-0.515 -1.548,-0.515Z" style="fill-rule:nonzero;"/>
    <path d="M946.254,313.986c-1.188,0.813 -2.211,1.54 -3.071,2.181c-0.86,0.641 -1.696,1.18 -2.509,1.618c-0.813,0.438 -1.68,0.766 -2.603,0.985c-0.922,0.219 -2.055,0.328 -3.4,0.328c-2.907,-0 -5.064,-0.774 -6.471,-2.321c-1.407,-1.548 -2.11,-3.854 -2.11,-6.917c-0,-1.188 0.156,-2.423 0.469,-3.705c0.312,-1.282 0.773,-2.556 1.383,-3.822c0.61,-1.266 1.337,-2.47 2.181,-3.611c0.844,-1.141 1.797,-2.149 2.86,-3.024c1.063,-0.876 2.197,-1.571 3.4,-2.087c1.204,-0.516 2.478,-0.774 3.822,-0.774c2.251,0.219 4.017,0.774 5.299,1.665c1.282,0.891 2.251,2.032 2.908,3.423c0.656,1.391 1.109,2.939 1.36,4.643c0.25,1.703 0.445,3.462 0.586,5.275c0.14,1.814 0.32,3.627 0.539,5.44c0.219,1.813 0.672,3.486 1.36,5.018c-0.407,1.031 -0.789,1.758 -1.149,2.18c-0.36,0.422 -0.758,0.493 -1.196,0.211c-0.437,-0.281 -0.946,-0.969 -1.524,-2.063c-0.578,-1.094 -1.289,-2.642 -2.134,-4.643Zm-16.178,-4.032c-0,1.782 0.336,3.087 1.008,3.915c0.672,0.829 1.868,1.243 3.587,1.243c1.282,-0 2.509,-0.227 3.682,-0.68c1.172,-0.453 2.196,-1.079 3.071,-1.876c0.876,-0.797 1.579,-1.758 2.111,-2.884c0.531,-1.125 0.797,-2.376 0.797,-3.751c-0,-0.563 0.015,-1.353 0.047,-2.369c0.031,-1.016 -0.032,-2.024 -0.188,-3.024c-0.156,-1.001 -0.453,-1.868 -0.891,-2.603c-0.438,-0.735 -1.094,-1.102 -1.969,-1.102c-1.626,0 -3.127,0.414 -4.502,1.243c-1.376,0.828 -2.564,1.883 -3.564,3.165c-1.001,1.282 -1.782,2.697 -2.345,4.244c-0.563,1.548 -0.844,3.04 -0.844,4.479Z"
          style="fill-rule:nonzero;"/>
    <path d="M954.18,296.401c-0,-0.094 0.015,-0.172 0.046,-0.234c0,-0.063 0.016,-0.141 0.047,-0.235c0.125,-0.156 0.313,-0.359 0.563,-0.61c0.25,-0.25 0.407,-0.375 0.469,-0.375l9.426,0c-0,-0.344 -0.047,-0.891 -0.141,-1.641c-0.094,-0.75 -0.18,-1.579 -0.258,-2.485c-0.078,-0.907 -0.101,-1.853 -0.07,-2.838c0.031,-0.984 0.164,-1.875 0.399,-2.673c0.234,-0.797 0.609,-1.453 1.125,-1.969c0.516,-0.516 1.243,-0.774 2.181,-0.774c-0,3.158 0.218,5.69 0.656,7.597c0.438,1.907 1.024,3.376 1.759,4.408c0.734,1.032 1.571,1.704 2.508,2.017c0.938,0.312 1.9,0.445 2.885,0.398c0.984,-0.047 1.946,-0.195 2.884,-0.445c0.937,-0.25 1.774,-0.422 2.508,-0.516c0.735,-0.094 1.321,-0.024 1.759,0.211c0.438,0.234 0.656,0.789 0.656,1.665c0,0.656 -0.148,1.125 -0.445,1.406c-0.297,0.282 -0.868,0.501 -1.712,0.657c-0.25,0.031 -0.664,0.086 -1.242,0.164c-0.579,0.078 -1.227,0.149 -1.947,0.211l-4.595,0.422c-0.719,0.063 -1.376,0.102 -1.97,0.117c-0.594,0.016 -1.031,0.024 -1.313,0.024l-0.094,1.547c0,1.376 0.219,2.712 0.657,4.01c0.438,1.297 0.914,2.587 1.43,3.869c0.516,1.281 0.993,2.563 1.43,3.845c0.438,1.282 0.657,2.61 0.657,3.986c0,0.25 -0.023,0.508 -0.07,0.774c-0.047,0.266 -0.141,0.5 -0.282,0.703c-0.14,0.203 -0.344,0.36 -0.609,0.469c-0.266,0.11 -0.633,0.086 -1.102,-0.07c-1.188,-0.313 -2.072,-0.985 -2.65,-2.017c-0.578,-1.031 -1.008,-2.258 -1.289,-3.681c-0.282,-1.422 -0.469,-2.931 -0.563,-4.525c-0.094,-1.595 -0.243,-3.087 -0.446,-4.479c-0.203,-1.391 -0.523,-2.579 -0.961,-3.564c-0.438,-0.984 -1.141,-1.586 -2.11,-1.805l-9.051,-2.063c-0.125,-0 -0.313,-0.133 -0.563,-0.399c-0.25,-0.266 -0.406,-0.461 -0.469,-0.586c-0.031,-0.063 -0.047,-0.141 -0.047,-0.235c-0.031,-0.062 -0.046,-0.156 -0.046,-0.281Z"
          style="fill-rule:nonzero;"/>
    <path d="M994.368,317.926c0.5,-0.344 1.102,-0.79 1.806,-1.337c0.703,-0.547 1.414,-1.133 2.133,-1.758c0.719,-0.626 1.392,-1.282 2.017,-1.97c0.625,-0.688 1.117,-1.352 1.477,-1.993c0.359,-0.641 0.539,-1.243 0.539,-1.805c0,-0.563 -0.281,-1.032 -0.844,-1.407c-1,-0 -2.094,0.039 -3.282,0.117c-1.188,0.078 -2.376,0.109 -3.564,0.094c-1.188,-0.016 -2.337,-0.118 -3.447,-0.305c-1.11,-0.188 -2.103,-0.532 -2.978,-1.032c-0.875,-0.5 -1.571,-1.211 -2.087,-2.133c-0.516,-0.923 -0.774,-2.103 -0.774,-3.541c0,-1.688 0.321,-3.212 0.962,-4.572c0.641,-1.36 1.493,-2.564 2.556,-3.611c1.062,-1.047 2.258,-1.97 3.587,-2.767c1.329,-0.797 2.665,-1.477 4.009,-2.04c0.813,0.219 1.564,0.61 2.251,1.173c0.688,0.562 1.282,1.188 1.782,1.875c-0.218,0.688 -0.648,1.22 -1.289,1.595c-0.641,0.375 -1.376,0.703 -2.204,0.985c-0.829,0.281 -1.696,0.578 -2.603,0.891c-0.907,0.312 -1.727,0.726 -2.462,1.242c-0.735,0.516 -1.352,1.188 -1.852,2.017c-0.5,0.828 -0.751,1.915 -0.751,3.259c0,1 0.251,1.735 0.751,2.204c0.5,0.469 1.156,0.789 1.969,0.961c0.813,0.172 1.735,0.235 2.767,0.188c1.032,-0.047 2.087,-0.117 3.165,-0.211c1.079,-0.094 2.134,-0.149 3.166,-0.164c1.032,-0.016 1.954,0.109 2.767,0.375c0.812,0.266 1.461,0.695 1.946,1.289c0.484,0.594 0.727,1.47 0.727,2.627c-0,0.5 -0.165,1.141 -0.493,1.922c-0.328,0.782 -0.766,1.618 -1.313,2.509c-0.547,0.891 -1.188,1.774 -1.922,2.65c-0.735,0.875 -1.501,1.664 -2.298,2.368c-0.798,0.703 -1.595,1.282 -2.392,1.735c-0.797,0.453 -1.54,0.68 -2.227,0.68c-0.657,-0 -1.087,-0.235 -1.29,-0.704c-0.203,-0.469 -0.305,-0.937 -0.305,-1.406Z"
          style="fill-rule:nonzero;"/>
    <path d="M1015.56,318.019c-0.969,-2.813 -1.883,-5.447 -2.743,-7.901c-0.86,-2.454 -1.61,-4.862 -2.251,-7.222c-0.641,-2.36 -1.149,-4.76 -1.524,-7.198c-0.375,-2.439 -0.563,-5.049 -0.563,-7.832c0,-0.219 0.008,-0.617 0.024,-1.196c0.015,-0.578 0.023,-1.18 0.023,-1.805c0,-0.625 0.008,-1.227 0.024,-1.805c0.015,-0.579 0.023,-0.977 0.023,-1.196c0.282,-0.626 0.774,-1.204 1.477,-1.735c0.704,-0.532 1.415,-0.798 2.134,-0.798c0,2.314 0.031,4.776 0.094,7.386c0.062,2.611 0.258,5.213 0.586,7.808c0.328,2.595 0.86,5.135 1.594,7.621c0.735,2.485 1.775,4.759 3.119,6.823c0.031,-0.751 0.062,-1.579 0.094,-2.486c0.031,-0.906 0.117,-1.813 0.258,-2.72c0.14,-0.906 0.367,-1.782 0.68,-2.626c0.312,-0.844 0.773,-1.594 1.383,-2.251c0.61,-0.656 1.407,-1.172 2.392,-1.547c0.984,-0.375 2.227,-0.547 3.728,-0.516c1.344,0 2.555,0.25 3.634,0.75c1.079,0.501 1.985,1.181 2.72,2.04c0.735,0.86 1.297,1.86 1.688,3.002c0.391,1.141 0.586,2.352 0.586,3.634c0,1.719 -0.422,3.408 -1.266,5.064c-0.844,1.657 -1.962,3.142 -3.353,4.455c-1.391,1.313 -2.946,2.369 -4.666,3.166c-1.719,0.797 -3.47,1.196 -5.252,1.196c-0.907,-0 -1.782,-0.165 -2.626,-0.493c-0.844,-0.328 -1.516,-0.867 -2.017,-1.618Zm11.114,-17.116c-0.625,0.344 -1.281,0.75 -1.969,1.219c-0.688,0.469 -1.321,1.196 -1.899,2.181c-0.579,0.985 -1.071,2.321 -1.478,4.009c-0.406,1.688 -0.656,3.924 -0.75,6.706l1.032,0.094c0.844,-0 1.805,-0.266 2.884,-0.797c1.078,-0.532 2.126,-1.188 3.142,-1.97c1.016,-0.781 1.899,-1.649 2.649,-2.603c0.751,-0.953 1.204,-1.867 1.36,-2.743c0.094,-0.531 -0.015,-1.141 -0.328,-1.829c-0.313,-0.688 -0.727,-1.352 -1.243,-1.993c-0.516,-0.641 -1.078,-1.18 -1.688,-1.618c-0.61,-0.437 -1.18,-0.656 -1.712,-0.656Z"
          style="fill-rule:nonzero;"/>
    <path d="M1036.81,295.791c-0,-0.281 0.007,-0.57 0.023,-0.867c0.016,-0.297 0.078,-0.579 0.188,-0.844c0.109,-0.266 0.265,-0.469 0.469,-0.61c0.203,-0.141 0.508,-0.211 0.914,-0.211l0.281,0c0.094,0.031 0.172,0.047 0.235,0.047c0.594,0.813 1.11,1.852 1.547,3.118c0.438,1.267 0.86,2.611 1.267,4.033c0.406,1.423 0.844,2.861 1.313,4.315c0.469,1.453 1.078,2.759 1.829,3.915c0.75,1.157 1.672,2.079 2.766,2.767c1.095,0.688 2.454,0.985 4.08,0.891c0.719,0 1.188,-0.391 1.407,-1.172c0.219,-0.782 0.336,-1.782 0.352,-3.001c0.015,-1.22 -0.016,-2.564 -0.094,-4.033c-0.078,-1.47 -0.078,-2.869 -0,-4.197c0.078,-1.329 0.313,-2.494 0.703,-3.494c0.391,-1.001 1.071,-1.673 2.04,-2.017c0.407,0.813 0.743,2.087 1.008,3.822c0.266,1.735 0.462,3.736 0.587,6.003c0.125,2.266 0.187,4.721 0.187,7.362c0,2.642 -0.062,5.268 -0.187,7.879c-0.125,2.61 -0.313,5.119 -0.563,7.526c-0.25,2.407 -0.532,4.518 -0.844,6.331c-0.313,1.813 -0.68,3.243 -1.102,4.291c-0.422,1.047 -0.868,1.493 -1.337,1.336c-0.656,-0.625 -1.164,-1.438 -1.524,-2.438c-0.359,-1.001 -0.609,-2.111 -0.75,-3.33c-0.141,-1.219 -0.196,-2.509 -0.164,-3.869c0.031,-1.36 0.086,-2.727 0.164,-4.103c0.078,-1.375 0.172,-2.72 0.281,-4.033c0.11,-1.313 0.164,-2.516 0.164,-3.611c-1.125,0.094 -2.274,-0.078 -3.446,-0.516c-1.173,-0.437 -2.322,-1.117 -3.447,-2.039c-1.126,-0.923 -2.196,-2.04 -3.212,-3.353c-1.016,-1.313 -1.907,-2.798 -2.673,-4.455c-0.766,-1.657 -1.368,-3.447 -1.806,-5.37c-0.437,-1.922 -0.656,-3.947 -0.656,-6.073Z"
          style="fill-rule:nonzero;"/>
    <path d="M1049.61,334.808c0.906,-0 1.735,0.234 2.485,0.703c0.751,0.469 1.54,0.977 2.368,1.524c0.829,0.547 1.728,1.055 2.697,1.524c0.969,0.469 2.094,0.704 3.376,0.704c1.282,-0 2.533,-0.165 3.752,-0.493c1.219,-0.328 2.313,-0.828 3.282,-1.5c0.97,-0.673 1.751,-1.548 2.345,-2.627c0.594,-1.078 0.891,-2.352 0.891,-3.821c0,-2.439 -0.195,-4.971 -0.586,-7.597c-0.391,-2.626 -0.891,-5.245 -1.501,-7.855c-0.609,-2.611 -1.266,-5.151 -1.969,-7.621c-0.704,-2.469 -1.352,-4.752 -1.946,-6.846c-0,-0.031 -0.016,-0.11 -0.047,-0.235c-0.031,-0.125 -0.047,-0.203 -0.047,-0.234c-0,-0.625 0.219,-1.055 0.656,-1.29c0.438,-0.234 0.907,-0.351 1.407,-0.351l1.032,0.093c0.969,2.439 1.884,4.932 2.743,7.48c0.86,2.548 1.618,5.135 2.275,7.761c0.656,2.626 1.172,5.26 1.547,7.902c0.375,2.642 0.563,5.26 0.563,7.855c-0,2.032 -0.352,3.876 -1.055,5.533c-0.704,1.657 -1.681,3.064 -2.931,4.221c-1.251,1.156 -2.743,2.047 -4.479,2.673c-1.735,0.625 -3.618,0.938 -5.65,0.938c-1.345,-0 -2.681,-0.149 -4.01,-0.446c-1.329,-0.297 -2.532,-0.774 -3.611,-1.43c-1.078,-0.657 -1.946,-1.524 -2.602,-2.603c-0.657,-1.078 -0.985,-2.399 -0.985,-3.962Zm11.02,-47.458l0,-0.562c0,-0.282 0.031,-0.571 0.094,-0.868c0.062,-0.297 0.172,-0.555 0.328,-0.774c0.156,-0.219 0.391,-0.328 0.704,-0.328c0.531,0 0.937,0.07 1.219,0.211c0.281,0.141 0.484,0.313 0.609,0.516c0.125,0.203 0.204,0.453 0.235,0.75c0.031,0.297 0.047,0.633 0.047,1.008c-0,0.251 -0.016,0.532 -0.047,0.845c-0.031,0.312 -0.094,0.609 -0.188,0.891c-0.093,0.281 -0.25,0.508 -0.469,0.68c-0.218,0.171 -0.515,0.257 -0.891,0.257c-0.375,0 -0.672,-0.086 -0.891,-0.257c-0.218,-0.172 -0.383,-0.383 -0.492,-0.634c-0.109,-0.25 -0.18,-0.531 -0.211,-0.844c-0.031,-0.312 -0.047,-0.609 -0.047,-0.891Z"
          style="fill-rule:nonzero;"/>
    <path d="M1083.84,317.926c0.5,-0.344 1.102,-0.79 1.805,-1.337c0.704,-0.547 1.415,-1.133 2.134,-1.758c0.719,-0.626 1.391,-1.282 2.016,-1.97c0.626,-0.688 1.118,-1.352 1.478,-1.993c0.359,-0.641 0.539,-1.243 0.539,-1.805c-0,-0.563 -0.281,-1.032 -0.844,-1.407c-1.001,-0 -2.095,0.039 -3.283,0.117c-1.188,0.078 -2.376,0.109 -3.564,0.094c-1.188,-0.016 -2.337,-0.118 -3.447,-0.305c-1.109,-0.188 -2.102,-0.532 -2.977,-1.032c-0.876,-0.5 -1.571,-1.211 -2.087,-2.133c-0.516,-0.923 -0.774,-2.103 -0.774,-3.541c0,-1.688 0.321,-3.212 0.961,-4.572c0.641,-1.36 1.493,-2.564 2.556,-3.611c1.063,-1.047 2.259,-1.97 3.588,-2.767c1.328,-0.797 2.665,-1.477 4.009,-2.04c0.813,0.219 1.563,0.61 2.251,1.173c0.688,0.562 1.282,1.188 1.782,1.875c-0.219,0.688 -0.649,1.22 -1.29,1.595c-0.64,0.375 -1.375,0.703 -2.204,0.985c-0.828,0.281 -1.696,0.578 -2.602,0.891c-0.907,0.312 -1.728,0.726 -2.462,1.242c-0.735,0.516 -1.352,1.188 -1.853,2.017c-0.5,0.828 -0.75,1.915 -0.75,3.259c0,1 0.25,1.735 0.75,2.204c0.501,0.469 1.157,0.789 1.97,0.961c0.813,0.172 1.735,0.235 2.767,0.188c1.031,-0.047 2.087,-0.117 3.165,-0.211c1.079,-0.094 2.134,-0.149 3.166,-0.164c1.031,-0.016 1.953,0.109 2.766,0.375c0.813,0.266 1.462,0.695 1.946,1.289c0.485,0.594 0.727,1.47 0.727,2.627c0,0.5 -0.164,1.141 -0.492,1.922c-0.328,0.782 -0.766,1.618 -1.313,2.509c-0.547,0.891 -1.188,1.774 -1.923,2.65c-0.734,0.875 -1.5,1.664 -2.298,2.368c-0.797,0.703 -1.594,1.282 -2.391,1.735c-0.797,0.453 -1.54,0.68 -2.228,0.68c-0.656,-0 -1.086,-0.235 -1.289,-0.704c-0.204,-0.469 -0.305,-0.937 -0.305,-1.406Z"
          style="fill-rule:nonzero;"/>
    <path d="M1103.54,316.237c1.406,0 2.11,0.735 2.11,2.204c-0.344,0.907 -0.782,1.509 -1.313,1.806c-0.532,0.297 -1.024,0.406 -1.477,0.328c-0.454,-0.078 -0.86,-0.305 -1.22,-0.68c-0.359,-0.375 -0.555,-0.797 -0.586,-1.266c-0.031,-0.469 0.141,-0.93 0.516,-1.383c0.375,-0.454 1.032,-0.79 1.97,-1.009Z"
          style="fill-rule:nonzero;"/>
    <path d="M1107.66,305.921c0,-1.313 0.289,-2.689 0.868,-4.127c0.578,-1.438 1.352,-2.743 2.321,-3.916c0.969,-1.172 2.087,-2.149 3.353,-2.931c1.266,-0.781 2.603,-1.172 4.009,-1.172c0.72,-0 1.439,0.125 2.158,0.375c0.719,0.25 1.367,0.61 1.946,1.079c0.578,0.469 1.047,1.031 1.407,1.688c0.359,0.656 0.539,1.391 0.539,2.204c-0.563,-0 -1.071,-0.063 -1.524,-0.188c-0.454,-0.125 -0.899,-0.273 -1.337,-0.445c-0.437,-0.172 -0.867,-0.321 -1.289,-0.446c-0.422,-0.125 -0.883,-0.187 -1.384,-0.187c-1.281,-0 -2.321,0.32 -3.118,0.961c-0.797,0.641 -1.43,1.446 -1.899,2.415c-0.469,0.969 -0.79,2.009 -0.962,3.119c-0.172,1.109 -0.258,2.149 -0.258,3.118c0,0.156 0.008,0.453 0.024,0.891l0.094,2.767c0.015,0.438 0.039,0.735 0.07,0.891c0.344,0.75 0.68,1.329 1.008,1.735c0.328,0.406 0.68,0.711 1.055,0.914c0.375,0.204 0.782,0.329 1.22,0.376c0.437,0.046 0.953,0.07 1.547,0.07c0.813,-0 1.524,-0.125 2.134,-0.375c0.609,-0.25 1.18,-0.547 1.711,-0.891c0.532,-0.344 1.032,-0.727 1.501,-1.149c0.469,-0.422 0.961,-0.813 1.477,-1.173c0.516,-0.359 1.079,-0.656 1.688,-0.891c0.61,-0.234 1.306,-0.351 2.087,-0.351c0,1.532 -0.273,2.892 -0.82,4.08c-0.548,1.188 -1.313,2.204 -2.298,3.048c-0.985,0.844 -2.142,1.493 -3.47,1.946c-1.329,0.453 -2.775,0.68 -4.338,0.68c-1.47,-0 -2.79,-0.5 -3.963,-1.501c-1.172,-1 -2.173,-2.227 -3.001,-3.681c-0.828,-1.454 -1.462,-2.993 -1.899,-4.619c-0.438,-1.626 -0.657,-3.064 -0.657,-4.314Z"
          style="fill-rule:nonzero;"/>
    <path d="M1130.74,310.516c0,-1.938 0.454,-3.743 1.36,-5.416c0.907,-1.673 2.103,-3.111 3.588,-4.314c1.485,-1.204 3.157,-2.15 5.017,-2.837c1.861,-0.688 3.744,-1.032 5.651,-1.032c1.063,-0 2.009,0.344 2.837,1.032c0.829,0.687 1.524,1.524 2.087,2.508c0.563,0.985 0.993,2.025 1.29,3.119c0.297,1.094 0.445,2.048 0.445,2.86c0,1.751 -0.422,3.447 -1.266,5.088c-0.844,1.642 -1.938,3.096 -3.283,4.362c-1.344,1.266 -2.86,2.29 -4.548,3.071c-1.689,0.782 -3.377,1.173 -5.065,1.173c-1.501,-0 -2.767,-0.258 -3.798,-0.774c-1.032,-0.516 -1.861,-1.204 -2.486,-2.063c-0.625,-0.86 -1.086,-1.876 -1.383,-3.049c-0.297,-1.172 -0.446,-2.415 -0.446,-3.728Zm3.986,0.469c0,0.813 0.071,1.524 0.211,2.134c0.141,0.61 0.391,1.133 0.751,1.571c0.359,0.438 0.836,0.774 1.43,1.008c0.594,0.235 1.329,0.352 2.204,0.352c1.157,-0 2.313,-0.321 3.47,-0.962c1.157,-0.64 2.196,-1.453 3.119,-2.438c0.922,-0.985 1.664,-2.071 2.227,-3.259c0.563,-1.188 0.844,-2.345 0.844,-3.47c0,-0.501 -0.047,-1.048 -0.14,-1.642c-0.094,-0.594 -0.251,-1.141 -0.469,-1.641c-0.219,-0.5 -0.532,-0.922 -0.938,-1.266c-0.407,-0.344 -0.923,-0.516 -1.548,-0.516c-0.562,-0 -1.227,0.188 -1.993,0.563c-0.766,0.375 -1.563,0.859 -2.391,1.453c-0.829,0.594 -1.642,1.267 -2.439,2.017c-0.797,0.75 -1.524,1.501 -2.181,2.251c-0.656,0.75 -1.18,1.469 -1.57,2.157c-0.391,0.688 -0.587,1.251 -0.587,1.688Z"
          style="fill-rule:nonzero;"/>
    <path d="M1153.81,300.34c0,-0.781 0.133,-1.391 0.399,-1.829c0.266,-0.437 0.836,-0.656 1.712,-0.656l1.031,0.047c0.219,0.969 0.446,2.024 0.68,3.165c0.235,1.141 0.508,2.29 0.821,3.447c0.313,1.156 0.664,2.298 1.055,3.423c0.391,1.126 0.868,2.142 1.43,3.048c0.563,-0.594 0.97,-1.297 1.22,-2.11c0.25,-0.813 0.437,-1.634 0.562,-2.462c0.125,-0.828 0.243,-1.626 0.352,-2.392c0.109,-0.766 0.336,-1.422 0.68,-1.969c0.344,-0.547 0.852,-0.946 1.524,-1.196c0.672,-0.25 1.602,-0.25 2.79,-0c1.313,-0 2.361,0.242 3.142,0.727c0.782,0.484 1.462,1.094 2.04,1.829c0.579,0.734 1.141,1.516 1.688,2.344c0.547,0.829 1.243,1.571 2.087,2.228c0.188,-0.406 0.422,-0.914 0.704,-1.524c0.281,-0.61 0.633,-1.251 1.055,-1.923c0.422,-0.672 0.875,-1.344 1.36,-2.016c0.484,-0.672 0.992,-1.282 1.524,-1.829c0.531,-0.547 1.078,-1.001 1.641,-1.36c0.563,-0.36 1.11,-0.539 1.641,-0.539c1.282,-0 2.392,0.398 3.33,1.195c0.938,0.798 1.743,1.798 2.415,3.002c0.672,1.203 1.227,2.548 1.665,4.033c0.437,1.485 0.781,2.915 1.031,4.29c0.25,1.376 0.43,2.634 0.54,3.775c0.109,1.142 0.164,1.962 0.164,2.462c-0,0.407 -0.094,0.719 -0.282,0.938c-0.187,0.219 -0.422,0.383 -0.703,0.493c-0.281,0.109 -0.586,0.179 -0.914,0.211c-0.329,0.031 -0.634,0.047 -0.915,0.047c-0.062,-0 -0.156,-0.008 -0.281,-0.024c-0.125,-0.015 -0.266,-0.039 -0.422,-0.07c-0.125,-0.031 -0.297,-0.078 -0.516,-0.141l-3.048,-14.021c-0,-0.094 -0.125,-0.274 -0.375,-0.54c-0.251,-0.265 -0.438,-0.429 -0.563,-0.492c-0.094,0 -0.172,-0.016 -0.235,-0.047c-0.062,0 -0.109,-0.008 -0.14,-0.023c-0.032,-0.016 -0.063,-0.024 -0.094,-0.024c-0.657,0 -1.274,0.266 -1.852,0.797c-0.579,0.532 -1.118,1.204 -1.618,2.017c-0.501,0.813 -0.969,1.719 -1.407,2.72c-0.438,1 -0.829,1.993 -1.173,2.978c-0.343,0.984 -0.648,1.891 -0.914,2.719c-0.266,0.829 -0.477,1.462 -0.633,1.9c-0.125,0.062 -0.375,0.117 -0.75,0.164c-0.376,0.047 -0.626,0.07 -0.751,0.07c-0.875,0 -1.547,-0.305 -2.016,-0.914c-0.469,-0.61 -0.852,-1.368 -1.149,-2.275c-0.297,-0.906 -0.547,-1.899 -0.75,-2.977c-0.204,-1.079 -0.454,-2.072 -0.751,-2.978c-0.297,-0.907 -0.703,-1.665 -1.219,-2.275c-0.516,-0.609 -1.243,-0.914 -2.181,-0.914c-0.343,-0 -0.672,0.344 -0.984,1.032c-0.313,0.687 -0.594,1.555 -0.844,2.602c-0.251,1.048 -0.485,2.173 -0.704,3.377c-0.219,1.203 -0.398,2.329 -0.539,3.376c-0.141,1.047 -0.242,1.931 -0.305,2.65c-0.062,0.719 -0.094,1.078 -0.094,1.078c-0.062,0.094 -0.187,0.196 -0.375,0.305c-0.187,0.109 -0.383,0.227 -0.586,0.352c-0.203,0.125 -0.406,0.219 -0.61,0.281c-0.203,0.063 -0.351,0.094 -0.445,0.094c-0.876,-0 -1.72,-0.399 -2.532,-1.196c-0.813,-0.797 -1.556,-1.829 -2.228,-3.095c-0.672,-1.266 -1.282,-2.665 -1.829,-4.197c-0.547,-1.532 -1.008,-3.033 -1.383,-4.502c-0.375,-1.469 -0.665,-2.798 -0.868,-3.986c-0.203,-1.188 -0.305,-2.095 -0.305,-2.72Z"
          style="fill-rule:nonzero;"/></g><g><path d="M1067.05,164.679l14.965,0l0,51.604l-14.449,-0l0,-6.709c-5.16,7.741 -11.868,8.257 -15.997,8.257c-15.997,-0 -26.317,-12.385 -26.317,-27.35c-0,-15.481 10.32,-27.35 25.285,-27.35c4.128,0 11.869,0.516 16.513,8.257l0,-6.709Zm-26.317,25.802c-0,8.256 5.676,14.449 14.448,14.449c8.257,-0 14.449,-6.193 14.449,-14.449c0,-8.257 -5.676,-14.449 -14.449,-14.449c-8.256,0 -14.448,6.192 -14.448,14.449Zm69.664,-13.417l-0,39.219l-14.449,-0l0,-39.219l-5.676,0l-0,-12.385l5.676,0l0,-17.545l14.449,0l-0,17.545l9.805,0l-0,12.385l-9.805,0Zm43.863,0c-3.613,-3.096 -6.709,-3.612 -8.257,-3.612c-3.612,-0 -5.676,1.548 -5.676,4.128c-0,1.548 0.516,3.096 4.644,4.644l3.612,1.033c4.129,1.548 10.321,3.096 12.901,7.224c1.548,2.064 2.58,5.16 2.58,8.772c0,4.645 -1.548,9.289 -5.676,12.901c-4.128,3.613 -9.289,5.677 -15.481,5.677c-10.837,-0 -16.513,-5.161 -20.125,-8.773l7.74,-8.772c3.096,3.096 7.225,6.192 11.353,6.192c4.128,-0 7.224,-2.064 7.224,-5.676c0,-3.097 -2.58,-4.645 -4.644,-5.161l-3.096,-1.032c-3.612,-1.548 -7.741,-3.096 -10.837,-6.192c-2.58,-2.58 -4.128,-5.677 -4.128,-9.805c-0,-5.16 2.58,-9.288 5.16,-11.869c4.128,-3.096 9.289,-3.612 13.417,-3.612c3.612,0 9.805,0.516 16.513,5.677l-7.224,8.256Zm31.478,-5.676c5.16,-7.225 12.384,-8.257 16.513,-8.257c14.965,0 25.285,11.869 25.285,27.35c0,15.481 -10.32,27.35 -25.801,27.35c-3.097,-0 -10.837,-0.516 -16.513,-8.257l-0,6.709l-13.933,-0l-0,-86.694l14.449,0l-0,41.799Zm-1.549,19.093c0,8.256 5.677,14.449 14.449,14.449c8.257,-0 14.449,-6.193 14.449,-14.449c0,-8.257 -5.676,-14.449 -14.449,-14.449c-8.772,0 -14.449,6.192 -14.449,14.449Zm67.085,18.061l-24.77,-43.863l17.029,0l15.997,29.414l14.449,-29.414l16.513,0l-41.283,78.953l-16.513,0l18.578,-35.09Zm-229.635,-35.09l-36.122,-0l0,14.449l19.093,-0c-3.096,9.804 -10.32,16.513 -23.737,16.513c-14.965,-0 -25.802,-12.385 -25.802,-27.35c0,-14.965 10.321,-27.866 25.286,-27.866c8.256,0 16.513,4.129 21.673,10.837l11.869,-7.74c-7.741,-10.837 -20.125,-17.029 -33.542,-17.029c-22.706,-0 -41.283,18.577 -41.283,41.798c0,23.222 17.545,41.799 41.283,41.799c23.737,-0 41.282,-18.577 41.282,-41.799c0.516,-1.548 0,-2.58 0,-3.612Z" style="fill-rule:nonzero;"/>
    <path d="M871.986,175l-36.122,0l-0,10.321l24.769,-0c-3.612,15.481 -14.964,28.381 -29.929,33.542l-59.344,-59.344c6.192,-18.061 23.737,-30.962 43.863,-30.962c15.481,0 29.413,7.741 38.186,19.609l7.741,-6.708c-10.321,-13.933 -26.834,-23.222 -45.927,-23.222c-26.834,0 -49.539,19.094 -55.216,44.379l68.116,68.116c24.77,-6.192 43.863,-28.897 43.863,-55.731Zm-113.527,0.516c0,14.449 5.677,28.382 16.513,39.218c10.837,10.837 25.286,16.513 39.219,16.513l-55.732,-55.731Z"
          style="fill:#fff;fill-rule:nonzero;"/>
    <path d="M815.223,102.756c-39.735,-0 -72.245,32.51 -72.245,72.244c0,39.734 32.51,72.244 72.245,72.244c39.734,0 72.244,-32.51 72.244,-72.244c0,-39.734 -32.51,-72.244 -72.244,-72.244Zm-40.251,112.494c-10.836,-10.836 -16.513,-25.285 -16.513,-39.218l56.248,55.732c-14.449,-0.517 -28.898,-5.677 -39.735,-16.514Zm52.635,14.965l-67.6,-67.6c5.677,-25.285 28.382,-44.379 55.216,-44.379c19.093,0 35.606,9.289 45.927,23.222l-7.741,6.708c-8.773,-11.868 -22.705,-19.609 -38.186,-19.609c-20.126,0 -37.155,12.901 -43.863,30.962l59.344,59.344c14.965,-5.161 26.317,-18.061 29.929,-33.542l-24.769,-0l-0,-10.321l36.122,0c0,26.834 -19.093,49.539 -44.379,55.215Z"
          style="fill:#639;fill-rule:nonzero;"/></g><g><path d="M1587.84,309.636c0,-0.812 0.203,-1.398 0.61,-1.757c0.406,-0.36 1.062,-0.539 1.968,-0.539l0.469,-0c0.094,0.5 0.203,1.078 0.328,1.734c0.125,0.656 0.313,1.328 0.563,2.016c0.25,0.687 0.547,1.32 0.89,1.898c0.344,0.578 0.766,1.039 1.266,1.383c0.031,-1.094 0.305,-2.149 0.82,-3.164c0.516,-1.016 1.157,-1.922 1.922,-2.719c0.766,-0.797 1.61,-1.469 2.532,-2.016c0.921,-0.546 1.835,-0.914 2.742,-1.101l1.031,-0c1.5,-0 2.781,0.336 3.844,1.008c1.062,0.672 1.945,1.547 2.648,2.625c0.703,1.078 1.242,2.304 1.617,3.679c0.375,1.375 0.664,2.774 0.868,4.196c0.203,1.422 0.328,2.797 0.375,4.125c0.046,1.328 0.07,2.461 0.07,3.398l-3.422,0c-0.188,-1.875 -0.422,-3.672 -0.703,-5.391c-0.094,-0.687 -0.219,-1.414 -0.375,-2.179c-0.156,-0.766 -0.328,-1.485 -0.516,-2.156c-0.187,-0.672 -0.39,-1.297 -0.609,-1.875c-0.219,-0.579 -0.469,-1.071 -0.75,-1.477l-1.125,-1.172c-0.219,-0.219 -0.422,-0.406 -0.61,-0.562c-0.187,-0.157 -0.296,-0.235 -0.328,-0.235c-0.937,-0.25 -1.75,-0.07 -2.437,0.539c-0.688,0.61 -1.297,1.43 -1.828,2.461c-0.532,1.031 -0.961,2.203 -1.289,3.516c-0.328,1.312 -0.602,2.57 -0.821,3.773c-0.218,1.203 -0.375,2.25 -0.468,3.141c-0.094,0.891 -0.157,1.43 -0.188,1.617c-0.781,0.563 -1.516,0.727 -2.203,0.492c-0.688,-0.234 -1.336,-0.726 -1.945,-1.476c-0.61,-0.75 -1.157,-1.688 -1.641,-2.813c-0.484,-1.125 -0.93,-2.32 -1.336,-3.586c-0.406,-1.265 -0.773,-2.539 -1.101,-3.82c-0.329,-1.281 -0.618,-2.469 -0.868,-3.563Z" style="fill-rule:nonzero;"/>
    <path d="M1614.98,312.402c-0,-1.687 0.203,-3.375 0.609,-5.062c0.407,-1.688 1.055,-3.204 1.946,-4.547c0.89,-1.344 2.047,-2.438 3.468,-3.282c1.422,-0.843 3.149,-1.265 5.18,-1.265c1.156,-0 2.172,0.211 3.047,0.633c0.875,0.422 1.609,0.976 2.203,1.664c0.594,0.687 1.039,1.492 1.336,2.414c0.297,0.922 0.445,1.883 0.445,2.883c0,1.593 -0.367,3.14 -1.101,4.64c-0.735,1.5 -1.719,2.821 -2.953,3.961c-1.235,1.141 -2.649,2 -4.243,2.578c-1.593,0.578 -3.218,0.711 -4.875,0.399c0.032,0.906 0.336,1.633 0.915,2.179c0.578,0.547 1.273,0.961 2.085,1.243c0.813,0.281 1.657,0.461 2.532,0.539c0.875,0.078 1.656,0.117 2.343,0.117c0.719,-0 1.391,-0.063 2.016,-0.188c0.625,-0.125 1.25,-0.265 1.875,-0.422c0.625,-0.156 1.258,-0.296 1.899,-0.421c0.64,-0.125 1.32,-0.188 2.039,-0.188c0.281,0 0.562,0.016 0.843,0.047c0.282,0.031 0.547,0.102 0.797,0.211c0.25,0.109 0.453,0.281 0.61,0.516c0.156,0.234 0.234,0.523 0.234,0.867c-0,0.593 -0.219,1.086 -0.656,1.476c-0.438,0.391 -0.992,0.727 -1.664,1.008c-0.672,0.281 -1.414,0.492 -2.227,0.633c-0.812,0.141 -1.601,0.25 -2.367,0.328c-0.766,0.078 -1.469,0.125 -2.109,0.141c-0.641,0.015 -1.118,0.023 -1.43,0.023c-2,0 -3.797,-0.32 -5.391,-0.961c-1.594,-0.64 -2.937,-1.531 -4.031,-2.672c-1.094,-1.14 -1.93,-2.515 -2.508,-4.125c-0.578,-1.609 -0.867,-3.398 -0.867,-5.367Zm4.969,-3.047c-0,1.094 0.148,1.891 0.445,2.391c0.297,0.5 1.023,0.75 2.18,0.75c0.812,-0 1.609,-0.149 2.39,-0.445c0.782,-0.297 1.493,-0.711 2.133,-1.243c0.641,-0.531 1.149,-1.156 1.524,-1.875c0.375,-0.718 0.562,-1.5 0.562,-2.343c0,-0.469 -0.039,-0.954 -0.117,-1.454c-0.078,-0.5 -0.242,-0.96 -0.492,-1.382c-0.25,-0.422 -0.571,-0.766 -0.961,-1.032c-0.391,-0.265 -0.899,-0.398 -1.524,-0.398c-0.937,-0 -1.789,0.211 -2.554,0.633c-0.766,0.422 -1.414,0.969 -1.946,1.64c-0.531,0.672 -0.937,1.422 -1.218,2.25c-0.282,0.829 -0.422,1.664 -0.422,2.508Z"
          style="fill-rule:nonzero;"/>
    <path d="M1640.11,301.808c-0,-0.093 0.016,-0.172 0.047,-0.234c-0,-0.063 0.015,-0.141 0.047,-0.234c0.125,-0.157 0.312,-0.36 0.562,-0.61c0.25,-0.25 0.406,-0.375 0.469,-0.375l9.422,0c-0,-0.344 -0.047,-0.89 -0.141,-1.64c-0.094,-0.75 -0.179,-1.579 -0.258,-2.485c-0.078,-0.906 -0.101,-1.851 -0.07,-2.836c0.031,-0.984 0.164,-1.875 0.399,-2.672c0.234,-0.796 0.609,-1.453 1.125,-1.968c0.515,-0.516 1.242,-0.774 2.179,-0.774c0,3.156 0.219,5.688 0.656,7.594c0.438,1.906 1.024,3.375 1.758,4.406c0.735,1.031 1.571,1.703 2.508,2.016c0.938,0.312 1.899,0.445 2.883,0.398c0.984,-0.047 1.945,-0.195 2.883,-0.445c0.937,-0.25 1.773,-0.422 2.508,-0.516c0.734,-0.093 1.32,-0.023 1.757,0.211c0.438,0.235 0.657,0.789 0.657,1.664c-0,0.657 -0.149,1.125 -0.446,1.407c-0.297,0.281 -0.867,0.5 -1.711,0.656c-0.25,0.031 -0.664,0.086 -1.242,0.164c-0.578,0.078 -1.226,0.148 -1.945,0.211l-4.594,0.422c-0.719,0.062 -1.375,0.101 -1.969,0.117c-0.593,0.016 -1.031,0.023 -1.312,0.023l-0.094,1.547c0,1.375 0.219,2.711 0.656,4.008c0.438,1.297 0.914,2.586 1.43,3.867c0.516,1.281 0.992,2.563 1.43,3.844c0.437,1.281 0.656,2.609 0.656,3.984c-0,0.25 -0.023,0.508 -0.07,0.774c-0.047,0.265 -0.141,0.5 -0.282,0.703c-0.14,0.203 -0.343,0.359 -0.609,0.469c-0.266,0.109 -0.633,0.086 -1.102,-0.071c-1.187,-0.312 -2.07,-0.984 -2.648,-2.015c-0.578,-1.032 -1.008,-2.258 -1.289,-3.68c-0.281,-1.422 -0.469,-2.93 -0.563,-4.523c-0.093,-1.594 -0.242,-3.086 -0.445,-4.477c-0.203,-1.391 -0.523,-2.578 -0.961,-3.562c-0.437,-0.985 -1.14,-1.586 -2.109,-1.805l-9.047,-2.063c-0.125,0 -0.313,-0.132 -0.563,-0.398c-0.25,-0.266 -0.406,-0.461 -0.468,-0.586c-0.032,-0.063 -0.047,-0.141 -0.047,-0.234c-0.031,-0.063 -0.047,-0.157 -0.047,-0.282Z"
          style="fill-rule:nonzero;"/>
    <path d="M1672.4,298.902c-0,-0.906 -0.063,-1.789 -0.188,-2.648c-0.125,-0.86 -0.156,-1.625 -0.093,-2.297c0.062,-0.672 0.304,-1.211 0.726,-1.617c0.422,-0.407 1.195,-0.61 2.32,-0.61c0.344,0.719 0.68,1.813 1.008,3.281c0.328,1.469 0.649,3.157 0.961,5.063c0.313,1.906 0.61,3.977 0.891,6.211c0.281,2.234 0.539,4.476 0.773,6.726c0.235,2.25 0.438,4.461 0.61,6.633c0.172,2.172 0.304,4.149 0.398,5.93c-1.031,0.687 -1.859,0.734 -2.484,0.141c-0.625,-0.594 -1.141,-1.602 -1.547,-3.024c-0.406,-1.422 -0.719,-3.156 -0.938,-5.203c-0.218,-2.047 -0.429,-4.172 -0.632,-6.375c-0.204,-2.203 -0.446,-4.375 -0.727,-6.516c-0.281,-2.14 -0.641,-4.039 -1.078,-5.695Z"
          style="fill-rule:nonzero;"/>
    <path d="M1684.22,307.855c0,-0.187 0.008,-0.492 0.024,-0.914l0.094,-2.695c0.015,-0.438 0.023,-0.75 0.023,-0.938c0.344,-0.5 0.789,-0.906 1.336,-1.218c0.547,-0.313 1.101,-0.563 1.664,-0.75c0.094,1.687 0.359,3.484 0.797,5.39c0.437,1.906 0.906,3.821 1.406,5.742c0.5,1.922 0.945,3.821 1.336,5.696c0.391,1.875 0.586,3.625 0.586,5.25c-0,1.406 -0.719,2.109 -2.156,2.109c-0.875,0 -1.61,-0.359 -2.203,-1.078c-0.594,-0.719 -1.071,-1.633 -1.43,-2.742c-0.359,-1.11 -0.649,-2.344 -0.867,-3.703c-0.219,-1.36 -0.367,-2.696 -0.446,-4.008c-0.078,-1.313 -0.125,-2.516 -0.14,-3.61c-0.016,-1.093 -0.024,-1.937 -0.024,-2.531Zm0.657,-17.578c0.593,0.25 1.093,0.656 1.5,1.219c0.406,0.562 0.586,1.07 0.539,1.523c-0.047,0.453 -0.399,0.766 -1.055,0.938c-0.656,0.172 -1.75,-0.008 -3.281,-0.539c-0,-0.844 0.164,-1.578 0.492,-2.203c0.328,-0.625 0.93,-0.938 1.805,-0.938Z"
          style="fill-rule:nonzero;"/>
    <path d="M1712.39,329.793c-0.656,-1.219 -1.383,-2.742 -2.179,-4.571c-0.797,-1.828 -1.618,-3.734 -2.461,-5.718c-0.844,-1.985 -1.727,-3.93 -2.649,-5.836c-0.922,-1.907 -1.851,-3.563 -2.789,-4.969c-0.375,-0.281 -0.891,-0.453 -1.547,-0.516c-0.656,-0.062 -1.344,-0.086 -2.062,-0.07c-0.719,0.016 -1.43,0 -2.133,-0.047c-0.703,-0.047 -1.313,-0.211 -1.828,-0.492c-0.516,-0.281 -0.899,-0.719 -1.149,-1.313c-0.25,-0.593 -0.297,-1.453 -0.14,-2.578l7.875,0c0.156,-1.75 0.422,-3.484 0.797,-5.203c0.375,-1.719 0.882,-3.359 1.523,-4.922c0.641,-1.562 1.414,-3.015 2.32,-4.359c0.907,-1.344 2,-2.5 3.282,-3.469c1.281,-0.969 2.757,-1.734 4.429,-2.297c1.672,-0.562 3.571,-0.843 5.696,-0.843c0.75,-0 1.5,0.179 2.25,0.539c0.75,0.359 1.421,0.836 2.015,1.429c0.594,0.594 1.071,1.266 1.43,2.016c0.359,0.75 0.539,1.5 0.539,2.25c-0.594,-0 -1.125,-0.117 -1.594,-0.352c-0.469,-0.234 -0.922,-0.5 -1.359,-0.796c-0.438,-0.297 -0.906,-0.579 -1.406,-0.844c-0.5,-0.266 -1.063,-0.399 -1.688,-0.399c-1.875,0 -3.617,0.375 -5.226,1.125c-1.61,0.75 -3.016,1.75 -4.219,3c-1.203,1.25 -2.149,2.703 -2.836,4.36c-0.688,1.656 -1.031,3.406 -1.031,5.25c-0,0.125 0.007,0.351 0.023,0.679l0.047,2.133c0.016,0.344 0.023,0.578 0.023,0.703c1.157,0.375 2.453,0.657 3.891,0.844c1.437,0.188 2.883,0.305 4.336,0.352c1.453,0.047 2.859,0.039 4.219,-0.024c1.359,-0.062 2.57,-0.14 3.632,-0.234c0.094,0.094 0.266,0.265 0.516,0.515c0.25,0.25 0.391,0.438 0.422,0.563c-0,0.094 0.016,0.156 0.047,0.187c0.062,0.188 0.094,0.282 0.094,0.282c-0,0.656 -0.344,1.172 -1.032,1.547c-0.687,0.375 -1.562,0.648 -2.625,0.82c-1.062,0.172 -2.242,0.289 -3.539,0.351c-1.297,0.063 -2.547,0.118 -3.75,0.165c-1.203,0.046 -2.281,0.109 -3.234,0.187c-0.953,0.078 -1.617,0.227 -1.992,0.445c0.406,1.875 1.133,3.688 2.179,5.438c1.047,1.75 2.118,3.5 3.211,5.25c1.094,1.75 2.063,3.515 2.907,5.297c0.843,1.781 1.265,3.609 1.265,5.484c-0.125,0 -0.414,0.008 -0.867,0.024c-0.453,0.015 -0.93,-0.008 -1.43,-0.071c-0.5,-0.062 -0.976,-0.195 -1.429,-0.398c-0.453,-0.203 -0.711,-0.508 -0.774,-0.914Z"
          style="fill-rule:nonzero;"/>
    <path d="M1725.61,301.199c-0,-0.281 0.008,-0.57 0.023,-0.867c0.016,-0.297 0.079,-0.578 0.188,-0.844c0.109,-0.266 0.266,-0.469 0.469,-0.609c0.203,-0.141 0.507,-0.211 0.914,-0.211l0.281,-0c0.094,0.031 0.172,0.047 0.234,0.047c0.594,0.812 1.11,1.851 1.547,3.117c0.438,1.265 0.86,2.609 1.266,4.031c0.406,1.422 0.844,2.859 1.312,4.313c0.469,1.453 1.078,2.757 1.828,3.914c0.75,1.156 1.672,2.078 2.766,2.765c1.094,0.688 2.453,0.985 4.078,0.891c0.719,-0 1.188,-0.391 1.406,-1.172c0.219,-0.781 0.336,-1.781 0.352,-3c0.016,-1.219 -0.016,-2.563 -0.094,-4.031c-0.078,-1.469 -0.078,-2.867 0,-4.196c0.078,-1.328 0.313,-2.492 0.703,-3.492c0.391,-1 1.071,-1.672 2.039,-2.015c0.407,0.812 0.743,2.086 1.008,3.82c0.266,1.734 0.461,3.734 0.586,6c0.125,2.266 0.188,4.719 0.188,7.359c-0,2.641 -0.063,5.266 -0.188,7.875c-0.125,2.61 -0.312,5.117 -0.562,7.524c-0.25,2.406 -0.532,4.515 -0.844,6.328c-0.313,1.812 -0.68,3.242 -1.102,4.289c-0.421,1.047 -0.867,1.492 -1.336,1.336c-0.656,-0.625 -1.164,-1.438 -1.523,-2.438c-0.359,-1 -0.609,-2.109 -0.75,-3.328c-0.141,-1.219 -0.195,-2.508 -0.164,-3.867c0.031,-1.359 0.086,-2.727 0.164,-4.102c0.078,-1.375 0.172,-2.718 0.281,-4.031c0.11,-1.312 0.164,-2.515 0.164,-3.609c-1.125,0.094 -2.273,-0.078 -3.445,-0.516c-1.172,-0.437 -2.32,-1.117 -3.445,-2.039c-1.125,-0.922 -2.196,-2.039 -3.211,-3.351c-1.016,-1.313 -1.906,-2.797 -2.672,-4.454c-0.766,-1.656 -1.367,-3.445 -1.805,-5.367c-0.437,-1.922 -0.656,-3.945 -0.656,-6.07Z"
          style="fill-rule:nonzero;"/>
    <path d="M1755.09,321.636c1.407,0 2.11,0.735 2.11,2.204c-0.344,0.906 -0.782,1.507 -1.313,1.804c-0.531,0.297 -1.023,0.407 -1.476,0.328c-0.453,-0.078 -0.86,-0.304 -1.219,-0.679c-0.359,-0.375 -0.555,-0.797 -0.586,-1.266c-0.031,-0.469 0.141,-0.93 0.516,-1.383c0.375,-0.453 1.031,-0.789 1.968,-1.008Z"
          style="fill-rule:nonzero;"/>
    <path d="M1759.22,311.324c0,-1.313 0.289,-2.688 0.868,-4.125c0.578,-1.438 1.351,-2.742 2.32,-3.914c0.969,-1.172 2.086,-2.149 3.351,-2.93c1.266,-0.781 2.602,-1.172 4.008,-1.172c0.719,0 1.438,0.125 2.156,0.375c0.719,0.25 1.368,0.61 1.946,1.078c0.578,0.469 1.047,1.032 1.406,1.688c0.359,0.656 0.539,1.391 0.539,2.203c-0.562,0 -1.07,-0.062 -1.523,-0.187c-0.453,-0.125 -0.899,-0.274 -1.336,-0.446c-0.438,-0.172 -0.867,-0.32 -1.289,-0.445c-0.422,-0.125 -0.883,-0.188 -1.383,-0.188c-1.281,0 -2.32,0.321 -3.117,0.961c-0.797,0.641 -1.43,1.446 -1.899,2.414c-0.469,0.969 -0.789,2.008 -0.961,3.118c-0.172,1.109 -0.258,2.148 -0.258,3.117c0,0.156 0.008,0.453 0.024,0.89l0.094,2.766c0.015,0.438 0.039,0.734 0.07,0.891c0.344,0.75 0.68,1.328 1.008,1.734c0.328,0.406 0.679,0.711 1.054,0.914c0.375,0.203 0.782,0.328 1.219,0.375c0.438,0.047 0.953,0.07 1.547,0.07c0.813,0 1.524,-0.125 2.133,-0.375c0.609,-0.25 1.18,-0.546 1.711,-0.89c0.531,-0.344 1.031,-0.727 1.5,-1.149c0.469,-0.421 0.961,-0.812 1.476,-1.171c0.516,-0.36 1.079,-0.657 1.688,-0.891c0.609,-0.234 1.305,-0.352 2.086,-0.352c-0,1.532 -0.274,2.891 -0.82,4.078c-0.547,1.188 -1.313,2.204 -2.297,3.047c-0.985,0.844 -2.141,1.493 -3.469,1.946c-1.328,0.453 -2.774,0.679 -4.336,0.679c-1.469,0 -2.789,-0.5 -3.961,-1.5c-1.172,-1 -2.172,-2.226 -3,-3.679c-0.828,-1.453 -1.461,-2.993 -1.898,-4.618c-0.438,-1.625 -0.657,-3.062 -0.657,-4.312Z"
          style="fill-rule:nonzero;"/>
    <path d="M1782.28,315.918c-0,-1.938 0.453,-3.742 1.359,-5.414c0.906,-1.672 2.102,-3.11 3.586,-4.313c1.485,-1.203 3.156,-2.148 5.016,-2.836c1.859,-0.687 3.742,-1.031 5.648,-1.031c1.063,-0 2.008,0.344 2.836,1.031c0.828,0.688 1.524,1.524 2.086,2.508c0.563,0.984 0.992,2.023 1.289,3.117c0.297,1.094 0.445,2.047 0.445,2.86c0,1.75 -0.421,3.445 -1.265,5.086c-0.844,1.64 -1.938,3.093 -3.281,4.359c-1.344,1.266 -2.86,2.289 -4.547,3.07c-1.688,0.781 -3.375,1.172 -5.063,1.172c-1.5,0 -2.765,-0.258 -3.797,-0.773c-1.031,-0.516 -1.859,-1.203 -2.484,-2.063c-0.625,-0.859 -1.086,-1.875 -1.383,-3.047c-0.297,-1.172 -0.445,-2.414 -0.445,-3.726Zm3.984,0.468c0,0.813 0.071,1.524 0.211,2.133c0.141,0.61 0.391,1.133 0.75,1.571c0.36,0.437 0.836,0.773 1.43,1.007c0.594,0.235 1.328,0.352 2.203,0.352c1.156,-0 2.312,-0.32 3.469,-0.961c1.156,-0.641 2.195,-1.453 3.117,-2.437c0.922,-0.985 1.664,-2.071 2.226,-3.258c0.563,-1.188 0.844,-2.344 0.844,-3.469c0,-0.5 -0.047,-1.047 -0.14,-1.641c-0.094,-0.593 -0.25,-1.14 -0.469,-1.64c-0.219,-0.5 -0.531,-0.922 -0.938,-1.266c-0.406,-0.344 -0.922,-0.516 -1.547,-0.516c-0.562,0 -1.226,0.188 -1.992,0.563c-0.765,0.375 -1.562,0.859 -2.39,1.453c-0.828,0.594 -1.641,1.266 -2.438,2.016c-0.797,0.75 -1.523,1.5 -2.18,2.25c-0.656,0.75 -1.179,1.468 -1.57,2.156c-0.39,0.687 -0.586,1.25 -0.586,1.687Z"
          style="fill-rule:nonzero;"/>
    <path d="M1805.34,305.746c0,-0.781 0.133,-1.391 0.399,-1.828c0.265,-0.438 0.836,-0.657 1.711,-0.657l1.031,0.047c0.219,0.969 0.445,2.024 0.68,3.164c0.234,1.141 0.507,2.289 0.82,3.446c0.312,1.156 0.664,2.297 1.055,3.422c0.39,1.125 0.867,2.14 1.429,3.046c0.563,-0.593 0.969,-1.296 1.219,-2.109c0.25,-0.812 0.438,-1.633 0.563,-2.461c0.125,-0.828 0.242,-1.625 0.351,-2.39c0.11,-0.766 0.336,-1.422 0.68,-1.969c0.344,-0.547 0.851,-0.946 1.523,-1.196c0.672,-0.25 1.602,-0.25 2.789,0c1.313,0 2.36,0.243 3.141,0.727c0.781,0.484 1.461,1.094 2.039,1.828c0.578,0.735 1.141,1.516 1.688,2.344c0.546,0.828 1.242,1.57 2.085,2.226c0.188,-0.406 0.422,-0.914 0.704,-1.523c0.281,-0.609 0.632,-1.25 1.054,-1.922c0.422,-0.672 0.875,-1.344 1.36,-2.015c0.484,-0.672 0.992,-1.282 1.523,-1.829c0.531,-0.546 1.078,-1 1.641,-1.359c0.562,-0.359 1.109,-0.539 1.64,-0.539c1.282,-0 2.391,0.398 3.328,1.195c0.938,0.797 1.743,1.797 2.415,3c0.671,1.203 1.226,2.547 1.664,4.032c0.437,1.484 0.781,2.914 1.031,4.289c0.25,1.375 0.43,2.632 0.539,3.773c0.109,1.141 0.164,1.961 0.164,2.461c-0,0.406 -0.094,0.719 -0.281,0.937c-0.188,0.219 -0.422,0.383 -0.703,0.493c-0.282,0.109 -0.586,0.179 -0.914,0.211c-0.329,0.031 -0.633,0.046 -0.915,0.046c-0.062,0 -0.156,-0.007 -0.281,-0.023c-0.125,-0.016 -0.265,-0.039 -0.422,-0.07c-0.125,-0.032 -0.297,-0.078 -0.515,-0.141l-3.047,-14.016c-0,-0.093 -0.125,-0.273 -0.375,-0.539c-0.25,-0.265 -0.438,-0.429 -0.563,-0.492c-0.093,0 -0.172,-0.015 -0.234,-0.047c-0.063,0 -0.109,-0.007 -0.141,-0.023c-0.031,-0.016 -0.062,-0.024 -0.093,-0.024c-0.657,0 -1.274,0.266 -1.852,0.797c-0.578,0.532 -1.117,1.203 -1.617,2.016c-0.5,0.812 -0.969,1.719 -1.406,2.719c-0.438,1 -0.829,1.992 -1.172,2.976c-0.344,0.985 -0.649,1.891 -0.914,2.719c-0.266,0.828 -0.477,1.461 -0.633,1.898c-0.125,0.063 -0.375,0.118 -0.75,0.165c-0.375,0.046 -0.625,0.07 -0.75,0.07c-0.875,-0 -1.547,-0.305 -2.016,-0.914c-0.469,-0.61 -0.851,-1.367 -1.148,-2.274c-0.297,-0.906 -0.547,-1.898 -0.75,-2.976c-0.203,-1.078 -0.453,-2.071 -0.75,-2.977c-0.297,-0.906 -0.703,-1.664 -1.219,-2.273c-0.516,-0.61 -1.242,-0.914 -2.18,-0.914c-0.343,-0 -0.672,0.343 -0.984,1.031c-0.313,0.687 -0.594,1.555 -0.844,2.602c-0.25,1.046 -0.484,2.171 -0.703,3.375c-0.219,1.203 -0.398,2.328 -0.539,3.375c-0.141,1.046 -0.242,1.929 -0.305,2.648c-0.062,0.719 -0.093,1.078 -0.093,1.078c-0.063,0.094 -0.188,0.195 -0.375,0.305c-0.188,0.109 -0.383,0.226 -0.586,0.351c-0.203,0.125 -0.407,0.219 -0.61,0.282c-0.203,0.062 -0.351,0.093 -0.445,0.093c-0.875,0 -1.719,-0.398 -2.531,-1.195c-0.813,-0.797 -1.555,-1.828 -2.227,-3.094c-0.672,-1.265 -1.281,-2.664 -1.828,-4.195c-0.547,-1.531 -1.008,-3.031 -1.383,-4.5c-0.375,-1.469 -0.664,-2.797 -0.867,-3.984c-0.203,-1.188 -0.305,-2.094 -0.305,-2.719Z"
          style="fill-rule:nonzero;"/></g><g><path d="M1600.89,151.351l0.4,7.143c4.559,-5.525 10.546,-8.287 17.955,-8.287c12.84,0 19.376,7.371 19.603,22.112l0,40.844l-13.844,0l0,-40.045c0,-3.922 -0.845,-6.824 -2.535,-8.712c-1.69,-1.885 -4.455,-2.828 -8.293,-2.828c-5.587,0 -9.75,2.535 -12.48,7.598l0,43.987l-13.851,0l0,-61.812l13.052,-0l-0.007,-0Zm79.225,62.956c-8.775,-0 -15.892,-2.769 -21.342,-8.31c-5.453,-5.541 -8.18,-12.921 -8.18,-22.138l0,-1.712c0,-6.169 1.187,-11.684 3.562,-16.539c2.373,-4.855 5.71,-8.635 10.003,-11.342c4.293,-2.701 9.08,-4.052 14.365,-4.052c8.394,-0 14.884,2.684 19.46,8.053c4.582,5.372 6.87,12.967 6.87,22.794l-0,5.6l-40.298,-0c0.422,5.102 2.119,9.138 5.102,12.108c2.983,2.971 6.737,4.456 11.257,4.456c6.344,0 11.511,-2.567 15.502,-7.712l7.465,7.143c-2.47,3.692 -5.765,6.558 -9.886,8.596c-4.124,2.038 -8.749,3.055 -13.877,3.055l-0.003,-0Zm-1.651,-52.953c-3.802,-0 -6.867,1.332 -9.204,3.997c-2.339,2.665 -3.828,6.38 -4.475,11.141l26.389,-0l0,-1.03c-0.305,-4.648 -1.54,-8.158 -3.705,-10.54c-2.167,-2.379 -5.167,-3.568 -9.005,-3.568Zm54.484,-25.024l-0,15.024l10.887,0l-0,10.283l-10.887,-0l-0,34.503c-0,2.36 0.468,4.063 1.397,5.112c0.93,1.047 2.594,1.57 4.989,1.57c1.63,-0.005 3.255,-0.196 4.842,-0.572l-0,10.741c-3.152,0.877 -6.191,1.313 -9.119,1.313c-10.637,-0 -15.957,-5.882 -15.957,-17.65l0,-35.021l-10.152,0l-0,-10.282l10.146,-0l-0,-15.024l13.847,-0l0.007,0.003Zm36.193,76.836l-13.851,0l0,-87.746l13.851,0l0,87.746Zm29.808,0l-13.851,0l0,-61.812l13.851,0l-0,61.812Zm-14.706,-77.866c0,-2.129 0.673,-3.9 2.022,-5.31c1.352,-1.407 3.279,-2.113 5.784,-2.113c2.509,0 4.446,0.706 5.818,2.113c1.365,1.41 2.047,3.181 2.047,5.313c0,2.093 -0.682,3.835 -2.047,5.226c-1.372,1.391 -3.309,2.086 -5.818,2.086c-2.505,0 -4.432,-0.695 -5.784,-2.086c-1.349,-1.388 -2.022,-3.133 -2.022,-5.226l0,-0.003Zm34.653,77.866l0,-51.533l-9.405,0l0,-10.282l9.405,-0l0,-5.655c0,-6.857 1.898,-12.148 5.697,-15.882c3.803,-3.731 9.119,-5.596 15.957,-5.596c2.434,-0 5.018,0.341 7.754,1.027l-0.341,10.854c-1.748,-0.324 -3.523,-0.476 -5.3,-0.455c-6.614,0 -9.919,3.406 -9.919,10.224l0,5.483l12.538,-0l-0,10.282l-12.538,0l0,51.53l-13.848,0l0,0.003Zm58.075,-19.879l12.538,-41.933l14.761,0l-24.504,71.182c-3.763,10.396 -10.146,15.596 -19.151,15.596c-2.015,-0 -4.238,-0.345 -6.669,-1.031l0,-10.74l2.623,0.172c3.493,-0 6.126,-0.637 7.894,-1.914c1.764,-1.274 3.162,-3.416 4.189,-6.425l1.992,-5.314l-21.657,-61.526l14.933,0l13.051,41.933Z"/>
    <path d="M1518.07,155.111l-0.045,-0.019c-0.026,-0.01 -0.052,-0.02 -0.075,-0.043c-0.075,-0.081 -0.109,-0.193 -0.091,-0.302l2.512,-15.359l11.781,11.784l-12.252,5.213c-0.034,0.014 -0.071,0.02 -0.107,0.019l-0.049,0c-0.016,-0.009 -0.032,-0.022 -0.065,-0.055c-0.456,-0.507 -1.001,-0.927 -1.609,-1.238Zm17.088,-0.936l12.596,12.596c2.617,2.62 3.926,3.926 4.404,5.441c0.071,0.224 0.13,0.448 0.175,0.679l-30.103,-12.749c-0.016,-0.007 -0.032,-0.013 -0.049,-0.02c-0.12,-0.048 -0.26,-0.104 -0.26,-0.227c0,-0.124 0.143,-0.182 0.264,-0.231l0.039,-0.016l12.934,-5.473Zm16.662,22.759c-0.65,1.222 -1.917,2.489 -4.062,4.637l-14.202,14.199l-18.368,-3.825l-0.098,-0.02c-0.162,-0.026 -0.334,-0.055 -0.334,-0.201c-0.141,-1.531 -0.913,-2.937 -2.129,-3.877c-0.075,-0.075 -0.055,-0.192 -0.033,-0.299c0,-0.017 0,-0.033 0.007,-0.046l3.454,-21.208l0.013,-0.072c0.02,-0.162 0.049,-0.351 0.195,-0.351c1.495,-0.186 2.854,-0.965 3.77,-2.161c0.03,-0.032 0.049,-0.068 0.088,-0.088c0.104,-0.048 0.228,0 0.335,0.046l31.361,13.266l0.003,-0Zm-21.53,22.102l-23.354,23.353l3.998,-24.568l0.006,-0.033c0.003,-0.032 0.01,-0.065 0.02,-0.094c0.032,-0.078 0.117,-0.111 0.198,-0.143l0.039,-0.016c0.875,-0.374 1.649,-0.95 2.259,-1.681c0.078,-0.091 0.172,-0.178 0.292,-0.195c0.031,-0.005 0.063,-0.005 0.094,0l16.445,3.38l0.003,-0.003Zm-28.297,28.296l-2.632,2.633l-29.102,-42.06c-0.011,-0.015 -0.022,-0.03 -0.033,-0.045c-0.045,-0.062 -0.094,-0.124 -0.084,-0.195c-0,-0.052 0.035,-0.098 0.071,-0.137l0.033,-0.042c0.087,-0.13 0.162,-0.26 0.243,-0.4l0.065,-0.113l0.01,-0.01c0.046,-0.078 0.088,-0.153 0.166,-0.195c0.068,-0.033 0.162,-0.02 0.237,-0.003l32.242,6.649c0.09,0.014 0.175,0.051 0.247,0.107c0.042,0.042 0.052,0.088 0.062,0.14c0.455,1.723 1.693,3.138 3.34,3.818c0.091,0.046 0.052,0.147 0.01,0.254c-0.021,0.047 -0.037,0.096 -0.049,0.146c-0.406,2.47 -3.89,23.717 -4.826,29.453Zm-5.498,5.496c-1.941,1.921 -3.084,2.938 -4.378,3.347c-1.275,0.403 -2.644,0.403 -3.919,0c-1.515,-0.481 -2.824,-1.787 -5.44,-4.407l-29.226,-29.225l7.634,-11.84c0.035,-0.058 0.071,-0.11 0.13,-0.152c0.081,-0.059 0.198,-0.033 0.295,-0c1.752,0.528 3.634,0.433 5.324,-0.27c0.087,-0.033 0.175,-0.055 0.243,0.006c0.034,0.032 0.065,0.066 0.091,0.104l29.246,42.44l-0,-0.003Zm-45.781,-33.103l-6.704,-6.705l13.239,-5.648c0.034,-0.015 0.071,-0.022 0.108,-0.022c0.11,-0 0.175,0.11 0.234,0.211c0.133,0.204 0.274,0.404 0.422,0.598l0.042,0.052c0.039,0.055 0.013,0.11 -0.026,0.162l-7.312,11.352l-0.003,-0Zm-9.672,-9.672l-8.482,-8.482c-1.443,-1.443 -2.489,-2.489 -3.217,-3.389l25.791,5.349c0.032,0.006 0.065,0.011 0.097,0.016c0.16,0.026 0.335,0.055 0.335,0.205c0,0.162 -0.192,0.237 -0.354,0.299l-0.075,0.032l-14.095,5.97Zm-13.181,-16.233c0.03,-0.546 0.128,-1.087 0.293,-1.608c0.481,-1.515 1.787,-2.821 4.406,-5.441l10.855,-10.854c4.998,7.253 10.009,14.497 15.034,21.732c0.087,0.117 0.185,0.247 0.084,0.344c-0.474,0.523 -0.949,1.095 -1.284,1.716c-0.036,0.08 -0.092,0.149 -0.162,0.202c-0.042,0.026 -0.088,0.016 -0.137,0.006l-0.006,0l-29.083,-6.1l0,0.003Zm18.459,-20.808l14.589,-14.595c1.374,0.601 6.37,2.71 10.832,4.595c3.379,1.43 6.46,2.73 7.429,3.152c0.097,0.039 0.185,0.078 0.227,0.176c0.026,0.058 0.013,0.133 0,0.195c-0.469,2.138 0.171,4.374 1.7,5.94c0.097,0.098 -0,0.238 -0.085,0.358l-0.045,0.068l-14.819,22.954c-0.039,0.065 -0.075,0.12 -0.14,0.162c-0.078,0.049 -0.189,0.026 -0.28,0.004c-0.576,-0.151 -1.169,-0.232 -1.764,-0.241c-0.533,0 -1.112,0.098 -1.697,0.205l-0.003,-0c-0.065,0.01 -0.124,0.023 -0.175,-0.016c-0.058,-0.047 -0.107,-0.103 -0.147,-0.166l-15.625,-22.791l0.003,-0Zm17.543,-17.543l18.895,-18.895c2.616,-2.616 3.925,-3.925 5.44,-4.403c1.275,-0.403 2.644,-0.403 3.919,-0c1.515,0.478 2.824,1.787 5.44,4.403l4.095,4.095l-13.438,20.812c-0.033,0.061 -0.079,0.114 -0.133,0.156c-0.081,0.055 -0.195,0.033 -0.293,0c-2.149,-0.652 -4.487,-0.201 -6.239,1.203c-0.088,0.091 -0.218,0.039 -0.329,-0.01c-1.755,-0.764 -15.404,-6.532 -17.357,-7.361Zm40.642,-11.946l12.408,12.407l-2.989,18.518l-0,0.049c-0.003,0.042 -0.012,0.084 -0.026,0.123c-0.033,0.065 -0.098,0.078 -0.163,0.098c-0.639,0.193 -1.241,0.493 -1.781,0.887c-0.023,0.017 -0.045,0.035 -0.065,0.055c-0.036,0.039 -0.071,0.075 -0.13,0.081c-0.047,0.002 -0.095,-0.006 -0.14,-0.022l-18.907,-8.034l-0.036,-0.016c-0.12,-0.049 -0.263,-0.107 -0.263,-0.231c-0.111,-1.053 -0.455,-2.069 -1.008,-2.973c-0.091,-0.15 -0.191,-0.306 -0.113,-0.459l13.213,-20.483Zm-12.778,27.968l17.725,7.507c0.097,0.045 0.205,0.088 0.247,0.188c0.017,0.061 0.017,0.125 -0,0.186c-0.052,0.26 -0.098,0.555 -0.098,0.854l0,0.498c0,0.123 -0.126,0.175 -0.243,0.224l-0.036,0.013c-2.808,1.199 -39.421,16.811 -39.476,16.811c-0.055,0 -0.114,0 -0.169,-0.055c-0.098,-0.098 -0,-0.234 0.088,-0.358c0.015,-0.021 0.03,-0.043 0.045,-0.065l14.566,-22.553l0.026,-0.039c0.084,-0.137 0.182,-0.29 0.338,-0.29l0.146,0.023c0.332,0.046 0.624,0.088 0.92,0.088c2.21,-0 4.257,-1.076 5.492,-2.915c0.03,-0.049 0.067,-0.093 0.111,-0.13c0.087,-0.065 0.217,-0.033 0.318,0.013Zm-20.298,29.85l39.908,-17.02c-0,0 0.058,0 0.113,0.055c0.218,0.218 0.403,0.364 0.582,0.501l0.088,0.055c0.081,0.046 0.162,0.098 0.169,0.182c-0,0.033 -0,0.052 -0.007,0.081l-3.418,21.001l-0.013,0.084c-0.023,0.163 -0.046,0.348 -0.199,0.348c-1.848,0.125 -3.521,1.156 -4.462,2.753l-0.016,0.026c-0.045,0.074 -0.088,0.146 -0.162,0.185c-0.069,0.032 -0.156,0.019 -0.228,0.003l-31.826,-6.565c-0.032,-0.006 -0.494,-1.686 -0.529,-1.689Z"
          style="fill:url(#_Radial1);fill-rule:nonzero;"/></g></g>
    <defs><radialGradient id="_Radial1" cx="0" cy="0" r="1" gradientUnits="userSpaceOnUse" gradientTransform="matrix(0,124.746,-143.55,0,1490.1,111.8)"><stop offset="0" style="stop-color:#20c6b7;stop-opacity:1"/><stop
            offset="1" style="stop-color:#4d9abf;stop-opacity:1"/></radialGradient></defs></svg>