<svg fill="currentColor" viewBox="0 0 2048 400" version="1.1" xmlns="http://www.w3.org/2000/svg"
     xml:space="preserve"
     style="fill-rule:evenodd;clip-rule:evenodd;stroke-linejoin:round;stroke-miterlimit:2;"><g><path d="M1315.65,305.268c-0,-1.813 0.453,-3.422 1.359,-4.828c0.906,-1.407 2.031,-2.633 3.375,-3.68c1.344,-1.047 2.797,-1.937 4.36,-2.672c1.562,-0.734 3.015,-1.344 4.359,-1.828c1.344,-0.484 2.469,-0.875 3.375,-1.172c0.906,-0.297 1.359,-0.539 1.359,-0.726c0,-1.094 -0.054,-2.164 -0.164,-3.211c-0.109,-1.047 -0.226,-2.102 -0.351,-3.164c-0.125,-1.063 -0.243,-2.118 -0.352,-3.164c-0.109,-1.047 -0.164,-2.086 -0.164,-3.118l0,-3.047c1.281,-0.468 2.195,-0.421 2.742,0.141c0.547,0.563 0.633,1.531 0.258,2.906c0.125,0.688 0.297,1.766 0.516,3.235c0.218,1.468 0.461,3.125 0.726,4.968c0.266,1.844 0.547,3.782 0.844,5.813c0.297,2.031 0.578,3.977 0.844,5.836c0.265,1.859 0.492,3.516 0.679,4.969c0.188,1.453 0.329,2.539 0.422,3.257c0.032,0.157 0.063,0.461 0.094,0.915c0.031,0.453 0.055,0.937 0.07,1.453c0.016,0.515 0.032,0.992 0.047,1.429c0.016,0.438 0.024,0.75 0.024,0.938c-1.188,-0 -1.993,-0.047 -2.414,-0.141c-0.422,-0.094 -0.688,-0.281 -0.797,-0.562c-0.11,-0.282 -0.164,-0.688 -0.164,-1.219c-0,-0.531 -0.157,-1.266 -0.469,-2.203c-1.156,0.906 -2.25,1.656 -3.281,2.25c-1.032,0.594 -2.063,1.07 -3.094,1.43c-1.031,0.359 -2.07,0.609 -3.117,0.75c-1.047,0.14 -2.164,0.21 -3.352,0.21c-1,0 -1.961,-0.085 -2.883,-0.257c-0.922,-0.172 -1.742,-0.477 -2.461,-0.914c-0.718,-0.438 -1.296,-1.032 -1.734,-1.782c-0.437,-0.75 -0.656,-1.687 -0.656,-2.812Zm4.078,-0.985c-0,0.5 0.109,0.907 0.328,1.219c0.219,0.313 0.5,0.578 0.844,0.797c0.344,0.219 0.711,0.367 1.101,0.445c0.391,0.079 0.774,0.118 1.149,0.118c1.094,-0 2.273,-0.211 3.539,-0.633c1.265,-0.422 2.437,-1.016 3.515,-1.781c1.079,-0.766 1.969,-1.68 2.672,-2.743c0.703,-1.062 1.055,-2.218 1.055,-3.468c0,-0.969 -0.172,-1.641 -0.516,-2.016c-0.343,-0.375 -1,-0.563 -1.968,-0.563c-1,0 -2.164,0.235 -3.493,0.704c-1.328,0.468 -2.609,1.093 -3.843,1.875c-1.235,0.781 -2.274,1.695 -3.117,2.742c-0.844,1.047 -1.266,2.148 -1.266,3.304Z" style="fill-rule:nonzero;"/><path
        d="M1342.84,297.768c0,-1.688 0.203,-3.375 0.61,-5.063c0.406,-1.687 1.054,-3.203 1.945,-4.547c0.891,-1.343 2.047,-2.437 3.469,-3.281c1.422,-0.844 3.148,-1.265 5.179,-1.265c1.157,-0 2.172,0.211 3.047,0.632c0.875,0.422 1.61,0.977 2.203,1.664c0.594,0.688 1.039,1.493 1.336,2.415c0.297,0.921 0.446,1.882 0.446,2.882c-0,1.594 -0.368,3.141 -1.102,4.641c-0.734,1.5 -1.719,2.82 -2.953,3.961c-1.234,1.141 -2.648,2 -4.242,2.578c-1.594,0.578 -3.219,0.711 -4.875,0.398c0.031,0.907 0.336,1.633 0.914,2.18c0.578,0.547 1.273,0.961 2.086,1.242c0.812,0.282 1.656,0.461 2.531,0.539c0.875,0.079 1.656,0.118 2.344,0.118c0.719,-0 1.39,-0.063 2.015,-0.188c0.625,-0.125 1.25,-0.266 1.875,-0.422c0.625,-0.156 1.258,-0.297 1.899,-0.422c0.64,-0.125 1.32,-0.187 2.039,-0.187c0.281,-0 0.562,0.015 0.844,0.047c0.281,0.031 0.547,0.101 0.797,0.211c0.25,0.109 0.453,0.281 0.609,0.515c0.156,0.235 0.234,0.524 0.234,0.867c0,0.594 -0.218,1.086 -0.656,1.477c-0.437,0.391 -0.992,0.727 -1.664,1.008c-0.672,0.281 -1.414,0.492 -2.227,0.633c-0.812,0.14 -1.601,0.25 -2.367,0.328c-0.765,0.078 -1.469,0.125 -2.109,0.14c-0.641,0.016 -1.117,0.024 -1.43,0.024c-2,-0 -3.797,-0.32 -5.39,-0.961c-1.594,-0.641 -2.938,-1.531 -4.032,-2.672c-1.093,-1.141 -1.929,-2.516 -2.508,-4.125c-0.578,-1.609 -0.867,-3.398 -0.867,-5.367Zm4.969,-3.047c0,1.094 0.148,1.891 0.445,2.391c0.297,0.5 1.024,0.75 2.18,0.75c0.813,-0 1.609,-0.149 2.391,-0.446c0.781,-0.297 1.492,-0.711 2.132,-1.242c0.641,-0.531 1.149,-1.156 1.524,-1.875c0.375,-0.719 0.562,-1.5 0.562,-2.344c0,-0.468 -0.039,-0.953 -0.117,-1.453c-0.078,-0.5 -0.242,-0.961 -0.492,-1.383c-0.25,-0.421 -0.57,-0.765 -0.961,-1.031c-0.391,-0.265 -0.898,-0.398 -1.523,-0.398c-0.938,-0 -1.789,0.211 -2.555,0.633c-0.766,0.421 -1.414,0.968 -1.945,1.64c-0.532,0.672 -0.938,1.422 -1.219,2.25c-0.281,0.828 -0.422,1.664 -0.422,2.508Z"
        style="fill-rule:nonzero;"/><path
        d="M1369,293.502c-0,-3.031 0.703,-5.281 2.109,-6.75c1.406,-1.469 3.562,-2.203 6.469,-2.203c1.187,0 2.414,0.109 3.679,0.328c1.266,0.219 2.43,0.602 3.493,1.149c1.062,0.547 1.929,1.304 2.601,2.273c0.672,0.969 1.008,2.219 1.008,3.75c-0,1.688 -0.367,3.274 -1.102,4.758c-0.734,1.484 -1.656,2.875 -2.765,4.172c-1.11,1.297 -2.328,2.5 -3.657,3.609c-1.328,1.11 -2.57,2.164 -3.726,3.164c-0.063,0.125 -0.117,0.383 -0.164,0.774c-0.047,0.39 -0.07,0.648 -0.07,0.773c-0,1.031 0.304,2.07 0.914,3.117c0.609,1.047 1.273,2.11 1.992,3.188c0.719,1.078 1.375,2.195 1.969,3.351c0.593,1.157 0.89,2.36 0.89,3.61c0,0.75 -0.156,1.195 -0.469,1.336c-0.312,0.14 -0.968,0.211 -1.968,0.211c-0.625,-0.25 -1.243,-0.836 -1.852,-1.758c-0.609,-0.922 -1.219,-2.055 -1.828,-3.399c-0.609,-1.343 -1.203,-2.851 -1.781,-4.523c-0.578,-1.672 -1.125,-3.375 -1.641,-5.109c-0.516,-1.735 -1,-3.454 -1.453,-5.157c-0.453,-1.703 -0.852,-3.273 -1.195,-4.711c-0.344,-1.437 -0.649,-2.679 -0.914,-3.726c-0.266,-1.047 -0.446,-1.789 -0.539,-2.227Zm3.984,0.422c-0,0.469 0.031,1.149 0.094,2.039c0.062,0.891 0.195,1.774 0.398,2.649c0.203,0.875 0.508,1.632 0.914,2.273c0.406,0.641 0.969,0.961 1.688,0.961c0.968,-0 1.945,-0.328 2.929,-0.984c0.985,-0.657 1.86,-1.485 2.625,-2.485c0.766,-1 1.391,-2.07 1.875,-3.211c0.485,-1.14 0.727,-2.179 0.727,-3.117c-0,-0.781 -0.188,-1.398 -0.563,-1.851c-0.375,-0.454 -0.851,-0.813 -1.429,-1.079c-0.578,-0.265 -1.196,-0.437 -1.852,-0.515c-0.656,-0.078 -1.281,-0.117 -1.875,-0.117c-1.781,-0 -3.148,0.476 -4.101,1.429c-0.954,0.953 -1.43,2.289 -1.43,4.008Z"
        style="fill-rule:nonzero;"/><path
        d="M1391.12,297.768c-0,-1.688 0.203,-3.375 0.609,-5.063c0.406,-1.687 1.055,-3.203 1.945,-4.547c0.891,-1.343 2.047,-2.437 3.469,-3.281c1.422,-0.844 3.148,-1.265 5.18,-1.265c1.156,-0 2.172,0.211 3.047,0.632c0.875,0.422 1.609,0.977 2.203,1.664c0.593,0.688 1.039,1.493 1.336,2.415c0.296,0.921 0.445,1.882 0.445,2.882c-0,1.594 -0.367,3.141 -1.102,4.641c-0.734,1.5 -1.718,2.82 -2.953,3.961c-1.234,1.141 -2.648,2 -4.242,2.578c-1.594,0.578 -3.219,0.711 -4.875,0.398c0.031,0.907 0.336,1.633 0.914,2.18c0.578,0.547 1.274,0.961 2.086,1.242c0.813,0.282 1.656,0.461 2.531,0.539c0.875,0.079 1.657,0.118 2.344,0.118c0.719,-0 1.391,-0.063 2.016,-0.188c0.625,-0.125 1.25,-0.266 1.875,-0.422c0.625,-0.156 1.257,-0.297 1.898,-0.422c0.641,-0.125 1.32,-0.187 2.039,-0.187c0.281,-0 0.563,0.015 0.844,0.047c0.281,0.031 0.547,0.101 0.797,0.211c0.25,0.109 0.453,0.281 0.609,0.515c0.156,0.235 0.235,0.524 0.235,0.867c-0,0.594 -0.219,1.086 -0.657,1.477c-0.437,0.391 -0.992,0.727 -1.664,1.008c-0.672,0.281 -1.414,0.492 -2.226,0.633c-0.813,0.14 -1.602,0.25 -2.368,0.328c-0.765,0.078 -1.468,0.125 -2.109,0.14c-0.641,0.016 -1.117,0.024 -1.43,0.024c-2,-0 -3.796,-0.32 -5.39,-0.961c-1.594,-0.641 -2.938,-1.531 -4.031,-2.672c-1.094,-1.141 -1.93,-2.516 -2.508,-4.125c-0.578,-1.609 -0.867,-3.398 -0.867,-5.367Zm4.968,-3.047c0,1.094 0.149,1.891 0.446,2.391c0.296,0.5 1.023,0.75 2.179,0.75c0.813,-0 1.61,-0.149 2.391,-0.446c0.781,-0.297 1.492,-0.711 2.133,-1.242c0.64,-0.531 1.148,-1.156 1.523,-1.875c0.375,-0.719 0.563,-1.5 0.563,-2.344c-0,-0.468 -0.039,-0.953 -0.118,-1.453c-0.078,-0.5 -0.242,-0.961 -0.492,-1.383c-0.25,-0.421 -0.57,-0.765 -0.961,-1.031c-0.39,-0.265 -0.898,-0.398 -1.523,-0.398c-0.938,-0 -1.789,0.211 -2.555,0.633c-0.765,0.421 -1.414,0.968 -1.945,1.64c-0.531,0.672 -0.938,1.422 -1.219,2.25c-0.281,0.828 -0.422,1.664 -0.422,2.508Z"
        style="fill-rule:nonzero;"/><path
        d="M1417.28,295.002c-0,-0.812 0.203,-1.398 0.609,-1.758c0.406,-0.359 1.063,-0.539 1.969,-0.539l0.469,0c0.093,0.5 0.203,1.078 0.328,1.735c0.125,0.656 0.312,1.328 0.562,2.015c0.25,0.688 0.547,1.321 0.891,1.899c0.344,0.578 0.766,1.039 1.266,1.383c0.031,-1.094 0.304,-2.149 0.82,-3.164c0.515,-1.016 1.156,-1.922 1.922,-2.719c0.765,-0.797 1.609,-1.469 2.531,-2.016c0.922,-0.547 1.836,-0.914 2.742,-1.101l1.031,-0c1.5,-0 2.782,0.336 3.844,1.007c1.063,0.672 1.945,1.547 2.649,2.625c0.703,1.079 1.242,2.305 1.617,3.68c0.375,1.375 0.664,2.774 0.867,4.195c0.203,1.422 0.328,2.797 0.375,4.125c0.047,1.329 0.07,2.461 0.07,3.399l-3.422,-0c-0.187,-1.875 -0.421,-3.672 -0.703,-5.391c-0.093,-0.687 -0.218,-1.414 -0.375,-2.179c-0.156,-0.766 -0.328,-1.485 -0.515,-2.157c-0.188,-0.672 -0.391,-1.297 -0.61,-1.875c-0.218,-0.578 -0.468,-1.07 -0.75,-1.476l-1.125,-1.172c-0.218,-0.219 -0.422,-0.406 -0.609,-0.563c-0.188,-0.156 -0.297,-0.234 -0.328,-0.234c-0.938,-0.25 -1.75,-0.07 -2.438,0.539c-0.687,0.609 -1.297,1.43 -1.828,2.461c-0.531,1.031 -0.961,2.203 -1.289,3.516c-0.328,1.312 -0.601,2.57 -0.82,3.773c-0.219,1.203 -0.375,2.25 -0.469,3.141c-0.094,0.89 -0.156,1.429 -0.187,1.617c-0.782,0.562 -1.516,0.726 -2.204,0.492c-0.687,-0.234 -1.336,-0.727 -1.945,-1.477c-0.609,-0.75 -1.156,-1.687 -1.641,-2.812c-0.484,-1.125 -0.929,-2.32 -1.335,-3.586c-0.407,-1.266 -0.774,-2.539 -1.102,-3.82c-0.328,-1.282 -0.617,-2.469 -0.867,-3.563Z"
        style="fill-rule:nonzero;"/><path
        d="M1443.39,305.268c0,-1.813 0.453,-3.422 1.36,-4.828c0.906,-1.407 2.031,-2.633 3.375,-3.68c1.343,-1.047 2.796,-1.937 4.359,-2.672c1.562,-0.734 3.016,-1.344 4.359,-1.828c1.344,-0.484 2.469,-0.875 3.375,-1.172c0.907,-0.297 1.36,-0.539 1.36,-0.726c-0,-1.094 -0.055,-2.164 -0.164,-3.211c-0.11,-1.047 -0.227,-2.102 -0.352,-3.164c-0.125,-1.063 -0.242,-2.118 -0.352,-3.164c-0.109,-1.047 -0.164,-2.086 -0.164,-3.118l0,-3.047c1.282,-0.468 2.196,-0.421 2.743,0.141c0.546,0.563 0.632,1.531 0.257,2.906c0.125,0.688 0.297,1.766 0.516,3.235c0.219,1.468 0.461,3.125 0.727,4.968c0.265,1.844 0.546,3.782 0.843,5.813c0.297,2.031 0.578,3.977 0.844,5.836c0.266,1.859 0.492,3.516 0.68,4.969c0.187,1.453 0.328,2.539 0.422,3.257c0.031,0.157 0.062,0.461 0.093,0.915c0.032,0.453 0.055,0.937 0.071,1.453c0.015,0.515 0.031,0.992 0.047,1.429c0.015,0.438 0.023,0.75 0.023,0.938c-1.187,-0 -1.992,-0.047 -2.414,-0.141c-0.422,-0.094 -0.688,-0.281 -0.797,-0.562c-0.109,-0.282 -0.164,-0.688 -0.164,-1.219c0,-0.531 -0.156,-1.266 -0.469,-2.203c-1.156,0.906 -2.25,1.656 -3.281,2.25c-1.031,0.594 -2.062,1.07 -3.094,1.43c-1.031,0.359 -2.07,0.609 -3.117,0.75c-1.047,0.14 -2.164,0.21 -3.351,0.21c-1,0 -1.961,-0.085 -2.883,-0.257c-0.922,-0.172 -1.742,-0.477 -2.461,-0.914c-0.719,-0.438 -1.297,-1.032 -1.735,-1.782c-0.437,-0.75 -0.656,-1.687 -0.656,-2.812Zm4.078,-0.985c0,0.5 0.11,0.907 0.328,1.219c0.219,0.313 0.5,0.578 0.844,0.797c0.344,0.219 0.711,0.367 1.102,0.445c0.39,0.079 0.773,0.118 1.148,0.118c1.094,-0 2.274,-0.211 3.539,-0.633c1.266,-0.422 2.438,-1.016 3.516,-1.781c1.078,-0.766 1.969,-1.68 2.672,-2.743c0.703,-1.062 1.054,-2.218 1.054,-3.468c0,-0.969 -0.171,-1.641 -0.515,-2.016c-0.344,-0.375 -1,-0.563 -1.969,-0.563c-1,0 -2.164,0.235 -3.492,0.704c-1.328,0.468 -2.61,1.093 -3.844,1.875c-1.234,0.781 -2.273,1.695 -3.117,2.742c-0.844,1.047 -1.266,2.148 -1.266,3.304Z"
        style="fill-rule:nonzero;"/><path
        d="M1490.73,304.752c-1.188,0.813 -2.211,1.539 -3.07,2.18c-0.86,0.641 -1.696,1.18 -2.508,1.617c-0.813,0.438 -1.68,0.766 -2.602,0.984c-0.922,0.219 -2.054,0.329 -3.398,0.329c-2.906,-0 -5.063,-0.774 -6.469,-2.321c-1.406,-1.547 -2.109,-3.851 -2.109,-6.914c-0,-1.187 0.156,-2.422 0.468,-3.703c0.313,-1.281 0.774,-2.555 1.383,-3.82c0.61,-1.266 1.336,-2.469 2.18,-3.61c0.844,-1.14 1.797,-2.148 2.859,-3.023c1.063,-0.875 2.196,-1.57 3.399,-2.086c1.203,-0.516 2.476,-0.773 3.82,-0.773c2.25,0.218 4.016,0.773 5.297,1.664c1.281,0.89 2.25,2.031 2.906,3.422c0.656,1.39 1.11,2.937 1.36,4.64c0.25,1.703 0.445,3.461 0.585,5.274c0.141,1.812 0.321,3.625 0.54,5.437c0.218,1.813 0.671,3.484 1.359,5.016c-0.406,1.031 -0.789,1.758 -1.149,2.179c-0.359,0.422 -0.757,0.493 -1.195,0.211c-0.437,-0.281 -0.945,-0.968 -1.523,-2.062c-0.578,-1.094 -1.289,-2.641 -2.133,-4.641Zm-16.172,-4.031c0,1.781 0.336,3.086 1.008,3.914c0.672,0.828 1.867,1.242 3.586,1.242c1.281,0 2.508,-0.226 3.679,-0.679c1.172,-0.454 2.196,-1.079 3.071,-1.875c0.875,-0.797 1.578,-1.758 2.109,-2.883c0.531,-1.125 0.797,-2.375 0.797,-3.75c0,-0.563 0.016,-1.352 0.047,-2.367c0.031,-1.016 -0.031,-2.024 -0.188,-3.024c-0.156,-1 -0.453,-1.867 -0.89,-2.601c-0.438,-0.735 -1.094,-1.102 -1.969,-1.102c-1.625,-0 -3.125,0.414 -4.5,1.242c-1.375,0.828 -2.562,1.883 -3.562,3.164c-1,1.281 -1.782,2.696 -2.344,4.242c-0.563,1.547 -0.844,3.039 -0.844,4.477Z"
        style="fill-rule:nonzero;"/><path
        d="M1506.76,308.783c-0.969,-2.812 -1.883,-5.445 -2.742,-7.898c-0.859,-2.453 -1.609,-4.859 -2.25,-7.219c-0.641,-2.359 -1.148,-4.758 -1.523,-7.195c-0.375,-2.438 -0.563,-5.047 -0.563,-7.828c0,-0.219 0.008,-0.617 0.023,-1.195c0.016,-0.579 0.024,-1.18 0.024,-1.805c-0,-0.625 0.008,-1.227 0.023,-1.805c0.016,-0.578 0.024,-0.976 0.024,-1.195c0.281,-0.625 0.773,-1.203 1.476,-1.735c0.703,-0.531 1.414,-0.796 2.133,-0.796c0,2.312 0.031,4.773 0.094,7.382c0.062,2.61 0.258,5.211 0.586,7.805c0.328,2.594 0.859,5.133 1.594,7.617c0.734,2.485 1.773,4.758 3.117,6.821c0.031,-0.75 0.062,-1.579 0.094,-2.485c0.031,-0.906 0.117,-1.812 0.257,-2.719c0.141,-0.906 0.368,-1.781 0.68,-2.625c0.313,-0.843 0.773,-1.593 1.383,-2.25c0.609,-0.656 1.406,-1.171 2.39,-1.546c0.985,-0.375 2.227,-0.547 3.727,-0.516c1.344,-0 2.555,0.25 3.633,0.75c1.078,0.5 1.984,1.18 2.719,2.039c0.734,0.859 1.296,1.859 1.687,3c0.391,1.141 0.586,2.352 0.586,3.633c0,1.719 -0.422,3.406 -1.266,5.062c-0.843,1.657 -1.961,3.141 -3.351,4.453c-1.391,1.313 -2.945,2.368 -4.664,3.165c-1.719,0.796 -3.469,1.195 -5.25,1.195c-0.906,-0 -1.781,-0.164 -2.625,-0.492c-0.844,-0.328 -1.516,-0.868 -2.016,-1.618Zm11.11,-17.109c-0.625,0.344 -1.282,0.75 -1.969,1.219c-0.688,0.469 -1.321,1.195 -1.899,2.18c-0.578,0.984 -1.07,2.32 -1.476,4.007c-0.406,1.688 -0.656,3.922 -0.75,6.703l1.031,0.094c0.844,0 1.805,-0.265 2.883,-0.797c1.078,-0.531 2.125,-1.187 3.14,-1.968c1.016,-0.782 1.899,-1.649 2.649,-2.602c0.75,-0.953 1.203,-1.867 1.359,-2.742c0.094,-0.531 -0.015,-1.141 -0.328,-1.828c-0.312,-0.688 -0.726,-1.352 -1.242,-1.992c-0.516,-0.641 -1.078,-1.18 -1.688,-1.618c-0.609,-0.437 -1.179,-0.656 -1.71,-0.656Z"
        style="fill-rule:nonzero;"/><path
        d="M1528.8,301.283c0,-1.937 0.454,-3.742 1.36,-5.414c0.906,-1.671 2.101,-3.109 3.586,-4.312c1.484,-1.203 3.156,-2.149 5.015,-2.836c1.86,-0.688 3.743,-1.031 5.649,-1.031c1.062,-0 2.008,0.343 2.836,1.031c0.828,0.687 1.523,1.523 2.086,2.508c0.562,0.984 0.992,2.023 1.289,3.117c0.297,1.094 0.445,2.047 0.445,2.859c0,1.75 -0.422,3.446 -1.266,5.086c-0.843,1.641 -1.937,3.094 -3.281,4.36c-1.344,1.265 -2.859,2.289 -4.547,3.07c-1.687,0.781 -3.375,1.172 -5.062,1.172c-1.5,-0 -2.766,-0.258 -3.797,-0.774c-1.031,-0.515 -1.859,-1.203 -2.484,-2.062c-0.625,-0.859 -1.086,-1.875 -1.383,-3.047c-0.297,-1.172 -0.446,-2.414 -0.446,-3.727Zm3.985,0.469c-0,0.813 0.07,1.524 0.211,2.133c0.14,0.609 0.39,1.133 0.75,1.57c0.359,0.438 0.836,0.774 1.429,1.008c0.594,0.235 1.329,0.352 2.204,0.352c1.156,-0 2.312,-0.321 3.468,-0.961c1.157,-0.641 2.196,-1.453 3.117,-2.438c0.922,-0.984 1.665,-2.07 2.227,-3.258c0.563,-1.187 0.844,-2.343 0.844,-3.468c-0,-0.5 -0.047,-1.047 -0.141,-1.641c-0.094,-0.594 -0.25,-1.141 -0.469,-1.641c-0.218,-0.5 -0.531,-0.921 -0.937,-1.265c-0.406,-0.344 -0.922,-0.516 -1.547,-0.516c-0.562,0 -1.227,0.188 -1.992,0.563c-0.766,0.375 -1.563,0.859 -2.391,1.453c-0.828,0.594 -1.64,1.265 -2.437,2.015c-0.797,0.75 -1.524,1.5 -2.18,2.25c-0.656,0.75 -1.18,1.469 -1.57,2.157c-0.391,0.687 -0.586,1.25 -0.586,1.687Z"
        style="fill-rule:nonzero;"/><path
        d="M1551.86,287.174c-0,-0.094 0.016,-0.172 0.047,-0.234c-0,-0.063 0.015,-0.141 0.047,-0.235c0.125,-0.156 0.312,-0.359 0.562,-0.609c0.25,-0.25 0.406,-0.375 0.469,-0.375l9.422,-0c-0,-0.344 -0.047,-0.891 -0.141,-1.641c-0.094,-0.75 -0.18,-1.578 -0.258,-2.484c-0.078,-0.906 -0.101,-1.852 -0.07,-2.836c0.031,-0.984 0.164,-1.875 0.398,-2.672c0.235,-0.797 0.61,-1.453 1.125,-1.969c0.516,-0.515 1.243,-0.773 2.18,-0.773c0,3.156 0.219,5.687 0.656,7.594c0.438,1.906 1.024,3.375 1.758,4.406c0.735,1.031 1.571,1.703 2.508,2.016c0.938,0.312 1.898,0.445 2.883,0.398c0.984,-0.047 1.945,-0.195 2.883,-0.445c0.937,-0.25 1.773,-0.422 2.507,-0.516c0.735,-0.094 1.321,-0.023 1.758,0.211c0.438,0.234 0.657,0.789 0.657,1.664c-0,0.656 -0.149,1.125 -0.446,1.406c-0.297,0.282 -0.867,0.5 -1.711,0.657c-0.25,0.031 -0.664,0.086 -1.242,0.164c-0.578,0.078 -1.226,0.148 -1.945,0.211l-4.594,0.421c-0.719,0.063 -1.375,0.102 -1.969,0.118c-0.593,0.015 -1.031,0.023 -1.312,0.023l-0.094,1.547c0,1.375 0.219,2.711 0.656,4.008c0.438,1.297 0.914,2.586 1.43,3.867c0.516,1.281 0.992,2.562 1.43,3.844c0.437,1.281 0.656,2.609 0.656,3.984c-0,0.25 -0.024,0.508 -0.07,0.774c-0.047,0.265 -0.141,0.5 -0.282,0.703c-0.14,0.203 -0.343,0.359 -0.609,0.468c-0.266,0.11 -0.633,0.086 -1.102,-0.07c-1.187,-0.312 -2.07,-0.984 -2.648,-2.016c-0.578,-1.031 -1.008,-2.257 -1.289,-3.679c-0.281,-1.422 -0.469,-2.93 -0.563,-4.524c-0.093,-1.593 -0.242,-3.086 -0.445,-4.476c-0.203,-1.391 -0.523,-2.578 -0.961,-3.563c-0.437,-0.984 -1.14,-1.586 -2.109,-1.804l-9.047,-2.063c-0.125,0 -0.313,-0.133 -0.563,-0.398c-0.25,-0.266 -0.406,-0.461 -0.468,-0.586c-0.032,-0.063 -0.047,-0.141 -0.047,-0.235c-0.031,-0.062 -0.047,-0.156 -0.047,-0.281Z"
        style="fill-rule:nonzero;"/><path
        d="M1588.61,307.002c1.406,0 2.109,0.735 2.109,2.203c-0.343,0.907 -0.781,1.508 -1.312,1.805c-0.531,0.297 -1.024,0.406 -1.477,0.328c-0.453,-0.078 -0.859,-0.305 -1.219,-0.68c-0.359,-0.375 -0.554,-0.796 -0.585,-1.265c-0.032,-0.469 0.14,-0.93 0.515,-1.383c0.375,-0.453 1.031,-0.789 1.969,-1.008Z"
        style="fill-rule:nonzero;"/><path
        d="M1592.73,296.69c-0,-1.313 0.289,-2.688 0.867,-4.125c0.578,-1.438 1.352,-2.742 2.32,-3.914c0.969,-1.172 2.086,-2.149 3.352,-2.93c1.266,-0.781 2.602,-1.172 4.008,-1.172c0.719,0 1.437,0.125 2.156,0.375c0.719,0.25 1.367,0.609 1.945,1.078c0.578,0.469 1.047,1.031 1.407,1.688c0.359,0.656 0.539,1.39 0.539,2.203c-0.563,-0 -1.071,-0.063 -1.524,-0.188c-0.453,-0.125 -0.898,-0.273 -1.336,-0.445c-0.437,-0.172 -0.867,-0.32 -1.289,-0.445c-0.422,-0.125 -0.883,-0.188 -1.383,-0.188c-1.281,0 -2.32,0.321 -3.117,0.961c-0.797,0.641 -1.429,1.445 -1.898,2.414c-0.469,0.969 -0.789,2.008 -0.961,3.117c-0.172,1.11 -0.258,2.149 -0.258,3.118c0,0.156 0.008,0.453 0.023,0.89l0.094,2.766c0.016,0.437 0.039,0.734 0.071,0.89c0.343,0.75 0.679,1.329 1.007,1.735c0.328,0.406 0.68,0.711 1.055,0.914c0.375,0.203 0.781,0.328 1.219,0.375c0.437,0.047 0.953,0.07 1.547,0.07c0.812,0 1.523,-0.125 2.132,-0.375c0.61,-0.25 1.18,-0.547 1.711,-0.89c0.532,-0.344 1.032,-0.727 1.5,-1.149c0.469,-0.422 0.961,-0.812 1.477,-1.172c0.516,-0.359 1.078,-0.656 1.687,-0.89c0.61,-0.235 1.305,-0.352 2.086,-0.352c0,1.531 -0.273,2.891 -0.82,4.078c-0.547,1.188 -1.312,2.203 -2.297,3.047c-0.984,0.844 -2.14,1.492 -3.469,1.945c-1.328,0.454 -2.773,0.68 -4.335,0.68c-1.469,0 -2.79,-0.5 -3.961,-1.5c-1.172,-1 -2.172,-2.226 -3,-3.68c-0.829,-1.453 -1.461,-2.992 -1.899,-4.617c-0.437,-1.625 -0.656,-3.062 -0.656,-4.312Z"
        style="fill-rule:nonzero;"/><path
        d="M1615.8,301.283c0,-1.937 0.454,-3.742 1.36,-5.414c0.906,-1.671 2.101,-3.109 3.586,-4.312c1.484,-1.203 3.156,-2.149 5.015,-2.836c1.86,-0.688 3.743,-1.031 5.649,-1.031c1.062,-0 2.008,0.343 2.836,1.031c0.828,0.687 1.523,1.523 2.086,2.508c0.562,0.984 0.992,2.023 1.289,3.117c0.297,1.094 0.445,2.047 0.445,2.859c0,1.75 -0.422,3.446 -1.266,5.086c-0.843,1.641 -1.937,3.094 -3.281,4.36c-1.344,1.265 -2.859,2.289 -4.547,3.07c-1.687,0.781 -3.375,1.172 -5.062,1.172c-1.5,-0 -2.766,-0.258 -3.797,-0.774c-1.031,-0.515 -1.859,-1.203 -2.484,-2.062c-0.625,-0.859 -1.086,-1.875 -1.383,-3.047c-0.297,-1.172 -0.446,-2.414 -0.446,-3.727Zm3.985,0.469c-0,0.813 0.07,1.524 0.211,2.133c0.14,0.609 0.39,1.133 0.75,1.57c0.359,0.438 0.836,0.774 1.429,1.008c0.594,0.235 1.329,0.352 2.204,0.352c1.156,-0 2.312,-0.321 3.468,-0.961c1.157,-0.641 2.196,-1.453 3.117,-2.438c0.922,-0.984 1.665,-2.07 2.227,-3.258c0.563,-1.187 0.844,-2.343 0.844,-3.468c-0,-0.5 -0.047,-1.047 -0.141,-1.641c-0.094,-0.594 -0.25,-1.141 -0.469,-1.641c-0.218,-0.5 -0.531,-0.921 -0.937,-1.265c-0.406,-0.344 -0.922,-0.516 -1.547,-0.516c-0.562,0 -1.227,0.188 -1.992,0.563c-0.766,0.375 -1.563,0.859 -2.391,1.453c-0.828,0.594 -1.64,1.265 -2.437,2.015c-0.797,0.75 -1.524,1.5 -2.18,2.25c-0.656,0.75 -1.18,1.469 -1.57,2.157c-0.391,0.687 -0.586,1.25 -0.586,1.687Z"
        style="fill-rule:nonzero;"/><path
        d="M1638.86,291.112c-0,-0.782 0.133,-1.391 0.398,-1.829c0.266,-0.437 0.836,-0.656 1.711,-0.656l1.032,0.047c0.218,0.969 0.445,2.024 0.679,3.164c0.235,1.141 0.508,2.289 0.821,3.445c0.312,1.157 0.664,2.297 1.054,3.422c0.391,1.125 0.867,2.141 1.43,3.047c0.562,-0.594 0.969,-1.297 1.219,-2.109c0.25,-0.813 0.437,-1.633 0.562,-2.461c0.125,-0.828 0.242,-1.625 0.352,-2.391c0.109,-0.765 0.336,-1.422 0.679,-1.968c0.344,-0.547 0.852,-0.946 1.524,-1.196c0.672,-0.25 1.601,-0.25 2.789,0c1.312,0 2.359,0.242 3.141,0.727c0.781,0.484 1.46,1.094 2.039,1.828c0.578,0.734 1.14,1.516 1.687,2.344c0.547,0.828 1.242,1.57 2.086,2.226c0.188,-0.406 0.422,-0.914 0.703,-1.523c0.281,-0.61 0.633,-1.25 1.055,-1.922c0.422,-0.672 0.875,-1.344 1.359,-2.016c0.485,-0.672 0.992,-1.281 1.524,-1.828c0.531,-0.547 1.078,-1 1.64,-1.359c0.563,-0.36 1.11,-0.539 1.641,-0.539c1.281,-0 2.391,0.398 3.328,1.195c0.938,0.797 1.742,1.797 2.414,3c0.672,1.203 1.227,2.547 1.664,4.031c0.438,1.485 0.781,2.914 1.031,4.289c0.25,1.375 0.43,2.633 0.539,3.774c0.11,1.14 0.165,1.961 0.165,2.461c-0,0.406 -0.094,0.718 -0.282,0.937c-0.187,0.219 -0.422,0.383 -0.703,0.492c-0.281,0.11 -0.586,0.18 -0.914,0.211c-0.328,0.032 -0.633,0.047 -0.914,0.047c-0.062,0 -0.156,-0.008 -0.281,-0.023c-0.125,-0.016 -0.266,-0.039 -0.422,-0.071c-0.125,-0.031 -0.297,-0.078 -0.516,-0.14l-3.047,-14.016c0,-0.094 -0.125,-0.273 -0.375,-0.539c-0.25,-0.265 -0.437,-0.43 -0.562,-0.492c-0.094,-0 -0.172,-0.016 -0.234,-0.047c-0.063,0 -0.11,-0.008 -0.141,-0.023c-0.031,-0.016 -0.063,-0.024 -0.094,-0.024c-0.656,0 -1.273,0.266 -1.851,0.797c-0.579,0.531 -1.118,1.203 -1.618,2.016c-0.5,0.812 -0.968,1.718 -1.406,2.718c-0.437,1 -0.828,1.993 -1.172,2.977c-0.343,0.984 -0.648,1.891 -0.914,2.719c-0.265,0.828 -0.476,1.461 -0.633,1.898c-0.125,0.063 -0.375,0.117 -0.75,0.164c-0.375,0.047 -0.625,0.071 -0.75,0.071c-0.875,-0 -1.546,-0.305 -2.015,-0.914c-0.469,-0.61 -0.852,-1.368 -1.149,-2.274c-0.297,-0.906 -0.547,-1.898 -0.75,-2.976c-0.203,-1.079 -0.453,-2.071 -0.75,-2.977c-0.297,-0.906 -0.703,-1.664 -1.218,-2.273c-0.516,-0.61 -1.243,-0.915 -2.18,-0.915c-0.344,0 -0.672,0.344 -0.984,1.032c-0.313,0.687 -0.594,1.554 -0.844,2.601c-0.25,1.047 -0.485,2.172 -0.703,3.375c-0.219,1.203 -0.399,2.328 -0.539,3.375c-0.141,1.047 -0.243,1.93 -0.305,2.649c-0.063,0.718 -0.094,1.078 -0.094,1.078c-0.062,0.094 -0.187,0.195 -0.375,0.305c-0.187,0.109 -0.383,0.226 -0.586,0.351c-0.203,0.125 -0.406,0.219 -0.609,0.281c-0.203,0.063 -0.352,0.094 -0.445,0.094c-0.875,0 -1.719,-0.398 -2.532,-1.195c-0.812,-0.797 -1.554,-1.828 -2.226,-3.094c-0.672,-1.266 -1.282,-2.664 -1.828,-4.195c-0.547,-1.532 -1.008,-3.032 -1.383,-4.5c-0.375,-1.469 -0.664,-2.797 -0.867,-3.985c-0.204,-1.187 -0.305,-2.093 -0.305,-2.718Z"
        style="fill-rule:nonzero;"/></g>
    <g><path d="M1076.56,126.362l76.365,-50.062c5.224,-3.424 11.981,-3.424 17.205,0l76.365,50.062c4.423,2.9 7.088,7.833 7.088,13.122l-0,64.876c-0,5.289 -2.665,10.222 -7.088,13.122l-76.365,50.061c-5.224,3.425 -11.981,3.425 -17.205,0l-76.365,-50.061c-4.423,-2.9 -7.088,-7.833 -7.088,-13.122l0,-64.876c0,-5.289 2.665,-10.222 7.088,-13.122Z" style="fill:#0366d6;fill-rule:nonzero;"/>
        <path d="M1302.77,201.911c18.476,-0 29.433,-11.435 29.433,-30.395c-0,-18.901 -10.957,-30.277 -29.018,-30.277l-20.964,0l0,60.672l20.549,-0Zm-9.564,-9.51l0,-41.652l9.357,-0c12.317,-0 18.743,6.873 18.743,20.767c-0,13.953 -6.426,20.885 -19.068,20.885l-9.032,0Z"
              style="fill-rule:nonzero;"/>
        <path d="M1361.21,202.8c10.6,-0 17.885,-5.185 19.779,-13.094l-10.009,-1.126c-1.451,3.851 -5.004,5.865 -9.623,5.865c-6.929,0 -11.517,-4.562 -11.607,-12.353l31.683,-0l0,-3.288c0,-15.968 -9.594,-22.989 -20.786,-22.989c-13.029,-0 -21.527,9.569 -21.527,23.611c0,14.279 8.38,23.374 22.09,23.374Zm-11.43,-27.937c0.326,-5.806 4.62,-10.694 11.014,-10.694c6.16,-0 10.304,4.503 10.364,10.694l-21.378,0Z"
              style="fill-rule:nonzero;"/>
        <path d="M1389.64,218.975l10.72,-0l-0,-24.233l0.444,-0c1.687,3.318 5.21,7.969 13.028,7.969c10.718,-0 18.743,-8.503 18.743,-23.493c-0,-15.168 -8.261,-23.403 -18.773,-23.403c-8.023,-0 -11.37,4.828 -12.998,8.117l-0.622,-0l-0,-7.525l-10.542,0l0,62.568Zm10.511,-39.816c0,-8.828 3.791,-14.546 10.691,-14.546c7.135,0 10.807,6.073 10.807,14.546c-0,8.532 -3.731,14.753 -10.807,14.753c-6.841,0 -10.691,-5.925 -10.691,-14.753Z"
              style="fill-rule:nonzero;"/>
        <path d="M1461.83,202.8c10.601,-0 17.885,-5.185 19.78,-13.094l-10.008,-1.126c-1.452,3.851 -5.006,5.865 -9.625,5.865c-6.928,0 -11.517,-4.562 -11.607,-12.353l31.683,-0l0,-3.288c0,-15.968 -9.594,-22.989 -20.786,-22.989c-13.029,-0 -21.526,9.569 -21.526,23.611c-0,14.279 8.379,23.374 22.089,23.374Zm-11.429,-27.937c0.325,-5.806 4.619,-10.694 11.014,-10.694c6.159,-0 10.306,4.503 10.363,10.694l-21.377,0Z"
              style="fill-rule:nonzero;"/>
        <path d="M1499.76,175.249c-0,-6.577 3.968,-10.369 9.623,-10.369c5.537,-0 8.853,3.644 8.853,9.717l0,27.314l10.72,-0l-0,-28.973c0.028,-10.902 -6.188,-17.123 -15.576,-17.123c-6.81,-0 -11.489,3.258 -13.561,8.324l-0.534,0l0,-7.732l-10.244,0l-0,45.504l10.719,-0l-0,-26.662Z"
              style="fill-rule:nonzero;"/>
        <path d="M1554.69,202.711c7.817,-0 11.341,-4.651 13.029,-7.969l0.65,-0l0,7.169l10.542,-0l-0,-60.672l-10.748,0l-0,22.693l-0.444,-0c-1.628,-3.289 -4.975,-8.117 -13,-8.117c-10.511,-0 -18.771,8.235 -18.771,23.403c-0,14.99 8.023,23.493 18.742,23.493Zm2.991,-8.799c-7.078,0 -10.807,-6.221 -10.807,-14.753c-0,-8.473 3.672,-14.546 10.807,-14.546c6.898,0 10.688,5.718 10.688,14.546c0,8.828 -3.847,14.753 -10.688,14.753Z"
              style="fill-rule:nonzero;"/>
        <path d="M1600.35,202.829c7.138,0 11.401,-3.347 13.355,-7.169l0.356,0l-0,6.251l10.304,-0l-0,-30.455c-0,-12.027 -9.801,-15.641 -18.477,-15.641c-9.563,-0 -16.907,4.266 -19.276,12.56l10.009,1.423c1.066,-3.111 4.085,-5.777 9.326,-5.777c4.976,-0 7.7,2.548 7.7,7.021l0,0.178c0,3.081 -3.228,3.229 -11.253,4.088c-8.823,0.948 -17.261,3.584 -17.261,13.835c-0,8.946 6.542,13.686 15.217,13.686Zm2.785,-7.88c-4.472,-0 -7.67,-2.044 -7.67,-5.984c0,-4.118 3.584,-5.836 8.379,-6.518c2.815,-0.385 8.441,-1.096 9.832,-2.222l-0,5.363c-0,5.065 -4.087,9.361 -10.541,9.361Z"
              style="fill-rule:nonzero;"/>
        <path d="M1632.06,201.911l10.542,-0l-0,-7.169l0.622,-0c1.687,3.318 5.21,7.969 13.028,7.969c10.718,-0 18.743,-8.503 18.743,-23.493c-0,-15.168 -8.261,-23.403 -18.773,-23.403c-8.023,-0 -11.37,4.828 -12.998,8.117l-0.444,-0l-0,-22.693l-10.72,0l0,60.672Zm10.511,-22.752c0,-8.828 3.791,-14.546 10.691,-14.546c7.135,0 10.807,6.073 10.807,14.546c-0,8.532 -3.731,14.753 -10.807,14.753c-6.841,0 -10.691,-5.925 -10.691,-14.753Z"
              style="fill-rule:nonzero;"/>
        <path d="M1703.41,202.8c13.326,-0 21.793,-9.391 21.793,-23.463c-0,-14.102 -8.467,-23.522 -21.793,-23.522c-13.323,-0 -21.792,9.42 -21.792,23.522c-0,14.072 8.469,23.463 21.792,23.463Zm0.06,-8.592c-7.373,0 -10.986,-6.576 -10.986,-14.901c0,-8.324 3.613,-14.99 10.986,-14.99c7.254,-0 10.866,6.666 10.866,14.99c0,8.325 -3.612,14.901 -10.866,14.901Z"
              style="fill-rule:nonzero;"/>
        <path d="M1754.32,156.407l-8.972,0l-0,-10.902l-10.72,0l0,10.902l-6.454,0l0,8.295l6.454,0l0,25.3c-0.057,8.561 6.16,12.768 14.214,12.531c3.05,-0.089 5.153,-0.681 6.307,-1.067l-1.807,-8.383c-0.591,0.148 -1.806,0.414 -3.138,0.414c-2.694,0 -4.856,-0.948 -4.856,-5.273l-0,-23.522l8.972,0l0,-8.295Z"
              style="fill-rule:nonzero;"/>
        <path d="M1167.66,141.239l-0,-6.137l-10.229,0c-1.13,0 -2.045,-0.916 -2.045,-2.045l-0,-14.32c-0,-1.13 0.915,-2.046 2.045,-2.046l14.32,0c1.13,0 2.046,0.916 2.046,2.046l-0,22.502l30.685,0c3.389,0 6.137,2.748 6.137,6.137l-0,24.548l4.091,0c1.13,0 2.046,0.916 2.046,2.046l-0,20.457c-0,1.13 -0.916,2.045 -2.046,2.045l-4.091,0l-0,12.274c-0,3.39 -2.748,6.137 -6.137,6.137l-85.919,0c-3.389,0 -6.137,-2.747 -6.137,-6.137l0,-12.274l-4.091,0c-1.13,0 -2.046,-0.915 -2.046,-2.045l0,-20.457c0,-1.13 0.916,-2.046 2.046,-2.046l4.091,0l0,-24.548c0,-3.389 2.748,-6.137 6.137,-6.137l49.097,0Z"
              style="fill:#fff;fill-rule:nonzero;"/>
        <path d="M1178.19,189.606c0.966,0.967 2.534,0.967 3.5,-0l12.865,-12.865c0.967,-0.967 0.967,-2.534 0,-3.5l-2.636,-2.637c-0.967,-0.967 -2.534,-0.967 -3.501,0l-8.478,8.478l-3.364,-3.364c-0.966,-0.966 -2.534,-0.966 -3.5,0l-2.637,2.637c-0.966,0.966 -0.966,2.534 0,3.5l7.751,7.751Z"
              style="fill:#0366d6;fill-rule:nonzero;"/>
        <path d="M1137.27,189.606c0.967,0.967 2.534,0.967 3.501,-0l12.865,-12.865c0.966,-0.967 0.966,-2.534 -0,-3.5l-2.637,-2.637c-0.966,-0.967 -2.534,-0.967 -3.5,0l-8.478,8.478l-3.364,-3.364c-0.967,-0.966 -2.534,-0.966 -3.501,0l-2.636,2.637c-0.967,0.966 -0.967,2.534 -0,3.5l7.75,7.751Z"
              style="fill:#0366d6;fill-rule:nonzero;"/></g>
    <g><path d="M459.821,307.424c0,-1.812 0.453,-3.422 1.36,-4.828c0.906,-1.406 2.031,-2.633 3.375,-3.68c1.343,-1.047 2.796,-1.937 4.359,-2.672c1.562,-0.734 3.016,-1.343 4.359,-1.828c1.344,-0.484 2.469,-0.875 3.375,-1.172c0.907,-0.296 1.36,-0.539 1.36,-0.726c-0,-1.094 -0.055,-2.164 -0.164,-3.211c-0.11,-1.047 -0.227,-2.102 -0.352,-3.164c-0.125,-1.063 -0.242,-2.117 -0.352,-3.164c-0.109,-1.047 -0.164,-2.086 -0.164,-3.117l0,-3.047c1.282,-0.469 2.196,-0.422 2.743,0.14c0.546,0.563 0.632,1.532 0.257,2.907c0.125,0.687 0.297,1.765 0.516,3.234c0.219,1.469 0.461,3.125 0.727,4.969c0.265,1.843 0.546,3.781 0.843,5.812c0.297,2.031 0.578,3.977 0.844,5.836c0.266,1.86 0.492,3.516 0.68,4.969c0.187,1.453 0.328,2.539 0.422,3.258c0.031,0.156 0.062,0.461 0.093,0.914c0.032,0.453 0.055,0.937 0.071,1.453c0.015,0.516 0.031,0.992 0.047,1.43c0.015,0.437 0.023,0.75 0.023,0.937c-1.187,0 -1.992,-0.047 -2.414,-0.141c-0.422,-0.093 -0.688,-0.281 -0.797,-0.562c-0.109,-0.281 -0.164,-0.688 -0.164,-1.219c0,-0.531 -0.156,-1.265 -0.469,-2.203c-1.156,0.906 -2.25,1.656 -3.281,2.25c-1.031,0.594 -2.062,1.07 -3.094,1.43c-1.031,0.359 -2.07,0.609 -3.117,0.75c-1.047,0.14 -2.164,0.211 -3.351,0.211c-1,-0 -1.961,-0.086 -2.883,-0.258c-0.922,-0.172 -1.742,-0.477 -2.461,-0.914c-0.719,-0.438 -1.297,-1.031 -1.735,-1.781c-0.437,-0.75 -0.656,-1.688 -0.656,-2.813Zm4.078,-0.984c0,0.5 0.11,0.906 0.328,1.218c0.219,0.313 0.5,0.579 0.844,0.797c0.344,0.219 0.711,0.368 1.102,0.446c0.39,0.078 0.773,0.117 1.148,0.117c1.094,-0 2.274,-0.211 3.539,-0.633c1.266,-0.422 2.438,-1.016 3.516,-1.781c1.078,-0.766 1.969,-1.68 2.672,-2.742c0.703,-1.063 1.054,-2.219 1.054,-3.469c0,-0.969 -0.171,-1.641 -0.515,-2.016c-0.344,-0.375 -1,-0.562 -1.969,-0.562c-1,-0 -2.164,0.234 -3.492,0.703c-1.328,0.469 -2.61,1.094 -3.844,1.875c-1.234,0.781 -2.273,1.695 -3.117,2.742c-0.844,1.047 -1.266,2.148 -1.266,3.305Z" style="fill-rule:nonzero;"/>
        <path d="M487.009,299.924c-0,-1.687 0.203,-3.375 0.609,-5.062c0.406,-1.688 1.055,-3.204 1.945,-4.547c0.891,-1.344 2.047,-2.438 3.469,-3.282c1.422,-0.843 3.149,-1.265 5.18,-1.265c1.156,-0 2.172,0.211 3.047,0.633c0.875,0.422 1.609,0.976 2.203,1.664c0.594,0.687 1.039,1.492 1.336,2.414c0.297,0.922 0.445,1.883 0.445,2.883c0,1.593 -0.367,3.14 -1.102,4.64c-0.734,1.5 -1.718,2.821 -2.953,3.961c-1.234,1.141 -2.648,2 -4.242,2.578c-1.594,0.578 -3.219,0.711 -4.875,0.399c0.031,0.906 0.336,1.633 0.914,2.179c0.578,0.547 1.274,0.961 2.086,1.243c0.813,0.281 1.656,0.461 2.531,0.539c0.875,0.078 1.657,0.117 2.344,0.117c0.719,-0 1.391,-0.063 2.016,-0.188c0.625,-0.125 1.25,-0.265 1.875,-0.422c0.625,-0.156 1.258,-0.296 1.898,-0.421c0.641,-0.125 1.321,-0.188 2.039,-0.188c0.282,0 0.563,0.016 0.844,0.047c0.281,0.031 0.547,0.102 0.797,0.211c0.25,0.109 0.453,0.281 0.609,0.516c0.157,0.234 0.235,0.523 0.235,0.867c-0,0.593 -0.219,1.086 -0.657,1.476c-0.437,0.391 -0.992,0.727 -1.664,1.008c-0.672,0.281 -1.414,0.492 -2.226,0.633c-0.813,0.141 -1.602,0.25 -2.367,0.328c-0.766,0.078 -1.469,0.125 -2.11,0.141c-0.64,0.015 -1.117,0.023 -1.429,0.023c-2,0 -3.797,-0.32 -5.391,-0.961c-1.594,-0.64 -2.938,-1.531 -4.031,-2.672c-1.094,-1.14 -1.93,-2.515 -2.508,-4.125c-0.578,-1.609 -0.867,-3.398 -0.867,-5.367Zm4.968,-3.047c0,1.094 0.149,1.891 0.446,2.391c0.297,0.5 1.023,0.75 2.179,0.75c0.813,-0 1.61,-0.149 2.391,-0.445c0.781,-0.297 1.492,-0.711 2.133,-1.243c0.64,-0.531 1.148,-1.156 1.523,-1.875c0.375,-0.718 0.563,-1.5 0.563,-2.343c-0,-0.469 -0.039,-0.954 -0.117,-1.454c-0.079,-0.5 -0.243,-0.96 -0.493,-1.382c-0.25,-0.422 -0.57,-0.766 -0.961,-1.032c-0.39,-0.265 -0.898,-0.398 -1.523,-0.398c-0.937,-0 -1.789,0.211 -2.555,0.633c-0.765,0.422 -1.414,0.969 -1.945,1.64c-0.531,0.672 -0.937,1.422 -1.219,2.25c-0.281,0.829 -0.422,1.664 -0.422,2.508Z"
              style="fill-rule:nonzero;"/>
        <path d="M513.165,295.658c-0,-3.031 0.703,-5.281 2.109,-6.75c1.407,-1.468 3.563,-2.203 6.469,-2.203c1.188,0 2.414,0.11 3.68,0.328c1.265,0.219 2.429,0.602 3.492,1.149c1.062,0.547 1.93,1.305 2.601,2.273c0.672,0.969 1.008,2.219 1.008,3.75c0,1.688 -0.367,3.274 -1.101,4.758c-0.735,1.485 -1.657,2.875 -2.766,4.172c-1.109,1.297 -2.328,2.5 -3.656,3.609c-1.328,1.11 -2.57,2.164 -3.727,3.164c-0.062,0.125 -0.117,0.383 -0.164,0.774c-0.047,0.391 -0.07,0.648 -0.07,0.773c-0,1.032 0.305,2.071 0.914,3.118c0.609,1.046 1.273,2.109 1.992,3.187c0.719,1.078 1.375,2.195 1.969,3.352c0.594,1.156 0.891,2.359 0.891,3.609c-0,0.75 -0.157,1.195 -0.469,1.336c-0.313,0.141 -0.969,0.211 -1.969,0.211c-0.625,-0.25 -1.242,-0.836 -1.852,-1.758c-0.609,-0.922 -1.218,-2.055 -1.828,-3.398c-0.609,-1.344 -1.203,-2.852 -1.781,-4.524c-0.578,-1.672 -1.125,-3.375 -1.641,-5.109c-0.515,-1.735 -1,-3.453 -1.453,-5.156c-0.453,-1.704 -0.851,-3.274 -1.195,-4.711c-0.344,-1.438 -0.648,-2.68 -0.914,-3.727c-0.266,-1.047 -0.445,-1.789 -0.539,-2.227Zm3.984,0.422c0,0.469 0.032,1.149 0.094,2.039c0.063,0.891 0.195,1.774 0.398,2.649c0.204,0.875 0.508,1.633 0.915,2.273c0.406,0.641 0.968,0.961 1.687,0.961c0.969,0 1.945,-0.328 2.93,-0.984c0.984,-0.656 1.859,-1.485 2.625,-2.485c0.765,-1 1.39,-2.07 1.875,-3.21c0.484,-1.141 0.726,-2.18 0.726,-3.118c0,-0.781 -0.187,-1.398 -0.562,-1.851c-0.375,-0.453 -0.852,-0.813 -1.43,-1.078c-0.578,-0.266 -1.195,-0.438 -1.851,-0.516c-0.657,-0.078 -1.282,-0.117 -1.875,-0.117c-1.782,-0 -3.149,0.476 -4.102,1.43c-0.953,0.953 -1.43,2.289 -1.43,4.007Z"
              style="fill-rule:nonzero;"/>
        <path d="M554.368,317.315c-0.656,-1.219 -1.383,-2.742 -2.18,-4.571c-0.797,-1.828 -1.617,-3.734 -2.461,-5.718c-0.843,-1.985 -1.726,-3.93 -2.648,-5.836c-0.922,-1.907 -1.852,-3.563 -2.789,-4.969c-0.375,-0.281 -0.891,-0.453 -1.547,-0.516c-0.656,-0.062 -1.344,-0.086 -2.062,-0.07c-0.719,0.016 -1.43,0 -2.133,-0.047c-0.703,-0.047 -1.313,-0.211 -1.828,-0.492c-0.516,-0.281 -0.899,-0.719 -1.149,-1.313c-0.25,-0.593 -0.297,-1.453 -0.14,-2.578l7.875,0c0.156,-1.75 0.421,-3.484 0.796,-5.203c0.375,-1.719 0.883,-3.359 1.524,-4.922c0.64,-1.562 1.414,-3.015 2.32,-4.359c0.906,-1.344 2,-2.5 3.281,-3.469c1.282,-0.969 2.758,-1.734 4.43,-2.297c1.672,-0.562 3.57,-0.843 5.695,-0.843c0.75,-0 1.5,0.179 2.25,0.539c0.75,0.359 1.422,0.836 2.016,1.429c0.594,0.594 1.07,1.266 1.43,2.016c0.359,0.75 0.539,1.5 0.539,2.25c-0.594,-0 -1.125,-0.117 -1.594,-0.352c-0.469,-0.234 -0.922,-0.5 -1.359,-0.796c-0.438,-0.297 -0.907,-0.579 -1.407,-0.844c-0.5,-0.266 -1.062,-0.399 -1.687,-0.399c-1.875,0 -3.617,0.375 -5.227,1.125c-1.609,0.75 -3.015,1.75 -4.218,3c-1.204,1.25 -2.149,2.703 -2.836,4.36c-0.688,1.656 -1.032,3.406 -1.032,5.25c0,0.125 0.008,0.351 0.024,0.679l0.047,2.133c0.015,0.344 0.023,0.578 0.023,0.703c1.156,0.375 2.453,0.657 3.891,0.844c1.437,0.188 2.883,0.305 4.336,0.352c1.453,0.047 2.859,0.039 4.218,-0.024c1.36,-0.062 2.571,-0.14 3.633,-0.234c0.094,0.094 0.266,0.265 0.516,0.515c0.25,0.25 0.391,0.438 0.422,0.563c-0,0.094 0.015,0.156 0.047,0.187c0.062,0.188 0.093,0.282 0.093,0.282c0,0.656 -0.343,1.172 -1.031,1.547c-0.687,0.375 -1.562,0.648 -2.625,0.82c-1.062,0.172 -2.242,0.289 -3.539,0.351c-1.297,0.063 -2.547,0.118 -3.75,0.165c-1.203,0.046 -2.281,0.109 -3.234,0.187c-0.953,0.078 -1.617,0.227 -1.992,0.445c0.406,1.875 1.132,3.688 2.179,5.438c1.047,1.75 2.117,3.5 3.211,5.25c1.094,1.75 2.063,3.515 2.906,5.297c0.844,1.781 1.266,3.609 1.266,5.484c-0.125,0 -0.414,0.008 -0.867,0.024c-0.453,0.015 -0.93,-0.008 -1.43,-0.071c-0.5,-0.062 -0.976,-0.195 -1.43,-0.398c-0.453,-0.203 -0.71,-0.508 -0.773,-0.914Z"
              style="fill-rule:nonzero;"/>
        <path d="M568.384,293.83c-0,-0.187 0.007,-0.523 0.023,-1.007l0.047,-3c0.016,-0.454 0.023,-0.774 0.023,-0.961c0.219,-0.375 0.477,-0.743 0.774,-1.102c0.297,-0.359 0.609,-0.609 0.937,-0.75c0.328,-0.141 0.688,-0.164 1.078,-0.07c0.391,0.093 0.79,0.406 1.196,0.937l-0,0.985c-0.031,0.156 -0.094,0.523 -0.188,1.101c-0.093,0.578 -0.203,1.211 -0.328,1.899c-0.125,0.687 -0.242,1.32 -0.351,1.898c-0.11,0.578 -0.164,0.945 -0.164,1.102c-0,0.593 0.062,1.336 0.187,2.226c0.125,0.891 0.305,1.82 0.539,2.789c0.234,0.969 0.531,1.938 0.891,2.906c0.359,0.969 0.789,1.836 1.289,2.602c0.5,0.766 1.054,1.398 1.664,1.898c0.609,0.5 1.32,0.75 2.133,0.75c1,0 1.882,-0.265 2.648,-0.796c0.766,-0.532 1.43,-1.219 1.992,-2.063c0.563,-0.844 1.024,-1.797 1.383,-2.859c0.359,-1.063 0.649,-2.133 0.867,-3.211c0.219,-1.078 0.375,-2.117 0.469,-3.117c0.094,-1 0.141,-1.875 0.141,-2.625c-0,-0.75 -0.055,-1.461 -0.164,-2.133c-0.11,-0.672 -0.243,-1.336 -0.399,-1.992c-0.156,-0.657 -0.289,-1.305 -0.398,-1.946c-0.11,-0.64 -0.164,-1.289 -0.164,-1.945c-0,-0.594 0.211,-1.016 0.632,-1.266c0.422,-0.25 0.899,-0.375 1.43,-0.375c0.656,0 1.188,0.196 1.594,0.586c0.406,0.391 0.726,0.883 0.961,1.477c0.234,0.594 0.39,1.273 0.469,2.039c0.078,0.766 0.117,1.523 0.117,2.273c-0,0.75 -0.016,1.461 -0.047,2.133c-0.031,0.672 -0.047,1.211 -0.047,1.617c0,1.063 -0.078,2.266 -0.234,3.61c-0.157,1.343 -0.43,2.726 -0.821,4.148c-0.39,1.422 -0.875,2.82 -1.453,4.195c-0.578,1.375 -1.281,2.602 -2.109,3.68c-0.828,1.078 -1.781,1.945 -2.86,2.602c-1.078,0.656 -2.289,0.984 -3.632,0.984c-1.407,0 -2.641,-0.336 -3.703,-1.008c-1.063,-0.672 -1.961,-1.562 -2.696,-2.672c-0.734,-1.109 -1.351,-2.367 -1.851,-3.773c-0.5,-1.406 -0.883,-2.813 -1.149,-4.219c-0.265,-1.406 -0.453,-2.773 -0.562,-4.101c-0.11,-1.328 -0.164,-2.477 -0.164,-3.446Z"
              style="fill-rule:nonzero;"/>
        <path d="M598.056,309.158c1.406,0 2.109,0.735 2.109,2.204c-0.344,0.906 -0.781,1.507 -1.313,1.804c-0.531,0.297 -1.023,0.407 -1.476,0.328c-0.453,-0.078 -0.86,-0.304 -1.219,-0.679c-0.359,-0.375 -0.555,-0.797 -0.586,-1.266c-0.031,-0.469 0.141,-0.93 0.516,-1.383c0.375,-0.453 1.031,-0.789 1.969,-1.008Z"
              style="fill-rule:nonzero;"/>
        <path d="M602.181,298.846c-0,-1.313 0.289,-2.688 0.867,-4.125c0.578,-1.438 1.351,-2.742 2.32,-3.914c0.969,-1.172 2.086,-2.149 3.352,-2.93c1.265,-0.781 2.601,-1.172 4.007,-1.172c0.719,0 1.438,0.125 2.157,0.375c0.718,0.25 1.367,0.61 1.945,1.078c0.578,0.469 1.047,1.032 1.406,1.688c0.36,0.656 0.539,1.391 0.539,2.203c-0.562,0 -1.07,-0.062 -1.523,-0.187c-0.453,-0.125 -0.899,-0.274 -1.336,-0.446c-0.438,-0.172 -0.867,-0.32 -1.289,-0.445c-0.422,-0.125 -0.883,-0.188 -1.383,-0.188c-1.281,0 -2.32,0.321 -3.117,0.961c-0.797,0.641 -1.43,1.446 -1.899,2.414c-0.468,0.969 -0.789,2.008 -0.961,3.118c-0.171,1.109 -0.257,2.148 -0.257,3.117c-0,0.156 0.007,0.453 0.023,0.89l0.094,2.766c0.015,0.438 0.039,0.734 0.07,0.891c0.344,0.75 0.68,1.328 1.008,1.734c0.328,0.406 0.68,0.711 1.055,0.914c0.375,0.203 0.781,0.328 1.218,0.375c0.438,0.047 0.954,0.07 1.547,0.07c0.813,0 1.524,-0.125 2.133,-0.375c0.609,-0.25 1.18,-0.546 1.711,-0.89c0.531,-0.344 1.031,-0.727 1.5,-1.149c0.469,-0.421 0.961,-0.812 1.477,-1.171c0.515,-0.36 1.078,-0.657 1.687,-0.891c0.609,-0.234 1.305,-0.352 2.086,-0.352c0,1.532 -0.273,2.891 -0.82,4.078c-0.547,1.188 -1.313,2.204 -2.297,3.047c-0.985,0.844 -2.141,1.493 -3.469,1.946c-1.328,0.453 -2.773,0.679 -4.336,0.679c-1.469,0 -2.789,-0.5 -3.961,-1.5c-1.172,-1 -2.172,-2.226 -3,-3.679c-0.828,-1.453 -1.461,-2.993 -1.898,-4.618c-0.438,-1.625 -0.656,-3.062 -0.656,-4.312Z"
              style="fill-rule:nonzero;"/>
        <path d="M625.243,303.44c0,-1.938 0.453,-3.742 1.359,-5.414c0.907,-1.672 2.102,-3.11 3.586,-4.313c1.485,-1.203 3.157,-2.148 5.016,-2.836c1.859,-0.687 3.742,-1.031 5.648,-1.031c1.063,-0 2.008,0.344 2.836,1.031c0.828,0.688 1.524,1.524 2.086,2.508c0.563,0.984 0.992,2.023 1.289,3.117c0.297,1.094 0.446,2.047 0.446,2.86c-0,1.75 -0.422,3.445 -1.266,5.086c-0.844,1.64 -1.937,3.093 -3.281,4.359c-1.344,1.266 -2.86,2.289 -4.547,3.07c-1.688,0.781 -3.375,1.172 -5.063,1.172c-1.5,0 -2.765,-0.258 -3.796,-0.773c-1.032,-0.516 -1.86,-1.203 -2.485,-2.063c-0.625,-0.859 -1.086,-1.875 -1.383,-3.047c-0.297,-1.172 -0.445,-2.414 -0.445,-3.726Zm3.984,0.468c0,0.813 0.071,1.524 0.211,2.133c0.141,0.61 0.391,1.133 0.75,1.571c0.36,0.437 0.836,0.773 1.43,1.007c0.594,0.235 1.328,0.352 2.203,0.352c1.156,-0 2.313,-0.32 3.469,-0.961c1.156,-0.641 2.195,-1.453 3.117,-2.437c0.922,-0.985 1.664,-2.071 2.227,-3.258c0.562,-1.188 0.843,-2.344 0.843,-3.469c0,-0.5 -0.046,-1.047 -0.14,-1.641c-0.094,-0.593 -0.25,-1.14 -0.469,-1.64c-0.219,-0.5 -0.531,-0.922 -0.937,-1.266c-0.407,-0.344 -0.922,-0.516 -1.547,-0.516c-0.563,0 -1.227,0.188 -1.993,0.563c-0.765,0.375 -1.562,0.859 -2.39,1.453c-0.828,0.594 -1.641,1.266 -2.438,2.016c-0.797,0.75 -1.523,1.5 -2.179,2.25c-0.657,0.75 -1.18,1.468 -1.571,2.156c-0.39,0.687 -0.586,1.25 -0.586,1.687Z"
              style="fill-rule:nonzero;"/>
        <path d="M648.306,293.268c-0,-0.781 0.132,-1.391 0.398,-1.828c0.266,-0.438 0.836,-0.657 1.711,-0.657l1.031,0.047c0.219,0.969 0.445,2.024 0.68,3.164c0.234,1.141 0.508,2.289 0.82,3.446c0.313,1.156 0.664,2.297 1.055,3.422c0.39,1.125 0.867,2.14 1.43,3.046c0.562,-0.593 0.968,-1.296 1.218,-2.109c0.25,-0.812 0.438,-1.633 0.563,-2.461c0.125,-0.828 0.242,-1.625 0.351,-2.39c0.11,-0.766 0.336,-1.422 0.68,-1.969c0.344,-0.547 0.852,-0.946 1.523,-1.196c0.672,-0.25 1.602,-0.25 2.79,0c1.312,0 2.359,0.243 3.14,0.727c0.781,0.484 1.461,1.094 2.039,1.828c0.578,0.735 1.141,1.516 1.688,2.344c0.547,0.828 1.242,1.57 2.086,2.226c0.187,-0.406 0.422,-0.914 0.703,-1.523c0.281,-0.609 0.633,-1.25 1.054,-1.922c0.422,-0.672 0.875,-1.344 1.36,-2.015c0.484,-0.672 0.992,-1.282 1.523,-1.829c0.532,-0.546 1.078,-1 1.641,-1.359c0.562,-0.359 1.109,-0.539 1.641,-0.539c1.281,-0 2.39,0.398 3.328,1.195c0.937,0.797 1.742,1.797 2.414,3c0.672,1.203 1.226,2.547 1.664,4.032c0.437,1.484 0.781,2.914 1.031,4.289c0.25,1.375 0.43,2.632 0.539,3.773c0.109,1.141 0.164,1.961 0.164,2.461c0,0.406 -0.094,0.719 -0.281,0.937c-0.188,0.219 -0.422,0.383 -0.703,0.493c-0.281,0.109 -0.586,0.179 -0.914,0.211c-0.328,0.031 -0.633,0.046 -0.914,0.046c-0.063,0 -0.157,-0.007 -0.282,-0.023c-0.125,-0.016 -0.265,-0.039 -0.421,-0.07c-0.125,-0.032 -0.297,-0.078 -0.516,-0.141l-3.047,-14.016c0,-0.093 -0.125,-0.273 -0.375,-0.539c-0.25,-0.265 -0.437,-0.429 -0.562,-0.492c-0.094,0 -0.172,-0.015 -0.235,-0.047c-0.062,0 -0.109,-0.007 -0.14,-0.023c-0.032,-0.016 -0.063,-0.024 -0.094,-0.024c-0.656,0 -1.274,0.266 -1.852,0.797c-0.578,0.532 -1.117,1.203 -1.617,2.016c-0.5,0.812 -0.969,1.719 -1.406,2.719c-0.438,1 -0.828,1.992 -1.172,2.976c-0.344,0.985 -0.649,1.891 -0.914,2.719c-0.266,0.828 -0.477,1.461 -0.633,1.898c-0.125,0.063 -0.375,0.118 -0.75,0.165c-0.375,0.046 -0.625,0.07 -0.75,0.07c-0.875,-0 -1.547,-0.305 -2.016,-0.914c-0.468,-0.61 -0.851,-1.367 -1.148,-2.274c-0.297,-0.906 -0.547,-1.898 -0.75,-2.976c-0.203,-1.078 -0.453,-2.071 -0.75,-2.977c-0.297,-0.906 -0.703,-1.664 -1.219,-2.273c-0.515,-0.61 -1.242,-0.914 -2.179,-0.914c-0.344,-0 -0.672,0.343 -0.985,1.031c-0.312,0.687 -0.594,1.555 -0.844,2.602c-0.25,1.046 -0.484,2.171 -0.703,3.375c-0.218,1.203 -0.398,2.328 -0.539,3.375c-0.14,1.046 -0.242,1.929 -0.304,2.648c-0.063,0.719 -0.094,1.078 -0.094,1.078c-0.063,0.094 -0.188,0.195 -0.375,0.305c-0.188,0.109 -0.383,0.226 -0.586,0.351c-0.203,0.125 -0.406,0.219 -0.61,0.282c-0.203,0.062 -0.351,0.093 -0.445,0.093c-0.875,0 -1.719,-0.398 -2.531,-1.195c-0.813,-0.797 -1.555,-1.828 -2.227,-3.094c-0.672,-1.265 -1.281,-2.664 -1.828,-4.195c-0.547,-1.531 -1.008,-3.031 -1.383,-4.5c-0.375,-1.469 -0.664,-2.797 -0.867,-3.984c-0.203,-1.188 -0.304,-2.094 -0.304,-2.719Z"
              style="fill-rule:nonzero;"/></g>
    <g id="Artboard"><g id="depfu-left-bw"><g id="Group-5"><path id="Fill-1" d="M292.936,164.786l-0.018,22.816c-0.472,4.643 1.418,9.485 5.688,12.57l39.178,28.296l41.185,27.918c4.891,3.315 11.372,3.276 16.222,-0.096l41.951,-29.167c15.634,-10.87 22.76,-26.091 21.438,-40.936l-0,-18.793c-1.117,12.523 -8.251,24.787 -21.438,33.956l-41.951,29.167c-4.85,3.372 -11.331,3.41 -16.222,0.096l-41.185,-27.918l-39.178,-28.297c-3.366,-2.431 -5.253,-5.955 -5.67,-9.612" style="fill:#00f;"/><path
            id="Fill-3"
            d="M292.936,113.594l-0.018,22.818c-0.472,4.643 1.418,9.484 5.688,12.568l39.178,28.297l41.185,27.917c4.891,3.315 11.372,3.277 16.222,-0.095l41.951,-29.167c15.634,-10.871 22.76,-26.092 21.438,-40.936l-0,-18.793c-1.117,12.523 -8.251,24.787 -21.438,33.956l-41.951,29.167c-4.85,3.373 -11.331,3.411 -16.222,0.096l-41.185,-27.917l-39.178,-28.297c-3.366,-2.432 -5.253,-5.956 -5.67,-9.614"
            style="fill:#00f;"/><path id="Fill-4"
                                      d="M420.406,97.622l-7.621,-5.2c-17.359,-10.182 -35.266,-9.683 -53.455,0.221l-26.773,18.421c-0.937,0.646 -0.956,1.728 -0.013,2.399l18.583,13.244l12.053,-8.292c-0.162,0.088 -0.324,0.164 -0.486,0.253l1.229,-0.764l-0.743,0.511c18.055,-9.832 35.834,-10.394 53.075,-0.441l-0.402,-0.273l0.402,0.273c0.126,0.072 0.252,0.147 0.379,0.22l7.62,5.201c0.282,0.19 0.542,0.387 0.811,0.58c8.473,-8.444 6.927,-18.502 -4.659,-26.353"
                                      style="fill:#00f;"/></g><path id="Fill-6"
                                                                    d="M523.469,188.435c7.785,-0 13.643,-2.02 17.574,-6.06c3.928,-4.038 5.894,-10.944 5.894,-20.714c0,-9.768 -1.966,-16.654 -5.894,-20.658c-3.931,-4.003 -9.789,-6.005 -17.574,-6.005l-12.891,0l0,53.437l12.891,-0Zm-26.058,9.696c-0.625,-0.662 -0.936,-1.653 -0.936,-2.975l0,-66.878c0,-1.396 0.311,-2.425 0.936,-3.085c0.623,-0.662 1.67,-0.992 3.14,-0.992l22.036,-0c12.413,-0 21.906,2.976 28.482,8.924c6.573,5.949 9.861,15.463 9.861,28.536c-0,24.975 -12.781,37.462 -38.343,37.462l-22.036,-0c-1.47,-0 -2.517,-0.33 -3.14,-0.992Z"
                                                                    style="fill:#00f;"/><path id="Fill-7"
                                                                                              d="M610.364,168.162c-0,-4.554 -1.267,-8.115 -3.802,-10.686c-2.534,-2.572 -6.335,-3.858 -11.404,-3.858c-5.142,0 -9.089,1.324 -11.843,3.967c-2.755,2.645 -4.132,6.171 -4.132,10.577l31.181,-0Zm-29.308,29.693c-4.628,-1.944 -8.319,-4.957 -11.074,-9.035c-2.754,-4.076 -4.131,-9.162 -4.131,-15.259c-0,-9.475 2.534,-16.674 7.602,-21.594c5.069,-4.921 12.266,-7.384 21.596,-7.384c9.254,0 16.25,2.389 20.988,7.163c4.738,4.776 7.107,11.678 7.107,20.714c0,2.572 -1.176,3.856 -3.525,3.856l-40.436,-0c-0,4.847 1.688,8.577 5.067,11.183c3.378,2.607 8.08,3.91 14.104,3.91c5.801,0 11.018,-1.321 15.645,-3.966c0.513,-0.292 0.917,-0.439 1.212,-0.439c0.513,-0 0.918,0.33 1.212,0.991l2.644,4.737c0.22,0.44 0.331,0.846 0.331,1.212c-0,0.514 -0.331,0.991 -0.992,1.433c-3.012,1.836 -6.263,3.195 -9.751,4.075c-3.49,0.883 -7.511,1.324 -12.064,1.324c-5.73,0 -10.908,-0.975 -15.535,-2.921Z"
                                                                                              style="fill:#00f;"/><path
            id="Fill-8"
            d="M669.605,185.928c2.57,-3.157 3.856,-7.712 3.856,-13.663c-0,-6.389 -1.506,-10.924 -4.517,-13.607c-3.013,-2.679 -7.64,-4.02 -13.883,-4.02c-4.547,-0 -8.137,0.673 -10.769,2.02c-0.087,0.045 -0.139,0.134 -0.139,0.232l0,32.82c0,0.131 0.097,0.24 0.228,0.249c1.498,0.108 10.001,0.707 13.545,0.707c5.214,0 9.107,-1.58 11.679,-4.738Zm-38.398,34.375c-0.625,-0.661 -0.936,-1.652 -0.936,-2.974l-0,-65.752c-0,-0.085 0.039,-0.163 0.108,-0.211c2.778,-1.949 6.469,-3.578 11.075,-4.882c4.664,-1.322 9.346,-1.984 14.048,-1.984c21.301,0 31.952,9.404 31.952,28.207c0,8.667 -2.333,15.499 -6.996,20.493c-4.666,4.996 -11.074,7.492 -19.227,7.492c-6.686,0 -15.19,-0.716 -16.806,-0.858c-0.147,-0.013 -0.272,0.103 -0.272,0.25l0,17.245c0,1.395 -0.313,2.404 -0.936,3.03c-0.625,0.622 -1.707,0.937 -3.251,0.937l-5.619,-0c-1.469,-0 -2.517,-0.331 -3.14,-0.993Z"
            style="fill:#00f;"/><path id="Fill-9"
                                      d="M698.119,198.131c-0.625,-0.662 -0.936,-1.653 -0.936,-2.975l0,-38.562l-5.178,-0c-1.471,-0 -2.479,-0.313 -3.031,-0.937c-0.55,-0.624 -0.826,-1.634 -0.826,-3.031l0,-2.534c0,-1.393 0.276,-2.385 0.826,-2.975c0.552,-0.586 1.56,-0.88 3.031,-0.88l5.178,-0l0,-4.076c0,-6.171 1.653,-10.981 4.957,-14.434c3.307,-3.453 8.264,-5.179 14.875,-5.179c6.684,-0 11.936,1.433 15.756,4.297c0.66,0.441 0.992,0.955 0.992,1.543c-0,0.44 -0.149,0.845 -0.441,1.211l-2.755,4.628c-0.44,0.661 -0.845,0.992 -1.212,0.992c-0.22,-0 -0.625,-0.147 -1.212,-0.441c-1.47,-0.807 -2.809,-1.413 -4.021,-1.819c-1.213,-0.401 -2.627,-0.606 -4.242,-0.606c-3.159,0 -5.382,0.772 -6.666,2.316c-1.286,1.541 -1.928,3.965 -1.928,7.271l0,4.297l13.552,-0c1.469,-0 2.496,0.294 3.084,0.88c0.588,0.59 0.882,1.582 0.882,2.975l-0,2.534c-0,1.397 -0.294,2.407 -0.882,3.031c-0.588,0.624 -1.615,0.937 -3.084,0.937l-13.552,-0l0,38.562c0,1.322 -0.314,2.313 -0.936,2.975c-0.626,0.662 -1.709,0.992 -3.251,0.992l-5.84,-0c-1.47,-0 -2.516,-0.33 -3.14,-0.992"
                                      style="fill:#00f;"/><path id="Fill-10"
                                                                d="M760.5,190.75c-3.599,-0 -6.318,-0.827 -8.153,-2.48c-1.836,-1.652 -2.755,-4.241 -2.755,-7.767l0,-30.19c0,-1.395 -0.329,-2.424 -0.991,-3.085c-0.661,-0.661 -1.727,-0.991 -3.195,-0.991l-5.84,-0c-1.47,-0 -2.516,0.33 -3.14,0.991c-0.624,0.661 -0.936,1.69 -0.936,3.085l0,30.52c0,6.61 2.362,11.087 5.509,14.929c4.103,5.009 12.768,5.009 18.791,5.009l3.687,-0c6.024,-0 14.688,-0 18.792,-5.009c3.146,-3.842 5.508,-8.319 5.508,-14.929l0,-30.52c0,-1.395 -0.311,-2.424 -0.936,-3.085c-0.623,-0.661 -1.67,-0.991 -3.14,-0.991l-5.84,-0c-1.467,-0 -2.534,0.33 -3.194,0.991c-0.662,0.661 -0.992,1.69 -0.992,3.085l-0,30.19c-0,3.526 -0.919,6.115 -2.755,7.767c-1.835,1.653 -4.553,2.48 -8.152,2.48"
                                                                style="fill:#00f;"/></g></g></svg>