<svg fill="currentColor" viewBox="0 0 2048 400" xmlns="http://www.w3.org/2000/svg" xml:space="preserve" style="fill-rule:evenodd;clip-rule:evenodd;stroke-linejoin:round;stroke-miterlimit:2"><path d="M1315.65 305.268c0-1.813.453-3.422 1.359-4.828a14.786 14.786 0 0 1 3.375-3.68 22.982 22.982 0 0 1 4.36-2.672 50.84 50.84 0 0 1 4.359-1.828c1.344-.484 2.469-.875 3.375-1.172.906-.297 1.359-.539 1.359-.726 0-1.094-.054-2.164-.164-3.211a237.078 237.078 0 0 0-.351-3.164 240.92 240.92 0 0 1-.352-3.164 30.091 30.091 0 0 1-.164-3.118v-3.047c1.281-.468 2.195-.421 2.742.141.547.563.633 1.531.258 2.906.125.688.297 1.766.516 3.235.218 1.468.461 3.125.726 4.968.266 1.844.547 3.782.844 5.813.297 2.031.578 3.977.844 5.836.265 1.859.492 3.516.679 4.969l.422 3.257c.032.157.063.461.094.915.031.453.055.937.07 1.453l.047 1.429c.016.438.024.75.024.938-1.188 0-1.993-.047-2.414-.141-.422-.094-.688-.281-.797-.562-.11-.282-.164-.688-.164-1.219 0-.531-.157-1.266-.469-2.203-1.156.906-2.25 1.656-3.281 2.25a18.299 18.299 0 0 1-3.094 1.43c-1.031.359-2.07.609-3.117.75-1.047.14-2.164.21-3.352.21-1 0-1.961-.085-2.883-.257-.922-.172-1.742-.477-2.461-.914a5.005 5.005 0 0 1-1.734-1.782c-.437-.75-.656-1.687-.656-2.812Zm4.078-.985c0 .5.109.907.328 1.219.219.313.5.578.844.797.344.219.711.367 1.101.445.391.079.774.118 1.149.118 1.094 0 2.273-.211 3.539-.633a13.328 13.328 0 0 0 3.515-1.781 10.345 10.345 0 0 0 2.672-2.743 6.159 6.159 0 0 0 1.055-3.468c0-.969-.172-1.641-.516-2.016-.343-.375-1-.563-1.968-.563-1 0-2.164.235-3.493.704a18.904 18.904 0 0 0-3.843 1.875c-1.235.781-2.274 1.695-3.117 2.742-.844 1.047-1.266 2.148-1.266 3.304ZM1342.84 297.768c0-1.688.203-3.375.61-5.063.406-1.687 1.054-3.203 1.945-4.547a10.583 10.583 0 0 1 3.469-3.281c1.422-.844 3.148-1.265 5.179-1.265 1.157 0 2.172.211 3.047.632a6.73 6.73 0 0 1 2.203 1.664 6.872 6.872 0 0 1 1.336 2.415c.297.921.446 1.882.446 2.882 0 1.594-.368 3.141-1.102 4.641a13.336 13.336 0 0 1-2.953 3.961 12.42 12.42 0 0 1-4.242 2.578 9.097 9.097 0 0 1-4.875.398c.031.907.336 1.633.914 2.18a5.696 5.696 0 0 0 2.086 1.242c.812.282 1.656.461 2.531.539.875.079 1.656.118 2.344.118.719 0 1.39-.063 2.015-.188.625-.125 1.25-.266 1.875-.422a37.4 37.4 0 0 1 1.899-.422 10.63 10.63 0 0 1 2.039-.187c.281 0 .562.015.844.047.281.031.547.101.797.211.25.109.453.281.609.515.156.235.234.524.234.867 0 .594-.218 1.086-.656 1.477-.437.391-.992.727-1.664 1.008-.672.281-1.414.492-2.227.633-.812.14-1.601.25-2.367.328-.765.078-1.469.125-2.109.14-.641.016-1.117.024-1.43.024-2 0-3.797-.32-5.39-.961-1.594-.641-2.938-1.531-4.032-2.672-1.093-1.141-1.929-2.516-2.508-4.125-.578-1.609-.867-3.398-.867-5.367Zm4.969-3.047c0 1.094.148 1.891.445 2.391.297.5 1.024.75 2.18.75a6.68 6.68 0 0 0 2.391-.446 7.48 7.48 0 0 0 2.132-1.242 6.049 6.049 0 0 0 1.524-1.875c.375-.719.562-1.5.562-2.344 0-.468-.039-.953-.117-1.453a3.852 3.852 0 0 0-.492-1.383 3.21 3.21 0 0 0-.961-1.031c-.391-.265-.898-.398-1.523-.398-.938 0-1.789.211-2.555.633a6.348 6.348 0 0 0-1.945 1.64 7.454 7.454 0 0 0-1.219 2.25 7.759 7.759 0 0 0-.422 2.508ZM1369 293.502c0-3.031.703-5.281 2.109-6.75 1.406-1.469 3.562-2.203 6.469-2.203 1.187 0 2.414.109 3.679.328 1.266.219 2.43.602 3.493 1.149a7.032 7.032 0 0 1 2.601 2.273c.672.969 1.008 2.219 1.008 3.75 0 1.688-.367 3.274-1.102 4.758a20.155 20.155 0 0 1-2.765 4.172 30.646 30.646 0 0 1-3.657 3.609 289.514 289.514 0 0 0-3.726 3.164c-.063.125-.117.383-.164.774-.047.39-.07.648-.07.773 0 1.031.304 2.07.914 3.117a61.284 61.284 0 0 0 1.992 3.188 34.215 34.215 0 0 1 1.969 3.351c.593 1.157.89 2.36.89 3.61 0 .75-.156 1.195-.469 1.336-.312.14-.968.211-1.968.211-.625-.25-1.243-.836-1.852-1.758s-1.219-2.055-1.828-3.399a52.645 52.645 0 0 1-1.781-4.523 123.081 123.081 0 0 1-1.641-5.109c-.516-1.735-1-3.454-1.453-5.157a189.528 189.528 0 0 1-1.195-4.711 301.24 301.24 0 0 0-.914-3.726 67.313 67.313 0 0 1-.539-2.227Zm3.984.422c0 .469.031 1.149.094 2.039.062.891.195 1.774.398 2.649s.508 1.632.914 2.273c.406.641.969.961 1.688.961.968 0 1.945-.328 2.929-.984a10.952 10.952 0 0 0 2.625-2.485c.766-1 1.391-2.07 1.875-3.211.485-1.14.727-2.179.727-3.117 0-.781-.188-1.398-.563-1.851a3.974 3.974 0 0 0-1.429-1.079 6.163 6.163 0 0 0-1.852-.515 15.903 15.903 0 0 0-1.875-.117c-1.781 0-3.148.476-4.101 1.429-.954.953-1.43 2.289-1.43 4.008ZM1391.12 297.768c0-1.688.203-3.375.609-5.063.406-1.687 1.055-3.203 1.945-4.547a10.583 10.583 0 0 1 3.469-3.281c1.422-.844 3.148-1.265 5.18-1.265 1.156 0 2.172.211 3.047.632a6.741 6.741 0 0 1 2.203 1.664 6.888 6.888 0 0 1 1.336 2.415c.296.921.445 1.882.445 2.882 0 1.594-.367 3.141-1.102 4.641a13.32 13.32 0 0 1-2.953 3.961 12.42 12.42 0 0 1-4.242 2.578 9.097 9.097 0 0 1-4.875.398c.031.907.336 1.633.914 2.18a5.704 5.704 0 0 0 2.086 1.242c.813.282 1.656.461 2.531.539.875.079 1.657.118 2.344.118.719 0 1.391-.063 2.016-.188s1.25-.266 1.875-.422a37.362 37.362 0 0 1 1.898-.422c.641-.125 1.32-.187 2.039-.187.281 0 .563.015.844.047.281.031.547.101.797.211.25.109.453.281.609.515.156.235.235.524.235.867 0 .594-.219 1.086-.657 1.477-.437.391-.992.727-1.664 1.008-.672.281-1.414.492-2.226.633-.813.14-1.602.25-2.368.328-.765.078-1.468.125-2.109.14-.641.016-1.117.024-1.43.024-2 0-3.796-.32-5.39-.961-1.594-.641-2.938-1.531-4.031-2.672-1.094-1.141-1.93-2.516-2.508-4.125-.578-1.609-.867-3.398-.867-5.367Zm4.968-3.047c0 1.094.149 1.891.446 2.391.296.5 1.023.75 2.179.75.813 0 1.61-.149 2.391-.446a7.499 7.499 0 0 0 2.133-1.242 6.06 6.06 0 0 0 1.523-1.875c.375-.719.563-1.5.563-2.344 0-.468-.039-.953-.118-1.453a3.852 3.852 0 0 0-.492-1.383 3.21 3.21 0 0 0-.961-1.031c-.39-.265-.898-.398-1.523-.398-.938 0-1.789.211-2.555.633a6.36 6.36 0 0 0-1.945 1.64 7.476 7.476 0 0 0-1.219 2.25 7.759 7.759 0 0 0-.422 2.508ZM1417.28 295.002c0-.812.203-1.398.609-1.758.406-.359 1.063-.539 1.969-.539h.469c.093.5.203 1.078.328 1.735.125.656.312 1.328.562 2.015.25.688.547 1.321.891 1.899a4.34 4.34 0 0 0 1.266 1.383 7.369 7.369 0 0 1 .82-3.164 11.214 11.214 0 0 1 1.922-2.719 11.951 11.951 0 0 1 2.531-2.016c.922-.547 1.836-.914 2.742-1.101h1.031c1.5 0 2.782.336 3.844 1.007a8.669 8.669 0 0 1 2.649 2.625c.703 1.079 1.242 2.305 1.617 3.68s.664 2.774.867 4.195c.203 1.422.328 2.797.375 4.125.047 1.329.07 2.461.07 3.399h-3.422a86.13 86.13 0 0 0-.703-5.391 32.674 32.674 0 0 0-.375-2.179 31.52 31.52 0 0 0-.515-2.157 22.12 22.12 0 0 0-.61-1.875 6.773 6.773 0 0 0-.75-1.476l-1.125-1.172a9.338 9.338 0 0 0-.609-.563c-.188-.156-.297-.234-.328-.234-.938-.25-1.75-.07-2.438.539-.687.609-1.297 1.43-1.828 2.461-.531 1.031-.961 2.203-1.289 3.516a59.587 59.587 0 0 0-.82 3.773 43.106 43.106 0 0 0-.469 3.141c-.094.89-.156 1.429-.187 1.617-.782.562-1.516.726-2.204.492-.687-.234-1.336-.727-1.945-1.477-.609-.75-1.156-1.687-1.641-2.812a39.915 39.915 0 0 1-1.335-3.586 65.825 65.825 0 0 1-1.102-3.82 142.789 142.789 0 0 1-.867-3.563ZM1443.39 305.268c0-1.813.453-3.422 1.36-4.828a14.786 14.786 0 0 1 3.375-3.68 22.943 22.943 0 0 1 4.359-2.672 50.974 50.974 0 0 1 4.359-1.828c1.344-.484 2.469-.875 3.375-1.172.907-.297 1.36-.539 1.36-.726a30.99 30.99 0 0 0-.164-3.211c-.11-1.047-.227-2.102-.352-3.164a259.299 259.299 0 0 1-.352-3.164 30.091 30.091 0 0 1-.164-3.118v-3.047c1.282-.468 2.196-.421 2.743.141.546.563.632 1.531.257 2.906.125.688.297 1.766.516 3.235.219 1.468.461 3.125.727 4.968.265 1.844.546 3.782.843 5.813.297 2.031.578 3.977.844 5.836.266 1.859.492 3.516.68 4.969.187 1.453.328 2.539.422 3.257.031.157.062.461.093.915.032.453.055.937.071 1.453.015.515.031.992.047 1.429.015.438.023.75.023.938-1.187 0-1.992-.047-2.414-.141-.422-.094-.688-.281-.797-.562-.109-.282-.164-.688-.164-1.219 0-.531-.156-1.266-.469-2.203-1.156.906-2.25 1.656-3.281 2.25a18.227 18.227 0 0 1-3.094 1.43c-1.031.359-2.07.609-3.117.75-1.047.14-2.164.21-3.351.21-1 0-1.961-.085-2.883-.257-.922-.172-1.742-.477-2.461-.914a5 5 0 0 1-1.735-1.782c-.437-.75-.656-1.687-.656-2.812Zm4.078-.985c0 .5.11.907.328 1.219.219.313.5.578.844.797.344.219.711.367 1.102.445.39.079.773.118 1.148.118 1.094 0 2.274-.211 3.539-.633a13.319 13.319 0 0 0 3.516-1.781 10.36 10.36 0 0 0 2.672-2.743 6.158 6.158 0 0 0 1.054-3.468c0-.969-.171-1.641-.515-2.016s-1-.563-1.969-.563c-1 0-2.164.235-3.492.704a18.911 18.911 0 0 0-3.844 1.875c-1.234.781-2.273 1.695-3.117 2.742-.844 1.047-1.266 2.148-1.266 3.304ZM1490.73 304.752a93.562 93.562 0 0 0-3.07 2.18c-.86.641-1.696 1.18-2.508 1.617-.813.438-1.68.766-2.602.984-.922.219-2.054.329-3.398.329-2.906 0-5.063-.774-6.469-2.321-1.406-1.547-2.109-3.851-2.109-6.914 0-1.187.156-2.422.468-3.703a19.436 19.436 0 0 1 1.383-3.82 22.426 22.426 0 0 1 2.18-3.61 17.012 17.012 0 0 1 2.859-3.023 14.05 14.05 0 0 1 3.399-2.086 9.587 9.587 0 0 1 3.82-.773c2.25.218 4.016.773 5.297 1.664a8.54 8.54 0 0 1 2.906 3.422c.656 1.39 1.11 2.937 1.36 4.64.25 1.703.445 3.461.585 5.274.141 1.812.321 3.625.54 5.437.218 1.813.671 3.484 1.359 5.016-.406 1.031-.789 1.758-1.149 2.179-.359.422-.757.493-1.195.211-.437-.281-.945-.968-1.523-2.062-.578-1.094-1.289-2.641-2.133-4.641Zm-16.172-4.031c0 1.781.336 3.086 1.008 3.914.672.828 1.867 1.242 3.586 1.242a10.11 10.11 0 0 0 3.679-.679 9.743 9.743 0 0 0 3.071-1.875 9.111 9.111 0 0 0 2.109-2.883c.531-1.125.797-2.375.797-3.75 0-.563.016-1.352.047-2.367a16.257 16.257 0 0 0-.188-3.024c-.156-1-.453-1.867-.89-2.601-.438-.735-1.094-1.102-1.969-1.102a8.563 8.563 0 0 0-4.5 1.242 12.984 12.984 0 0 0-3.562 3.164 15.402 15.402 0 0 0-2.344 4.242c-.563 1.547-.844 3.039-.844 4.477ZM1506.76 308.783c-.969-2.812-1.883-5.445-2.742-7.898a105.626 105.626 0 0 1-2.25-7.219 65.283 65.283 0 0 1-1.523-7.195c-.375-2.438-.563-5.047-.563-7.828 0-.219.008-.617.023-1.195.016-.579.024-1.18.024-1.805s.008-1.227.023-1.805c.016-.578.024-.976.024-1.195.281-.625.773-1.203 1.476-1.735.703-.531 1.414-.796 2.133-.796 0 2.312.031 4.773.094 7.382.062 2.61.258 5.211.586 7.805a48.039 48.039 0 0 0 1.594 7.617c.734 2.485 1.773 4.758 3.117 6.821.031-.75.062-1.579.094-2.485.031-.906.117-1.812.257-2.719.141-.906.368-1.781.68-2.625a6.7 6.7 0 0 1 1.383-2.25c.609-.656 1.406-1.171 2.39-1.546.985-.375 2.227-.547 3.727-.516 1.344 0 2.555.25 3.633.75a7.9 7.9 0 0 1 2.719 2.039 9.111 9.111 0 0 1 1.687 3 11.13 11.13 0 0 1 .586 3.633c0 1.719-.422 3.406-1.266 5.062a16.183 16.183 0 0 1-3.351 4.453 17.443 17.443 0 0 1-4.664 3.165c-1.719.796-3.469 1.195-5.25 1.195a7.185 7.185 0 0 1-2.625-.492 4.193 4.193 0 0 1-2.016-1.618Zm11.11-17.109c-.625.344-1.282.75-1.969 1.219-.688.469-1.321 1.195-1.899 2.18-.578.984-1.07 2.32-1.476 4.007-.406 1.688-.656 3.922-.75 6.703l1.031.094c.844 0 1.805-.265 2.883-.797a18.703 18.703 0 0 0 3.14-1.968 14.958 14.958 0 0 0 2.649-2.602c.75-.953 1.203-1.867 1.359-2.742.094-.531-.015-1.141-.328-1.828a9.287 9.287 0 0 0-1.242-1.992 8.648 8.648 0 0 0-1.688-1.618c-.609-.437-1.179-.656-1.71-.656ZM1528.8 301.283c0-1.937.454-3.742 1.36-5.414a14.223 14.223 0 0 1 3.586-4.312 17.576 17.576 0 0 1 5.015-2.836 16.17 16.17 0 0 1 5.649-1.031c1.062 0 2.008.343 2.836 1.031a9.068 9.068 0 0 1 2.086 2.508c.562.984.992 2.023 1.289 3.117.297 1.094.445 2.047.445 2.859 0 1.75-.422 3.446-1.266 5.086a15.977 15.977 0 0 1-3.281 4.36 17.013 17.013 0 0 1-4.547 3.07c-1.687.781-3.375 1.172-5.062 1.172-1.5 0-2.766-.258-3.797-.774-1.031-.515-1.859-1.203-2.484-2.062-.625-.859-1.086-1.875-1.383-3.047a15.122 15.122 0 0 1-.446-3.727Zm3.985.469c0 .813.07 1.524.211 2.133.14.609.39 1.133.75 1.57.359.438.836.774 1.429 1.008.594.235 1.329.352 2.204.352 1.156 0 2.312-.321 3.468-.961a12.615 12.615 0 0 0 3.117-2.438 12.667 12.667 0 0 0 2.227-3.258c.563-1.187.844-2.343.844-3.468 0-.5-.047-1.047-.141-1.641a6.673 6.673 0 0 0-.469-1.641 3.432 3.432 0 0 0-.937-1.265c-.406-.344-.922-.516-1.547-.516-.562 0-1.227.188-1.992.563-.766.375-1.563.859-2.391 1.453a23.83 23.83 0 0 0-2.437 2.015c-.797.75-1.524 1.5-2.18 2.25-.656.75-1.18 1.469-1.57 2.157-.391.687-.586 1.25-.586 1.687ZM1551.86 287.174c0-.094.016-.172.047-.234 0-.063.015-.141.047-.235a7.99 7.99 0 0 1 .562-.609c.25-.25.406-.375.469-.375h9.422c0-.344-.047-.891-.141-1.641-.094-.75-.18-1.578-.258-2.484a24.202 24.202 0 0 1-.07-2.836c.031-.984.164-1.875.398-2.672.235-.797.61-1.453 1.125-1.969.516-.515 1.243-.773 2.18-.773 0 3.156.219 5.687.656 7.594.438 1.906 1.024 3.375 1.758 4.406.735 1.031 1.571 1.703 2.508 2.016a7.866 7.866 0 0 0 2.883.398 13.7 13.7 0 0 0 2.883-.445c.937-.25 1.773-.422 2.507-.516.735-.094 1.321-.023 1.758.211.438.234.657.789.657 1.664 0 .656-.149 1.125-.446 1.406-.297.282-.867.5-1.711.657-.25.031-.664.086-1.242.164-.578.078-1.226.148-1.945.211l-4.594.421c-.719.063-1.375.102-1.969.118-.593.015-1.031.023-1.312.023l-.094 1.547c0 1.375.219 2.711.656 4.008a72.005 72.005 0 0 0 1.43 3.867 76.347 76.347 0 0 1 1.43 3.844c.437 1.281.656 2.609.656 3.984 0 .25-.024.508-.07.774-.047.265-.141.5-.282.703-.14.203-.343.359-.609.468-.266.11-.633.086-1.102-.07-1.187-.312-2.07-.984-2.648-2.016-.578-1.031-1.008-2.257-1.289-3.679a33.518 33.518 0 0 1-.563-4.524 52.033 52.033 0 0 0-.445-4.476c-.203-1.391-.523-2.578-.961-3.563-.437-.984-1.14-1.586-2.109-1.804l-9.047-2.063c-.125 0-.313-.133-.563-.398-.25-.266-.406-.461-.468-.586a.515.515 0 0 1-.047-.235.654.654 0 0 1-.047-.281ZM1588.61 307.002c1.406 0 2.109.735 2.109 2.203-.343.907-.781 1.508-1.312 1.805-.531.297-1.024.406-1.477.328-.453-.078-.859-.305-1.219-.68-.359-.375-.554-.796-.585-1.265-.032-.469.14-.93.515-1.383.375-.453 1.031-.789 1.969-1.008ZM1592.73 296.69c0-1.313.289-2.688.867-4.125a14.735 14.735 0 0 1 2.32-3.914 13.58 13.58 0 0 1 3.352-2.93c1.266-.781 2.602-1.172 4.008-1.172.719 0 1.437.125 2.156.375a6.39 6.39 0 0 1 1.945 1.078 5.646 5.646 0 0 1 1.407 1.688c.359.656.539 1.39.539 2.203a5.729 5.729 0 0 1-1.524-.188 13.408 13.408 0 0 1-1.336-.445c-.437-.172-.867-.32-1.289-.445a4.853 4.853 0 0 0-1.383-.188c-1.281 0-2.32.321-3.117.961a6.91 6.91 0 0 0-1.898 2.414 10.97 10.97 0 0 0-.961 3.117 20.422 20.422 0 0 0-.258 3.118c0 .156.008.453.023.89l.094 2.766c.016.437.039.734.071.89.343.75.679 1.329 1.007 1.735.328.406.68.711 1.055.914.375.203.781.328 1.219.375.437.047.953.07 1.547.07.812 0 1.523-.125 2.132-.375.61-.25 1.18-.547 1.711-.89a11.82 11.82 0 0 0 1.5-1.149 15.25 15.25 0 0 1 1.477-1.172 7.905 7.905 0 0 1 1.687-.89c.61-.235 1.305-.352 2.086-.352 0 1.531-.273 2.891-.82 4.078a8.82 8.82 0 0 1-2.297 3.047c-.984.844-2.14 1.492-3.469 1.945-1.328.454-2.773.68-4.335.68-1.469 0-2.79-.5-3.961-1.5-1.172-1-2.172-2.226-3-3.68a19.534 19.534 0 0 1-1.899-4.617c-.437-1.625-.656-3.062-.656-4.312ZM1615.8 301.283c0-1.937.454-3.742 1.36-5.414a14.223 14.223 0 0 1 3.586-4.312 17.576 17.576 0 0 1 5.015-2.836 16.17 16.17 0 0 1 5.649-1.031c1.062 0 2.008.343 2.836 1.031a9.068 9.068 0 0 1 2.086 2.508c.562.984.992 2.023 1.289 3.117.297 1.094.445 2.047.445 2.859 0 1.75-.422 3.446-1.266 5.086a15.977 15.977 0 0 1-3.281 4.36 17.013 17.013 0 0 1-4.547 3.07c-1.687.781-3.375 1.172-5.062 1.172-1.5 0-2.766-.258-3.797-.774-1.031-.515-1.859-1.203-2.484-2.062-.625-.859-1.086-1.875-1.383-3.047a15.122 15.122 0 0 1-.446-3.727Zm3.985.469c0 .813.07 1.524.211 2.133.14.609.39 1.133.75 1.57.359.438.836.774 1.429 1.008.594.235 1.329.352 2.204.352 1.156 0 2.312-.321 3.468-.961a12.615 12.615 0 0 0 3.117-2.438 12.667 12.667 0 0 0 2.227-3.258c.563-1.187.844-2.343.844-3.468 0-.5-.047-1.047-.141-1.641a6.673 6.673 0 0 0-.469-1.641 3.432 3.432 0 0 0-.937-1.265c-.406-.344-.922-.516-1.547-.516-.562 0-1.227.188-1.992.563-.766.375-1.563.859-2.391 1.453a23.83 23.83 0 0 0-2.437 2.015c-.797.75-1.524 1.5-2.18 2.25-.656.75-1.18 1.469-1.57 2.157-.391.687-.586 1.25-.586 1.687ZM1638.86 291.112c0-.782.133-1.391.398-1.829.266-.437.836-.656 1.711-.656l1.032.047c.218.969.445 2.024.679 3.164.235 1.141.508 2.289.821 3.445a50.915 50.915 0 0 0 1.054 3.422 15.216 15.216 0 0 0 1.43 3.047 5.286 5.286 0 0 0 1.219-2.109c.25-.813.437-1.633.562-2.461.125-.828.242-1.625.352-2.391.109-.765.336-1.422.679-1.968.344-.547.852-.946 1.524-1.196s1.601-.25 2.789 0c1.312 0 2.359.242 3.141.727a7.848 7.848 0 0 1 2.039 1.828c.578.734 1.14 1.516 1.687 2.344a9.338 9.338 0 0 0 2.086 2.226l.703-1.523c.281-.61.633-1.25 1.055-1.922.422-.672.875-1.344 1.359-2.016.485-.672.992-1.281 1.524-1.828a9.21 9.21 0 0 1 1.64-1.359c.563-.36 1.11-.539 1.641-.539 1.281 0 2.391.398 3.328 1.195.938.797 1.742 1.797 2.414 3 .672 1.203 1.227 2.547 1.664 4.031a41.294 41.294 0 0 1 1.031 4.289c.25 1.375.43 2.633.539 3.774.11 1.14.165 1.961.165 2.461 0 .406-.094.718-.282.937a1.73 1.73 0 0 1-.703.492c-.281.11-.586.18-.914.211a9.44 9.44 0 0 1-.914.047c-.062 0-.156-.008-.281-.023a5.722 5.722 0 0 1-.422-.071 17.62 17.62 0 0 1-.516-.14l-3.047-14.016c0-.094-.125-.273-.375-.539-.25-.265-.437-.43-.562-.492a.521.521 0 0 1-.234-.047.337.337 0 0 1-.141-.023.205.205 0 0 0-.094-.024c-.656 0-1.273.266-1.851.797-.579.531-1.118 1.203-1.618 2.016a22.07 22.07 0 0 0-1.406 2.718c-.437 1-.828 1.993-1.172 2.977-.343.984-.648 1.891-.914 2.719a61.346 61.346 0 0 1-.633 1.898c-.125.063-.375.117-.75.164a7.631 7.631 0 0 1-.75.071c-.875 0-1.546-.305-2.015-.914-.469-.61-.852-1.368-1.149-2.274a23.57 23.57 0 0 1-.75-2.976 23.544 23.544 0 0 0-.75-2.977c-.297-.906-.703-1.664-1.218-2.273-.516-.61-1.243-.915-2.18-.915-.344 0-.672.344-.984 1.032-.313.687-.594 1.554-.844 2.601a62.693 62.693 0 0 0-.703 3.375 72.816 72.816 0 0 0-.539 3.375 57.352 57.352 0 0 0-.305 2.649l-.094 1.078c-.062.094-.187.195-.375.305a28.24 28.24 0 0 0-.586.351 2.63 2.63 0 0 1-.609.281 1.71 1.71 0 0 1-.445.094c-.875 0-1.719-.398-2.532-1.195-.812-.797-1.554-1.828-2.226-3.094a31.54 31.54 0 0 1-1.828-4.195 50.747 50.747 0 0 1-1.383-4.5 51.03 51.03 0 0 1-.867-3.985c-.204-1.187-.305-2.093-.305-2.718Z" style="fill-rule:nonzero"/><g><path d="m1076.56 126.362 76.365-50.062a15.693 15.693 0 0 1 17.205 0l76.365 50.062a15.691 15.691 0 0 1 7.088 13.122v64.876a15.691 15.691 0 0 1-7.088 13.122l-76.365 50.061a15.689 15.689 0 0 1-17.205 0l-76.365-50.061a15.691 15.691 0 0 1-7.088-13.122v-64.876a15.691 15.691 0 0 1 7.088-13.122Z" style="fill:#0366d6;fill-rule:nonzero"/><path d="M1302.77 201.911c18.476 0 29.433-11.435 29.433-30.395 0-18.901-10.957-30.277-29.018-30.277h-20.964v60.672h20.549Zm-9.564-9.51v-41.652h9.357c12.317 0 18.743 6.873 18.743 20.767 0 13.953-6.426 20.885-19.068 20.885h-9.032ZM1361.21 202.8c10.6 0 17.885-5.185 19.779-13.094l-10.009-1.126c-1.451 3.851-5.004 5.865-9.623 5.865-6.929 0-11.517-4.562-11.607-12.353h31.683v-3.288c0-15.968-9.594-22.989-20.786-22.989-13.029 0-21.527 9.569-21.527 23.611 0 14.279 8.38 23.374 22.09 23.374Zm-11.43-27.937c.326-5.806 4.62-10.694 11.014-10.694 6.16 0 10.304 4.503 10.364 10.694h-21.378ZM1389.64 218.975h10.72v-24.233h.444c1.687 3.318 5.21 7.969 13.028 7.969 10.718 0 18.743-8.503 18.743-23.493 0-15.168-8.261-23.403-18.773-23.403-8.023 0-11.37 4.828-12.998 8.117h-.622v-7.525h-10.542v62.568Zm10.511-39.816c0-8.828 3.791-14.546 10.691-14.546 7.135 0 10.807 6.073 10.807 14.546 0 8.532-3.731 14.753-10.807 14.753-6.841 0-10.691-5.925-10.691-14.753ZM1461.83 202.8c10.601 0 17.885-5.185 19.78-13.094l-10.008-1.126c-1.452 3.851-5.006 5.865-9.625 5.865-6.928 0-11.517-4.562-11.607-12.353h31.683v-3.288c0-15.968-9.594-22.989-20.786-22.989-13.029 0-21.526 9.569-21.526 23.611 0 14.279 8.379 23.374 22.089 23.374Zm-11.429-27.937c.325-5.806 4.619-10.694 11.014-10.694 6.159 0 10.306 4.503 10.363 10.694h-21.377ZM1499.76 175.249c0-6.577 3.968-10.369 9.623-10.369 5.537 0 8.853 3.644 8.853 9.717v27.314h10.72v-28.973c.028-10.902-6.188-17.123-15.576-17.123-6.81 0-11.489 3.258-13.561 8.324h-.534v-7.732h-10.244v45.504h10.719v-26.662ZM1554.69 202.711c7.817 0 11.341-4.651 13.029-7.969h.65v7.169h10.542v-60.672h-10.748v22.693h-.444c-1.628-3.289-4.975-8.117-13-8.117-10.511 0-18.771 8.235-18.771 23.403 0 14.99 8.023 23.493 18.742 23.493Zm2.991-8.799c-7.078 0-10.807-6.221-10.807-14.753 0-8.473 3.672-14.546 10.807-14.546 6.898 0 10.688 5.718 10.688 14.546s-3.847 14.753-10.688 14.753ZM1600.35 202.829c7.138 0 11.401-3.347 13.355-7.169h.356v6.251h10.304v-30.455c0-12.027-9.801-15.641-18.477-15.641-9.563 0-16.907 4.266-19.276 12.56l10.009 1.423c1.066-3.111 4.085-5.777 9.326-5.777 4.976 0 7.7 2.548 7.7 7.021v.178c0 3.081-3.228 3.229-11.253 4.088-8.823.948-17.261 3.584-17.261 13.835 0 8.946 6.542 13.686 15.217 13.686Zm2.785-7.88c-4.472 0-7.67-2.044-7.67-5.984 0-4.118 3.584-5.836 8.379-6.518 2.815-.385 8.441-1.096 9.832-2.222v5.363c0 5.065-4.087 9.361-10.541 9.361ZM1632.06 201.911h10.542v-7.169h.622c1.687 3.318 5.21 7.969 13.028 7.969 10.718 0 18.743-8.503 18.743-23.493 0-15.168-8.261-23.403-18.773-23.403-8.023 0-11.37 4.828-12.998 8.117h-.444v-22.693h-10.72v60.672Zm10.511-22.752c0-8.828 3.791-14.546 10.691-14.546 7.135 0 10.807 6.073 10.807 14.546 0 8.532-3.731 14.753-10.807 14.753-6.841 0-10.691-5.925-10.691-14.753ZM1703.41 202.8c13.326 0 21.793-9.391 21.793-23.463 0-14.102-8.467-23.522-21.793-23.522-13.323 0-21.792 9.42-21.792 23.522 0 14.072 8.469 23.463 21.792 23.463Zm.06-8.592c-7.373 0-10.986-6.576-10.986-14.901 0-8.324 3.613-14.99 10.986-14.99 7.254 0 10.866 6.666 10.866 14.99 0 8.325-3.612 14.901-10.866 14.901ZM1754.32 156.407h-8.972v-10.902h-10.72v10.902h-6.454v8.295h6.454v25.3c-.057 8.561 6.16 12.768 14.214 12.531 3.05-.089 5.153-.681 6.307-1.067l-1.807-8.383c-.591.148-1.806.414-3.138.414-2.694 0-4.856-.948-4.856-5.273v-23.522h8.972v-8.295Z" style="fill-rule:nonzero"/><path d="M1167.66 141.239v-6.137h-10.229a2.045 2.045 0 0 1-2.045-2.045v-14.32c0-1.13.915-2.046 2.045-2.046h14.32c1.13 0 2.046.916 2.046 2.046v22.502h30.685a6.137 6.137 0 0 1 6.137 6.137v24.548h4.091c1.13 0 2.046.916 2.046 2.046v20.457c0 1.13-.916 2.045-2.046 2.045h-4.091v12.274a6.137 6.137 0 0 1-6.137 6.137h-85.919a6.137 6.137 0 0 1-6.137-6.137v-12.274h-4.091a2.045 2.045 0 0 1-2.046-2.045V173.97c0-1.13.916-2.046 2.046-2.046h4.091v-24.548a6.137 6.137 0 0 1 6.137-6.137h49.097Z" style="fill:#fff;fill-rule:nonzero"/><path d="M1178.19 189.606a2.474 2.474 0 0 0 3.5 0l12.865-12.865a2.474 2.474 0 0 0 0-3.5l-2.636-2.637a2.475 2.475 0 0 0-3.501 0l-8.478 8.478-3.364-3.364a2.476 2.476 0 0 0-3.5 0l-2.637 2.637a2.476 2.476 0 0 0 0 3.5l7.751 7.751ZM1137.27 189.606a2.475 2.475 0 0 0 3.501 0l12.865-12.865a2.476 2.476 0 0 0 0-3.5l-2.637-2.637a2.474 2.474 0 0 0-3.5 0l-8.478 8.478-3.364-3.364a2.477 2.477 0 0 0-3.501 0l-2.636 2.637a2.474 2.474 0 0 0 0 3.5l7.75 7.751Z" style="fill:#0366d6;fill-rule:nonzero"/></g><g><path d="M459.821 307.424c0-1.812.453-3.422 1.36-4.828a14.804 14.804 0 0 1 3.375-3.68 22.943 22.943 0 0 1 4.359-2.672 51.299 51.299 0 0 1 4.359-1.828c1.344-.484 2.469-.875 3.375-1.172.907-.296 1.36-.539 1.36-.726a30.99 30.99 0 0 0-.164-3.211c-.11-1.047-.227-2.102-.352-3.164a257.117 257.117 0 0 1-.352-3.164 30.087 30.087 0 0 1-.164-3.117v-3.047c1.282-.469 2.196-.422 2.743.14.546.563.632 1.532.257 2.907.125.687.297 1.765.516 3.234.219 1.469.461 3.125.727 4.969.265 1.843.546 3.781.843 5.812.297 2.031.578 3.977.844 5.836.266 1.86.492 3.516.68 4.969.187 1.453.328 2.539.422 3.258.031.156.062.461.093.914.032.453.055.937.071 1.453.015.516.031.992.047 1.43.015.437.023.75.023.937-1.187 0-1.992-.047-2.414-.141-.422-.093-.688-.281-.797-.562-.109-.281-.164-.688-.164-1.219 0-.531-.156-1.265-.469-2.203-1.156.906-2.25 1.656-3.281 2.25a18.227 18.227 0 0 1-3.094 1.43c-1.031.359-2.07.609-3.117.75-1.047.14-2.164.211-3.351.211-1 0-1.961-.086-2.883-.258-.922-.172-1.742-.477-2.461-.914a4.997 4.997 0 0 1-1.735-1.781c-.437-.75-.656-1.688-.656-2.813Zm4.078-.984c0 .5.11.906.328 1.218.219.313.5.579.844.797.344.219.711.368 1.102.446.39.078.773.117 1.148.117 1.094 0 2.274-.211 3.539-.633a13.319 13.319 0 0 0 3.516-1.781 10.371 10.371 0 0 0 2.672-2.742 6.163 6.163 0 0 0 1.054-3.469c0-.969-.171-1.641-.515-2.016s-1-.562-1.969-.562c-1 0-2.164.234-3.492.703a19.016 19.016 0 0 0-3.844 1.875c-1.234.781-2.273 1.695-3.117 2.742-.844 1.047-1.266 2.148-1.266 3.305ZM487.009 299.924c0-1.687.203-3.375.609-5.062.406-1.688 1.055-3.204 1.945-4.547a10.576 10.576 0 0 1 3.469-3.282c1.422-.843 3.149-1.265 5.18-1.265 1.156 0 2.172.211 3.047.633a6.727 6.727 0 0 1 2.203 1.664 6.86 6.86 0 0 1 1.336 2.414c.297.922.445 1.883.445 2.883 0 1.593-.367 3.14-1.102 4.64a13.306 13.306 0 0 1-2.953 3.961 12.42 12.42 0 0 1-4.242 2.578 9.107 9.107 0 0 1-4.875.399c.031.906.336 1.633.914 2.179a5.72 5.72 0 0 0 2.086 1.243c.813.281 1.656.461 2.531.539.875.078 1.657.117 2.344.117.719 0 1.391-.063 2.016-.188s1.25-.265 1.875-.422a37.6 37.6 0 0 1 1.898-.421 10.644 10.644 0 0 1 2.039-.188c.282 0 .563.016.844.047s.547.102.797.211.453.281.609.516c.157.234.235.523.235.867 0 .593-.219 1.086-.657 1.476-.437.391-.992.727-1.664 1.008-.672.281-1.414.492-2.226.633-.813.141-1.602.25-2.367.328a27.8 27.8 0 0 1-2.11.141c-.64.015-1.117.023-1.429.023-2 0-3.797-.32-5.391-.961-1.594-.64-2.938-1.531-4.031-2.672-1.094-1.14-1.93-2.515-2.508-4.125-.578-1.609-.867-3.398-.867-5.367Zm4.968-3.047c0 1.094.149 1.891.446 2.391.297.5 1.023.75 2.179.75.813 0 1.61-.149 2.391-.445a7.479 7.479 0 0 0 2.133-1.243 6.06 6.06 0 0 0 1.523-1.875c.375-.718.563-1.5.563-2.343 0-.469-.039-.954-.117-1.454-.079-.5-.243-.96-.493-1.382a3.203 3.203 0 0 0-.961-1.032c-.39-.265-.898-.398-1.523-.398-.937 0-1.789.211-2.555.633a6.387 6.387 0 0 0-1.945 1.64 7.498 7.498 0 0 0-1.219 2.25 7.763 7.763 0 0 0-.422 2.508ZM513.165 295.658c0-3.031.703-5.281 2.109-6.75 1.407-1.468 3.563-2.203 6.469-2.203 1.188 0 2.414.11 3.68.328 1.265.219 2.429.602 3.492 1.149a7.033 7.033 0 0 1 2.601 2.273c.672.969 1.008 2.219 1.008 3.75 0 1.688-.367 3.274-1.101 4.758a20.173 20.173 0 0 1-2.766 4.172 30.637 30.637 0 0 1-3.656 3.609 296.886 296.886 0 0 0-3.727 3.164c-.062.125-.117.383-.164.774a8.21 8.21 0 0 0-.07.773c0 1.032.305 2.071.914 3.118a61.69 61.69 0 0 0 1.992 3.187 34.113 34.113 0 0 1 1.969 3.352 7.799 7.799 0 0 1 .891 3.609c0 .75-.157 1.195-.469 1.336-.313.141-.969.211-1.969.211-.625-.25-1.242-.836-1.852-1.758-.609-.922-1.218-2.055-1.828-3.398a52.803 52.803 0 0 1-1.781-4.524 123.081 123.081 0 0 1-1.641-5.109 196.445 196.445 0 0 1-2.648-9.867c-.344-1.438-.648-2.68-.914-3.727a70.05 70.05 0 0 1-.539-2.227Zm3.984.422c0 .469.032 1.149.094 2.039.063.891.195 1.774.398 2.649.204.875.508 1.633.915 2.273.406.641.968.961 1.687.961.969 0 1.945-.328 2.93-.984a10.969 10.969 0 0 0 2.625-2.485c.765-1 1.39-2.07 1.875-3.21.484-1.141.726-2.18.726-3.118 0-.781-.187-1.398-.562-1.851a3.975 3.975 0 0 0-1.43-1.078 6.13 6.13 0 0 0-1.851-.516 15.93 15.93 0 0 0-1.875-.117c-1.782 0-3.149.476-4.102 1.43-.953.953-1.43 2.289-1.43 4.007ZM554.368 317.315c-.656-1.219-1.383-2.742-2.18-4.571a697.94 697.94 0 0 1-2.461-5.718 130.92 130.92 0 0 0-2.648-5.836c-.922-1.907-1.852-3.563-2.789-4.969-.375-.281-.891-.453-1.547-.516a17.73 17.73 0 0 0-2.062-.07c-.719.016-1.43 0-2.133-.047-.703-.047-1.313-.211-1.828-.492-.516-.281-.899-.719-1.149-1.313-.25-.593-.297-1.453-.14-2.578h7.875c.156-1.75.421-3.484.796-5.203a29.528 29.528 0 0 1 1.524-4.922 24.162 24.162 0 0 1 2.32-4.359c.906-1.344 2-2.5 3.281-3.469 1.282-.969 2.758-1.734 4.43-2.297 1.672-.562 3.57-.843 5.695-.843.75 0 1.5.179 2.25.539.75.359 1.422.836 2.016 1.429a7.297 7.297 0 0 1 1.43 2.016c.359.75.539 1.5.539 2.25-.594 0-1.125-.117-1.594-.352a11.88 11.88 0 0 1-1.359-.796 15.13 15.13 0 0 0-1.407-.844 3.534 3.534 0 0 0-1.687-.399c-1.875 0-3.617.375-5.227 1.125a14.014 14.014 0 0 0-4.218 3 13.883 13.883 0 0 0-2.836 4.36 13.547 13.547 0 0 0-1.032 5.25c0 .125.008.351.024.679l.047 2.133c.015.344.023.578.023.703 1.156.375 2.453.657 3.891.844 1.437.188 2.883.305 4.336.352 1.453.047 2.859.039 4.218-.024 1.36-.062 2.571-.14 3.633-.234l.516.515c.25.25.391.438.422.563 0 .094.015.156.047.187l.093.282c0 .656-.343 1.172-1.031 1.547-.687.375-1.562.648-2.625.82a31.735 31.735 0 0 1-3.539.351c-1.297.063-2.547.118-3.75.165a75.182 75.182 0 0 0-3.234.187c-.953.078-1.617.227-1.992.445.406 1.875 1.132 3.688 2.179 5.438 1.047 1.75 2.117 3.5 3.211 5.25a51.716 51.716 0 0 1 2.906 5.297c.844 1.781 1.266 3.609 1.266 5.484-.125 0-.414.008-.867.024a9.05 9.05 0 0 1-1.43-.071 4.984 4.984 0 0 1-1.43-.398c-.453-.203-.71-.508-.773-.914ZM568.384 293.83c0-.187.007-.523.023-1.007l.047-3c.016-.454.023-.774.023-.961.219-.375.477-.743.774-1.102.297-.359.609-.609.937-.75.328-.141.688-.164 1.078-.07.391.093.79.406 1.196.937v.985c-.031.156-.094.523-.188 1.101a96.444 96.444 0 0 1-.328 1.899c-.125.687-.242 1.32-.351 1.898-.11.578-.164.945-.164 1.102 0 .593.062 1.336.187 2.226.125.891.305 1.82.539 2.789.234.969.531 1.938.891 2.906.359.969.789 1.836 1.289 2.602.5.766 1.054 1.398 1.664 1.898.609.5 1.32.75 2.133.75 1 0 1.882-.265 2.648-.796a7.607 7.607 0 0 0 1.992-2.063 12.114 12.114 0 0 0 1.383-2.859c.359-1.063.649-2.133.867-3.211.219-1.078.375-2.117.469-3.117.094-1 .141-1.875.141-2.625s-.055-1.461-.164-2.133a28.524 28.524 0 0 0-.399-1.992 30.703 30.703 0 0 1-.398-1.946c-.11-.64-.164-1.289-.164-1.945 0-.594.211-1.016.632-1.266.422-.25.899-.375 1.43-.375.656 0 1.188.196 1.594.586.406.391.726.883.961 1.477.234.594.39 1.273.469 2.039.078.766.117 1.523.117 2.273 0 .75-.016 1.461-.047 2.133a36.935 36.935 0 0 0-.047 1.617c0 1.063-.078 2.266-.234 3.61a27.85 27.85 0 0 1-.821 4.148 34.071 34.071 0 0 1-1.453 4.195c-.578 1.375-1.281 2.602-2.109 3.68-.828 1.078-1.781 1.945-2.86 2.602-1.078.656-2.289.984-3.632.984-1.407 0-2.641-.336-3.703-1.008-1.063-.672-1.961-1.562-2.696-2.672-.734-1.109-1.351-2.367-1.851-3.773a28.268 28.268 0 0 1-1.149-4.219 39.686 39.686 0 0 1-.562-4.101 42.497 42.497 0 0 1-.164-3.446ZM598.056 309.158c1.406 0 2.109.735 2.109 2.204-.344.906-.781 1.507-1.313 1.804-.531.297-1.023.407-1.476.328-.453-.078-.86-.304-1.219-.679-.359-.375-.555-.797-.586-1.266-.031-.469.141-.93.516-1.383.375-.453 1.031-.789 1.969-1.008ZM602.181 298.846c0-1.313.289-2.688.867-4.125a14.709 14.709 0 0 1 2.32-3.914 13.58 13.58 0 0 1 3.352-2.93c1.265-.781 2.601-1.172 4.007-1.172.719 0 1.438.125 2.157.375.718.25 1.367.61 1.945 1.078a5.64 5.64 0 0 1 1.406 1.688c.36.656.539 1.391.539 2.203-.562 0-1.07-.062-1.523-.187a13.329 13.329 0 0 1-1.336-.446c-.438-.172-.867-.32-1.289-.445a4.853 4.853 0 0 0-1.383-.188c-1.281 0-2.32.321-3.117.961a6.921 6.921 0 0 0-1.899 2.414 10.998 10.998 0 0 0-.961 3.118 20.52 20.52 0 0 0-.257 3.117c0 .156.007.453.023.89l.094 2.766c.015.438.039.734.07.891.344.75.68 1.328 1.008 1.734.328.406.68.711 1.055.914.375.203.781.328 1.218.375.438.047.954.07 1.547.07.813 0 1.524-.125 2.133-.375s1.18-.546 1.711-.89a11.964 11.964 0 0 0 1.5-1.149 15.24 15.24 0 0 1 1.477-1.171 7.84 7.84 0 0 1 1.687-.891c.609-.234 1.305-.352 2.086-.352 0 1.532-.273 2.891-.82 4.078a8.824 8.824 0 0 1-2.297 3.047c-.985.844-2.141 1.493-3.469 1.946-1.328.453-2.773.679-4.336.679-1.469 0-2.789-.5-3.961-1.5-1.172-1-2.172-2.226-3-3.679a19.539 19.539 0 0 1-1.898-4.618c-.438-1.625-.656-3.062-.656-4.312ZM625.243 303.44c0-1.938.453-3.742 1.359-5.414a14.244 14.244 0 0 1 3.586-4.313 17.619 17.619 0 0 1 5.016-2.836 16.184 16.184 0 0 1 5.648-1.031c1.063 0 2.008.344 2.836 1.031a9.08 9.08 0 0 1 2.086 2.508c.563.984.992 2.023 1.289 3.117.297 1.094.446 2.047.446 2.86 0 1.75-.422 3.445-1.266 5.086a16.008 16.008 0 0 1-3.281 4.359 17.006 17.006 0 0 1-4.547 3.07c-1.688.781-3.375 1.172-5.063 1.172-1.5 0-2.765-.258-3.796-.773-1.032-.516-1.86-1.203-2.485-2.063-.625-.859-1.086-1.875-1.383-3.047a15.12 15.12 0 0 1-.445-3.726Zm3.984.468c0 .813.071 1.524.211 2.133.141.61.391 1.133.75 1.571.36.437.836.773 1.43 1.007.594.235 1.328.352 2.203.352 1.156 0 2.313-.32 3.469-.961a12.671 12.671 0 0 0 3.117-2.437 12.727 12.727 0 0 0 2.227-3.258c.562-1.188.843-2.344.843-3.469 0-.5-.046-1.047-.14-1.641a6.678 6.678 0 0 0-.469-1.64 3.447 3.447 0 0 0-.937-1.266c-.407-.344-.922-.516-1.547-.516-.563 0-1.227.188-1.993.563-.765.375-1.562.859-2.39 1.453a23.851 23.851 0 0 0-2.438 2.016c-.797.75-1.523 1.5-2.179 2.25-.657.75-1.18 1.468-1.571 2.156-.39.687-.586 1.25-.586 1.687ZM648.306 293.268c0-.781.132-1.391.398-1.828.266-.438.836-.657 1.711-.657l1.031.047c.219.969.445 2.024.68 3.164.234 1.141.508 2.289.82 3.446a51.101 51.101 0 0 0 1.055 3.422c.39 1.125.867 2.14 1.43 3.046a5.27 5.27 0 0 0 1.218-2.109c.25-.812.438-1.633.563-2.461.125-.828.242-1.625.351-2.39.11-.766.336-1.422.68-1.969.344-.547.852-.946 1.523-1.196.672-.25 1.602-.25 2.79 0 1.312 0 2.359.243 3.14.727a7.832 7.832 0 0 1 2.039 1.828 34.99 34.99 0 0 1 1.688 2.344 9.338 9.338 0 0 0 2.086 2.226l.703-1.523a17.31 17.31 0 0 1 1.054-1.922 37.33 37.33 0 0 1 1.36-2.015c.484-.672.992-1.282 1.523-1.829.532-.546 1.078-1 1.641-1.359.562-.359 1.109-.539 1.641-.539 1.281 0 2.39.398 3.328 1.195.937.797 1.742 1.797 2.414 3 .672 1.203 1.226 2.547 1.664 4.032a41.489 41.489 0 0 1 1.031 4.289c.25 1.375.43 2.632.539 3.773.109 1.141.164 1.961.164 2.461 0 .406-.094.719-.281.937a1.75 1.75 0 0 1-.703.493 3.44 3.44 0 0 1-.914.211 9.752 9.752 0 0 1-.914.046 2.38 2.38 0 0 1-.282-.023 6.232 6.232 0 0 1-.421-.07 18.25 18.25 0 0 1-.516-.141l-3.047-14.016c0-.093-.125-.273-.375-.539-.25-.265-.437-.429-.562-.492a.515.515 0 0 1-.235-.047.32.32 0 0 1-.14-.023.208.208 0 0 0-.094-.024c-.656 0-1.274.266-1.852.797-.578.532-1.117 1.203-1.617 2.016-.5.812-.969 1.719-1.406 2.719a41.8 41.8 0 0 0-1.172 2.976c-.344.985-.649 1.891-.914 2.719a67.354 67.354 0 0 1-.633 1.898c-.125.063-.375.118-.75.165-.375.046-.625.07-.75.07-.875 0-1.547-.305-2.016-.914-.468-.61-.851-1.367-1.148-2.274a23.57 23.57 0 0 1-.75-2.976 23.587 23.587 0 0 0-.75-2.977c-.297-.906-.703-1.664-1.219-2.273-.515-.61-1.242-.914-2.179-.914-.344 0-.672.343-.985 1.031-.312.687-.594 1.555-.844 2.602a63.263 63.263 0 0 0-.703 3.375 75.611 75.611 0 0 0-.539 3.375 58.403 58.403 0 0 0-.304 2.648l-.094 1.078c-.063.094-.188.195-.375.305a25.83 25.83 0 0 0-.586.351 2.664 2.664 0 0 1-.61.282 1.733 1.733 0 0 1-.445.093c-.875 0-1.719-.398-2.531-1.195-.813-.797-1.555-1.828-2.227-3.094a31.614 31.614 0 0 1-1.828-4.195 50.544 50.544 0 0 1-1.383-4.5 51.112 51.112 0 0 1-.867-3.984c-.203-1.188-.304-2.094-.304-2.719Z" style="fill-rule:nonzero"/></g><g id="Artboard"><g id="depfu-left-bw"><g id="Group-5"><path id="Fill-1" d="m292.936 164.786-.018 22.816c-.472 4.643 1.418 9.485 5.688 12.57l39.178 28.296 41.185 27.918a14.372 14.372 0 0 0 16.222-.096l41.951-29.167c15.634-10.87 22.76-26.091 21.438-40.936v-18.793c-1.117 12.523-8.251 24.787-21.438 33.956l-41.951 29.167c-4.85 3.372-11.331 3.41-16.222.096l-41.185-27.918-39.178-28.297c-3.366-2.431-5.253-5.955-5.67-9.612" style="fill:#00f"/><path id="Fill-3" d="m292.936 113.594-.018 22.818c-.472 4.643 1.418 9.484 5.688 12.568l39.178 28.297 41.185 27.917c4.891 3.315 11.372 3.277 16.222-.095l41.951-29.167c15.634-10.871 22.76-26.092 21.438-40.936v-18.793c-1.117 12.523-8.251 24.787-21.438 33.956l-41.951 29.167c-4.85 3.373-11.331 3.411-16.222.096l-41.185-27.917-39.178-28.297c-3.366-2.432-5.253-5.956-5.67-9.614" style="fill:#00f"/><path id="Fill-4" d="m420.406 97.622-7.621-5.2c-17.359-10.182-35.266-9.683-53.455.221l-26.773 18.421c-.937.646-.956 1.728-.013 2.399l18.583 13.244 12.053-8.292c-.162.088-.324.164-.486.253l1.229-.764-.743.511c18.055-9.832 35.834-10.394 53.075-.441l-.402-.273.402.273.379.22 7.62 5.201c.282.19.542.387.811.58 8.473-8.444 6.927-18.502-4.659-26.353" style="fill:#00f"/></g><path id="Fill-6" d="M523.469 188.435c7.785 0 13.643-2.02 17.574-6.06 3.928-4.038 5.894-10.944 5.894-20.714 0-9.768-1.966-16.654-5.894-20.658-3.931-4.003-9.789-6.005-17.574-6.005h-12.891v53.437h12.891Zm-26.058 9.696c-.625-.662-.936-1.653-.936-2.975v-66.878c0-1.396.311-2.425.936-3.085.623-.662 1.67-.992 3.14-.992h22.036c12.413 0 21.906 2.976 28.482 8.924 6.573 5.949 9.861 15.463 9.861 28.536 0 24.975-12.781 37.462-38.343 37.462h-22.036c-1.47 0-2.517-.33-3.14-.992Z" style="fill:#00f"/><path id="Fill-7" d="M610.364 168.162c0-4.554-1.267-8.115-3.802-10.686-2.534-2.572-6.335-3.858-11.404-3.858-5.142 0-9.089 1.324-11.843 3.967-2.755 2.645-4.132 6.171-4.132 10.577h31.181Zm-29.308 29.693c-4.628-1.944-8.319-4.957-11.074-9.035-2.754-4.076-4.131-9.162-4.131-15.259 0-9.475 2.534-16.674 7.602-21.594 5.069-4.921 12.266-7.384 21.596-7.384 9.254 0 16.25 2.389 20.988 7.163 4.738 4.776 7.107 11.678 7.107 20.714 0 2.572-1.176 3.856-3.525 3.856h-40.436c0 4.847 1.688 8.577 5.067 11.183 3.378 2.607 8.08 3.91 14.104 3.91 5.801 0 11.018-1.321 15.645-3.966.513-.292.917-.439 1.212-.439.513 0 .918.33 1.212.991l2.644 4.737c.22.44.331.846.331 1.212 0 .514-.331.991-.992 1.433a35.136 35.136 0 0 1-9.751 4.075c-3.49.883-7.511 1.324-12.064 1.324-5.73 0-10.908-.975-15.535-2.921Z" style="fill:#00f"/><path id="Fill-8" d="M669.605 185.928c2.57-3.157 3.856-7.712 3.856-13.663 0-6.389-1.506-10.924-4.517-13.607-3.013-2.679-7.64-4.02-13.883-4.02-4.547 0-8.137.673-10.769 2.02a.258.258 0 0 0-.139.232v32.82c0 .131.097.24.228.249 1.498.108 10.001.707 13.545.707 5.214 0 9.107-1.58 11.679-4.738Zm-38.398 34.375c-.625-.661-.936-1.652-.936-2.974v-65.752c0-.085.039-.163.108-.211 2.778-1.949 6.469-3.578 11.075-4.882 4.664-1.322 9.346-1.984 14.048-1.984 21.301 0 31.952 9.404 31.952 28.207 0 8.667-2.333 15.499-6.996 20.493-4.666 4.996-11.074 7.492-19.227 7.492-6.686 0-15.19-.716-16.806-.858a.25.25 0 0 0-.272.25v17.245c0 1.395-.313 2.404-.936 3.03-.625.622-1.707.937-3.251.937h-5.619c-1.469 0-2.517-.331-3.14-.993Z" style="fill:#00f"/><path id="Fill-9" d="M698.119 198.131c-.625-.662-.936-1.653-.936-2.975v-38.562h-5.178c-1.471 0-2.479-.313-3.031-.937-.55-.624-.826-1.634-.826-3.031v-2.534c0-1.393.276-2.385.826-2.975.552-.586 1.56-.88 3.031-.88h5.178v-4.076c0-6.171 1.653-10.981 4.957-14.434 3.307-3.453 8.264-5.179 14.875-5.179 6.684 0 11.936 1.433 15.756 4.297.66.441.992.955.992 1.543 0 .44-.149.845-.441 1.211l-2.755 4.628c-.44.661-.845.992-1.212.992-.22 0-.625-.147-1.212-.441-1.47-.807-2.809-1.413-4.021-1.819-1.213-.401-2.627-.606-4.242-.606-3.159 0-5.382.772-6.666 2.316-1.286 1.541-1.928 3.965-1.928 7.271v4.297h13.552c1.469 0 2.496.294 3.084.88.588.59.882 1.582.882 2.975v2.534c0 1.397-.294 2.407-.882 3.031-.588.624-1.615.937-3.084.937h-13.552v38.562c0 1.322-.314 2.313-.936 2.975-.626.662-1.709.992-3.251.992h-5.84c-1.47 0-2.516-.33-3.14-.992" style="fill:#00f"/><path id="Fill-10" d="M760.5 190.75c-3.599 0-6.318-.827-8.153-2.48-1.836-1.652-2.755-4.241-2.755-7.767v-30.19c0-1.395-.329-2.424-.991-3.085-.661-.661-1.727-.991-3.195-.991h-5.84c-1.47 0-2.516.33-3.14.991-.624.661-.936 1.69-.936 3.085v30.52c0 6.61 2.362 11.087 5.509 14.929 4.103 5.009 12.768 5.009 18.791 5.009h3.687c6.024 0 14.688 0 18.792-5.009 3.146-3.842 5.508-8.319 5.508-14.929v-30.52c0-1.395-.311-2.424-.936-3.085-.623-.661-1.67-.991-3.14-.991h-5.84c-1.467 0-2.534.33-3.194.991-.662.661-.992 1.69-.992 3.085v30.19c0 3.526-.919 6.115-2.755 7.767-1.835 1.653-4.553 2.48-8.152 2.48" style="fill:#00f"/></g></g></svg>