<svg fill="currentColor" viewBox="0 0 2048 400" version="1.1" xmlns="http://www.w3.org/2000/svg"
     xml:space="preserve" xmlns:serif="http://www.serif.com/"
     style="fill-rule:evenodd;clip-rule:evenodd;stroke-miterlimit:10;"><g><g><path d="M215.026,312.405c0,-0.531 0.117,-1.015 0.352,-1.453c0.234,-0.437 0.648,-0.656 1.242,-0.656c0.031,0 0.078,0.008 0.141,0.023c0.062,0.016 0.125,0.024 0.187,0.024l0.188,-0c0.093,0.062 0.273,0.219 0.539,0.469c0.265,0.25 0.429,0.437 0.492,0.562c0.094,0.188 0.289,0.594 0.586,1.219c0.297,0.625 0.656,1.351 1.078,2.18c0.422,0.828 0.859,1.703 1.312,2.625c0.453,0.921 0.891,1.804 1.313,2.648c0.422,0.844 0.781,1.57 1.078,2.18c0.297,0.609 0.508,1.008 0.633,1.195c0.031,0.094 0.179,0.273 0.445,0.539c0.266,0.266 0.461,0.43 0.586,0.492c0.25,-0.437 0.5,-1.093 0.75,-1.968c0.25,-0.875 0.508,-1.836 0.773,-2.883c0.266,-1.047 0.54,-2.125 0.821,-3.235c0.281,-1.109 0.601,-2.109 0.961,-3c0.359,-0.89 0.758,-1.625 1.195,-2.203c0.438,-0.578 0.938,-0.867 1.5,-0.867c0.813,0 1.586,0.313 2.32,0.938c0.735,0.625 1.438,1.437 2.11,2.437c0.672,1 1.312,2.117 1.922,3.352c0.609,1.234 1.187,2.453 1.734,3.656c0.547,1.203 1.062,2.312 1.547,3.328c0.484,1.016 0.961,1.82 1.43,2.414c0.375,-0.125 0.687,-0.437 0.937,-0.937c0.25,-0.5 0.445,-1.024 0.586,-1.571c0.141,-0.547 0.242,-1.062 0.305,-1.547c0.062,-0.484 0.109,-0.804 0.14,-0.961c0.032,-0.343 0.078,-0.882 0.141,-1.617c0.062,-0.734 0.133,-1.57 0.211,-2.508c0.078,-0.937 0.148,-1.906 0.211,-2.906c0.062,-1 0.133,-1.969 0.211,-2.906c0.078,-0.938 0.14,-1.774 0.187,-2.508c0.047,-0.734 0.071,-1.258 0.071,-1.57c0.062,-0 0.218,-0.024 0.468,-0.071c0.25,-0.046 0.422,-0.07 0.516,-0.07c0.437,0 0.828,0.047 1.172,0.141c0.344,0.094 0.609,0.422 0.797,0.984c-0,0.219 0.007,0.61 0.023,1.172l0.094,3.633c0.015,0.578 0.023,0.976 0.023,1.195c0,0.5 0.008,1.274 0.024,2.32c0.015,1.047 -0,2.211 -0.047,3.493c-0.047,1.281 -0.149,2.586 -0.305,3.914c-0.156,1.328 -0.398,2.547 -0.726,3.656c-0.329,1.109 -0.774,2.016 -1.336,2.719c-0.563,0.703 -1.266,1.054 -2.11,1.054c-0.968,0 -1.875,-0.234 -2.718,-0.703c-0.844,-0.468 -1.633,-1.093 -2.368,-1.875c-0.734,-0.781 -1.429,-1.648 -2.086,-2.601c-0.656,-0.953 -1.257,-1.922 -1.804,-2.907c-0.547,-0.984 -1.047,-1.921 -1.5,-2.812c-0.453,-0.891 -0.852,-1.648 -1.196,-2.273c-0.25,0.562 -0.476,1.265 -0.679,2.109c-0.203,0.844 -0.43,1.758 -0.68,2.742c-0.25,0.984 -0.531,1.969 -0.844,2.953c-0.312,0.985 -0.664,1.875 -1.054,2.672c-0.391,0.797 -0.844,1.445 -1.36,1.945c-0.515,0.5 -1.101,0.75 -1.758,0.75c-0.312,0 -0.593,0.008 -0.843,0.024c-0.25,0.015 -0.485,-0 -0.703,-0.047c-0.219,-0.047 -0.422,-0.148 -0.61,-0.305c-0.187,-0.156 -0.359,-0.406 -0.515,-0.75l-8.016,-17.109c-0,-0.031 -0.016,-0.164 -0.047,-0.399c-0.031,-0.234 -0.047,-0.414 -0.047,-0.539Z" style="fill-rule:nonzero;"/><path
        d="M250.229,312.405c0,-0.531 0.117,-1.015 0.352,-1.453c0.234,-0.437 0.648,-0.656 1.242,-0.656c0.031,0 0.078,0.008 0.141,0.023c0.062,0.016 0.125,0.024 0.187,0.024l0.188,-0c0.093,0.062 0.273,0.219 0.539,0.469c0.265,0.25 0.429,0.437 0.492,0.562c0.094,0.188 0.289,0.594 0.586,1.219c0.297,0.625 0.656,1.351 1.078,2.18c0.422,0.828 0.859,1.703 1.312,2.625c0.454,0.921 0.891,1.804 1.313,2.648c0.422,0.844 0.781,1.57 1.078,2.18c0.297,0.609 0.508,1.008 0.633,1.195c0.031,0.094 0.18,0.273 0.445,0.539c0.266,0.266 0.461,0.43 0.586,0.492c0.25,-0.437 0.5,-1.093 0.75,-1.968c0.25,-0.875 0.508,-1.836 0.774,-2.883c0.265,-1.047 0.539,-2.125 0.82,-3.235c0.281,-1.109 0.601,-2.109 0.961,-3c0.359,-0.89 0.758,-1.625 1.195,-2.203c0.438,-0.578 0.938,-0.867 1.5,-0.867c0.813,0 1.586,0.313 2.32,0.938c0.735,0.625 1.438,1.437 2.11,2.437c0.672,1 1.312,2.117 1.922,3.352c0.609,1.234 1.187,2.453 1.734,3.656c0.547,1.203 1.063,2.312 1.547,3.328c0.484,1.016 0.961,1.82 1.43,2.414c0.375,-0.125 0.687,-0.437 0.937,-0.937c0.25,-0.5 0.445,-1.024 0.586,-1.571c0.141,-0.547 0.242,-1.062 0.305,-1.547c0.062,-0.484 0.109,-0.804 0.14,-0.961c0.032,-0.343 0.079,-0.882 0.141,-1.617c0.063,-0.734 0.133,-1.57 0.211,-2.508c0.078,-0.937 0.148,-1.906 0.211,-2.906c0.062,-1 0.133,-1.969 0.211,-2.906c0.078,-0.938 0.14,-1.774 0.187,-2.508c0.047,-0.734 0.071,-1.258 0.071,-1.57c0.062,-0 0.218,-0.024 0.468,-0.071c0.25,-0.046 0.422,-0.07 0.516,-0.07c0.438,0 0.828,0.047 1.172,0.141c0.344,0.094 0.609,0.422 0.797,0.984c-0,0.219 0.008,0.61 0.023,1.172l0.094,3.633c0.016,0.578 0.023,0.976 0.023,1.195c0,0.5 0.008,1.274 0.024,2.32c0.015,1.047 -0,2.211 -0.047,3.493c-0.047,1.281 -0.148,2.586 -0.305,3.914c-0.156,1.328 -0.398,2.547 -0.726,3.656c-0.328,1.109 -0.774,2.016 -1.336,2.719c-0.563,0.703 -1.266,1.054 -2.11,1.054c-0.968,0 -1.875,-0.234 -2.718,-0.703c-0.844,-0.468 -1.633,-1.093 -2.368,-1.875c-0.734,-0.781 -1.429,-1.648 -2.085,-2.601c-0.657,-0.953 -1.258,-1.922 -1.805,-2.907c-0.547,-0.984 -1.047,-1.921 -1.5,-2.812c-0.453,-0.891 -0.852,-1.648 -1.195,-2.273c-0.25,0.562 -0.477,1.265 -0.68,2.109c-0.203,0.844 -0.43,1.758 -0.68,2.742c-0.25,0.984 -0.531,1.969 -0.844,2.953c-0.312,0.985 -0.664,1.875 -1.054,2.672c-0.391,0.797 -0.844,1.445 -1.36,1.945c-0.515,0.5 -1.101,0.75 -1.757,0.75c-0.313,0 -0.594,0.008 -0.844,0.024c-0.25,0.015 -0.485,-0 -0.703,-0.047c-0.219,-0.047 -0.422,-0.148 -0.61,-0.305c-0.187,-0.156 -0.359,-0.406 -0.515,-0.75l-8.016,-17.109c0,-0.031 -0.016,-0.164 -0.047,-0.399c-0.031,-0.234 -0.047,-0.414 -0.047,-0.539Z"
        style="fill-rule:nonzero;"/><path
        d="M285.432,312.405c0,-0.531 0.118,-1.015 0.352,-1.453c0.234,-0.437 0.648,-0.656 1.242,-0.656c0.031,0 0.078,0.008 0.141,0.023c0.062,0.016 0.125,0.024 0.187,0.024l0.188,-0c0.094,0.062 0.273,0.219 0.539,0.469c0.265,0.25 0.43,0.437 0.492,0.562c0.094,0.188 0.289,0.594 0.586,1.219c0.297,0.625 0.656,1.351 1.078,2.18c0.422,0.828 0.859,1.703 1.313,2.625c0.453,0.921 0.89,1.804 1.312,2.648c0.422,0.844 0.781,1.57 1.078,2.18c0.297,0.609 0.508,1.008 0.633,1.195c0.031,0.094 0.18,0.273 0.445,0.539c0.266,0.266 0.461,0.43 0.586,0.492c0.25,-0.437 0.5,-1.093 0.75,-1.968c0.25,-0.875 0.508,-1.836 0.774,-2.883c0.265,-1.047 0.539,-2.125 0.82,-3.235c0.281,-1.109 0.602,-2.109 0.961,-3c0.359,-0.89 0.758,-1.625 1.195,-2.203c0.438,-0.578 0.938,-0.867 1.5,-0.867c0.813,0 1.586,0.313 2.321,0.938c0.734,0.625 1.437,1.437 2.109,2.437c0.672,1 1.312,2.117 1.922,3.352c0.609,1.234 1.187,2.453 1.734,3.656c0.547,1.203 1.063,2.312 1.547,3.328c0.484,1.016 0.961,1.82 1.43,2.414c0.375,-0.125 0.687,-0.437 0.937,-0.937c0.25,-0.5 0.446,-1.024 0.586,-1.571c0.141,-0.547 0.242,-1.062 0.305,-1.547c0.062,-0.484 0.109,-0.804 0.141,-0.961c0.031,-0.343 0.078,-0.882 0.14,-1.617c0.063,-0.734 0.133,-1.57 0.211,-2.508c0.078,-0.937 0.149,-1.906 0.211,-2.906c0.063,-1 0.133,-1.969 0.211,-2.906c0.078,-0.938 0.141,-1.774 0.187,-2.508c0.047,-0.734 0.071,-1.258 0.071,-1.57c0.062,-0 0.219,-0.024 0.469,-0.071c0.25,-0.046 0.421,-0.07 0.515,-0.07c0.438,0 0.828,0.047 1.172,0.141c0.344,0.094 0.609,0.422 0.797,0.984c-0,0.219 0.008,0.61 0.023,1.172l0.094,3.633c0.016,0.578 0.024,0.976 0.024,1.195c-0,0.5 0.007,1.274 0.023,2.32c0.016,1.047 -0,2.211 -0.047,3.493c-0.047,1.281 -0.148,2.586 -0.305,3.914c-0.156,1.328 -0.398,2.547 -0.726,3.656c-0.328,1.109 -0.774,2.016 -1.336,2.719c-0.563,0.703 -1.266,1.054 -2.109,1.054c-0.969,0 -1.875,-0.234 -2.719,-0.703c-0.844,-0.468 -1.633,-1.093 -2.367,-1.875c-0.735,-0.781 -1.43,-1.648 -2.086,-2.601c-0.657,-0.953 -1.258,-1.922 -1.805,-2.907c-0.547,-0.984 -1.047,-1.921 -1.5,-2.812c-0.453,-0.891 -0.852,-1.648 -1.195,-2.273c-0.25,0.562 -0.477,1.265 -0.68,2.109c-0.203,0.844 -0.43,1.758 -0.68,2.742c-0.25,0.984 -0.531,1.969 -0.843,2.953c-0.313,0.985 -0.665,1.875 -1.055,2.672c-0.391,0.797 -0.844,1.445 -1.36,1.945c-0.515,0.5 -1.101,0.75 -1.757,0.75c-0.313,0 -0.594,0.008 -0.844,0.024c-0.25,0.015 -0.484,-0 -0.703,-0.047c-0.219,-0.047 -0.422,-0.148 -0.61,-0.305c-0.187,-0.156 -0.359,-0.406 -0.515,-0.75l-8.016,-17.109c0,-0.031 -0.015,-0.164 -0.047,-0.399c-0.031,-0.234 -0.047,-0.414 -0.047,-0.539Z"
        style="fill-rule:nonzero;"/><path
        d="M327.245,328.671c1.406,0 2.109,0.734 2.109,2.203c-0.343,0.906 -0.781,1.508 -1.312,1.805c-0.531,0.297 -1.024,0.406 -1.477,0.328c-0.453,-0.078 -0.859,-0.305 -1.219,-0.68c-0.359,-0.375 -0.554,-0.797 -0.585,-1.265c-0.032,-0.469 0.14,-0.93 0.515,-1.383c0.375,-0.453 1.031,-0.789 1.969,-1.008Z"
        style="fill-rule:nonzero;"/><path
        d="M344.401,357.405c1.75,0 3.313,-0.32 4.688,-0.961c1.375,-0.64 2.539,-1.515 3.492,-2.625c0.953,-1.109 1.687,-2.375 2.203,-3.796c0.516,-1.422 0.773,-2.899 0.773,-4.43c0,-0.781 -0.039,-1.813 -0.117,-3.094c-0.078,-1.281 -0.195,-2.672 -0.351,-4.172c-0.157,-1.5 -0.383,-3.031 -0.68,-4.593c-0.297,-1.563 -0.664,-3.04 -1.102,-4.43c-0.437,-1.391 -0.976,-2.61 -1.617,-3.656c-0.64,-1.047 -1.383,-1.789 -2.226,-2.227c-0.813,0.625 -1.61,1.195 -2.391,1.711c-0.781,0.516 -1.594,0.945 -2.437,1.289c-0.844,0.344 -1.719,0.617 -2.625,0.82c-0.907,0.203 -1.875,0.305 -2.907,0.305c-1.343,0 -2.492,-0.125 -3.445,-0.375c-0.953,-0.25 -1.75,-0.672 -2.391,-1.266c-0.64,-0.593 -1.117,-1.375 -1.429,-2.343c-0.313,-0.969 -0.469,-2.188 -0.469,-3.657c-0,-1.031 0.25,-2.039 0.75,-3.023c0.5,-0.984 1.164,-1.906 1.992,-2.766c0.828,-0.859 1.766,-1.648 2.813,-2.367c1.046,-0.719 2.125,-1.344 3.234,-1.875c1.109,-0.531 2.203,-0.937 3.281,-1.219c1.078,-0.281 2.039,-0.421 2.883,-0.421c0.813,-0 1.484,0.023 2.016,0.07c0.531,0.047 0.984,0.172 1.359,0.375c0.375,0.203 0.695,0.515 0.961,0.937c0.266,0.422 0.523,0.993 0.773,1.711c0.719,2.438 1.547,5.063 2.485,7.875c0.937,2.813 1.828,5.703 2.672,8.672c0.843,2.969 1.554,5.961 2.132,8.977c0.579,3.015 0.868,5.929 0.868,8.742c-0,2.5 -0.352,4.617 -1.055,6.351c-0.703,1.735 -1.625,3.157 -2.766,4.266c-1.14,1.109 -2.437,1.961 -3.89,2.555c-1.453,0.594 -2.914,0.976 -4.383,1.148c-1.469,0.172 -2.891,0.211 -4.266,0.117c-1.375,-0.093 -2.562,-0.273 -3.562,-0.539c-1,-0.265 -1.758,-0.57 -2.274,-0.914c-0.515,-0.343 -0.64,-0.633 -0.375,-0.867c0.266,-0.234 0.977,-0.398 2.133,-0.492c1.156,-0.094 2.906,-0.031 5.25,0.187Zm0.656,-45.234c-2.312,0.5 -4.179,1.195 -5.601,2.086c-1.422,0.891 -2.485,1.844 -3.188,2.859c-0.703,1.016 -1.086,2.032 -1.148,3.047c-0.063,1.016 0.125,1.883 0.562,2.602c0.438,0.719 1.071,1.258 1.899,1.617c0.828,0.359 1.773,0.375 2.836,0.047c1.062,-0.328 2.195,-1.039 3.398,-2.133c1.203,-1.094 2.414,-2.719 3.633,-4.875c0,-0.531 0.008,-1.109 0.023,-1.734c0.016,-0.625 -0.039,-1.196 -0.164,-1.711c-0.125,-0.516 -0.359,-0.946 -0.703,-1.289c-0.343,-0.344 -0.859,-0.516 -1.547,-0.516Z"
        style="fill-rule:nonzero;"/><path
        d="M379.604,326.421c-1.187,0.813 -2.211,1.539 -3.07,2.18c-0.859,0.64 -1.695,1.179 -2.508,1.617c-0.812,0.437 -1.68,0.766 -2.601,0.984c-0.922,0.219 -2.055,0.328 -3.399,0.328c-2.906,0 -5.062,-0.773 -6.469,-2.32c-1.406,-1.547 -2.109,-3.851 -2.109,-6.914c0,-1.187 0.156,-2.422 0.469,-3.703c0.312,-1.281 0.773,-2.555 1.383,-3.82c0.609,-1.266 1.336,-2.469 2.179,-3.61c0.844,-1.14 1.797,-2.148 2.86,-3.023c1.062,-0.875 2.195,-1.571 3.398,-2.086c1.203,-0.516 2.477,-0.774 3.82,-0.774c2.25,0.219 4.016,0.774 5.297,1.664c1.282,0.891 2.25,2.032 2.907,3.422c0.656,1.391 1.109,2.938 1.359,4.641c0.25,1.703 0.445,3.461 0.586,5.273c0.14,1.813 0.32,3.625 0.539,5.438c0.219,1.812 0.672,3.484 1.359,5.016c-0.406,1.031 -0.789,1.757 -1.148,2.179c-0.36,0.422 -0.758,0.492 -1.195,0.211c-0.438,-0.281 -0.946,-0.969 -1.524,-2.062c-0.578,-1.094 -1.289,-2.641 -2.133,-4.641Zm-16.172,-4.031c0,1.781 0.336,3.086 1.008,3.914c0.672,0.828 1.867,1.242 3.586,1.242c1.281,0 2.508,-0.227 3.68,-0.68c1.172,-0.453 2.195,-1.078 3.07,-1.875c0.875,-0.797 1.578,-1.757 2.11,-2.882c0.531,-1.125 0.796,-2.375 0.796,-3.75c0,-0.563 0.016,-1.352 0.047,-2.368c0.032,-1.015 -0.031,-2.023 -0.187,-3.023c-0.156,-1 -0.453,-1.867 -0.891,-2.602c-0.437,-0.734 -1.094,-1.101 -1.969,-1.101c-1.625,-0 -3.125,0.414 -4.5,1.242c-1.375,0.828 -2.562,1.883 -3.562,3.164c-1,1.281 -1.781,2.695 -2.344,4.242c-0.562,1.547 -0.844,3.039 -0.844,4.477Z"
        style="fill-rule:nonzero;"/><path
        d="M387.526,308.843c0,-0.094 0.016,-0.172 0.047,-0.234c0,-0.063 0.016,-0.141 0.047,-0.235c0.125,-0.156 0.312,-0.359 0.562,-0.609c0.25,-0.25 0.407,-0.375 0.469,-0.375l9.422,-0c0,-0.344 -0.047,-0.891 -0.141,-1.641c-0.093,-0.75 -0.179,-1.578 -0.257,-2.484c-0.079,-0.906 -0.102,-1.852 -0.071,-2.836c0.032,-0.985 0.164,-1.875 0.399,-2.672c0.234,-0.797 0.609,-1.453 1.125,-1.969c0.515,-0.515 1.242,-0.773 2.179,-0.773c0,3.156 0.219,5.687 0.657,7.594c0.437,1.906 1.023,3.375 1.757,4.406c0.735,1.031 1.571,1.703 2.508,2.015c0.938,0.313 1.899,0.446 2.883,0.399c0.984,-0.047 1.945,-0.195 2.883,-0.445c0.937,-0.25 1.773,-0.422 2.508,-0.516c0.734,-0.094 1.32,-0.024 1.758,0.211c0.437,0.234 0.656,0.789 0.656,1.664c-0,0.656 -0.149,1.125 -0.446,1.406c-0.296,0.281 -0.867,0.5 -1.71,0.656c-0.25,0.032 -0.665,0.086 -1.243,0.164c-0.578,0.079 -1.226,0.149 -1.945,0.211l-4.594,0.422c-0.718,0.063 -1.375,0.102 -1.968,0.117c-0.594,0.016 -1.032,0.024 -1.313,0.024l-0.094,1.547c0,1.375 0.219,2.711 0.657,4.008c0.437,1.296 0.914,2.586 1.429,3.867c0.516,1.281 0.992,2.562 1.43,3.844c0.437,1.281 0.656,2.609 0.656,3.984c0,0.25 -0.023,0.508 -0.07,0.773c-0.047,0.266 -0.141,0.5 -0.281,0.703c-0.141,0.204 -0.344,0.36 -0.61,0.469c-0.265,0.11 -0.633,0.086 -1.101,-0.07c-1.188,-0.313 -2.071,-0.984 -2.649,-2.016c-0.578,-1.031 -1.008,-2.258 -1.289,-3.679c-0.281,-1.422 -0.469,-2.93 -0.562,-4.524c-0.094,-1.594 -0.243,-3.086 -0.446,-4.476c-0.203,-1.391 -0.523,-2.579 -0.961,-3.563c-0.437,-0.984 -1.14,-1.586 -2.109,-1.805l-9.047,-2.062c-0.125,-0 -0.312,-0.133 -0.562,-0.399c-0.25,-0.265 -0.407,-0.46 -0.469,-0.585c-0.031,-0.063 -0.047,-0.141 -0.047,-0.235c-0.031,-0.062 -0.047,-0.156 -0.047,-0.281Z"
        style="fill-rule:nonzero;"/><path
        d="M427.698,330.359c0.5,-0.344 1.102,-0.79 1.805,-1.336c0.703,-0.547 1.414,-1.133 2.133,-1.758c0.718,-0.625 1.39,-1.281 2.015,-1.969c0.625,-0.687 1.117,-1.352 1.477,-1.992c0.359,-0.641 0.539,-1.242 0.539,-1.805c-0,-0.562 -0.281,-1.031 -0.844,-1.406c-1,-0 -2.094,0.039 -3.281,0.117c-1.188,0.078 -2.375,0.109 -3.563,0.094c-1.187,-0.016 -2.336,-0.117 -3.445,-0.305c-1.109,-0.187 -2.102,-0.531 -2.977,-1.031c-0.875,-0.5 -1.57,-1.211 -2.086,-2.133c-0.515,-0.922 -0.773,-2.101 -0.773,-3.539c0,-1.687 0.32,-3.211 0.961,-4.57c0.641,-1.36 1.492,-2.563 2.555,-3.61c1.062,-1.047 2.257,-1.968 3.586,-2.765c1.328,-0.797 2.664,-1.477 4.007,-2.039c0.813,0.218 1.563,0.609 2.25,1.172c0.688,0.562 1.282,1.187 1.782,1.875c-0.219,0.687 -0.649,1.218 -1.289,1.593c-0.641,0.375 -1.375,0.703 -2.204,0.985c-0.828,0.281 -1.695,0.578 -2.601,0.89c-0.906,0.313 -1.727,0.727 -2.461,1.242c-0.734,0.516 -1.352,1.188 -1.852,2.016c-0.5,0.828 -0.75,1.914 -0.75,3.258c0,1 0.25,1.734 0.75,2.203c0.5,0.469 1.157,0.789 1.969,0.961c0.813,0.172 1.735,0.234 2.766,0.187c1.031,-0.046 2.086,-0.117 3.164,-0.21c1.078,-0.094 2.133,-0.149 3.164,-0.165c1.031,-0.015 1.953,0.11 2.766,0.375c0.812,0.266 1.46,0.696 1.945,1.29c0.484,0.593 0.726,1.468 0.726,2.625c0,0.5 -0.164,1.14 -0.492,1.921c-0.328,0.782 -0.765,1.618 -1.312,2.508c-0.547,0.891 -1.188,1.774 -1.922,2.649c-0.735,0.875 -1.5,1.664 -2.297,2.367c-0.797,0.703 -1.594,1.281 -2.391,1.734c-0.797,0.453 -1.539,0.68 -2.226,0.68c-0.656,-0 -1.086,-0.234 -1.289,-0.703c-0.203,-0.469 -0.305,-0.938 -0.305,-1.406Z"
        style="fill-rule:nonzero;"/><path
        d="M448.886,330.452c-0.969,-2.812 -1.883,-5.445 -2.743,-7.898c-0.859,-2.453 -1.609,-4.86 -2.25,-7.219c-0.64,-2.359 -1.148,-4.758 -1.523,-7.195c-0.375,-2.438 -0.563,-5.047 -0.563,-7.828c0,-0.219 0.008,-0.618 0.024,-1.196c0.015,-0.578 0.023,-1.179 0.023,-1.804c0,-0.625 0.008,-1.227 0.024,-1.805c0.015,-0.578 0.023,-0.977 0.023,-1.195c0.281,-0.625 0.774,-1.203 1.477,-1.735c0.703,-0.531 1.414,-0.797 2.133,-0.797c-0,2.313 0.031,4.774 0.093,7.383c0.063,2.61 0.258,5.211 0.586,7.805c0.328,2.594 0.86,5.133 1.594,7.617c0.734,2.484 1.773,4.758 3.117,6.82c0.031,-0.75 0.063,-1.578 0.094,-2.484c0.031,-0.906 0.117,-1.812 0.258,-2.719c0.14,-0.906 0.367,-1.781 0.679,-2.625c0.313,-0.843 0.774,-1.593 1.383,-2.25c0.61,-0.656 1.406,-1.172 2.391,-1.547c0.984,-0.375 2.226,-0.546 3.726,-0.515c1.344,-0 2.555,0.25 3.633,0.75c1.078,0.5 1.985,1.179 2.719,2.039c0.734,0.859 1.297,1.859 1.687,3c0.391,1.14 0.586,2.351 0.586,3.633c0,1.718 -0.421,3.406 -1.265,5.062c-0.844,1.656 -1.961,3.141 -3.352,4.453c-1.39,1.313 -2.945,2.367 -4.664,3.164c-1.719,0.797 -3.469,1.196 -5.25,1.196c-0.906,-0 -1.781,-0.164 -2.625,-0.493c-0.844,-0.328 -1.515,-0.867 -2.015,-1.617Zm11.109,-17.109c-0.625,0.344 -1.281,0.75 -1.969,1.219c-0.687,0.468 -1.32,1.195 -1.898,2.179c-0.578,0.985 -1.071,2.321 -1.477,4.008c-0.406,1.688 -0.656,3.922 -0.75,6.703l1.031,0.094c0.844,0 1.805,-0.266 2.883,-0.797c1.078,-0.531 2.125,-1.187 3.141,-1.969c1.015,-0.781 1.898,-1.648 2.648,-2.601c0.75,-0.953 1.203,-1.867 1.36,-2.742c0.093,-0.532 -0.016,-1.141 -0.328,-1.828c-0.313,-0.688 -0.727,-1.352 -1.243,-1.993c-0.515,-0.64 -1.078,-1.179 -1.687,-1.617c-0.61,-0.437 -1.18,-0.656 -1.711,-0.656Z"
        style="fill-rule:nonzero;"/><path
        d="M470.12,308.234c-0,-0.282 0.008,-0.571 0.023,-0.868c0.016,-0.297 0.078,-0.578 0.188,-0.843c0.109,-0.266 0.265,-0.469 0.469,-0.61c0.203,-0.14 0.507,-0.211 0.914,-0.211l0.281,0c0.094,0.032 0.172,0.047 0.234,0.047c0.594,0.813 1.11,1.852 1.547,3.117c0.438,1.266 0.86,2.61 1.266,4.032c0.406,1.421 0.844,2.859 1.312,4.312c0.469,1.453 1.078,2.758 1.828,3.914c0.75,1.156 1.672,2.078 2.766,2.766c1.094,0.687 2.453,0.984 4.078,0.89c0.719,0 1.188,-0.39 1.406,-1.171c0.219,-0.782 0.336,-1.782 0.352,-3c0.016,-1.219 -0.016,-2.563 -0.094,-4.032c-0.078,-1.468 -0.078,-2.867 0,-4.195c0.078,-1.328 0.313,-2.492 0.703,-3.492c0.391,-1 1.071,-1.672 2.039,-2.016c0.407,0.813 0.743,2.086 1.008,3.82c0.266,1.735 0.461,3.735 0.586,6c0.125,2.266 0.188,4.719 0.188,7.36c-0,2.64 -0.063,5.265 -0.188,7.875c-0.125,2.609 -0.312,5.117 -0.562,7.523c-0.25,2.407 -0.532,4.516 -0.844,6.328c-0.313,1.813 -0.68,3.243 -1.102,4.289c-0.422,1.047 -0.867,1.493 -1.336,1.336c-0.656,-0.625 -1.164,-1.437 -1.523,-2.437c-0.359,-1 -0.609,-2.109 -0.75,-3.328c-0.141,-1.219 -0.195,-2.508 -0.164,-3.867c0.031,-1.36 0.086,-2.727 0.164,-4.102c0.078,-1.375 0.172,-2.719 0.281,-4.031c0.11,-1.313 0.164,-2.516 0.164,-3.61c-1.125,0.094 -2.273,-0.078 -3.445,-0.515c-1.172,-0.438 -2.32,-1.117 -3.445,-2.039c-1.125,-0.922 -2.196,-2.039 -3.211,-3.352c-1.016,-1.312 -1.907,-2.797 -2.672,-4.453c-0.766,-1.656 -1.367,-3.445 -1.805,-5.367c-0.437,-1.922 -0.656,-3.945 -0.656,-6.07Z"
        style="fill-rule:nonzero;"/><path
        d="M482.917,347.234c0.906,-0 1.734,0.234 2.484,0.703c0.75,0.468 1.539,0.976 2.367,1.523c0.828,0.547 1.727,1.055 2.696,1.524c0.968,0.468 2.093,0.703 3.375,0.703c1.281,-0 2.531,-0.164 3.75,-0.493c1.218,-0.328 2.312,-0.828 3.281,-1.5c0.969,-0.671 1.75,-1.546 2.344,-2.625c0.593,-1.078 0.89,-2.351 0.89,-3.82c0,-2.437 -0.195,-4.969 -0.586,-7.594c-0.39,-2.625 -0.89,-5.242 -1.5,-7.851c-0.609,-2.61 -1.265,-5.149 -1.968,-7.617c-0.704,-2.469 -1.352,-4.75 -1.946,-6.844c0,-0.031 -0.015,-0.109 -0.047,-0.234c-0.031,-0.125 -0.046,-0.204 -0.046,-0.235c-0,-0.625 0.218,-1.055 0.656,-1.289c0.437,-0.234 0.906,-0.351 1.406,-0.351l1.031,0.093c0.969,2.438 1.883,4.93 2.742,7.477c0.86,2.547 1.618,5.133 2.274,7.758c0.656,2.625 1.172,5.257 1.547,7.898c0.375,2.641 0.562,5.258 0.562,7.852c0,2.031 -0.351,3.875 -1.054,5.531c-0.704,1.656 -1.68,3.062 -2.93,4.219c-1.25,1.156 -2.742,2.047 -4.477,2.672c-1.734,0.625 -3.617,0.937 -5.648,0.937c-1.344,0 -2.68,-0.148 -4.008,-0.445c-1.328,-0.297 -2.531,-0.774 -3.609,-1.43c-1.078,-0.656 -1.946,-1.523 -2.602,-2.602c-0.656,-1.078 -0.984,-2.398 -0.984,-3.96Zm11.015,-47.438l0,-0.562c0,-0.282 0.032,-0.571 0.094,-0.868c0.063,-0.297 0.172,-0.554 0.328,-0.773c0.157,-0.219 0.391,-0.328 0.703,-0.328c0.532,-0 0.938,0.07 1.219,0.211c0.281,0.14 0.485,0.312 0.61,0.515c0.125,0.203 0.203,0.453 0.234,0.75c0.031,0.297 0.047,0.633 0.047,1.008c-0,0.25 -0.016,0.531 -0.047,0.844c-0.031,0.312 -0.094,0.609 -0.188,0.891c-0.093,0.281 -0.25,0.507 -0.468,0.679c-0.219,0.172 -0.516,0.258 -0.891,0.258c-0.375,0 -0.672,-0.086 -0.891,-0.258c-0.218,-0.172 -0.382,-0.383 -0.492,-0.633c-0.109,-0.25 -0.179,-0.531 -0.211,-0.843c-0.031,-0.313 -0.047,-0.61 -0.047,-0.891Z"
        style="fill-rule:nonzero;"/><path
        d="M517.136,330.359c0.5,-0.344 1.101,-0.79 1.804,-1.336c0.703,-0.547 1.414,-1.133 2.133,-1.758c0.719,-0.625 1.391,-1.281 2.016,-1.969c0.625,-0.687 1.117,-1.352 1.476,-1.992c0.36,-0.641 0.539,-1.242 0.539,-1.805c0,-0.562 -0.281,-1.031 -0.843,-1.406c-1,-0 -2.094,0.039 -3.282,0.117c-1.187,0.078 -2.375,0.109 -3.562,0.094c-1.188,-0.016 -2.336,-0.117 -3.446,-0.305c-1.109,-0.187 -2.101,-0.531 -2.976,-1.031c-0.875,-0.5 -1.57,-1.211 -2.086,-2.133c-0.516,-0.922 -0.773,-2.101 -0.773,-3.539c-0,-1.687 0.32,-3.211 0.96,-4.57c0.641,-1.36 1.493,-2.563 2.555,-3.61c1.063,-1.047 2.258,-1.968 3.586,-2.765c1.328,-0.797 2.664,-1.477 4.008,-2.039c0.812,0.218 1.562,0.609 2.25,1.172c0.687,0.562 1.281,1.187 1.781,1.875c-0.219,0.687 -0.648,1.218 -1.289,1.593c-0.641,0.375 -1.375,0.703 -2.203,0.985c-0.828,0.281 -1.695,0.578 -2.602,0.89c-0.906,0.313 -1.726,0.727 -2.461,1.242c-0.734,0.516 -1.351,1.188 -1.851,2.016c-0.5,0.828 -0.75,1.914 -0.75,3.258c-0,1 0.25,1.734 0.75,2.203c0.5,0.469 1.156,0.789 1.969,0.961c0.812,0.172 1.734,0.234 2.765,0.187c1.032,-0.046 2.086,-0.117 3.164,-0.21c1.078,-0.094 2.133,-0.149 3.164,-0.165c1.032,-0.015 1.954,0.11 2.766,0.375c0.813,0.266 1.461,0.696 1.945,1.29c0.485,0.593 0.727,1.468 0.727,2.625c-0,0.5 -0.164,1.14 -0.492,1.921c-0.328,0.782 -0.766,1.618 -1.313,2.508c-0.547,0.891 -1.187,1.774 -1.922,2.649c-0.734,0.875 -1.5,1.664 -2.297,2.367c-0.796,0.703 -1.593,1.281 -2.39,1.734c-0.797,0.453 -1.539,0.68 -2.227,0.68c-0.656,-0 -1.086,-0.234 -1.289,-0.703c-0.203,-0.469 -0.304,-0.938 -0.304,-1.406Z"
        style="fill-rule:nonzero;"/><path
        d="M536.823,328.671c1.406,0 2.109,0.734 2.109,2.203c-0.343,0.906 -0.781,1.508 -1.312,1.805c-0.531,0.297 -1.024,0.406 -1.477,0.328c-0.453,-0.078 -0.859,-0.305 -1.218,-0.68c-0.36,-0.375 -0.555,-0.797 -0.586,-1.265c-0.032,-0.469 0.14,-0.93 0.515,-1.383c0.375,-0.453 1.032,-0.789 1.969,-1.008Z"
        style="fill-rule:nonzero;"/><path
        d="M540.948,318.359c0,-1.313 0.289,-2.688 0.867,-4.125c0.578,-1.438 1.352,-2.743 2.321,-3.915c0.968,-1.171 2.085,-2.148 3.351,-2.929c1.266,-0.781 2.602,-1.172 4.008,-1.172c0.719,-0 1.437,0.125 2.156,0.375c0.719,0.25 1.367,0.609 1.945,1.078c0.579,0.469 1.047,1.031 1.407,1.688c0.359,0.656 0.539,1.39 0.539,2.203c-0.563,-0 -1.071,-0.063 -1.524,-0.188c-0.453,-0.125 -0.898,-0.273 -1.336,-0.445c-0.437,-0.172 -0.867,-0.32 -1.289,-0.445c-0.422,-0.125 -0.882,-0.188 -1.382,-0.188c-1.282,0 -2.321,0.32 -3.118,0.961c-0.797,0.641 -1.429,1.445 -1.898,2.414c-0.469,0.969 -0.789,2.008 -0.961,3.117c-0.172,1.11 -0.258,2.149 -0.258,3.117c0,0.157 0.008,0.454 0.024,0.891l0.093,2.766c0.016,0.437 0.039,0.734 0.071,0.89c0.343,0.75 0.679,1.328 1.007,1.735c0.329,0.406 0.68,0.711 1.055,0.914c0.375,0.203 0.781,0.328 1.219,0.375c0.437,0.047 0.953,0.07 1.547,0.07c0.812,0 1.523,-0.125 2.133,-0.375c0.609,-0.25 1.179,-0.547 1.711,-0.891c0.531,-0.343 1.031,-0.726 1.5,-1.148c0.468,-0.422 0.96,-0.813 1.476,-1.172c0.516,-0.359 1.078,-0.656 1.688,-0.891c0.609,-0.234 1.304,-0.351 2.086,-0.351c-0,1.531 -0.274,2.891 -0.821,4.078c-0.547,1.188 -1.312,2.203 -2.297,3.047c-0.984,0.844 -2.14,1.492 -3.468,1.945c-1.329,0.453 -2.774,0.68 -4.336,0.68c-1.469,-0 -2.789,-0.5 -3.961,-1.5c-1.172,-1 -2.172,-2.227 -3,-3.68c-0.828,-1.453 -1.461,-2.992 -1.899,-4.617c-0.437,-1.625 -0.656,-3.062 -0.656,-4.312Z"
        style="fill-rule:nonzero;"/><path
        d="M564.011,322.952c-0,-1.937 0.453,-3.742 1.359,-5.414c0.906,-1.672 2.101,-3.109 3.586,-4.312c1.484,-1.203 3.156,-2.149 5.015,-2.836c1.86,-0.688 3.743,-1.031 5.649,-1.031c1.062,-0 2.008,0.343 2.836,1.031c0.828,0.687 1.523,1.523 2.086,2.508c0.562,0.984 0.992,2.023 1.289,3.117c0.297,1.094 0.445,2.047 0.445,2.859c0,1.75 -0.422,3.445 -1.265,5.086c-0.844,1.641 -1.938,3.094 -3.282,4.359c-1.343,1.266 -2.859,2.29 -4.547,3.071c-1.687,0.781 -3.375,1.172 -5.062,1.172c-1.5,-0 -2.766,-0.258 -3.797,-0.774c-1.031,-0.515 -1.859,-1.203 -2.484,-2.062c-0.625,-0.86 -1.086,-1.875 -1.383,-3.047c-0.297,-1.172 -0.445,-2.414 -0.445,-3.727Zm3.984,0.469c-0,0.813 0.07,1.523 0.211,2.133c0.14,0.609 0.39,1.133 0.75,1.57c0.359,0.438 0.836,0.774 1.43,1.008c0.593,0.234 1.328,0.352 2.203,0.352c1.156,-0 2.312,-0.321 3.468,-0.961c1.157,-0.641 2.196,-1.454 3.118,-2.438c0.921,-0.984 1.664,-2.07 2.226,-3.258c0.563,-1.187 0.844,-2.343 0.844,-3.468c-0,-0.5 -0.047,-1.047 -0.141,-1.641c-0.093,-0.594 -0.25,-1.141 -0.468,-1.641c-0.219,-0.5 -0.532,-0.922 -0.938,-1.265c-0.406,-0.344 -0.922,-0.516 -1.547,-0.516c-0.562,0 -1.226,0.188 -1.992,0.563c-0.766,0.375 -1.563,0.859 -2.391,1.453c-0.828,0.593 -1.64,1.265 -2.437,2.015c-0.797,0.75 -1.524,1.5 -2.18,2.25c-0.656,0.75 -1.18,1.469 -1.57,2.157c-0.391,0.687 -0.586,1.25 -0.586,1.687Z"
        style="fill-rule:nonzero;"/><path
        d="M587.073,312.78c0,-0.781 0.133,-1.39 0.398,-1.828c0.266,-0.437 0.836,-0.656 1.711,-0.656l1.032,0.047c0.218,0.969 0.445,2.023 0.679,3.164c0.235,1.141 0.508,2.289 0.821,3.445c0.312,1.157 0.664,2.297 1.054,3.422c0.391,1.125 0.868,2.141 1.43,3.047c0.563,-0.594 0.969,-1.297 1.219,-2.109c0.25,-0.813 0.437,-1.633 0.562,-2.461c0.125,-0.828 0.242,-1.625 0.352,-2.391c0.109,-0.766 0.336,-1.422 0.68,-1.969c0.343,-0.547 0.851,-0.945 1.523,-1.195c0.672,-0.25 1.602,-0.25 2.789,0c1.313,0 2.359,0.242 3.141,0.727c0.781,0.484 1.461,1.093 2.039,1.828c0.578,0.734 1.14,1.515 1.687,2.343c0.547,0.829 1.242,1.571 2.086,2.227c0.188,-0.406 0.422,-0.914 0.703,-1.523c0.282,-0.61 0.633,-1.25 1.055,-1.922c0.422,-0.672 0.875,-1.344 1.359,-2.016c0.485,-0.672 0.993,-1.281 1.524,-1.828c0.531,-0.547 1.078,-1 1.64,-1.359c0.563,-0.36 1.11,-0.539 1.641,-0.539c1.281,-0 2.391,0.398 3.328,1.195c0.938,0.797 1.742,1.797 2.414,3c0.672,1.203 1.227,2.547 1.664,4.031c0.438,1.484 0.782,2.914 1.032,4.289c0.25,1.375 0.429,2.633 0.539,3.774c0.109,1.14 0.164,1.961 0.164,2.461c-0,0.406 -0.094,0.718 -0.282,0.937c-0.187,0.219 -0.421,0.383 -0.703,0.492c-0.281,0.11 -0.586,0.18 -0.914,0.211c-0.328,0.031 -0.633,0.047 -0.914,0.047c-0.062,0 -0.156,-0.008 -0.281,-0.023c-0.125,-0.016 -0.266,-0.039 -0.422,-0.071c-0.125,-0.031 -0.297,-0.078 -0.516,-0.14l-3.046,-14.016c-0,-0.094 -0.125,-0.273 -0.375,-0.539c-0.25,-0.266 -0.438,-0.43 -0.563,-0.492c-0.094,-0 -0.172,-0.016 -0.234,-0.047c-0.063,-0 -0.11,-0.008 -0.141,-0.024c-0.031,-0.015 -0.062,-0.023 -0.094,-0.023c-0.656,0 -1.273,0.266 -1.851,0.797c-0.578,0.531 -1.117,1.203 -1.617,2.016c-0.5,0.812 -0.969,1.718 -1.407,2.718c-0.437,1 -0.828,1.992 -1.172,2.977c-0.343,0.984 -0.648,1.89 -0.914,2.719c-0.265,0.828 -0.476,1.461 -0.632,1.898c-0.125,0.063 -0.375,0.117 -0.75,0.164c-0.375,0.047 -0.625,0.07 -0.75,0.07c-0.875,0 -1.547,-0.304 -2.016,-0.914c-0.469,-0.609 -0.852,-1.367 -1.149,-2.273c-0.296,-0.906 -0.546,-1.899 -0.75,-2.977c-0.203,-1.078 -0.453,-2.07 -0.75,-2.976c-0.296,-0.906 -0.703,-1.664 -1.218,-2.274c-0.516,-0.609 -1.242,-0.914 -2.18,-0.914c-0.344,0 -0.672,0.344 -0.984,1.032c-0.313,0.687 -0.594,1.554 -0.844,2.601c-0.25,1.047 -0.484,2.172 -0.703,3.375c-0.219,1.203 -0.399,2.328 -0.539,3.375c-0.141,1.047 -0.242,1.93 -0.305,2.649c-0.062,0.718 -0.094,1.078 -0.094,1.078c-0.062,0.093 -0.187,0.195 -0.375,0.304c-0.187,0.11 -0.383,0.227 -0.586,0.352c-0.203,0.125 -0.406,0.219 -0.609,0.281c-0.203,0.063 -0.352,0.094 -0.445,0.094c-0.875,-0 -1.719,-0.399 -2.532,-1.195c-0.812,-0.797 -1.554,-1.829 -2.226,-3.094c-0.672,-1.266 -1.281,-2.664 -1.828,-4.195c-0.547,-1.532 -1.008,-3.032 -1.383,-4.5c-0.375,-1.469 -0.664,-2.797 -0.867,-3.985c-0.203,-1.187 -0.305,-2.094 -0.305,-2.719Z"
        style="fill-rule:nonzero;"/></g><g id="Gatsby"><path d="M477.342,155.59l16.545,-0l0,57.052l-15.974,-0l-0,-7.417c-5.705,8.558 -13.122,9.128 -17.686,9.128c-17.687,0 -29.097,-13.692 -29.097,-30.237c-0,-17.116 11.41,-30.238 27.956,-30.238c4.564,-0 13.122,0.57 18.256,9.128l0,-7.416Zm-29.096,28.526c-0,9.128 6.275,15.974 15.974,15.974c9.129,0 15.975,-6.846 15.975,-15.974c-0,-9.129 -6.276,-15.975 -15.975,-15.975c-9.128,0 -15.974,6.846 -15.974,15.975Zm77.02,-14.834l0,43.36l-15.974,-0l-0,-43.36l-6.276,0l-0,-13.692l6.276,-0l-0,-19.398l15.974,-0l0,19.398l10.84,-0l0,13.692l-10.84,0Zm48.495,0c-3.994,-3.423 -7.417,-3.994 -9.129,-3.994c-3.993,0 -6.276,1.712 -6.276,4.565c0,1.711 0.571,3.423 5.135,5.134l3.994,1.141c4.564,1.712 11.41,3.424 14.263,7.988c1.711,2.282 2.853,5.705 2.853,9.699c-0,5.134 -1.712,10.269 -6.276,14.263c-4.564,3.993 -10.27,6.275 -17.116,6.275c-11.981,0 -18.257,-5.705 -22.25,-9.698l8.558,-9.699c3.423,3.423 7.987,6.846 12.551,6.846c4.564,-0 7.987,-2.282 7.987,-6.276c0,-3.423 -2.852,-5.135 -5.134,-5.705l-3.423,-1.141c-3.994,-1.712 -8.558,-3.423 -11.981,-6.846c-2.853,-2.853 -4.565,-6.276 -4.565,-10.84c0,-5.706 2.853,-10.27 5.706,-13.122c4.564,-3.424 10.269,-3.994 14.833,-3.994c3.994,-0 10.84,0.57 18.257,6.276l-7.987,9.128Zm34.801,-6.276c5.706,-7.987 13.693,-9.128 18.257,-9.128c16.545,-0 27.956,13.122 27.956,30.238c-0,17.115 -11.411,30.237 -28.526,30.237c-3.423,0 -11.981,-0.57 -18.257,-9.128l-0,7.417l-15.404,-0l-0,-95.848l15.974,-0l0,46.212Zm-1.711,21.11c-0,9.128 6.276,15.974 15.975,15.974c9.128,0 15.974,-6.846 15.974,-15.974c0,-9.129 -6.276,-15.975 -15.974,-15.975c-9.699,0 -15.975,6.846 -15.975,15.975Zm74.168,19.968l-27.385,-48.494l18.827,-0l17.686,32.519l15.975,-32.519l18.257,-0l-45.642,87.29l-18.257,-0l20.539,-38.796Zm-253.883,-38.796l-39.936,0l-0,15.975l21.109,0c-3.423,10.84 -11.41,18.257 -26.244,18.257c-16.545,-0 -28.526,-13.693 -28.526,-30.238c-0,-16.545 11.41,-30.808 27.955,-30.808c9.129,-0 18.257,4.564 23.962,11.981l13.122,-8.558c-8.557,-11.981 -22.25,-18.827 -37.084,-18.827c-25.103,-0 -45.641,20.539 -45.641,46.212c-0,25.674 19.397,46.212 45.641,46.212c26.244,0 45.642,-20.538 45.642,-46.212c0.571,-1.711 0,-2.853 0,-3.994Z" style="fill-rule:nonzero;"/>
    <path d="M261.685,167l-39.937,-0l0,11.41l27.385,0c-3.994,17.116 -16.545,31.379 -33.09,37.084l-65.61,-65.61c6.846,-19.968 26.244,-34.231 48.494,-34.231c17.116,-0 32.52,8.558 42.219,21.68l8.558,-7.417c-11.411,-15.404 -29.668,-25.674 -50.777,-25.674c-29.667,0 -54.77,21.11 -61.046,49.065l75.309,75.309c27.385,-6.846 48.495,-31.949 48.495,-61.616Zm-125.515,0.571c-0,15.974 6.275,31.378 18.256,43.359c11.981,11.981 27.956,18.257 43.36,18.257l-61.616,-61.616Z"
          style="fill:#fff;fill-rule:nonzero;"/>
    <path d="M198.927,87.127c-43.93,-0 -79.873,35.943 -79.873,79.873c-0,43.93 35.943,79.873 79.873,79.873c43.93,0 79.873,-35.943 79.873,-79.873c0,-43.93 -35.943,-79.873 -79.873,-79.873Zm-44.501,124.374c-11.981,-11.981 -18.256,-27.956 -18.256,-43.36l62.187,61.617c-15.975,-0.571 -31.95,-6.276 -43.931,-18.257Zm58.194,16.545l-74.739,-74.739c6.276,-27.955 31.379,-49.065 61.046,-49.065c21.109,0 39.366,10.27 50.777,25.674l-8.558,7.417c-9.699,-13.122 -25.103,-21.68 -42.219,-21.68c-22.25,-0 -41.078,14.263 -48.494,34.231l65.61,65.61c16.545,-5.705 29.096,-19.968 33.09,-37.084l-27.385,0l0,-11.41l39.937,-0c-0,29.667 -21.11,54.77 -49.065,61.046Z"
          style="fill:#639;fill-rule:nonzero;"/></g><g><path d="M1052.06,312.479c0,-0.813 0.204,-1.399 0.61,-1.758c0.406,-0.359 1.062,-0.539 1.969,-0.539l0.468,0c0.094,0.5 0.203,1.078 0.328,1.734c0.125,0.657 0.313,1.329 0.563,2.016c0.25,0.688 0.547,1.32 0.891,1.898c0.343,0.579 0.765,1.04 1.265,1.383c0.031,-1.093 0.305,-2.148 0.82,-3.164c0.516,-1.015 1.157,-1.922 1.922,-2.719c0.766,-0.796 1.61,-1.468 2.532,-2.015c0.921,-0.547 1.836,-0.914 2.742,-1.102l1.031,0c1.5,0 2.781,0.336 3.844,1.008c1.062,0.672 1.945,1.547 2.648,2.625c0.703,1.078 1.242,2.305 1.617,3.68c0.375,1.375 0.664,2.773 0.868,4.195c0.203,1.422 0.328,2.797 0.375,4.125c0.046,1.328 0.07,2.461 0.07,3.399l-3.422,-0c-0.187,-1.875 -0.422,-3.672 -0.703,-5.391c-0.094,-0.688 -0.219,-1.414 -0.375,-2.18c-0.156,-0.765 -0.328,-1.484 -0.516,-2.156c-0.187,-0.672 -0.39,-1.297 -0.609,-1.875c-0.219,-0.578 -0.469,-1.07 -0.75,-1.477l-1.125,-1.171c-0.219,-0.219 -0.422,-0.407 -0.609,-0.563c-0.188,-0.156 -0.297,-0.234 -0.329,-0.234c-0.937,-0.25 -1.75,-0.071 -2.437,0.539c-0.688,0.609 -1.297,1.429 -1.828,2.461c-0.531,1.031 -0.961,2.203 -1.289,3.515c-0.328,1.313 -0.602,2.571 -0.821,3.774c-0.218,1.203 -0.375,2.25 -0.468,3.14c-0.094,0.891 -0.157,1.43 -0.188,1.618c-0.781,0.562 -1.515,0.726 -2.203,0.492c-0.687,-0.235 -1.336,-0.727 -1.945,-1.477c-0.61,-0.75 -1.157,-1.687 -1.641,-2.812c-0.484,-1.125 -0.93,-2.321 -1.336,-3.586c-0.406,-1.266 -0.773,-2.539 -1.101,-3.821c-0.329,-1.281 -0.618,-2.468 -0.868,-3.562Z" style="fill-rule:nonzero;"/>
    <path d="M1079.2,315.245c0,-1.688 0.203,-3.375 0.609,-5.063c0.407,-1.687 1.055,-3.203 1.946,-4.547c0.89,-1.344 2.047,-2.437 3.468,-3.281c1.422,-0.844 3.149,-1.266 5.18,-1.266c1.156,0 2.172,0.211 3.047,0.633c0.875,0.422 1.609,0.977 2.203,1.664c0.594,0.688 1.039,1.492 1.336,2.414c0.297,0.922 0.445,1.883 0.445,2.883c0,1.594 -0.367,3.141 -1.101,4.641c-0.735,1.5 -1.719,2.82 -2.953,3.961c-1.235,1.14 -2.649,2 -4.242,2.578c-1.594,0.578 -3.219,0.711 -4.875,0.398c0.031,0.906 0.335,1.633 0.914,2.18c0.578,0.547 1.273,0.961 2.086,1.242c0.812,0.281 1.656,0.461 2.531,0.539c0.875,0.078 1.656,0.117 2.344,0.117c0.718,0 1.39,-0.062 2.015,-0.187c0.625,-0.125 1.25,-0.266 1.875,-0.422c0.625,-0.156 1.258,-0.297 1.899,-0.422c0.64,-0.125 1.32,-0.187 2.039,-0.187c0.281,-0 0.562,0.015 0.843,0.046c0.282,0.032 0.547,0.102 0.797,0.211c0.25,0.11 0.453,0.282 0.61,0.516c0.156,0.234 0.234,0.523 0.234,0.867c0,0.594 -0.219,1.086 -0.656,1.477c-0.438,0.39 -0.992,0.726 -1.664,1.008c-0.672,0.281 -1.414,0.492 -2.227,0.632c-0.812,0.141 -1.601,0.25 -2.367,0.328c-0.766,0.079 -1.469,0.125 -2.109,0.141c-0.641,0.016 -1.118,0.024 -1.43,0.024c-2,-0 -3.797,-0.321 -5.391,-0.961c-1.593,-0.641 -2.937,-1.532 -4.031,-2.672c-1.094,-1.141 -1.93,-2.516 -2.508,-4.125c-0.578,-1.61 -0.867,-3.399 -0.867,-5.367Zm4.969,-3.047c-0,1.093 0.148,1.89 0.445,2.39c0.297,0.5 1.024,0.75 2.18,0.75c0.812,0 1.609,-0.148 2.39,-0.445c0.782,-0.297 1.493,-0.711 2.133,-1.242c0.641,-0.531 1.149,-1.156 1.524,-1.875c0.375,-0.719 0.562,-1.5 0.562,-2.344c0,-0.469 -0.039,-0.953 -0.117,-1.453c-0.078,-0.5 -0.242,-0.961 -0.492,-1.383c-0.25,-0.422 -0.571,-0.766 -0.961,-1.031c-0.391,-0.266 -0.899,-0.399 -1.524,-0.399c-0.937,0 -1.789,0.211 -2.554,0.633c-0.766,0.422 -1.414,0.969 -1.946,1.641c-0.531,0.672 -0.937,1.422 -1.218,2.25c-0.282,0.828 -0.422,1.664 -0.422,2.508Z"
          style="fill-rule:nonzero;"/>
    <path d="M1104.42,306.151c-0.031,-0.031 -0.047,-0.078 -0.047,-0.141c-0.031,-0.062 -0.047,-0.172 -0.047,-0.328c0,-0.594 0.25,-1.008 0.75,-1.242c0.5,-0.235 0.984,-0.352 1.453,-0.352c0.063,0 0.133,0.008 0.211,0.024c0.078,0.015 0.18,0.023 0.305,0.023c0.094,0.031 0.234,0.047 0.422,0.047l6.562,5.531c1.125,-1.625 2.039,-2.89 2.742,-3.797c0.703,-0.906 1.258,-1.57 1.664,-1.992c0.407,-0.422 0.711,-0.672 0.914,-0.75c0.204,-0.078 0.352,-0.117 0.446,-0.117l0.726,0c0.266,0 0.539,0.023 0.821,0.07c0.281,0.047 0.523,0.149 0.726,0.305c0.203,0.156 0.352,0.406 0.446,0.75c-0.532,0.531 -1.032,1.063 -1.5,1.594c-0.469,0.531 -0.907,1.101 -1.313,1.711c-0.406,0.609 -0.789,1.289 -1.148,2.039c-0.36,0.75 -0.727,1.594 -1.102,2.531c0.594,0.438 1.336,1.055 2.227,1.852c0.89,0.796 1.796,1.671 2.718,2.625c0.922,0.953 1.821,1.921 2.696,2.906c0.875,0.984 1.601,1.914 2.179,2.789c0.578,0.875 0.953,1.625 1.125,2.25c0.172,0.625 0.055,1.031 -0.351,1.219c-0.438,0.562 -0.735,0.976 -0.891,1.242c-0.156,0.265 -0.32,0.351 -0.492,0.258c-0.172,-0.094 -0.398,-0.391 -0.68,-0.891c-0.281,-0.5 -0.789,-1.211 -1.523,-2.133c-0.735,-0.922 -1.742,-2.086 -3.024,-3.492c-1.281,-1.406 -2.984,-3.078 -5.109,-5.016l-0.375,11.579c0,0.031 -0.062,0.093 -0.187,0.187c-0.125,0.094 -0.258,0.195 -0.399,0.305c-0.141,0.109 -0.289,0.211 -0.445,0.304c-0.156,0.094 -0.297,0.172 -0.422,0.235l-1.031,-0c-0.157,-0.125 -0.368,-0.313 -0.633,-0.563c-0.266,-0.25 -0.399,-0.406 -0.399,-0.468l0,-13.079l-8.015,-8.015Z"
          style="fill-rule:nonzero;"/>
    <path d="M1127.43,304.651c0,-0.094 0.016,-0.172 0.047,-0.235c0,-0.062 0.016,-0.14 0.047,-0.234c0.125,-0.156 0.313,-0.359 0.563,-0.609c0.25,-0.25 0.406,-0.375 0.468,-0.375l9.422,-0c0,-0.344 -0.047,-0.891 -0.14,-1.641c-0.094,-0.75 -0.18,-1.578 -0.258,-2.484c-0.078,-0.907 -0.102,-1.852 -0.07,-2.836c0.031,-0.985 0.164,-1.875 0.398,-2.672c0.234,-0.797 0.609,-1.453 1.125,-1.969c0.516,-0.516 1.242,-0.773 2.18,-0.773c-0,3.156 0.218,5.687 0.656,7.593c0.437,1.907 1.023,3.375 1.758,4.407c0.734,1.031 1.57,1.703 2.508,2.015c0.937,0.313 1.898,0.446 2.882,0.399c0.985,-0.047 1.946,-0.196 2.883,-0.446c0.938,-0.25 1.774,-0.421 2.508,-0.515c0.734,-0.094 1.32,-0.024 1.758,0.211c0.437,0.234 0.656,0.789 0.656,1.664c0,0.656 -0.148,1.125 -0.445,1.406c-0.297,0.281 -0.867,0.5 -1.711,0.656c-0.25,0.032 -0.664,0.086 -1.242,0.164c-0.579,0.078 -1.227,0.149 -1.946,0.211l-4.593,0.422c-0.719,0.063 -1.375,0.102 -1.969,0.117c-0.594,0.016 -1.031,0.024 -1.313,0.024l-0.093,1.547c-0,1.375 0.218,2.711 0.656,4.007c0.437,1.297 0.914,2.586 1.429,3.868c0.516,1.281 0.993,2.562 1.43,3.843c0.438,1.282 0.656,2.61 0.656,3.985c0,0.25 -0.023,0.508 -0.07,0.773c-0.047,0.266 -0.141,0.5 -0.281,0.703c-0.141,0.203 -0.344,0.36 -0.61,0.469c-0.265,0.109 -0.632,0.086 -1.101,-0.07c-1.188,-0.313 -2.07,-0.985 -2.649,-2.016c-0.578,-1.031 -1.007,-2.258 -1.289,-3.68c-0.281,-1.421 -0.468,-2.929 -0.562,-4.523c-0.094,-1.594 -0.242,-3.086 -0.445,-4.477c-0.204,-1.39 -0.524,-2.578 -0.961,-3.562c-0.438,-0.984 -1.141,-1.586 -2.11,-1.805l-9.047,-2.062c-0.125,-0 -0.312,-0.133 -0.562,-0.399c-0.25,-0.265 -0.406,-0.461 -0.469,-0.586c-0.031,-0.062 -0.047,-0.14 -0.047,-0.234c-0.031,-0.062 -0.047,-0.156 -0.047,-0.281Z"
          style="fill-rule:nonzero;"/>
    <path d="M1147.5,343.041c0.906,0 1.734,0.235 2.484,0.704c0.75,0.468 1.539,0.976 2.367,1.523c0.829,0.547 1.727,1.055 2.696,1.523c0.969,0.469 2.094,0.704 3.375,0.704c1.281,-0 2.531,-0.165 3.75,-0.493c1.219,-0.328 2.312,-0.828 3.281,-1.5c0.969,-0.672 1.75,-1.547 2.344,-2.625c0.594,-1.078 0.89,-2.351 0.89,-3.82c0,-2.437 -0.195,-4.969 -0.586,-7.594c-0.39,-2.625 -0.89,-5.242 -1.5,-7.851c-0.609,-2.61 -1.265,-5.149 -1.968,-7.617c-0.703,-2.469 -1.352,-4.75 -1.946,-6.844c0,-0.031 -0.015,-0.11 -0.046,-0.235c-0.032,-0.125 -0.047,-0.203 -0.047,-0.234c-0,-0.625 0.218,-1.055 0.656,-1.289c0.437,-0.234 0.906,-0.352 1.406,-0.352l1.031,0.094c0.969,2.438 1.883,4.93 2.743,7.477c0.859,2.547 1.617,5.133 2.273,7.758c0.656,2.625 1.172,5.257 1.547,7.898c0.375,2.641 0.562,5.258 0.562,7.852c0,2.031 -0.351,3.875 -1.054,5.531c-0.703,1.656 -1.68,3.062 -2.93,4.219c-1.25,1.156 -2.742,2.046 -4.477,2.671c-1.734,0.625 -3.617,0.938 -5.648,0.938c-1.344,-0 -2.68,-0.149 -4.008,-0.445c-1.328,-0.297 -2.531,-0.774 -3.609,-1.43c-1.078,-0.656 -1.945,-1.524 -2.602,-2.602c-0.656,-1.078 -0.984,-2.398 -0.984,-3.961Zm11.016,-47.437l-0,-0.563c-0,-0.281 0.031,-0.57 0.093,-0.867c0.063,-0.297 0.172,-0.554 0.328,-0.773c0.157,-0.219 0.391,-0.328 0.704,-0.328c0.531,-0 0.937,0.07 1.218,0.211c0.282,0.14 0.485,0.312 0.61,0.515c0.125,0.203 0.203,0.453 0.234,0.75c0.031,0.297 0.047,0.633 0.047,1.008c-0,0.25 -0.016,0.531 -0.047,0.844c-0.031,0.312 -0.094,0.609 -0.187,0.89c-0.094,0.282 -0.25,0.508 -0.469,0.68c-0.219,0.172 -0.516,0.258 -0.891,0.258c-0.375,-0 -0.672,-0.086 -0.89,-0.258c-0.219,-0.172 -0.383,-0.383 -0.493,-0.633c-0.109,-0.25 -0.179,-0.531 -0.211,-0.843c-0.031,-0.313 -0.046,-0.61 -0.046,-0.891Z"
          style="fill-rule:nonzero;"/>
    <path d="M1181.71,326.166c0.5,-0.343 1.101,-0.789 1.804,-1.336c0.703,-0.546 1.414,-1.132 2.133,-1.757c0.719,-0.625 1.391,-1.282 2.016,-1.969c0.625,-0.688 1.117,-1.352 1.476,-1.992c0.36,-0.641 0.539,-1.242 0.539,-1.805c0,-0.562 -0.281,-1.031 -0.843,-1.406c-1,-0 -2.094,0.039 -3.282,0.117c-1.187,0.078 -2.375,0.109 -3.562,0.094c-1.188,-0.016 -2.336,-0.117 -3.445,-0.305c-1.11,-0.187 -2.102,-0.531 -2.977,-1.031c-0.875,-0.5 -1.57,-1.211 -2.086,-2.133c-0.516,-0.922 -0.773,-2.102 -0.773,-3.539c-0,-1.688 0.32,-3.211 0.961,-4.57c0.64,-1.36 1.492,-2.563 2.554,-3.61c1.063,-1.047 2.258,-1.969 3.586,-2.765c1.328,-0.797 2.664,-1.477 4.008,-2.039c0.813,0.218 1.563,0.609 2.25,1.171c0.688,0.563 1.281,1.188 1.781,1.875c-0.218,0.688 -0.648,1.219 -1.289,1.594c-0.64,0.375 -1.375,0.703 -2.203,0.985c-0.828,0.281 -1.695,0.578 -2.601,0.89c-0.907,0.313 -1.727,0.727 -2.461,1.242c-0.735,0.516 -1.352,1.188 -1.852,2.016c-0.5,0.828 -0.75,1.914 -0.75,3.258c0,1 0.25,1.734 0.75,2.203c0.5,0.469 1.156,0.789 1.969,0.961c0.812,0.172 1.734,0.234 2.765,0.187c1.032,-0.047 2.086,-0.117 3.164,-0.211c1.079,-0.093 2.133,-0.148 3.165,-0.164c1.031,-0.015 1.953,0.11 2.765,0.375c0.813,0.266 1.461,0.696 1.945,1.289c0.485,0.594 0.727,1.469 0.727,2.625c0,0.5 -0.164,1.141 -0.492,1.922c-0.328,0.782 -0.766,1.617 -1.313,2.508c-0.547,0.891 -1.187,1.774 -1.922,2.649c-0.734,0.875 -1.5,1.664 -2.296,2.367c-0.797,0.703 -1.594,1.281 -2.391,1.734c-0.797,0.453 -1.539,0.68 -2.227,0.68c-0.656,-0 -1.086,-0.235 -1.289,-0.703c-0.203,-0.469 -0.304,-0.938 -0.304,-1.407Z"
          style="fill-rule:nonzero;"/>
    <path d="M1201.4,324.479c1.406,-0 2.11,0.734 2.11,2.203c-0.344,0.906 -0.782,1.508 -1.313,1.805c-0.531,0.297 -1.023,0.406 -1.477,0.328c-0.453,-0.078 -0.859,-0.305 -1.218,-0.68c-0.36,-0.375 -0.555,-0.797 -0.586,-1.265c-0.031,-0.469 0.14,-0.93 0.515,-1.383c0.375,-0.453 1.032,-0.789 1.969,-1.008Z"
          style="fill-rule:nonzero;"/>
    <path d="M1206.46,318.76c-0,-1.937 0.453,-3.742 1.359,-5.414c0.906,-1.672 2.102,-3.109 3.586,-4.312c1.484,-1.204 3.156,-2.149 5.016,-2.836c1.859,-0.688 3.742,-1.032 5.648,-1.032c1.063,0 2.008,0.344 2.836,1.032c0.828,0.687 1.523,1.523 2.086,2.507c0.562,0.985 0.992,2.024 1.289,3.118c0.297,1.093 0.445,2.047 0.445,2.859c0,1.75 -0.422,3.445 -1.265,5.086c-0.844,1.641 -1.938,3.094 -3.282,4.359c-1.343,1.266 -2.859,2.289 -4.546,3.071c-1.688,0.781 -3.375,1.172 -5.063,1.172c-1.5,-0 -2.766,-0.258 -3.797,-0.774c-1.031,-0.516 -1.859,-1.203 -2.484,-2.062c-0.625,-0.86 -1.086,-1.875 -1.383,-3.047c-0.297,-1.172 -0.445,-2.414 -0.445,-3.727Zm3.984,0.469c0,0.812 0.07,1.523 0.211,2.133c0.141,0.609 0.391,1.133 0.75,1.57c0.359,0.438 0.836,0.773 1.43,1.008c0.593,0.234 1.328,0.351 2.203,0.351c1.156,0 2.312,-0.32 3.469,-0.961c1.156,-0.64 2.195,-1.453 3.117,-2.437c0.922,-0.984 1.664,-2.07 2.226,-3.258c0.563,-1.187 0.844,-2.344 0.844,-3.469c0,-0.5 -0.047,-1.046 -0.141,-1.64c-0.093,-0.594 -0.25,-1.141 -0.468,-1.641c-0.219,-0.5 -0.532,-0.922 -0.938,-1.265c-0.406,-0.344 -0.922,-0.516 -1.547,-0.516c-0.562,-0 -1.226,0.187 -1.992,0.562c-0.766,0.375 -1.562,0.86 -2.391,1.454c-0.828,0.593 -1.64,1.265 -2.437,2.015c-0.797,0.75 -1.523,1.5 -2.18,2.25c-0.656,0.75 -1.179,1.469 -1.57,2.156c-0.391,0.688 -0.586,1.25 -0.586,1.688Z"
          style="fill-rule:nonzero;"/>
    <path d="M1230.56,308.588c0,-0.281 0.016,-0.57 0.047,-0.867c0.032,-0.297 0.094,-0.562 0.188,-0.797c0.094,-0.234 0.242,-0.429 0.445,-0.586c0.203,-0.156 0.492,-0.234 0.867,-0.234c0.313,-0 0.664,0.242 1.055,0.726c0.391,0.485 0.789,1.094 1.195,1.829c0.407,0.734 0.805,1.539 1.196,2.414c0.39,0.875 0.734,1.679 1.031,2.414c0.297,0.734 0.539,1.367 0.726,1.898c0.188,0.531 0.297,0.813 0.329,0.844c0.406,-1.094 0.859,-2.281 1.359,-3.563c0.5,-1.281 1.117,-2.476 1.851,-3.586c0.735,-1.109 1.61,-2.039 2.625,-2.789c1.016,-0.75 2.258,-1.125 3.727,-1.125c0.75,0 1.461,0.118 2.133,0.352c0.672,0.234 1.265,0.578 1.781,1.031c0.516,0.453 0.93,0.992 1.242,1.617c0.313,0.625 0.469,1.344 0.469,2.157c0,0.687 -0.273,1.172 -0.82,1.453c-0.547,0.281 -1.164,0.422 -1.852,0.422l-0.469,-0l-2.015,-2.016c-0.063,0 -0.11,-0.016 -0.141,-0.047c-0.062,0 -0.117,-0.008 -0.164,-0.023c-0.047,-0.016 -0.101,-0.024 -0.164,-0.024c-1.094,0 -1.945,0.305 -2.555,0.914c-0.609,0.61 -1.07,1.36 -1.382,2.25c-0.313,0.891 -0.508,1.828 -0.586,2.813c-0.079,0.984 -0.118,1.883 -0.118,2.695c0,0.625 0.063,1.258 0.188,1.899c0.125,0.64 0.266,1.265 0.422,1.875c0.156,0.609 0.297,1.234 0.422,1.875c0.125,0.64 0.187,1.304 0.187,1.992c0,1.312 -0.703,1.969 -2.109,1.969c-0.781,-0 -1.594,-0.415 -2.438,-1.243c-0.843,-0.828 -1.679,-1.882 -2.508,-3.164c-0.828,-1.281 -1.617,-2.695 -2.367,-4.242c-0.75,-1.547 -1.406,-3.055 -1.968,-4.523c-0.563,-1.469 -1.008,-2.797 -1.336,-3.985c-0.329,-1.187 -0.493,-2.062 -0.493,-2.625Z"
          style="fill-rule:nonzero;"/>
    <path d="M1266.6,353.213c1.75,0 3.313,-0.32 4.688,-0.961c1.375,-0.64 2.539,-1.515 3.492,-2.625c0.953,-1.109 1.687,-2.375 2.203,-3.797c0.516,-1.421 0.774,-2.898 0.774,-4.429c-0,-0.781 -0.04,-1.813 -0.118,-3.094c-0.078,-1.281 -0.195,-2.672 -0.351,-4.172c-0.156,-1.5 -0.383,-3.031 -0.68,-4.594c-0.297,-1.562 -0.664,-3.039 -1.101,-4.429c-0.438,-1.391 -0.977,-2.61 -1.618,-3.657c-0.64,-1.046 -1.382,-1.789 -2.226,-2.226c-0.813,0.625 -1.61,1.195 -2.391,1.711c-0.781,0.515 -1.594,0.945 -2.437,1.289c-0.844,0.344 -1.719,0.617 -2.625,0.82c-0.907,0.203 -1.875,0.305 -2.907,0.305c-1.343,-0 -2.492,-0.125 -3.445,-0.375c-0.953,-0.25 -1.75,-0.672 -2.391,-1.266c-0.64,-0.593 -1.117,-1.375 -1.429,-2.343c-0.313,-0.969 -0.469,-2.188 -0.469,-3.657c0,-1.031 0.25,-2.039 0.75,-3.023c0.5,-0.985 1.164,-1.906 1.992,-2.766c0.828,-0.859 1.766,-1.648 2.813,-2.367c1.047,-0.719 2.125,-1.344 3.234,-1.875c1.109,-0.531 2.203,-0.937 3.281,-1.219c1.078,-0.281 2.039,-0.422 2.883,-0.422c0.813,0 1.485,0.024 2.016,0.071c0.531,0.047 0.984,0.172 1.359,0.375c0.375,0.203 0.695,0.515 0.961,0.937c0.266,0.422 0.524,0.992 0.774,1.711c0.718,2.438 1.546,5.063 2.484,7.875c0.937,2.813 1.828,5.703 2.672,8.672c0.844,2.969 1.554,5.961 2.133,8.977c0.578,3.015 0.867,5.929 0.867,8.742c-0,2.5 -0.352,4.617 -1.055,6.351c-0.703,1.735 -1.625,3.157 -2.766,4.266c-1.14,1.109 -2.437,1.961 -3.89,2.555c-1.453,0.593 -2.914,0.976 -4.383,1.148c-1.469,0.172 -2.891,0.211 -4.266,0.117c-1.375,-0.093 -2.562,-0.273 -3.562,-0.539c-1,-0.265 -1.758,-0.57 -2.274,-0.914c-0.515,-0.344 -0.64,-0.633 -0.375,-0.867c0.266,-0.234 0.977,-0.398 2.133,-0.492c1.157,-0.094 2.907,-0.031 5.25,0.187Zm0.657,-45.234c-2.313,0.5 -4.18,1.195 -5.602,2.086c-1.422,0.89 -2.484,1.844 -3.188,2.859c-0.703,1.016 -1.085,2.031 -1.148,3.047c-0.062,1.016 0.125,1.883 0.563,2.602c0.437,0.718 1.07,1.257 1.898,1.617c0.828,0.359 1.773,0.375 2.836,0.047c1.062,-0.328 2.195,-1.039 3.398,-2.133c1.203,-1.094 2.414,-2.719 3.633,-4.875c0,-0.531 0.008,-1.109 0.024,-1.734c0.015,-0.625 -0.039,-1.196 -0.164,-1.711c-0.125,-0.516 -0.36,-0.946 -0.704,-1.289c-0.343,-0.344 -0.859,-0.516 -1.546,-0.516Z"
          style="fill-rule:nonzero;"/></g><path id="NextJS"
                                                d="M1062.41,107.714l76.239,0l0,6.06l-69.25,-0l-0,45.606l65.121,0l-0,6.06l-65.121,-0l-0,50.071l70.044,0l0,6.06l-77.033,0l-0,-113.857Zm83.069,0l8.1,0l35.896,50.072l36.691,-50.072l49.904,-63.602l-81.988,118.936l42.249,58.523l-8.418,0l-38.438,-53.261l-38.596,53.261l-8.259,0l42.567,-58.523l-39.708,-55.334Zm93.87,6.06l-0,-6.06l86.881,0l-0,6.06l-40.026,-0l-0,107.797l-6.989,0l0,-107.797l-39.866,-0Zm-272.317,-6.06l8.735,0l120.461,180.258l-49.781,-66.401l-72.109,-105.246l-0.318,105.246l-6.988,0l-0,-113.857Zm358.493,105.969c-1.427,-0 -2.498,-1.107 -2.498,-2.536c-0,-1.43 1.071,-2.536 2.498,-2.536c1.445,-0 2.499,1.106 2.499,2.536c0,1.429 -1.054,2.536 -2.499,2.536Zm6.868,-6.672l3.739,-0c0.051,2.025 1.53,3.387 3.706,3.387c2.43,-0 3.807,-1.464 3.807,-4.204l0,-17.36l3.808,-0l-0,17.377c-0,4.936 -2.856,7.778 -7.581,7.778c-4.437,0 -7.479,-2.757 -7.479,-6.978Zm20.04,-0.221l3.774,-0c0.323,2.331 2.6,3.812 5.881,3.812c3.059,0 5.303,-1.583 5.303,-3.761c0,-1.872 -1.428,-2.996 -4.674,-3.762l-3.162,-0.766c-4.436,-1.038 -6.459,-3.182 -6.459,-6.791c0,-4.374 3.57,-7.284 8.924,-7.284c4.98,-0 8.618,2.91 8.839,7.046l-3.706,0c-0.357,-2.264 -2.328,-3.676 -5.184,-3.676c-3.009,-0 -5.014,1.446 -5.014,3.659c-0,1.753 1.291,2.757 4.487,3.506l2.703,0.664c5.031,1.174 7.105,3.217 7.105,6.91c-0,4.698 -3.638,7.642 -9.451,7.642c-5.439,0 -9.094,-2.808 -9.366,-7.199Z"
                                                style="fill-rule:nonzero;"/><g><path d="M1602.03,306.321c0,-0.531 0.117,-1.016 0.352,-1.453c0.234,-0.438 0.648,-0.657 1.242,-0.657c0.031,0 0.078,0.008 0.141,0.024c0.062,0.016 0.125,0.023 0.187,0.023l0.188,0c0.093,0.063 0.273,0.219 0.539,0.469c0.265,0.25 0.429,0.438 0.492,0.563c0.094,0.187 0.289,0.593 0.586,1.218c0.297,0.625 0.656,1.352 1.078,2.18c0.422,0.828 0.859,1.703 1.312,2.625c0.453,0.922 0.891,1.805 1.313,2.648c0.422,0.844 0.781,1.571 1.078,2.18c0.297,0.61 0.508,1.008 0.633,1.195c0.031,0.094 0.179,0.274 0.445,0.54c0.266,0.265 0.461,0.429 0.586,0.492c0.25,-0.438 0.5,-1.094 0.75,-1.969c0.25,-0.875 0.508,-1.836 0.773,-2.883c0.266,-1.047 0.54,-2.125 0.821,-3.234c0.281,-1.11 0.601,-2.11 0.961,-3c0.359,-0.891 0.758,-1.625 1.195,-2.203c0.438,-0.578 0.938,-0.868 1.5,-0.868c0.813,0 1.586,0.313 2.32,0.938c0.735,0.625 1.438,1.437 2.11,2.437c0.672,1 1.312,2.118 1.922,3.352c0.609,1.234 1.187,2.453 1.734,3.656c0.547,1.203 1.062,2.313 1.547,3.328c0.484,1.016 0.961,1.821 1.43,2.414c0.375,-0.125 0.687,-0.437 0.937,-0.937c0.25,-0.5 0.445,-1.023 0.586,-1.57c0.141,-0.547 0.242,-1.063 0.305,-1.547c0.062,-0.485 0.109,-0.805 0.14,-0.961c0.032,-0.344 0.078,-0.883 0.141,-1.617c0.062,-0.735 0.133,-1.571 0.211,-2.508c0.078,-0.938 0.148,-1.906 0.211,-2.906c0.062,-1 0.133,-1.969 0.211,-2.907c0.078,-0.937 0.14,-1.773 0.187,-2.507c0.047,-0.735 0.071,-1.258 0.071,-1.571c0.062,0 0.218,-0.023 0.468,-0.07c0.25,-0.047 0.422,-0.07 0.516,-0.07c0.437,-0 0.828,0.046 1.172,0.14c0.344,0.094 0.609,0.422 0.797,0.985c-0,0.218 0.007,0.609 0.023,1.171l0.094,3.633c0.015,0.578 0.023,0.977 0.023,1.196c0,0.5 0.008,1.273 0.024,2.32c0.015,1.047 -0,2.211 -0.047,3.492c-0.047,1.281 -0.149,2.586 -0.305,3.914c-0.156,1.328 -0.398,2.547 -0.726,3.656c-0.329,1.11 -0.774,2.016 -1.336,2.719c-0.563,0.703 -1.266,1.055 -2.11,1.055c-0.968,-0 -1.875,-0.235 -2.718,-0.703c-0.844,-0.469 -1.633,-1.094 -2.368,-1.875c-0.734,-0.782 -1.429,-1.649 -2.086,-2.602c-0.656,-0.953 -1.257,-1.922 -1.804,-2.906c-0.547,-0.984 -1.047,-1.922 -1.5,-2.813c-0.453,-0.89 -0.852,-1.648 -1.196,-2.273c-0.25,0.562 -0.476,1.266 -0.679,2.109c-0.203,0.844 -0.43,1.758 -0.68,2.743c-0.25,0.984 -0.531,1.968 -0.844,2.953c-0.312,0.984 -0.664,1.875 -1.054,2.672c-0.391,0.796 -0.844,1.445 -1.36,1.945c-0.515,0.5 -1.101,0.75 -1.758,0.75c-0.312,-0 -0.593,0.008 -0.843,0.023c-0.25,0.016 -0.485,0 -0.703,-0.047c-0.219,-0.046 -0.422,-0.148 -0.61,-0.304c-0.187,-0.157 -0.359,-0.407 -0.515,-0.75l-8.016,-17.11c-0,-0.031 -0.016,-0.164 -0.047,-0.398c-0.031,-0.234 -0.047,-0.414 -0.047,-0.539Z" style="fill-rule:nonzero;"/>
    <path d="M1637.23,306.321c0,-0.531 0.117,-1.016 0.352,-1.453c0.234,-0.438 0.648,-0.657 1.242,-0.657c0.031,0 0.078,0.008 0.141,0.024c0.062,0.016 0.125,0.023 0.187,0.023l0.188,0c0.093,0.063 0.273,0.219 0.539,0.469c0.265,0.25 0.429,0.438 0.492,0.563c0.094,0.187 0.289,0.593 0.586,1.218c0.297,0.625 0.656,1.352 1.078,2.18c0.422,0.828 0.859,1.703 1.312,2.625c0.454,0.922 0.891,1.805 1.313,2.648c0.422,0.844 0.781,1.571 1.078,2.18c0.297,0.61 0.508,1.008 0.633,1.195c0.031,0.094 0.18,0.274 0.445,0.54c0.266,0.265 0.461,0.429 0.586,0.492c0.25,-0.438 0.5,-1.094 0.75,-1.969c0.25,-0.875 0.508,-1.836 0.774,-2.883c0.265,-1.047 0.539,-2.125 0.82,-3.234c0.281,-1.11 0.601,-2.11 0.961,-3c0.359,-0.891 0.758,-1.625 1.195,-2.203c0.438,-0.578 0.938,-0.868 1.5,-0.868c0.813,0 1.586,0.313 2.32,0.938c0.735,0.625 1.438,1.437 2.11,2.437c0.672,1 1.312,2.118 1.922,3.352c0.609,1.234 1.187,2.453 1.734,3.656c0.547,1.203 1.063,2.313 1.547,3.328c0.484,1.016 0.961,1.821 1.43,2.414c0.375,-0.125 0.687,-0.437 0.937,-0.937c0.25,-0.5 0.445,-1.023 0.586,-1.57c0.141,-0.547 0.242,-1.063 0.305,-1.547c0.062,-0.485 0.109,-0.805 0.14,-0.961c0.032,-0.344 0.079,-0.883 0.141,-1.617c0.063,-0.735 0.133,-1.571 0.211,-2.508c0.078,-0.938 0.148,-1.906 0.211,-2.906c0.062,-1 0.133,-1.969 0.211,-2.907c0.078,-0.937 0.14,-1.773 0.187,-2.507c0.047,-0.735 0.071,-1.258 0.071,-1.571c0.062,0 0.218,-0.023 0.468,-0.07c0.25,-0.047 0.422,-0.07 0.516,-0.07c0.438,-0 0.828,0.046 1.172,0.14c0.344,0.094 0.609,0.422 0.797,0.985c-0,0.218 0.008,0.609 0.023,1.171l0.094,3.633c0.016,0.578 0.023,0.977 0.023,1.196c0,0.5 0.008,1.273 0.024,2.32c0.015,1.047 -0,2.211 -0.047,3.492c-0.047,1.281 -0.148,2.586 -0.305,3.914c-0.156,1.328 -0.398,2.547 -0.726,3.656c-0.328,1.11 -0.774,2.016 -1.336,2.719c-0.563,0.703 -1.266,1.055 -2.11,1.055c-0.968,-0 -1.875,-0.235 -2.718,-0.703c-0.844,-0.469 -1.633,-1.094 -2.368,-1.875c-0.734,-0.782 -1.429,-1.649 -2.085,-2.602c-0.657,-0.953 -1.258,-1.922 -1.805,-2.906c-0.547,-0.984 -1.047,-1.922 -1.5,-2.813c-0.453,-0.89 -0.852,-1.648 -1.195,-2.273c-0.25,0.562 -0.477,1.266 -0.68,2.109c-0.203,0.844 -0.43,1.758 -0.68,2.743c-0.25,0.984 -0.531,1.968 -0.844,2.953c-0.312,0.984 -0.664,1.875 -1.054,2.672c-0.391,0.796 -0.844,1.445 -1.36,1.945c-0.515,0.5 -1.101,0.75 -1.757,0.75c-0.313,-0 -0.594,0.008 -0.844,0.023c-0.25,0.016 -0.485,0 -0.703,-0.047c-0.219,-0.046 -0.422,-0.148 -0.61,-0.304c-0.187,-0.157 -0.359,-0.407 -0.515,-0.75l-8.016,-17.11c0,-0.031 -0.016,-0.164 -0.047,-0.398c-0.031,-0.234 -0.047,-0.414 -0.047,-0.539Z"
          style="fill-rule:nonzero;"/>
    <path d="M1672.43,306.321c0,-0.531 0.118,-1.016 0.352,-1.453c0.234,-0.438 0.648,-0.657 1.242,-0.657c0.031,0 0.078,0.008 0.141,0.024c0.062,0.016 0.125,0.023 0.187,0.023l0.188,0c0.094,0.063 0.273,0.219 0.539,0.469c0.265,0.25 0.43,0.438 0.492,0.563c0.094,0.187 0.289,0.593 0.586,1.218c0.297,0.625 0.656,1.352 1.078,2.18c0.422,0.828 0.859,1.703 1.313,2.625c0.453,0.922 0.89,1.805 1.312,2.648c0.422,0.844 0.781,1.571 1.078,2.18c0.297,0.61 0.508,1.008 0.633,1.195c0.031,0.094 0.18,0.274 0.445,0.54c0.266,0.265 0.461,0.429 0.586,0.492c0.25,-0.438 0.5,-1.094 0.75,-1.969c0.25,-0.875 0.508,-1.836 0.774,-2.883c0.265,-1.047 0.539,-2.125 0.82,-3.234c0.281,-1.11 0.602,-2.11 0.961,-3c0.359,-0.891 0.758,-1.625 1.195,-2.203c0.438,-0.578 0.938,-0.868 1.5,-0.868c0.813,0 1.586,0.313 2.321,0.938c0.734,0.625 1.437,1.437 2.109,2.437c0.672,1 1.312,2.118 1.922,3.352c0.609,1.234 1.187,2.453 1.734,3.656c0.547,1.203 1.063,2.313 1.547,3.328c0.484,1.016 0.961,1.821 1.43,2.414c0.375,-0.125 0.687,-0.437 0.937,-0.937c0.25,-0.5 0.446,-1.023 0.586,-1.57c0.141,-0.547 0.242,-1.063 0.305,-1.547c0.062,-0.485 0.109,-0.805 0.141,-0.961c0.031,-0.344 0.078,-0.883 0.14,-1.617c0.063,-0.735 0.133,-1.571 0.211,-2.508c0.078,-0.938 0.149,-1.906 0.211,-2.906c0.063,-1 0.133,-1.969 0.211,-2.907c0.078,-0.937 0.141,-1.773 0.187,-2.507c0.047,-0.735 0.071,-1.258 0.071,-1.571c0.062,0 0.219,-0.023 0.469,-0.07c0.25,-0.047 0.421,-0.07 0.515,-0.07c0.438,-0 0.828,0.046 1.172,0.14c0.344,0.094 0.609,0.422 0.797,0.985c-0,0.218 0.008,0.609 0.023,1.171l0.094,3.633c0.016,0.578 0.024,0.977 0.024,1.196c-0,0.5 0.007,1.273 0.023,2.32c0.016,1.047 -0,2.211 -0.047,3.492c-0.047,1.281 -0.148,2.586 -0.305,3.914c-0.156,1.328 -0.398,2.547 -0.726,3.656c-0.328,1.11 -0.774,2.016 -1.336,2.719c-0.563,0.703 -1.266,1.055 -2.109,1.055c-0.969,-0 -1.875,-0.235 -2.719,-0.703c-0.844,-0.469 -1.633,-1.094 -2.367,-1.875c-0.735,-0.782 -1.43,-1.649 -2.086,-2.602c-0.657,-0.953 -1.258,-1.922 -1.805,-2.906c-0.547,-0.984 -1.047,-1.922 -1.5,-2.813c-0.453,-0.89 -0.852,-1.648 -1.195,-2.273c-0.25,0.562 -0.477,1.266 -0.68,2.109c-0.203,0.844 -0.43,1.758 -0.68,2.743c-0.25,0.984 -0.531,1.968 -0.843,2.953c-0.313,0.984 -0.665,1.875 -1.055,2.672c-0.391,0.796 -0.844,1.445 -1.36,1.945c-0.515,0.5 -1.101,0.75 -1.757,0.75c-0.313,-0 -0.594,0.008 -0.844,0.023c-0.25,0.016 -0.484,0 -0.703,-0.047c-0.219,-0.046 -0.422,-0.148 -0.61,-0.304c-0.187,-0.157 -0.359,-0.407 -0.515,-0.75l-8.016,-17.11c0,-0.031 -0.015,-0.164 -0.047,-0.398c-0.031,-0.234 -0.047,-0.414 -0.047,-0.539Z"
          style="fill-rule:nonzero;"/>
    <path d="M1714.25,322.586c1.406,0 2.109,0.735 2.109,2.204c-0.343,0.906 -0.781,1.507 -1.312,1.804c-0.531,0.297 -1.024,0.407 -1.477,0.328c-0.453,-0.078 -0.859,-0.304 -1.219,-0.679c-0.359,-0.375 -0.554,-0.797 -0.585,-1.266c-0.032,-0.469 0.14,-0.93 0.515,-1.383c0.375,-0.453 1.031,-0.789 1.969,-1.008Z"
          style="fill-rule:nonzero;"/>
    <path d="M1719.31,296.243l0,-1.805c0,-0.797 0.079,-1.594 0.235,-2.391c0.156,-0.796 0.406,-1.492 0.75,-2.086c0.344,-0.593 0.875,-0.89 1.594,-0.89c0.406,-0 0.742,0.351 1.007,1.055c0.266,0.703 0.485,1.578 0.657,2.625c0.171,1.046 0.296,2.203 0.375,3.468c0.078,1.266 0.14,2.461 0.187,3.586c0.047,1.125 0.086,2.102 0.117,2.93c0.032,0.828 0.078,1.336 0.141,1.523c0.094,0.5 0.273,1.25 0.539,2.25c0.266,1 0.555,2.133 0.867,3.399c0.313,1.265 0.656,2.586 1.031,3.961c0.375,1.375 0.727,2.687 1.055,3.937c0.328,1.25 0.633,2.375 0.914,3.375c0.281,1 0.5,1.719 0.656,2.156c0,0.063 0.016,0.157 0.047,0.282c0.032,0.125 0.047,0.218 0.047,0.281c0,0.344 -0.117,0.617 -0.351,0.82c-0.235,0.203 -0.516,0.36 -0.844,0.469c-0.328,0.109 -0.664,0.18 -1.008,0.211c-0.344,0.031 -0.656,0.047 -0.937,0.047c-0.125,-0 -0.305,-0.016 -0.54,-0.047c-0.234,-0.031 -0.382,-0.047 -0.445,-0.047c-0.656,-2.187 -1.351,-4.492 -2.086,-6.914c-0.734,-2.422 -1.398,-4.883 -1.992,-7.383c-0.594,-2.5 -1.078,-5.008 -1.453,-7.523c-0.375,-2.516 -0.563,-4.946 -0.563,-7.289Z"
          style="fill-rule:nonzero;"/>
    <path d="M1730.37,296.243l-0,-1.805c-0,-0.797 0.078,-1.594 0.234,-2.391c0.157,-0.796 0.407,-1.492 0.75,-2.086c0.344,-0.593 0.875,-0.89 1.594,-0.89c0.406,-0 0.742,0.351 1.008,1.055c0.265,0.703 0.484,1.578 0.656,2.625c0.172,1.046 0.297,2.203 0.375,3.468c0.078,1.266 0.141,2.461 0.188,3.586c0.046,1.125 0.086,2.102 0.117,2.93c0.031,0.828 0.078,1.336 0.14,1.523c0.094,0.5 0.274,1.25 0.539,2.25c0.266,1 0.555,2.133 0.868,3.399c0.312,1.265 0.656,2.586 1.031,3.961c0.375,1.375 0.726,2.687 1.055,3.937c0.328,1.25 0.632,2.375 0.914,3.375c0.281,1 0.5,1.719 0.656,2.156c-0,0.063 0.016,0.157 0.047,0.282c0.031,0.125 0.047,0.218 0.047,0.281c-0,0.344 -0.118,0.617 -0.352,0.82c-0.234,0.203 -0.516,0.36 -0.844,0.469c-0.328,0.109 -0.664,0.18 -1.007,0.211c-0.344,0.031 -0.657,0.047 -0.938,0.047c-0.125,-0 -0.305,-0.016 -0.539,-0.047c-0.234,-0.031 -0.383,-0.047 -0.445,-0.047c-0.657,-2.187 -1.352,-4.492 -2.086,-6.914c-0.735,-2.422 -1.399,-4.883 -1.992,-7.383c-0.594,-2.5 -1.079,-5.008 -1.454,-7.523c-0.375,-2.516 -0.562,-4.946 -0.562,-7.289Z"
          style="fill-rule:nonzero;"/>
    <path d="M1740.4,302.758c0,-0.093 0.016,-0.172 0.047,-0.234c0,-0.063 0.016,-0.141 0.047,-0.234c0.125,-0.157 0.312,-0.36 0.562,-0.61c0.25,-0.25 0.407,-0.375 0.469,-0.375l9.422,0c0,-0.344 -0.047,-0.89 -0.141,-1.64c-0.093,-0.75 -0.179,-1.579 -0.257,-2.485c-0.079,-0.906 -0.102,-1.851 -0.071,-2.836c0.032,-0.984 0.164,-1.875 0.399,-2.672c0.234,-0.796 0.609,-1.453 1.125,-1.968c0.515,-0.516 1.242,-0.774 2.179,-0.774c0,3.156 0.219,5.688 0.657,7.594c0.437,1.906 1.023,3.375 1.757,4.406c0.735,1.031 1.571,1.703 2.508,2.016c0.938,0.312 1.899,0.445 2.883,0.398c0.984,-0.047 1.945,-0.195 2.883,-0.445c0.937,-0.25 1.773,-0.422 2.508,-0.516c0.734,-0.093 1.32,-0.023 1.758,0.211c0.437,0.235 0.656,0.789 0.656,1.664c-0,0.657 -0.149,1.125 -0.446,1.407c-0.296,0.281 -0.867,0.5 -1.71,0.656c-0.25,0.031 -0.665,0.086 -1.243,0.164c-0.578,0.078 -1.226,0.148 -1.945,0.211l-4.594,0.422c-0.718,0.062 -1.375,0.101 -1.968,0.117c-0.594,0.016 -1.032,0.023 -1.313,0.023l-0.094,1.547c0,1.375 0.219,2.711 0.657,4.008c0.437,1.297 0.914,2.586 1.429,3.867c0.516,1.281 0.992,2.563 1.43,3.844c0.437,1.281 0.656,2.609 0.656,3.984c0,0.25 -0.023,0.508 -0.07,0.774c-0.047,0.265 -0.141,0.5 -0.281,0.703c-0.141,0.203 -0.344,0.359 -0.61,0.469c-0.265,0.109 -0.633,0.086 -1.101,-0.071c-1.188,-0.312 -2.071,-0.984 -2.649,-2.015c-0.578,-1.032 -1.008,-2.258 -1.289,-3.68c-0.281,-1.422 -0.469,-2.93 -0.562,-4.523c-0.094,-1.594 -0.243,-3.086 -0.446,-4.477c-0.203,-1.391 -0.523,-2.578 -0.961,-3.562c-0.437,-0.985 -1.14,-1.586 -2.109,-1.805l-9.047,-2.063c-0.125,0 -0.312,-0.132 -0.562,-0.398c-0.25,-0.266 -0.407,-0.461 -0.469,-0.586c-0.031,-0.063 -0.047,-0.141 -0.047,-0.234c-0.031,-0.063 -0.047,-0.157 -0.047,-0.282Z"
          style="fill-rule:nonzero;"/>
    <path d="M1770.78,302.149c0,-0.281 0.008,-0.57 0.024,-0.867c0.015,-0.297 0.078,-0.578 0.187,-0.844c0.109,-0.266 0.266,-0.469 0.469,-0.609c0.203,-0.141 0.508,-0.211 0.914,-0.211l0.281,-0c0.094,0.031 0.172,0.047 0.235,0.047c0.593,0.812 1.109,1.851 1.546,3.117c0.438,1.265 0.86,2.609 1.266,4.031c0.406,1.422 0.844,2.859 1.313,4.313c0.468,1.453 1.078,2.757 1.828,3.914c0.75,1.156 1.672,2.078 2.765,2.765c1.094,0.688 2.453,0.985 4.078,0.891c0.719,-0 1.188,-0.391 1.407,-1.172c0.218,-0.781 0.336,-1.781 0.351,-3c0.016,-1.219 -0.015,-2.563 -0.094,-4.031c-0.078,-1.469 -0.078,-2.867 0,-4.196c0.079,-1.328 0.313,-2.492 0.704,-3.492c0.39,-1 1.07,-1.672 2.039,-2.015c0.406,0.812 0.742,2.086 1.007,3.82c0.266,1.734 0.461,3.734 0.586,6c0.125,2.266 0.188,4.719 0.188,7.359c-0,2.641 -0.063,5.266 -0.188,7.875c-0.125,2.61 -0.312,5.117 -0.562,7.524c-0.25,2.406 -0.531,4.515 -0.844,6.328c-0.312,1.812 -0.68,3.242 -1.101,4.289c-0.422,1.047 -0.868,1.492 -1.336,1.336c-0.657,-0.625 -1.164,-1.438 -1.524,-2.438c-0.359,-1 -0.609,-2.109 -0.75,-3.328c-0.14,-1.219 -0.195,-2.508 -0.164,-3.867c0.031,-1.359 0.086,-2.727 0.164,-4.102c0.078,-1.375 0.172,-2.718 0.281,-4.031c0.11,-1.312 0.165,-2.515 0.165,-3.609c-1.125,0.094 -2.274,-0.078 -3.446,-0.516c-1.172,-0.437 -2.32,-1.117 -3.445,-2.039c-1.125,-0.922 -2.195,-2.039 -3.211,-3.351c-1.016,-1.313 -1.906,-2.797 -2.672,-4.454c-0.766,-1.656 -1.367,-3.445 -1.805,-5.367c-0.437,-1.922 -0.656,-3.945 -0.656,-6.07Z"
          style="fill-rule:nonzero;"/>
    <path d="M1800.26,322.586c1.406,0 2.109,0.735 2.109,2.204c-0.344,0.906 -0.781,1.507 -1.313,1.804c-0.531,0.297 -1.023,0.407 -1.476,0.328c-0.453,-0.078 -0.86,-0.304 -1.219,-0.679c-0.359,-0.375 -0.555,-0.797 -0.586,-1.266c-0.031,-0.469 0.141,-0.93 0.516,-1.383c0.375,-0.453 1.031,-0.789 1.969,-1.008Z"
          style="fill-rule:nonzero;"/>
    <path d="M1804.29,320.852c-0,-1.812 0.453,-3.422 1.359,-4.828c0.906,-1.406 2.031,-2.633 3.375,-3.68c1.344,-1.047 2.797,-1.937 4.36,-2.672c1.562,-0.734 3.015,-1.343 4.359,-1.828c1.344,-0.484 2.469,-0.875 3.375,-1.172c0.906,-0.296 1.359,-0.539 1.359,-0.726c0,-1.094 -0.054,-2.164 -0.164,-3.211c-0.109,-1.047 -0.226,-2.102 -0.351,-3.164c-0.125,-1.063 -0.243,-2.117 -0.352,-3.164c-0.109,-1.047 -0.164,-2.086 -0.164,-3.117l0,-3.047c1.281,-0.469 2.195,-0.422 2.742,0.14c0.547,0.563 0.633,1.532 0.258,2.907c0.125,0.687 0.297,1.765 0.516,3.234c0.218,1.469 0.461,3.125 0.726,4.969c0.266,1.843 0.547,3.781 0.844,5.812c0.297,2.031 0.578,3.977 0.844,5.836c0.265,1.86 0.492,3.516 0.679,4.969c0.188,1.453 0.329,2.539 0.422,3.258c0.032,0.156 0.063,0.461 0.094,0.914c0.031,0.453 0.055,0.937 0.07,1.453c0.016,0.516 0.032,0.992 0.047,1.43c0.016,0.437 0.024,0.75 0.024,0.937c-1.188,0 -1.993,-0.047 -2.414,-0.141c-0.422,-0.093 -0.688,-0.281 -0.797,-0.562c-0.11,-0.281 -0.164,-0.688 -0.164,-1.219c-0,-0.531 -0.157,-1.265 -0.469,-2.203c-1.156,0.906 -2.25,1.656 -3.281,2.25c-1.032,0.594 -2.063,1.07 -3.094,1.43c-1.031,0.359 -2.07,0.609 -3.117,0.75c-1.047,0.14 -2.164,0.211 -3.352,0.211c-1,-0 -1.961,-0.086 -2.883,-0.258c-0.922,-0.172 -1.742,-0.477 -2.461,-0.914c-0.718,-0.438 -1.296,-1.031 -1.734,-1.781c-0.437,-0.75 -0.656,-1.688 -0.656,-2.813Zm4.078,-0.984c-0,0.5 0.109,0.906 0.328,1.218c0.219,0.313 0.5,0.579 0.844,0.797c0.344,0.219 0.711,0.368 1.101,0.446c0.391,0.078 0.774,0.117 1.149,0.117c1.094,-0 2.273,-0.211 3.539,-0.633c1.265,-0.422 2.437,-1.016 3.515,-1.781c1.079,-0.766 1.969,-1.68 2.672,-2.742c0.703,-1.063 1.055,-2.219 1.055,-3.469c0,-0.969 -0.172,-1.641 -0.516,-2.016c-0.343,-0.375 -1,-0.562 -1.968,-0.562c-1,-0 -2.164,0.234 -3.493,0.703c-1.328,0.469 -2.609,1.094 -3.843,1.875c-1.235,0.781 -2.274,1.695 -3.117,2.742c-0.844,1.047 -1.266,2.148 -1.266,3.305Z"
          style="fill-rule:nonzero;"/>
    <path d="M1831.48,313.352c0,-1.687 0.203,-3.375 0.61,-5.062c0.406,-1.688 1.054,-3.204 1.945,-4.547c0.891,-1.344 2.047,-2.438 3.469,-3.282c1.422,-0.843 3.148,-1.265 5.179,-1.265c1.157,-0 2.172,0.211 3.047,0.633c0.875,0.422 1.61,0.976 2.203,1.664c0.594,0.687 1.039,1.492 1.336,2.414c0.297,0.922 0.446,1.883 0.446,2.883c-0,1.593 -0.368,3.14 -1.102,4.64c-0.734,1.5 -1.719,2.821 -2.953,3.961c-1.234,1.141 -2.648,2 -4.242,2.578c-1.594,0.578 -3.219,0.711 -4.875,0.399c0.031,0.906 0.336,1.633 0.914,2.179c0.578,0.547 1.273,0.961 2.086,1.243c0.812,0.281 1.656,0.461 2.531,0.539c0.875,0.078 1.656,0.117 2.344,0.117c0.719,-0 1.39,-0.063 2.015,-0.188c0.625,-0.125 1.25,-0.265 1.875,-0.422c0.625,-0.156 1.258,-0.296 1.899,-0.421c0.64,-0.125 1.32,-0.188 2.039,-0.188c0.281,0 0.562,0.016 0.844,0.047c0.281,0.031 0.547,0.102 0.797,0.211c0.25,0.109 0.453,0.281 0.609,0.516c0.156,0.234 0.234,0.523 0.234,0.867c0,0.593 -0.218,1.086 -0.656,1.476c-0.437,0.391 -0.992,0.727 -1.664,1.008c-0.672,0.281 -1.414,0.492 -2.227,0.633c-0.812,0.141 -1.601,0.25 -2.367,0.328c-0.765,0.078 -1.469,0.125 -2.109,0.141c-0.641,0.015 -1.117,0.023 -1.43,0.023c-2,0 -3.797,-0.32 -5.39,-0.961c-1.594,-0.64 -2.938,-1.531 -4.032,-2.672c-1.093,-1.14 -1.929,-2.515 -2.508,-4.125c-0.578,-1.609 -0.867,-3.398 -0.867,-5.367Zm4.969,-3.047c0,1.094 0.148,1.891 0.445,2.391c0.297,0.5 1.024,0.75 2.18,0.75c0.813,-0 1.609,-0.149 2.391,-0.445c0.781,-0.297 1.492,-0.711 2.132,-1.243c0.641,-0.531 1.149,-1.156 1.524,-1.875c0.375,-0.718 0.562,-1.5 0.562,-2.343c0,-0.469 -0.039,-0.954 -0.117,-1.454c-0.078,-0.5 -0.242,-0.96 -0.492,-1.382c-0.25,-0.422 -0.57,-0.766 -0.961,-1.032c-0.391,-0.265 -0.898,-0.398 -1.523,-0.398c-0.938,-0 -1.789,0.211 -2.555,0.633c-0.766,0.422 -1.414,0.969 -1.945,1.64c-0.532,0.672 -0.938,1.422 -1.219,2.25c-0.281,0.829 -0.422,1.664 -0.422,2.508Z"
          style="fill-rule:nonzero;"/>
    <path d="M1857.35,301.961c0.219,-0.75 0.477,-1.093 0.774,-1.031c0.297,0.063 0.664,0.422 1.101,1.078c0.438,0.657 0.93,1.532 1.477,2.625c0.547,1.094 1.133,2.274 1.758,3.539c0.625,1.266 1.304,2.555 2.039,3.868c0.734,1.312 1.5,2.515 2.297,3.609c0.796,1.094 1.64,2 2.531,2.719c0.89,0.718 1.805,1.14 2.742,1.265l3.75,-19.406c0.063,-0.531 0.305,-0.836 0.727,-0.914c0.421,-0.078 0.836,-0.117 1.242,-0.117c1.406,-0 2.109,0.656 2.109,1.969c0,0.687 -0.062,1.781 -0.187,3.281c-0.125,1.5 -0.328,3.148 -0.61,4.945c-0.281,1.797 -0.625,3.641 -1.031,5.531c-0.406,1.891 -0.891,3.618 -1.453,5.18c-0.563,1.563 -1.211,2.844 -1.945,3.844c-0.735,1 -1.539,1.5 -2.414,1.5c-1.282,-0 -2.547,-0.43 -3.797,-1.289c-1.25,-0.86 -2.43,-1.985 -3.539,-3.375c-1.11,-1.391 -2.125,-2.946 -3.047,-4.664c-0.922,-1.719 -1.719,-3.446 -2.391,-5.18c-0.672,-1.734 -1.195,-3.398 -1.57,-4.992c-0.375,-1.594 -0.563,-2.922 -0.563,-3.985Z"
          style="fill-rule:nonzero;"/></g><path id="_11ty" serif:id="11ty"
                                                d="M1703.71,224.335c-1.554,0 -2.332,-2.073 -2.332,-6.236l0,-102.798c0,-1.987 -0.397,-2.919 -1.209,-2.798l-7.445,1.865c-1.365,0.121 -2.038,-1.244 -2.038,-4.094l-0,-8.931c-0,-2.47 0.742,-3.869 2.228,-4.18l24.564,-6.322c0.19,-0.052 0.466,-0.087 0.829,-0.087c1.365,0 2.038,1.451 2.038,4.371l0,122.992c0,4.163 -0.812,6.236 -2.418,6.236l-14.217,-0.018Zm63.621,0.19c-2.487,0 -4.629,-0.172 -6.461,-0.518c-1.831,-0.345 -3.731,-1.123 -5.717,-2.332c-1.987,-1.209 -3.611,-2.867 -4.889,-4.975c-1.278,-2.107 -2.315,-5.061 -3.109,-8.844c-0.795,-3.783 -1.209,-8.275 -1.209,-13.491l-0,-47.712c-0,-1.243 -0.346,-1.865 -1.02,-1.865l-5.769,-0c-1.555,-0 -2.332,-1.486 -2.332,-4.457l-0,-5.027c-0,-3.04 0.777,-4.56 2.332,-4.56l5.769,-0c0.674,-0 1.02,-0.829 1.02,-2.505l1.675,-36.189c0.19,-3.282 0.985,-4.923 2.419,-4.923l9.31,-0c1.555,-0 2.332,1.641 2.332,4.923l0,36.189c0,1.676 0.363,2.505 1.123,2.505l11.867,-0c1.555,-0 2.333,1.52 2.333,4.56l-0,5.027c-0,2.971 -0.778,4.457 -2.333,4.457l-11.901,-0c-0.432,-0 -0.726,0.104 -0.881,0.328c-0.156,0.207 -0.225,0.726 -0.225,1.537l0,48.005c0,3.593 0.225,6.599 0.691,8.983c0.466,2.384 1.14,4.146 2.038,5.251c0.899,1.106 1.797,1.866 2.695,2.229c0.898,0.38 2.004,0.552 3.3,0.552l6.598,0c1.676,0 2.505,1.158 2.505,3.438l-0,5.579c-0,2.54 -0.898,3.818 -2.695,3.818l-9.466,0.017Zm35.706,11.159c1.416,0 2.66,-1.157 3.714,-3.489c1.053,-2.332 1.589,-5.631 1.589,-9.915c-0,-1.002 -0.622,-4.44 -1.866,-10.33l-18.241,-75.816c-0.121,-0.864 -0.19,-1.555 -0.19,-2.056c-0,-2.228 0.466,-3.351 1.399,-3.351l11.263,-0c0.863,-0 1.572,0.293 2.142,0.881c0.57,0.587 1.002,1.779 1.295,3.575l12.092,64.001c0.242,0.743 0.397,1.123 0.466,1.123c0.242,-0 0.38,-0.346 0.38,-1.019l9.484,-63.828c0.242,-1.866 0.639,-3.11 1.157,-3.766c0.519,-0.656 1.192,-0.985 2.004,-0.985l7.808,0c1.054,0 1.589,1.21 1.589,3.628c0,0.553 -0.069,1.278 -0.19,2.142l-16.566,86.25c-1.295,7.134 -2.729,12.593 -4.284,16.376c-1.554,3.783 -3.282,6.357 -5.216,7.721c-2.271,1.468 -4.933,2.215 -7.636,2.142l-0.932,0c-5.027,0 -8.43,-1.33 -10.227,-4.007c-0.501,-0.553 -0.742,-1.987 -0.742,-4.284c-0,-4.595 0.742,-6.893 2.228,-6.893c0.121,0 1.244,0.311 3.351,0.933c2.142,0.656 3.507,0.967 4.129,0.967Zm-146.14,-11.176c-1.554,-0 -2.332,-2.073 -2.332,-6.236l0,-102.798c0,-1.987 -0.397,-2.92 -1.209,-2.799l-7.445,1.866c-1.365,0.121 -2.038,-1.244 -2.038,-4.094l-0,-8.931c-0,-2.47 0.743,-3.869 2.228,-4.18l24.581,-6.34c0.19,-0.052 0.467,-0.086 0.829,-0.086c1.365,-0 2.039,1.451 2.039,4.37l-0,122.992c-0,4.163 -0.812,6.236 -2.419,6.236l-14.234,-0Z"
                                                style="fill-rule:nonzero;stroke-width:4.84px;"/></g></svg>