<svg fill="currentColor" viewBox="0 0 2048 400" xmlns="http://www.w3.org/2000/svg" xml:space="preserve" style="fill-rule:evenodd;clip-rule:evenodd;stroke-linejoin:round;stroke-miterlimit:2"><path d="M286.763 357.405c1.75 0 3.313-.32 4.688-.961a10.227 10.227 0 0 0 3.492-2.625 12.11 12.11 0 0 0 2.203-3.796c.516-1.422.773-2.899.773-4.43 0-.781-.039-1.813-.117-3.094a98.275 98.275 0 0 0-.351-4.172 55.544 55.544 0 0 0-.68-4.593 38.91 38.91 0 0 0-1.102-4.43c-.437-1.391-.976-2.61-1.617-3.656-.64-1.047-1.383-1.789-2.226-2.227a41.144 41.144 0 0 1-2.391 1.711c-.781.516-1.594.945-2.437 1.289-.844.344-1.719.617-2.625.82-.907.203-1.875.305-2.907.305-1.343 0-2.492-.125-3.445-.375-.953-.25-1.75-.672-2.391-1.266-.64-.593-1.117-1.375-1.429-2.343-.313-.969-.469-2.188-.469-3.657 0-1.031.25-2.039.75-3.023s1.164-1.906 1.992-2.766a18.2 18.2 0 0 1 2.813-2.367 24.016 24.016 0 0 1 3.234-1.875 18.375 18.375 0 0 1 3.281-1.219c1.078-.281 2.039-.421 2.883-.421.813 0 1.484.023 2.016.07.531.047.984.172 1.359.375s.695.515.961.937c.266.422.523.993.773 1.711a235.703 235.703 0 0 0 2.485 7.875 203.604 203.604 0 0 1 2.672 8.672 105.664 105.664 0 0 1 2.132 8.977c.579 3.015.868 5.929.868 8.742 0 2.5-.352 4.617-1.055 6.351-.703 1.735-1.625 3.157-2.766 4.266a12.1 12.1 0 0 1-3.89 2.555 16.671 16.671 0 0 1-4.383 1.148 23.097 23.097 0 0 1-4.266.117c-1.375-.093-2.562-.273-3.562-.539-1-.265-1.758-.57-2.274-.914-.515-.343-.64-.633-.375-.867.266-.234.977-.398 2.133-.492 1.156-.094 2.906-.031 5.25.187Zm.656-45.234c-2.312.5-4.179 1.195-5.601 2.086-1.422.891-2.485 1.844-3.188 2.859-.703 1.016-1.086 2.032-1.148 3.047-.063 1.016.125 1.883.562 2.602.438.719 1.071 1.258 1.899 1.617.828.359 1.773.375 2.836.047 1.062-.328 2.195-1.039 3.398-2.133 1.203-1.094 2.414-2.719 3.633-4.875 0-.531.008-1.109.023-1.734a6.545 6.545 0 0 0-.164-1.711 2.662 2.662 0 0 0-.703-1.289c-.343-.344-.859-.516-1.547-.516ZM321.966 326.421a94.655 94.655 0 0 0-3.07 2.18 20.491 20.491 0 0 1-2.508 1.617c-.812.437-1.68.766-2.601.984-.922.219-2.055.328-3.399.328-2.906 0-5.062-.773-6.469-2.32-1.406-1.547-2.109-3.851-2.109-6.914 0-1.187.156-2.422.469-3.703a19.31 19.31 0 0 1 1.383-3.82 22.42 22.42 0 0 1 2.179-3.61 16.981 16.981 0 0 1 2.86-3.023 13.994 13.994 0 0 1 3.398-2.086 9.59 9.59 0 0 1 3.82-.774c2.25.219 4.016.774 5.297 1.664a8.556 8.556 0 0 1 2.907 3.422c.656 1.391 1.109 2.938 1.359 4.641.25 1.703.445 3.461.586 5.273.14 1.813.32 3.625.539 5.438.219 1.812.672 3.484 1.359 5.016-.406 1.031-.789 1.757-1.148 2.179-.36.422-.758.492-1.195.211-.438-.281-.946-.969-1.524-2.062-.578-1.094-1.289-2.641-2.133-4.641Zm-16.172-4.031c0 1.781.336 3.086 1.008 3.914.672.828 1.867 1.242 3.586 1.242a10.12 10.12 0 0 0 3.68-.68 9.702 9.702 0 0 0 3.07-1.875 9.125 9.125 0 0 0 2.11-2.882c.531-1.125.796-2.375.796-3.75 0-.563.016-1.352.047-2.368a16.251 16.251 0 0 0-.187-3.023c-.156-1-.453-1.867-.891-2.602-.437-.734-1.094-1.101-1.969-1.101a8.563 8.563 0 0 0-4.5 1.242 12.984 12.984 0 0 0-3.562 3.164 15.414 15.414 0 0 0-2.344 4.242c-.562 1.547-.844 3.039-.844 4.477ZM329.888 308.843c0-.094.016-.172.047-.234 0-.063.016-.141.047-.235a7.99 7.99 0 0 1 .562-.609c.25-.25.407-.375.469-.375h9.422c0-.344-.047-.891-.141-1.641a66.975 66.975 0 0 1-.257-2.484 23.981 23.981 0 0 1-.071-2.836c.032-.985.164-1.875.399-2.672.234-.797.609-1.453 1.125-1.969.515-.515 1.242-.773 2.179-.773 0 3.156.219 5.687.657 7.594.437 1.906 1.023 3.375 1.757 4.406.735 1.031 1.571 1.703 2.508 2.015a7.849 7.849 0 0 0 2.883.399 13.7 13.7 0 0 0 2.883-.445 19.43 19.43 0 0 1 2.508-.516c.734-.094 1.32-.024 1.758.211.437.234.656.789.656 1.664 0 .656-.149 1.125-.446 1.406-.296.281-.867.5-1.71.656-.25.032-.665.086-1.243.164a39.63 39.63 0 0 1-1.945.211l-4.594.422c-.718.063-1.375.102-1.968.117-.594.016-1.032.024-1.313.024l-.094 1.547c0 1.375.219 2.711.657 4.008a72.309 72.309 0 0 0 1.429 3.867 76.347 76.347 0 0 1 1.43 3.844c.437 1.281.656 2.609.656 3.984 0 .25-.023.508-.07.773a1.76 1.76 0 0 1-.281.703c-.141.204-.344.36-.61.469-.265.11-.633.086-1.101-.07-1.188-.313-2.071-.984-2.649-2.016-.578-1.031-1.008-2.258-1.289-3.679a33.361 33.361 0 0 1-.562-4.524 52.38 52.38 0 0 0-.446-4.476c-.203-1.391-.523-2.579-.961-3.563-.437-.984-1.14-1.586-2.109-1.805l-9.047-2.062c-.125 0-.312-.133-.562-.399-.25-.265-.407-.46-.469-.585a.529.529 0 0 1-.047-.235.654.654 0 0 1-.047-.281ZM370.06 330.359c.5-.344 1.102-.79 1.805-1.336a50.915 50.915 0 0 0 2.133-1.758 24.06 24.06 0 0 0 2.015-1.969c.625-.687 1.117-1.352 1.477-1.992.359-.641.539-1.242.539-1.805 0-.562-.281-1.031-.844-1.406-1 0-2.094.039-3.281.117a45.567 45.567 0 0 1-3.563.094 22.402 22.402 0 0 1-3.445-.305c-1.109-.187-2.102-.531-2.977-1.031-.875-.5-1.57-1.211-2.086-2.133-.515-.922-.773-2.101-.773-3.539 0-1.687.32-3.211.961-4.57a12.511 12.511 0 0 1 2.555-3.61 18.998 18.998 0 0 1 3.586-2.765 31.191 31.191 0 0 1 4.007-2.039 5.958 5.958 0 0 1 2.25 1.172 10.039 10.039 0 0 1 1.782 1.875 2.772 2.772 0 0 1-1.289 1.593 12.03 12.03 0 0 1-2.204.985c-.828.281-1.695.578-2.601.89a9.87 9.87 0 0 0-2.461 1.242 6.585 6.585 0 0 0-1.852 2.016c-.5.828-.75 1.914-.75 3.258 0 1 .25 1.734.75 2.203.5.469 1.157.789 1.969.961.813.172 1.735.234 2.766.187a76.547 76.547 0 0 0 3.164-.21 44.358 44.358 0 0 1 3.164-.165c1.031-.015 1.953.11 2.766.375.812.266 1.46.696 1.945 1.29.484.593.726 1.468.726 2.625 0 .5-.164 1.14-.492 1.921a18.523 18.523 0 0 1-1.312 2.508 22.23 22.23 0 0 1-1.922 2.649c-.735.875-1.5 1.664-2.297 2.367a14.386 14.386 0 0 1-2.391 1.734c-.797.453-1.539.68-2.226.68-.656 0-1.086-.234-1.289-.703a3.517 3.517 0 0 1-.305-1.406ZM391.248 330.452c-.969-2.812-1.883-5.445-2.743-7.898a105.8 105.8 0 0 1-2.25-7.219 65.515 65.515 0 0 1-1.523-7.195c-.375-2.438-.563-5.047-.563-7.828 0-.219.008-.618.024-1.196.015-.578.023-1.179.023-1.804s.008-1.227.024-1.805c.015-.578.023-.977.023-1.195.281-.625.774-1.203 1.477-1.735.703-.531 1.414-.797 2.133-.797 0 2.313.031 4.774.093 7.383.063 2.61.258 5.211.586 7.805a48.15 48.15 0 0 0 1.594 7.617c.734 2.484 1.773 4.758 3.117 6.82.031-.75.063-1.578.094-2.484.031-.906.117-1.812.258-2.719.14-.906.367-1.781.679-2.625a6.717 6.717 0 0 1 1.383-2.25c.61-.656 1.406-1.172 2.391-1.547.984-.375 2.226-.546 3.726-.515 1.344 0 2.555.25 3.633.75a7.879 7.879 0 0 1 2.719 2.039 9.093 9.093 0 0 1 1.687 3 11.12 11.12 0 0 1 .586 3.633c0 1.718-.421 3.406-1.265 5.062a16.201 16.201 0 0 1-3.352 4.453 17.423 17.423 0 0 1-4.664 3.164c-1.719.797-3.469 1.196-5.25 1.196a7.165 7.165 0 0 1-2.625-.493 4.189 4.189 0 0 1-2.015-1.617Zm11.109-17.109c-.625.344-1.281.75-1.969 1.219-.687.468-1.32 1.195-1.898 2.179-.578.985-1.071 2.321-1.477 4.008-.406 1.688-.656 3.922-.75 6.703l1.031.094c.844 0 1.805-.266 2.883-.797a18.693 18.693 0 0 0 3.141-1.969 14.946 14.946 0 0 0 2.648-2.601c.75-.953 1.203-1.867 1.36-2.742.093-.532-.016-1.141-.328-1.828a9.362 9.362 0 0 0-1.243-1.993 8.667 8.667 0 0 0-1.687-1.617c-.61-.437-1.18-.656-1.711-.656ZM412.482 308.234c0-.282.008-.571.023-.868.016-.297.078-.578.188-.843.109-.266.265-.469.469-.61.203-.14.507-.211.914-.211h.281a.752.752 0 0 0 .234.047c.594.813 1.11 1.852 1.547 3.117a77.02 77.02 0 0 1 1.266 4.032c.406 1.421.844 2.859 1.312 4.312.469 1.453 1.078 2.758 1.828 3.914.75 1.156 1.672 2.078 2.766 2.766 1.094.687 2.453.984 4.078.89.719 0 1.188-.39 1.406-1.171.219-.782.336-1.782.352-3a61.391 61.391 0 0 0-.094-4.032 37.608 37.608 0 0 1 0-4.195c.078-1.328.313-2.492.703-3.492.391-1 1.071-1.672 2.039-2.016.407.813.743 2.086 1.008 3.82.266 1.735.461 3.735.586 6 .125 2.266.188 4.719.188 7.36 0 2.64-.063 5.265-.188 7.875a135.697 135.697 0 0 1-.562 7.523c-.25 2.407-.532 4.516-.844 6.328-.313 1.813-.68 3.243-1.102 4.289-.422 1.047-.867 1.493-1.336 1.336-.656-.625-1.164-1.437-1.523-2.437-.359-1-.609-2.109-.75-3.328a28.103 28.103 0 0 1-.164-3.867c.031-1.36.086-2.727.164-4.102.078-1.375.172-2.719.281-4.031.11-1.313.164-2.516.164-3.61-1.125.094-2.273-.078-3.445-.515-1.172-.438-2.32-1.117-3.445-2.039-1.125-.922-2.196-2.039-3.211-3.352-1.016-1.312-1.907-2.797-2.672-4.453a27.074 27.074 0 0 1-1.805-5.367 27.307 27.307 0 0 1-.656-6.07Z" style="fill-rule:nonzero"/><path d="M425.279 347.234c.906 0 1.734.234 2.484.703.75.468 1.539.976 2.367 1.523a23.303 23.303 0 0 0 2.696 1.524c.968.468 2.093.703 3.375.703 1.281 0 2.531-.164 3.75-.493a10.494 10.494 0 0 0 3.281-1.5 7.589 7.589 0 0 0 2.344-2.625c.593-1.078.89-2.351.89-3.82 0-2.437-.195-4.969-.586-7.594a97.241 97.241 0 0 0-1.5-7.851 163.049 163.049 0 0 0-1.968-7.617c-.704-2.469-1.352-4.75-1.946-6.844 0-.031-.015-.109-.047-.234a1.402 1.402 0 0 1-.046-.235c0-.625.218-1.055.656-1.289a2.935 2.935 0 0 1 1.406-.351l1.031.093c.969 2.438 1.883 4.93 2.742 7.477.86 2.547 1.618 5.133 2.274 7.758a77.482 77.482 0 0 1 1.547 7.898c.375 2.641.562 5.258.562 7.852 0 2.031-.351 3.875-1.054 5.531-.704 1.656-1.68 3.062-2.93 4.219-1.25 1.156-2.742 2.047-4.477 2.672-1.734.625-3.617.937-5.648.937a18.31 18.31 0 0 1-4.008-.445 11.871 11.871 0 0 1-3.609-1.43 7.666 7.666 0 0 1-2.602-2.602c-.656-1.078-.984-2.398-.984-3.96Zm11.015-47.438v-.562c0-.282.032-.571.094-.868.063-.297.172-.554.328-.773.157-.219.391-.328.703-.328.532 0 .938.07 1.219.211.281.14.485.312.61.515s.203.453.234.75.047.633.047 1.008c0 .25-.016.531-.047.844a4.087 4.087 0 0 1-.188.891c-.093.281-.25.507-.468.679-.219.172-.516.258-.891.258s-.672-.086-.891-.258a1.634 1.634 0 0 1-.492-.633 2.818 2.818 0 0 1-.211-.843 9.064 9.064 0 0 1-.047-.891ZM459.498 330.359c.5-.344 1.101-.79 1.804-1.336a50.915 50.915 0 0 0 2.133-1.758 23.921 23.921 0 0 0 2.016-1.969c.625-.687 1.117-1.352 1.476-1.992.36-.641.539-1.242.539-1.805 0-.562-.281-1.031-.843-1.406-1 0-2.094.039-3.282.117a45.541 45.541 0 0 1-3.562.094 22.415 22.415 0 0 1-3.446-.305c-1.109-.187-2.101-.531-2.976-1.031-.875-.5-1.57-1.211-2.086-2.133-.516-.922-.773-2.101-.773-3.539 0-1.687.32-3.211.96-4.57a12.53 12.53 0 0 1 2.555-3.61 19.062 19.062 0 0 1 3.586-2.765 31.137 31.137 0 0 1 4.008-2.039 5.973 5.973 0 0 1 2.25 1.172 10.066 10.066 0 0 1 1.781 1.875 2.768 2.768 0 0 1-1.289 1.593 12.05 12.05 0 0 1-2.203.985 669.3 669.3 0 0 0-2.602.89 9.887 9.887 0 0 0-2.461 1.242 6.582 6.582 0 0 0-1.851 2.016c-.5.828-.75 1.914-.75 3.258 0 1 .25 1.734.75 2.203.5.469 1.156.789 1.969.961.812.172 1.734.234 2.765.187a76.432 76.432 0 0 0 3.164-.21 44.358 44.358 0 0 1 3.164-.165c1.032-.015 1.954.11 2.766.375.813.266 1.461.696 1.945 1.29.485.593.727 1.468.727 2.625 0 .5-.164 1.14-.492 1.921a18.537 18.537 0 0 1-1.313 2.508 22.119 22.119 0 0 1-1.922 2.649c-.734.875-1.5 1.664-2.297 2.367a14.34 14.34 0 0 1-2.39 1.734c-.797.453-1.539.68-2.227.68-.656 0-1.086-.234-1.289-.703a3.515 3.515 0 0 1-.304-1.406ZM479.185 328.671c1.406 0 2.109.734 2.109 2.203-.343.906-.781 1.508-1.312 1.805-.531.297-1.024.406-1.477.328-.453-.078-.859-.305-1.218-.68-.36-.375-.555-.797-.586-1.265-.032-.469.14-.93.515-1.383.375-.453 1.032-.789 1.969-1.008ZM483.31 318.359c0-1.313.289-2.688.867-4.125a14.717 14.717 0 0 1 2.321-3.915 13.573 13.573 0 0 1 3.351-2.929c1.266-.781 2.602-1.172 4.008-1.172.719 0 1.437.125 2.156.375a6.39 6.39 0 0 1 1.945 1.078 5.632 5.632 0 0 1 1.407 1.688c.359.656.539 1.39.539 2.203a5.729 5.729 0 0 1-1.524-.188 13.408 13.408 0 0 1-1.336-.445c-.437-.172-.867-.32-1.289-.445a4.846 4.846 0 0 0-1.382-.188c-1.282 0-2.321.32-3.118.961a6.91 6.91 0 0 0-1.898 2.414 10.97 10.97 0 0 0-.961 3.117 20.42 20.42 0 0 0-.258 3.117c0 .157.008.454.024.891l.093 2.766c.016.437.039.734.071.89.343.75.679 1.328 1.007 1.735.329.406.68.711 1.055.914.375.203.781.328 1.219.375.437.047.953.07 1.547.07.812 0 1.523-.125 2.133-.375a10.45 10.45 0 0 0 1.711-.891 11.862 11.862 0 0 0 1.5-1.148c.468-.422.96-.813 1.476-1.172a7.937 7.937 0 0 1 1.688-.891c.609-.234 1.304-.351 2.086-.351 0 1.531-.274 2.891-.821 4.078a8.82 8.82 0 0 1-2.297 3.047c-.984.844-2.14 1.492-3.468 1.945-1.329.453-2.774.68-4.336.68-1.469 0-2.789-.5-3.961-1.5-1.172-1-2.172-2.227-3-3.68a19.576 19.576 0 0 1-1.899-4.617c-.437-1.625-.656-3.062-.656-4.312ZM506.373 322.952c0-1.937.453-3.742 1.359-5.414a14.211 14.211 0 0 1 3.586-4.312 17.576 17.576 0 0 1 5.015-2.836 16.17 16.17 0 0 1 5.649-1.031c1.062 0 2.008.343 2.836 1.031a9.068 9.068 0 0 1 2.086 2.508c.562.984.992 2.023 1.289 3.117.297 1.094.445 2.047.445 2.859 0 1.75-.422 3.445-1.265 5.086a15.98 15.98 0 0 1-3.282 4.359 16.977 16.977 0 0 1-4.547 3.071c-1.687.781-3.375 1.172-5.062 1.172-1.5 0-2.766-.258-3.797-.774-1.031-.515-1.859-1.203-2.484-2.062-.625-.86-1.086-1.875-1.383-3.047a15.122 15.122 0 0 1-.445-3.727Zm3.984.469c0 .813.07 1.523.211 2.133.14.609.39 1.133.75 1.57.359.438.836.774 1.43 1.008.593.234 1.328.352 2.203.352 1.156 0 2.312-.321 3.468-.961a12.662 12.662 0 0 0 3.118-2.438 12.689 12.689 0 0 0 2.226-3.258c.563-1.187.844-2.343.844-3.468 0-.5-.047-1.047-.141-1.641a6.672 6.672 0 0 0-.468-1.641 3.437 3.437 0 0 0-.938-1.265c-.406-.344-.922-.516-1.547-.516-.562 0-1.226.188-1.992.563-.766.375-1.563.859-2.391 1.453a23.7 23.7 0 0 0-2.437 2.015c-.797.75-1.524 1.5-2.18 2.25-.656.75-1.18 1.469-1.57 2.157-.391.687-.586 1.25-.586 1.687ZM529.435 312.78c0-.781.133-1.39.398-1.828.266-.437.836-.656 1.711-.656l1.032.047c.218.969.445 2.023.679 3.164.235 1.141.508 2.289.821 3.445a50.915 50.915 0 0 0 1.054 3.422 15.272 15.272 0 0 0 1.43 3.047 5.275 5.275 0 0 0 1.219-2.109c.25-.813.437-1.633.562-2.461.125-.828.242-1.625.352-2.391.109-.766.336-1.422.68-1.969.343-.547.851-.945 1.523-1.195.672-.25 1.602-.25 2.789 0 1.313 0 2.359.242 3.141.727a7.814 7.814 0 0 1 2.039 1.828c.578.734 1.14 1.515 1.687 2.343a9.323 9.323 0 0 0 2.086 2.227l.703-1.523c.282-.61.633-1.25 1.055-1.922.422-.672.875-1.344 1.359-2.016.485-.672.993-1.281 1.524-1.828a9.21 9.21 0 0 1 1.64-1.359c.563-.36 1.11-.539 1.641-.539 1.281 0 2.391.398 3.328 1.195.938.797 1.742 1.797 2.414 3 .672 1.203 1.227 2.547 1.664 4.031a41.246 41.246 0 0 1 1.032 4.289c.25 1.375.429 2.633.539 3.774.109 1.14.164 1.961.164 2.461 0 .406-.094.718-.282.937a1.724 1.724 0 0 1-.703.492c-.281.11-.586.18-.914.211a9.77 9.77 0 0 1-.914.047c-.062 0-.156-.008-.281-.023a5.722 5.722 0 0 1-.422-.071 17.62 17.62 0 0 1-.516-.14l-3.046-14.016c0-.094-.125-.273-.375-.539s-.438-.43-.563-.492a.521.521 0 0 1-.234-.047.32.32 0 0 1-.141-.024.214.214 0 0 0-.094-.023c-.656 0-1.273.266-1.851.797-.578.531-1.117 1.203-1.617 2.016a22.07 22.07 0 0 0-1.407 2.718c-.437 1-.828 1.992-1.172 2.977-.343.984-.648 1.89-.914 2.719a64.803 64.803 0 0 1-.632 1.898c-.125.063-.375.117-.75.164a7.52 7.52 0 0 1-.75.07c-.875 0-1.547-.304-2.016-.914-.469-.609-.852-1.367-1.149-2.273a23.935 23.935 0 0 1-.75-2.977 23.57 23.57 0 0 0-.75-2.976c-.296-.906-.703-1.664-1.218-2.274-.516-.609-1.242-.914-2.18-.914-.344 0-.672.344-.984 1.032-.313.687-.594 1.554-.844 2.601a63.68 63.68 0 0 0-.703 3.375 72.816 72.816 0 0 0-.539 3.375 58.777 58.777 0 0 0-.305 2.649l-.094 1.078c-.062.093-.187.195-.375.304a33.7 33.7 0 0 0-.586.352 2.63 2.63 0 0 1-.609.281 1.71 1.71 0 0 1-.445.094c-.875 0-1.719-.399-2.532-1.195-.812-.797-1.554-1.829-2.226-3.094a31.671 31.671 0 0 1-1.828-4.195 50.747 50.747 0 0 1-1.383-4.5 51.03 51.03 0 0 1-.867-3.985c-.203-1.187-.305-2.094-.305-2.719Z" style="fill-rule:nonzero"/><g id="Gatsby"><path d="M477.342 155.59h16.545v57.052h-15.974v-7.417c-5.705 8.558-13.122 9.128-17.686 9.128-17.687 0-29.097-13.692-29.097-30.237 0-17.116 11.41-30.238 27.956-30.238 4.564 0 13.122.57 18.256 9.128v-7.416Zm-29.096 28.526c0 9.128 6.275 15.974 15.974 15.974 9.129 0 15.975-6.846 15.975-15.974 0-9.129-6.276-15.975-15.975-15.975-9.128 0-15.974 6.846-15.974 15.975Zm77.02-14.834v43.36h-15.974v-43.36h-6.276V155.59h6.276v-19.398h15.974v19.398h10.84v13.692h-10.84Zm48.495 0c-3.994-3.423-7.417-3.994-9.129-3.994-3.993 0-6.276 1.712-6.276 4.565 0 1.711.571 3.423 5.135 5.134l3.994 1.141c4.564 1.712 11.41 3.424 14.263 7.988 1.711 2.282 2.853 5.705 2.853 9.699 0 5.134-1.712 10.269-6.276 14.263-4.564 3.993-10.27 6.275-17.116 6.275-11.981 0-18.257-5.705-22.25-9.698l8.558-9.699c3.423 3.423 7.987 6.846 12.551 6.846s7.987-2.282 7.987-6.276c0-3.423-2.852-5.135-5.134-5.705l-3.423-1.141c-3.994-1.712-8.558-3.423-11.981-6.846-2.853-2.853-4.565-6.276-4.565-10.84 0-5.706 2.853-10.27 5.706-13.122 4.564-3.424 10.269-3.994 14.833-3.994 3.994 0 10.84.57 18.257 6.276l-7.987 9.128Zm34.801-6.276c5.706-7.987 13.693-9.128 18.257-9.128 16.545 0 27.956 13.122 27.956 30.238 0 17.115-11.411 30.237-28.526 30.237-3.423 0-11.981-.57-18.257-9.128v7.417h-15.404v-95.848h15.974v46.212Zm-1.711 21.11c0 9.128 6.276 15.974 15.975 15.974 9.128 0 15.974-6.846 15.974-15.974 0-9.129-6.276-15.975-15.974-15.975-9.699 0-15.975 6.846-15.975 15.975Zm74.168 19.968-27.385-48.494h18.827l17.686 32.519 15.975-32.519h18.257l-45.642 87.29H660.48l20.539-38.796Zm-253.883-38.796H387.2v15.975h21.109c-3.423 10.84-11.41 18.257-26.244 18.257-16.545 0-28.526-13.693-28.526-30.238s11.41-30.808 27.955-30.808c9.129 0 18.257 4.564 23.962 11.981l13.122-8.558c-8.557-11.981-22.25-18.827-37.084-18.827-25.103 0-45.641 20.539-45.641 46.212 0 25.674 19.397 46.212 45.641 46.212s45.642-20.538 45.642-46.212c.571-1.711 0-2.853 0-3.994Z" style="fill-rule:nonzero"/><path d="M261.685 167h-39.937v11.41h27.385c-3.994 17.116-16.545 31.379-33.09 37.084l-65.61-65.61c6.846-19.968 26.244-34.231 48.494-34.231 17.116 0 32.52 8.558 42.219 21.68l8.558-7.417c-11.411-15.404-29.668-25.674-50.777-25.674-29.667 0-54.77 21.11-61.046 49.065l75.309 75.309c27.385-6.846 48.495-31.949 48.495-61.616Zm-125.515.571c0 15.974 6.275 31.378 18.256 43.359 11.981 11.981 27.956 18.257 43.36 18.257l-61.616-61.616Z" style="fill:#fff;fill-rule:nonzero"/><path d="M198.927 87.127c-43.93 0-79.873 35.943-79.873 79.873 0 43.93 35.943 79.873 79.873 79.873 43.93 0 79.873-35.943 79.873-79.873 0-43.93-35.943-79.873-79.873-79.873Zm-44.501 124.374c-11.981-11.981-18.256-27.956-18.256-43.36l62.187 61.617c-15.975-.571-31.95-6.276-43.931-18.257Zm58.194 16.545-74.739-74.739c6.276-27.955 31.379-49.065 61.046-49.065 21.109 0 39.366 10.27 50.777 25.674l-8.558 7.417c-9.699-13.122-25.103-21.68-42.219-21.68-22.25 0-41.078 14.263-48.494 34.231l65.61 65.61c16.545-5.705 29.096-19.968 33.09-37.084h-27.385V167h39.937c0 29.667-21.11 54.77-49.065 61.046Z" style="fill:#639;fill-rule:nonzero"/></g><g><path d="M1052.06 312.479c0-.813.204-1.399.61-1.758s1.062-.539 1.969-.539h.468l.328 1.734c.125.657.313 1.329.563 2.016.25.688.547 1.32.891 1.898.343.579.765 1.04 1.265 1.383a7.39 7.39 0 0 1 .82-3.164 11.289 11.289 0 0 1 1.922-2.719 12.009 12.009 0 0 1 2.532-2.015c.921-.547 1.836-.914 2.742-1.102h1.031c1.5 0 2.781.336 3.844 1.008a8.666 8.666 0 0 1 2.648 2.625c.703 1.078 1.242 2.305 1.617 3.68s.664 2.773.868 4.195c.203 1.422.328 2.797.375 4.125.046 1.328.07 2.461.07 3.399h-3.422a86.882 86.882 0 0 0-.703-5.391 34.044 34.044 0 0 0-.375-2.18 31.03 31.03 0 0 0-.516-2.156 21.774 21.774 0 0 0-.609-1.875 6.896 6.896 0 0 0-.75-1.477l-1.125-1.171a9.315 9.315 0 0 0-.609-.563c-.188-.156-.297-.234-.329-.234-.937-.25-1.75-.071-2.437.539-.688.609-1.297 1.429-1.828 2.461-.531 1.031-.961 2.203-1.289 3.515a59.794 59.794 0 0 0-.821 3.774 43.107 43.107 0 0 0-.468 3.14 42.63 42.63 0 0 1-.188 1.618c-.781.562-1.515.726-2.203.492-.687-.235-1.336-.727-1.945-1.477-.61-.75-1.157-1.687-1.641-2.812a40.028 40.028 0 0 1-1.336-3.586 66.413 66.413 0 0 1-1.101-3.821 137.715 137.715 0 0 1-.868-3.562ZM1079.2 315.245c0-1.688.203-3.375.609-5.063.407-1.687 1.055-3.203 1.946-4.547a10.57 10.57 0 0 1 3.468-3.281c1.422-.844 3.149-1.266 5.18-1.266 1.156 0 2.172.211 3.047.633a6.741 6.741 0 0 1 2.203 1.664 6.868 6.868 0 0 1 1.336 2.414c.297.922.445 1.883.445 2.883 0 1.594-.367 3.141-1.101 4.641a13.353 13.353 0 0 1-2.953 3.961c-1.235 1.14-2.649 2-4.242 2.578a9.097 9.097 0 0 1-4.875.398c.031.906.335 1.633.914 2.18a5.696 5.696 0 0 0 2.086 1.242c.812.281 1.656.461 2.531.539.875.078 1.656.117 2.344.117.718 0 1.39-.062 2.015-.187.625-.125 1.25-.266 1.875-.422a37.4 37.4 0 0 1 1.899-.422 10.63 10.63 0 0 1 2.039-.187c.281 0 .562.015.843.046.282.032.547.102.797.211.25.11.453.282.61.516.156.234.234.523.234.867 0 .594-.219 1.086-.656 1.477-.438.39-.992.726-1.664 1.008a10.28 10.28 0 0 1-2.227.632c-.812.141-1.601.25-2.367.328a27.3 27.3 0 0 1-2.109.141c-.641.016-1.118.024-1.43.024-2 0-3.797-.321-5.391-.961-1.593-.641-2.937-1.532-4.031-2.672-1.094-1.141-1.93-2.516-2.508-4.125-.578-1.61-.867-3.399-.867-5.367Zm4.969-3.047c0 1.093.148 1.89.445 2.39.297.5 1.024.75 2.18.75.812 0 1.609-.148 2.39-.445a7.472 7.472 0 0 0 2.133-1.242 6.049 6.049 0 0 0 1.524-1.875c.375-.719.562-1.5.562-2.344 0-.469-.039-.953-.117-1.453a3.852 3.852 0 0 0-.492-1.383 3.2 3.2 0 0 0-.961-1.031c-.391-.266-.899-.399-1.524-.399-.937 0-1.789.211-2.554.633a6.38 6.38 0 0 0-1.946 1.641 7.474 7.474 0 0 0-1.218 2.25 7.732 7.732 0 0 0-.422 2.508ZM1104.42 306.151c-.031-.031-.047-.078-.047-.141-.031-.062-.047-.172-.047-.328 0-.594.25-1.008.75-1.242.5-.235.984-.352 1.453-.352.063 0 .133.008.211.024.078.015.18.023.305.023.094.031.234.047.422.047l6.562 5.531c1.125-1.625 2.039-2.89 2.742-3.797.703-.906 1.258-1.57 1.664-1.992.407-.422.711-.672.914-.75.204-.078.352-.117.446-.117h.726c.266 0 .539.023.821.07.281.047.523.149.726.305.203.156.352.406.446.75a34.264 34.264 0 0 0-1.5 1.594 15.827 15.827 0 0 0-2.461 3.75c-.36.75-.727 1.594-1.102 2.531.594.438 1.336 1.055 2.227 1.852.89.796 1.796 1.671 2.718 2.625a93.176 93.176 0 0 1 2.696 2.906c.875.984 1.601 1.914 2.179 2.789.578.875.953 1.625 1.125 2.25.172.625.055 1.031-.351 1.219-.438.562-.735.976-.891 1.242-.156.265-.32.351-.492.258-.172-.094-.398-.391-.68-.891-.281-.5-.789-1.211-1.523-2.133-.735-.922-1.742-2.086-3.024-3.492-1.281-1.406-2.984-3.078-5.109-5.016l-.375 11.579c0 .031-.062.093-.187.187s-.258.195-.399.305a4.471 4.471 0 0 1-.445.304 6.454 6.454 0 0 1-.422.235h-1.031a10.833 10.833 0 0 1-.633-.563c-.266-.25-.399-.406-.399-.468v-13.079l-8.015-8.015ZM1127.43 304.651c0-.094.016-.172.047-.235 0-.062.016-.14.047-.234.125-.156.313-.359.563-.609.25-.25.406-.375.468-.375h9.422c0-.344-.047-.891-.14-1.641-.094-.75-.18-1.578-.258-2.484a23.992 23.992 0 0 1-.07-2.836c.031-.985.164-1.875.398-2.672.234-.797.609-1.453 1.125-1.969s1.242-.773 2.18-.773c0 3.156.218 5.687.656 7.593.437 1.907 1.023 3.375 1.758 4.407.734 1.031 1.57 1.703 2.508 2.015a7.84 7.84 0 0 0 2.882.399 13.68 13.68 0 0 0 2.883-.446 19.48 19.48 0 0 1 2.508-.515c.734-.094 1.32-.024 1.758.211.437.234.656.789.656 1.664 0 .656-.148 1.125-.445 1.406-.297.281-.867.5-1.711.656-.25.032-.664.086-1.242.164-.579.078-1.227.149-1.946.211l-4.593.422c-.719.063-1.375.102-1.969.117-.594.016-1.031.024-1.313.024l-.093 1.547c0 1.375.218 2.711.656 4.007a72.34 72.34 0 0 0 1.429 3.868 75.708 75.708 0 0 1 1.43 3.843c.438 1.282.656 2.61.656 3.985 0 .25-.023.508-.07.773a1.76 1.76 0 0 1-.281.703c-.141.203-.344.36-.61.469-.265.109-.632.086-1.101-.07-1.188-.313-2.07-.985-2.649-2.016-.578-1.031-1.007-2.258-1.289-3.68a33.486 33.486 0 0 1-.562-4.523 52.46 52.46 0 0 0-.445-4.477c-.204-1.39-.524-2.578-.961-3.562-.438-.984-1.141-1.586-2.11-1.805l-9.047-2.062c-.125 0-.312-.133-.562-.399-.25-.265-.406-.461-.469-.586a.521.521 0 0 1-.047-.234.654.654 0 0 1-.047-.281ZM1147.5 343.041c.906 0 1.734.235 2.484.704.75.468 1.539.976 2.367 1.523a23.236 23.236 0 0 0 2.696 1.523c.969.469 2.094.704 3.375.704a14.37 14.37 0 0 0 3.75-.493 10.484 10.484 0 0 0 3.281-1.5 7.606 7.606 0 0 0 2.344-2.625c.594-1.078.89-2.351.89-3.82 0-2.437-.195-4.969-.586-7.594a97.241 97.241 0 0 0-1.5-7.851 163.049 163.049 0 0 0-1.968-7.617c-.703-2.469-1.352-4.75-1.946-6.844 0-.031-.015-.11-.046-.235a1.338 1.338 0 0 1-.047-.234c0-.625.218-1.055.656-1.289a2.935 2.935 0 0 1 1.406-.352l1.031.094c.969 2.438 1.883 4.93 2.743 7.477a100.549 100.549 0 0 1 2.273 7.758 77.482 77.482 0 0 1 1.547 7.898c.375 2.641.562 5.258.562 7.852 0 2.031-.351 3.875-1.054 5.531-.703 1.656-1.68 3.062-2.93 4.219-1.25 1.156-2.742 2.046-4.477 2.671-1.734.625-3.617.938-5.648.938-1.344 0-2.68-.149-4.008-.445a11.871 11.871 0 0 1-3.609-1.43 7.684 7.684 0 0 1-2.602-2.602c-.656-1.078-.984-2.398-.984-3.961Zm11.016-47.437v-.563c0-.281.031-.57.093-.867.063-.297.172-.554.328-.773.157-.219.391-.328.704-.328.531 0 .937.07 1.218.211.282.14.485.312.61.515s.203.453.234.75.047.633.047 1.008c0 .25-.016.531-.047.844a4.123 4.123 0 0 1-.187.89c-.094.282-.25.508-.469.68-.219.172-.516.258-.891.258s-.672-.086-.89-.258a1.627 1.627 0 0 1-.493-.633 2.818 2.818 0 0 1-.211-.843 9.051 9.051 0 0 1-.046-.891ZM1181.71 326.166c.5-.343 1.101-.789 1.804-1.336a50.101 50.101 0 0 0 2.133-1.757 24.076 24.076 0 0 0 2.016-1.969c.625-.688 1.117-1.352 1.476-1.992.36-.641.539-1.242.539-1.805 0-.562-.281-1.031-.843-1.406-1 0-2.094.039-3.282.117a45.541 45.541 0 0 1-3.562.094 22.39 22.39 0 0 1-3.445-.305c-1.11-.187-2.102-.531-2.977-1.031-.875-.5-1.57-1.211-2.086-2.133-.516-.922-.773-2.102-.773-3.539 0-1.688.32-3.211.961-4.57a12.508 12.508 0 0 1 2.554-3.61 19.02 19.02 0 0 1 3.586-2.765 31.137 31.137 0 0 1 4.008-2.039 5.97 5.97 0 0 1 2.25 1.171 10.095 10.095 0 0 1 1.781 1.875c-.218.688-.648 1.219-1.289 1.594-.64.375-1.375.703-2.203.985-.828.281-1.695.578-2.601.89a9.853 9.853 0 0 0-2.461 1.242 6.573 6.573 0 0 0-1.852 2.016c-.5.828-.75 1.914-.75 3.258 0 1 .25 1.734.75 2.203.5.469 1.156.789 1.969.961.812.172 1.734.234 2.765.187a76.462 76.462 0 0 0 3.164-.211 44.969 44.969 0 0 1 3.165-.164c1.031-.015 1.953.11 2.765.375.813.266 1.461.696 1.945 1.289.485.594.727 1.469.727 2.625 0 .5-.164 1.141-.492 1.922a18.596 18.596 0 0 1-1.313 2.508 22.119 22.119 0 0 1-1.922 2.649 22.09 22.09 0 0 1-2.296 2.367 14.386 14.386 0 0 1-2.391 1.734c-.797.453-1.539.68-2.227.68-.656 0-1.086-.235-1.289-.703a3.516 3.516 0 0 1-.304-1.407ZM1201.4 324.479c1.406 0 2.11.734 2.11 2.203-.344.906-.782 1.508-1.313 1.805-.531.297-1.023.406-1.477.328-.453-.078-.859-.305-1.218-.68-.36-.375-.555-.797-.586-1.265-.031-.469.14-.93.515-1.383.375-.453 1.032-.789 1.969-1.008ZM1206.46 318.76c0-1.937.453-3.742 1.359-5.414a14.226 14.226 0 0 1 3.586-4.312 17.544 17.544 0 0 1 5.016-2.836 16.163 16.163 0 0 1 5.648-1.032c1.063 0 2.008.344 2.836 1.032a9.078 9.078 0 0 1 2.086 2.507c.562.985.992 2.024 1.289 3.118.297 1.093.445 2.047.445 2.859 0 1.75-.422 3.445-1.265 5.086a15.98 15.98 0 0 1-3.282 4.359 17.011 17.011 0 0 1-4.546 3.071c-1.688.781-3.375 1.172-5.063 1.172-1.5 0-2.766-.258-3.797-.774-1.031-.516-1.859-1.203-2.484-2.062-.625-.86-1.086-1.875-1.383-3.047a15.122 15.122 0 0 1-.445-3.727Zm3.984.469c0 .812.07 1.523.211 2.133.141.609.391 1.133.75 1.57.359.438.836.773 1.43 1.008.593.234 1.328.351 2.203.351 1.156 0 2.312-.32 3.469-.961a12.648 12.648 0 0 0 3.117-2.437 12.664 12.664 0 0 0 2.226-3.258c.563-1.187.844-2.344.844-3.469 0-.5-.047-1.046-.141-1.64a6.672 6.672 0 0 0-.468-1.641 3.437 3.437 0 0 0-.938-1.265c-.406-.344-.922-.516-1.547-.516-.562 0-1.226.187-1.992.562-.766.375-1.562.86-2.391 1.454a23.7 23.7 0 0 0-2.437 2.015 32.54 32.54 0 0 0-2.18 2.25c-.656.75-1.179 1.469-1.57 2.156-.391.688-.586 1.25-.586 1.688ZM1230.56 308.588c0-.281.016-.57.047-.867.032-.297.094-.562.188-.797.094-.234.242-.429.445-.586.203-.156.492-.234.867-.234.313 0 .664.242 1.055.726.391.485.789 1.094 1.195 1.829.407.734.805 1.539 1.196 2.414.39.875.734 1.679 1.031 2.414.297.734.539 1.367.726 1.898.188.531.297.813.329.844.406-1.094.859-2.281 1.359-3.563a19.009 19.009 0 0 1 1.851-3.586 10.95 10.95 0 0 1 2.625-2.789c1.016-.75 2.258-1.125 3.727-1.125.75 0 1.461.118 2.133.352a5.323 5.323 0 0 1 1.781 1.031c.516.453.93.992 1.242 1.617.313.625.469 1.344.469 2.157 0 .687-.273 1.172-.82 1.453-.547.281-1.164.422-1.852.422h-.469l-2.015-2.016c-.063 0-.11-.016-.141-.047a.541.541 0 0 1-.164-.023.506.506 0 0 0-.164-.024c-1.094 0-1.945.305-2.555.914-.609.61-1.07 1.36-1.382 2.25a11.088 11.088 0 0 0-.586 2.813 33.905 33.905 0 0 0-.118 2.695c0 .625.063 1.258.188 1.899.125.64.266 1.265.422 1.875.156.609.297 1.234.422 1.875.125.64.187 1.304.187 1.992 0 1.312-.703 1.969-2.109 1.969-.781 0-1.594-.415-2.438-1.243-.843-.828-1.679-1.882-2.508-3.164a39.782 39.782 0 0 1-2.367-4.242 57.57 57.57 0 0 1-1.968-4.523 43.973 43.973 0 0 1-1.336-3.985c-.329-1.187-.493-2.062-.493-2.625ZM1266.6 353.213c1.75 0 3.313-.32 4.688-.961a10.227 10.227 0 0 0 3.492-2.625 12.104 12.104 0 0 0 2.203-3.797 12.88 12.88 0 0 0 .774-4.429c0-.781-.04-1.813-.118-3.094a98.275 98.275 0 0 0-.351-4.172 55.207 55.207 0 0 0-.68-4.594 39.16 39.16 0 0 0-1.101-4.429c-.438-1.391-.977-2.61-1.618-3.657-.64-1.046-1.382-1.789-2.226-2.226a41.144 41.144 0 0 1-2.391 1.711c-.781.515-1.594.945-2.437 1.289-.844.344-1.719.617-2.625.82-.907.203-1.875.305-2.907.305-1.343 0-2.492-.125-3.445-.375-.953-.25-1.75-.672-2.391-1.266-.64-.593-1.117-1.375-1.429-2.343-.313-.969-.469-2.188-.469-3.657 0-1.031.25-2.039.75-3.023.5-.985 1.164-1.906 1.992-2.766a18.2 18.2 0 0 1 2.813-2.367 24.078 24.078 0 0 1 3.234-1.875 18.375 18.375 0 0 1 3.281-1.219c1.078-.281 2.039-.422 2.883-.422.813 0 1.485.024 2.016.071.531.047.984.172 1.359.375s.695.515.961.937c.266.422.524.992.774 1.711a233.258 233.258 0 0 0 2.484 7.875 203.604 203.604 0 0 1 2.672 8.672 105.67 105.67 0 0 1 2.133 8.977c.578 3.015.867 5.929.867 8.742 0 2.5-.352 4.617-1.055 6.351-.703 1.735-1.625 3.157-2.766 4.266a12.1 12.1 0 0 1-3.89 2.555 16.71 16.71 0 0 1-4.383 1.148 23.097 23.097 0 0 1-4.266.117c-1.375-.093-2.562-.273-3.562-.539-1-.265-1.758-.57-2.274-.914-.515-.344-.64-.633-.375-.867.266-.234.977-.398 2.133-.492 1.157-.094 2.907-.031 5.25.187Zm.657-45.234c-2.313.5-4.18 1.195-5.602 2.086-1.422.89-2.484 1.844-3.188 2.859-.703 1.016-1.085 2.031-1.148 3.047-.062 1.016.125 1.883.563 2.602.437.718 1.07 1.257 1.898 1.617.828.359 1.773.375 2.836.047 1.062-.328 2.195-1.039 3.398-2.133 1.203-1.094 2.414-2.719 3.633-4.875 0-.531.008-1.109.024-1.734a6.588 6.588 0 0 0-.164-1.711 2.664 2.664 0 0 0-.704-1.289c-.343-.344-.859-.516-1.546-.516Z" style="fill-rule:nonzero"/></g><path id="NextJS" d="M1062.41 107.714h76.239v6.06h-69.25v45.606h65.121v6.06h-65.121v50.071h70.044v6.06h-77.033V107.714Zm83.069 0h8.1l35.896 50.072 36.691-50.072 49.904-63.602-81.988 118.936 42.249 58.523h-8.418l-38.438-53.261-38.596 53.261h-8.259l42.567-58.523-39.708-55.334Zm93.87 6.06v-6.06h86.881v6.06h-40.026v107.797h-6.989V113.774h-39.866Zm-272.317-6.06h8.735l120.461 180.258-49.781-66.401-72.109-105.246-.318 105.246h-6.988V107.714Zm358.493 105.969c-1.427 0-2.498-1.107-2.498-2.536 0-1.43 1.071-2.536 2.498-2.536 1.445 0 2.499 1.106 2.499 2.536 0 1.429-1.054 2.536-2.499 2.536Zm6.868-6.672h3.739c.051 2.025 1.53 3.387 3.706 3.387 2.43 0 3.807-1.464 3.807-4.204v-17.36h3.808v17.377c0 4.936-2.856 7.778-7.581 7.778-4.437 0-7.479-2.757-7.479-6.978Zm20.04-.221h3.774c.323 2.331 2.6 3.812 5.881 3.812 3.059 0 5.303-1.583 5.303-3.761 0-1.872-1.428-2.996-4.674-3.762l-3.162-.766c-4.436-1.038-6.459-3.182-6.459-6.791 0-4.374 3.57-7.284 8.924-7.284 4.98 0 8.618 2.91 8.839 7.046h-3.706c-.357-2.264-2.328-3.676-5.184-3.676-3.009 0-5.014 1.446-5.014 3.659 0 1.753 1.291 2.757 4.487 3.506l2.703.664c5.031 1.174 7.105 3.217 7.105 6.91 0 4.698-3.638 7.642-9.451 7.642-5.439 0-9.094-2.808-9.366-7.199Z" style="fill-rule:nonzero"/><g><path d="M1658.31 296.243v-1.805c0-.797.079-1.594.235-2.391.156-.796.406-1.492.75-2.086.344-.593.875-.89 1.594-.89.406 0 .742.351 1.007 1.055.266.703.485 1.578.657 2.625.171 1.046.296 2.203.375 3.468.078 1.266.14 2.461.187 3.586.047 1.125.086 2.102.117 2.93.032.828.078 1.336.141 1.523.094.5.273 1.25.539 2.25s.555 2.133.867 3.399c.313 1.265.656 2.586 1.031 3.961.375 1.375.727 2.687 1.055 3.937.328 1.25.633 2.375.914 3.375s.5 1.719.656 2.156c0 .063.016.157.047.282.032.125.047.218.047.281 0 .344-.117.617-.351.82-.235.203-.516.36-.844.469-.328.109-.664.18-1.008.211s-.656.047-.937.047c-.125 0-.305-.016-.54-.047a4.752 4.752 0 0 0-.445-.047c-.656-2.187-1.351-4.492-2.086-6.914a125.391 125.391 0 0 1-1.992-7.383 89.86 89.86 0 0 1-1.453-7.523 49.457 49.457 0 0 1-.563-7.289ZM1669.37 296.243v-1.805c0-.797.078-1.594.234-2.391.157-.796.407-1.492.75-2.086.344-.593.875-.89 1.594-.89.406 0 .742.351 1.008 1.055.265.703.484 1.578.656 2.625.172 1.046.297 2.203.375 3.468.078 1.266.141 2.461.188 3.586.046 1.125.086 2.102.117 2.93.031.828.078 1.336.14 1.523.094.5.274 1.25.539 2.25.266 1 .555 2.133.868 3.399.312 1.265.656 2.586 1.031 3.961.375 1.375.726 2.687 1.055 3.937.328 1.25.632 2.375.914 3.375.281 1 .5 1.719.656 2.156 0 .063.016.157.047.282.031.125.047.218.047.281 0 .344-.118.617-.352.82-.234.203-.516.36-.844.469-.328.109-.664.18-1.007.211a10.55 10.55 0 0 1-.938.047c-.125 0-.305-.016-.539-.047a4.786 4.786 0 0 0-.445-.047c-.657-2.187-1.352-4.492-2.086-6.914a123.854 123.854 0 0 1-1.992-7.383 89.865 89.865 0 0 1-1.454-7.523 49.452 49.452 0 0 1-.562-7.289ZM1679.4 302.758c0-.093.016-.172.047-.234a.77.77 0 0 1 .047-.234c.125-.157.312-.36.562-.61.25-.25.407-.375.469-.375h9.422c0-.344-.047-.89-.141-1.64a67.042 67.042 0 0 1-.257-2.485 23.976 23.976 0 0 1-.071-2.836c.032-.984.164-1.875.399-2.672.234-.796.609-1.453 1.125-1.968.515-.516 1.242-.774 2.179-.774 0 3.156.219 5.688.657 7.594.437 1.906 1.023 3.375 1.757 4.406.735 1.031 1.571 1.703 2.508 2.016a7.869 7.869 0 0 0 2.883.398 13.7 13.7 0 0 0 2.883-.445 19.43 19.43 0 0 1 2.508-.516c.734-.093 1.32-.023 1.758.211.437.235.656.789.656 1.664 0 .657-.149 1.125-.446 1.407-.296.281-.867.5-1.71.656-.25.031-.665.086-1.243.164-.578.078-1.226.148-1.945.211l-4.594.422c-.718.062-1.375.101-1.968.117-.594.016-1.032.023-1.313.023l-.094 1.547c0 1.375.219 2.711.657 4.008a71.99 71.99 0 0 0 1.429 3.867 76.71 76.71 0 0 1 1.43 3.844c.437 1.281.656 2.609.656 3.984 0 .25-.023.508-.07.774-.047.265-.141.5-.281.703a1.342 1.342 0 0 1-.61.469c-.265.109-.633.086-1.101-.071-1.188-.312-2.071-.984-2.649-2.015-.578-1.032-1.008-2.258-1.289-3.68a33.366 33.366 0 0 1-.562-4.523 52.445 52.445 0 0 0-.446-4.477c-.203-1.391-.523-2.578-.961-3.562-.437-.985-1.14-1.586-2.109-1.805l-9.047-2.063c-.125 0-.312-.132-.562-.398-.25-.266-.407-.461-.469-.586a.527.527 0 0 1-.047-.234.662.662 0 0 1-.047-.282ZM1709.78 302.149c0-.281.008-.57.024-.867.015-.297.078-.578.187-.844s.266-.469.469-.609c.203-.141.508-.211.914-.211h.281a.782.782 0 0 0 .235.047c.593.812 1.109 1.851 1.546 3.117.438 1.265.86 2.609 1.266 4.031.406 1.422.844 2.859 1.313 4.313.468 1.453 1.078 2.757 1.828 3.914.75 1.156 1.672 2.078 2.765 2.765 1.094.688 2.453.985 4.078.891.719 0 1.188-.391 1.407-1.172.218-.781.336-1.781.351-3a60.66 60.66 0 0 0-.094-4.031 37.626 37.626 0 0 1 0-4.196c.079-1.328.313-2.492.704-3.492.39-1 1.07-1.672 2.039-2.015.406.812.742 2.086 1.007 3.82.266 1.734.461 3.734.586 6 .125 2.266.188 4.719.188 7.359 0 2.641-.063 5.266-.188 7.875-.125 2.61-.312 5.117-.562 7.524-.25 2.406-.531 4.515-.844 6.328-.312 1.812-.68 3.242-1.101 4.289-.422 1.047-.868 1.492-1.336 1.336-.657-.625-1.164-1.438-1.524-2.438-.359-1-.609-2.109-.75-3.328a28.262 28.262 0 0 1-.164-3.867c.031-1.359.086-2.727.164-4.102.078-1.375.172-2.718.281-4.031.11-1.312.165-2.515.165-3.609-1.125.094-2.274-.078-3.446-.516-1.172-.437-2.32-1.117-3.445-2.039-1.125-.922-2.195-2.039-3.211-3.351-1.016-1.313-1.906-2.797-2.672-4.454a27.074 27.074 0 0 1-1.805-5.367 27.307 27.307 0 0 1-.656-6.07ZM1739.26 322.586c1.406 0 2.109.735 2.109 2.204-.344.906-.781 1.507-1.313 1.804-.531.297-1.023.407-1.476.328-.453-.078-.86-.304-1.219-.679-.359-.375-.555-.797-.586-1.266-.031-.469.141-.93.516-1.383.375-.453 1.031-.789 1.969-1.008ZM1743.29 320.852c0-1.812.453-3.422 1.359-4.828a14.804 14.804 0 0 1 3.375-3.68 22.982 22.982 0 0 1 4.36-2.672 51.163 51.163 0 0 1 4.359-1.828c1.344-.484 2.469-.875 3.375-1.172.906-.296 1.359-.539 1.359-.726 0-1.094-.054-2.164-.164-3.211a237.078 237.078 0 0 0-.351-3.164 239.036 239.036 0 0 1-.352-3.164 30.087 30.087 0 0 1-.164-3.117v-3.047c1.281-.469 2.195-.422 2.742.14.547.563.633 1.532.258 2.907.125.687.297 1.765.516 3.234.218 1.469.461 3.125.726 4.969.266 1.843.547 3.781.844 5.812.297 2.031.578 3.977.844 5.836.265 1.86.492 3.516.679 4.969l.422 3.258c.032.156.063.461.094.914s.055.937.07 1.453l.047 1.43c.016.437.024.75.024.937-1.188 0-1.993-.047-2.414-.141-.422-.093-.688-.281-.797-.562-.11-.281-.164-.688-.164-1.219 0-.531-.157-1.265-.469-2.203-1.156.906-2.25 1.656-3.281 2.25a18.299 18.299 0 0 1-3.094 1.43c-1.031.359-2.07.609-3.117.75-1.047.14-2.164.211-3.352.211-1 0-1.961-.086-2.883-.258-.922-.172-1.742-.477-2.461-.914a5.002 5.002 0 0 1-1.734-1.781c-.437-.75-.656-1.688-.656-2.813Zm4.078-.984c0 .5.109.906.328 1.218.219.313.5.579.844.797.344.219.711.368 1.101.446.391.078.774.117 1.149.117 1.094 0 2.273-.211 3.539-.633a13.328 13.328 0 0 0 3.515-1.781 10.356 10.356 0 0 0 2.672-2.742 6.164 6.164 0 0 0 1.055-3.469c0-.969-.172-1.641-.516-2.016-.343-.375-1-.562-1.968-.562-1 0-2.164.234-3.493.703a19.009 19.009 0 0 0-3.843 1.875c-1.235.781-2.274 1.695-3.117 2.742-.844 1.047-1.266 2.148-1.266 3.305ZM1770.48 313.352c0-1.687.203-3.375.61-5.062.406-1.688 1.054-3.204 1.945-4.547a10.576 10.576 0 0 1 3.469-3.282c1.422-.843 3.148-1.265 5.179-1.265 1.157 0 2.172.211 3.047.633.875.422 1.61.976 2.203 1.664a6.86 6.86 0 0 1 1.336 2.414c.297.922.446 1.883.446 2.883 0 1.593-.368 3.14-1.102 4.64a13.324 13.324 0 0 1-2.953 3.961 12.42 12.42 0 0 1-4.242 2.578 9.107 9.107 0 0 1-4.875.399c.031.906.336 1.633.914 2.179a5.712 5.712 0 0 0 2.086 1.243c.812.281 1.656.461 2.531.539.875.078 1.656.117 2.344.117.719 0 1.39-.063 2.015-.188.625-.125 1.25-.265 1.875-.422a37.397 37.397 0 0 1 1.899-.421c.64-.125 1.32-.188 2.039-.188.281 0 .562.016.844.047.281.031.547.102.797.211s.453.281.609.516c.156.234.234.523.234.867 0 .593-.218 1.086-.656 1.476-.437.391-.992.727-1.664 1.008-.672.281-1.414.492-2.227.633-.812.141-1.601.25-2.367.328-.765.078-1.469.125-2.109.141-.641.015-1.117.023-1.43.023-2 0-3.797-.32-5.39-.961-1.594-.64-2.938-1.531-4.032-2.672-1.093-1.14-1.929-2.515-2.508-4.125-.578-1.609-.867-3.398-.867-5.367Zm4.969-3.047c0 1.094.148 1.891.445 2.391.297.5 1.024.75 2.18.75.813 0 1.609-.149 2.391-.445a7.46 7.46 0 0 0 2.132-1.243 6.049 6.049 0 0 0 1.524-1.875c.375-.718.562-1.5.562-2.343 0-.469-.039-.954-.117-1.454-.078-.5-.242-.96-.492-1.382a3.203 3.203 0 0 0-.961-1.032c-.391-.265-.898-.398-1.523-.398-.938 0-1.789.211-2.555.633a6.375 6.375 0 0 0-1.945 1.64 7.454 7.454 0 0 0-1.219 2.25 7.763 7.763 0 0 0-.422 2.508ZM1796.35 301.961c.219-.75.477-1.093.774-1.031.297.063.664.422 1.101 1.078.438.657.93 1.532 1.477 2.625a835.858 835.858 0 0 1 1.758 3.539 84.526 84.526 0 0 0 2.039 3.868 35.85 35.85 0 0 0 2.297 3.609c.796 1.094 1.64 2 2.531 2.719.89.718 1.805 1.14 2.742 1.265l3.75-19.406c.063-.531.305-.836.727-.914a6.816 6.816 0 0 1 1.242-.117c1.406 0 2.109.656 2.109 1.969 0 .687-.062 1.781-.187 3.281a69.14 69.14 0 0 1-.61 4.945 99.69 99.69 0 0 1-1.031 5.531c-.406 1.891-.891 3.618-1.453 5.18-.563 1.563-1.211 2.844-1.945 3.844-.735 1-1.539 1.5-2.414 1.5-1.282 0-2.547-.43-3.797-1.289-1.25-.86-2.43-1.985-3.539-3.375a30.816 30.816 0 0 1-3.047-4.664 46.548 46.548 0 0 1-2.391-5.18 37.834 37.834 0 0 1-1.57-4.992c-.375-1.594-.563-2.922-.563-3.985Z" style="fill-rule:nonzero"/></g><path id="_11ty" d="M1703.71 224.335c-1.554 0-2.332-2.073-2.332-6.236V115.301c0-1.987-.397-2.919-1.209-2.798l-7.445 1.865c-1.365.121-2.038-1.244-2.038-4.094v-8.931c0-2.47.742-3.869 2.228-4.18l24.564-6.322c.19-.052.466-.087.829-.087 1.365 0 2.038 1.451 2.038 4.371v122.992c0 4.163-.812 6.236-2.418 6.236l-14.217-.018Zm63.621.19c-2.487 0-4.629-.172-6.461-.518-1.831-.345-3.731-1.123-5.717-2.332-1.987-1.209-3.611-2.867-4.889-4.975-1.278-2.107-2.315-5.061-3.109-8.844-.795-3.783-1.209-8.275-1.209-13.491v-47.712c0-1.243-.346-1.865-1.02-1.865h-5.769c-1.555 0-2.332-1.486-2.332-4.457v-5.027c0-3.04.777-4.56 2.332-4.56h5.769c.674 0 1.02-.829 1.02-2.505l1.675-36.189c.19-3.282.985-4.923 2.419-4.923h9.31c1.555 0 2.332 1.641 2.332 4.923v36.189c0 1.676.363 2.505 1.123 2.505h11.867c1.555 0 2.333 1.52 2.333 4.56v5.027c0 2.971-.778 4.457-2.333 4.457h-11.901c-.432 0-.726.104-.881.328-.156.207-.225.726-.225 1.537v48.005c0 3.593.225 6.599.691 8.983.466 2.384 1.14 4.146 2.038 5.251.899 1.106 1.797 1.866 2.695 2.229.898.38 2.004.552 3.3.552h6.598c1.676 0 2.505 1.158 2.505 3.438v5.579c0 2.54-.898 3.818-2.695 3.818l-9.466.017Zm35.706 11.159c1.416 0 2.66-1.157 3.714-3.489 1.053-2.332 1.589-5.631 1.589-9.915 0-1.002-.622-4.44-1.866-10.33l-18.241-75.816c-.121-.864-.19-1.555-.19-2.056 0-2.228.466-3.351 1.399-3.351h11.263c.863 0 1.572.293 2.142.881.57.587 1.002 1.779 1.295 3.575l12.092 64.001c.242.743.397 1.123.466 1.123.242 0 .38-.346.38-1.019l9.484-63.828c.242-1.866.639-3.11 1.157-3.766.519-.656 1.192-.985 2.004-.985h7.808c1.054 0 1.589 1.21 1.589 3.628 0 .553-.069 1.278-.19 2.142l-16.566 86.25c-1.295 7.134-2.729 12.593-4.284 16.376-1.554 3.783-3.282 6.357-5.216 7.721a13.4 13.4 0 0 1-7.636 2.142h-.932c-5.027 0-8.43-1.33-10.227-4.007-.501-.553-.742-1.987-.742-4.284 0-4.595.742-6.893 2.228-6.893.121 0 1.244.311 3.351.933 2.142.656 3.507.967 4.129.967Zm-146.14-11.176c-1.554 0-2.332-2.073-2.332-6.236V115.474c0-1.987-.397-2.92-1.209-2.799l-7.445 1.866c-1.365.121-2.038-1.244-2.038-4.094v-8.931c0-2.47.743-3.869 2.228-4.18l24.581-6.34c.19-.052.467-.086.829-.086 1.365 0 2.039 1.451 2.039 4.37v122.992c0 4.163-.812 6.236-2.419 6.236h-14.234Z" style="fill-rule:nonzero"/></svg>