<svg fill="currentColor" viewBox="0 0 2048 400" xmlns="http://www.w3.org/2000/svg" xml:space="preserve" style="fill-rule:evenodd;clip-rule:evenodd;stroke-linejoin:round;stroke-miterlimit:2"><path d="M456.288 343.979c1.75 0 3.313-.32 4.688-.961a10.252 10.252 0 0 0 3.492-2.625 12.085 12.085 0 0 0 2.203-3.797c.516-1.422.774-2.898.774-4.43 0-.781-.039-1.812-.117-3.093a99.905 99.905 0 0 0-.352-4.172 55.145 55.145 0 0 0-.68-4.594 39.178 39.178 0 0 0-1.101-4.43c-.438-1.39-.977-2.609-1.617-3.656-.641-1.047-1.383-1.789-2.227-2.227a40.34 40.34 0 0 1-2.391 1.711c-.781.516-1.593.946-2.437 1.289a16.5 16.5 0 0 1-2.625.821c-.906.203-1.875.304-2.906.304-1.344 0-2.493-.125-3.446-.375-.953-.25-1.75-.671-2.39-1.265-.641-.594-1.118-1.375-1.43-2.344-.313-.969-.469-2.187-.469-3.656 0-1.031.25-2.039.75-3.024.5-.984 1.164-1.906 1.992-2.765a18.135 18.135 0 0 1 2.813-2.367 24.078 24.078 0 0 1 3.234-1.875 18.23 18.23 0 0 1 3.282-1.219c1.078-.281 2.039-.422 2.882-.422.813 0 1.485.023 2.016.07.531.047.984.172 1.359.375s.696.516.961.938c.266.422.524.992.774 1.711a237.044 237.044 0 0 0 2.484 7.875 201.734 201.734 0 0 1 2.672 8.672 105.267 105.267 0 0 1 2.133 8.976c.578 3.016.867 5.93.867 8.742 0 2.5-.352 4.618-1.055 6.352s-1.625 3.156-2.765 4.266a12.113 12.113 0 0 1-3.891 2.554 16.674 16.674 0 0 1-4.383 1.149c-1.469.172-2.89.211-4.265.117-1.375-.094-2.563-.274-3.563-.539-1-.266-1.758-.571-2.273-.914-.516-.344-.641-.633-.375-.867.265-.235.976-.399 2.132-.493 1.157-.093 2.907-.031 5.25.188Zm.657-45.235c-2.313.5-4.18 1.196-5.602 2.086-1.422.891-2.484 1.844-3.187 2.86-.703 1.015-1.086 2.031-1.149 3.047-.062 1.015.125 1.882.563 2.601.437.719 1.07 1.258 1.898 1.617.828.36 1.774.375 2.836.047 1.063-.328 2.195-1.039 3.399-2.133 1.203-1.093 2.414-2.718 3.632-4.875 0-.531.008-1.109.024-1.734a6.593 6.593 0 0 0-.164-1.711 2.68 2.68 0 0 0-.703-1.289c-.344-.344-.86-.516-1.547-.516ZM473.304 301.463c0-.187.008-.492.024-.914l.093-2.695c.016-.438.024-.75.024-.938.343-.5.789-.906 1.336-1.218a9.164 9.164 0 0 1 1.664-.75c.093 1.687.359 3.484.797 5.39.437 1.906.906 3.821 1.406 5.742.5 1.922.945 3.821 1.336 5.696.39 1.875.586 3.625.586 5.25 0 1.406-.719 2.109-2.157 2.109-.875 0-1.609-.359-2.203-1.078-.593-.719-1.07-1.633-1.429-2.742a24.835 24.835 0 0 1-.868-3.703 40.518 40.518 0 0 1-.445-4.008 79.718 79.718 0 0 1-.14-3.61 185.38 185.38 0 0 1-.024-2.531Zm.656-17.578c.594.25 1.094.656 1.5 1.219.407.562.586 1.07.539 1.523-.046.453-.398.766-1.054.938-.657.172-1.75-.008-3.282-.539 0-.844.165-1.578.493-2.203.328-.625.929-.938 1.804-.938ZM481.367 295.416c0-.093.015-.172.046-.234a.77.77 0 0 1 .047-.234c.125-.157.313-.36.563-.61.25-.25.406-.375.469-.375h9.421c0-.344-.046-.89-.14-1.64-.094-.75-.18-1.579-.258-2.485a23.981 23.981 0 0 1-.07-2.836c.031-.984.164-1.875.398-2.672.235-.796.61-1.453 1.125-1.968.516-.516 1.242-.774 2.18-.774 0 3.156.219 5.688.656 7.594.438 1.906 1.024 3.375 1.758 4.406.734 1.031 1.57 1.703 2.508 2.016a7.863 7.863 0 0 0 2.883.398 13.68 13.68 0 0 0 2.882-.445c.938-.25 1.774-.422 2.508-.516.735-.093 1.32-.023 1.758.211.437.235.656.789.656 1.664 0 .657-.148 1.125-.445 1.407-.297.281-.867.5-1.711.656-.25.031-.664.086-1.242.164a42.3 42.3 0 0 1-1.946.211l-4.593.422a33.61 33.61 0 0 1-1.969.117 52.84 52.84 0 0 1-1.313.023l-.093 1.547c0 1.375.218 2.711.656 4.008a71.157 71.157 0 0 0 1.43 3.867 76.69 76.69 0 0 1 1.429 3.844 12.23 12.23 0 0 1 .657 3.984c0 .25-.024.508-.071.774-.047.265-.14.5-.281.703a1.345 1.345 0 0 1-.609.469c-.266.109-.633.086-1.102-.071-1.187-.312-2.07-.984-2.648-2.015-.578-1.032-1.008-2.258-1.289-3.68a33.363 33.363 0 0 1-.563-4.523 52.46 52.46 0 0 0-.445-4.477c-.203-1.391-.524-2.578-.961-3.562-.438-.985-1.141-1.586-2.11-1.805l-9.046-2.063c-.125 0-.313-.132-.563-.398-.25-.266-.406-.461-.469-.586a.527.527 0 0 1-.047-.234.664.664 0 0 1-.046-.282ZM513.898 288.573c0-.344.039-.774.117-1.289a5.934 5.934 0 0 1 .422-1.477c.203-.469.461-.867.773-1.195.313-.328.719-.493 1.219-.493.031 0 .109.016.234.047.125.032.204.047.235.047.531 1.938.844 3.86.937 5.766a40.902 40.902 0 0 1-.093 5.555 53.689 53.689 0 0 1-.704 5.203 114.67 114.67 0 0 0-.773 4.617 37.918 37.918 0 0 0-.375 3.797c-.047 1.125.117 2.078.492 2.859-.062-.5-.101-1.101-.117-1.805a10.488 10.488 0 0 1 .891-4.429 6.183 6.183 0 0 1 1.429-2.016c.625-.594 1.43-1.062 2.414-1.406.985-.344 2.211-.516 3.68-.516 1.531 0 2.852.266 3.961.797s2.023 1.258 2.742 2.18c.719.922 1.258 2 1.617 3.234.36 1.235.539 2.555.539 3.961 0 .656-.007 1.399-.023 2.227a8.885 8.885 0 0 1-.328 2.297 3.875 3.875 0 0 1-1.078 1.781c-.516.484-1.274.726-2.274.726 0-.5.032-1.179.094-2.039a47.66 47.66 0 0 0 .117-2.742 31.309 31.309 0 0 0-.093-2.953c-.079-1-.29-1.898-.633-2.695-.344-.797-.821-1.453-1.43-1.969s-1.445-.774-2.508-.774c-.375 0-.836.024-1.383.071a5.19 5.19 0 0 0-1.664.445c-.562.25-1.109.633-1.64 1.149-.532.515-.953 1.218-1.266 2.109-.312.891-.492 2.016-.539 3.375-.047 1.359.117 3.023.492 4.992-.219.563-.492.891-.82.984-.328.094-.742.141-1.242.141-1 0-1.821-.351-2.461-1.055-.641-.703-1.133-1.648-1.477-2.836-.344-1.187-.57-2.562-.679-4.125a55.431 55.431 0 0 1-.118-4.898 86.37 86.37 0 0 1 .258-5.203c.141-1.766.281-3.438.422-5.016.141-1.578.281-3.015.422-4.312.141-1.297.211-2.336.211-3.117ZM535.413 299.916c0-.187.008-.523.024-1.007l.047-3c.015-.454.023-.774.023-.961.219-.375.477-.743.774-1.102.297-.359.609-.609.937-.75.328-.141.688-.164 1.078-.07.391.093.789.406 1.196.937v.985c-.032.156-.094.523-.188 1.101a104.48 104.48 0 0 1-.328 1.899c-.125.687-.242 1.32-.352 1.898-.109.578-.164.945-.164 1.102 0 .593.063 1.336.188 2.226.125.891.305 1.82.539 2.789.234.969.531 1.938.891 2.906.359.969.789 1.836 1.289 2.602.5.766 1.054 1.398 1.664 1.898.609.5 1.32.75 2.132.75 1 0 1.883-.265 2.649-.796a7.607 7.607 0 0 0 1.992-2.063 12.114 12.114 0 0 0 1.383-2.859 26.54 26.54 0 0 0 .867-3.211c.219-1.078.375-2.117.469-3.117.094-1 .14-1.875.14-2.625s-.054-1.461-.164-2.133a27.953 27.953 0 0 0-.398-1.992 30.703 30.703 0 0 1-.398-1.946c-.11-.64-.165-1.289-.165-1.945 0-.594.211-1.016.633-1.266.422-.25.899-.375 1.43-.375.656 0 1.187.196 1.594.586.406.391.726.883.961 1.477.234.594.39 1.273.468 2.039.079.766.118 1.523.118 2.273 0 .75-.016 1.461-.047 2.133a35.413 35.413 0 0 0-.047 1.617c0 1.063-.078 2.266-.235 3.61a27.717 27.717 0 0 1-.82 4.148 34.071 34.071 0 0 1-1.453 4.195c-.578 1.375-1.281 2.602-2.109 3.68-.828 1.078-1.782 1.945-2.86 2.602-1.078.656-2.289.984-3.633.984-1.406 0-2.64-.336-3.703-1.008-1.062-.672-1.961-1.562-2.695-2.672-.734-1.109-1.352-2.367-1.852-3.773a28.263 28.263 0 0 1-1.148-4.219 39.415 39.415 0 0 1-.562-4.101 42.546 42.546 0 0 1-.165-3.446ZM566.585 317.026c-.968-2.813-1.882-5.446-2.742-7.899a105.777 105.777 0 0 1-2.25-7.218 65.532 65.532 0 0 1-1.523-7.196c-.375-2.437-.563-5.047-.563-7.828 0-.219.008-.617.024-1.195.015-.578.023-1.18.023-1.805s.008-1.226.024-1.805c.015-.578.023-.976.023-1.195.281-.625.773-1.203 1.477-1.734.703-.532 1.414-.797 2.132-.797 0 2.312.032 4.773.094 7.383.063 2.609.258 5.211.586 7.804a48.074 48.074 0 0 0 1.594 7.618c.734 2.484 1.773 4.757 3.117 6.82.031-.75.062-1.578.094-2.485a22.71 22.71 0 0 1 .258-2.718c.14-.907.367-1.782.679-2.625a6.697 6.697 0 0 1 1.383-2.25c.609-.657 1.406-1.172 2.391-1.547.984-.375 2.226-.547 3.726-.516 1.344 0 2.555.25 3.633.75a7.9 7.9 0 0 1 2.719 2.039 9.114 9.114 0 0 1 1.687 3 11.13 11.13 0 0 1 .586 3.633c0 1.719-.422 3.406-1.265 5.063a16.216 16.216 0 0 1-3.352 4.453 17.462 17.462 0 0 1-4.664 3.164c-1.719.797-3.469 1.195-5.25 1.195a7.185 7.185 0 0 1-2.625-.492 4.191 4.191 0 0 1-2.016-1.617Zm11.11-17.11c-.625.344-1.282.75-1.969 1.219-.688.469-1.32 1.195-1.898 2.18-.579.984-1.071 2.32-1.477 4.008-.406 1.687-.656 3.921-.75 6.703l1.031.093c.844 0 1.805-.265 2.883-.796a18.823 18.823 0 0 0 3.141-1.969 14.95 14.95 0 0 0 2.648-2.602c.75-.953 1.203-1.867 1.359-2.742.094-.531-.015-1.141-.328-1.828a9.287 9.287 0 0 0-1.242-1.992 8.608 8.608 0 0 0-1.687-1.617c-.61-.438-1.18-.657-1.711-.657ZM594.195 315.244c1.406 0 2.109.735 2.109 2.204-.344.906-.781 1.507-1.312 1.804-.532.297-1.024.407-1.477.328-.453-.078-.859-.304-1.219-.679-.359-.375-.554-.797-.586-1.266-.031-.469.141-.93.516-1.383.375-.453 1.031-.789 1.969-1.008ZM598.32 304.932c0-1.313.289-2.688.867-4.125a14.709 14.709 0 0 1 2.32-3.914 13.58 13.58 0 0 1 3.352-2.93c1.265-.781 2.601-1.172 4.008-1.172a6.53 6.53 0 0 1 2.156.375c.719.25 1.367.61 1.945 1.078a5.64 5.64 0 0 1 1.406 1.688c.36.656.539 1.391.539 2.203-.562 0-1.07-.062-1.523-.187a13.414 13.414 0 0 1-1.336-.446c-.437-.172-.867-.32-1.289-.445a4.853 4.853 0 0 0-1.383-.188c-1.281 0-2.32.321-3.117.961a6.907 6.907 0 0 0-1.898 2.414 10.966 10.966 0 0 0-.961 3.118 20.4 20.4 0 0 0-.258 3.117c0 .156.008.453.023.89l.094 2.766c.016.438.039.734.07.891.344.75.68 1.328 1.008 1.734.328.406.68.711 1.055.914.375.203.781.328 1.219.375.437.047.953.07 1.546.07.813 0 1.524-.125 2.133-.375.61-.25 1.18-.546 1.711-.89a11.964 11.964 0 0 0 1.5-1.149 15.24 15.24 0 0 1 1.477-1.171 7.84 7.84 0 0 1 1.687-.891c.61-.234 1.305-.352 2.086-.352 0 1.532-.273 2.891-.82 4.078a8.824 8.824 0 0 1-2.297 3.047c-.984.844-2.141 1.493-3.469 1.946-1.328.453-2.773.679-4.336.679-1.468 0-2.789-.5-3.961-1.5-1.171-1-2.171-2.226-3-3.679a19.539 19.539 0 0 1-1.898-4.618c-.438-1.625-.656-3.062-.656-4.312ZM621.382 309.526c0-1.938.453-3.742 1.36-5.414a14.215 14.215 0 0 1 3.586-4.313 17.6 17.6 0 0 1 5.015-2.836 16.19 16.19 0 0 1 5.649-1.031c1.062 0 2.007.344 2.836 1.031a9.077 9.077 0 0 1 2.085 2.508c.563.984.993 2.023 1.29 3.117.296 1.094.445 2.047.445 2.86 0 1.75-.422 3.445-1.266 5.086a16.008 16.008 0 0 1-3.281 4.359 16.99 16.99 0 0 1-4.547 3.07c-1.687.781-3.375 1.172-5.062 1.172-1.5 0-2.766-.258-3.797-.773-1.032-.516-1.86-1.203-2.485-2.063-.625-.859-1.086-1.875-1.382-3.047a15.12 15.12 0 0 1-.446-3.726Zm3.985.468c0 .813.07 1.524.211 2.133.14.61.39 1.133.75 1.571.359.437.835.773 1.429 1.007.594.235 1.328.352 2.203.352 1.157 0 2.313-.32 3.469-.961a12.671 12.671 0 0 0 3.117-2.437 12.727 12.727 0 0 0 2.227-3.258c.562-1.188.844-2.344.844-3.469 0-.5-.047-1.047-.141-1.641a6.678 6.678 0 0 0-.469-1.64 3.447 3.447 0 0 0-.937-1.266c-.407-.344-.922-.516-1.547-.516-.563 0-1.227.188-1.992.563-.766.375-1.563.859-2.391 1.453a23.735 23.735 0 0 0-2.437 2.016c-.797.75-1.524 1.5-2.18 2.25-.656.75-1.18 1.468-1.57 2.156-.391.687-.586 1.25-.586 1.687ZM644.445 299.354c0-.781.133-1.391.398-1.828.266-.438.836-.657 1.711-.657l1.031.047c.219.969.446 2.024.68 3.164.234 1.141.508 2.289.82 3.446a51.101 51.101 0 0 0 1.055 3.422c.391 1.125.867 2.14 1.43 3.046a5.27 5.27 0 0 0 1.218-2.109c.25-.812.438-1.633.563-2.461.125-.828.242-1.625.352-2.39.109-.766.335-1.422.679-1.969.344-.547.852-.946 1.524-1.196s1.601-.25 2.789 0c1.312 0 2.359.243 3.14.727a7.816 7.816 0 0 1 2.039 1.828 34.637 34.637 0 0 1 1.688 2.344 9.338 9.338 0 0 0 2.086 2.226l.703-1.523c.281-.609.633-1.25 1.055-1.922a37.9 37.9 0 0 1 1.359-2.015c.484-.672.992-1.282 1.523-1.829.532-.546 1.079-1 1.641-1.359.563-.359 1.109-.539 1.641-.539 1.281 0 2.39.398 3.328 1.195.937.797 1.742 1.797 2.414 3 .672 1.203 1.226 2.547 1.664 4.032a41.489 41.489 0 0 1 1.031 4.289c.25 1.375.43 2.632.539 3.773.11 1.141.164 1.961.164 2.461 0 .406-.093.719-.281.937a1.743 1.743 0 0 1-.703.493 3.44 3.44 0 0 1-.914.211 9.752 9.752 0 0 1-.914.046c-.063 0-.156-.007-.281-.023a6.253 6.253 0 0 1-.422-.07 18.25 18.25 0 0 1-.516-.141l-3.047-14.016c0-.093-.125-.273-.375-.539-.25-.265-.437-.429-.562-.492a.515.515 0 0 1-.235-.047.32.32 0 0 1-.14-.023.208.208 0 0 0-.094-.024c-.656 0-1.273.266-1.852.797-.578.532-1.117 1.203-1.617 2.016-.5.812-.969 1.719-1.406 2.719a41.8 41.8 0 0 0-1.172 2.976c-.344.985-.648 1.891-.914 2.719a67.354 67.354 0 0 1-.633 1.898c-.125.063-.375.118-.75.165-.375.046-.625.07-.75.07-.875 0-1.547-.305-2.015-.914-.469-.61-.852-1.367-1.149-2.274a23.57 23.57 0 0 1-.75-2.976 23.587 23.587 0 0 0-.75-2.977c-.297-.906-.703-1.664-1.219-2.273-.515-.61-1.242-.914-2.179-.914-.344 0-.672.343-.985 1.031-.312.687-.593 1.555-.843 2.602a63.228 63.228 0 0 0-.704 3.375 75.611 75.611 0 0 0-.539 3.375 58.403 58.403 0 0 0-.304 2.648l-.094 1.078c-.063.094-.188.195-.375.305a25.83 25.83 0 0 0-.586.351 2.677 2.677 0 0 1-.609.282 1.738 1.738 0 0 1-.446.093c-.875 0-1.718-.398-2.531-1.195-.812-.797-1.555-1.828-2.226-3.094a31.614 31.614 0 0 1-1.829-4.195 50.862 50.862 0 0 1-1.382-4.5 51.62 51.62 0 0 1-.868-3.984c-.203-1.188-.304-2.094-.304-2.719Z" style="fill-rule:nonzero"/><path id="github" d="M434.233 162.825h-37.45c-.967 0-1.751.785-1.751 1.751v18.31c0 .966.784 1.752 1.751 1.752h14.609v22.75s-3.28 1.118-12.35 1.118c-10.7 0-25.647-3.91-25.647-36.778 0-32.876 15.564-37.201 30.177-37.201 12.649 0 18.098 2.227 21.565 3.3 1.089.334 2.097-.751 2.097-1.718l4.178-17.691c0-.452-.153-.997-.669-1.367-1.408-1.004-9.998-5.811-31.701-5.811-25.001 0-50.647 10.636-50.647 61.77 0 51.135 29.362 58.754 54.105 58.754 20.487 0 32.915-8.754 32.915-8.754.512-.283.567-.999.567-1.327v-57.107a1.75 1.75 0 0 0-1.749-1.751Zm192.903-45.185c0-.974-.772-1.76-1.738-1.76h-21.087c-.964 0-1.747.786-1.747 1.76l.006 40.752h-32.869V117.64c0-.974-.776-1.76-1.74-1.76h-21.086c-.96 0-1.742.786-1.742 1.76v110.343c0 .973.782 1.766 1.742 1.766h21.086c.964 0 1.74-.793 1.74-1.766v-47.198h32.869l-.058 47.198c0 .973.783 1.766 1.747 1.766h21.137c.966 0 1.738-.793 1.74-1.766V117.64Zm-153.179 14.753c0-7.593-6.087-13.729-13.598-13.729-7.503 0-13.595 6.136-13.595 13.729 0 7.584 6.092 13.737 13.595 13.737 7.511 0 13.598-6.153 13.598-13.737Zm-1.673 94.58V153.83c0-.967-.78-1.758-1.744-1.758h-21.021c-.964 0-1.827.995-1.827 1.962v72.973c0 2.145 1.336 2.783 3.066 2.783h18.939c2.078 0 2.587-1.02 2.587-2.817Zm235.446-74.901h-20.926c-.96 0-1.741.791-1.741 1.764v54.105s-5.316 3.889-12.861 3.889c-7.545 0-9.548-3.423-9.548-10.811v-47.183c0-.973-.779-1.764-1.74-1.764h-21.237c-.959 0-1.744.791-1.744 1.764v50.755c0 21.944 12.23 27.313 29.055 27.313 13.802 0 24.931-7.626 24.931-7.626s.53 4.018.769 4.495c.241.476.865.955 1.54.955l13.511-.059c.958 0 1.744-.793 1.744-1.761l-.007-74.072c0-.973-.782-1.764-1.746-1.764Zm48.212 59.8c-7.258-.221-12.181-3.515-12.181-3.515v-34.943s4.857-2.977 10.816-3.51c7.536-.674 14.796 1.602 14.796 19.578 0 18.955-3.276 22.696-13.431 22.39Zm8.254-62.17c-11.885 0-19.969 5.302-19.969 5.302V117.64c0-.974-.778-1.76-1.74-1.76h-21.146a1.75 1.75 0 0 0-1.743 1.76v110.343c0 .973.781 1.766 1.745 1.766h14.672c.661 0 1.161-.341 1.53-.937.365-.593.891-5.088.891-5.088s8.648 8.194 25.017 8.194c19.217 0 30.238-9.747 30.238-43.76 0-34.012-17.602-38.456-29.495-38.456Zm-231.221 2.181h-15.818l-.024-20.897c0-.791-.408-1.186-1.322-1.186h-21.555c-.838 0-1.288.368-1.288 1.174v21.594s-10.802 2.608-11.533 2.819a1.75 1.75 0 0 0-1.263 1.681v13.571c0 .976.78 1.763 1.744 1.763h11.052v32.645c0 24.248 17.008 26.63 28.486 26.63 5.244 0 11.517-1.684 12.553-2.066.626-.231.99-.879.99-1.583l.018-14.928c0-.973-.823-1.761-1.749-1.761-.921 0-3.279.375-5.707.375-7.769 0-10.402-3.613-10.402-8.289l-.001-31.023h15.819c.964 0 1.745-.787 1.745-1.763v-16.998a1.75 1.75 0 0 0-1.745-1.758Z" style="fill-rule:nonzero"/><g><path d="M1383.21 343.979c1.75 0 3.312-.32 4.687-.961a10.252 10.252 0 0 0 3.492-2.625 12.085 12.085 0 0 0 2.203-3.797c.516-1.422.774-2.898.774-4.43 0-.781-.039-1.812-.117-3.093a99.905 99.905 0 0 0-.352-4.172 55.145 55.145 0 0 0-.68-4.594 39.178 39.178 0 0 0-1.101-4.43c-.438-1.39-.977-2.609-1.617-3.656-.641-1.047-1.383-1.789-2.227-2.227a40.015 40.015 0 0 1-2.391 1.711c-.781.516-1.593.946-2.437 1.289a16.5 16.5 0 0 1-2.625.821c-.906.203-1.875.304-2.906.304-1.344 0-2.493-.125-3.446-.375-.953-.25-1.75-.671-2.39-1.265-.641-.594-1.117-1.375-1.43-2.344-.312-.969-.469-2.187-.469-3.656 0-1.031.25-2.039.75-3.024.5-.984 1.164-1.906 1.992-2.765a18.135 18.135 0 0 1 2.813-2.367 24.078 24.078 0 0 1 3.234-1.875 18.23 18.23 0 0 1 3.282-1.219c1.078-.281 2.039-.422 2.882-.422.813 0 1.485.023 2.016.07.531.047.984.172 1.359.375s.696.516.961.938c.266.422.524.992.774 1.711a239.428 239.428 0 0 0 2.484 7.875 201.734 201.734 0 0 1 2.672 8.672 105.267 105.267 0 0 1 2.133 8.976c.578 3.016.867 5.93.867 8.742 0 2.5-.352 4.618-1.055 6.352s-1.625 3.156-2.765 4.266a12.113 12.113 0 0 1-3.891 2.554 16.674 16.674 0 0 1-4.383 1.149c-1.468.172-2.89.211-4.265.117-1.375-.094-2.563-.274-3.563-.539-1-.266-1.758-.571-2.273-.914-.516-.344-.641-.633-.375-.867.265-.235.976-.399 2.133-.493 1.156-.093 2.906-.031 5.25.188Zm.656-45.235c-2.313.5-4.18 1.196-5.602 2.086-1.422.891-2.484 1.844-3.187 2.86-.703 1.015-1.086 2.031-1.149 3.047-.062 1.015.125 1.882.563 2.601.437.719 1.07 1.258 1.898 1.617.828.36 1.774.375 2.836.047 1.063-.328 2.195-1.039 3.399-2.133 1.203-1.093 2.414-2.718 3.632-4.875 0-.531.008-1.109.024-1.734a6.593 6.593 0 0 0-.164-1.711 2.68 2.68 0 0 0-.703-1.289c-.344-.344-.86-.516-1.547-.516ZM1400.23 301.463c0-.187.008-.492.024-.914l.093-2.695c.016-.438.024-.75.024-.938.344-.5.789-.906 1.336-1.218a9.164 9.164 0 0 1 1.664-.75c.094 1.687.359 3.484.797 5.39.437 1.906.906 3.821 1.406 5.742.5 1.922.945 3.821 1.336 5.696.39 1.875.586 3.625.586 5.25 0 1.406-.719 2.109-2.156 2.109-.875 0-1.61-.359-2.204-1.078-.593-.719-1.07-1.633-1.429-2.742a24.716 24.716 0 0 1-.867-3.703 40.227 40.227 0 0 1-.446-4.008 79.718 79.718 0 0 1-.14-3.61 185.38 185.38 0 0 1-.024-2.531Zm.656-17.578c.594.25 1.094.656 1.5 1.219.407.562.586 1.07.539 1.523-.046.453-.398.766-1.054.938-.656.172-1.75-.008-3.281-.539 0-.844.164-1.578.492-2.203.328-.625.929-.938 1.804-.938ZM1408.29 295.416a.51.51 0 0 1 .047-.234c0-.063.015-.141.046-.234.125-.157.313-.36.563-.61.25-.25.406-.375.469-.375h9.422c0-.344-.047-.89-.141-1.64-.094-.75-.18-1.579-.258-2.485a24.197 24.197 0 0 1-.07-2.836c.031-.984.164-1.875.398-2.672.235-.796.61-1.453 1.125-1.968.516-.516 1.242-.774 2.18-.774 0 3.156.219 5.688.656 7.594.438 1.906 1.024 3.375 1.758 4.406.734 1.031 1.57 1.703 2.508 2.016a7.863 7.863 0 0 0 2.883.398 13.68 13.68 0 0 0 2.882-.445c.938-.25 1.774-.422 2.508-.516.735-.093 1.321-.023 1.758.211.438.235.656.789.656 1.664 0 .657-.148 1.125-.445 1.407-.297.281-.867.5-1.711.656-.25.031-.664.086-1.242.164a42.4 42.4 0 0 1-1.945.211l-4.594.422a33.61 33.61 0 0 1-1.969.117c-.594.016-1.031.023-1.312.023l-.094 1.547c0 1.375.219 2.711.656 4.008a72.005 72.005 0 0 0 1.43 3.867 76.69 76.69 0 0 1 1.429 3.844 12.23 12.23 0 0 1 .657 3.984c0 .25-.024.508-.071.774-.047.265-.14.5-.281.703a1.345 1.345 0 0 1-.609.469c-.266.109-.633.086-1.102-.071-1.187-.312-2.07-.984-2.648-2.015-.578-1.032-1.008-2.258-1.289-3.68a33.363 33.363 0 0 1-.563-4.523 52.46 52.46 0 0 0-.445-4.477c-.203-1.391-.524-2.578-.961-3.562-.438-.985-1.141-1.586-2.109-1.805l-9.047-2.063c-.125 0-.313-.132-.563-.398-.25-.266-.406-.461-.469-.586a.528.528 0 0 1-.046-.234.647.647 0 0 1-.047-.282ZM1440.59 292.51c0-.906-.063-1.789-.188-2.648-.125-.86-.156-1.625-.094-2.297.063-.672.305-1.211.727-1.617.422-.407 1.195-.61 2.32-.61.344.719.68 1.813 1.008 3.281.328 1.469.648 3.157.961 5.063.312 1.906.609 3.977.891 6.211.281 2.234.539 4.476.773 6.726.234 2.25.437 4.461.609 6.633.172 2.172.305 4.149.399 5.93-1.031.687-1.86.734-2.485.141-.625-.594-1.14-1.602-1.546-3.024-.407-1.422-.719-3.156-.938-5.203a436.44 436.44 0 0 1-.633-6.375 169.807 169.807 0 0 0-.726-6.516c-.282-2.14-.641-4.039-1.078-5.695ZM1470.59 312.994a96.386 96.386 0 0 0-3.071 2.18 20.256 20.256 0 0 1-2.508 1.617c-.812.438-1.679.766-2.601.985-.922.218-2.055.328-3.399.328-2.906 0-5.062-.774-6.468-2.32-1.407-1.547-2.11-3.852-2.11-6.915 0-1.187.157-2.421.469-3.703a19.395 19.395 0 0 1 1.383-3.82 22.302 22.302 0 0 1 2.18-3.609 16.913 16.913 0 0 1 2.859-3.024 14.025 14.025 0 0 1 3.398-2.086 9.609 9.609 0 0 1 3.821-.773c2.25.219 4.015.773 5.297 1.664a8.547 8.547 0 0 1 2.906 3.422c.656 1.39 1.109 2.937 1.359 4.64.25 1.704.445 3.461.586 5.274.141 1.812.32 3.625.539 5.437.219 1.813.672 3.485 1.36 5.016-.407 1.031-.79 1.758-1.149 2.18-.359.422-.758.492-1.195.211-.438-.282-.946-.969-1.524-2.063-.578-1.094-1.289-2.641-2.132-4.641Zm-16.172-4.031c0 1.781.336 3.086 1.007 3.914.672.828 1.868 1.242 3.586 1.242 1.282 0 2.508-.226 3.68-.679a9.702 9.702 0 0 0 3.07-1.875 9.114 9.114 0 0 0 2.11-2.883c.531-1.125.797-2.375.797-3.75 0-.563.015-1.352.047-2.367a16.343 16.343 0 0 0-.188-3.024c-.156-1-.453-1.867-.891-2.601-.437-.735-1.093-1.102-1.968-1.102a8.563 8.563 0 0 0-4.5 1.242 13.004 13.004 0 0 0-3.563 3.164 15.434 15.434 0 0 0-2.344 4.243c-.562 1.547-.843 3.039-.843 4.476ZM1486.62 317.026c-.969-2.813-1.883-5.446-2.742-7.899-.86-2.453-1.61-4.859-2.25-7.218a65.304 65.304 0 0 1-1.524-7.196c-.375-2.437-.562-5.047-.562-7.828 0-.219.007-.617.023-1.195.016-.578.024-1.18.024-1.805s.007-1.226.023-1.805c.016-.578.023-.976.023-1.195.282-.625.774-1.203 1.477-1.734.703-.532 1.414-.797 2.133-.797 0 2.312.031 4.773.094 7.383.062 2.609.257 5.211.585 7.804.329 2.594.86 5.133 1.594 7.618.735 2.484 1.774 4.757 3.117 6.82.032-.75.063-1.578.094-2.485a22.71 22.71 0 0 1 .258-2.718 13.46 13.46 0 0 1 .68-2.625 6.679 6.679 0 0 1 1.382-2.25c.61-.657 1.407-1.172 2.391-1.547s2.227-.547 3.727-.516c1.343 0 2.554.25 3.632.75a7.882 7.882 0 0 1 2.719 2.039 9.116 9.116 0 0 1 1.688 3c.39 1.141.586 2.352.586 3.633 0 1.719-.422 3.406-1.266 5.063a16.216 16.216 0 0 1-3.352 4.453 17.447 17.447 0 0 1-4.664 3.164c-1.718.797-3.468 1.195-5.25 1.195a7.185 7.185 0 0 1-2.625-.492 4.193 4.193 0 0 1-2.015-1.617Zm11.109-17.11c-.625.344-1.281.75-1.969 1.219-.687.469-1.32 1.195-1.898 2.18-.578.984-1.07 2.32-1.477 4.008-.406 1.687-.656 3.921-.75 6.703l1.032.093c.843 0 1.804-.265 2.882-.796a18.782 18.782 0 0 0 3.141-1.969 14.923 14.923 0 0 0 2.649-2.602c.75-.953 1.203-1.867 1.359-2.742.094-.531-.016-1.141-.328-1.828a9.366 9.366 0 0 0-1.242-1.992 8.64 8.64 0 0 0-1.688-1.617c-.609-.438-1.18-.657-1.711-.657ZM1514.23 315.244c1.406 0 2.11.735 2.11 2.204-.344.906-.782 1.507-1.313 1.804-.531.297-1.023.407-1.477.328-.453-.078-.859-.304-1.218-.679-.36-.375-.555-.797-.586-1.266-.031-.469.14-.93.515-1.383.375-.453 1.032-.789 1.969-1.008ZM1518.35 304.932c0-1.313.289-2.688.867-4.125a14.712 14.712 0 0 1 2.321-3.914 13.575 13.575 0 0 1 3.351-2.93c1.266-.781 2.602-1.172 4.008-1.172.719 0 1.438.125 2.156.375a6.43 6.43 0 0 1 1.946 1.078 5.656 5.656 0 0 1 1.406 1.688c.359.656.539 1.391.539 2.203-.563 0-1.07-.062-1.524-.187a13.31 13.31 0 0 1-1.335-.446c-.438-.172-.868-.32-1.29-.445a4.84 4.84 0 0 0-1.382-.188c-1.282 0-2.321.321-3.118.961a6.93 6.93 0 0 0-1.898 2.414 10.966 10.966 0 0 0-.961 3.118 20.4 20.4 0 0 0-.258 3.117c0 .156.008.453.024.89l.093 2.766c.016.438.04.734.071.891.344.75.679 1.328 1.008 1.734.328.406.679.711 1.054.914.375.203.782.328 1.219.375.438.047.953.07 1.547.07.812 0 1.523-.125 2.133-.375.609-.25 1.179-.546 1.711-.89a11.964 11.964 0 0 0 1.5-1.149c.468-.421.961-.812 1.476-1.171a7.848 7.848 0 0 1 1.688-.891c.609-.234 1.304-.352 2.086-.352 0 1.532-.274 2.891-.821 4.078a8.811 8.811 0 0 1-2.297 3.047c-.984.844-2.14 1.493-3.468 1.946-1.328.453-2.774.679-4.336.679-1.469 0-2.789-.5-3.961-1.5-1.172-1-2.172-2.226-3-3.679a19.584 19.584 0 0 1-1.899-4.618c-.437-1.625-.656-3.062-.656-4.312ZM1541.41 309.526c0-1.938.453-3.742 1.359-5.414a14.23 14.23 0 0 1 3.586-4.313 17.592 17.592 0 0 1 5.016-2.836 16.184 16.184 0 0 1 5.648-1.031c1.063 0 2.008.344 2.836 1.031a9.098 9.098 0 0 1 2.086 2.508c.562.984.992 2.023 1.289 3.117.297 1.094.445 2.047.445 2.86 0 1.75-.422 3.445-1.265 5.086a16.011 16.011 0 0 1-3.282 4.359 16.985 16.985 0 0 1-4.546 3.07c-1.688.781-3.375 1.172-5.063 1.172-1.5 0-2.766-.258-3.797-.773-1.031-.516-1.859-1.203-2.484-2.063-.625-.859-1.086-1.875-1.383-3.047a15.12 15.12 0 0 1-.445-3.726Zm3.984.468c0 .813.07 1.524.211 2.133.141.61.391 1.133.75 1.571.359.437.836.773 1.43 1.007.593.235 1.328.352 2.203.352 1.156 0 2.312-.32 3.469-.961a12.671 12.671 0 0 0 3.117-2.437 12.698 12.698 0 0 0 2.226-3.258c.563-1.188.844-2.344.844-3.469 0-.5-.047-1.047-.141-1.641a6.677 6.677 0 0 0-.468-1.64 3.45 3.45 0 0 0-.938-1.266c-.406-.344-.922-.516-1.547-.516-.562 0-1.226.188-1.992.563-.766.375-1.562.859-2.391 1.453a23.842 23.842 0 0 0-2.437 2.016 32.54 32.54 0 0 0-2.18 2.25c-.656.75-1.179 1.468-1.57 2.156-.391.687-.586 1.25-.586 1.687ZM1564.48 299.354c0-.781.133-1.391.399-1.828.265-.438.836-.657 1.711-.657l1.031.047c.219.969.445 2.024.679 3.164.235 1.141.508 2.289.821 3.446a51.094 51.094 0 0 0 1.054 3.422c.391 1.125.868 2.14 1.43 3.046a5.261 5.261 0 0 0 1.219-2.109c.25-.812.437-1.633.562-2.461.125-.828.243-1.625.352-2.39.109-.766.336-1.422.68-1.969.343-.547.851-.946 1.523-1.196.672-.25 1.602-.25 2.789 0 1.313 0 2.36.243 3.141.727a7.832 7.832 0 0 1 2.039 1.828c.578.735 1.14 1.516 1.687 2.344a9.358 9.358 0 0 0 2.086 2.226l.703-1.523c.282-.609.633-1.25 1.055-1.922a37.9 37.9 0 0 1 1.359-2.015c.485-.672.993-1.282 1.524-1.829.531-.546 1.078-1 1.641-1.359.562-.359 1.109-.539 1.64-.539 1.281 0 2.391.398 3.328 1.195.938.797 1.742 1.797 2.414 3 .672 1.203 1.227 2.547 1.664 4.032a41.246 41.246 0 0 1 1.032 4.289c.25 1.375.429 2.632.539 3.773.109 1.141.164 1.961.164 2.461 0 .406-.094.719-.281.937a1.746 1.746 0 0 1-.704.493 3.44 3.44 0 0 1-.914.211 9.735 9.735 0 0 1-.914.046c-.062 0-.156-.007-.281-.023a6.253 6.253 0 0 1-.422-.07 17.457 17.457 0 0 1-.515-.141l-3.047-14.016c0-.093-.125-.273-.375-.539-.25-.265-.438-.429-.563-.492a.508.508 0 0 1-.234-.047.321.321 0 0 1-.141-.023.202.202 0 0 0-.094-.024c-.656 0-1.273.266-1.851.797-.578.532-1.117 1.203-1.617 2.016-.5.812-.969 1.719-1.407 2.719-.437 1-.828 1.992-1.171 2.976-.344.985-.649 1.891-.915 2.719a64.803 64.803 0 0 1-.632 1.898c-.125.063-.375.118-.75.165-.375.046-.625.07-.75.07-.875 0-1.547-.305-2.016-.914-.469-.61-.852-1.367-1.148-2.274a23.57 23.57 0 0 1-.75-2.976 23.935 23.935 0 0 0-.75-2.977c-.297-.906-.704-1.664-1.219-2.273-.516-.61-1.242-.914-2.18-.914-.344 0-.672.343-.984 1.031-.313.687-.594 1.555-.844 2.602a63.263 63.263 0 0 0-.703 3.375 72.816 72.816 0 0 0-.539 3.375 58.59 58.59 0 0 0-.305 2.648 422.24 422.24 0 0 1-.094 1.078c-.062.094-.187.195-.375.305-.187.109-.382.226-.586.351a2.677 2.677 0 0 1-.609.282 1.733 1.733 0 0 1-.445.093c-.875 0-1.719-.398-2.531-1.195-.813-.797-1.555-1.828-2.227-3.094a31.614 31.614 0 0 1-1.828-4.195 50.544 50.544 0 0 1-1.383-4.5 51.112 51.112 0 0 1-.867-3.984c-.203-1.188-.305-2.094-.305-2.719Z" style="fill-rule:nonzero"/></g><g id="gitlab"><path id="path14_3_" d="M1541.95 129.147h-11.389l.052 84.899h46.132v-10.502h-34.742l-.053-74.397Z" style="fill-rule:nonzero"/><g id="g24_3_"><path id="path26_3_" d="M1620.64 199.148c-2.874 2.978-7.628 5.956-14.106 5.956-8.673 0-12.174-4.284-12.174-9.875 0-8.411 5.852-12.434 18.286-12.434 2.351 0 6.113.261 8.046.627v15.726h-.052Zm-11.808-51.462c-9.195 0-17.659 3.24-24.241 8.725l4.022 7.001c4.65-2.717 10.345-5.433 18.547-5.433 9.352 0 13.48 4.806 13.48 12.852v4.127c-1.829-.365-5.591-.627-7.889-.627-19.958 0-30.093 7.001-30.093 21.63 0 13.113 8.045 19.696 20.218 19.696 8.203 0 16.092-3.761 18.809-9.874l2.089 8.307h8.046v-43.468c-.052-13.741-6.008-22.936-22.988-22.936Z" style="fill-rule:nonzero"/></g><g id="g28_3_"><path id="path30_3_" d="M1668.57 205.493c-4.284 0-8.046-.523-10.867-1.829v-39.236c3.866-3.239 8.673-5.59 14.785-5.59 11.024 0 15.256 7.784 15.256 20.375 0 17.868-6.844 26.28-19.174 26.28m4.807-57.783c-10.188 0-15.674 6.948-15.674 6.948v-10.971l-.052-14.524h-11.128l.052 82.808c5.59 2.351 13.218 3.605 21.525 3.605 21.264 0 31.504-13.584 31.504-37.042-.053-18.547-9.509-30.824-26.227-30.824" style="fill-rule:nonzero"/></g><g id="g32_5_"><path id="path34_5_" d="M1417.94 138.359c10.084 0 16.614 3.343 20.846 6.739l4.911-8.516c-6.635-5.851-15.621-8.986-25.234-8.986-24.242 0-41.221 14.786-41.221 44.618 0 31.242 18.338 43.415 39.288 43.415 10.501 0 19.435-2.455 25.286-4.911l-.261-33.384v-10.502h-31.086v10.502h19.854l.261 25.338c-2.612 1.307-7.106 2.351-13.218 2.351-16.823 0-28.108-10.605-28.108-32.914-.052-22.727 11.598-33.75 28.682-33.75" style="fill-rule:nonzero"/></g><g id="g36_4_"><path id="path38_4_" d="M1498.15 129.136h-11.128l.052 14.263v49.267c0 13.74 5.956 22.935 22.935 22.935 2.351 0 4.65-.209 6.844-.627v-9.978c-1.619.261-3.343.365-5.172.365-9.352 0-13.479-4.806-13.479-12.852V158.55h18.651v-9.3h-18.651l-.052-20.114Z" style="fill-rule:nonzero"/></g><path id="path40_33_" style="fill-rule:nonzero" d="M1458.72 149.262h11.128v64.784h-11.128z"/><path id="path42_3_" style="fill-rule:nonzero" d="M1458.72 129.2h11.128v11.128h-11.128z"/><g><path id="path50_5_" d="m1256.21 252.812 32.496-99.957h-64.944l32.448 99.957Z" style="fill:#e24329;fill-rule:nonzero"/><path id="path66_12_" d="m1178.24 152.855-9.896 30.368a6.728 6.728 0 0 0 2.435 7.52l85.425 62.068-77.964-99.956Z" style="fill:#fca326;fill-rule:nonzero"/><path id="path74_5_" d="M1178.24 152.855h45.516l-19.589-60.199c-1.003-3.079-5.372-3.079-6.411 0l-19.516 60.199Z" style="fill:#e24329;fill-rule:nonzero"/><path id="path82_12_" d="m1334.22 152.855 9.86 30.368a6.728 6.728 0 0 1-2.435 7.52l-85.437 62.069 78.012-99.957Z" style="fill:#fca326;fill-rule:nonzero"/><path id="path86_5_" d="M1334.22 152.855h-45.516l19.553-60.199c1.003-3.079 5.372-3.079 6.411 0l19.552 60.199Z" style="fill:#e24329;fill-rule:nonzero"/><path d="m1256.21 252.812 32.496-99.957h45.516l-78.012 99.957Z" style="fill:#fc6d26;fill-rule:nonzero"/><path d="m1256.21 252.812-77.964-99.957h45.516l32.448 99.957Z" style="fill:#fc6d26;fill-rule:nonzero"/></g></g></svg>