<svg fill="currentColor" viewBox="0 0 2048 400" version="1.1" xmlns="http://www.w3.org/2000/svg"
     xml:space="preserve"
     style="fill-rule:evenodd;clip-rule:evenodd;stroke-linejoin:round;stroke-miterlimit:2;"><g><g><path d="M456.288,343.979c1.75,-0 3.313,-0.32 4.688,-0.961c1.375,-0.641 2.539,-1.516 3.492,-2.625c0.953,-1.109 1.688,-2.375 2.203,-3.797c0.516,-1.422 0.774,-2.898 0.774,-4.43c-0,-0.781 -0.039,-1.812 -0.117,-3.093c-0.079,-1.282 -0.196,-2.672 -0.352,-4.172c-0.156,-1.5 -0.383,-3.032 -0.68,-4.594c-0.297,-1.563 -0.664,-3.039 -1.101,-4.43c-0.438,-1.39 -0.977,-2.609 -1.617,-3.656c-0.641,-1.047 -1.383,-1.789 -2.227,-2.227c-0.813,0.625 -1.609,1.196 -2.391,1.711c-0.781,0.516 -1.593,0.946 -2.437,1.289c-0.844,0.344 -1.719,0.618 -2.625,0.821c-0.906,0.203 -1.875,0.304 -2.906,0.304c-1.344,0 -2.493,-0.125 -3.446,-0.375c-0.953,-0.25 -1.75,-0.671 -2.39,-1.265c-0.641,-0.594 -1.118,-1.375 -1.43,-2.344c-0.313,-0.969 -0.469,-2.187 -0.469,-3.656c0,-1.031 0.25,-2.039 0.75,-3.024c0.5,-0.984 1.164,-1.906 1.992,-2.765c0.829,-0.86 1.766,-1.649 2.813,-2.367c1.047,-0.719 2.125,-1.344 3.234,-1.875c1.11,-0.532 2.203,-0.938 3.282,-1.219c1.078,-0.281 2.039,-0.422 2.882,-0.422c0.813,-0 1.485,0.023 2.016,0.07c0.531,0.047 0.984,0.172 1.359,0.375c0.375,0.203 0.696,0.516 0.961,0.938c0.266,0.422 0.524,0.992 0.774,1.711c0.718,2.437 1.547,5.062 2.484,7.875c0.938,2.812 1.828,5.703 2.672,8.672c0.844,2.968 1.555,5.961 2.133,8.976c0.578,3.016 0.867,5.93 0.867,8.742c-0,2.5 -0.352,4.618 -1.055,6.352c-0.703,1.734 -1.625,3.156 -2.765,4.266c-1.141,1.109 -2.438,1.96 -3.891,2.554c-1.453,0.594 -2.914,0.977 -4.383,1.149c-1.469,0.172 -2.89,0.211 -4.265,0.117c-1.375,-0.094 -2.563,-0.274 -3.563,-0.539c-1,-0.266 -1.758,-0.571 -2.273,-0.914c-0.516,-0.344 -0.641,-0.633 -0.375,-0.867c0.265,-0.235 0.976,-0.399 2.132,-0.493c1.157,-0.093 2.907,-0.031 5.25,0.188Zm0.657,-45.235c-2.313,0.5 -4.18,1.196 -5.602,2.086c-1.422,0.891 -2.484,1.844 -3.187,2.86c-0.703,1.015 -1.086,2.031 -1.149,3.047c-0.062,1.015 0.125,1.882 0.563,2.601c0.437,0.719 1.07,1.258 1.898,1.617c0.828,0.36 1.774,0.375 2.836,0.047c1.063,-0.328 2.195,-1.039 3.399,-2.133c1.203,-1.093 2.414,-2.718 3.632,-4.875c0,-0.531 0.008,-1.109 0.024,-1.734c0.015,-0.625 -0.039,-1.195 -0.164,-1.711c-0.125,-0.515 -0.36,-0.945 -0.703,-1.289c-0.344,-0.344 -0.86,-0.516 -1.547,-0.516Z" style="fill-rule:nonzero;"/><path
        d="M473.304,301.463c0,-0.187 0.008,-0.492 0.024,-0.914l0.093,-2.695c0.016,-0.438 0.024,-0.75 0.024,-0.938c0.343,-0.5 0.789,-0.906 1.336,-1.218c0.547,-0.313 1.101,-0.563 1.664,-0.75c0.093,1.687 0.359,3.484 0.797,5.39c0.437,1.906 0.906,3.821 1.406,5.742c0.5,1.922 0.945,3.821 1.336,5.696c0.39,1.875 0.586,3.625 0.586,5.25c-0,1.406 -0.719,2.109 -2.157,2.109c-0.875,0 -1.609,-0.359 -2.203,-1.078c-0.593,-0.719 -1.07,-1.633 -1.429,-2.742c-0.36,-1.11 -0.649,-2.344 -0.868,-3.703c-0.218,-1.36 -0.367,-2.696 -0.445,-4.008c-0.078,-1.313 -0.125,-2.516 -0.14,-3.61c-0.016,-1.093 -0.024,-1.937 -0.024,-2.531Zm0.656,-17.578c0.594,0.25 1.094,0.656 1.5,1.219c0.407,0.562 0.586,1.07 0.539,1.523c-0.046,0.453 -0.398,0.766 -1.054,0.938c-0.657,0.172 -1.75,-0.008 -3.282,-0.539c0,-0.844 0.165,-1.578 0.493,-2.203c0.328,-0.625 0.929,-0.938 1.804,-0.938Z"
        style="fill-rule:nonzero;"/><path
        d="M481.367,295.416c-0,-0.093 0.015,-0.172 0.046,-0.234c0,-0.063 0.016,-0.141 0.047,-0.234c0.125,-0.157 0.313,-0.36 0.563,-0.61c0.25,-0.25 0.406,-0.375 0.469,-0.375l9.421,0c0,-0.344 -0.046,-0.89 -0.14,-1.64c-0.094,-0.75 -0.18,-1.579 -0.258,-2.485c-0.078,-0.906 -0.102,-1.851 -0.07,-2.836c0.031,-0.984 0.164,-1.875 0.398,-2.672c0.235,-0.796 0.61,-1.453 1.125,-1.968c0.516,-0.516 1.242,-0.774 2.18,-0.774c-0,3.156 0.219,5.688 0.656,7.594c0.438,1.906 1.024,3.375 1.758,4.406c0.734,1.031 1.57,1.703 2.508,2.016c0.937,0.312 1.898,0.445 2.883,0.398c0.984,-0.047 1.945,-0.195 2.882,-0.445c0.938,-0.25 1.774,-0.422 2.508,-0.516c0.735,-0.093 1.32,-0.023 1.758,0.211c0.437,0.235 0.656,0.789 0.656,1.664c0,0.657 -0.148,1.125 -0.445,1.407c-0.297,0.281 -0.867,0.5 -1.711,0.656c-0.25,0.031 -0.664,0.086 -1.242,0.164c-0.578,0.078 -1.227,0.148 -1.946,0.211l-4.593,0.422c-0.719,0.062 -1.375,0.101 -1.969,0.117c-0.594,0.016 -1.031,0.023 -1.313,0.023l-0.093,1.547c-0,1.375 0.218,2.711 0.656,4.008c0.437,1.297 0.914,2.586 1.43,3.867c0.515,1.281 0.992,2.563 1.429,3.844c0.438,1.281 0.657,2.609 0.657,3.984c-0,0.25 -0.024,0.508 -0.071,0.774c-0.047,0.265 -0.14,0.5 -0.281,0.703c-0.141,0.203 -0.344,0.359 -0.609,0.469c-0.266,0.109 -0.633,0.086 -1.102,-0.071c-1.187,-0.312 -2.07,-0.984 -2.648,-2.015c-0.578,-1.032 -1.008,-2.258 -1.289,-3.68c-0.282,-1.422 -0.469,-2.93 -0.563,-4.523c-0.094,-1.594 -0.242,-3.086 -0.445,-4.477c-0.203,-1.391 -0.524,-2.578 -0.961,-3.562c-0.438,-0.985 -1.141,-1.586 -2.11,-1.805l-9.046,-2.063c-0.125,0 -0.313,-0.132 -0.563,-0.398c-0.25,-0.266 -0.406,-0.461 -0.469,-0.586c-0.031,-0.063 -0.047,-0.141 -0.047,-0.234c-0.031,-0.063 -0.046,-0.157 -0.046,-0.282Z"
        style="fill-rule:nonzero;"/><path
        d="M513.898,288.573c-0,-0.344 0.039,-0.774 0.117,-1.289c0.078,-0.516 0.219,-1.008 0.422,-1.477c0.203,-0.469 0.461,-0.867 0.773,-1.195c0.313,-0.328 0.719,-0.493 1.219,-0.493c0.031,0 0.109,0.016 0.234,0.047c0.125,0.032 0.204,0.047 0.235,0.047c0.531,1.938 0.844,3.86 0.937,5.766c0.094,1.906 0.063,3.758 -0.093,5.555c-0.157,1.796 -0.391,3.531 -0.704,5.203c-0.312,1.672 -0.57,3.211 -0.773,4.617c-0.203,1.406 -0.328,2.672 -0.375,3.797c-0.047,1.125 0.117,2.078 0.492,2.859c-0.062,-0.5 -0.101,-1.101 -0.117,-1.805c-0.016,-0.703 0.047,-1.429 0.188,-2.179c0.14,-0.75 0.375,-1.5 0.703,-2.25c0.328,-0.75 0.804,-1.422 1.429,-2.016c0.625,-0.594 1.43,-1.062 2.414,-1.406c0.985,-0.344 2.211,-0.516 3.68,-0.516c1.531,0 2.852,0.266 3.961,0.797c1.109,0.531 2.023,1.258 2.742,2.18c0.719,0.922 1.258,2 1.617,3.234c0.36,1.235 0.539,2.555 0.539,3.961c0,0.656 -0.007,1.399 -0.023,2.227c-0.016,0.828 -0.125,1.593 -0.328,2.297c-0.203,0.703 -0.563,1.296 -1.078,1.781c-0.516,0.484 -1.274,0.726 -2.274,0.726c0,-0.5 0.032,-1.179 0.094,-2.039c0.063,-0.859 0.102,-1.773 0.117,-2.742c0.016,-0.969 -0.015,-1.953 -0.093,-2.953c-0.079,-1 -0.29,-1.898 -0.633,-2.695c-0.344,-0.797 -0.821,-1.453 -1.43,-1.969c-0.609,-0.516 -1.445,-0.774 -2.508,-0.774c-0.375,0 -0.836,0.024 -1.383,0.071c-0.546,0.047 -1.101,0.195 -1.664,0.445c-0.562,0.25 -1.109,0.633 -1.64,1.149c-0.532,0.515 -0.953,1.218 -1.266,2.109c-0.312,0.891 -0.492,2.016 -0.539,3.375c-0.047,1.359 0.117,3.023 0.492,4.992c-0.219,0.563 -0.492,0.891 -0.82,0.984c-0.328,0.094 -0.742,0.141 -1.242,0.141c-1,0 -1.821,-0.351 -2.461,-1.055c-0.641,-0.703 -1.133,-1.648 -1.477,-2.836c-0.344,-1.187 -0.57,-2.562 -0.679,-4.125c-0.11,-1.562 -0.149,-3.195 -0.118,-4.898c0.032,-1.703 0.118,-3.437 0.258,-5.203c0.141,-1.766 0.281,-3.438 0.422,-5.016c0.141,-1.578 0.281,-3.015 0.422,-4.312c0.141,-1.297 0.211,-2.336 0.211,-3.117Z"
        style="fill-rule:nonzero;"/><path
        d="M535.413,299.916c0,-0.187 0.008,-0.523 0.024,-1.007l0.047,-3c0.015,-0.454 0.023,-0.774 0.023,-0.961c0.219,-0.375 0.477,-0.743 0.774,-1.102c0.297,-0.359 0.609,-0.609 0.937,-0.75c0.328,-0.141 0.688,-0.164 1.078,-0.07c0.391,0.093 0.789,0.406 1.196,0.937l-0,0.985c-0.032,0.156 -0.094,0.523 -0.188,1.101c-0.094,0.578 -0.203,1.211 -0.328,1.899c-0.125,0.687 -0.242,1.32 -0.352,1.898c-0.109,0.578 -0.164,0.945 -0.164,1.102c0,0.593 0.063,1.336 0.188,2.226c0.125,0.891 0.305,1.82 0.539,2.789c0.234,0.969 0.531,1.938 0.891,2.906c0.359,0.969 0.789,1.836 1.289,2.602c0.5,0.766 1.054,1.398 1.664,1.898c0.609,0.5 1.32,0.75 2.132,0.75c1,0 1.883,-0.265 2.649,-0.796c0.766,-0.532 1.43,-1.219 1.992,-2.063c0.563,-0.844 1.024,-1.797 1.383,-2.859c0.359,-1.063 0.648,-2.133 0.867,-3.211c0.219,-1.078 0.375,-2.117 0.469,-3.117c0.094,-1 0.14,-1.875 0.14,-2.625c0,-0.75 -0.054,-1.461 -0.164,-2.133c-0.109,-0.672 -0.242,-1.336 -0.398,-1.992c-0.156,-0.657 -0.289,-1.305 -0.398,-1.946c-0.11,-0.64 -0.165,-1.289 -0.165,-1.945c0,-0.594 0.211,-1.016 0.633,-1.266c0.422,-0.25 0.899,-0.375 1.43,-0.375c0.656,0 1.187,0.196 1.594,0.586c0.406,0.391 0.726,0.883 0.961,1.477c0.234,0.594 0.39,1.273 0.468,2.039c0.079,0.766 0.118,1.523 0.118,2.273c-0,0.75 -0.016,1.461 -0.047,2.133c-0.032,0.672 -0.047,1.211 -0.047,1.617c-0,1.063 -0.078,2.266 -0.235,3.61c-0.156,1.343 -0.429,2.726 -0.82,4.148c-0.39,1.422 -0.875,2.82 -1.453,4.195c-0.578,1.375 -1.281,2.602 -2.109,3.68c-0.828,1.078 -1.782,1.945 -2.86,2.602c-1.078,0.656 -2.289,0.984 -3.633,0.984c-1.406,0 -2.64,-0.336 -3.703,-1.008c-1.062,-0.672 -1.961,-1.562 -2.695,-2.672c-0.734,-1.109 -1.352,-2.367 -1.852,-3.773c-0.5,-1.406 -0.882,-2.813 -1.148,-4.219c-0.266,-1.406 -0.453,-2.773 -0.562,-4.101c-0.11,-1.328 -0.165,-2.477 -0.165,-3.446Z"
        style="fill-rule:nonzero;"/><path
        d="M566.585,317.026c-0.968,-2.813 -1.882,-5.446 -2.742,-7.899c-0.859,-2.453 -1.609,-4.859 -2.25,-7.218c-0.64,-2.36 -1.148,-4.758 -1.523,-7.196c-0.375,-2.437 -0.563,-5.047 -0.563,-7.828c0,-0.219 0.008,-0.617 0.024,-1.195c0.015,-0.578 0.023,-1.18 0.023,-1.805c0,-0.625 0.008,-1.226 0.024,-1.805c0.015,-0.578 0.023,-0.976 0.023,-1.195c0.281,-0.625 0.773,-1.203 1.477,-1.734c0.703,-0.532 1.414,-0.797 2.132,-0.797c0,2.312 0.032,4.773 0.094,7.383c0.063,2.609 0.258,5.211 0.586,7.804c0.328,2.594 0.859,5.133 1.594,7.618c0.734,2.484 1.773,4.757 3.117,6.82c0.031,-0.75 0.062,-1.578 0.094,-2.485c0.031,-0.906 0.117,-1.812 0.258,-2.718c0.14,-0.907 0.367,-1.782 0.679,-2.625c0.313,-0.844 0.774,-1.594 1.383,-2.25c0.609,-0.657 1.406,-1.172 2.391,-1.547c0.984,-0.375 2.226,-0.547 3.726,-0.516c1.344,0 2.555,0.25 3.633,0.75c1.078,0.5 1.984,1.18 2.719,2.039c0.734,0.86 1.297,1.86 1.687,3c0.391,1.141 0.586,2.352 0.586,3.633c0,1.719 -0.422,3.406 -1.265,5.063c-0.844,1.656 -1.961,3.14 -3.352,4.453c-1.391,1.312 -2.945,2.367 -4.664,3.164c-1.719,0.797 -3.469,1.195 -5.25,1.195c-0.906,0 -1.781,-0.164 -2.625,-0.492c-0.844,-0.328 -1.516,-0.867 -2.016,-1.617Zm11.11,-17.11c-0.625,0.344 -1.282,0.75 -1.969,1.219c-0.688,0.469 -1.32,1.195 -1.898,2.18c-0.579,0.984 -1.071,2.32 -1.477,4.008c-0.406,1.687 -0.656,3.921 -0.75,6.703l1.031,0.093c0.844,0 1.805,-0.265 2.883,-0.796c1.078,-0.532 2.125,-1.188 3.141,-1.969c1.015,-0.781 1.898,-1.649 2.648,-2.602c0.75,-0.953 1.203,-1.867 1.359,-2.742c0.094,-0.531 -0.015,-1.141 -0.328,-1.828c-0.312,-0.688 -0.726,-1.352 -1.242,-1.992c-0.515,-0.641 -1.078,-1.18 -1.687,-1.617c-0.61,-0.438 -1.18,-0.657 -1.711,-0.657Z"
        style="fill-rule:nonzero;"/><path
        d="M594.195,315.244c1.406,0 2.109,0.735 2.109,2.204c-0.344,0.906 -0.781,1.507 -1.312,1.804c-0.532,0.297 -1.024,0.407 -1.477,0.328c-0.453,-0.078 -0.859,-0.304 -1.219,-0.679c-0.359,-0.375 -0.554,-0.797 -0.586,-1.266c-0.031,-0.469 0.141,-0.93 0.516,-1.383c0.375,-0.453 1.031,-0.789 1.969,-1.008Z"
        style="fill-rule:nonzero;"/><path
        d="M598.32,304.932c-0,-1.313 0.289,-2.688 0.867,-4.125c0.578,-1.438 1.351,-2.742 2.32,-3.914c0.969,-1.172 2.086,-2.149 3.352,-2.93c1.265,-0.781 2.601,-1.172 4.008,-1.172c0.718,0 1.437,0.125 2.156,0.375c0.719,0.25 1.367,0.61 1.945,1.078c0.578,0.469 1.047,1.032 1.406,1.688c0.36,0.656 0.539,1.391 0.539,2.203c-0.562,0 -1.07,-0.062 -1.523,-0.187c-0.453,-0.125 -0.898,-0.274 -1.336,-0.446c-0.437,-0.172 -0.867,-0.32 -1.289,-0.445c-0.422,-0.125 -0.883,-0.188 -1.383,-0.188c-1.281,0 -2.32,0.321 -3.117,0.961c-0.797,0.641 -1.43,1.446 -1.898,2.414c-0.469,0.969 -0.789,2.008 -0.961,3.118c-0.172,1.109 -0.258,2.148 -0.258,3.117c-0,0.156 0.008,0.453 0.023,0.89l0.094,2.766c0.016,0.438 0.039,0.734 0.07,0.891c0.344,0.75 0.68,1.328 1.008,1.734c0.328,0.406 0.68,0.711 1.055,0.914c0.375,0.203 0.781,0.328 1.219,0.375c0.437,0.047 0.953,0.07 1.546,0.07c0.813,0 1.524,-0.125 2.133,-0.375c0.61,-0.25 1.18,-0.546 1.711,-0.89c0.531,-0.344 1.031,-0.727 1.5,-1.149c0.469,-0.421 0.961,-0.812 1.477,-1.171c0.515,-0.36 1.078,-0.657 1.687,-0.891c0.61,-0.234 1.305,-0.352 2.086,-0.352c0,1.532 -0.273,2.891 -0.82,4.078c-0.547,1.188 -1.313,2.204 -2.297,3.047c-0.984,0.844 -2.141,1.493 -3.469,1.946c-1.328,0.453 -2.773,0.679 -4.336,0.679c-1.468,0 -2.789,-0.5 -3.961,-1.5c-1.171,-1 -2.171,-2.226 -3,-3.679c-0.828,-1.453 -1.461,-2.993 -1.898,-4.618c-0.438,-1.625 -0.656,-3.062 -0.656,-4.312Z"
        style="fill-rule:nonzero;"/><path
        d="M621.382,309.526c0,-1.938 0.453,-3.742 1.36,-5.414c0.906,-1.672 2.101,-3.11 3.586,-4.313c1.484,-1.203 3.156,-2.148 5.015,-2.836c1.86,-0.687 3.742,-1.031 5.649,-1.031c1.062,-0 2.007,0.344 2.836,1.031c0.828,0.688 1.523,1.524 2.085,2.508c0.563,0.984 0.993,2.023 1.29,3.117c0.296,1.094 0.445,2.047 0.445,2.86c-0,1.75 -0.422,3.445 -1.266,5.086c-0.844,1.64 -1.937,3.093 -3.281,4.359c-1.344,1.266 -2.859,2.289 -4.547,3.07c-1.687,0.781 -3.375,1.172 -5.062,1.172c-1.5,0 -2.766,-0.258 -3.797,-0.773c-1.032,-0.516 -1.86,-1.203 -2.485,-2.063c-0.625,-0.859 -1.086,-1.875 -1.382,-3.047c-0.297,-1.172 -0.446,-2.414 -0.446,-3.726Zm3.985,0.468c-0,0.813 0.07,1.524 0.211,2.133c0.14,0.61 0.39,1.133 0.75,1.571c0.359,0.437 0.835,0.773 1.429,1.007c0.594,0.235 1.328,0.352 2.203,0.352c1.157,-0 2.313,-0.32 3.469,-0.961c1.156,-0.641 2.195,-1.453 3.117,-2.437c0.922,-0.985 1.664,-2.071 2.227,-3.258c0.562,-1.188 0.844,-2.344 0.844,-3.469c-0,-0.5 -0.047,-1.047 -0.141,-1.641c-0.094,-0.593 -0.25,-1.14 -0.469,-1.64c-0.219,-0.5 -0.531,-0.922 -0.937,-1.266c-0.407,-0.344 -0.922,-0.516 -1.547,-0.516c-0.563,0 -1.227,0.188 -1.992,0.563c-0.766,0.375 -1.563,0.859 -2.391,1.453c-0.828,0.594 -1.641,1.266 -2.437,2.016c-0.797,0.75 -1.524,1.5 -2.18,2.25c-0.656,0.75 -1.18,1.468 -1.57,2.156c-0.391,0.687 -0.586,1.25 -0.586,1.687Z"
        style="fill-rule:nonzero;"/><path
        d="M644.445,299.354c-0,-0.781 0.133,-1.391 0.398,-1.828c0.266,-0.438 0.836,-0.657 1.711,-0.657l1.031,0.047c0.219,0.969 0.446,2.024 0.68,3.164c0.234,1.141 0.508,2.289 0.82,3.446c0.313,1.156 0.664,2.297 1.055,3.422c0.391,1.125 0.867,2.14 1.43,3.046c0.562,-0.593 0.968,-1.296 1.218,-2.109c0.25,-0.812 0.438,-1.633 0.563,-2.461c0.125,-0.828 0.242,-1.625 0.352,-2.39c0.109,-0.766 0.335,-1.422 0.679,-1.969c0.344,-0.547 0.852,-0.946 1.524,-1.196c0.672,-0.25 1.601,-0.25 2.789,0c1.312,0 2.359,0.243 3.14,0.727c0.782,0.484 1.461,1.094 2.039,1.828c0.579,0.735 1.141,1.516 1.688,2.344c0.547,0.828 1.242,1.57 2.086,2.226c0.187,-0.406 0.422,-0.914 0.703,-1.523c0.281,-0.609 0.633,-1.25 1.055,-1.922c0.422,-0.672 0.875,-1.344 1.359,-2.015c0.484,-0.672 0.992,-1.282 1.523,-1.829c0.532,-0.546 1.079,-1 1.641,-1.359c0.563,-0.359 1.109,-0.539 1.641,-0.539c1.281,-0 2.39,0.398 3.328,1.195c0.937,0.797 1.742,1.797 2.414,3c0.672,1.203 1.226,2.547 1.664,4.032c0.437,1.484 0.781,2.914 1.031,4.289c0.25,1.375 0.43,2.632 0.539,3.773c0.11,1.141 0.164,1.961 0.164,2.461c0,0.406 -0.093,0.719 -0.281,0.937c-0.187,0.219 -0.422,0.383 -0.703,0.493c-0.281,0.109 -0.586,0.179 -0.914,0.211c-0.328,0.031 -0.633,0.046 -0.914,0.046c-0.063,0 -0.156,-0.007 -0.281,-0.023c-0.125,-0.016 -0.266,-0.039 -0.422,-0.07c-0.125,-0.032 -0.297,-0.078 -0.516,-0.141l-3.047,-14.016c0,-0.093 -0.125,-0.273 -0.375,-0.539c-0.25,-0.265 -0.437,-0.429 -0.562,-0.492c-0.094,0 -0.172,-0.015 -0.235,-0.047c-0.062,0 -0.109,-0.007 -0.14,-0.023c-0.032,-0.016 -0.063,-0.024 -0.094,-0.024c-0.656,0 -1.273,0.266 -1.852,0.797c-0.578,0.532 -1.117,1.203 -1.617,2.016c-0.5,0.812 -0.969,1.719 -1.406,2.719c-0.438,1 -0.828,1.992 -1.172,2.976c-0.344,0.985 -0.648,1.891 -0.914,2.719c-0.266,0.828 -0.477,1.461 -0.633,1.898c-0.125,0.063 -0.375,0.118 -0.75,0.165c-0.375,0.046 -0.625,0.07 -0.75,0.07c-0.875,-0 -1.547,-0.305 -2.015,-0.914c-0.469,-0.61 -0.852,-1.367 -1.149,-2.274c-0.297,-0.906 -0.547,-1.898 -0.75,-2.976c-0.203,-1.078 -0.453,-2.071 -0.75,-2.977c-0.297,-0.906 -0.703,-1.664 -1.219,-2.273c-0.515,-0.61 -1.242,-0.914 -2.179,-0.914c-0.344,-0 -0.672,0.343 -0.985,1.031c-0.312,0.687 -0.593,1.555 -0.843,2.602c-0.25,1.046 -0.485,2.171 -0.704,3.375c-0.218,1.203 -0.398,2.328 -0.539,3.375c-0.14,1.046 -0.242,1.929 -0.304,2.648c-0.063,0.719 -0.094,1.078 -0.094,1.078c-0.063,0.094 -0.188,0.195 -0.375,0.305c-0.188,0.109 -0.383,0.226 -0.586,0.351c-0.203,0.125 -0.406,0.219 -0.609,0.282c-0.203,0.062 -0.352,0.093 -0.446,0.093c-0.875,0 -1.718,-0.398 -2.531,-1.195c-0.812,-0.797 -1.555,-1.828 -2.226,-3.094c-0.672,-1.265 -1.282,-2.664 -1.829,-4.195c-0.546,-1.531 -1.007,-3.031 -1.382,-4.5c-0.375,-1.469 -0.664,-2.797 -0.868,-3.984c-0.203,-1.188 -0.304,-2.094 -0.304,-2.719Z"
        style="fill-rule:nonzero;"/></g><path id="github"
                                              d="M434.233,162.825l-37.45,-0c-0.967,-0 -1.751,0.785 -1.751,1.751l0,18.31c0,0.966 0.784,1.752 1.751,1.752l14.609,0l0,22.75c0,-0 -3.28,1.118 -12.35,1.118c-10.7,-0 -25.647,-3.91 -25.647,-36.778c-0,-32.876 15.564,-37.201 30.177,-37.201c12.649,0 18.098,2.227 21.565,3.3c1.089,0.334 2.097,-0.751 2.097,-1.718l4.178,-17.691c0,-0.452 -0.153,-0.997 -0.669,-1.367c-1.408,-1.004 -9.998,-5.811 -31.701,-5.811c-25.001,-0 -50.647,10.636 -50.647,61.77c0,51.135 29.362,58.754 54.105,58.754c20.487,0 32.915,-8.754 32.915,-8.754c0.512,-0.283 0.567,-0.999 0.567,-1.327l0,-57.107c0,-0.966 -0.783,-1.751 -1.749,-1.751Zm192.903,-45.185c-0,-0.974 -0.772,-1.76 -1.738,-1.76l-21.087,-0c-0.964,-0 -1.747,0.786 -1.747,1.76c0,0.005 0.006,40.752 0.006,40.752l-32.869,-0l-0,-40.752c-0,-0.974 -0.776,-1.76 -1.74,-1.76l-21.086,-0c-0.96,-0 -1.742,0.786 -1.742,1.76l-0,110.343c-0,0.973 0.782,1.766 1.742,1.766l21.086,-0c0.964,-0 1.74,-0.793 1.74,-1.766l-0,-47.198l32.869,0c-0,0 -0.058,47.194 -0.058,47.198c0,0.973 0.783,1.766 1.747,1.766l21.137,-0c0.966,-0 1.738,-0.793 1.74,-1.766l-0,-110.343Zm-153.179,14.753c0,-7.593 -6.087,-13.729 -13.598,-13.729c-7.503,-0 -13.595,6.136 -13.595,13.729c0,7.584 6.092,13.737 13.595,13.737c7.511,-0 13.598,-6.153 13.598,-13.737Zm-1.673,94.58l0,-73.143c0,-0.967 -0.78,-1.758 -1.744,-1.758l-21.021,-0c-0.964,-0 -1.827,0.995 -1.827,1.962l0,72.973c0,2.145 1.336,2.783 3.066,2.783l18.939,-0c2.078,-0 2.587,-1.02 2.587,-2.817Zm235.446,-74.901l-20.926,-0c-0.96,-0 -1.741,0.791 -1.741,1.764l0,54.105c0,-0 -5.316,3.889 -12.861,3.889c-7.545,-0 -9.548,-3.423 -9.548,-10.811l0,-47.183c0,-0.973 -0.779,-1.764 -1.74,-1.764l-21.237,-0c-0.959,-0 -1.744,0.791 -1.744,1.764l0,50.755c0,21.944 12.23,27.313 29.055,27.313c13.802,-0 24.931,-7.626 24.931,-7.626c0,0 0.53,4.018 0.769,4.495c0.241,0.476 0.865,0.955 1.54,0.955l13.511,-0.059c0.958,-0 1.744,-0.793 1.744,-1.761l-0.007,-74.072c0,-0.973 -0.782,-1.764 -1.746,-1.764Zm48.212,59.8c-7.258,-0.221 -12.181,-3.515 -12.181,-3.515l0,-34.943c0,0 4.857,-2.977 10.816,-3.51c7.536,-0.674 14.796,1.602 14.796,19.578c0,18.955 -3.276,22.696 -13.431,22.39Zm8.254,-62.17c-11.885,-0 -19.969,5.302 -19.969,5.302l0,-37.364c0,-0.974 -0.778,-1.76 -1.74,-1.76l-21.146,-0c-0.962,-0 -1.743,0.786 -1.743,1.76l-0,110.343c-0,0.973 0.781,1.766 1.745,1.766l14.672,-0c0.661,-0 1.161,-0.341 1.53,-0.937c0.365,-0.593 0.891,-5.088 0.891,-5.088c0,0 8.648,8.194 25.017,8.194c19.217,0 30.238,-9.747 30.238,-43.76c-0,-34.012 -17.602,-38.456 -29.495,-38.456Zm-231.221,2.181l-15.818,-0c0,-0 -0.024,-20.893 -0.024,-20.897c-0,-0.791 -0.408,-1.186 -1.322,-1.186l-21.555,-0c-0.838,-0 -1.288,0.368 -1.288,1.174l-0,21.594c-0,0 -10.802,2.608 -11.533,2.819c-0.727,0.21 -1.263,0.881 -1.263,1.681l0,13.571c0,0.976 0.78,1.763 1.744,1.763l11.052,-0l-0,32.645c-0,24.248 17.008,26.63 28.486,26.63c5.244,0 11.517,-1.684 12.553,-2.066c0.626,-0.231 0.99,-0.879 0.99,-1.583l0.018,-14.928c-0,-0.973 -0.823,-1.761 -1.749,-1.761c-0.921,0 -3.279,0.375 -5.707,0.375c-7.769,-0 -10.402,-3.613 -10.402,-8.289c0,-4.673 -0.001,-31.023 -0.001,-31.023l15.819,-0c0.964,-0 1.745,-0.787 1.745,-1.763l-0,-16.998c-0,-0.973 -0.781,-1.758 -1.745,-1.758Z"
                                              style="fill-rule:nonzero;"/><g><path d="M1383.21,343.979c1.75,-0 3.312,-0.32 4.687,-0.961c1.375,-0.641 2.539,-1.516 3.492,-2.625c0.953,-1.109 1.688,-2.375 2.203,-3.797c0.516,-1.422 0.774,-2.898 0.774,-4.43c-0,-0.781 -0.039,-1.812 -0.117,-3.093c-0.079,-1.282 -0.196,-2.672 -0.352,-4.172c-0.156,-1.5 -0.383,-3.032 -0.68,-4.594c-0.297,-1.563 -0.664,-3.039 -1.101,-4.43c-0.438,-1.39 -0.977,-2.609 -1.617,-3.656c-0.641,-1.047 -1.383,-1.789 -2.227,-2.227c-0.812,0.625 -1.609,1.196 -2.391,1.711c-0.781,0.516 -1.593,0.946 -2.437,1.289c-0.844,0.344 -1.719,0.618 -2.625,0.821c-0.906,0.203 -1.875,0.304 -2.906,0.304c-1.344,0 -2.493,-0.125 -3.446,-0.375c-0.953,-0.25 -1.75,-0.671 -2.39,-1.265c-0.641,-0.594 -1.117,-1.375 -1.43,-2.344c-0.312,-0.969 -0.469,-2.187 -0.469,-3.656c0,-1.031 0.25,-2.039 0.75,-3.024c0.5,-0.984 1.164,-1.906 1.992,-2.765c0.829,-0.86 1.766,-1.649 2.813,-2.367c1.047,-0.719 2.125,-1.344 3.234,-1.875c1.11,-0.532 2.203,-0.938 3.282,-1.219c1.078,-0.281 2.039,-0.422 2.882,-0.422c0.813,-0 1.485,0.023 2.016,0.07c0.531,0.047 0.984,0.172 1.359,0.375c0.375,0.203 0.696,0.516 0.961,0.938c0.266,0.422 0.524,0.992 0.774,1.711c0.719,2.437 1.547,5.062 2.484,7.875c0.938,2.812 1.828,5.703 2.672,8.672c0.844,2.968 1.555,5.961 2.133,8.976c0.578,3.016 0.867,5.93 0.867,8.742c0,2.5 -0.352,4.618 -1.055,6.352c-0.703,1.734 -1.625,3.156 -2.765,4.266c-1.141,1.109 -2.438,1.96 -3.891,2.554c-1.453,0.594 -2.914,0.977 -4.383,1.149c-1.468,0.172 -2.89,0.211 -4.265,0.117c-1.375,-0.094 -2.563,-0.274 -3.563,-0.539c-1,-0.266 -1.758,-0.571 -2.273,-0.914c-0.516,-0.344 -0.641,-0.633 -0.375,-0.867c0.265,-0.235 0.976,-0.399 2.133,-0.493c1.156,-0.093 2.906,-0.031 5.25,0.188Zm0.656,-45.235c-2.313,0.5 -4.18,1.196 -5.602,2.086c-1.422,0.891 -2.484,1.844 -3.187,2.86c-0.703,1.015 -1.086,2.031 -1.149,3.047c-0.062,1.015 0.125,1.882 0.563,2.601c0.437,0.719 1.07,1.258 1.898,1.617c0.828,0.36 1.774,0.375 2.836,0.047c1.063,-0.328 2.195,-1.039 3.399,-2.133c1.203,-1.093 2.414,-2.718 3.632,-4.875c0,-0.531 0.008,-1.109 0.024,-1.734c0.015,-0.625 -0.039,-1.195 -0.164,-1.711c-0.125,-0.515 -0.36,-0.945 -0.703,-1.289c-0.344,-0.344 -0.86,-0.516 -1.547,-0.516Z" style="fill-rule:nonzero;"/>
    <path d="M1400.23,301.463c0,-0.187 0.008,-0.492 0.024,-0.914l0.093,-2.695c0.016,-0.438 0.024,-0.75 0.024,-0.938c0.344,-0.5 0.789,-0.906 1.336,-1.218c0.547,-0.313 1.101,-0.563 1.664,-0.75c0.094,1.687 0.359,3.484 0.797,5.39c0.437,1.906 0.906,3.821 1.406,5.742c0.5,1.922 0.945,3.821 1.336,5.696c0.39,1.875 0.586,3.625 0.586,5.25c-0,1.406 -0.719,2.109 -2.156,2.109c-0.875,0 -1.61,-0.359 -2.204,-1.078c-0.593,-0.719 -1.07,-1.633 -1.429,-2.742c-0.36,-1.11 -0.649,-2.344 -0.867,-3.703c-0.219,-1.36 -0.368,-2.696 -0.446,-4.008c-0.078,-1.313 -0.125,-2.516 -0.14,-3.61c-0.016,-1.093 -0.024,-1.937 -0.024,-2.531Zm0.656,-17.578c0.594,0.25 1.094,0.656 1.5,1.219c0.407,0.562 0.586,1.07 0.539,1.523c-0.046,0.453 -0.398,0.766 -1.054,0.938c-0.656,0.172 -1.75,-0.008 -3.281,-0.539c-0,-0.844 0.164,-1.578 0.492,-2.203c0.328,-0.625 0.929,-0.938 1.804,-0.938Z"
          style="fill-rule:nonzero;"/>
    <path d="M1408.29,295.416c-0,-0.093 0.015,-0.172 0.047,-0.234c-0,-0.063 0.015,-0.141 0.046,-0.234c0.125,-0.157 0.313,-0.36 0.563,-0.61c0.25,-0.25 0.406,-0.375 0.469,-0.375l9.422,0c-0,-0.344 -0.047,-0.89 -0.141,-1.64c-0.094,-0.75 -0.18,-1.579 -0.258,-2.485c-0.078,-0.906 -0.101,-1.851 -0.07,-2.836c0.031,-0.984 0.164,-1.875 0.398,-2.672c0.235,-0.796 0.61,-1.453 1.125,-1.968c0.516,-0.516 1.242,-0.774 2.18,-0.774c-0,3.156 0.219,5.688 0.656,7.594c0.438,1.906 1.024,3.375 1.758,4.406c0.734,1.031 1.57,1.703 2.508,2.016c0.937,0.312 1.898,0.445 2.883,0.398c0.984,-0.047 1.945,-0.195 2.882,-0.445c0.938,-0.25 1.774,-0.422 2.508,-0.516c0.735,-0.093 1.321,-0.023 1.758,0.211c0.438,0.235 0.656,0.789 0.656,1.664c0,0.657 -0.148,1.125 -0.445,1.407c-0.297,0.281 -0.867,0.5 -1.711,0.656c-0.25,0.031 -0.664,0.086 -1.242,0.164c-0.578,0.078 -1.227,0.148 -1.945,0.211l-4.594,0.422c-0.719,0.062 -1.375,0.101 -1.969,0.117c-0.594,0.016 -1.031,0.023 -1.312,0.023l-0.094,1.547c-0,1.375 0.219,2.711 0.656,4.008c0.438,1.297 0.914,2.586 1.43,3.867c0.515,1.281 0.992,2.563 1.429,3.844c0.438,1.281 0.657,2.609 0.657,3.984c-0,0.25 -0.024,0.508 -0.071,0.774c-0.047,0.265 -0.14,0.5 -0.281,0.703c-0.141,0.203 -0.344,0.359 -0.609,0.469c-0.266,0.109 -0.633,0.086 -1.102,-0.071c-1.187,-0.312 -2.07,-0.984 -2.648,-2.015c-0.578,-1.032 -1.008,-2.258 -1.289,-3.68c-0.282,-1.422 -0.469,-2.93 -0.563,-4.523c-0.094,-1.594 -0.242,-3.086 -0.445,-4.477c-0.203,-1.391 -0.524,-2.578 -0.961,-3.562c-0.438,-0.985 -1.141,-1.586 -2.109,-1.805l-9.047,-2.063c-0.125,0 -0.313,-0.132 -0.563,-0.398c-0.25,-0.266 -0.406,-0.461 -0.469,-0.586c-0.031,-0.063 -0.046,-0.141 -0.046,-0.234c-0.032,-0.063 -0.047,-0.157 -0.047,-0.282Z"
          style="fill-rule:nonzero;"/>
    <path d="M1440.59,292.51c-0,-0.906 -0.063,-1.789 -0.188,-2.648c-0.125,-0.86 -0.156,-1.625 -0.094,-2.297c0.063,-0.672 0.305,-1.211 0.727,-1.617c0.422,-0.407 1.195,-0.61 2.32,-0.61c0.344,0.719 0.68,1.813 1.008,3.281c0.328,1.469 0.648,3.157 0.961,5.063c0.312,1.906 0.609,3.977 0.891,6.211c0.281,2.234 0.539,4.476 0.773,6.726c0.234,2.25 0.437,4.461 0.609,6.633c0.172,2.172 0.305,4.149 0.399,5.93c-1.031,0.687 -1.86,0.734 -2.485,0.141c-0.625,-0.594 -1.14,-1.602 -1.546,-3.024c-0.407,-1.422 -0.719,-3.156 -0.938,-5.203c-0.219,-2.047 -0.43,-4.172 -0.633,-6.375c-0.203,-2.203 -0.445,-4.375 -0.726,-6.516c-0.282,-2.14 -0.641,-4.039 -1.078,-5.695Z"
          style="fill-rule:nonzero;"/>
    <path d="M1470.59,312.994c-1.188,0.813 -2.211,1.54 -3.071,2.18c-0.859,0.641 -1.695,1.18 -2.508,1.617c-0.812,0.438 -1.679,0.766 -2.601,0.985c-0.922,0.218 -2.055,0.328 -3.399,0.328c-2.906,-0 -5.062,-0.774 -6.468,-2.32c-1.407,-1.547 -2.11,-3.852 -2.11,-6.915c0,-1.187 0.157,-2.421 0.469,-3.703c0.313,-1.281 0.773,-2.554 1.383,-3.82c0.609,-1.266 1.336,-2.469 2.18,-3.609c0.843,-1.141 1.796,-2.149 2.859,-3.024c1.062,-0.875 2.195,-1.57 3.398,-2.086c1.203,-0.515 2.477,-0.773 3.821,-0.773c2.25,0.219 4.015,0.773 5.297,1.664c1.281,0.891 2.25,2.031 2.906,3.422c0.656,1.39 1.109,2.937 1.359,4.64c0.25,1.704 0.445,3.461 0.586,5.274c0.141,1.812 0.32,3.625 0.539,5.437c0.219,1.813 0.672,3.485 1.36,5.016c-0.407,1.031 -0.79,1.758 -1.149,2.18c-0.359,0.422 -0.758,0.492 -1.195,0.211c-0.438,-0.282 -0.946,-0.969 -1.524,-2.063c-0.578,-1.094 -1.289,-2.641 -2.132,-4.641Zm-16.172,-4.031c-0,1.781 0.336,3.086 1.007,3.914c0.672,0.828 1.868,1.242 3.586,1.242c1.282,0 2.508,-0.226 3.68,-0.679c1.172,-0.453 2.195,-1.078 3.07,-1.875c0.875,-0.797 1.579,-1.758 2.11,-2.883c0.531,-1.125 0.797,-2.375 0.797,-3.75c-0,-0.563 0.015,-1.352 0.047,-2.367c0.031,-1.016 -0.032,-2.024 -0.188,-3.024c-0.156,-1 -0.453,-1.867 -0.891,-2.601c-0.437,-0.735 -1.093,-1.102 -1.968,-1.102c-1.625,0 -3.125,0.414 -4.5,1.242c-1.375,0.829 -2.563,1.883 -3.563,3.164c-1,1.282 -1.781,2.696 -2.344,4.243c-0.562,1.547 -0.843,3.039 -0.843,4.476Z"
          style="fill-rule:nonzero;"/>
    <path d="M1486.62,317.026c-0.969,-2.813 -1.883,-5.446 -2.742,-7.899c-0.86,-2.453 -1.61,-4.859 -2.25,-7.218c-0.641,-2.36 -1.149,-4.758 -1.524,-7.196c-0.375,-2.437 -0.562,-5.047 -0.562,-7.828c-0,-0.219 0.007,-0.617 0.023,-1.195c0.016,-0.578 0.024,-1.18 0.024,-1.805c-0,-0.625 0.007,-1.226 0.023,-1.805c0.016,-0.578 0.023,-0.976 0.023,-1.195c0.282,-0.625 0.774,-1.203 1.477,-1.734c0.703,-0.532 1.414,-0.797 2.133,-0.797c-0,2.312 0.031,4.773 0.094,7.383c0.062,2.609 0.257,5.211 0.585,7.804c0.329,2.594 0.86,5.133 1.594,7.618c0.735,2.484 1.774,4.757 3.117,6.82c0.032,-0.75 0.063,-1.578 0.094,-2.485c0.031,-0.906 0.117,-1.812 0.258,-2.718c0.141,-0.907 0.367,-1.782 0.68,-2.625c0.312,-0.844 0.773,-1.594 1.382,-2.25c0.61,-0.657 1.407,-1.172 2.391,-1.547c0.984,-0.375 2.227,-0.547 3.727,-0.516c1.343,0 2.554,0.25 3.632,0.75c1.079,0.5 1.985,1.18 2.719,2.039c0.735,0.86 1.297,1.86 1.688,3c0.39,1.141 0.586,2.352 0.586,3.633c-0,1.719 -0.422,3.406 -1.266,5.063c-0.844,1.656 -1.961,3.14 -3.352,4.453c-1.39,1.312 -2.945,2.367 -4.664,3.164c-1.718,0.797 -3.468,1.195 -5.25,1.195c-0.906,0 -1.781,-0.164 -2.625,-0.492c-0.843,-0.328 -1.515,-0.867 -2.015,-1.617Zm11.109,-17.11c-0.625,0.344 -1.281,0.75 -1.969,1.219c-0.687,0.469 -1.32,1.195 -1.898,2.18c-0.578,0.984 -1.07,2.32 -1.477,4.008c-0.406,1.687 -0.656,3.921 -0.75,6.703l1.032,0.093c0.843,0 1.804,-0.265 2.882,-0.796c1.079,-0.532 2.125,-1.188 3.141,-1.969c1.016,-0.781 1.899,-1.649 2.649,-2.602c0.75,-0.953 1.203,-1.867 1.359,-2.742c0.094,-0.531 -0.016,-1.141 -0.328,-1.828c-0.313,-0.688 -0.727,-1.352 -1.242,-1.992c-0.516,-0.641 -1.079,-1.18 -1.688,-1.617c-0.609,-0.438 -1.18,-0.657 -1.711,-0.657Z"
          style="fill-rule:nonzero;"/>
    <path d="M1514.23,315.244c1.406,0 2.11,0.735 2.11,2.204c-0.344,0.906 -0.782,1.507 -1.313,1.804c-0.531,0.297 -1.023,0.407 -1.477,0.328c-0.453,-0.078 -0.859,-0.304 -1.218,-0.679c-0.36,-0.375 -0.555,-0.797 -0.586,-1.266c-0.031,-0.469 0.14,-0.93 0.515,-1.383c0.375,-0.453 1.032,-0.789 1.969,-1.008Z"
          style="fill-rule:nonzero;"/>
    <path d="M1518.35,304.932c0,-1.313 0.289,-2.688 0.867,-4.125c0.578,-1.438 1.352,-2.742 2.321,-3.914c0.968,-1.172 2.086,-2.149 3.351,-2.93c1.266,-0.781 2.602,-1.172 4.008,-1.172c0.719,0 1.438,0.125 2.156,0.375c0.719,0.25 1.367,0.61 1.946,1.078c0.578,0.469 1.046,1.032 1.406,1.688c0.359,0.656 0.539,1.391 0.539,2.203c-0.563,0 -1.07,-0.062 -1.524,-0.187c-0.453,-0.125 -0.898,-0.274 -1.335,-0.446c-0.438,-0.172 -0.868,-0.32 -1.29,-0.445c-0.421,-0.125 -0.882,-0.188 -1.382,-0.188c-1.282,0 -2.321,0.321 -3.118,0.961c-0.796,0.641 -1.429,1.446 -1.898,2.414c-0.469,0.969 -0.789,2.008 -0.961,3.118c-0.172,1.109 -0.258,2.148 -0.258,3.117c0,0.156 0.008,0.453 0.024,0.89l0.093,2.766c0.016,0.438 0.04,0.734 0.071,0.891c0.344,0.75 0.679,1.328 1.008,1.734c0.328,0.406 0.679,0.711 1.054,0.914c0.375,0.203 0.782,0.328 1.219,0.375c0.438,0.047 0.953,0.07 1.547,0.07c0.812,0 1.523,-0.125 2.133,-0.375c0.609,-0.25 1.179,-0.546 1.711,-0.89c0.531,-0.344 1.031,-0.727 1.5,-1.149c0.468,-0.421 0.961,-0.812 1.476,-1.171c0.516,-0.36 1.078,-0.657 1.688,-0.891c0.609,-0.234 1.304,-0.352 2.086,-0.352c-0,1.532 -0.274,2.891 -0.821,4.078c-0.547,1.188 -1.312,2.204 -2.297,3.047c-0.984,0.844 -2.14,1.493 -3.468,1.946c-1.328,0.453 -2.774,0.679 -4.336,0.679c-1.469,0 -2.789,-0.5 -3.961,-1.5c-1.172,-1 -2.172,-2.226 -3,-3.679c-0.828,-1.453 -1.461,-2.993 -1.899,-4.618c-0.437,-1.625 -0.656,-3.062 -0.656,-4.312Z"
          style="fill-rule:nonzero;"/>
    <path d="M1541.41,309.526c-0,-1.938 0.453,-3.742 1.359,-5.414c0.906,-1.672 2.102,-3.11 3.586,-4.313c1.484,-1.203 3.156,-2.148 5.016,-2.836c1.859,-0.687 3.742,-1.031 5.648,-1.031c1.063,-0 2.008,0.344 2.836,1.031c0.828,0.688 1.523,1.524 2.086,2.508c0.562,0.984 0.992,2.023 1.289,3.117c0.297,1.094 0.445,2.047 0.445,2.86c0,1.75 -0.422,3.445 -1.265,5.086c-0.844,1.64 -1.938,3.093 -3.282,4.359c-1.343,1.266 -2.859,2.289 -4.546,3.07c-1.688,0.781 -3.375,1.172 -5.063,1.172c-1.5,0 -2.766,-0.258 -3.797,-0.773c-1.031,-0.516 -1.859,-1.203 -2.484,-2.063c-0.625,-0.859 -1.086,-1.875 -1.383,-3.047c-0.297,-1.172 -0.445,-2.414 -0.445,-3.726Zm3.984,0.468c0,0.813 0.07,1.524 0.211,2.133c0.141,0.61 0.391,1.133 0.75,1.571c0.359,0.437 0.836,0.773 1.43,1.007c0.593,0.235 1.328,0.352 2.203,0.352c1.156,-0 2.312,-0.32 3.469,-0.961c1.156,-0.641 2.195,-1.453 3.117,-2.437c0.922,-0.985 1.664,-2.071 2.226,-3.258c0.563,-1.188 0.844,-2.344 0.844,-3.469c0,-0.5 -0.047,-1.047 -0.141,-1.641c-0.093,-0.593 -0.25,-1.14 -0.468,-1.64c-0.219,-0.5 -0.532,-0.922 -0.938,-1.266c-0.406,-0.344 -0.922,-0.516 -1.547,-0.516c-0.562,0 -1.226,0.188 -1.992,0.563c-0.766,0.375 -1.562,0.859 -2.391,1.453c-0.828,0.594 -1.64,1.266 -2.437,2.016c-0.797,0.75 -1.523,1.5 -2.18,2.25c-0.656,0.75 -1.179,1.468 -1.57,2.156c-0.391,0.687 -0.586,1.25 -0.586,1.687Z"
          style="fill-rule:nonzero;"/>
    <path d="M1564.48,299.354c0,-0.781 0.133,-1.391 0.399,-1.828c0.265,-0.438 0.836,-0.657 1.711,-0.657l1.031,0.047c0.219,0.969 0.445,2.024 0.679,3.164c0.235,1.141 0.508,2.289 0.821,3.446c0.312,1.156 0.664,2.297 1.054,3.422c0.391,1.125 0.868,2.14 1.43,3.046c0.563,-0.593 0.969,-1.296 1.219,-2.109c0.25,-0.812 0.437,-1.633 0.562,-2.461c0.125,-0.828 0.243,-1.625 0.352,-2.39c0.109,-0.766 0.336,-1.422 0.68,-1.969c0.343,-0.547 0.851,-0.946 1.523,-1.196c0.672,-0.25 1.602,-0.25 2.789,0c1.313,0 2.36,0.243 3.141,0.727c0.781,0.484 1.461,1.094 2.039,1.828c0.578,0.735 1.14,1.516 1.687,2.344c0.547,0.828 1.243,1.57 2.086,2.226c0.188,-0.406 0.422,-0.914 0.703,-1.523c0.282,-0.609 0.633,-1.25 1.055,-1.922c0.422,-0.672 0.875,-1.344 1.359,-2.015c0.485,-0.672 0.993,-1.282 1.524,-1.829c0.531,-0.546 1.078,-1 1.641,-1.359c0.562,-0.359 1.109,-0.539 1.64,-0.539c1.281,-0 2.391,0.398 3.328,1.195c0.938,0.797 1.742,1.797 2.414,3c0.672,1.203 1.227,2.547 1.664,4.032c0.438,1.484 0.782,2.914 1.032,4.289c0.25,1.375 0.429,2.632 0.539,3.773c0.109,1.141 0.164,1.961 0.164,2.461c-0,0.406 -0.094,0.719 -0.281,0.937c-0.188,0.219 -0.422,0.383 -0.704,0.493c-0.281,0.109 -0.586,0.179 -0.914,0.211c-0.328,0.031 -0.632,0.046 -0.914,0.046c-0.062,0 -0.156,-0.007 -0.281,-0.023c-0.125,-0.016 -0.266,-0.039 -0.422,-0.07c-0.125,-0.032 -0.297,-0.078 -0.515,-0.141l-3.047,-14.016c-0,-0.093 -0.125,-0.273 -0.375,-0.539c-0.25,-0.265 -0.438,-0.429 -0.563,-0.492c-0.094,0 -0.172,-0.015 -0.234,-0.047c-0.063,0 -0.11,-0.007 -0.141,-0.023c-0.031,-0.016 -0.062,-0.024 -0.094,-0.024c-0.656,0 -1.273,0.266 -1.851,0.797c-0.578,0.532 -1.117,1.203 -1.617,2.016c-0.5,0.812 -0.969,1.719 -1.407,2.719c-0.437,1 -0.828,1.992 -1.171,2.976c-0.344,0.985 -0.649,1.891 -0.915,2.719c-0.265,0.828 -0.476,1.461 -0.632,1.898c-0.125,0.063 -0.375,0.118 -0.75,0.165c-0.375,0.046 -0.625,0.07 -0.75,0.07c-0.875,-0 -1.547,-0.305 -2.016,-0.914c-0.469,-0.61 -0.852,-1.367 -1.148,-2.274c-0.297,-0.906 -0.547,-1.898 -0.75,-2.976c-0.204,-1.078 -0.454,-2.071 -0.75,-2.977c-0.297,-0.906 -0.704,-1.664 -1.219,-2.273c-0.516,-0.61 -1.242,-0.914 -2.18,-0.914c-0.344,-0 -0.672,0.343 -0.984,1.031c-0.313,0.687 -0.594,1.555 -0.844,2.602c-0.25,1.046 -0.484,2.171 -0.703,3.375c-0.219,1.203 -0.399,2.328 -0.539,3.375c-0.141,1.046 -0.242,1.929 -0.305,2.648c-0.062,0.719 -0.094,1.078 -0.094,1.078c-0.062,0.094 -0.187,0.195 -0.375,0.305c-0.187,0.109 -0.382,0.226 -0.586,0.351c-0.203,0.125 -0.406,0.219 -0.609,0.282c-0.203,0.062 -0.351,0.093 -0.445,0.093c-0.875,0 -1.719,-0.398 -2.531,-1.195c-0.813,-0.797 -1.555,-1.828 -2.227,-3.094c-0.672,-1.265 -1.281,-2.664 -1.828,-4.195c-0.547,-1.531 -1.008,-3.031 -1.383,-4.5c-0.375,-1.469 -0.664,-2.797 -0.867,-3.984c-0.203,-1.188 -0.305,-2.094 -0.305,-2.719Z"
          style="fill-rule:nonzero;"/></g><g id="gitlab"><g><path id="path14_3_" d="M1541.95,129.147l-11.389,0l0.052,84.899l46.132,-0l0,-10.502l-34.742,0l-0.053,-74.397Z" style="fill-rule:nonzero;"/><g
        id="g24_3_"><path id="path26_3_" d="M1620.64,199.148c-2.874,2.978 -7.628,5.956 -14.106,5.956c-8.673,-0 -12.174,-4.284 -12.174,-9.875c0,-8.411 5.852,-12.434 18.286,-12.434c2.351,0 6.113,0.261 8.046,0.627l-0,15.726l-0.052,-0Zm-11.808,-51.462c-9.195,0 -17.659,3.24 -24.241,8.725l4.022,7.001c4.65,-2.717 10.345,-5.433 18.547,-5.433c9.352,-0 13.48,4.806 13.48,12.852l-0,4.127c-1.829,-0.365 -5.591,-0.627 -7.889,-0.627c-19.958,0 -30.093,7.001 -30.093,21.63c-0,13.113 8.045,19.696 20.218,19.696c8.203,0 16.092,-3.761 18.809,-9.874l2.089,8.307l8.046,-0l0,-43.468c-0.052,-13.741 -6.008,-22.936 -22.988,-22.936Z" style="fill-rule:nonzero;"/></g><g
        id="g28_3_"><path id="path30_3_" d="M1668.57,205.493c-4.284,-0 -8.046,-0.523 -10.867,-1.829l0,-39.236c3.866,-3.239 8.673,-5.59 14.785,-5.59c11.024,-0 15.256,7.784 15.256,20.375c0,17.868 -6.844,26.28 -19.174,26.28m4.807,-57.783c-10.188,-0 -15.674,6.948 -15.674,6.948l0,-10.971l-0.052,-14.524l-11.128,-0l0.052,82.808c5.59,2.351 13.218,3.605 21.525,3.605c21.264,-0 31.504,-13.584 31.504,-37.042c-0.053,-18.547 -9.509,-30.824 -26.227,-30.824" style="fill-rule:nonzero;"/></g><g
        id="g32_5_"><path id="path34_5_" d="M1417.94,138.359c10.084,-0 16.614,3.343 20.846,6.739l4.911,-8.516c-6.635,-5.851 -15.621,-8.986 -25.234,-8.986c-24.242,0 -41.221,14.786 -41.221,44.618c-0,31.242 18.338,43.415 39.288,43.415c10.501,0 19.435,-2.455 25.286,-4.911l-0.261,-33.384l0,-10.502l-31.086,0l0,10.502l19.854,-0l0.261,25.338c-2.612,1.307 -7.106,2.351 -13.218,2.351c-16.823,0 -28.108,-10.605 -28.108,-32.914c-0.052,-22.727 11.598,-33.75 28.682,-33.75" style="fill-rule:nonzero;"/></g><g
        id="g36_4_"><path id="path38_4_" d="M1498.15,129.136l-11.128,-0l0.052,14.263l-0,49.267c-0,13.74 5.956,22.935 22.935,22.935c2.351,0 4.65,-0.209 6.844,-0.627l0,-9.978c-1.619,0.261 -3.343,0.365 -5.172,0.365c-9.352,0 -13.479,-4.806 -13.479,-12.852l-0,-33.959l18.651,-0l0,-9.3l-18.651,0l-0.052,-20.114Z" style="fill-rule:nonzero;"/></g><rect
        id="path40_33_" x="1458.72" y="149.262" width="11.128" height="64.784" style="fill-rule:nonzero;"/><rect
        id="path42_3_" x="1458.72" y="129.2" width="11.128" height="11.128" style="fill-rule:nonzero;"/></g>
    <g><path id="path50_5_" d="M1256.21,252.812l32.496,-99.957l-64.944,0l32.448,99.957Z" style="fill:#e24329;fill-rule:nonzero;"/>
        <path id="path66_12_"
              d="M1178.24,152.855l-9.896,30.368c-0.896,2.758 0.071,5.802 2.435,7.52l85.425,62.068l-77.964,-99.956Z"
              style="fill:#fca326;fill-rule:nonzero;"/>
        <path id="path74_5_"
              d="M1178.24,152.855l45.516,0l-19.589,-60.199c-1.003,-3.079 -5.372,-3.079 -6.411,0l-19.516,60.199Z"
              style="fill:#e24329;fill-rule:nonzero;"/>
        <path id="path82_12_"
              d="M1334.22,152.855l9.86,30.368c0.896,2.758 -0.071,5.802 -2.435,7.52l-85.437,62.069l78.012,-99.957Z"
              style="fill:#fca326;fill-rule:nonzero;"/>
        <path id="path86_5_"
              d="M1334.22,152.855l-45.516,0l19.553,-60.199c1.003,-3.079 5.372,-3.079 6.411,0l19.552,60.199Z"
              style="fill:#e24329;fill-rule:nonzero;"/>
        <path d="M1256.21,252.812l32.496,-99.957l45.516,0l-78.012,99.957Z" style="fill:#fc6d26;fill-rule:nonzero;"/>
        <path d="M1256.21,252.812l-77.964,-99.957l45.516,0l32.448,99.957Z" style="fill:#fc6d26;fill-rule:nonzero;"/></g></g></g></svg>