<?xml version="1.0" encoding="UTF-8" standalone="no"?>
<!DOCTYPE svg PUBLIC "-//W3C//DTD SVG 1.1//EN" "http://www.w3.org/Graphics/SVG/1.1/DTD/svg11.dtd">
<svg width="100%" height="100%" viewBox="0 0 231 60" version="1.1" xmlns="http://www.w3.org/2000/svg" xmlns:xlink="http://www.w3.org/1999/xlink" xml:space="preserve" xmlns:serif="http://www.serif.com/" style="fill-rule:evenodd;clip-rule:evenodd;stroke-linejoin:round;stroke-miterlimit:2;">
    <g id="gatsby" transform="matrix(2.14286,0,0,2.14286,0,2.27374e-13)">
        <circle cx="14" cy="14" r="14" style="fill:rgb(102,51,153);"/>
        <path d="M6.2,21.8C4.1,19.7 3,16.9 3,14.2L13.9,25C11.1,24.9 8.3,23.9 6.2,21.8ZM16.4,24.7L3.3,11.6C4.4,6.7 8.8,3 14,3C17.7,3 20.9,4.8 22.9,7.5L21.4,8.8C19.7,6.5 17,5 14,5C10.1,5 6.8,7.5 5.5,11L17,22.5C19.9,21.5 22.1,19 22.8,16L18,16L18,14L25,14C25,19.2 21.3,23.6 16.4,24.7Z" style="fill:white;fill-rule:nonzero;"/>
    </g>
    <g id="tailwindcss" transform="matrix(0.277344,0,0,0.277344,160,8.7)">
        <path d="M128,-0C93.867,-0 72.533,17.067 64,51.2C76.8,34.133 91.733,27.733 108.8,32C118.537,34.434 125.497,41.499 133.201,49.318C145.751,62.057 160.275,76.8 192,76.8C226.133,76.8 247.467,59.733 256,25.6C243.2,42.667 228.267,49.067 211.2,44.8C201.463,42.366 194.503,35.301 186.799,27.482C174.249,14.743 159.725,-0 128,-0ZM64,76.8C29.867,76.8 8.533,93.867 0,128C12.8,110.933 27.733,104.533 44.8,108.8C54.537,111.234 61.497,118.299 69.201,126.118C81.751,138.857 96.275,153.6 128,153.6C162.133,153.6 183.467,136.533 192,102.4C179.2,119.467 164.267,125.867 147.2,121.6C137.463,119.166 130.503,112.101 122.799,104.282C110.249,91.543 95.725,76.8 64,76.8Z" style="fill:url(#_Linear1);fill-rule:nonzero;"/>
    </g>
    <g id="typescript" transform="matrix(0.117188,0,0,0.117188,80,0)">
        <path d="M512,42.777C512,19.168 492.832,0 469.223,0L42.777,0C19.168,0 0,19.168 0,42.777L0,469.223C0,492.832 19.168,512 42.777,512L469.223,512C492.832,512 512,492.832 512,469.223L512,42.777Z" style="fill:rgb(49,120,198);"/>
        <path d="M316.939,407.424L316.939,457.485C325.077,461.657 334.702,464.785 345.814,466.871C356.926,468.957 368.637,470 380.949,470C392.948,470 404.346,468.853 415.145,466.558C425.944,464.264 435.413,460.483 443.551,455.216C451.689,449.95 458.132,443.066 462.879,434.566C467.626,426.066 470,415.559 470,403.044C470,393.97 468.644,386.018 465.931,379.187C463.218,372.356 459.306,366.281 454.193,360.962C449.081,355.643 442.951,350.871 435.804,346.647C428.657,342.423 420.597,338.434 411.624,334.68C405.051,331.968 399.156,329.335 393.939,326.78C388.722,324.224 384.288,321.617 380.636,318.958C376.984,316.298 374.167,313.482 372.185,310.51C370.203,307.537 369.211,304.174 369.211,300.419C369.211,296.978 370.098,293.875 371.872,291.111C373.646,288.347 376.15,285.975 379.384,283.993C382.619,282.012 386.583,280.473 391.278,279.378C395.974,278.283 401.19,277.736 406.929,277.736C411.102,277.736 415.51,278.049 420.153,278.674C424.796,279.3 429.465,280.265 434.161,281.568C438.856,282.872 443.42,284.515 447.855,286.496C452.289,288.478 456.384,290.772 460.14,293.38L460.14,246.604C452.524,243.684 444.203,241.52 435.178,240.112C426.153,238.704 415.797,238 404.112,238C392.217,238 380.949,239.278 370.307,241.833C359.665,244.388 350.301,248.377 342.214,253.8C334.128,259.224 327.738,266.133 323.043,274.529C318.348,282.924 316,292.962 316,304.643C316,319.557 320.304,332.281 328.912,342.815C337.519,353.348 350.587,362.265 368.116,369.566C375.002,372.382 381.419,375.145 387.366,377.857C393.313,380.569 398.452,383.385 402.781,386.305C407.111,389.225 410.528,392.406 413.033,395.848C415.537,399.289 416.789,403.2 416.789,407.581C416.789,410.814 416.006,413.812 414.441,416.576C412.876,419.34 410.502,421.738 407.32,423.772C404.138,425.806 400.173,427.396 395.426,428.543C390.678,429.691 385.123,430.264 378.758,430.264C367.907,430.264 357.161,428.361 346.518,424.554C335.876,420.748 326.016,415.038 316.939,407.424ZM232.78,284.082L297,284.082L297,243L118,243L118,284.082L181.906,284.082L181.906,467L232.78,467L232.78,284.082Z" style="fill:white;"/>
    </g>
    <defs>
        <linearGradient id="_Linear1" x1="0" y1="0" x2="1" y2="0" gradientUnits="userSpaceOnUse" gradientTransform="matrix(263.111,54.6133,-54.6133,263.111,-7.11111,49.152)"><stop offset="0" style="stop-color:rgb(34,152,189);stop-opacity:1"/><stop offset="1" style="stop-color:rgb(14,215,181);stop-opacity:1"/></linearGradient>
    </defs>
</svg>
