<svg fill="currentColor" viewBox="0 0 314 210" version="1.1" xmlns="http://www.w3.org/2000/svg"
     xml:space="preserve"
     style="fill-rule:evenodd;clip-rule:evenodd;stroke-linejoin:round;stroke-miterlimit:2;">
    <g transform="matrix(0.1,0,0,-0.1,2.25348e-05,209.902)">
        <g>
            <path d="M135.332,948.809C119.16,931.738 99.102,924.551 76.652,924.551C54.492,924.551 35.332,932.641 20.66,947.309C-0.297,968.262 0,991.922 0,1032.93C0,1073.96 -0.297,1097.61 20.66,1118.57C35.332,1133.24 53.898,1141.32 76.652,1141.32C121.855,1141.32 148.203,1111.68 154.199,1075.15L121.562,1075.15C116.172,1098.51 100.605,1112.28 76.652,1112.28C64.074,1112.28 52.695,1107.19 45.211,1099.11C34.731,1087.73 32.34,1075.75 32.34,1032.93C32.34,990.121 34.731,977.852 45.211,966.469C52.695,958.379 64.074,953.602 76.652,953.602C90.723,953.602 102.996,958.988 111.387,968.57C119.16,977.539 122.156,988.32 122.156,1002.1L122.156,1014.07L76.652,1014.07L76.652,1041.62L154.492,1041.62L154.492,1008.99C154.492,981.449 149.402,963.77 135.332,948.809"
                  style="fill-rule:nonzero;"/>
            <path d="M371.855,1042.52C364.973,1049.41 359.59,1052.7 349.102,1052.7C332.637,1052.7 318.867,1039.52 318.867,1018.57L318.867,926.352L288.32,926.352L288.32,1078.15L318.262,1078.15L318.262,1061.68C326.055,1072.46 341.621,1079.94 358.691,1079.94C373.359,1079.94 384.434,1076.05 394.91,1065.57L371.855,1042.52"
                  style="fill-rule:nonzero;"/>
            <path d="M586.465,1035.33C581.68,1046.71 570.898,1054.49 556.523,1054.49C542.148,1054.49 531.074,1046.71 526.289,1035.33C523.293,1028.45 522.695,1023.96 522.395,1014.67L590.652,1014.67C590.352,1023.96 589.453,1028.45 586.465,1035.33ZM522.395,993.422C522.395,967.359 536.16,950.898 561.016,950.898C578.086,950.898 587.062,955.691 597.844,966.469L617.305,948.199C601.738,932.641 587.062,924.551 560.41,924.551C522.395,924.551 492.148,944.609 492.148,1002.4C492.148,1051.5 517.598,1079.94 556.523,1079.94C597.246,1079.94 620.898,1050 620.898,1006.9L620.898,993.422L522.395,993.422"
                  style="fill-rule:nonzero;"/>
            <path d="M843.652,926.352L843.652,1018.87C843.652,1042.52 830.176,1052.7 813.105,1052.7C796.047,1052.7 781.672,1042.22 781.672,1018.87L781.672,926.352L751.133,926.352L751.133,1078.15L781.074,1078.15L781.074,1062.88C791.555,1074.25 806.223,1079.94 821.492,1079.94C837.062,1079.94 849.941,1074.85 858.918,1066.17C870.598,1054.8 874.188,1040.42 874.188,1023.36L874.188,926.352L843.652,926.352"
                  style="fill-rule:nonzero;"/>
            <path d="M1089.45,1044.02C1083.77,1049.71 1075.98,1052.7 1067,1052.7C1058.02,1052.7 1050.53,1049.71 1044.84,1044.02C1035.57,1034.73 1034.37,1018.87 1034.37,1002.4C1034.37,985.93 1035.57,970.059 1044.84,960.781C1050.53,955.102 1058.02,951.801 1067,951.801C1075.98,951.801 1083.77,955.102 1089.45,960.781C1098.74,970.059 1099.93,985.93 1099.93,1002.4C1099.93,1018.87 1098.74,1034.73 1089.45,1044.02ZM1112.51,942.52C1102.63,932.34 1087.66,924.551 1067,924.551C1046.34,924.551 1031.67,932.34 1021.79,942.52C1007.42,957.48 1003.83,976.648 1003.83,1002.4C1003.83,1027.85 1007.42,1047.01 1021.79,1061.98C1031.67,1072.16 1046.34,1079.94 1067,1079.94C1087.66,1079.94 1102.63,1072.16 1112.51,1061.98C1126.88,1047.01 1130.47,1027.85 1130.47,1002.4C1130.47,976.648 1126.88,957.48 1112.51,942.52"
                  style="fill-rule:nonzero;"/>
            <path d="M1323.89,1052.7C1296.34,1052.7 1292.15,1029.35 1292.15,1002.4C1292.15,975.449 1296.34,951.801 1323.89,951.801C1351.43,951.801 1355.32,975.449 1355.32,1002.4C1355.32,1029.35 1351.43,1052.7 1323.89,1052.7ZM1368.79,938.031C1360.41,929.648 1346.93,924.551 1331.67,924.551C1315.2,924.551 1302.92,928.75 1291.54,942.52L1291.54,926.352L1261.6,926.352L1261.6,1139.53L1292.15,1139.53L1292.15,1062.88C1303.22,1076.05 1315.8,1079.94 1331.96,1079.94C1347.24,1079.94 1360.41,1074.85 1368.79,1066.47C1384.06,1051.2 1385.86,1025.45 1385.86,1002.4C1385.86,979.34 1384.06,953.301 1368.79,938.031"
                  style="fill-rule:nonzero;"/>
            <path d="M1557.71,926.352C1528.67,926.352 1516.09,945.809 1516.09,968.262L1516.09,1139.53L1546.64,1139.53L1546.64,970.059C1546.64,958.379 1550.83,952.398 1563.11,952.398L1576.58,952.398L1576.58,926.352L1557.71,926.352"
                  style="fill-rule:nonzero;"/>
            <path d="M1778.94,1035.33C1774.14,1046.71 1763.37,1054.49 1748.99,1054.49C1734.62,1054.49 1723.54,1046.71 1718.75,1035.33C1715.76,1028.45 1715.16,1023.96 1714.86,1014.67L1783.13,1014.67C1782.82,1023.96 1781.92,1028.45 1778.94,1035.33ZM1714.86,993.422C1714.86,967.359 1728.63,950.898 1753.49,950.898C1770.55,950.898 1779.53,955.691 1790.31,966.469L1809.78,948.199C1794.2,932.641 1779.53,924.551 1752.89,924.551C1714.86,924.551 1684.62,944.609 1684.62,1002.4C1684.62,1051.5 1710.07,1079.94 1748.99,1079.94C1789.72,1079.94 1813.37,1050 1813.37,1006.9L1813.37,993.422L1714.86,993.422"
                  style="fill-rule:nonzero;"/>
            <rect x="2097.19" y="926.352" width="52.398" height="213.176" style="fill-rule:nonzero;"/>
            <path d="M2403.17,926.352L2334.91,1033.54L2334.91,926.352L2282.51,926.352L2282.51,1139.53L2328.32,1139.53L2396.59,1032.35L2396.59,1139.53L2448.98,1139.53L2448.98,926.352L2403.17,926.352"
                  style="fill-rule:nonzero;"/>
            <path d="M2663.96,1092.52L2634.32,1092.52L2634.32,1049.41L2663.96,1049.41C2678.33,1049.41 2686.71,1059.88 2686.71,1070.96C2686.71,1082.04 2678.33,1092.52 2663.96,1092.52ZM2666.35,1002.4L2634.32,1002.4L2634.32,926.352L2581.91,926.352L2581.91,1139.53L2666.35,1139.53C2713.65,1139.53 2739.11,1105.99 2739.11,1070.96C2739.11,1035.94 2713.65,1002.4 2666.35,1002.4"
                  style="fill-rule:nonzero;"/>
            <path d="M1823.62,1623.92L1827.71,1611.89C1880.66,1453.47 1907.52,1287.59 1907.52,1118.87C1907.52,888.262 1858.22,666.352 1761,459.281L1851.52,416.781C1955.03,637.25 2007.52,873.461 2007.52,1118.87C2007.52,1298.38 1978.93,1474.94 1922.53,1643.63C1922.51,1643.67 1918.19,1656.42 1918.19,1656.42L1823.62,1623.92"
                  style="fill-rule:nonzero;"/>
            <path d="M2068.65,619.012C2009.99,417.379 1916.73,229.102 1791.47,59.379L1871.92,0C2004.21,179.23 2102.71,378.102 2164.67,591.078L2068.65,619.012"
                  style="fill-rule:nonzero;"/>
            <path d="M1879.74,2046.98C2037.2,1788.61 2126.57,1491.75 2138.19,1188.46L2238.12,1192.29C2225.85,1512.58 2131.45,1826.12 1965.13,2099.02L1879.74,2046.98"
                  style="fill-rule:nonzero;"/>
            <path d="M2774.79,1667.06C2815.09,1488.27 2835.52,1303.84 2835.52,1118.87C2835.52,933.641 2815.03,748.98 2774.64,570L2872.18,547.988C2914.21,734.172 2935.52,926.25 2935.52,1118.87C2935.52,1311.22 2914.26,1503.06 2872.34,1689.04L2774.79,1667.06"
                  style="fill-rule:nonzero;"/>
            <path d="M2489.99,889.391C2469.95,710.77 2427.56,535.289 2363.96,367.801L2457.46,332.32C2524.01,507.629 2568.4,691.301 2589.37,878.23L2489.99,889.391"
                  style="fill-rule:nonzero;"/>
            <path d="M2481.92,1438.36C2493.29,1358.52 2500.24,1276.96 2502.6,1195.94L2602.56,1198.85C2600.09,1283.59 2592.81,1368.91 2580.93,1452.45L2481.92,1438.36"
                  style="fill-rule:nonzero;"/>
            <path d="M2990.22,1647.51C3022.93,1478.89 3039.51,1305.52 3039.51,1132.2C3039.51,1111.94 3039.29,1091.59 3038.84,1071.73L3138.82,1069.48C3139.28,1090.09 3139.51,1111.2 3139.51,1132.2C3139.51,1311.89 3122.31,1491.68 3088.39,1666.55L2990.22,1647.51"
                  style="fill-rule:nonzero;"/>
        </g>
    </g>
</svg>
