<svg fill="currentColor" viewBox="0 0 750 136" version="1.1" xmlns="http://www.w3.org/2000/svg"
     xml:space="preserve"
     style="fill-rule:evenodd;clip-rule:evenodd;stroke-linejoin:round;stroke-miterlimit:2;">
    <g transform="matrix(1.41327,0,0,-1.41327,61.7142,0)">
        <path d="M0,0L0,-84.129L19.049,-90.164L19.049,-19.623C19.049,-16.299 20.531,-14.092 22.908,-14.851C26.016,-15.713 26.62,-18.775 26.62,-22.062L26.62,-50.235C38.477,-55.974 47.812,-50.232 47.812,-35.09C47.812,-19.617 42.339,-12.724 26.235,-7.182C19.883,-5.067 8.111,-1.498 0,0"
              style="fill-rule:nonzero;"/>
    </g>
    <g transform="matrix(1.41327,0,0,-1.41327,93.7559,110.044)">
        <path d="M0,0L30.594,10.889C34.055,12.172 34.584,13.915 31.783,14.831C28.938,15.764 23.86,15.497 20.362,14.241L0,7.058L0,18.519L1.166,18.904C1.166,18.904 7.06,20.992 15.35,21.891C23.624,22.798 33.771,21.773 41.746,18.767C50.73,15.913 51.737,11.75 49.464,8.853C47.158,5.986 41.567,3.912 41.567,3.912L0,-11.02"
              style="fill-rule:nonzero;"/>
    </g>
    <g transform="matrix(1.41327,0,0,-1.41327,12.3882,108.406)">
        <path d="M0,0C-9.211,2.566 -10.747,7.988 -6.545,11.12C-2.669,13.98 3.932,16.133 3.932,16.133L31.219,25.862L31.219,14.789L11.601,7.757C8.126,6.514 7.605,4.765 10.404,3.85C13.253,2.898 18.309,3.154 21.786,4.437L31.219,7.838L31.219,-2.047C30.611,-2.149 29.935,-2.252 29.318,-2.357C19.913,-3.918 9.893,-3.277 0,0"
              style="fill-rule:nonzero;"/>
    </g>
    <g transform="matrix(1.41327,0,0,-1.41327,156.793,119.318)">
        <path d="M0,0C0,-0.28 -0.067,-0.463 -0.21,-0.555C-0.375,-0.667 -0.591,-0.723 -0.863,-0.723L-2.231,-0.723L-2.231,0.673L-0.783,0.673C-0.578,0.673 -0.425,0.638 -0.302,0.59C-0.102,0.492 0,0.295 0,0M0.989,-3.201C0.92,-3.181 0.872,-3.113 0.832,-2.998C0.814,-2.909 0.801,-2.783 0.797,-2.621L0.775,-1.988C0.765,-1.695 0.709,-1.467 0.586,-1.331C0.525,-1.224 0.416,-1.156 0.312,-1.082C0.448,-0.958 0.573,-0.831 0.679,-0.692C0.801,-0.495 0.872,-0.228 0.872,0.057C0.872,0.638 0.622,1.051 0.135,1.28C-0.108,1.383 -0.425,1.45 -0.802,1.45L-3.112,1.45L-3.112,-3.519L-2.231,-3.519L-2.231,-1.496L-0.888,-1.496C-0.638,-1.496 -0.47,-1.528 -0.347,-1.569C-0.181,-1.675 -0.091,-1.835 -0.08,-2.11L-0.037,-2.885C-0.024,-3.083 -0.011,-3.201 0,-3.291L0.066,-3.462L0.084,-3.519L1.051,-3.519L1.051,-3.236M-4.922,-1.147C-4.922,-0.132 -4.542,0.799 -3.848,1.489C-3.137,2.194 -2.188,2.574 -1.202,2.574C-0.215,2.574 0.71,2.194 1.404,1.489C2.104,0.799 2.482,-0.132 2.482,-1.147C2.482,-3.181 0.828,-4.832 -1.202,-4.832C-2.188,-4.832 -3.137,-4.456 -3.848,-3.76C-4.542,-3.058 -4.922,-2.137 -4.922,-1.147M-1.202,-5.594C-0.011,-5.594 1.095,-5.124 1.938,-4.292C2.771,-3.445 3.241,-2.339 3.241,-1.147C3.241,0.056 2.771,1.181 1.938,2.012C1.095,2.862 -0.011,3.317 -1.202,3.317C-3.674,3.317 -5.673,1.322 -5.673,-1.147C-5.673,-2.339 -5.212,-3.445 -4.379,-4.292C-3.535,-5.124 -2.393,-5.594 -1.202,-5.594"
              style="fill-rule:nonzero;"/>
    </g>
    <g transform="matrix(1.41327,0,0,-1.41327,252.797,31.2022)">
        <path d="M0,0L-23.004,0.01C-23.099,0.01 -23.175,-0.065 -23.175,-0.152L-23.175,-53.954C-23.175,-54.04 -23.099,-54.121 -23.004,-54.121L-13.681,-54.121L-13.517,-53.954L-13.506,-5.992L-13.451,-5.912L-2.776,-5.892C1.111,-5.892 3.246,-9.809 3.246,-16.907C3.246,-24.009 1.111,-27.935 -2.776,-27.935L-9.201,-27.928C-9.297,-27.928 -9.362,-28.001 -9.362,-28.093L-9.362,-33.675C-9.362,-33.784 -9.297,-33.85 -9.201,-33.85L0,-33.85C3.246,-33.85 6.425,-32.346 8.719,-29.761C11.437,-26.693 12.868,-22.264 12.868,-16.956C12.868,-6.67 7.844,0 0,0"
              style="fill-rule:nonzero;"/>
    </g>
    <g transform="matrix(1.41327,0,0,-1.41327,292.533,31.188)">
        <path d="M0,0L-9.329,0C-9.435,0 -9.511,-0.075 -9.511,-0.162L-9.511,-53.964C-9.511,-54.051 -9.435,-54.131 -9.329,-54.131L0,-54.131L0.171,-53.964L0.171,-0.162L0,0"
              style="fill-rule:nonzero;"/>
    </g>
    <g transform="matrix(1.41327,0,0,-1.41327,350.033,49.6962)">
        <path d="M0,0C0,0.095 -0.084,0.167 -0.176,0.167L-16.789,0.167C-31.686,0.167 -33.59,-10.768 -33.59,-20.378L-33.579,-28.689C-33.579,-35.841 -29.131,-41.034 -23.016,-41.034L-13.952,-41.034L-13.788,-40.868L-13.788,-35.292C-13.788,-35.201 -13.865,-35.12 -13.952,-35.12L-20.426,-35.131C-21.918,-35.1 -23.926,-34.469 -23.926,-29.341L-23.926,-20.368C-23.933,-14.405 -23.378,-10.593 -22.14,-8.424C-20.799,-6.03 -18.688,-5.709 -16.789,-5.709L-9.708,-5.709L-9.648,-5.793L-9.657,-40.868C-9.657,-40.953 -9.585,-41.034 -9.486,-41.034L-0.174,-41.034C-0.082,-41.034 0,-40.953 0,-40.868"
              style="fill-rule:nonzero;"/>
    </g>
    <g transform="matrix(1.41327,0,0,-1.41327,444.873,63.0078)">
        <path d="M0,0L-4.594,0.35C-8.039,0.647 -10.601,2.555 -10.601,8.2C-10.601,14.791 -7.645,16.594 -3.699,16.594L9.016,16.594L9.185,16.758L9.185,22.353L9.016,22.514L8.75,22.514L-5.025,22.511C-13.703,22.511 -19.874,17.414 -19.874,7.256L-19.874,6.814C-19.874,-1.201 -14.942,-6.986 -7.592,-7.548L-3.02,-7.887C0.468,-8.151 2.64,-11.27 2.64,-16.003L2.64,-17.334C2.64,-20.293 1.9,-25.707 -4.446,-25.707L-17.657,-25.707C-17.746,-25.707 -17.823,-25.784 -17.823,-25.879L-17.823,-31.448L-17.657,-31.615L-1.255,-31.615C3.799,-31.615 12.262,-29.57 12.262,-15.814C12.262,-10.83 11.13,-6.902 8.835,-4.063C6.879,-1.625 3.981,-0.306 0,0"
              style="fill-rule:nonzero;"/>
    </g>
    <g transform="matrix(1.41327,0,0,-1.41327,552.849,49.6962)">
        <path d="M0,0C0,0.095 -0.079,0.167 -0.167,0.167L-16.817,0.167C-31.682,0.167 -33.606,-10.768 -33.606,-20.378L-33.594,-28.689C-33.594,-35.841 -29.15,-41.034 -23.003,-41.034L-13.964,-41.034L-13.796,-40.868L-13.796,-35.292C-13.796,-35.201 -13.875,-35.12 -13.964,-35.12L-20.442,-35.131C-21.928,-35.1 -23.918,-34.469 -23.924,-29.341L-23.924,-20.368C-23.924,-14.405 -23.363,-10.593 -22.154,-8.424C-20.812,-6.03 -18.687,-5.709 -16.82,-5.709L-9.707,-5.709L-9.637,-5.793L-9.654,-40.868C-9.654,-40.953 -9.577,-41.034 -9.484,-41.034L-0.159,-41.034C-0.067,-41.034 -0,-40.953 -0,-40.868"
              style="fill-rule:nonzero;"/>
    </g>
    <g transform="matrix(1.41327,0,0,-1.41327,499.881,49.4616)">
        <path d="M0,0L-10.12,0L-10.173,0.062L-10.173,6.842C-10.173,6.932 -10.242,7.008 -10.336,7.008L-19.656,7.008C-19.751,7.008 -19.834,6.932 -19.834,6.842L-19.834,-28.86C-19.834,-36.011 -15.376,-41.201 -9.238,-41.201L-2.563,-41.201C-2.467,-41.201 -2.393,-41.12 -2.393,-41.034L-2.393,-35.464C-2.393,-35.373 -2.467,-35.287 -2.563,-35.287L-6.661,-35.287C-7.711,-35.271 -10.173,-35.218 -10.183,-29.949L-10.183,-5.914L-10.126,-5.86C-7.026,-5.876 0,-5.86 0,-5.86L0.164,-5.707L0.164,-0.167C0.164,-0.073 0.087,0 0,0"
              style="fill-rule:nonzero;"/>
    </g>
    <g transform="matrix(1.41327,0,0,-1.41327,591.866,49.4616)">
        <path d="M0,0L-10.063,0L-10.131,0.062L-10.131,6.842L-10.285,7.008L-19.624,7.008C-19.716,7.008 -19.796,6.932 -19.796,6.842L-19.796,-28.86C-19.796,-36.011 -15.346,-41.201 -9.212,-41.201L-2.539,-41.201C-2.439,-41.201 -2.374,-41.12 -2.374,-41.034L-2.374,-35.464C-2.374,-35.373 -2.439,-35.287 -2.539,-35.287L-6.636,-35.287C-7.689,-35.271 -10.131,-35.218 -10.131,-29.949L-10.131,-5.914L-10.075,-5.86C-6.999,-5.876 0,-5.86 0,-5.86L0.166,-5.707L0.166,-0.167C0.166,-0.073 0.082,0 0,0"
              style="fill-rule:nonzero;"/>
    </g>
    <g transform="matrix(1.41327,0,0,-1.41327,613.646,49.4616)">
        <path d="M0,0L-9.319,0C-9.406,0 -9.489,-0.073 -9.489,-0.167L-9.489,-41.034L-9.319,-41.201L0,-41.201C0.102,-41.201 0.172,-41.12 0.172,-41.034L0.172,-0.167C0.172,-0.073 0.102,0 0,0"
              style="fill-rule:nonzero;"/>
    </g>
    <g transform="matrix(1.41327,0,0,-1.41327,613.646,31.188)">
        <path d="M0,0L-9.319,0L-9.489,-0.162L-9.489,-7.975C-9.489,-8.07 -9.406,-8.14 -9.319,-8.14L0,-8.14C0.102,-8.14 0.172,-8.07 0.172,-7.975L0.172,-0.162C0.172,-0.075 0.102,0 0,0"
              style="fill-rule:nonzero;"/>
    </g>
    <g transform="matrix(1.41327,0,0,-1.41327,704.775,49.4616)">
        <path d="M0,0L-16.633,0C-16.72,0 -16.797,-0.073 -16.797,-0.167L-16.802,-41.034L-16.646,-41.201L-7.31,-41.201L-7.152,-41.034L-7.165,-5.949L-7.1,-5.881L-0.008,-5.876C1.91,-5.876 4.014,-6.185 5.36,-8.403C6.591,-10.407 7.149,-13.93 7.149,-19.459C7.157,-19.698 7.142,-41.034 7.142,-41.034C7.142,-41.12 7.216,-41.201 7.308,-41.201L16.604,-41.201C16.705,-41.201 16.779,-41.12 16.779,-41.034L16.779,-20.539C16.779,-10.934 14.86,0 0,0"
              style="fill-rule:nonzero;"/>
    </g>
    <g transform="matrix(1.41327,0,0,-1.41327,655.832,95.5074)">
        <path d="M0,0C-1.467,-2.416 -3.796,-2.739 -5.909,-2.739C-8.001,-2.739 -10.337,-2.416 -11.82,0C-13.157,2.174 -13.776,5.983 -13.776,11.989L-13.776,12.037C-13.776,19.125 -12.904,23.152 -10.953,25.07C-9.786,26.234 -8.273,26.706 -5.909,26.706C-3.511,26.706 -2.013,26.234 -0.847,25.07C1.087,23.152 1.961,19.108 1.961,11.989C1.961,5.975 1.34,2.163 0,0M-5.909,32.581C-21.477,32.581 -23.467,21.595 -23.467,11.989C-23.467,2.372 -21.477,-8.65 -5.909,-8.65C9.66,-8.65 11.645,2.372 11.645,11.989C11.645,21.595 9.66,32.581 -5.909,32.581"
              style="fill-rule:nonzero;"/>
    </g>
    <g transform="matrix(1.41327,0,0,-1.41327,357.467,49.4616)">
        <path d="M0,0L-0.108,-0.162L13.72,-40.655C13.743,-40.746 13.743,-40.886 13.714,-40.975L5.928,-61.024C5.895,-61.119 5.938,-61.189 6.03,-61.189L14.138,-61.189C14.238,-61.189 14.343,-61.119 14.376,-61.024L38.65,-0.162C38.684,-0.065 38.641,0 38.546,0L29.7,0C29.604,0 29.503,-0.073 29.473,-0.162L19.196,-26.771L19.081,-26.771L10.008,-0.162C9.987,-0.065 9.883,0 9.79,0"
              style="fill-rule:nonzero;"/>
    </g>
    <g transform="matrix(1.41327,0,0,-1.41327,745.429,99.7981)">
        <path d="M0,0C0,-0.27 -0.075,-0.446 -0.218,-0.551C-0.377,-0.665 -0.595,-0.713 -0.862,-0.713L-2.229,-0.713L-2.229,0.678L-0.785,0.678C-0.579,0.678 -0.423,0.646 -0.307,0.592C-0.11,0.495 0,0.301 0,0M0.982,-3.199C0.918,-3.174 0.867,-3.106 0.826,-2.993C0.813,-2.909 0.8,-2.771 0.797,-2.616L0.775,-1.991C0.762,-1.685 0.708,-1.456 0.579,-1.331C0.518,-1.221 0.412,-1.146 0.312,-1.069C0.441,-0.949 0.57,-0.826 0.675,-0.684C0.8,-0.487 0.867,-0.231 0.867,0.054C0.867,0.646 0.618,1.056 0.134,1.283C-0.118,1.385 -0.423,1.453 -0.805,1.453L-3.109,1.453L-3.109,-3.514L-2.229,-3.514L-2.229,-1.488L-0.89,-1.488C-0.643,-1.488 -0.466,-1.523 -0.354,-1.563C-0.188,-1.669 -0.097,-1.832 -0.082,-2.104L-0.038,-2.883C-0.027,-3.075 -0.016,-3.199 0,-3.277L0.059,-3.454L0.078,-3.514L1.046,-3.514L1.046,-3.226M-4.925,-1.142C-4.925,-0.124 -4.545,0.8 -3.845,1.5C-3.135,2.197 -2.189,2.579 -1.21,2.579C-0.22,2.579 0.703,2.197 1.398,1.5C2.101,0.8 2.483,-0.124 2.483,-1.142C2.483,-3.176 0.823,-4.828 -1.21,-4.828C-2.189,-4.828 -3.135,-4.451 -3.845,-3.755C-4.545,-3.058 -4.925,-2.13 -4.925,-1.142M-1.21,-5.584C-0.015,-5.584 1.096,-5.114 1.941,-4.288C2.766,-3.445 3.234,-2.329 3.234,-1.142C3.234,0.061 2.766,1.188 1.941,2.019C1.096,2.864 -0.015,3.322 -1.21,3.322C-3.669,3.322 -5.67,1.33 -5.67,-1.142C-5.67,-2.329 -5.213,-3.445 -4.377,-4.288C-3.534,-5.114 -2.396,-5.584 -1.21,-5.584"
              style="fill-rule:nonzero;"/>
    </g>
</svg>
